<svg width="196" height="153" viewBox="0 0 196 153" fill="none" xmlns="http://www.w3.org/2000/svg">
<g clip-path="url(#clip0_1890_142)">
<rect width="196" height="152.484" fill="white"/>
<ellipse opacity="0.5" cx="98" cy="84" rx="80" ry="76" fill="#FFC882"/>
<path d="M112.514 39.4839H79.3984V59.092H112.514V39.4839Z" fill="#2F2E41"/>
<path d="M46.5876 42.6461H29.5137V36.6922C29.5137 34.4281 30.4131 32.2567 32.0141 30.6557C33.6151 29.0547 35.7865 28.1553 38.0506 28.1553C40.3148 28.1553 42.4862 29.0547 44.0872 30.6557C45.6882 32.2567 46.5876 34.4281 46.5876 36.6922V42.6461ZM29.8917 42.2681H46.2096V36.6922C46.2096 34.5284 45.35 32.4531 43.8199 30.923C42.2898 29.3929 40.2145 28.5333 38.0506 28.5333C35.8867 28.5333 33.8115 29.3929 32.2814 30.923C30.7513 32.4531 29.8917 34.5284 29.8917 36.6922V42.2681Z" fill="#3F3D56"/>
<path d="M55.0336 41.8273V39.5005L11.6126 40.6639L10.2383 99.6015L16.6645 107.54L55.0336 41.8273Z" fill="#3F3D56"/>
<path d="M62.7177 41.0068L15.6543 42.0779L16.6622 107.538L62.0806 102.643L62.7177 41.0068Z" fill="#F9A826"/>
<path d="M67.436 124.074C67.436 124.074 59.6309 140.883 66.6822 174.716C73.7334 208.549 73.7917 245.692 73.7917 245.692L84.5735 245.868L90.6302 165.901L93.8013 244.739H104.424L113.785 167.148C113.785 167.148 119.945 132.501 106.208 126.297L67.436 124.074Z" fill="#2F2E41"/>
<path d="M104.794 64.7562L81.1871 62.5801C73.7841 67.976 69.6291 77.6674 70.482 87.6669C71.6385 101.225 71.2472 119.883 61.9668 127.988C61.9668 127.988 87.261 147.952 109.73 129.012C109.73 129.012 102.047 108.429 107.322 100.209C112.597 91.9896 114.5 68.8957 104.794 64.7562Z" fill="#E4E4E4"/>
<path d="M34.5536 31.2564C34.4812 31.9368 34.5589 32.6249 34.7812 33.2721C35.0035 33.9194 35.365 34.5099 35.8403 35.0023C36.3155 35.4947 36.8929 35.8769 37.5319 36.122C38.1708 36.3671 38.8557 36.4691 39.5383 36.4209L70.7079 65.5096L76.2944 56.9997L43.8991 31.0824C43.742 29.941 43.1717 28.8968 42.2963 28.1478C41.4208 27.3988 40.301 26.9969 39.149 27.0184C37.9971 27.0398 36.893 27.4831 36.0461 28.2642C35.1991 29.0453 34.6681 30.1099 34.5536 31.2564Z" fill="#FFB6B6"/>
<path d="M64.8879 61.0151L72.2823 53.4194C72.4927 53.2033 72.7472 53.0351 73.0284 52.9262C73.3097 52.8173 73.6111 52.7703 73.9122 52.7885C74.2133 52.8066 74.5069 52.8893 74.7731 53.0312C75.0393 53.173 75.2718 53.3705 75.4547 53.6103L81.8653 62.0124C82.9648 63.0951 83.59 64.5696 83.604 66.1127C83.618 67.6557 83.0197 69.1413 81.94 70.2438C80.8604 71.3464 79.3877 71.9758 77.8447 71.9942C76.3017 72.0126 74.8144 71.4184 73.7089 70.3419L65.1639 64.1813C64.9193 64.0049 64.7156 63.7777 64.5666 63.5155C64.4177 63.2532 64.3271 62.9619 64.3009 62.6614C64.2747 62.3609 64.3136 62.0583 64.4149 61.7742C64.5162 61.4901 64.6775 61.2312 64.8879 61.0151Z" fill="#E4E4E4"/>
<path d="M150.353 102.093C150.387 101.41 150.271 100.727 150.013 100.093C149.756 99.4591 149.362 98.8895 148.86 98.4243C148.358 97.9591 147.76 97.6096 147.109 97.4004C146.457 97.1911 145.768 97.1273 145.089 97.2134L112.351 69.9014L107.246 78.7084L141.031 102.786C141.252 103.917 141.879 104.928 142.795 105.627C143.71 106.326 144.851 106.665 146 106.58C147.149 106.494 148.226 105.99 149.029 105.164C149.831 104.337 150.302 103.244 150.353 102.093Z" fill="#FFB6B6"/>
<path d="M118.413 74.0651L111.452 82.0598C111.254 82.2873 111.009 82.4694 110.734 82.5937C110.459 82.7181 110.161 82.7817 109.859 82.7804C109.558 82.779 109.26 82.7127 108.986 82.5859C108.713 82.459 108.47 82.2748 108.274 82.0455L101.406 74.0125C100.248 72.9926 99.5417 71.5551 99.4419 70.0151C99.3421 68.4751 99.857 66.9584 100.874 65.7975C101.891 64.6367 103.326 63.9263 104.866 63.8223C106.406 63.7183 107.924 64.2292 109.087 65.2428L117.961 70.9191C118.215 71.0817 118.431 71.2971 118.595 71.5507C118.758 71.8043 118.865 72.0901 118.907 72.3887C118.95 72.6872 118.928 72.9915 118.843 73.2808C118.758 73.5701 118.611 73.8376 118.413 74.0651Z" fill="#E4E4E4"/>
<path d="M153.677 113.643H140.744V109.134C140.744 107.419 141.425 105.774 142.638 104.561C143.851 103.348 145.496 102.667 147.211 102.667C148.926 102.667 150.57 103.348 151.783 104.561C152.996 105.774 153.677 107.419 153.677 109.134L153.677 113.643ZM141.03 113.357H153.391V109.134C153.391 107.494 152.74 105.922 151.581 104.763C150.422 103.604 148.85 102.953 147.211 102.953C145.572 102.953 144 103.604 142.841 104.763C141.682 105.922 141.03 107.494 141.03 109.134V113.357Z" fill="#3F3D56"/>
<path d="M160.072 113.022V111.259L127.182 112.141L126.141 156.784L131.008 162.797L160.072 113.022Z" fill="#3F3D56"/>
<path d="M165.897 112.4L130.248 113.212L131.011 162.796L165.415 159.088L165.897 112.4Z" fill="#F9A826"/>
<path d="M94.6467 58.6551C102.347 58.6551 108.59 52.4124 108.59 44.7116C108.59 37.0108 102.347 30.7681 94.6467 30.7681C86.9459 30.7681 80.7031 37.0108 80.7031 44.7116C80.7031 52.4124 86.9459 58.6551 94.6467 58.6551Z" fill="#FFB6B6"/>
<path d="M88.2276 38.4984C93.0512 43.2255 101.445 43.6785 106.75 39.4981C108.222 44.5758 108.383 49.9439 107.218 55.1008C106.053 60.2577 103.6 65.0352 100.088 68.987C103.039 70.0531 106.435 69.3517 109.073 67.6524C111.71 65.9531 113.663 63.3586 115.137 60.589C118.786 53.7328 119.699 45.3612 117.118 38.0362C114.537 30.7111 108.353 24.6372 100.839 22.6704C93.3258 20.7036 84.7111 23.133 79.6914 29.0594C74.4423 35.2565 73.5918 44.3368 75.8921 52.1257C78.1923 59.9145 83.2375 66.6033 88.7807 72.5388C86.1182 65.6923 84.3526 58.5301 83.5278 51.2306C83.2459 48.7306 83.081 46.1537 83.7873 43.7391C84.4936 41.3245 86.2317 39.0754 88.6543 38.3969" fill="#2F2E41"/>
</g>
<defs>
<clipPath id="clip0_1890_142">
<rect width="196" height="152.484" fill="white"/>
</clipPath>
</defs>
</svg>
