<svg width="196" height="153" viewBox="0 0 196 153" fill="none" xmlns="http://www.w3.org/2000/svg">
<g clip-path="url(#clip0_1890_113)">
<rect width="196" height="152.484" fill="white"/>
<ellipse cx="98" cy="79" rx="80" ry="76" fill="#FFC882"/>
<path d="M50.8867 93.8379H147.696V142.243H50.8867V93.8379Z" fill="#CFD8DC"/>
<path d="M50.8867 142.241H147.696V152.432H50.8867V142.241Z" fill="#B0BEC5"/>
<path d="M106.936 106.575H137.507V152.432H106.936V106.575Z" fill="#455A64"/>
<path d="M61.0781 106.575H96.7447V134.599H61.0781V106.575Z" fill="#E3F2FD"/>
<path d="M63.625 109.122H94.1964V132.051H63.625V109.122Z" fill="#1E88E5"/>
<path d="M131.135 130.776C130.371 130.776 129.861 131.286 129.861 132.05V137.145C129.861 137.91 130.371 138.419 131.135 138.419C131.899 138.419 132.409 137.91 132.409 137.145V132.05C132.409 131.286 131.899 130.776 131.135 130.776Z" fill="#90A4AE"/>
<path d="M99.2952 101.48C103.516 101.48 106.938 98.0582 106.938 93.8372C106.938 89.6162 103.516 86.1943 99.2952 86.1943C95.0742 86.1943 91.6523 89.6162 91.6523 93.8372C91.6523 98.0582 95.0742 101.48 99.2952 101.48Z" fill="#558B2F"/>
<path d="M129.864 101.48C134.085 101.48 137.506 98.0582 137.506 93.8372C137.506 89.6162 134.085 86.1943 129.864 86.1943C125.643 86.1943 122.221 89.6162 122.221 93.8372C122.221 98.0582 125.643 101.48 129.864 101.48Z" fill="#558B2F"/>
<path d="M68.7229 101.48C72.9439 101.48 76.3658 98.0582 76.3658 93.8372C76.3658 89.6162 72.9439 86.1943 68.7229 86.1943C64.5019 86.1943 61.0801 89.6162 61.0801 93.8372C61.0801 98.0582 64.5019 101.48 68.7229 101.48Z" fill="#558B2F"/>
<path d="M140.054 60.7188H58.5308C55.7284 60.7188 53.4355 63.0116 53.4355 65.814V73.4568H145.15V65.814C145.15 63.0116 142.857 60.7188 140.054 60.7188ZM91.6498 73.4568H106.935V93.8377H91.6498V73.4568ZM132.412 73.4568H119.674L122.221 93.8377H137.507L132.412 73.4568ZM66.1736 73.4568H78.9117L76.3641 93.8377H61.0784L66.1736 73.4568Z" fill="#FB8C00"/>
<path d="M114.578 101.48C118.799 101.48 122.221 98.0582 122.221 93.8372C122.221 89.6162 118.799 86.1943 114.578 86.1943C110.357 86.1943 106.936 89.6162 106.936 93.8372C106.936 98.0582 110.357 101.48 114.578 101.48Z" fill="#FFA000"/>
<path d="M152.79 93.8372C152.79 98.1681 149.478 101.48 145.147 101.48C140.816 101.48 137.504 98.1681 137.504 93.8372C137.504 89.5062 140.816 86.1943 145.147 86.1943L152.79 93.8372Z" fill="#FFA000"/>
<path d="M84.0061 101.48C88.2271 101.48 91.649 98.0582 91.649 93.8372C91.649 89.6162 88.2271 86.1943 84.0061 86.1943C79.7851 86.1943 76.3633 89.6162 76.3633 93.8372C76.3633 98.0582 79.7851 101.48 84.0061 101.48Z" fill="#FFA000"/>
<path d="M45.791 93.8372C45.791 98.1681 49.1029 101.48 53.4339 101.48C57.7648 101.48 61.0767 98.1681 61.0767 93.8372C61.0767 89.5062 57.7648 86.1943 53.4339 86.1943L45.791 93.8372Z" fill="#FFA000"/>
<path d="M119.672 73.457H106.934V93.8379H122.219L119.672 73.457ZM145.148 73.457H132.41L137.505 93.8379H152.791L145.148 73.457ZM78.91 73.457H91.6481V93.8379H76.3624L78.91 73.457ZM53.4339 73.457H66.1719L61.0767 93.8379H45.791L53.4339 73.457Z" fill="#FFC107"/>
<ellipse cx="102.123" cy="155.116" rx="75.8772" ry="2.82932" fill="#D9D9D9"/>
<path d="M47.0277 124.281C45.6519 129.053 41.6349 132.394 37.4447 135.232C36.8596 135.629 36.2744 136.016 35.6889 136.394C35.685 136.396 35.6809 136.399 35.6769 136.401C35.6487 136.419 35.6205 136.437 35.5942 136.456C35.4734 136.534 35.3525 136.612 35.2327 136.689L35.2985 136.718C35.2985 136.718 35.3632 136.752 35.2924 136.724C35.2714 136.715 35.2494 136.707 35.2284 136.698C32.7941 135.716 30.3166 134.662 28.4511 132.823C26.5159 130.913 25.385 127.918 26.4329 125.408C26.5706 125.08 26.7446 124.768 26.9516 124.477C27.0366 124.356 27.1281 124.239 27.2234 124.125C27.8014 123.42 28.5569 122.881 29.4122 122.564C30.2675 122.248 31.1917 122.164 32.0897 122.323C32.9878 122.482 33.8274 122.877 34.522 123.468C35.2167 124.059 35.7415 124.824 36.0424 125.685C36.3502 122.819 33.9868 120.418 31.7123 118.647C29.4368 116.876 26.8512 114.948 26.4113 112.097C26.1656 110.512 26.7171 108.975 27.7217 107.741C27.7528 107.703 27.7839 107.666 27.8159 107.629C29.0388 106.193 30.7588 105.27 32.6323 105.046C36.1215 104.683 39.5107 106.53 42.0455 108.956C46.1252 112.859 48.5916 118.854 47.0277 124.281Z" fill="#55CD00"/>
<path d="M40.4689 118.038C41.1385 119.079 41.6527 120.213 41.995 121.404C42.2846 122.467 42.4135 123.569 42.3774 124.67C42.284 126.938 41.6474 129.15 40.5212 131.12C39.6729 132.615 38.6391 133.996 37.4443 135.232C36.8592 135.628 36.274 136.015 35.6885 136.393C35.6846 136.395 35.6805 136.399 35.6765 136.401C35.6483 136.419 35.6201 136.437 35.5938 136.455C35.473 136.533 35.3521 136.611 35.2323 136.688C35.2323 136.688 35.3628 136.752 35.292 136.723C35.271 136.714 35.2489 136.706 35.2279 136.697C35.4461 134.909 35.2324 133.094 34.6047 131.405C33.9769 129.715 32.9535 128.201 31.6201 126.989C30.2835 125.796 28.6837 124.935 26.9512 124.477C27.0362 124.355 27.1277 124.239 27.223 124.125C27.8922 124.312 28.5434 124.559 29.1691 124.861C31.4059 125.935 33.2374 127.701 34.3926 129.897C35.4291 131.891 35.8753 134.14 35.6786 136.378C35.7786 136.288 35.8787 136.195 35.9758 136.103C37.8256 134.379 39.4686 132.399 40.5805 130.115C41.5451 128.18 42.0192 126.038 41.9611 123.877C41.8703 121.52 40.9315 119.338 39.5721 117.438C38.0822 115.411 36.3222 113.597 34.3409 112.046C32.3441 110.447 30.1592 109.098 27.8348 108.03C27.7823 108.005 27.7413 107.961 27.7202 107.908C27.6991 107.854 27.6995 107.794 27.7213 107.74C27.7368 107.692 27.7707 107.652 27.8155 107.629C27.8386 107.619 27.8636 107.614 27.8887 107.615C27.9138 107.616 27.9383 107.623 27.9605 107.635C28.2475 107.767 28.5325 107.901 28.8152 108.041C31.1699 109.205 33.3709 110.657 35.3676 112.363C37.2964 114.007 39.1122 115.886 40.4689 118.038Z" fill="white"/>
<path d="M27.1663 136.3H42.2424C42.4078 136.3 42.5713 136.335 42.722 136.403C42.8728 136.471 43.0073 136.57 43.1168 136.694C43.2262 136.818 43.308 136.964 43.3568 137.122C43.4056 137.28 43.4202 137.447 43.3997 137.611L41.4787 152.978C41.4431 153.26 41.3059 153.52 41.0929 153.708C40.8799 153.896 40.6056 154 40.3215 154H29.0872C28.8031 154 28.5288 153.896 28.3158 153.708C28.1028 153.52 27.9656 153.26 27.93 152.978L26.009 137.611C25.9885 137.447 26.0031 137.28 26.0519 137.122C26.1007 136.964 26.1825 136.818 26.2919 136.694C26.4014 136.57 26.5359 136.471 26.6867 136.403C26.8374 136.335 27.0009 136.3 27.1663 136.3Z" fill="#A0616A"/>
</g>
<defs>
<clipPath id="clip0_1890_113">
<rect width="196" height="152.484" fill="white"/>
</clipPath>
</defs>
</svg>
