<svg width="453" height="453" viewBox="0 0 453 453" fill="none" xmlns="http://www.w3.org/2000/svg">
<g clip-path="url(#clip0_2996_1055)">
<rect width="453" height="453" fill="white"/>
<path d="M206.288 15.5968C41.0966 -60.2544 242.351 -236.088 363.628 -314.523L984.382 347.158C953.769 375.878 906.461 474.53 783.006 473.325C628.688 471.82 441.914 560.013 352.16 355.684C262.407 151.354 412.778 110.411 206.288 15.5968Z" fill="#FFE0B8"/>
<path d="M44.5549 190.887C-147.299 203.083 15.4059 -119.912 120.74 -282.934L941.422 103.898C917.195 155.296 894.128 297.065 765.44 369.913C604.58 460.974 433.725 674.588 286.291 493.839C138.857 313.091 284.372 175.641 44.5549 190.887Z" fill="#FFC882" fill-opacity="0.39"/>
<path d="M117.646 38.2032L106.502 86.9058H87.5166L81.8759 59.2526L76.2352 86.9058H57.2495L46.1057 38.2032H62.5462L66.9487 68.8831L73.5524 38.2032H90.1993L96.8031 68.8831L101.206 38.2032H117.646ZM168.179 38.2032V86.9058H152.908V67.92H138.393V86.9058H123.122V38.2032H138.393V55.7444H152.908V38.2032H168.179ZM221.826 38.2032L204.354 72.1162V86.9058H189.083V72.1162L171.61 38.2032H189.083L196.856 55.4692L204.629 38.2032H221.826Z" fill="#F97837"/>
<path d="M102.325 163.278V208.417H88.2346V185.911L81.2853 208.417H69.1717L62.2224 185.911V208.417H48.0686V163.278H65.4101L75.356 190.374L85.0469 163.278H102.325ZM130.707 208.863C126.456 208.863 122.546 207.864 118.976 205.866C115.448 203.869 112.643 201.106 110.56 197.578C108.477 194.05 107.436 190.076 107.436 185.656C107.436 181.235 108.477 177.261 110.56 173.733C112.643 170.206 115.448 167.464 118.976 165.509C122.546 163.511 126.456 162.513 130.707 162.513C134.957 162.513 138.846 163.511 142.374 165.509C145.902 167.464 148.686 170.206 150.726 173.733C152.809 177.261 153.85 181.235 153.85 185.656C153.85 190.076 152.809 194.05 150.726 197.578C148.686 201.106 145.881 203.869 142.31 205.866C138.782 207.864 134.915 208.863 130.707 208.863ZM130.707 195.665C133.512 195.665 135.68 194.773 137.21 192.988C138.74 191.16 139.505 188.716 139.505 185.656C139.505 182.553 138.74 180.109 137.21 178.324C135.68 176.496 133.512 175.582 130.707 175.582C127.859 175.582 125.67 176.496 124.14 178.324C122.61 180.109 121.845 182.553 121.845 185.656C121.845 188.716 122.61 191.16 124.14 192.988C125.67 194.773 127.859 195.665 130.707 195.665ZM181.653 208.417L173.173 192.223H173.11V208.417H158.956V163.278H179.995C183.651 163.278 186.775 163.936 189.367 165.254C191.96 166.529 193.894 168.293 195.169 170.546C196.487 172.756 197.146 175.264 197.146 178.069C197.146 181.087 196.295 183.764 194.595 186.102C192.938 188.44 190.536 190.119 187.391 191.139L197.209 208.417H181.653ZM173.11 182.787H178.72C180.08 182.787 181.1 182.489 181.78 181.894C182.46 181.257 182.801 180.279 182.801 178.961C182.801 177.771 182.439 176.836 181.717 176.156C181.037 175.476 180.038 175.136 178.72 175.136H173.11V182.787ZM215.821 174.562V180.109H229.847V190.756H215.821V197.132H231.76V208.417H201.667V163.278H231.76V174.562H215.821ZM262.081 159.133C266.799 159.133 270.582 160.324 273.43 162.704C276.32 165.041 277.765 168.484 277.765 173.032C277.765 176.773 276.49 179.79 273.94 182.085C271.432 184.381 268.138 185.571 264.057 185.656L263.675 190.182H251.179L250.796 176.666H256.152C258.659 176.666 260.572 176.39 261.89 175.837C263.25 175.285 263.93 174.392 263.93 173.16C263.93 172.352 263.717 171.736 263.292 171.311C262.91 170.843 262.379 170.609 261.698 170.609C260.848 170.609 260.211 170.886 259.786 171.438C259.403 171.948 259.212 172.628 259.212 173.478H245.887C245.76 170.843 246.27 168.442 247.417 166.274C248.607 164.106 250.435 162.385 252.9 161.11C255.365 159.792 258.426 159.133 262.081 159.133ZM257.618 208.927C255.153 208.927 253.177 208.268 251.689 206.95C250.201 205.633 249.457 203.975 249.457 201.977C249.457 199.937 250.201 198.258 251.689 196.941C253.177 195.58 255.153 194.9 257.618 194.9C260.041 194.9 261.996 195.58 263.484 196.941C264.971 198.258 265.715 199.937 265.715 201.977C265.715 203.975 264.971 205.633 263.484 206.95C261.996 208.268 260.041 208.927 257.618 208.927Z" fill="#F97837"/>
<path d="M88.987 119.094C88.987 122.166 88.2761 124.964 86.8545 127.486C85.4329 129.962 83.3233 131.934 80.5259 133.402C77.7744 134.869 74.4266 135.603 70.4827 135.603H64.4293V151.081H49.1582V102.378H70.4827C76.4444 102.378 81.0074 103.891 84.1717 106.918C87.3819 109.945 88.987 114.003 88.987 119.094ZM68.763 123.565C71.9273 123.565 73.5095 122.075 73.5095 119.094C73.5095 116.113 71.9273 114.622 68.763 114.622H64.4293V123.565H68.763ZM125.061 143.72H108.827L106.419 151.081H90.3912L108.208 102.378H125.817L143.565 151.081H127.468L125.061 143.72ZM121.346 132.232L116.944 118.681L112.541 132.232H121.346ZM193.811 102.378L176.339 136.291V151.081H161.067V136.291L143.595 102.378H161.067L168.841 119.644L176.614 102.378H193.811Z" fill="#F97837"/>
<rect x="271.858" y="35.4912" width="162.857" height="69.0688" rx="10.9056" fill="white"/>
<path d="M335.612 149.213C335.107 148.4 335.107 148.31 335.954 146.406C336.972 144.102 337.45 141.595 337.35 139.078C337.249 136.56 336.574 134.099 335.376 131.883C333.025 127.492 332.443 122.369 333.747 117.563C334.944 113.275 336.597 111.558 338.095 113.039C338.828 113.853 338.812 114.007 337.346 118.018C336.716 120.056 336.498 122.199 336.703 124.322C336.909 126.445 337.534 128.506 338.543 130.386C339.963 133.104 340.744 136.11 340.827 139.175C340.911 142.24 340.294 145.283 339.024 148.074C338.209 149.58 338.022 149.824 337.135 149.921C336.833 150.004 336.511 149.976 336.229 149.841C335.946 149.707 335.721 149.475 335.596 149.189L335.612 149.213ZM352.06 149.539C351.335 148.807 351.482 148.058 352.451 145.69C353.077 144.099 353.403 142.405 353.412 140.695C353.65 137.581 352.959 134.466 351.425 131.745C349.955 128.952 349.239 125.825 349.348 122.673C349.348 118.246 351.083 113.039 352.662 112.632C352.89 112.542 353.135 112.506 353.379 112.529C353.623 112.552 353.858 112.632 354.064 112.763C354.271 112.894 354.443 113.072 354.568 113.283C354.692 113.493 354.765 113.731 354.78 113.975C354.623 114.991 354.33 115.982 353.908 116.92C353.136 118.787 352.839 120.817 353.045 122.827C352.762 124.951 353.132 127.11 354.104 129.019C355.961 131.978 356.941 135.403 356.929 138.896C357.28 142.111 356.665 145.357 355.162 148.221C354.446 149.571 354.144 149.848 353.314 149.954C353.076 150 352.83 149.989 352.596 149.923C352.363 149.856 352.149 149.736 351.97 149.571L352.06 149.539ZM368.223 149.539C367.669 148.961 367.84 148.082 369.037 144.926C369.624 143.352 369.9 141.681 369.851 140.003C369.913 137.165 369.231 134.36 367.873 131.867C367.18 130.38 366.6 128.843 366.138 127.27C365.499 124.29 365.499 121.209 366.138 118.23C366.561 116.242 367.393 114.363 368.581 112.714C368.966 112.49 369.423 112.426 369.855 112.533C370.287 112.641 370.659 112.913 370.894 113.291C371.39 114.056 371.374 114.194 370.373 116.692C369.462 118.846 369.045 121.175 369.151 123.51C369.256 125.846 369.882 128.128 370.983 130.191C372.592 133.137 373.403 136.452 373.336 139.808C373.458 141.827 373.181 143.851 372.522 145.764C371.504 148.864 370.698 149.994 369.485 149.994C369.247 150.014 369.008 149.981 368.784 149.898C368.561 149.815 368.358 149.684 368.19 149.514L368.223 149.539ZM272.8 102.6C272.423 102.226 272.143 101.765 271.986 101.258C271.85 91.5265 271.823 81.7953 271.904 72.0642L271.986 43.5869L273.044 41.4714C274.192 39.0282 276.231 37.1158 278.744 36.1258C280.478 35.4912 280.861 35.4912 353.314 35.4912C425.767 35.4912 426.166 35.4912 427.9 36.1258C430.409 37.1099 432.447 39.013 433.6 41.447L434.634 43.5625L434.715 72.0642C434.715 87.7186 434.715 100.883 434.618 101.258C434.46 101.765 434.18 102.226 433.803 102.6C433.168 103.235 432.403 103.235 353.298 103.235C274.192 103.235 273.435 103.121 272.8 102.486V102.6ZM279.843 90.3955C279.941 83.0728 279.998 82.6252 280.706 81.1688C281.248 80.1399 282.044 79.2661 283.019 78.6303L284.517 77.6132H422.298L423.78 78.6303C424.724 79.2837 425.491 80.1617 426.011 81.1851C426.727 82.6253 426.784 83.0728 426.825 90.4199L426.939 98.1088H429.447V71.5923C429.447 42.936 429.447 43.8066 427.77 42.2444L427.004 41.5121L426.809 43.7252C426.83 45.1003 426.445 46.451 425.702 47.6087C424.959 48.7664 423.891 49.6796 422.632 50.2343C421.589 50.6737 414.106 50.7306 353.355 50.7306C292.603 50.7306 285.152 50.8608 284.077 50.4377C282.815 49.8923 281.747 48.9794 281.012 47.8183C280.277 46.6572 279.91 45.3017 279.957 43.9286L279.77 41.74L278.956 42.4722C277.221 44.01 277.262 43.1801 277.262 71.7632V98.2959H279.762L279.843 90.3955ZM344.381 73.5369C344.123 73.4046 343.903 73.2089 343.741 72.968C343.58 72.7272 343.482 72.4493 343.458 72.1604C343.433 71.8715 343.483 71.5811 343.602 71.3166C343.721 71.0521 343.905 70.8222 344.137 70.6485C344.748 70.2091 346.075 70.1278 353.298 70.1278C362.816 70.1278 363.297 70.2254 363.109 72.1537C362.938 73.8217 362.336 73.9356 353.338 73.9356C350.361 74.1164 347.373 73.9882 344.422 73.5532L344.381 73.5369ZM405.964 72.8616C405.826 72.6552 405.736 72.42 405.703 72.1739C405.67 71.9277 405.694 71.6773 405.772 71.4417C405.851 71.2061 405.982 70.9916 406.157 70.8146C406.331 70.6376 406.544 70.5029 406.778 70.4207C408.227 69.6559 409.783 72.048 408.594 73.2277C408.395 73.3811 408.168 73.4931 407.926 73.5571C407.683 73.621 407.43 73.6356 407.182 73.5999C406.933 73.5642 406.695 73.479 406.48 73.3494C406.265 73.2198 406.078 73.0484 405.931 72.8453L405.964 72.8616ZM414.253 72.9185C414.007 72.6084 413.883 72.2195 413.903 71.8245C413.924 71.4295 414.088 71.0554 414.364 70.7722C414.64 70.4891 415.011 70.3162 415.405 70.2859C415.8 70.2557 416.192 70.3701 416.508 70.6078C416.736 70.7318 416.931 70.9066 417.08 71.1187C417.228 71.3307 417.325 71.5742 417.364 71.83C417.402 72.0859 417.381 72.3471 417.301 72.5933C417.222 72.8396 417.086 73.0641 416.906 73.2493C416.725 73.4345 416.504 73.5753 416.259 73.6609C416.015 73.7464 415.754 73.7742 415.497 73.7422C415.24 73.7101 414.994 73.6191 414.778 73.4762C414.562 73.3333 414.383 73.1425 414.253 72.9185ZM422.99 96.6849V95.261H283.613V98.1088H422.99V96.6849ZM422.99 90.0131V88.2638H283.613V91.7624H422.99V90.0131ZM422.99 83.7237C422.91 83.2006 422.704 82.705 422.389 82.2796C422.074 81.8543 421.66 81.5121 421.182 81.2827C420.686 81.0387 402.153 80.9247 353.298 80.9247C304.442 80.9247 285.942 81.0387 285.421 81.2827C284.952 81.5229 284.544 81.8681 284.231 82.2916C283.917 82.715 283.706 83.2051 283.613 83.7237V84.4397H422.99V83.7237ZM422.029 46.2963C422.892 45.4339 422.99 45.206 422.99 42.9685V40.5276H283.597V42.9685C283.597 45.1979 283.654 45.4095 284.517 46.2963L285.478 47.2401H421.028L422.029 46.2963Z" fill="#F9A826"/>
<g filter="url(#filter0_d_2996_1055)">
<path fill-rule="evenodd" clip-rule="evenodd" d="M313 353.513V371.833C313 417.89 313 440.925 324.647 455.227C327.695 458.952 331.344 461.852 335.359 463.74V481.755C335.359 486.811 338.698 490.915 342.812 490.915H352.75C354.727 490.915 356.622 489.95 358.02 488.232C359.418 486.514 360.203 484.184 360.203 481.755V468.967C369.097 469.541 379.7 469.541 392.5 469.541C405.299 469.541 415.903 469.541 424.797 468.967V481.755C424.797 486.811 428.136 490.915 432.25 490.915H442.187C444.164 490.915 446.06 489.95 447.458 488.232C448.855 486.514 449.641 484.184 449.641 481.755V463.74C453.656 461.852 457.305 458.952 460.353 455.227C472 440.925 472 417.89 472 371.833V353.513H313ZM442.187 374.886C444.164 374.886 446.06 375.851 447.458 377.569C448.855 379.287 449.641 381.617 449.641 384.046V408.474C449.641 410.903 448.855 413.233 447.458 414.951C446.06 416.669 444.164 417.634 442.187 417.634C440.211 417.634 438.315 416.669 436.917 414.951C435.52 413.233 434.734 410.903 434.734 408.474V384.046C434.734 381.617 435.52 379.287 436.917 377.569C438.315 375.851 440.211 374.886 442.187 374.886Z" fill="#F9AD4F"/>
<path d="M313 335.116C313 288.867 313 265.736 324.647 251.374C336.293 237.012 355.026 237 392.5 237C429.974 237 448.716 237 460.353 251.374C471.99 265.748 472 288.867 472 335.116V353.513H313V335.116Z" fill="white"/>
<path d="M449.769 298.141C449.769 295.714 448.975 293.386 447.562 291.67C446.149 289.954 444.232 288.99 442.234 288.99C440.235 288.99 438.319 289.954 436.905 291.67C435.492 293.386 434.698 295.714 434.698 298.141V322.544C434.698 324.972 435.492 327.299 436.905 329.015C438.319 330.732 440.235 331.696 442.234 331.696C444.232 331.696 446.149 330.732 447.562 329.015C448.975 327.299 449.769 324.972 449.769 322.544V298.141Z" fill="#FB8C00"/>
</g>
<path d="M51.3944 237.119C50.5181 237.119 49.7328 236.977 49.0386 236.693C48.3444 236.408 47.7867 235.987 47.3657 235.429C46.956 234.872 46.7397 234.2 46.717 233.415H49.8239C49.8694 233.859 50.023 234.2 50.2848 234.439C50.5465 234.667 50.8879 234.781 51.309 234.781C51.7415 234.781 52.0829 234.684 52.3333 234.491C52.5836 234.286 52.7088 234.007 52.7088 233.654C52.7088 233.358 52.6064 233.114 52.4015 232.92C52.2081 232.727 51.9634 232.567 51.6675 232.442C51.383 232.317 50.9733 232.175 50.4384 232.015C49.6645 231.776 49.0329 231.537 48.5435 231.298C48.0542 231.059 47.6331 230.707 47.2803 230.24C46.9275 229.773 46.7511 229.165 46.7511 228.413C46.7511 227.298 47.1551 226.428 47.9631 225.802C48.7712 225.164 49.8239 224.846 51.1212 224.846C52.4414 224.846 53.5055 225.164 54.3135 225.802C55.1215 226.428 55.5539 227.304 55.6108 228.43H52.4528C52.43 228.044 52.2877 227.742 52.026 227.526C51.7642 227.298 51.4285 227.184 51.0188 227.184C50.666 227.184 50.3815 227.281 50.1653 227.475C49.949 227.657 49.8409 227.924 49.8409 228.277C49.8409 228.664 50.023 228.965 50.3872 229.182C50.7514 229.398 51.3204 229.631 52.0943 229.881C52.8681 230.143 53.4941 230.394 53.9721 230.633C54.4614 230.872 54.8825 231.219 55.2353 231.674C55.5881 232.129 55.7645 232.715 55.7645 233.432C55.7645 234.115 55.5881 234.735 55.2353 235.293C54.8939 235.851 54.3931 236.294 53.7331 236.624C53.073 236.954 52.2934 237.119 51.3944 237.119ZM66.1817 225.016V227.355H63.0065V237H60.0874V227.355H56.9122V225.016H66.1817ZM75.1066 234.883H70.6341L69.9171 237H66.8614L71.1974 225.016H74.5774L78.9134 237H75.8236L75.1066 234.883ZM74.3555 232.63L72.8703 228.243L71.4022 232.63H74.3555ZM86.3444 237L83.852 232.476H83.1521V237H80.233V225.016H85.1323C86.0769 225.016 86.8793 225.181 87.5393 225.511C88.2108 225.841 88.7115 226.297 89.0416 226.877C89.3716 227.446 89.5366 228.083 89.5366 228.789C89.5366 229.586 89.309 230.297 88.8538 230.923C88.4099 231.549 87.7499 231.993 86.8736 232.254L89.639 237H86.3444ZM83.1521 230.411H84.9616C85.4965 230.411 85.8948 230.28 86.1566 230.018C86.4297 229.756 86.5663 229.386 86.5663 228.908C86.5663 228.453 86.4297 228.095 86.1566 227.833C85.8948 227.571 85.4965 227.44 84.9616 227.44H83.1521V230.411ZM99.9898 225.016V227.355H96.8146V237H93.8955V227.355H90.7204V225.016H99.9898ZM112.327 230.855C113.022 231.002 113.579 231.35 114 231.896C114.421 232.431 114.632 233.045 114.632 233.739C114.632 234.741 114.279 235.538 113.574 236.129C112.879 236.71 111.906 237 110.654 237H105.072V225.016H110.467C111.684 225.016 112.635 225.295 113.318 225.853C114.012 226.41 114.359 227.167 114.359 228.123C114.359 228.829 114.171 229.415 113.796 229.881C113.431 230.348 112.942 230.672 112.327 230.855ZM107.991 229.864H109.903C110.381 229.864 110.746 229.762 110.996 229.557C111.258 229.341 111.389 229.028 111.389 228.618C111.389 228.209 111.258 227.896 110.996 227.679C110.746 227.463 110.381 227.355 109.903 227.355H107.991V229.864ZM110.142 234.644C110.632 234.644 111.007 234.536 111.269 234.32C111.542 234.092 111.679 233.768 111.679 233.347C111.679 232.926 111.536 232.596 111.252 232.357C110.979 232.118 110.598 231.998 110.108 231.998H107.991V234.644H110.142ZM123.785 234.883H119.312L118.595 237H115.54L119.876 225.016H123.256L127.592 237H124.502L123.785 234.883ZM123.034 232.63L121.549 228.243L120.081 232.63H123.034ZM135.023 237L132.53 232.476H131.831V237H128.911V225.016H133.811C134.755 225.016 135.558 225.181 136.218 225.511C136.889 225.841 137.39 226.297 137.72 226.877C138.05 227.446 138.215 228.083 138.215 228.789C138.215 229.586 137.987 230.297 137.532 230.923C137.088 231.549 136.428 231.993 135.552 232.254L138.317 237H135.023ZM131.831 230.411H133.64C134.175 230.411 134.573 230.28 134.835 230.018C135.108 229.756 135.245 229.386 135.245 228.908C135.245 228.453 135.108 228.095 134.835 227.833C134.573 227.571 134.175 227.44 133.64 227.44H131.831V230.411ZM148.002 228.806C147.786 228.408 147.473 228.106 147.064 227.901C146.665 227.685 146.193 227.577 145.647 227.577C144.702 227.577 143.945 227.89 143.376 228.516C142.807 229.13 142.523 229.955 142.523 230.991C142.523 232.095 142.819 232.96 143.41 233.586C144.014 234.2 144.839 234.508 145.886 234.508C146.603 234.508 147.206 234.326 147.695 233.961C148.196 233.597 148.56 233.074 148.788 232.391H145.083V230.24H151.434V232.954C151.217 233.683 150.848 234.36 150.324 234.986C149.812 235.612 149.158 236.118 148.361 236.505C147.564 236.892 146.665 237.085 145.664 237.085C144.48 237.085 143.422 236.829 142.489 236.317C141.567 235.794 140.844 235.071 140.321 234.149C139.808 233.227 139.552 232.175 139.552 230.991C139.552 229.808 139.808 228.755 140.321 227.833C140.844 226.9 141.567 226.177 142.489 225.665C143.41 225.142 144.463 224.88 145.647 224.88C147.081 224.88 148.287 225.227 149.266 225.921C150.256 226.615 150.91 227.577 151.229 228.806H148.002ZM160.51 234.883H156.038L155.321 237H152.265L156.601 225.016H159.981L164.317 237H161.227L160.51 234.883ZM159.759 232.63L158.274 228.243L156.806 232.63H159.759ZM168.556 225.016V237H165.637V225.016H168.556ZM181.392 237H178.473L173.591 229.608V237H170.671V225.016H173.591L178.473 232.442V225.016H181.392V237ZM186.427 225.016V237H183.508V225.016H186.427ZM199.263 237H196.344L191.462 229.608V237H188.542V225.016H191.462L196.344 232.442V225.016H199.263V237ZM209.334 228.806C209.118 228.408 208.805 228.106 208.395 227.901C207.997 227.685 207.524 227.577 206.978 227.577C206.033 227.577 205.277 227.89 204.708 228.516C204.139 229.13 203.854 229.955 203.854 230.991C203.854 232.095 204.15 232.96 204.742 233.586C205.345 234.2 206.17 234.508 207.217 234.508C207.934 234.508 208.537 234.326 209.027 233.961C209.527 233.597 209.891 233.074 210.119 232.391H206.415V230.24H212.765V232.954C212.549 233.683 212.179 234.36 211.655 234.986C211.143 235.612 210.489 236.118 209.692 236.505C208.896 236.892 207.997 237.085 206.995 237.085C205.812 237.085 204.753 236.829 203.82 236.317C202.898 235.794 202.175 235.071 201.652 234.149C201.14 233.227 200.884 232.175 200.884 230.991C200.884 229.808 201.14 228.755 201.652 227.833C202.175 226.9 202.898 226.177 203.82 225.665C204.742 225.142 205.794 224.88 206.978 224.88C208.412 224.88 209.618 225.227 210.597 225.921C211.587 226.615 212.242 227.577 212.56 228.806H209.334Z" fill="#F97837"/>
<path d="M380.485 487.95H226.295C225.156 487.95 224.064 487.497 223.258 486.691C222.453 485.886 222 484.793 222 483.653V273.296C222 272.157 222.453 271.064 223.258 270.258C224.064 269.453 225.156 269 226.295 269H380.494C381.633 269 382.726 269.453 383.531 270.258C384.337 271.064 384.789 272.157 384.789 273.296V483.649C384.789 484.789 384.337 485.881 383.531 486.687C382.726 487.493 381.633 487.945 380.494 487.945" fill="#FFC67E"/>
<path d="M303.584 462.146C332.086 462.146 355.191 439.041 355.191 410.539C355.191 382.038 332.086 358.933 303.584 358.933C275.083 358.933 251.978 382.038 251.978 410.539C251.978 439.041 275.083 462.146 303.584 462.146Z" fill="white"/>
<path d="M251.978 410.54C251.978 439.039 275.085 462.146 303.584 462.146C332.084 462.146 355.191 439.039 355.191 410.54" fill="#92D3F5"/>
<path d="M232.885 303.863C232.885 296.519 238.838 290.566 246.182 290.566H293.552C300.896 290.566 306.849 296.519 306.849 303.863V319.653C306.849 326.997 300.896 332.95 293.552 332.95H246.182C238.838 332.95 232.885 326.997 232.885 319.653V303.863Z" fill="#FFE9CE"/>
<path d="M303.585 440.517C320.141 440.517 333.562 427.096 333.562 410.54C333.562 393.983 320.141 380.562 303.585 380.562C287.029 380.562 273.607 393.983 273.607 410.54C273.607 427.096 287.029 440.517 303.585 440.517Z" fill="#FCEA2B"/>
<path d="M273.607 410.54C273.607 418.49 276.766 426.115 282.388 431.737C288.01 437.359 295.634 440.517 303.585 440.517C311.535 440.517 319.16 437.359 324.782 431.737C330.404 426.115 333.562 418.49 333.562 410.54" fill="#61B2E4"/>
<path d="M311.405 302.204H335.106M311.405 315.568H335.106M264.003 308.886H277.547M243.688 295.552H297.862V328.795H243.688V295.552Z" stroke="#FB8C00" stroke-width="0.69717" stroke-miterlimit="10" stroke-linecap="round" stroke-linejoin="round"/>
<path d="M359.365 316.054C364.185 316.054 368.093 312.231 368.093 307.516C368.093 302.801 364.185 298.978 359.365 298.978C354.545 298.978 350.638 302.801 350.638 307.516C350.638 312.231 354.545 316.054 359.365 316.054Z" fill="#FB8C00"/>
<g filter="url(#filter1_d_2996_1055)">
<rect x="77" y="336" width="202.592" height="116.606" rx="15.9389" fill="#FF945D"/>
<rect x="77.0419" y="336.042" width="202.508" height="116.522" rx="15.8969" stroke="#FB8C00" stroke-width="0.0838889"/>
</g>
<rect x="96.5017" y="357.601" width="115.689" height="80.9528" rx="8.59861" fill="#FFBB00" stroke="#FB8C00" stroke-width="2.09722"/>
<rect x="234.704" y="357.601" width="26.9566" height="23.0694" rx="8.59861" fill="#FFCA08" stroke="#FB8C00" stroke-width="2.09722"/>
<rect x="237.452" y="394.932" width="4.96993" height="6.29167" rx="2.48496" fill="#FFCA08" stroke="#FB8C00" stroke-width="2.09722"/>
<rect x="246.483" y="394.932" width="4.96993" height="6.29167" rx="2.48496" fill="#FFCA08" stroke="#FB8C00" stroke-width="2.09722"/>
<rect x="255.512" y="394.932" width="4.96993" height="6.29167" rx="2.48496" fill="#FFCA08" stroke="#FB8C00" stroke-width="2.09722"/>
<rect x="237.452" y="425.132" width="4.96993" height="6.29167" rx="2.48496" fill="#FFB8B8" stroke="#E76063" stroke-width="2.09722"/>
<rect x="246.483" y="425.132" width="4.96993" height="6.29167" rx="2.48496" fill="#FFB8B8" stroke="#E76063" stroke-width="2.09722"/>
<rect x="255.512" y="425.132" width="4.96993" height="6.29167" rx="2.48496" fill="#FFCA08" stroke="#FB8C00" stroke-width="2.09722"/>
<rect x="237.452" y="415.485" width="4.96993" height="6.29167" rx="2.48496" fill="#FFB8B8" stroke="#E76063" stroke-width="2.09722"/>
<rect x="246.483" y="415.485" width="4.96993" height="6.29167" rx="2.48496" fill="#FFB8B8" stroke="#E76063" stroke-width="2.09722"/>
<rect x="255.512" y="415.485" width="4.96993" height="6.29167" rx="2.48496" fill="#FFB8B8" stroke="#E76063" stroke-width="2.09722"/>
<rect x="237.452" y="405.418" width="4.96993" height="6.29167" rx="2.48496" fill="#FFB8B8" stroke="#E76063" stroke-width="2.09722"/>
<rect x="246.483" y="405.418" width="4.96993" height="6.29167" rx="2.48496" fill="#FFB8B8" stroke="#E76063" stroke-width="2.09722"/>
<rect x="255.512" y="405.418" width="4.96993" height="6.29167" rx="2.48496" fill="#FFB8B8" stroke="#E76063" stroke-width="2.09722"/>
<rect x="222.662" y="356.499" width="1.57048" height="82.3184" rx="0.785239" fill="#FFCA08" stroke="#FB8C00" stroke-width="1.57048"/>
<path d="M74.8967 272.199C78.6757 269.79 83.2027 268.84 87.6313 269.526L88.8286 269.753L94.3818 270.983C95.9019 271.314 97.4894 271.123 98.8875 270.44L99.5681 270.061L104.427 266.963C108.397 264.432 113.185 263.515 117.81 264.402C122.434 265.288 126.544 267.91 129.297 271.73L129.885 272.599L132.983 277.457C133.819 278.769 135.081 279.761 136.538 280.268L137.285 280.475L142.833 281.707C147.419 282.708 151.45 285.421 154.105 289.293C156.76 293.164 157.838 297.902 157.12 302.541L156.892 303.738L155.663 309.292C155.332 310.812 155.523 312.399 156.205 313.797L156.585 314.478L159.682 319.336C162.214 323.306 163.13 328.095 162.244 332.719C161.357 337.344 158.735 341.454 154.915 344.207L154.047 344.795L149.188 347.892C147.879 348.728 146.888 349.98 146.377 351.447L146.17 352.194L144.938 357.742C143.937 362.329 141.223 366.36 137.352 369.015C133.481 371.67 128.742 372.748 124.104 372.03L122.906 371.802L117.353 370.573C115.833 370.242 114.245 370.433 112.847 371.115L112.167 371.495L107.308 374.592C103.338 377.124 98.5496 378.04 93.9251 377.154C89.3006 376.268 85.1905 373.646 82.4375 369.826L81.8495 368.957L78.7521 364.099C77.9166 362.789 76.6643 361.799 75.1973 361.288L74.4503 361.081L68.9019 359.849C64.3158 358.847 60.2844 356.134 57.6297 352.263C54.9749 348.392 53.8967 343.653 54.615 339.015L54.8425 337.817L56.0717 332.264C56.403 330.744 56.2119 329.156 55.5293 327.758L55.1501 327.078L52.0527 322.219L51.5132 321.32C49.3001 317.37 48.6178 312.743 49.5964 308.323C50.575 303.902 53.146 299.996 56.8194 297.349L57.6882 296.761L62.5466 293.663C63.8563 292.828 64.8464 291.575 65.3573 290.108L65.5644 289.361L66.7968 283.813C67.3149 281.439 68.2973 279.191 69.6873 277.197C71.0774 275.204 72.8478 273.505 74.8967 272.199ZM115.414 296.126C113.922 295.796 112.36 296.072 111.072 296.894C109.783 297.715 108.874 299.014 108.544 300.506L102.741 326.7L92.4575 324.428L91.7438 324.316C90.2859 324.183 88.8322 324.61 87.678 325.511C86.5238 326.411 85.7557 327.717 85.5295 329.164C85.3034 330.61 85.6363 332.088 86.4605 333.298C87.2848 334.508 88.5386 335.358 89.9674 335.677L105.879 339.199L106.593 339.311C107.99 339.44 109.386 339.055 110.52 338.228C111.653 337.401 112.446 336.189 112.749 334.819L119.793 302.996L119.905 302.282C120.035 300.885 119.65 299.489 118.823 298.356C117.996 297.222 116.783 296.43 115.414 296.126Z" fill="#FB8C00"/>
<ellipse cx="105.074" cy="321.558" rx="34.3743" ry="33.189" transform="rotate(-32.5188 105.074 321.558)" fill="#FB8C00"/>
<path d="M142.312 294.245C142.867 294.96 143.403 295.697 143.919 296.454L143.538 296.714C143.792 297.086 144.04 297.464 144.284 297.846C144.528 298.228 144.765 298.613 144.996 299L145.392 298.764C145.86 299.552 146.302 300.349 146.717 301.154L146.307 301.365C146.722 302.17 147.109 302.984 147.469 303.805L147.891 303.62C148.259 304.458 148.599 305.304 148.912 306.156L148.479 306.315C148.79 307.165 149.074 308.021 149.33 308.882L149.772 308.751C150.032 309.627 150.264 310.508 150.468 311.393L150.019 311.497C150.222 312.378 150.397 313.262 150.545 314.149L150.999 314.074C151.149 314.975 151.27 315.878 151.363 316.783L150.905 316.83C150.997 317.728 151.062 318.628 151.099 319.528L151.56 319.509C151.597 320.42 151.607 321.332 151.588 322.242L151.127 322.233C151.109 323.135 151.064 324.036 150.991 324.934L151.45 324.971C151.377 325.88 151.276 326.786 151.147 327.688L150.691 327.623C150.564 328.515 150.41 329.404 150.229 330.288L150.681 330.381C150.498 331.273 150.289 332.16 150.053 333.041L149.608 332.921C149.375 333.792 149.115 334.656 148.83 335.513L149.267 335.659C148.98 336.522 148.666 337.378 148.327 338.224L147.899 338.053C147.564 338.889 147.203 339.716 146.818 340.533L147.235 340.73C146.846 341.552 146.433 342.365 145.995 343.166L145.591 342.944C145.159 343.734 144.702 344.513 144.221 345.279L144.612 345.524C144.129 346.293 143.622 347.051 143.092 347.794L142.716 347.526C142.194 348.258 141.649 348.977 141.08 349.681L141.439 349.97C140.868 350.676 140.275 351.368 139.659 352.044L139.318 351.734C138.713 352.398 138.086 353.047 137.437 353.679L137.758 354.009C137.109 354.642 136.437 355.259 135.745 355.858L135.443 355.51C134.765 356.097 134.066 356.667 133.347 357.219L133.628 357.585C132.909 358.136 132.171 358.669 131.413 359.184L131.154 358.803C130.781 359.056 130.403 359.305 130.02 359.549C129.638 359.793 129.253 360.03 128.866 360.261L129.102 360.657C128.316 361.127 127.52 361.572 126.717 361.99L126.504 361.581C125.7 362 124.889 362.393 124.07 362.76L124.259 363.181C123.423 363.556 122.581 363.904 121.733 364.226L121.57 363.795C120.722 364.117 119.869 364.411 119.012 364.68L119.149 365.12C118.276 365.393 117.399 365.639 116.518 365.858L116.407 365.411C115.528 365.629 114.647 365.82 113.763 365.985L113.848 366.438C112.949 366.606 112.049 366.745 111.148 366.858L111.09 366.401C110.193 366.513 109.295 366.599 108.396 366.657L108.426 367.117C107.515 367.176 106.604 367.208 105.695 367.213L105.692 366.752C104.789 366.757 103.887 366.734 102.988 366.685L102.962 367.146C102.052 367.096 101.143 367.019 100.239 366.916L100.292 366.458C99.3948 366.355 98.5018 366.225 97.6141 366.069L97.5343 366.523C96.6363 366.365 95.7437 366.181 94.8578 365.969L94.9647 365.521C94.0871 365.312 93.2162 365.076 92.3532 364.815L92.2195 365.256C91.3476 364.992 90.4837 364.701 89.6291 364.384L89.7892 363.952C88.9439 363.639 88.1079 363.3 87.2825 362.936L87.0964 363.358C86.2635 362.99 85.4413 362.597 84.6309 362.178L84.8425 361.769C84.0423 361.355 83.2539 360.917 82.4785 360.454L82.2422 360.85C81.4613 360.383 80.6934 359.892 79.9399 359.376L80.2002 358.996C79.4582 358.488 78.7302 357.956 78.0175 357.4L77.734 357.764C77.0178 357.205 76.3168 356.623 75.6324 356.017L75.9379 355.672C75.2652 355.077 74.6087 354.458 73.9695 353.817L73.6431 354.142C73.0024 353.5 72.3789 352.834 71.7739 352.147L72.12 351.842C71.5279 351.169 70.9536 350.475 70.3984 349.759L70.0341 350.041C69.4793 349.326 68.9433 348.589 68.4272 347.832L68.8081 347.572C68.5545 347.2 68.3057 346.823 68.0619 346.44C67.8181 346.058 67.581 345.673 67.3506 345.286L66.9545 345.522C66.4857 344.734 66.0441 343.937 65.6296 343.132L66.0394 342.921C65.6246 342.116 65.2372 341.302 64.877 340.481L64.4549 340.667C64.0868 339.828 63.7468 338.982 63.4345 338.13L63.8673 337.971C63.5557 337.121 63.2721 336.265 63.0162 335.404L62.5744 335.535C62.3139 334.659 62.0818 333.778 61.8777 332.893L62.3269 332.789C62.1238 331.908 61.9488 331.024 61.8015 330.137L61.3468 330.212C61.1973 329.312 61.0761 328.408 60.9828 327.503L61.4413 327.456C61.3488 326.558 61.2841 325.658 61.2471 324.758L60.7866 324.777C60.7491 323.866 60.7396 322.954 60.7578 322.044L61.2187 322.053C61.2367 321.151 61.2823 320.25 61.3552 319.352L60.8957 319.315C60.9694 318.406 61.0705 317.501 61.1989 316.598L61.6553 316.663C61.7823 315.771 61.9364 314.882 62.1171 313.998L61.6655 313.906C61.8479 313.013 62.0571 312.126 62.293 311.245L62.7382 311.365C62.9714 310.494 63.2308 309.63 63.5161 308.773L63.0788 308.627C63.3664 307.764 63.68 306.908 64.0194 306.062L64.4473 306.233C64.7824 305.397 65.1428 304.57 65.5284 303.753L65.1115 303.556C65.4997 302.734 65.913 301.921 66.3512 301.12L66.7556 301.342C67.1876 300.552 67.6441 299.773 68.1247 299.007L67.7342 298.762C68.217 297.993 68.7238 297.235 69.2545 296.492L69.6297 296.76C70.1519 296.028 70.6975 295.309 71.266 294.606L70.9075 294.316C71.4779 293.61 72.0713 292.918 72.6874 292.242L73.0281 292.552C73.6333 291.888 74.2605 291.239 74.9096 290.607L74.588 290.277C75.2375 289.644 75.9087 289.027 76.6014 288.428L76.903 288.776C77.5811 288.189 78.2799 287.619 78.9993 287.067L78.7186 286.702C79.4368 286.15 80.1752 285.617 80.9335 285.102L81.1925 285.483C81.5653 285.23 81.9431 284.981 82.3258 284.737C82.7084 284.493 83.0932 284.256 83.4801 284.025L83.2437 283.629C84.0305 283.159 84.8259 282.715 85.6287 282.296L85.8418 282.705C86.6459 282.286 87.4576 281.893 88.2758 281.526L88.0871 281.105C88.9227 280.73 89.7651 280.382 90.6131 280.06L90.7766 280.491C91.624 280.169 92.477 279.875 93.3345 279.606L93.1968 279.166C94.0698 278.893 94.9473 278.647 95.8283 278.428L95.9396 278.875C96.8177 278.657 97.6992 278.466 98.583 278.301L98.4986 277.848C99.3967 277.681 100.297 277.541 101.198 277.428L101.256 277.885C102.153 277.773 103.052 277.687 103.95 277.629L103.92 277.169C104.831 277.11 105.742 277.078 106.652 277.073L106.654 277.534C107.557 277.529 108.459 277.552 109.359 277.601L109.384 277.14C110.295 277.19 111.203 277.267 112.107 277.37L112.054 277.828C112.951 277.931 113.844 278.061 114.732 278.217L114.812 277.763C115.71 277.921 116.602 278.105 117.488 278.317L117.381 278.765C118.259 278.974 119.13 279.21 119.993 279.471L120.127 279.03C120.999 279.294 121.863 279.585 122.717 279.902L122.557 280.334C123.402 280.647 124.238 280.986 125.064 281.35L125.25 280.929C126.083 281.296 126.905 281.689 127.715 282.108L127.504 282.517C128.304 282.931 129.092 283.369 129.868 283.832L130.104 283.436C130.885 283.903 131.653 284.394 132.406 284.91L132.146 285.29C132.888 285.798 133.616 286.33 134.329 286.886L134.612 286.522C135.328 287.081 136.029 287.663 136.714 288.269L136.408 288.614C137.081 289.209 137.737 289.828 138.377 290.469L138.703 290.144C139.344 290.786 139.967 291.452 140.572 292.139L140.226 292.444C140.818 293.117 141.393 293.811 141.948 294.527L142.312 294.245Z" stroke="white" stroke-width="0.921857" stroke-dasharray="2.77 2.77"/>
<path d="M138.525 296.841C139.12 297.583 139.691 298.35 140.238 299.144L139.859 299.406C140.127 299.794 140.389 300.189 140.644 300.591C140.9 300.992 141.148 301.396 141.387 301.803L141.785 301.569C142.273 302.4 142.728 303.242 143.149 304.094L142.736 304.299C143.158 305.152 143.546 306.016 143.901 306.888L144.328 306.714C144.69 307.605 145.018 308.504 145.311 309.41L144.872 309.552C145.165 310.456 145.423 311.367 145.647 312.283L146.094 312.174C146.322 313.106 146.515 314.044 146.673 314.985L146.219 315.062C146.376 315.997 146.498 316.936 146.587 317.876L147.046 317.833C147.135 318.788 147.19 319.744 147.21 320.699L146.75 320.709C146.77 321.656 146.756 322.603 146.708 323.547L147.168 323.57C147.12 324.527 147.037 325.481 146.92 326.431L146.463 326.375C146.347 327.314 146.198 328.249 146.016 329.178L146.469 329.267C146.285 330.206 146.067 331.139 145.817 332.063L145.372 331.943C145.125 332.856 144.845 333.76 144.534 334.655L144.969 334.807C144.654 335.709 144.308 336.602 143.929 337.483L143.506 337.301C143.133 338.169 142.728 339.025 142.293 339.868L142.703 340.08C142.265 340.928 141.796 341.763 141.297 342.583L140.903 342.343C140.412 343.149 139.891 343.94 139.341 344.714L139.717 344.981C139.164 345.758 138.582 346.519 137.972 347.261L137.616 346.968C137.017 347.695 136.39 348.405 135.735 349.095L136.069 349.412C135.414 350.103 134.731 350.774 134.021 351.423L133.71 351.083C133.016 351.719 132.295 352.334 131.548 352.926L131.835 353.287C131.091 353.878 130.322 354.447 129.527 354.993L129.266 354.613C128.877 354.881 128.481 355.142 128.08 355.398C127.678 355.654 127.274 355.902 126.867 356.142L127.102 356.539C126.272 357.029 125.431 357.487 124.581 357.912L124.375 357.5C123.523 357.926 122.661 358.32 121.792 358.681L121.969 359.107C121.08 359.476 120.184 359.812 119.282 360.115L119.135 359.678C118.233 359.98 117.325 360.249 116.412 360.485L116.528 360.932C115.597 361.172 114.662 361.379 113.725 361.552L113.641 361.098C112.707 361.27 111.77 361.409 110.833 361.514L110.884 361.972C109.93 362.079 108.975 362.152 108.021 362.191L108.002 361.73C107.054 361.769 106.108 361.774 105.163 361.746L105.15 362.206C104.191 362.178 103.235 362.115 102.284 362.019L102.331 361.561C101.388 361.466 100.45 361.337 99.518 361.176L99.4394 361.63C98.4955 361.467 97.558 361.271 96.6291 361.041L96.7396 360.594C95.8207 360.367 94.9101 360.107 94.0099 359.815L93.8678 360.254C92.9574 359.959 92.0574 359.631 91.1697 359.271L91.3428 358.844C90.4665 358.489 89.6023 358.102 88.7522 357.684L88.5488 358.098C87.6911 357.676 86.8474 357.223 86.0198 356.739L86.2525 356.341C85.4375 355.864 84.6382 355.357 83.8565 354.82L83.5954 355.199C82.809 354.659 82.0401 354.088 81.2906 353.488L81.5788 353.128C80.8428 352.539 80.1258 351.921 79.4296 351.274L79.1158 351.611C78.4182 350.963 77.7412 350.287 77.0864 349.582L77.424 349.269C76.7834 348.579 76.1643 347.863 75.5685 347.12L75.2089 347.408C74.6144 346.667 74.0429 345.899 73.4958 345.106L73.8753 344.844C73.6074 344.455 73.3454 344.06 73.0896 343.659C72.8338 343.258 72.5862 342.853 72.3469 342.447L71.9496 342.68C71.4609 341.849 71.0062 341.007 70.5849 340.155L70.9981 339.951C70.5759 339.097 70.1877 338.234 69.8333 337.362L69.4063 337.536C69.044 336.645 68.7165 335.746 68.4233 334.84L68.8619 334.698C68.5693 333.793 68.3113 332.883 68.0875 331.967L67.6398 332.076C67.4119 331.143 67.2191 330.205 67.0609 329.264L67.5155 329.188C67.3583 328.252 67.2357 327.314 67.1474 326.374L66.6885 326.417C66.5988 325.462 66.544 324.506 66.5237 323.55L66.9845 323.541C66.9644 322.593 66.9784 321.647 67.0264 320.703L66.566 320.679C66.6145 319.723 66.6974 318.768 66.8141 317.819L67.2716 317.875C67.387 316.935 67.5359 316 67.7178 315.071L67.2655 314.983C67.4495 314.044 67.6669 313.111 67.9172 312.186L68.3621 312.307C68.6092 311.394 68.8888 310.489 69.2005 309.595L68.7652 309.443C69.0796 308.54 69.4264 307.647 69.8049 306.766L70.2284 306.948C70.6014 306.08 71.0056 305.224 71.4406 304.381L71.031 304.17C71.4691 303.321 71.938 302.486 72.4375 301.667L72.8311 301.907C73.3221 301.101 73.8429 300.31 74.393 299.536L74.0174 299.269C74.5699 298.492 75.1517 297.731 75.7624 296.989L76.1183 297.282C76.7173 296.554 77.3445 295.845 77.9993 295.155L77.665 294.837C78.3203 294.147 79.0031 293.476 79.7129 292.826L80.0241 293.167C80.7185 292.531 81.4391 291.916 82.1856 291.323L81.8989 290.962C82.643 290.371 83.4124 289.802 84.2068 289.257L84.4678 289.637C84.8572 289.369 85.2526 289.107 85.6541 288.851C86.0556 288.595 86.4599 288.347 86.8667 288.107L86.6324 287.71C87.4624 287.22 88.303 286.763 89.1527 286.338L89.359 286.75C90.2114 286.323 91.073 285.93 91.9422 285.568L91.7653 285.143C92.6538 284.773 93.5501 284.437 94.4525 284.135L94.5991 284.572C95.501 284.269 96.409 284 97.3216 283.764L97.2062 283.318C98.1366 283.077 99.0716 282.871 100.009 282.698L100.093 283.151C101.027 282.979 101.964 282.841 102.901 282.736L102.85 282.278C103.804 282.171 104.759 282.098 105.713 282.059L105.732 282.52C106.68 282.481 107.626 282.476 108.571 282.504L108.584 282.043C109.543 282.072 110.499 282.134 111.45 282.23L111.404 282.689C112.346 282.784 113.284 282.912 114.216 283.073L114.295 282.619C115.239 282.782 116.176 282.979 117.105 283.209L116.994 283.656C117.913 283.883 118.824 284.143 119.724 284.435L119.866 283.996C120.777 284.291 121.677 284.619 122.564 284.978L122.391 285.406C123.268 285.761 124.132 286.147 124.982 286.565L125.185 286.152C126.043 286.573 126.887 287.027 127.714 287.511L127.482 287.909C128.297 288.386 129.096 288.893 129.878 289.43L130.139 289.05C130.925 289.591 131.694 290.161 132.443 290.762L132.155 291.121C132.891 291.711 133.608 292.329 134.305 292.976L134.618 292.638C135.316 293.286 135.993 293.963 136.648 294.667L136.31 294.981C136.951 295.67 137.57 296.387 138.166 297.13L138.525 296.841Z" fill="white" stroke="white" stroke-width="0.921857" stroke-dasharray="2.77 2.77"/>
<rect x="61.8415" y="364.7" width="120.754" height="24.6564" transform="rotate(-32.5188 61.8415 364.7)" fill="#FB8C00" stroke="white" stroke-width="0.921857"/>
<path d="M95.2807 377.99L77.2451 384.385L90.9519 375.647L95.2807 377.99Z" fill="#F9AD4F" stroke="#F9AD4F" stroke-width="0.184371"/>
<path d="M162.202 335.325L175.007 322.059L161.827 330.461L162.202 335.325Z" fill="#F9AD4F" stroke="#F9AD4F" stroke-width="0.184371"/>
<path d="M59.7527 402.642L95.602 379.787L75.586 385.713L68.3565 374.373L49.4248 386.442L61.7256 388.853L59.7527 402.642Z" fill="#FB8C00" stroke="white" stroke-width="1.84371"/>
<path d="M195.557 315.438L166.043 334.255L176.873 320.515L169.643 309.175L185.229 299.238L183.576 310.545L195.557 315.438Z" fill="#FB8C00" stroke="white" stroke-width="1.65934"/>
<path d="M77.6504 324.964L80.3119 323.267L81.644 325.356L76.2214 328.813L70.6076 320.008L73.3686 318.248L77.6504 324.964ZM86.8592 322.154C86.03 322.683 85.143 322.974 84.1981 323.028C83.2614 323.077 82.3706 322.887 81.5256 322.458C80.6806 322.029 79.9832 321.383 79.4334 320.521C78.8837 319.659 78.5926 318.754 78.5601 317.807C78.5276 316.859 78.7339 315.976 79.179 315.156C79.627 314.322 80.2656 313.641 81.0947 313.112C81.9239 312.583 82.8068 312.295 83.7434 312.246C84.6748 312.188 85.5588 312.377 86.3955 312.811C87.2406 313.24 87.9379 313.886 88.4877 314.749C89.0374 315.611 89.3285 316.516 89.361 317.463C89.4018 318.405 89.1981 319.293 88.7501 320.126C88.3103 320.955 87.68 321.631 86.8592 322.154ZM85.2179 319.579C85.7651 319.231 86.077 318.787 86.1534 318.248C86.2246 317.701 86.0699 317.13 85.6893 316.533C85.3034 315.927 84.8502 315.546 84.3297 315.388C83.8039 315.221 83.2674 315.313 82.7202 315.662C82.1647 316.016 81.8513 316.466 81.7801 317.013C81.7036 317.552 81.8583 318.124 82.2442 318.729C82.6248 319.326 83.078 319.708 83.6038 319.874C84.1243 320.032 84.6623 319.934 85.2179 319.579ZM99.3865 301.66L102.986 311.75L99.5529 313.939L95.3455 309.589L97.5132 315.239L94.0805 317.428L86.4519 309.907L89.4244 308.012L93.7567 313.051L91.4143 306.743L94.4241 304.824L99.1545 309.61L96.4141 303.555L99.3865 301.66ZM104.541 301.47L105.231 302.552L107.967 300.808L109.291 302.885L106.555 304.629L107.348 305.873L110.457 303.891L111.861 306.092L105.99 309.835L100.377 301.029L106.247 297.287L107.65 299.488L104.541 301.47ZM116.402 303.319C115.349 303.991 114.322 304.301 113.322 304.251C112.325 304.187 111.494 303.696 110.828 302.78L113.763 300.909C114.127 301.388 114.512 301.498 114.918 301.239C115.068 301.144 115.171 301.032 115.228 300.902C115.288 300.758 115.271 300.612 115.176 300.463C115.043 300.256 114.826 300.161 114.523 300.18C114.214 300.19 113.771 300.262 113.192 300.398C112.502 300.558 111.909 300.662 111.414 300.709C110.928 300.751 110.436 300.674 109.938 300.479C109.44 300.283 109.013 299.896 108.656 299.319C108.292 298.747 108.127 298.169 108.164 297.586C108.203 296.99 108.41 296.427 108.784 295.897C109.166 295.362 109.676 294.891 110.314 294.484C111.392 293.797 112.405 293.501 113.352 293.597C114.308 293.687 115.09 294.174 115.699 295.056L112.727 296.951C112.56 296.708 112.384 296.569 112.199 296.535C112.015 296.502 111.839 296.538 111.673 296.643C111.557 296.717 111.488 296.82 111.467 296.95C111.44 297.072 111.471 297.204 111.561 297.345C111.688 297.544 111.901 297.641 112.201 297.636C112.505 297.618 112.955 297.547 113.552 297.422C114.24 297.275 114.823 297.184 115.301 297.147C115.787 297.105 116.271 297.17 116.753 297.34C117.235 297.511 117.64 297.854 117.968 298.368C118.312 298.907 118.488 299.476 118.498 300.077C118.502 300.669 118.328 301.246 117.975 301.809C117.623 302.372 117.098 302.875 116.402 303.319ZM121.976 287.259L123.371 289.448L121.033 290.939L125.251 297.555L122.49 299.315L118.272 292.699L115.959 294.174L114.563 291.985L121.976 287.259Z" fill="#F97837"/>
<path d="M93.9715 365.067C92.9185 365.738 91.892 366.049 90.8919 365.998C89.8948 365.934 89.0633 365.444 88.3974 364.527L91.3326 362.656C91.6965 363.136 92.0816 363.246 92.4879 362.987C92.6371 362.892 92.7403 362.779 92.7975 362.649C92.8578 362.506 92.8403 362.36 92.7451 362.21C92.613 362.003 92.3953 361.909 92.0922 361.927C91.7837 361.937 91.3403 362.01 90.762 362.145C90.0713 362.306 89.4786 362.41 88.9839 362.457C88.4975 362.499 88.0054 362.422 87.5075 362.226C87.0095 362.03 86.5824 361.644 86.2259 361.066C85.8612 360.494 85.697 359.917 85.7335 359.334C85.773 358.737 85.9795 358.174 86.3532 357.644C86.7351 357.109 87.2453 356.638 87.8837 356.231C88.9616 355.544 89.9742 355.248 90.9215 355.344C91.8771 355.435 92.6596 355.921 93.2689 356.804L90.2965 358.699C90.1296 358.455 89.9537 358.317 89.769 358.283C89.5842 358.249 89.4088 358.285 89.243 358.391C89.1269 358.465 89.058 358.567 89.0362 358.698C89.0092 358.82 89.0406 358.951 89.1305 359.092C89.2573 359.291 89.4708 359.388 89.771 359.384C90.0742 359.365 90.5243 359.294 91.1215 359.17C91.8092 359.023 92.3921 358.931 92.8702 358.895C93.3566 358.853 93.8409 358.917 94.3229 359.088C94.805 359.259 95.2099 359.601 95.5376 360.115C95.8812 360.654 96.0578 361.224 96.0673 361.824C96.0716 362.416 95.8975 362.994 95.545 363.557C95.1925 364.119 94.668 364.623 93.9715 365.067ZM100.777 348.221L106.391 357.027L103.629 358.787L101.441 355.355L98.8168 357.028L101.005 360.46L98.2442 362.221L92.6304 353.415L95.3914 351.655L97.4133 354.826L100.038 353.153L98.0157 349.982L100.777 348.221ZM111.979 353.587C111.15 354.115 110.263 354.407 109.318 354.461C108.381 354.51 107.491 354.32 106.646 353.891C105.8 353.462 105.103 352.816 104.553 351.954C104.004 351.091 103.712 350.186 103.68 349.239C103.648 348.292 103.854 347.408 104.299 346.588C104.747 345.754 105.386 345.073 106.215 344.545C107.044 344.016 107.927 343.727 108.863 343.678C109.795 343.621 110.679 343.809 111.515 344.244C112.36 344.673 113.058 345.319 113.608 346.181C114.157 347.043 114.448 347.948 114.481 348.895C114.522 349.837 114.318 350.725 113.87 351.559C113.43 352.387 112.8 353.063 111.979 353.587ZM110.338 351.012C110.885 350.663 111.197 350.219 111.273 349.681C111.345 349.134 111.19 348.562 110.809 347.965C110.423 347.36 109.97 346.978 109.45 346.82C108.924 346.654 108.387 346.745 107.84 347.094C107.285 347.448 106.971 347.899 106.9 348.446C106.824 348.984 106.978 349.556 107.364 350.162C107.745 350.759 108.198 351.14 108.724 351.306C109.244 351.464 109.782 351.366 110.338 351.012ZM120.948 339.612C121.303 340.167 121.497 340.755 121.53 341.375C121.559 341.987 121.405 342.586 121.068 343.174C120.74 343.757 120.219 344.275 119.506 344.73L118.411 345.428L120.195 348.226L117.434 349.986L111.821 341.181L115.676 338.723C116.754 338.035 117.753 337.783 118.674 337.966C119.604 338.143 120.362 338.692 120.948 339.612ZM117.807 342.752C118.379 342.387 118.494 341.935 118.15 341.396C117.806 340.857 117.349 340.77 116.777 341.135L115.993 341.634L117.024 343.251L117.807 342.752ZM129.025 334.463C129.379 335.018 129.573 335.606 129.607 336.226C129.636 336.837 129.481 337.437 129.145 338.025C128.816 338.607 128.296 339.126 127.583 339.581L126.488 340.278L128.272 343.077L125.511 344.837L119.897 336.031L123.753 333.573C124.831 332.886 125.83 332.634 126.751 332.816C127.681 332.994 128.439 333.542 129.025 334.463ZM125.884 337.602C126.456 337.238 126.571 336.786 126.227 336.247C125.883 335.708 125.426 335.621 124.853 335.985L124.07 336.485L125.101 338.102L125.884 337.602ZM130.735 329.122L136.349 337.927L133.588 339.688L127.974 330.882L130.735 329.122ZM146.041 331.749L143.28 333.509L137.534 330.944L140.357 335.372L137.596 337.132L131.982 328.327L134.743 326.567L140.537 329.205L137.666 324.703L140.427 322.943L146.041 331.749ZM148.991 321.716C148.772 321.611 148.534 321.576 148.277 321.612C148.015 321.639 147.743 321.743 147.461 321.922C146.93 322.261 146.631 322.696 146.563 323.23C146.489 323.755 146.643 324.316 147.023 324.913C147.462 325.601 147.951 326.012 148.491 326.146C149.032 326.279 149.637 326.132 150.309 325.704C150.947 325.297 151.298 324.712 151.36 323.95L149.158 325.353L147.913 323.4L152.403 320.538L154.163 323.299C154.2 324.197 154.033 325.097 153.662 325.998C153.287 326.89 152.585 327.664 151.557 328.32C150.645 328.901 149.73 329.222 148.812 329.282C147.897 329.329 147.041 329.129 146.242 328.681C145.452 328.229 144.78 327.567 144.225 326.697C143.67 325.826 143.354 324.937 143.277 324.03C143.208 323.117 143.391 322.261 143.825 321.459C144.253 320.65 144.919 319.957 145.823 319.381C146.975 318.646 148.089 318.326 149.165 318.422C150.249 318.512 151.161 318.992 151.902 319.861L148.991 321.716Z" fill="white"/>
<path d="M95.7296 327.483C96.0838 328.039 96.2777 328.627 96.3114 329.246C96.3398 329.858 96.1857 330.458 95.8491 331.046C95.5208 331.628 95.0001 332.147 94.287 332.601L93.1925 333.299L94.9766 336.097L92.2155 337.858L86.6017 329.052L90.4573 326.594C91.5351 325.907 92.5346 325.654 93.4556 325.837C94.3849 326.014 95.1429 326.563 95.7296 327.483ZM92.5885 330.623C93.1606 330.258 93.2749 329.806 92.9313 329.267C92.5877 328.728 92.1298 328.641 91.5577 329.006L90.7742 329.506L91.805 331.122L92.5885 330.623ZM104.72 329.886L101.052 327.781L101.039 327.789L103.053 330.948L100.292 332.708L94.6786 323.903L98.7829 321.286C99.496 320.832 100.187 320.572 100.857 320.506C101.521 320.432 102.118 320.536 102.647 320.817C103.179 321.084 103.619 321.491 103.968 322.039C104.343 322.627 104.511 323.255 104.47 323.923C104.437 324.585 104.177 325.211 103.691 325.801L107.755 327.951L104.72 329.886ZM99.866 325.948L100.96 325.25C101.226 325.081 101.388 324.896 101.446 324.696C101.5 324.487 101.445 324.254 101.281 323.997C101.133 323.765 100.946 323.627 100.72 323.584C100.503 323.536 100.266 323.594 100.009 323.758L98.9145 324.456L99.866 325.948ZM105.772 316.831L111.385 325.636L108.624 327.396L103.011 318.591L105.772 316.831ZM109.569 320.584C109.014 319.714 108.694 318.828 108.608 317.926C108.532 317.019 108.702 316.17 109.119 315.379C109.531 314.58 110.18 313.898 111.067 313.332C111.83 312.846 112.603 312.557 113.385 312.467C114.17 312.363 114.915 312.453 115.621 312.738C116.336 313.017 116.977 313.465 117.546 314.082L114.635 315.938C114.318 315.732 113.984 315.63 113.635 315.631C113.289 315.618 112.958 315.712 112.643 315.913C112.179 316.209 111.921 316.619 111.869 317.141C111.826 317.659 111.992 318.212 112.367 318.8C112.743 319.389 113.174 319.773 113.661 319.952C114.157 320.126 114.637 320.065 115.101 319.769C115.416 319.568 115.644 319.312 115.784 319.001C115.927 318.677 115.972 318.327 115.92 317.952L118.83 316.097C119.15 316.873 119.285 317.643 119.237 318.409C119.197 319.169 118.967 319.887 118.546 320.563C118.129 321.226 117.539 321.8 116.776 322.287C115.889 322.852 114.999 323.157 114.106 323.202C113.208 323.238 112.364 323.03 111.574 322.577C110.792 322.119 110.124 321.455 109.569 320.584ZM120.547 310.507L121.237 311.589L123.973 309.844L125.298 311.921L122.561 313.666L123.354 314.909L126.464 312.927L127.867 315.129L121.997 318.871L116.383 310.066L122.253 306.323L123.657 308.524L120.547 310.507Z" fill="#F97837"/>
<path d="M373.5 257C378.829 257 383.975 258.941 387.976 262.46L389.031 263.453L393.813 268.235C395.125 269.539 396.839 270.362 398.677 270.571L399.602 270.626H406.453C412.051 270.626 417.438 272.768 421.508 276.612C425.578 280.456 428.023 285.712 428.341 291.302L428.376 292.549V299.4C428.376 301.249 429.006 303.051 430.143 304.49L430.76 305.175L435.535 309.957C439.493 313.892 441.801 319.189 441.988 324.767C442.175 330.345 440.227 335.785 436.542 339.977L435.549 341.032L430.767 345.814C429.463 347.126 428.64 348.84 428.43 350.678L428.376 351.603V358.453C428.376 364.052 426.234 369.438 422.39 373.508C418.545 377.578 413.289 380.023 407.7 380.342L406.453 380.376H399.602C397.755 380.376 395.962 380.999 394.512 382.143L393.827 382.76L389.045 387.535C385.109 391.493 379.812 393.801 374.234 393.988C368.656 394.175 363.216 392.227 359.024 388.542L357.969 387.549L353.187 382.767C351.875 381.463 350.161 380.64 348.323 380.431L347.398 380.376H340.547C334.949 380.376 329.562 378.235 325.492 374.39C321.422 370.546 318.977 365.29 318.659 359.7L318.624 358.453V351.603C318.624 349.755 318.001 347.962 316.857 346.512L316.24 345.827L311.465 341.045C307.507 337.11 305.199 331.813 305.012 326.235C304.825 320.657 306.773 315.217 310.458 311.025L311.451 309.97L316.233 305.188C317.537 303.876 318.36 302.162 318.57 300.324L318.624 299.4V292.549L318.659 291.302C318.964 285.927 321.237 280.853 325.044 277.046C328.851 273.239 333.925 270.966 339.3 270.66L340.547 270.626H347.398C349.245 270.626 351.038 270.003 352.488 268.859L353.173 268.242L357.955 263.467C359.992 261.418 362.414 259.792 365.082 258.682C367.75 257.572 370.611 257 373.5 257ZM398.828 306.887C397.543 305.603 395.801 304.882 393.984 304.882C392.168 304.882 390.425 305.603 389.141 306.887L366.581 329.44L357.722 320.589L357.078 320.02C355.701 318.956 353.971 318.455 352.238 318.62C350.505 318.785 348.9 319.604 347.749 320.909C346.598 322.215 345.987 323.909 346.04 325.649C346.093 327.389 346.807 329.043 348.035 330.276L361.737 343.978L362.381 344.546C363.699 345.569 365.345 346.075 367.01 345.97C368.675 345.866 370.245 345.157 371.424 343.978L398.828 316.574L399.396 315.931C400.419 314.612 400.925 312.966 400.821 311.302C400.716 309.637 400.007 308.067 398.828 306.887Z" fill="#70B241"/>
<ellipse cx="375.959" cy="325.751" rx="37.2545" ry="35.9699" fill="#70B241"/>
<path d="M323.794 326.466C325.469 325.217 326.793 324.086 327.768 323.074C328.743 322.049 329.23 321.093 329.23 320.206C329.23 319.906 329.161 319.675 329.024 319.512C328.899 319.35 328.73 319.269 328.518 319.269C328.268 319.269 328.068 319.4 327.918 319.662C327.78 319.912 327.73 320.3 327.768 320.824H323.738C323.776 319.662 324.026 318.706 324.488 317.957C324.963 317.207 325.575 316.657 326.325 316.307C327.074 315.958 327.899 315.783 328.799 315.783C330.398 315.783 331.566 316.17 332.304 316.945C333.053 317.707 333.428 318.688 333.428 319.887C333.428 321.149 333.022 322.336 332.21 323.449C331.41 324.548 330.404 325.479 329.192 326.241H333.485V329.596H323.794V326.466ZM344.832 319.737H339.396V321.312C339.634 321.099 339.94 320.931 340.315 320.806C340.702 320.681 341.133 320.618 341.608 320.618C342.458 320.618 343.176 320.818 343.763 321.218C344.351 321.618 344.788 322.155 345.075 322.83C345.363 323.492 345.507 324.229 345.507 325.042C345.507 326.541 345.082 327.709 344.232 328.547C343.395 329.371 342.239 329.784 340.764 329.784C339.69 329.784 338.759 329.596 337.972 329.221C337.197 328.847 336.604 328.328 336.191 327.666C335.791 327.003 335.604 326.247 335.629 325.398H339.677C339.677 325.598 339.746 325.785 339.884 325.96C340.021 326.135 340.246 326.222 340.558 326.222C340.871 326.222 341.102 326.11 341.252 325.885C341.402 325.66 341.477 325.354 341.477 324.967C341.477 324.604 341.389 324.329 341.214 324.142C341.052 323.955 340.814 323.861 340.502 323.861C340.24 323.861 340.04 323.923 339.902 324.048C339.765 324.173 339.696 324.317 339.696 324.479H335.648V316.082H344.832V319.737ZM356.848 329.915C355.598 329.915 354.448 329.621 353.399 329.034C352.362 328.447 351.537 327.634 350.925 326.597C350.312 325.56 350.006 324.392 350.006 323.092C350.006 321.793 350.312 320.625 350.925 319.587C351.537 318.55 352.362 317.744 353.399 317.17C354.448 316.582 355.598 316.289 356.848 316.289C358.097 316.289 359.24 316.582 360.278 317.17C361.315 317.744 362.133 318.55 362.733 319.587C363.345 320.625 363.651 321.793 363.651 323.092C363.651 324.392 363.345 325.56 362.733 326.597C362.133 327.634 361.308 328.447 360.259 329.034C359.222 329.621 358.085 329.915 356.848 329.915ZM356.848 326.035C357.672 326.035 358.31 325.773 358.759 325.248C359.209 324.711 359.434 323.992 359.434 323.092C359.434 322.18 359.209 321.462 358.759 320.937C358.31 320.4 357.672 320.131 356.848 320.131C356.01 320.131 355.367 320.4 354.917 320.937C354.467 321.462 354.242 322.18 354.242 323.092C354.242 323.992 354.467 324.711 354.917 325.248C355.367 325.773 356.01 326.035 356.848 326.035ZM371.825 329.784L369.332 325.023H369.313V329.784H365.152V316.514H371.338C372.412 316.514 373.331 316.707 374.093 317.095C374.855 317.469 375.424 317.988 375.798 318.65C376.186 319.3 376.38 320.037 376.38 320.862C376.38 321.749 376.13 322.536 375.63 323.224C375.142 323.911 374.436 324.404 373.512 324.704L376.398 329.784H371.825ZM369.313 322.249H370.963C371.363 322.249 371.662 322.161 371.862 321.987C372.062 321.799 372.162 321.512 372.162 321.124C372.162 320.774 372.056 320.5 371.844 320.3C371.644 320.1 371.35 320 370.963 320H369.313V322.249ZM383.238 316.514C384.625 316.514 385.837 316.795 386.874 317.357C387.924 317.919 388.73 318.7 389.292 319.7C389.854 320.7 390.136 321.837 390.136 323.111C390.136 324.373 389.854 325.51 389.292 326.522C388.73 327.535 387.924 328.334 386.874 328.922C385.837 329.496 384.625 329.784 383.238 329.784H377.709V316.514H383.238ZM382.863 326.073C383.8 326.073 384.544 325.816 385.094 325.304C385.643 324.792 385.918 324.061 385.918 323.111C385.918 322.161 385.643 321.431 385.094 320.918C384.544 320.406 383.8 320.15 382.863 320.15H381.87V326.073H382.863ZM395.799 319.831V321.462H399.922V324.592H395.799V326.466H400.485V329.784H391.638V316.514H400.485V319.831H395.799ZM408.725 329.784L406.233 325.023H406.214V329.784H402.053V316.514H408.238C409.313 316.514 410.231 316.707 410.993 317.095C411.756 317.469 412.324 317.988 412.699 318.65C413.086 319.3 413.28 320.037 413.28 320.862C413.28 321.749 413.03 322.536 412.53 323.224C412.043 323.911 411.337 324.404 410.412 324.704L413.299 329.784H408.725ZM406.214 322.249H407.863C408.263 322.249 408.563 322.161 408.763 321.987C408.963 321.799 409.063 321.512 409.063 321.124C409.063 320.774 408.957 320.5 408.744 320.3C408.544 320.1 408.251 320 407.863 320H406.214V322.249ZM419.801 329.915C418.214 329.915 416.902 329.546 415.865 328.809C414.841 328.059 414.284 326.966 414.197 325.529H418.62C418.683 326.291 419.02 326.672 419.633 326.672C419.857 326.672 420.045 326.622 420.195 326.522C420.357 326.41 420.438 326.241 420.438 326.016C420.438 325.704 420.27 325.454 419.932 325.267C419.595 325.067 419.07 324.842 418.358 324.592C417.508 324.292 416.802 323.998 416.24 323.711C415.69 323.424 415.215 323.005 414.816 322.455C414.416 321.905 414.222 321.199 414.234 320.337C414.234 319.475 414.453 318.744 414.89 318.144C415.34 317.532 415.946 317.07 416.709 316.757C417.483 316.445 418.352 316.289 419.314 316.289C420.938 316.289 422.225 316.663 423.175 317.413C424.137 318.163 424.643 319.219 424.693 320.581H420.214C420.201 320.206 420.107 319.937 419.932 319.775C419.757 319.612 419.545 319.531 419.295 319.531C419.12 319.531 418.977 319.594 418.864 319.719C418.752 319.831 418.695 319.994 418.695 320.206C418.695 320.506 418.858 320.756 419.183 320.956C419.52 321.143 420.051 321.374 420.776 321.649C421.613 321.962 422.3 322.261 422.838 322.549C423.387 322.836 423.862 323.236 424.262 323.748C424.662 324.261 424.862 324.904 424.862 325.679C424.862 326.491 424.662 327.222 424.262 327.872C423.862 328.509 423.281 329.009 422.519 329.371C421.757 329.734 420.851 329.915 419.801 329.915Z" fill="white"/>
<path d="M359.009 292.929C358.755 292.395 358.388 291.984 357.907 291.696C357.426 291.398 356.866 291.249 356.228 291.249C355.589 291.249 355.012 291.398 354.496 291.696C353.988 291.984 353.586 292.404 353.289 292.955C353 293.497 352.856 294.127 352.856 294.844C352.856 295.562 353 296.191 353.289 296.734C353.586 297.276 353.988 297.696 354.496 297.993C355.012 298.282 355.589 298.426 356.228 298.426C357.12 298.426 357.854 298.159 358.432 297.626C359.009 297.092 359.346 296.371 359.442 295.461H355.795V294.49H360.715V295.409C360.645 296.161 360.408 296.852 360.006 297.482C359.604 298.103 359.075 298.597 358.419 298.964C357.763 299.323 357.032 299.502 356.228 299.502C355.379 299.502 354.605 299.305 353.905 298.912C353.206 298.509 352.65 297.954 352.239 297.245C351.837 296.537 351.635 295.737 351.635 294.844C351.635 293.952 351.837 293.152 352.239 292.443C352.65 291.726 353.206 291.171 353.905 290.777C354.605 290.375 355.379 290.174 356.228 290.174C357.198 290.174 358.056 290.414 358.799 290.895C359.551 291.376 360.098 292.054 360.439 292.929H359.009ZM368.853 295.553C368.853 295.78 368.84 296.021 368.814 296.274H363.067C363.111 296.983 363.352 297.538 363.789 297.941C364.235 298.334 364.773 298.531 365.403 298.531C365.919 298.531 366.347 298.413 366.689 298.177C367.038 297.932 367.283 297.608 367.423 297.206H368.709C368.517 297.897 368.132 298.461 367.554 298.899C366.977 299.327 366.26 299.541 365.403 299.541C364.72 299.541 364.108 299.388 363.566 299.082C363.032 298.776 362.613 298.343 362.306 297.783C362 297.215 361.847 296.559 361.847 295.815C361.847 295.072 361.996 294.42 362.293 293.86C362.591 293.301 363.006 292.872 363.54 292.575C364.082 292.268 364.703 292.115 365.403 292.115C366.085 292.115 366.689 292.264 367.213 292.561C367.738 292.859 368.14 293.27 368.42 293.795C368.709 294.311 368.853 294.897 368.853 295.553ZM367.62 295.304C367.62 294.849 367.519 294.46 367.318 294.136C367.117 293.804 366.842 293.554 366.492 293.388C366.151 293.213 365.77 293.126 365.35 293.126C364.747 293.126 364.231 293.318 363.802 293.703C363.382 294.088 363.142 294.621 363.08 295.304H367.62ZM371.886 293.217V297.455C371.886 297.805 371.96 298.054 372.109 298.203C372.257 298.343 372.515 298.413 372.883 298.413H373.762V299.423H372.686C372.021 299.423 371.523 299.27 371.19 298.964C370.858 298.658 370.692 298.155 370.692 297.455V293.217H369.76V292.233H370.692V290.423H371.886V292.233H373.762V293.217H371.886ZM381.632 293.217H380.123V299.423H378.929V293.217H377.998V292.233H378.929V291.722C378.929 290.917 379.135 290.331 379.546 289.964C379.966 289.588 380.635 289.4 381.553 289.4V290.397C381.029 290.397 380.657 290.502 380.438 290.712C380.228 290.913 380.123 291.249 380.123 291.722V292.233H381.632V293.217ZM383.641 291.066C383.413 291.066 383.221 290.987 383.064 290.83C382.906 290.672 382.827 290.48 382.827 290.252C382.827 290.025 382.906 289.832 383.064 289.675C383.221 289.518 383.413 289.439 383.641 289.439C383.86 289.439 384.043 289.518 384.192 289.675C384.349 289.832 384.428 290.025 384.428 290.252C384.428 290.48 384.349 290.672 384.192 290.83C384.043 290.987 383.86 291.066 383.641 291.066ZM384.218 292.233V299.423H383.024V292.233H384.218ZM387.447 293.401C387.657 292.99 387.954 292.671 388.339 292.443C388.733 292.216 389.209 292.102 389.769 292.102V293.336H389.454C388.116 293.336 387.447 294.062 387.447 295.514V299.423H386.253V292.233H387.447V293.401ZM393.693 299.541C393.142 299.541 392.648 299.45 392.21 299.266C391.773 299.073 391.427 298.811 391.174 298.479C390.92 298.138 390.78 297.748 390.754 297.311H391.987C392.022 297.67 392.188 297.963 392.486 298.19C392.792 298.417 393.19 298.531 393.68 298.531C394.134 298.531 394.493 298.431 394.755 298.229C395.018 298.028 395.149 297.775 395.149 297.468C395.149 297.154 395.009 296.922 394.729 296.773C394.449 296.616 394.016 296.463 393.43 296.314C392.897 296.174 392.459 296.034 392.118 295.894C391.786 295.745 391.497 295.531 391.252 295.251C391.016 294.962 390.898 294.586 390.898 294.123C390.898 293.755 391.007 293.419 391.226 293.113C391.445 292.806 391.755 292.566 392.158 292.391C392.56 292.207 393.019 292.115 393.535 292.115C394.331 292.115 394.974 292.317 395.464 292.719C395.954 293.121 396.216 293.672 396.251 294.372H395.057C395.031 293.996 394.878 293.694 394.598 293.467C394.327 293.239 393.96 293.126 393.496 293.126C393.067 293.126 392.726 293.217 392.473 293.401C392.219 293.585 392.092 293.825 392.092 294.123C392.092 294.359 392.166 294.556 392.315 294.713C392.473 294.862 392.665 294.984 392.892 295.081C393.129 295.168 393.452 295.269 393.863 295.382C394.379 295.522 394.799 295.662 395.123 295.802C395.446 295.933 395.722 296.135 395.949 296.406C396.186 296.677 396.308 297.031 396.317 297.468C396.317 297.862 396.207 298.216 395.989 298.531C395.77 298.846 395.46 299.095 395.057 299.279C394.664 299.454 394.209 299.541 393.693 299.541ZM399.459 293.217V297.455C399.459 297.805 399.533 298.054 399.682 298.203C399.83 298.343 400.088 298.413 400.456 298.413H401.335V299.423H400.259C399.594 299.423 399.096 299.27 398.763 298.964C398.431 298.658 398.265 298.155 398.265 297.455V293.217H397.333V292.233H398.265V290.423H399.459V292.233H401.335V293.217H399.459Z" fill="white"/>
<path d="M395.136 338.102C397.302 337.632 399.492 337.665 401.257 338.195C403.022 338.724 404.23 339.709 404.632 340.949L404.709 341.238L405.363 344.253C405.454 344.703 405.343 345.187 405.041 345.658C404.74 346.128 404.258 346.569 403.644 346.937L403.362 347.099C402.503 347.561 401.814 348.133 401.365 348.755C400.917 349.377 400.728 350.025 400.817 350.632C400.906 351.238 401.27 351.78 401.871 352.2C402.472 352.619 403.287 352.902 404.231 353.017L404.654 353.056C405.957 353.145 407.212 353.641 407.58 354.575L407.654 354.817L408.307 357.832C408.583 359.101 408.02 360.503 406.734 361.749C405.448 362.995 403.536 363.992 401.39 364.535L400.893 364.651L361.256 373.247C359.089 373.717 356.9 373.684 355.134 373.155C353.369 372.625 352.162 371.64 351.76 370.4L351.683 370.111L351.029 367.096C350.811 366.09 351.638 365.091 352.747 364.412L353.029 364.251C353.888 363.788 354.578 363.216 355.026 362.594C355.474 361.972 355.664 361.324 355.575 360.718C355.486 360.111 355.122 359.569 354.521 359.15C353.92 358.73 353.105 358.447 352.161 358.332L351.738 358.294C350.435 358.204 349.18 357.708 348.811 356.774L348.739 356.534L348.084 353.518C347.809 352.248 348.372 350.847 349.658 349.6C350.944 348.354 352.855 347.358 355.002 346.814L355.499 346.698L395.136 338.102ZM371.454 351.924C370.703 352.087 370.021 352.418 369.557 352.845C369.094 353.271 368.887 353.758 368.983 354.198L370.422 360.835C370.517 361.275 370.907 361.633 371.506 361.829C372.104 362.025 372.862 362.043 373.613 361.88C374.364 361.718 375.046 361.387 375.509 360.96C375.973 360.534 376.18 360.047 376.084 359.607L374.645 352.97C374.55 352.53 374.16 352.172 373.561 351.976C372.963 351.78 372.205 351.762 371.454 351.924Z" fill="#F9A826"/>
<rect x="364.566" y="352.421" width="16.6801" height="14.4421" transform="rotate(-9.53002 364.566 352.421)" fill="#F9A826"/>
<path d="M370.558 351.021V353.33H366.91V354.616H369.535V356.807H366.91V360.31H363.998V351.021H370.558ZM374.457 354.275C374.755 353.846 375.118 353.505 375.546 353.251C375.975 352.989 376.421 352.858 376.884 352.858V355.967H376.058C375.507 355.967 375.1 356.063 374.838 356.256C374.584 356.448 374.457 356.789 374.457 357.279V360.31H371.544V352.91H374.457V354.275ZM384.833 356.545C384.833 356.746 384.819 356.938 384.793 357.122H380.109C380.153 357.76 380.42 358.08 380.91 358.08C381.225 358.08 381.452 357.935 381.592 357.647H384.675C384.57 358.171 384.347 358.644 384.006 359.064C383.674 359.475 383.249 359.803 382.733 360.048C382.226 360.284 381.666 360.402 381.054 360.402C380.319 360.402 379.663 360.249 379.086 359.943C378.517 359.637 378.071 359.199 377.748 358.631C377.433 358.053 377.275 357.38 377.275 356.61C377.275 355.84 377.433 355.171 377.748 354.603C378.071 354.025 378.517 353.584 379.086 353.278C379.663 352.971 380.319 352.818 381.054 352.818C381.789 352.818 382.44 352.971 383.009 353.278C383.586 353.575 384.032 354.004 384.347 354.563C384.671 355.123 384.833 355.784 384.833 356.545ZM381.881 355.849C381.881 355.604 381.802 355.421 381.644 355.298C381.487 355.167 381.29 355.101 381.054 355.101C380.538 355.101 380.236 355.351 380.149 355.849H381.881ZM392.917 356.545C392.917 356.746 392.904 356.938 392.878 357.122H388.194C388.238 357.76 388.505 358.08 388.994 358.08C389.309 358.08 389.537 357.935 389.677 357.647H392.76C392.655 358.171 392.432 358.644 392.091 359.064C391.758 359.475 391.334 359.803 390.818 360.048C390.311 360.284 389.751 360.402 389.139 360.402C388.404 360.402 387.748 360.249 387.171 359.943C386.602 359.637 386.156 359.199 385.832 358.631C385.518 358.053 385.36 357.38 385.36 356.61C385.36 355.84 385.518 355.171 385.832 354.603C386.156 354.025 386.602 353.584 387.171 353.278C387.748 352.971 388.404 352.818 389.139 352.818C389.873 352.818 390.525 352.971 391.094 353.278C391.671 353.575 392.117 354.004 392.432 354.563C392.756 355.123 392.917 355.784 392.917 356.545ZM389.965 355.849C389.965 355.604 389.887 355.421 389.729 355.298C389.572 355.167 389.375 355.101 389.139 355.101C388.623 355.101 388.321 355.351 388.233 355.849H389.965Z" fill="white"/>
<path d="M370.558 351.021V353.33H366.91V354.616H369.535V356.807H366.91V360.31H363.998V351.021H370.558ZM374.457 354.275C374.755 353.846 375.118 353.505 375.546 353.251C375.975 352.989 376.421 352.858 376.884 352.858V355.967H376.058C375.507 355.967 375.1 356.063 374.838 356.256C374.584 356.448 374.457 356.789 374.457 357.279V360.31H371.544V352.91H374.457V354.275ZM384.833 356.545C384.833 356.746 384.819 356.938 384.793 357.122H380.109C380.153 357.76 380.42 358.08 380.91 358.08C381.225 358.08 381.452 357.935 381.592 357.647H384.675C384.57 358.171 384.347 358.644 384.006 359.064C383.674 359.475 383.249 359.803 382.733 360.048C382.226 360.284 381.666 360.402 381.054 360.402C380.319 360.402 379.663 360.249 379.086 359.943C378.517 359.637 378.071 359.199 377.748 358.631C377.433 358.053 377.275 357.38 377.275 356.61C377.275 355.84 377.433 355.171 377.748 354.603C378.071 354.025 378.517 353.584 379.086 353.278C379.663 352.971 380.319 352.818 381.054 352.818C381.789 352.818 382.44 352.971 383.009 353.278C383.586 353.575 384.032 354.004 384.347 354.563C384.671 355.123 384.833 355.784 384.833 356.545ZM381.881 355.849C381.881 355.604 381.802 355.421 381.644 355.298C381.487 355.167 381.29 355.101 381.054 355.101C380.538 355.101 380.236 355.351 380.149 355.849H381.881ZM392.917 356.545C392.917 356.746 392.904 356.938 392.878 357.122H388.194C388.238 357.76 388.505 358.08 388.994 358.08C389.309 358.08 389.537 357.935 389.677 357.647H392.76C392.655 358.171 392.432 358.644 392.091 359.064C391.758 359.475 391.334 359.803 390.818 360.048C390.311 360.284 389.751 360.402 389.139 360.402C388.404 360.402 387.748 360.249 387.171 359.943C386.602 359.637 386.156 359.199 385.832 358.631C385.518 358.053 385.36 357.38 385.36 356.61C385.36 355.84 385.518 355.171 385.832 354.603C386.156 354.025 386.602 353.584 387.171 353.278C387.748 352.971 388.404 352.818 389.139 352.818C389.873 352.818 390.525 352.971 391.094 353.278C391.671 353.575 392.117 354.004 392.432 354.563C392.756 355.123 392.917 355.784 392.917 356.545ZM389.965 355.849C389.965 355.604 389.887 355.421 389.729 355.298C389.572 355.167 389.375 355.101 389.139 355.101C388.623 355.101 388.321 355.351 388.233 355.849H389.965Z" fill="white"/>
</g>
<defs>
<filter id="filter0_d_2996_1055" x="213" y="147" width="359" height="453.915" filterUnits="userSpaceOnUse" color-interpolation-filters="sRGB">
<feFlood flood-opacity="0" result="BackgroundImageFix"/>
<feColorMatrix in="SourceAlpha" type="matrix" values="0 0 0 0 0 0 0 0 0 0 0 0 0 0 0 0 0 0 127 0" result="hardAlpha"/>
<feOffset dy="10"/>
<feGaussianBlur stdDeviation="50"/>
<feComposite in2="hardAlpha" operator="out"/>
<feColorMatrix type="matrix" values="0 0 0 0 0.976471 0 0 0 0 0.658824 0 0 0 0 0.14902 0 0 0 0.15 0"/>
<feBlend mode="normal" in2="BackgroundImageFix" result="effect1_dropShadow_2996_1055"/>
<feBlend mode="normal" in="SourceGraphic" in2="effect1_dropShadow_2996_1055" result="shape"/>
</filter>
<filter id="filter1_d_2996_1055" x="43.025" y="314.608" width="270.542" height="184.555" filterUnits="userSpaceOnUse" color-interpolation-filters="sRGB">
<feFlood flood-opacity="0" result="BackgroundImageFix"/>
<feColorMatrix in="SourceAlpha" type="matrix" values="0 0 0 0 0 0 0 0 0 0 0 0 0 0 0 0 0 0 127 0" result="hardAlpha"/>
<feOffset dy="12.5833"/>
<feGaussianBlur stdDeviation="16.9875"/>
<feComposite in2="hardAlpha" operator="out"/>
<feColorMatrix type="matrix" values="0 0 0 0 0 0 0 0 0 0 0 0 0 0 0 0 0 0 0.1 0"/>
<feBlend mode="normal" in2="BackgroundImageFix" result="effect1_dropShadow_2996_1055"/>
<feBlend mode="normal" in="SourceGraphic" in2="effect1_dropShadow_2996_1055" result="shape"/>
</filter>
<clipPath id="clip0_2996_1055">
<rect width="453" height="453" fill="white"/>
</clipPath>
</defs>
</svg>
