<svg width="450" height="450" viewBox="0 0 450 450" fill="none" xmlns="http://www.w3.org/2000/svg">
<g clip-path="url(#clip0_2996_1152)">
<rect width="449.669" height="449.669" fill="white"/>
<path d="M204.771 15.4822C40.7938 -59.8112 240.569 -234.352 360.953 -312.211L977.144 344.606C946.755 373.114 899.796 471.041 777.248 469.845C624.065 468.351 438.664 555.896 349.57 353.069C260.477 150.242 409.742 109.599 204.771 15.4822Z" fill="#FFE0B8"/>
<path d="M44.2289 189.484C-146.214 201.591 15.2942 -119.03 119.854 -280.853L934.502 103.135C910.453 154.155 887.556 294.881 759.814 367.194C600.136 457.585 430.537 669.629 284.187 490.209C137.837 310.789 282.282 174.35 44.2289 189.484Z" fill="#FFC882" fill-opacity="0.39"/>
<path d="M515.175 223.496C512.342 214.311 515.507 204.575 513.746 195.24C512.291 187.381 508.693 179.998 504.406 173.266C496.648 161.078 480.928 155.572 467.045 153.87C457.654 152.718 447.727 153.945 439.152 149.19C432.9 145.736 426.264 142.082 419.425 139.479C402.251 132.997 382.549 132.121 364.303 131.595L363.129 131.57L361.955 131.595C343.734 132.121 324.033 132.997 306.858 139.479C300.019 142.057 293.384 145.711 287.132 149.19C278.557 153.945 268.63 152.718 259.213 153.87C245.356 155.546 229.636 161.052 221.878 173.266C217.591 179.998 214.018 187.381 212.538 195.24C210.777 204.575 213.941 214.311 211.109 223.496C210.471 225.573 207.791 228.651 208.837 230.979C209.909 233.406 215.804 235.183 218.024 236.435C225.451 240.714 233.617 243.743 241.885 246.145C247.423 247.772 253.19 251.126 259.188 250.3C261.765 249.95 263.756 248.923 264.138 246.321C265.287 238.362 268.145 230.253 270.799 222.695C271.514 220.643 272.585 216.989 275.597 217.239C277.638 217.414 278.787 221.719 278.659 223.295C278.174 229.277 276.745 235.208 276.515 241.215C276.26 247.522 278.098 252.652 280.139 258.484C282.436 264.966 285.243 271.298 287.234 277.88C289.352 285.063 288.076 292.646 285.932 299.679C280.777 316.447 273.785 331.789 266.946 347.906C264.368 353.938 262.122 360.095 259.596 366.151C258.449 368.896 257.224 371.608 255.921 374.285C252.374 381.593 244.769 387.074 245.739 396.184C247.27 410.5 260.948 418.809 272.305 425.691C299.279 442.059 331.434 449.818 363.154 449.667C394.901 449.818 427.056 442.084 454.055 425.691C465.386 418.809 479.09 410.5 480.621 396.184C481.591 387.099 473.961 381.593 470.439 374.285C469.163 371.632 467.913 368.879 466.79 366.151C464.289 360.095 462.017 353.938 459.44 347.906C452.575 331.789 445.583 316.447 440.453 299.679C438.31 292.646 437.008 285.063 439.152 277.88C441.117 271.273 443.95 264.966 446.221 258.484C448.288 252.652 450.1 247.522 449.87 241.215C449.666 235.183 448.211 229.277 447.727 223.295C447.624 221.744 448.747 217.414 450.763 217.239C453.8 217.014 454.872 220.643 455.587 222.695C458.241 230.278 461.099 238.387 462.247 246.321C462.63 248.923 464.62 249.95 467.198 250.3C473.221 251.126 478.937 247.772 484.5 246.145C492.769 243.743 500.909 240.714 508.361 236.435C510.556 235.183 516.451 233.406 517.548 230.979C518.492 228.651 515.838 225.573 515.175 223.496Z" fill="#FFBB00"/>
<path d="M337.204 197.443C330.569 200.321 322.939 199.845 316.227 197.418L315.793 197.267C311.991 195.841 307.958 193.388 304.845 190.785C294.892 182.301 293.897 167.51 297.827 155.947C298.848 152.919 302.37 148.84 306.045 149.59C306.58 149.716 307.142 149.916 307.703 150.191C311.378 152.068 314.134 155.096 317.477 157.424C323.296 161.478 329.318 163.255 335.877 165.758C340.47 167.485 345.192 168.912 349.964 169.913C351.24 170.163 352.669 170.588 353.843 171.014C355.68 171.69 355.782 173.692 355.859 175.344C356.088 179.573 351.597 184.929 349.071 188.032C345.881 191.912 341.976 195.39 337.204 197.443ZM419.632 190.76C416.544 193.388 412.512 195.816 408.684 197.242L408.276 197.393C401.59 199.82 393.934 200.296 387.299 197.418C382.527 195.365 378.622 191.912 375.407 187.957C372.88 184.879 368.389 179.498 368.619 175.268C368.721 173.617 368.823 171.614 370.66 170.939C371.86 170.488 373.289 170.088 374.539 169.838C379.337 168.836 384.058 167.41 388.652 165.683C395.21 163.205 401.233 161.403 407.051 157.349C410.394 155.021 413.176 151.968 416.825 150.116C417.387 149.841 417.948 149.615 418.484 149.515C422.159 148.765 425.655 152.869 426.676 155.872C430.606 167.485 429.61 182.276 419.632 190.76Z" fill="white"/>
<path d="M362.337 400.063C368.933 400.063 374.28 394.819 374.28 388.35C374.28 381.881 368.933 376.637 362.337 376.637C355.741 376.637 350.394 381.881 350.394 388.35C350.394 394.819 355.741 400.063 362.337 400.063Z" fill="#F79329"/>
<path d="M362.337 339.873C368.933 339.873 374.28 334.629 374.28 328.161C374.28 321.692 368.933 316.448 362.337 316.448C355.741 316.448 350.394 321.692 350.394 328.161C350.394 334.629 355.741 339.873 362.337 339.873Z" fill="#F79329"/>
<path d="M362.337 279.706C368.933 279.706 374.28 274.462 374.28 267.994C374.28 261.525 368.933 256.281 362.337 256.281C355.741 256.281 350.394 261.525 350.394 267.994C350.394 274.462 355.741 279.706 362.337 279.706Z" fill="#F97837"/>
<path d="M362.337 219.516C368.933 219.516 374.28 214.272 374.28 207.804C374.28 201.335 368.933 196.091 362.337 196.091C355.741 196.091 350.394 201.335 350.394 207.804C350.394 214.272 355.741 219.516 362.337 219.516Z" fill="#F97837"/>
<path d="M67.7104 86.3037C61.9291 86.3037 57.1493 84.9608 53.371 82.275C49.6381 79.5436 47.6124 75.5605 47.2938 70.3254H63.4086C63.6362 73.1023 64.8653 74.4907 67.0959 74.4907C67.9153 74.4907 68.5981 74.3086 69.1444 73.9444C69.7361 73.5347 70.032 72.9202 70.032 72.1008C70.032 70.9627 69.4175 70.0523 68.1884 69.3695C66.9593 68.6411 65.0474 67.8217 62.4526 66.9113C59.3571 65.8187 56.7851 64.749 54.7366 63.702C52.7336 62.655 51.0038 61.13 49.5471 59.127C48.0904 57.124 47.3848 54.552 47.4303 51.411C47.4303 48.27 48.227 45.6069 49.8202 43.4219C51.459 41.1913 53.6669 39.507 56.4437 38.3689C59.2661 37.2309 62.4298 36.6619 65.935 36.6619C71.8529 36.6619 76.5417 38.0275 80.0014 40.7588C83.5066 43.4902 85.3502 47.3368 85.5323 52.2987H69.2126C69.1671 50.933 68.8257 49.9543 68.1884 49.3625C67.5511 48.7707 66.7772 48.4748 65.8668 48.4748C65.2295 48.4748 64.706 48.7024 64.2963 49.1577C63.8866 49.5674 63.6817 50.1591 63.6817 50.933C63.6817 52.0255 64.2735 52.936 65.4571 53.6643C66.6862 54.3472 68.6209 55.1893 71.2611 56.1908C74.3111 57.3289 76.8148 58.4214 78.7723 59.4684C80.7752 60.5154 82.5051 61.9721 83.9618 63.8385C85.4185 65.7049 86.1468 68.0493 86.1468 70.8717C86.1468 73.8306 85.4185 76.4937 83.9618 78.8608C82.5051 81.1824 80.3883 83.0033 77.6115 84.3235C74.8346 85.6436 71.5343 86.3037 67.7104 86.3037ZM122.473 78.5194H106.359L103.969 85.8257H88.0588L105.744 37.4813H123.225L140.842 85.8257H124.863L122.473 78.5194ZM118.786 67.1161L114.416 53.6643L110.046 67.1161H118.786ZM192.971 37.4813L176.72 85.8257H157.123L140.871 37.4813H156.986L166.956 70.7351L176.857 37.4813H192.971ZM211.524 49.5674V55.508H226.546V66.9113H211.524V73.7396H228.594V85.8257H196.365V37.4813H228.594V49.5674H211.524Z" fill="#F97837"/>
<path d="M101.571 99.3053V144.112H87.5848V121.772L80.6866 144.112H68.6621L61.7638 121.772V144.112H47.7141V99.3053H64.9281L74.8009 126.202L84.4205 99.3053H101.571ZM129.745 144.555C125.526 144.555 121.644 143.564 118.1 141.581C114.598 139.598 111.813 136.855 109.746 133.354C107.679 129.852 106.645 125.907 106.645 121.519C106.645 117.131 107.679 113.186 109.746 109.684C111.813 106.182 114.598 103.461 118.1 101.52C121.644 99.5373 125.526 98.5458 129.745 98.5458C133.964 98.5458 137.824 99.5373 141.326 101.52C144.828 103.461 147.592 106.182 149.617 109.684C151.684 113.186 152.718 117.131 152.718 121.519C152.718 125.907 151.684 129.852 149.617 133.354C147.592 136.855 144.807 139.598 141.263 141.581C137.761 143.564 133.922 144.555 129.745 144.555ZM129.745 131.455C132.529 131.455 134.681 130.569 136.2 128.797C137.719 126.983 138.478 124.557 138.478 121.519C138.478 118.439 137.719 116.013 136.2 114.241C134.681 112.427 132.529 111.52 129.745 111.52C126.918 111.52 124.745 112.427 123.226 114.241C121.707 116.013 120.948 118.439 120.948 121.519C120.948 124.557 121.707 126.983 123.226 128.797C124.745 130.569 126.918 131.455 129.745 131.455ZM180.316 144.112L171.899 128.037H171.836V144.112H157.786V99.3053H178.671C182.299 99.3053 185.4 99.9592 187.974 101.267C190.548 102.533 192.467 104.284 193.733 106.52C195.041 108.714 195.695 111.203 195.695 113.988C195.695 116.983 194.851 119.641 193.163 121.962C191.518 124.282 189.134 125.949 186.012 126.962L195.758 144.112H180.316ZM171.836 118.671H177.405C178.755 118.671 179.768 118.376 180.443 117.785C181.118 117.152 181.455 116.182 181.455 114.874C181.455 113.692 181.097 112.764 180.38 112.089C179.704 111.414 178.713 111.077 177.405 111.077H171.836V118.671ZM214.233 110.507V116.013H228.156V126.582H214.233V132.911H230.055V144.112H200.183V99.3053H230.055V110.507H214.233Z" fill="#F97837"/>
<path d="M543.893 330.78C538.306 321.67 514.51 288.111 490.601 275.63C484.72 272.574 468.388 268.63 461.105 266.895C451.492 263.957 448.302 264.371 445.181 265.653C433.283 270.563 425.298 272.909 413.106 272.909C412.767 272.909 412.45 272.889 412.133 272.889C411.817 272.909 411.5 272.909 411.161 272.909C398.969 272.909 390.984 270.563 379.086 265.653C375.964 264.371 372.775 263.957 363.162 266.895C355.878 268.63 339.547 272.574 333.666 275.63C309.756 288.091 285.961 321.67 280.373 330.78C279.582 332.042 278.587 333.166 279.175 334.487C281.934 340.619 291.91 348.644 313.466 359.764C314.982 360.553 316.859 360.652 318.239 359.705C323.894 355.821 337.647 341.072 337.647 341.072C337.647 341.072 347.441 375.814 343.324 405.844C339.185 435.874 332.105 459.219 332.105 459.219C331.901 460.698 332.783 462.137 334.367 462.788C341.175 465.647 374.019 472.095 412.156 472.154C450.293 472.114 483.136 465.647 489.945 462.788C491.528 462.137 492.411 460.678 492.207 459.219C492.207 459.219 485.104 435.893 480.988 405.844C476.848 375.814 486.665 341.072 486.665 341.072C486.665 341.072 500.418 355.821 506.073 359.705C507.453 360.652 509.33 360.553 510.846 359.764C532.402 348.663 542.4 340.638 545.137 334.487C545.703 333.146 544.685 332.042 543.893 330.78Z" fill="#CFB0EA"/>
<path d="M453.713 258.2C452.084 256.859 448.307 254.118 441.815 255.716C434.78 257.431 424.103 258.673 411.911 258.713C399.742 258.673 389.066 257.451 382.031 255.716C375.562 254.138 371.784 256.879 370.133 258.2C367.509 260.329 359.411 265.811 359.411 267.96C359.411 275.472 363.754 298.266 387.889 301.933C399.833 303.747 407.388 294.953 410.419 290.458C410.758 289.965 411.323 289.708 411.911 289.689C412.5 289.728 413.065 289.965 413.404 290.458C416.435 294.973 423.99 303.747 435.934 301.933C460.069 298.286 464.434 275.492 464.434 267.98C464.434 265.811 456.337 260.329 453.713 258.2Z" fill="#EEEEEE"/>
<path d="M359.652 267.979C360.67 273.914 362.66 279.672 366.008 284.66C369.197 289.688 373.699 293.888 379.195 296.293C381.932 297.516 384.918 298.265 387.949 298.738C390.844 299.192 393.491 298.916 396.002 297.969C398.513 297.043 400.842 295.505 402.856 293.553C403.873 292.587 404.801 291.522 405.66 290.418C406.09 289.866 406.497 289.294 406.882 288.702L407.199 288.209C407.583 287.618 408.149 287.085 408.827 286.671C409.998 285.962 411.436 285.671 412.846 285.858C414.256 286.045 415.529 286.696 416.405 287.677L416.744 288.091L416.835 288.209L417.513 289.156C417.943 289.767 418.395 290.358 418.825 290.93C419.707 292.074 420.635 293.139 421.63 294.105C423.62 296.037 425.928 297.476 428.438 298.324C430.949 299.192 433.777 299.369 436.695 298.975C439.68 298.521 442.757 297.772 445.471 296.589C450.99 294.243 455.401 290.043 458.274 284.897C459.789 282.353 460.966 279.593 461.87 276.734C462.753 273.875 463.408 270.937 464.155 267.959L464.607 267.999C464.064 273.973 463.16 280.066 460.513 285.685C457.957 291.305 453.411 296.372 447.235 299.31C444.204 300.828 440.857 301.795 437.418 302.386C433.98 302.958 430.338 302.879 427.013 301.834C423.666 300.828 420.748 298.936 418.373 296.707C417.174 295.584 416.111 294.381 415.115 293.139C414.618 292.508 414.143 291.877 413.668 291.246L412.967 290.299C412.897 290.176 412.799 290.067 412.678 289.978C412.557 289.89 412.417 289.825 412.265 289.787C412.119 289.755 411.967 289.751 411.819 289.775C411.67 289.799 411.53 289.85 411.406 289.925C411.293 290.004 411.18 290.102 411.089 290.201L410.772 290.694C410.32 291.344 409.868 291.995 409.37 292.626C408.375 293.868 407.289 295.091 406.09 296.195C403.715 298.423 400.865 300.335 397.563 301.459C394.283 302.603 390.596 302.82 387.18 302.169C383.765 301.578 380.417 300.572 377.386 299.034C371.256 296.017 366.709 291.049 363.791 285.567C360.883 280.049 359.304 274.07 359.154 267.999H359.652V267.979Z" fill="#B881CF"/>
<path d="M453.711 258.2C451.97 256.977 448.305 254.118 441.813 255.715C434.779 257.431 424.102 258.673 411.91 258.712C399.741 258.673 389.064 257.451 382.03 255.715C375.56 254.138 371.783 256.879 370.132 258.2C367.598 260.27 359.93 265.476 359.455 267.763C360.654 268.019 369.136 260.763 372.009 260.98C374.226 261.138 377.302 267.487 382.618 269.084C387.933 270.681 440.931 269.794 440.931 269.794C440.931 269.794 445.93 266.363 448.645 263.109C450.273 261.157 451.721 260.428 454.051 261.433C456.335 262.439 464.071 269.084 464.388 267.822C464.094 265.594 456.788 260.349 453.711 258.2Z" fill="#B7D5E5"/>
<path d="M315.8 362.189C300.668 354.243 288.069 345.252 276.94 335.827C276.678 335.609 276.512 335.318 276.471 335.005C276.43 334.692 276.516 334.376 276.714 334.112L279.609 330.188C279.73 330.018 279.893 329.874 280.087 329.766C280.28 329.659 280.498 329.59 280.726 329.565C280.954 329.541 281.185 329.561 281.403 329.624C281.62 329.688 281.819 329.793 281.984 329.932C292.615 338.824 307.092 348.604 321.41 356.176C322.247 356.629 322.405 357.635 321.727 358.266L317.746 361.973C317.271 362.426 316.434 362.525 315.8 362.189ZM508.565 362.189C523.698 354.243 536.32 345.252 547.449 335.827C547.992 335.374 548.082 334.644 547.675 334.112L544.78 330.188C544.658 330.018 544.495 329.874 544.302 329.766C544.109 329.659 543.89 329.59 543.662 329.565C543.435 329.541 543.203 329.561 542.986 329.624C542.768 329.688 542.569 329.793 542.404 329.932C531.773 338.824 517.297 348.604 502.978 356.176C502.781 356.282 502.614 356.425 502.488 356.594C502.362 356.763 502.281 356.955 502.251 357.155C502.221 357.355 502.242 357.559 502.313 357.751C502.384 357.943 502.503 358.119 502.662 358.266L506.643 361.973C507.095 362.426 507.932 362.525 508.565 362.189Z" fill="#B881CF"/>
<path d="M442.215 259.205C438.37 260.013 425.839 263.03 412.629 263.03H411.679C398.469 263.03 385.915 260.033 382.092 259.205C378.247 258.396 376.754 259.224 377.501 261.906C380.735 269.123 390.394 279.652 412.177 279.671C433.959 279.652 443.618 269.123 446.853 261.906C447.554 259.205 446.061 258.396 442.215 259.205Z" fill="url(#paint0_linear_2996_1152)"/>
<path d="M311.055 326.474C312.44 315.413 314.785 295.92 313.234 285.191C311.683 274.461 307.621 264.568 299.146 260.654C291.816 257.285 282.676 260.849 277.395 269.183C274.385 273.935 272.668 279.796 271.209 285.599C268.717 295.57 266.335 309.201 265.135 319.464" stroke="#D57700" stroke-width="1.59506" stroke-miterlimit="10"/>
<path d="M304.133 476.791L348.761 457.181L338.402 409.004L340.618 299.212L227.691 285.23V295.629L200.825 299.212L304.133 476.791Z" fill="#F97837"/>
<path d="M191.24 458.874L304.149 476.906L313.75 413.851V317.223L200.823 299.21V395.818L191.24 458.874Z" fill="#FF945E"/>
<path d="M313.752 317.226V306.36L340.617 299.213L227.468 285.971L223.849 294.422L200.824 299.213L313.752 317.226Z" fill="#B15C5F"/>
<path d="M348.761 457.181C347.985 457.181 322.024 435.468 322.024 435.468L304.151 476.908L307.992 410.834L313.808 317.225L321.36 418.39L348.761 457.181Z" fill="#EE7132"/>
<path d="M279.685 324.527C281.069 313.486 295.49 271.072 267.886 265.659C247.021 261.569 237.808 308.442 236.589 318.724" stroke="#FF945D" stroke-width="1.59506" stroke-miterlimit="10"/>
<path d="M276.251 327.603C277.857 321.897 279.537 310.369 279.611 309.863L274.146 308.986C274.127 309.103 272.17 320.865 270.028 326.376L276.251 327.603ZM233.192 320.69C234.799 314.984 236.479 303.456 236.553 302.95L231.087 302.073C231.069 302.19 228.798 314.147 226.896 319.483L233.192 320.69ZM274.349 472.155L258.839 443.821L266.243 368.283L204.259 355.567L237.494 466.352L274.349 472.155Z" fill="#DC5F5F" fill-opacity="0.5"/>
<path d="M225.919 360.749C225.919 360.749 232.898 321.666 209.652 324.256C197.004 325.658 197.521 356.679 197.521 356.679" stroke="#D7578A" stroke-width="1.59506" stroke-miterlimit="10"/>
<path d="M223.355 491.104L257.644 475.973L249.667 438.934L251.366 354.536L164.584 343.787V351.79L143.941 354.536L223.355 491.104Z" fill="#FF7878"/>
<path d="M136.568 477.258L223.351 491.123L230.718 442.653V368.401L143.936 354.536V428.808L136.568 477.258Z" fill="#FF9F9F"/>
<path d="M230.715 368.401L237.658 362.793L251.358 354.536L164.576 343.787L156.692 349.025L143.933 354.536L230.715 368.401Z" fill="#B15C5F"/>
<path d="M164.909 345.792L150.045 353.523L230.328 366.337L246.004 355.821L164.909 345.792ZM164.576 343.787L251.358 354.536L230.715 368.401L143.933 354.536L164.576 343.787Z" fill="#B15C5F"/>
<path d="M201.379 375.857C202.616 371.495 203.89 362.635 203.945 362.265L199.071 361.603C199.052 361.7 197.815 370.619 196.67 374.728L201.379 375.857ZM168.346 370.502C169.583 366.14 170.857 357.28 170.913 356.91L166.094 356.267C166.075 356.364 165.078 365.556 163.933 369.665L168.346 370.502Z" fill="#D7578A"/>
<path d="M204.112 376.055C205.183 367.565 216.151 331.772 195.471 328.754C179.315 326.398 172.354 361.645 171.412 369.532" stroke="#FF9F9F" stroke-width="1.59506" stroke-miterlimit="10"/>
<path d="M257.644 475.973L240.121 460.316L223.355 491.123L230.686 442.946L230.612 368.635L232.68 367.739L239.216 443.277L257.644 475.973Z" fill="#E07070"/>
<path d="M320.138 341.152C324.675 338.238 329.065 336.603 330.205 336.397L335.987 342.202L329.221 422.037C329.221 421.01 328.236 418.831 324.305 418.333C319.39 417.717 304.466 415.19 294.346 399.766C287.565 389.926 285.129 378.341 284.796 369.867C284.685 366.747 286.321 363.92 288.794 362.246C299.639 354.909 316.133 343.726 320.138 341.152Z" fill="url(#paint1_radial_2996_1152)"/>
<path d="M320.138 341.152C324.675 338.238 329.065 336.603 330.205 336.397L335.987 342.202L329.221 422.037C329.221 421.01 328.236 418.831 324.305 418.333C319.39 417.717 304.466 415.19 294.346 399.766C287.565 389.926 285.129 378.341 284.796 369.867C284.685 366.747 286.321 363.92 288.794 362.246C299.639 354.909 316.133 343.726 320.138 341.152Z" fill="url(#paint2_linear_2996_1152)"/>
<path d="M320.138 341.152C324.675 338.238 329.065 336.603 330.205 336.397L335.987 342.202L329.221 422.037C329.221 421.01 328.236 418.831 324.305 418.333C319.39 417.717 304.466 415.19 294.346 399.766C287.565 389.926 285.129 378.341 284.796 369.867C284.685 366.747 286.321 363.92 288.794 362.246C299.639 354.909 316.133 343.726 320.138 341.152Z" fill="url(#paint3_linear_2996_1152)"/>
<g filter="url(#filter0_i_2996_1152)">
<path d="M455.126 341.057C450.588 338.143 446.198 336.516 445.058 336.303L439.276 342.108L446.043 421.951C446.043 420.916 447.027 418.736 450.958 418.239C455.874 417.623 470.798 415.096 480.917 399.672C487.698 389.832 490.134 378.246 490.467 369.78C490.586 366.653 488.942 363.826 486.47 362.151C475.624 354.823 459.131 343.632 455.126 341.057Z" fill="url(#paint4_linear_2996_1152)"/>
</g>
<path d="M455.118 341.056C450.58 338.142 446.19 336.515 445.05 336.302L439.269 342.107L446.035 421.95C446.035 420.915 447.019 418.735 450.95 418.238C455.866 417.622 470.79 415.095 480.91 399.671C487.691 389.831 490.126 378.245 490.459 369.779C490.578 366.652 488.934 363.825 486.462 362.15C475.617 354.822 459.123 343.631 455.118 341.056Z" fill="url(#paint5_radial_2996_1152)"/>
<g filter="url(#filter1_i_2996_1152)">
<path d="M329.165 336.822L329.476 485.033C329.491 489.116 331.926 492.772 335.62 493.87C369.185 502.976 406.895 502.36 440.223 493.831C443.924 492.765 446.367 489.116 446.367 485.033L446.685 336.822C445.183 335.898 436.877 334.666 432.05 335.898C420.598 339.255 400.536 343.053 387.929 343.053C375.322 343.053 355.253 339.255 343.808 335.898C338.974 334.666 330.668 335.898 329.165 336.822Z" fill="url(#paint6_linear_2996_1152)"/>
</g>
<path d="M329.162 336.822L329.473 485.033C329.488 489.115 331.923 492.772 335.617 493.87C369.182 502.975 406.892 502.359 440.22 493.83C443.921 492.764 446.364 489.115 446.364 485.033L446.682 336.822C445.18 335.898 436.874 334.666 432.047 335.898C420.595 339.254 400.533 343.053 387.926 343.053C375.319 343.053 355.25 339.254 343.805 335.898C338.971 334.666 330.665 335.898 329.162 336.822Z" fill="url(#paint7_radial_2996_1152)"/>
<path d="M329.162 336.822L329.473 485.033C329.488 489.115 331.923 492.772 335.617 493.87C369.182 502.975 406.892 502.359 440.22 493.83C443.921 492.764 446.364 489.115 446.364 485.033L446.682 336.822C445.18 335.898 436.874 334.666 432.047 335.898C420.595 339.254 400.533 343.053 387.926 343.053C375.319 343.053 355.25 339.254 343.805 335.898C338.971 334.666 330.665 335.898 329.162 336.822Z" fill="url(#paint8_radial_2996_1152)"/>
<path d="M343.408 335.804L387.811 386.063L429.881 336.514C418.207 339.697 399.774 343.054 387.929 343.054C375.322 343.054 355.253 339.255 343.808 335.898L343.408 335.804Z" fill="url(#paint9_radial_2996_1152)"/>
<path d="M343.408 335.804L387.811 386.063L429.881 336.514C418.207 339.697 399.774 343.054 387.929 343.054C375.322 343.054 355.253 339.255 343.808 335.898L343.408 335.804Z" fill="url(#paint10_radial_2996_1152)"/>
<g filter="url(#filter2_ii_2996_1152)">
<path d="M376.197 378.529C379.972 383.093 383.422 387.271 386.279 390.667C386.485 390.913 386.738 391.11 387.021 391.245C387.303 391.38 387.609 391.45 387.919 391.45C388.229 391.45 388.535 391.38 388.817 391.245C389.1 391.11 389.352 390.913 389.559 390.667C392.424 387.271 395.873 383.085 399.641 378.529C412.019 363.531 427.846 344.783 437.544 335.377C434.612 335.377 431.822 334.485 429.956 334.042C429.368 333.889 428.755 333.882 428.164 334.023C427.573 334.164 427.021 334.449 426.551 334.856C418.674 342.042 409.272 353.494 401.129 363.421C396.243 369.383 391.802 374.793 388.433 378.371C388.295 378.513 388.111 378.592 387.919 378.592C387.727 378.592 387.542 378.513 387.404 378.371C384.036 374.785 379.602 369.383 374.709 363.421C366.565 353.502 357.164 342.035 349.28 334.856C348.81 334.45 348.259 334.166 347.67 334.025C347.081 333.884 346.469 333.89 345.882 334.042C344.016 334.485 341.225 335.385 338.294 335.385C347.999 344.783 363.819 363.531 376.197 378.529Z" fill="url(#paint11_linear_2996_1152)"/>
</g>
<g filter="url(#filter3_f_2996_1152)">
<path d="M442.059 340.406C443.139 340.366 446.226 340.903 449.928 343.367C453.629 345.839 474.372 360.031 484.277 366.815" stroke="#FF8EE2" stroke-width="0.258346" stroke-linecap="round"/>
</g>
<g filter="url(#filter4_f_2996_1152)">
<path d="M359.7 342.754C368.413 345.511 391.903 349.365 416.147 342.754" stroke="url(#paint12_radial_2996_1152)" stroke-width="0.129173" stroke-linecap="round"/>
</g>
<path d="M51.4343 175.12C50.5515 175.12 49.7605 174.977 49.0611 174.69C48.3618 174.404 47.8 173.98 47.3758 173.418C46.963 172.856 46.7452 172.18 46.7223 171.389H49.8522C49.898 171.836 50.0528 172.18 50.3165 172.42C50.5802 172.65 50.9241 172.764 51.3483 172.764C51.784 172.764 52.1279 172.667 52.3802 172.472C52.6324 172.266 52.7585 171.985 52.7585 171.629C52.7585 171.331 52.6553 171.085 52.449 170.89C52.2541 170.695 52.0076 170.534 51.7095 170.408C51.4229 170.282 51.0101 170.139 50.4713 169.978C49.6917 169.738 49.0554 169.497 48.5624 169.256C48.0694 169.015 47.6452 168.66 47.2898 168.19C46.9344 167.72 46.7567 167.106 46.7567 166.35C46.7567 165.226 47.1637 164.349 47.9777 163.719C48.7917 163.077 49.8522 162.756 51.1592 162.756C52.4891 162.756 53.561 163.077 54.375 163.719C55.189 164.349 55.6247 165.232 55.682 166.367H52.5005C52.4776 165.977 52.3343 165.673 52.0706 165.456C51.8069 165.226 51.4687 165.112 51.056 165.112C50.7006 165.112 50.414 165.209 50.1961 165.404C49.9783 165.587 49.8694 165.857 49.8694 166.212C49.8694 166.602 50.0528 166.906 50.4197 167.124C50.7866 167.342 51.3598 167.577 52.1394 167.829C52.919 168.092 53.5496 168.345 54.0311 168.585C54.5241 168.826 54.9483 169.176 55.3037 169.634C55.6591 170.093 55.8368 170.683 55.8368 171.406C55.8368 172.094 55.6591 172.719 55.3037 173.28C54.9598 173.842 54.4553 174.289 53.7903 174.622C53.1254 174.954 52.34 175.12 51.4343 175.12ZM68.1025 162.928V175H65.1617V170.03H60.5873V175H57.6465V162.928H60.5873V167.657H65.1617V162.928H68.1025ZM75.9348 175.12C74.7998 175.12 73.7565 174.857 72.805 174.329C71.8648 173.802 71.1139 173.068 70.5521 172.128C70.0018 171.176 69.7267 170.11 69.7267 168.929C69.7267 167.749 70.0018 166.688 70.5521 165.748C71.1139 164.808 71.8648 164.074 72.805 163.547C73.7565 163.019 74.7998 162.756 75.9348 162.756C77.0699 162.756 78.1074 163.019 79.0475 163.547C79.9991 164.074 80.7443 164.808 81.2832 165.748C81.8335 166.688 82.1086 167.749 82.1086 168.929C82.1086 170.11 81.8335 171.176 81.2832 172.128C80.7329 173.068 79.9877 173.802 79.0475 174.329C78.1074 174.857 77.0699 175.12 75.9348 175.12ZM75.9348 172.438C76.8979 172.438 77.666 172.117 78.2393 171.475C78.824 170.833 79.1163 169.984 79.1163 168.929C79.1163 167.863 78.824 167.015 78.2393 166.384C77.666 165.742 76.8979 165.421 75.9348 165.421C74.9603 165.421 74.1807 165.736 73.596 166.367C73.0228 166.998 72.7362 167.852 72.7362 168.929C72.7362 169.996 73.0228 170.85 73.596 171.492C74.1807 172.122 74.9603 172.438 75.9348 172.438ZM92.9452 166.814C92.9452 167.513 92.7847 168.156 92.4637 168.74C92.1426 169.313 91.6497 169.778 90.9847 170.133C90.3197 170.489 89.4943 170.666 88.5083 170.666H86.6854V175H83.7447V162.928H88.5083C89.4713 162.928 90.2853 163.094 90.9503 163.426C91.6153 163.759 92.114 164.217 92.4465 164.802C92.7789 165.387 92.9452 166.057 92.9452 166.814ZM88.2847 168.327C88.8465 168.327 89.265 168.196 89.5401 167.932C89.8153 167.668 89.9529 167.296 89.9529 166.814C89.9529 166.333 89.8153 165.96 89.5401 165.696C89.265 165.433 88.8465 165.301 88.2847 165.301H86.6854V168.327H88.2847ZM102.489 175.12C101.606 175.12 100.815 174.977 100.115 174.69C99.416 174.404 98.8542 173.98 98.43 173.418C98.0173 172.856 97.7995 172.18 97.7765 171.389H100.906C100.952 171.836 101.107 172.18 101.371 172.42C101.634 172.65 101.978 172.764 102.403 172.764C102.838 172.764 103.182 172.667 103.434 172.472C103.687 172.266 103.813 171.985 103.813 171.629C103.813 171.331 103.71 171.085 103.503 170.89C103.308 170.695 103.062 170.534 102.764 170.408C102.477 170.282 102.064 170.139 101.526 169.978C100.746 169.738 100.11 169.497 99.6166 169.256C99.1236 169.015 98.6994 168.66 98.344 168.19C97.9886 167.72 97.8109 167.106 97.8109 166.35C97.8109 165.226 98.2179 164.349 99.0319 163.719C99.8459 163.077 100.906 162.756 102.213 162.756C103.543 162.756 104.615 163.077 105.429 163.719C106.243 164.349 106.679 165.232 106.736 166.367H103.555C103.532 165.977 103.389 165.673 103.125 165.456C102.861 165.226 102.523 165.112 102.11 165.112C101.755 165.112 101.468 165.209 101.25 165.404C101.033 165.587 100.924 165.857 100.924 166.212C100.924 166.602 101.107 166.906 101.474 167.124C101.841 167.342 102.414 167.577 103.194 167.829C103.973 168.092 104.604 168.345 105.085 168.585C105.578 168.826 106.003 169.176 106.358 169.634C106.713 170.093 106.891 170.683 106.891 171.406C106.891 172.094 106.713 172.719 106.358 173.28C106.014 173.842 105.51 174.289 104.845 174.622C104.18 174.954 103.394 175.12 102.489 175.12ZM122.373 162.928V175H119.432V167.76L116.732 175H114.359L111.642 167.743V175H108.701V162.928H112.175L115.562 171.285L118.916 162.928H122.373ZM132.002 172.868H127.497L126.775 175H123.696L128.064 162.928H131.469L135.837 175H132.725L132.002 172.868ZM131.246 170.598L129.75 166.178L128.271 170.598H131.246ZM143.323 175L140.813 170.443H140.108V175H137.167V162.928H142.102C143.054 162.928 143.862 163.094 144.527 163.426C145.204 163.759 145.708 164.217 146.041 164.802C146.373 165.375 146.539 166.017 146.539 166.728C146.539 167.531 146.31 168.247 145.851 168.878C145.404 169.508 144.739 169.955 143.857 170.219L146.643 175H143.323ZM140.108 168.362H141.931C142.469 168.362 142.871 168.23 143.134 167.966C143.409 167.703 143.547 167.33 143.547 166.849C143.547 166.39 143.409 166.029 143.134 165.765C142.871 165.501 142.469 165.37 141.931 165.37H140.108V168.362ZM157.07 162.928V165.284H153.871V175H150.931V165.284H147.732V162.928H157.07Z" fill="#F97837"/>
<path d="M91.7388 344.233C90.2401 345.339 88.7441 345.905 87.2508 345.932C85.7605 345.938 84.4733 345.293 83.3892 343.997L87.5666 340.914C88.1569 341.59 88.7412 341.715 89.3194 341.288C89.5318 341.132 89.674 340.954 89.7459 340.755C89.821 340.535 89.7801 340.319 89.6233 340.107C89.4056 339.812 89.0721 339.694 88.6228 339.752C88.1649 339.798 87.5125 339.951 86.6656 340.212C85.6542 340.521 84.7827 340.736 84.0514 340.856C83.3318 340.968 82.5916 340.904 81.8308 340.663C81.07 340.422 80.395 339.891 79.8058 339.068C79.2049 338.253 78.9019 337.411 78.8969 336.539C78.895 335.648 79.1451 334.789 79.6472 333.962C80.1611 333.127 80.8724 332.375 81.7811 331.704C83.3152 330.572 84.7919 330.029 86.2114 330.075C87.6426 330.112 88.8565 330.757 89.853 332.008L85.6224 335.13C85.3493 334.785 85.0735 334.597 84.7951 334.565C84.5167 334.534 84.2594 334.605 84.0234 334.779C83.8582 334.901 83.7661 335.06 83.7469 335.257C83.7191 335.441 83.7792 335.634 83.9273 335.835C84.1363 336.118 84.4639 336.241 84.9101 336.203C85.3593 336.145 86.022 335.993 86.8981 335.747C87.9064 335.459 88.7645 335.263 89.4723 335.16C90.1918 335.048 90.9189 335.095 91.6536 335.3C92.3884 335.505 93.0257 335.974 93.5657 336.705C94.1318 337.472 94.4525 338.302 94.5277 339.194C94.5943 340.075 94.3939 340.952 93.9266 341.825C93.4593 342.699 92.7301 343.501 91.7388 344.233ZM100.152 318.474L109.402 331.006L105.472 333.906L101.866 329.021L98.1314 331.777L101.737 336.663L97.8074 339.563L88.5581 327.03L92.4878 324.13L95.8191 328.644L99.554 325.888L96.2227 321.374L100.152 318.474ZM117.368 325.318C116.188 326.189 114.898 326.713 113.497 326.89C112.108 327.058 110.763 326.866 109.462 326.313C108.161 325.76 107.058 324.87 106.152 323.643C105.246 322.416 104.721 321.099 104.576 319.693C104.432 318.287 104.649 316.951 105.228 315.685C105.81 314.399 106.691 313.32 107.871 312.449C109.051 311.578 110.335 311.059 111.724 310.89C113.104 310.71 114.439 310.901 115.728 311.463C117.029 312.015 118.133 312.905 119.038 314.133C119.944 315.36 120.469 316.677 120.614 318.083C120.77 319.48 120.558 320.822 119.976 322.108C119.406 323.386 118.536 324.456 117.368 325.318ZM114.664 321.654C115.443 321.079 115.862 320.387 115.921 319.578C115.971 318.757 115.683 317.922 115.056 317.072C114.42 316.21 113.707 315.689 112.916 315.507C112.117 315.313 111.328 315.503 110.549 316.078C109.758 316.661 109.338 317.364 109.287 318.185C109.228 318.994 109.517 319.829 110.152 320.691C110.779 321.54 111.493 322.062 112.292 322.256C113.083 322.438 113.873 322.237 114.664 321.654ZM129.294 303.611C129.878 304.401 130.226 305.256 130.339 306.175C130.444 307.082 130.275 307.99 129.834 308.899C129.405 309.799 128.683 310.624 127.668 311.373L126.11 312.523L129.049 316.505L125.12 319.406L115.871 306.873L121.358 302.823C122.892 301.691 124.354 301.214 125.743 301.392C127.144 301.561 128.327 302.301 129.294 303.611ZM124.939 308.602C125.753 308.001 125.877 307.317 125.311 306.55C124.745 305.783 124.055 305.7 123.241 306.301L122.126 307.124L123.824 309.425L124.939 308.602ZM140.79 295.127C141.373 295.917 141.721 296.772 141.835 297.691C141.939 298.598 141.771 299.506 141.33 300.415C140.9 301.316 140.178 302.14 139.163 302.889L137.606 304.039L140.545 308.022L136.615 310.922L127.366 298.389L132.853 294.339C134.387 293.207 135.849 292.73 137.238 292.908C138.639 293.077 139.823 293.817 140.79 295.127ZM136.435 300.118C137.249 299.517 137.373 298.833 136.807 298.066C136.241 297.299 135.55 297.216 134.736 297.817L133.621 298.64L135.319 300.941L136.435 300.118ZM142.791 287.005L152.04 299.538L148.111 302.438L138.861 289.905L142.791 287.005ZM165.834 289.357L161.905 292.258L153.094 289.026L157.745 295.328L153.815 298.228L144.566 285.695L148.496 282.795L157.385 286.133L152.655 279.725L156.585 276.825L165.834 289.357ZM169.204 274.129C168.868 273.994 168.51 273.966 168.131 274.046C167.744 274.113 167.349 274.295 166.948 274.591C166.193 275.148 165.791 275.827 165.744 276.628C165.688 277.416 165.974 278.235 166.601 279.085C167.324 280.065 168.094 280.626 168.911 280.771C169.728 280.915 170.615 280.634 171.571 279.929C172.479 279.258 172.941 278.352 172.956 277.211L169.823 279.524L167.772 276.744L174.162 272.028L177.062 275.958C177.207 277.291 177.05 278.646 176.591 280.024C176.122 281.391 175.157 282.614 173.693 283.694C172.395 284.652 171.066 285.222 169.707 285.406C168.35 285.568 167.055 285.357 165.822 284.773C164.6 284.18 163.532 283.264 162.618 282.024C161.703 280.785 161.143 279.495 160.936 278.153C160.741 276.802 160.926 275.508 161.49 274.272C162.045 273.023 162.966 271.924 164.252 270.975C165.892 269.765 167.518 269.176 169.128 269.209C170.75 269.233 172.156 269.854 173.346 271.072L169.204 274.129Z" fill="white"/>
<path d="M61.4204 227.157C66.5341 223.117 72.944 221.078 79.4519 221.421L81.2175 221.574L89.4321 222.537C91.6801 222.793 93.9487 222.284 95.8712 221.091L96.8003 220.442L103.375 215.248C108.747 211.002 115.54 208.973 122.361 209.577C129.181 210.18 135.513 213.37 140.056 218.492L141.035 219.663L146.229 226.237C147.632 228.012 149.603 229.263 151.785 229.782L152.896 229.972L161.104 230.94C167.886 231.715 174.117 235.049 178.526 240.26C182.935 245.471 185.19 252.168 184.832 258.985L184.679 260.75L183.716 268.965C183.46 271.213 183.969 273.481 185.162 275.404L185.81 276.333L191.005 282.907C195.25 288.279 197.279 295.072 196.676 301.893C196.072 308.714 192.882 315.045 187.76 319.589L186.589 320.567L180.015 325.762C178.243 327.163 176.994 329.12 176.47 331.317L176.28 332.428L175.312 340.636C174.536 347.418 171.203 353.649 165.992 358.058C160.78 362.468 154.084 364.723 147.267 364.365L145.501 364.212L137.286 363.249C135.039 362.993 132.77 363.502 130.847 364.695L129.918 365.344L123.344 370.538C117.972 374.783 111.178 376.813 104.358 376.209C97.5372 375.606 91.2059 372.416 86.6622 367.293L85.6839 366.123L80.4895 359.549C79.0884 357.777 77.1314 356.528 74.9339 356.004L73.8228 355.814L65.6148 354.846C58.8327 354.07 52.6019 350.737 48.1928 345.526C43.7837 340.315 41.5283 333.618 41.8864 326.801L42.0398 325.036L43.0029 316.821C43.2591 314.573 42.7496 312.305 41.5568 310.382L40.9081 309.453L35.7137 302.879L34.8012 301.656C31.0194 296.266 29.3532 289.674 30.1199 283.134C30.8867 276.595 34.0329 270.566 38.9589 266.197L40.1295 265.219L46.7038 260.024C48.4759 258.623 49.7245 256.666 50.2484 254.469L50.4383 253.357L51.4067 245.149C51.8078 241.639 52.899 238.241 54.6175 235.154C56.336 232.066 58.6479 229.348 61.4204 227.157ZM123.551 255.827C121.345 255.568 119.126 256.197 117.383 257.574C115.639 258.952 114.514 260.965 114.255 263.172L109.706 301.92L94.4942 300.142L93.4451 300.085C91.3164 300.107 89.276 300.939 87.7384 302.411C86.2007 303.883 85.2811 305.885 85.1663 308.011C85.0514 310.137 85.75 312.227 87.1201 313.856C88.4902 315.485 90.4291 316.532 92.543 316.783L116.08 319.543L117.13 319.6C119.17 319.582 121.133 318.82 122.652 317.457C124.17 316.094 125.139 314.224 125.377 312.198L130.896 265.123L130.954 264.074C130.936 262.033 130.174 260.07 128.811 258.552C127.448 257.033 125.578 256.064 123.551 255.827Z" fill="#FB8C00"/>
<ellipse cx="112.323" cy="294.136" rx="49.9869" ry="48.2632" transform="rotate(-38.3128 112.323 294.136)" fill="#FB8C00"/>
<path d="M162.188 249.154C163.096 250.107 163.98 251.094 164.838 252.114L164.325 252.546C164.746 253.047 165.161 253.556 165.57 254.074C165.979 254.591 166.379 255.113 166.769 255.639L167.307 255.24C168.101 256.311 168.857 257.399 169.575 258.502L169.013 258.868C169.731 259.972 170.411 261.093 171.053 262.227L171.636 261.897C172.292 263.057 172.908 264.231 173.485 265.418L172.882 265.711C173.458 266.895 173.994 268.092 174.49 269.3L175.11 269.045C175.616 270.275 176.081 271.516 176.506 272.766L175.872 272.982C176.295 274.226 176.678 275.48 177.021 276.742L177.668 276.566C178.016 277.847 178.324 279.136 178.592 280.432L177.936 280.567C178.201 281.854 178.427 283.146 178.613 284.442L179.276 284.347C179.464 285.66 179.612 286.977 179.719 288.297L179.051 288.351C179.157 289.659 179.223 290.969 179.25 292.28L179.92 292.266C179.947 293.591 179.934 294.916 179.88 296.24L179.211 296.213C179.158 297.523 179.065 298.832 178.934 300.138L179.601 300.205C179.468 301.522 179.295 302.837 179.083 304.145L178.422 304.038C178.212 305.332 177.964 306.621 177.677 307.902L178.331 308.049C178.041 309.34 177.713 310.624 177.347 311.899L176.702 311.713C176.34 312.972 175.94 314.221 175.502 315.46L176.134 315.683C175.694 316.93 175.215 318.166 174.698 319.39L174.081 319.129C173.572 320.335 173.026 321.528 172.443 322.707L173.044 323.005C172.458 324.189 171.836 325.359 171.177 326.512L170.595 326.18C169.947 327.315 169.263 328.435 168.544 329.537L169.105 329.903C168.384 331.009 167.627 332.097 166.835 333.165L166.296 332.766C165.518 333.816 164.706 334.847 163.86 335.857L164.374 336.287C163.527 337.298 162.646 338.289 161.732 339.258L161.245 338.798C160.35 339.747 159.422 340.674 158.463 341.578L158.922 342.066C157.964 342.969 156.974 343.849 155.953 344.706L155.522 344.192C155.02 344.613 154.51 345.028 153.992 345.437C153.474 345.846 152.952 346.247 152.427 346.638L152.827 347.176C151.757 347.971 150.672 348.731 149.572 349.454L149.204 348.894C148.102 349.618 146.985 350.306 145.855 350.957L146.19 351.538C145.036 352.203 143.869 352.831 142.689 353.421L142.389 352.821C141.21 353.411 140.02 353.963 138.818 354.477L139.082 355.093C137.859 355.616 136.626 356.101 135.383 356.548L135.157 355.917C133.918 356.362 132.671 356.768 131.417 357.136L131.605 357.779C130.331 358.153 129.048 358.488 127.761 358.783L127.611 358.13C126.329 358.424 125.042 358.679 123.751 358.896L123.861 359.557C122.552 359.776 121.239 359.956 119.923 360.097L119.852 359.43C118.546 359.57 117.238 359.67 115.93 359.731L115.961 360.4C114.636 360.462 113.311 360.485 111.987 360.467L111.996 359.797C110.683 359.78 109.372 359.724 108.065 359.628L108.016 360.297C106.694 360.2 105.375 360.064 104.063 359.888L104.152 359.224C102.851 359.05 101.557 358.837 100.27 358.586L100.141 359.243C98.8407 358.989 97.5481 358.696 96.2653 358.363L96.4335 357.714C95.1646 357.385 93.9054 357.018 92.6576 356.612L92.4503 357.249C91.1914 356.84 89.9441 356.391 88.7103 355.905L88.9562 355.281C87.7379 354.801 86.5329 354.282 85.3431 353.726L85.0593 354.333C83.861 353.773 82.678 353.176 81.5122 352.54L81.833 351.952C80.6848 351.326 79.5534 350.663 78.4408 349.964L78.0841 350.531C76.9658 349.828 75.8662 349.089 74.787 348.312L75.1784 347.768C74.1177 347.006 73.0771 346.207 72.0583 345.373L71.6338 345.892C70.6124 345.056 69.6128 344.185 68.6365 343.279L69.0925 342.788C68.1371 341.901 67.2043 340.981 66.2959 340.026L65.8104 340.488C64.9027 339.535 64.019 338.548 63.1612 337.528L63.6741 337.096C63.2526 336.595 62.8372 336.085 62.4284 335.568C62.0195 335.051 61.62 334.529 61.2299 334.003L60.6915 334.402C59.8975 333.331 59.1417 332.243 58.4239 331.14L58.9858 330.774C58.2674 329.67 57.5875 328.549 56.9458 327.415L56.3623 327.745C55.7067 326.585 55.0905 325.411 54.5136 324.224L55.1164 323.931C54.541 322.747 54.005 321.55 53.5082 320.342L52.8883 320.597C52.3829 319.367 51.9177 318.126 51.4925 316.876L52.1271 316.66C51.7041 315.416 51.321 314.162 50.9777 312.9L50.3309 313.076C49.9823 311.795 49.6743 310.505 49.4066 309.21L50.0631 309.074C49.7973 307.788 49.5717 306.496 49.386 305.2L48.7225 305.295C48.5344 303.982 48.3869 302.665 48.2797 301.345L48.9478 301.291C48.8415 299.983 48.7752 298.673 48.7487 297.362L48.0785 297.376C48.0517 296.051 48.0651 294.726 48.1184 293.402L48.7882 293.429C48.8409 292.119 48.9333 290.81 49.0649 289.504L48.398 289.437C48.5309 288.12 48.7035 286.805 48.9154 285.496L49.5771 285.604C49.7866 284.31 50.035 283.021 50.322 281.74L49.668 281.593C49.9572 280.302 50.2854 279.018 50.6522 277.743L51.2963 277.929C51.6584 276.67 52.0585 275.421 52.4963 274.182L51.8644 273.959C52.3052 272.712 52.7839 271.475 53.3003 270.252L53.9178 270.513C54.4269 269.307 54.973 268.114 55.5559 266.934L54.955 266.637C55.5404 265.453 56.1626 264.283 56.8212 263.13L57.4033 263.462C58.0514 262.327 58.7352 261.207 59.4545 260.105L58.8932 259.739C59.6148 258.633 60.3718 257.545 61.1639 256.477L61.7023 256.876C62.4804 255.826 63.2926 254.795 64.1389 253.785L63.625 253.355C64.4719 252.343 65.3524 251.353 66.2665 250.384L66.754 250.844C67.6489 249.895 68.5763 248.968 69.536 248.064L69.0763 247.576C70.0344 246.673 71.0243 245.793 72.0459 244.936L72.4764 245.45C72.9788 245.029 73.4888 244.614 74.0066 244.205C74.5244 243.796 75.0462 243.395 75.572 243.004L75.1719 242.466C76.2412 241.671 77.3267 240.911 78.4268 240.188L78.7951 240.748C79.8969 240.024 81.0136 239.336 82.1433 238.685L81.8086 238.104C82.9626 237.439 84.1302 236.811 85.3097 236.221L85.6096 236.821C86.7883 236.231 87.9792 235.679 89.1803 235.165L88.9166 234.549C90.1395 234.026 91.373 233.541 92.6154 233.094L92.842 233.725C94.0804 233.28 95.3276 232.874 96.5821 232.506L96.3934 231.863C97.6682 231.489 98.9503 231.154 100.238 230.859L100.388 231.512C101.67 231.218 102.957 230.962 104.248 230.746L104.137 230.085C105.447 229.866 106.76 229.686 108.075 229.545L108.146 230.212C109.453 230.072 110.761 229.972 112.069 229.911L112.038 229.242C113.363 229.18 114.688 229.157 116.011 229.175L116.002 229.845C117.315 229.862 118.626 229.918 119.934 230.014L119.982 229.345C121.305 229.442 122.623 229.578 123.936 229.753L123.847 230.418C125.148 230.592 126.442 230.805 127.729 231.056L127.858 230.398C129.158 230.653 130.451 230.946 131.733 231.279L131.565 231.928C132.834 232.257 134.093 232.624 135.341 233.03L135.548 232.393C136.807 232.802 138.055 233.251 139.288 233.737L139.042 234.361C140.261 234.841 141.466 235.36 142.656 235.916L142.939 235.308C144.138 235.869 145.321 236.466 146.487 237.102L146.166 237.69C147.314 238.316 148.445 238.979 149.558 239.678L149.915 239.111C151.033 239.814 152.133 240.553 153.212 241.329L152.82 241.874C153.881 242.636 154.922 243.435 155.94 244.269L156.365 243.75C157.386 244.586 158.386 245.457 159.362 246.363L158.906 246.854C159.862 247.741 160.794 248.661 161.703 249.616L162.188 249.154Z" stroke="white" stroke-width="1.34056" stroke-dasharray="4.02 4.02"/>
<path d="M157.091 253.468C158.06 254.453 159 255.48 159.908 256.548L159.397 256.982C159.842 257.505 160.279 258.038 160.708 258.581C161.137 259.124 161.554 259.673 161.96 260.226L162.501 259.83C163.33 260.96 164.111 262.112 164.846 263.283L164.278 263.639C165.014 264.812 165.703 266.004 166.343 267.213L166.936 266.9C167.591 268.135 168.196 269.388 168.754 270.656L168.14 270.926C168.696 272.191 169.203 273.471 169.661 274.763L170.293 274.539C170.76 275.855 171.176 277.184 171.543 278.522L170.897 278.699C171.262 280.03 171.577 281.37 171.842 282.717L172.5 282.587C172.77 283.955 172.99 285.33 173.159 286.71L172.494 286.792C172.662 288.159 172.781 289.531 172.85 290.904L173.52 290.87C173.59 292.261 173.61 293.654 173.581 295.045L172.91 295.031C172.881 296.407 172.803 297.782 172.676 299.152L173.344 299.214C173.215 300.6 173.038 301.981 172.811 303.356L172.15 303.247C171.927 304.603 171.655 305.953 171.335 307.293L171.987 307.449C171.665 308.801 171.294 310.144 170.876 311.474L170.237 311.273C169.824 312.583 169.365 313.881 168.86 315.165L169.483 315.41C168.974 316.702 168.418 317.979 167.816 319.239L167.211 318.949C166.619 320.187 165.982 321.408 165.3 322.608L165.882 322.94C165.197 324.145 164.467 325.331 163.692 326.494L163.134 326.123C162.375 327.263 161.572 328.382 160.725 329.477L161.256 329.887C160.409 330.982 159.52 332.052 158.588 333.096L158.088 332.65C157.177 333.671 156.224 334.667 155.231 335.634L155.699 336.114C154.709 337.078 153.68 338.015 152.61 338.921L152.177 338.409C151.653 338.854 151.119 339.29 150.576 339.72C150.033 340.149 149.484 340.567 148.931 340.974L149.328 341.514C148.199 342.345 147.05 343.13 145.883 343.87L145.524 343.304C144.354 344.046 143.165 344.742 141.961 345.393L142.279 345.982C141.048 346.647 139.8 347.265 138.539 347.835L138.263 347.224C137.003 347.794 135.728 348.317 134.443 348.792L134.675 349.421C133.364 349.906 132.042 350.342 130.711 350.729L130.523 350.086C129.197 350.472 127.862 350.81 126.521 351.099L126.663 351.755C125.298 352.049 123.927 352.295 122.552 352.491L122.458 351.828C121.092 352.023 119.723 352.169 118.353 352.267L118.401 352.936C117.01 353.035 115.618 353.085 114.228 353.086L114.227 352.415C112.85 352.416 111.473 352.368 110.102 352.272L110.055 352.941C108.665 352.843 107.28 352.696 105.902 352.5L105.997 351.837C104.634 351.643 103.278 351.401 101.933 351.111L101.792 351.767C100.431 351.473 99.0812 351.132 97.7441 350.741L97.9318 350.098C96.6119 349.713 95.3049 349.28 94.0136 348.8L93.7801 349.429C92.4772 348.944 91.1901 348.413 89.9216 347.834L90.2 347.224C88.9508 346.654 87.72 346.037 86.5101 345.375L86.1881 345.962C84.971 345.296 83.7749 344.583 82.6025 343.825L82.9665 343.262C81.8153 342.517 80.6872 341.728 79.5849 340.894L79.1805 341.429C78.0761 340.594 76.9973 339.714 75.9466 338.791L76.3889 338.288C75.3609 337.385 74.3601 336.439 73.389 335.452L72.9111 335.922C71.9422 334.936 71.0026 333.91 70.0947 332.842L70.6053 332.408C70.1606 331.885 69.7236 331.352 69.2946 330.808C68.8655 330.265 68.448 329.717 68.042 329.163L67.5015 329.56C66.6726 328.429 65.891 327.278 65.1565 326.107L65.7243 325.751C64.9881 324.578 64.2998 323.386 63.659 322.176L63.0668 322.49C62.4119 321.255 61.806 320.002 61.2489 318.734L61.8625 318.464C61.3064 317.199 60.7994 315.919 60.3412 314.627L59.7095 314.851C59.2429 313.535 58.8263 312.206 58.4593 310.868L59.1057 310.691C58.741 309.36 58.4259 308.02 58.1601 306.673L57.5025 306.803C57.2326 305.435 57.0129 304.059 56.8432 302.68L57.5085 302.598C57.3403 301.231 57.2217 299.859 57.1524 298.486L56.4829 298.52C56.4127 297.129 56.3925 295.736 56.4219 294.345L57.092 294.359C57.1211 292.983 57.1992 291.608 57.3261 290.238L56.6587 290.176C56.787 288.79 56.9646 287.409 57.191 286.034L57.8524 286.143C58.0759 284.787 58.3476 283.437 58.6671 282.096L58.0151 281.941C58.3375 280.589 58.7081 279.246 59.1265 277.916L59.7659 278.117C60.178 276.807 60.6371 275.508 61.1428 274.225L60.5192 273.979C61.0284 272.687 61.5842 271.41 62.1865 270.151L62.7912 270.44C63.3832 269.202 64.0205 267.982 64.7029 266.781L64.1202 266.45C64.8054 265.245 65.5355 264.059 66.3102 262.896L66.8681 263.267C67.6279 262.126 68.431 261.008 69.2771 259.913L68.7469 259.503C69.5936 258.408 70.4829 257.337 71.4145 256.293L71.9146 256.74C72.826 255.718 73.7782 254.723 74.7712 253.756L74.3035 253.276C75.2932 252.312 76.3228 251.375 77.3921 250.469L77.8254 250.98C78.3495 250.536 78.8832 250.099 79.4265 249.67C79.9698 249.241 80.5182 248.823 81.0715 248.416L80.6743 247.876C81.8032 247.045 82.9522 246.26 84.1191 245.52L84.478 246.086C85.6487 245.344 86.8375 244.648 88.0419 243.997L87.7234 243.408C88.9546 242.743 90.202 242.125 91.4633 241.555L91.7395 242.165C92.9999 241.595 94.2741 241.073 95.5597 240.598L95.3273 239.969C96.6381 239.484 97.9605 239.048 99.292 238.66L99.4794 239.304C100.805 238.918 102.14 238.58 103.481 238.29L103.34 237.635C104.704 237.341 106.075 237.095 107.45 236.899L107.545 237.562C108.91 237.367 110.279 237.221 111.649 237.123L111.602 236.454C112.993 236.355 114.385 236.305 115.775 236.304L115.775 236.974C117.153 236.974 118.529 237.021 119.901 237.118L119.948 236.449C121.337 236.547 122.722 236.694 124.1 236.889L124.006 237.553C125.369 237.747 126.724 237.989 128.069 238.278L128.211 237.623C129.571 237.916 130.921 238.258 132.258 238.648L132.071 239.292C133.391 239.677 134.698 240.11 135.989 240.59L136.222 239.961C137.525 240.445 138.812 240.977 140.081 241.556L139.803 242.166C141.052 242.736 142.283 243.353 143.492 244.015L143.814 243.427C145.031 244.094 146.228 244.807 147.4 245.565L147.036 246.128C148.187 246.872 149.315 247.662 150.418 248.495L150.822 247.961C151.926 248.796 153.005 249.675 154.056 250.598L153.614 251.102C154.642 252.005 155.642 252.95 156.613 253.938L157.091 253.468Z" fill="white" stroke="white" stroke-width="1.34056" stroke-dasharray="4.02 4.02"/>
<rect x="56.1114" y="362.902" width="175.6" height="40.2632" transform="rotate(-38.3128 56.1114 362.902)" fill="#FB8C00" stroke="white" stroke-width="1.34056"/>
<path d="M107.723 382.036L82.5684 393.936L101.116 379.281L107.723 382.036Z" fill="#F9AD4F" stroke="#F9AD4F" stroke-width="0.268112"/>
<path d="M198.277 310.484L214.854 289.411L197.02 303.502L198.277 310.484Z" fill="#F9AD4F" stroke="#F9AD4F" stroke-width="0.268112"/>
<path d="M59.9344 422.917L108.445 384.588L80.3562 396.099L68.232 380.755L42.6143 400.996L60.7645 402.678L59.9344 422.917Z" fill="#FB8C00" stroke="white" stroke-width="2.68112"/>
<path d="M244.177 273.32L204.238 304.876L217.89 283.408L205.765 268.063L226.856 251.399L226.124 268L244.177 273.32Z" fill="#FB8C00" stroke="white" stroke-width="2.41301"/>
<path d="M72.7702 302.793L76.4573 300.059L78.6035 302.954L71.0914 308.524L62.0468 296.325L65.8717 293.489L72.7702 302.793ZM85.8408 297.775C84.6921 298.626 83.4352 299.14 82.0701 299.315C80.7165 299.482 79.4048 299.298 78.1351 298.762C76.8654 298.226 75.7876 297.36 74.9019 296.166C74.0162 294.971 73.5013 293.689 73.3573 292.318C73.2132 290.947 73.422 289.644 73.9836 288.409C74.5482 287.154 75.4048 286.1 76.5535 285.249C77.7021 284.397 78.9533 283.888 80.3069 283.721C81.652 283.542 82.9537 283.725 84.2119 284.27C85.4817 284.806 86.5594 285.671 87.4451 286.866C88.3308 288.06 88.8457 289.343 88.9897 290.714C89.1453 292.076 88.9407 293.385 88.3762 294.64C87.8231 295.887 86.9779 296.931 85.8408 297.775ZM83.1964 294.208C83.9545 293.646 84.3614 292.97 84.4173 292.181C84.4646 291.381 84.1816 290.567 83.5684 289.74C82.9467 288.902 82.2503 288.394 81.479 288.219C80.6993 288.031 79.9304 288.219 79.1723 288.781C78.4027 289.351 77.9943 290.037 77.947 290.837C77.8912 291.626 78.1741 292.44 78.7958 293.279C79.409 294.106 80.1055 294.613 80.8852 294.8C81.6564 294.976 82.4268 294.779 83.1964 294.208ZM101.915 266.765L108.169 281.033L103.413 284.559L96.8649 278.68L100.588 286.654L95.8322 290.18L83.9964 280.051L88.1143 276.997L94.9145 283.864L90.871 274.953L95.0406 271.862L102.392 278.32L97.7973 269.818L101.915 266.765ZM109.373 265.961L110.484 267.46L114.275 264.65L116.408 267.527L112.618 270.338L113.895 272.061L118.203 268.867L120.464 271.917L112.331 277.946L103.287 265.748L111.419 259.718L113.68 262.768L109.373 265.961ZM126.767 267.43C125.309 268.511 123.851 269.067 122.395 269.096C120.943 269.105 119.686 268.479 118.626 267.218L122.693 264.203C123.27 264.861 123.839 264.981 124.402 264.564C124.609 264.411 124.747 264.237 124.817 264.043C124.89 263.829 124.849 263.618 124.696 263.412C124.483 263.124 124.158 263.01 123.72 263.067C123.273 263.114 122.638 263.264 121.813 263.52C120.827 263.824 119.978 264.035 119.265 264.154C118.564 264.265 117.842 264.203 117.1 263.97C116.358 263.738 115.698 263.221 115.122 262.42C114.535 261.627 114.237 260.806 114.231 259.957C114.227 259.087 114.469 258.249 114.957 257.442C115.456 256.627 116.148 255.892 117.032 255.236C118.525 254.129 119.964 253.596 121.348 253.638C122.743 253.672 123.928 254.297 124.902 255.515L120.785 258.568C120.518 258.232 120.248 258.049 119.977 258.019C119.705 257.989 119.455 258.059 119.225 258.229C119.064 258.349 118.975 258.504 118.956 258.696C118.93 258.876 118.989 259.063 119.133 259.259C119.338 259.534 119.657 259.653 120.092 259.616C120.53 259.558 121.176 259.408 122.03 259.167C123.012 258.884 123.848 258.691 124.538 258.589C125.239 258.478 125.948 258.522 126.665 258.721C127.382 258.919 128.004 259.374 128.532 260.087C129.086 260.833 129.4 261.641 129.476 262.511C129.542 263.37 129.349 264.225 128.895 265.078C128.441 265.93 127.732 266.714 126.767 267.43ZM133.209 243.562L135.457 246.595L132.218 248.996L139.014 258.162L135.189 260.998L128.393 251.832L125.188 254.208L122.94 251.176L133.209 243.562Z" fill="#F97837"/>
<path d="M100.505 356.31C99.0802 357.436 97.6406 358.036 96.1863 358.11C94.7344 358.164 93.4594 357.576 92.3614 356.348L96.3332 353.21C96.9301 353.85 97.5034 353.953 98.0532 353.518C98.2551 353.359 98.388 353.181 98.4517 352.985C98.5178 352.769 98.471 352.56 98.3114 352.358C98.0898 352.077 97.7611 351.972 97.3251 352.044C96.8804 352.103 96.2496 352.274 95.4327 352.555C94.457 352.888 93.6148 353.125 92.906 353.266C92.2085 353.398 91.4851 353.359 90.736 353.149C89.987 352.939 89.3122 352.443 88.7117 351.66C88.1 350.886 87.7778 350.074 87.745 349.225C87.7145 348.356 87.9307 347.511 88.3934 346.69C88.8674 345.86 89.5364 345.104 90.4003 344.421C91.8589 343.268 93.2805 342.692 94.6651 342.691C96.0609 342.682 97.2644 343.271 98.2755 344.459L94.2532 347.637C93.9761 347.309 93.7013 347.134 93.429 347.112C93.1567 347.091 92.9083 347.168 92.6839 347.346C92.5269 347.47 92.4422 347.628 92.4298 347.82C92.4086 348.001 92.4734 348.186 92.6241 348.377C92.8369 348.646 93.16 348.756 93.5936 348.705C94.0295 348.634 94.6703 348.464 95.5161 348.197C96.4894 347.884 97.3193 347.665 98.0056 347.542C98.7032 347.41 99.4132 347.432 100.136 347.609C100.858 347.785 101.494 348.221 102.044 348.917C102.62 349.646 102.959 350.444 103.061 351.311C103.154 352.167 102.987 353.028 102.56 353.894C102.132 354.76 101.448 355.566 100.505 356.31ZM107.878 330.94L117.292 342.855L113.556 345.807L109.886 341.162L106.335 343.968L110.005 348.613L106.269 351.565L96.8542 339.65L100.59 336.698L103.981 340.989L107.532 338.183L104.141 333.892L107.878 330.94ZM124.872 337.057C123.75 337.944 122.51 338.496 121.151 338.713C119.803 338.921 118.486 338.777 117.201 338.28C115.915 337.784 114.811 336.952 113.889 335.785C112.967 334.618 112.413 333.352 112.227 331.986C112.041 330.621 112.21 329.312 112.734 328.06C113.259 326.788 114.083 325.709 115.205 324.822C116.327 323.936 117.562 323.388 118.91 323.18C120.249 322.96 121.556 323.103 122.83 323.609C124.116 324.106 125.219 324.938 126.141 326.104C127.063 327.271 127.617 328.537 127.803 329.903C128.001 331.26 127.836 332.574 127.31 333.846C126.796 335.109 125.983 336.18 124.872 337.057ZM122.12 333.574C122.86 332.988 123.246 332.301 123.278 331.51C123.301 330.709 122.993 329.904 122.355 329.096C121.708 328.277 120.996 327.792 120.22 327.64C119.435 327.476 118.672 327.687 117.931 328.272C117.179 328.866 116.792 329.564 116.77 330.366C116.738 331.156 117.046 331.961 117.693 332.78C118.331 333.587 119.043 334.073 119.828 334.236C120.604 334.388 121.368 334.168 122.12 333.574ZM135.797 315.523C136.391 316.274 136.758 317.096 136.898 317.988C137.029 318.869 136.894 319.759 136.493 320.659C136.104 321.55 135.427 322.376 134.462 323.139L132.981 324.309L135.973 328.096L132.236 331.048L122.822 319.132L128.039 315.01C129.498 313.858 130.906 313.346 132.266 313.475C133.636 313.595 134.813 314.277 135.797 315.523ZM131.714 320.526C132.488 319.914 132.587 319.244 132.011 318.515C131.435 317.785 130.759 317.726 129.985 318.338L128.925 319.176L130.654 321.364L131.714 320.526ZM146.727 306.887C147.321 307.639 147.688 308.461 147.827 309.353C147.958 310.233 147.823 311.124 147.423 312.023C147.033 312.914 146.356 313.741 145.391 314.503L143.91 315.673L146.902 319.46L143.166 322.412L133.751 310.497L138.968 306.375C140.427 305.222 141.836 304.71 143.195 304.839C144.566 304.959 145.743 305.642 146.727 306.887ZM142.643 311.891C143.417 311.279 143.516 310.608 142.94 309.879C142.364 309.15 141.689 309.091 140.915 309.703L139.854 310.54L141.583 312.728L142.643 311.891ZM148.417 298.909L157.831 310.825L154.095 313.777L144.681 301.861L148.417 298.909ZM170.946 300.462L167.21 303.414L158.521 300.548L163.255 306.539L159.519 309.491L150.104 297.576L153.84 294.624L162.609 297.591L157.795 291.499L161.532 288.547L170.946 300.462ZM173.742 285.515C173.41 285.395 173.06 285.379 172.693 285.469C172.318 285.547 171.939 285.736 171.558 286.038C170.84 286.605 170.47 287.28 170.45 288.061C170.421 288.831 170.725 289.62 171.364 290.428C172.099 291.359 172.868 291.882 173.669 291.997C174.47 292.111 175.325 291.809 176.234 291.091C177.097 290.408 177.518 289.511 177.496 288.399L174.517 290.752L172.429 288.11L178.505 283.31L181.457 287.046C181.641 288.34 181.532 289.666 181.128 291.023C180.716 292.37 179.814 293.593 178.423 294.692C177.188 295.667 175.912 296.266 174.593 296.488C173.276 296.689 172.008 296.525 170.787 295.996C169.578 295.457 168.508 294.598 167.577 293.42C166.646 292.242 166.058 291.002 165.814 289.701C165.581 288.391 165.719 287.125 166.229 285.902C166.73 284.668 167.592 283.567 168.815 282.601C170.374 281.369 171.939 280.743 173.509 280.723C175.091 280.695 176.481 281.255 177.68 282.403L173.742 285.515Z" fill="white"/>
<path d="M112.537 354.969C112.411 354.923 112.279 354.917 112.141 354.951C111.999 354.981 111.856 355.052 111.712 355.166C111.441 355.38 111.302 355.635 111.294 355.93C111.283 356.221 111.398 356.519 111.639 356.824C111.917 357.175 112.207 357.372 112.509 357.416C112.812 357.459 113.134 357.345 113.478 357.074C113.804 356.816 113.963 356.477 113.954 356.057L112.83 356.946L112.041 355.948L114.335 354.136L115.449 355.547C115.519 356.035 115.478 356.536 115.325 357.048C115.17 357.556 114.829 358.018 114.304 358.433C113.838 358.801 113.356 359.027 112.858 359.111C112.361 359.187 111.882 359.125 111.421 358.925C110.965 358.722 110.561 358.398 110.209 357.953C109.858 357.508 109.636 357.04 109.544 356.549C109.456 356.054 109.508 355.576 109.701 355.115C109.89 354.649 110.215 354.233 110.677 353.869C111.266 353.403 111.856 353.167 112.449 353.16C113.046 353.149 113.571 353.36 114.023 353.794L112.537 354.969ZM121.097 347.194L123.928 350.777L122.518 351.892L122.086 351.345C122.11 351.602 122.07 351.857 121.967 352.11C121.869 352.36 121.693 352.585 121.439 352.786C121.028 353.11 120.597 353.227 120.147 353.136C119.7 353.041 119.291 352.759 118.92 352.289L117.278 350.211L118.682 349.101L120.183 351.001C120.317 351.171 120.469 351.271 120.638 351.302C120.808 351.326 120.97 351.278 121.122 351.157C121.279 351.034 121.363 350.888 121.375 350.72C121.384 350.548 121.321 350.377 121.187 350.208L119.686 348.308L121.097 347.194ZM126.198 346.074C125.9 345.697 125.706 345.32 125.615 344.945C125.526 344.561 125.536 344.209 125.647 343.888C125.754 343.562 125.948 343.289 126.227 343.068C126.46 342.884 126.7 342.774 126.946 342.737C127.189 342.696 127.421 342.724 127.64 342.818L127.254 342.329L128.658 341.22L131.489 344.803L130.085 345.913L129.698 345.423C129.74 345.659 129.715 345.892 129.622 346.124C129.526 346.351 129.362 346.556 129.129 346.74C128.849 346.961 128.54 347.088 128.202 347.122C127.861 347.151 127.515 347.08 127.166 346.908C126.819 346.729 126.496 346.451 126.198 346.074ZM128.669 344.121C128.519 343.93 128.353 343.821 128.172 343.792C127.991 343.763 127.824 343.809 127.671 343.929C127.519 344.049 127.436 344.201 127.422 344.384C127.408 344.567 127.477 344.754 127.627 344.944C127.778 345.135 127.944 345.245 128.125 345.274C128.306 345.302 128.473 345.257 128.625 345.136C128.778 345.016 128.861 344.864 128.875 344.681C128.888 344.498 128.82 344.312 128.669 344.121ZM134.463 337.707C134.443 337.385 134.488 337.081 134.598 336.794C134.706 336.503 134.871 336.269 135.096 336.092L136.286 337.598L135.885 337.914C135.618 338.125 135.458 338.327 135.405 338.52C135.356 338.711 135.425 338.924 135.612 339.162L136.772 340.629L135.361 341.744L132.53 338.16L133.941 337.046L134.463 337.707ZM139.96 335.2C139.662 334.823 139.468 334.447 139.377 334.071C139.288 333.688 139.298 333.335 139.409 333.014C139.516 332.688 139.71 332.415 139.989 332.194C140.222 332.01 140.462 331.9 140.708 331.864C140.951 331.823 141.183 331.85 141.402 331.945L141.016 331.456L142.42 330.346L145.251 333.93L143.847 335.039L143.46 334.55C143.502 334.785 143.477 335.019 143.384 335.25C143.288 335.477 143.124 335.683 142.891 335.867C142.611 336.088 142.302 336.215 141.964 336.248C141.623 336.277 141.277 336.206 140.928 336.034C140.581 335.855 140.258 335.577 139.96 335.2ZM142.431 333.247C142.281 333.057 142.115 332.947 141.934 332.918C141.753 332.889 141.586 332.935 141.433 333.055C141.281 333.176 141.198 333.328 141.184 333.51C141.17 333.693 141.239 333.88 141.389 334.071C141.54 334.261 141.706 334.371 141.887 334.4C142.068 334.429 142.235 334.383 142.387 334.263C142.54 334.142 142.623 333.99 142.637 333.808C142.65 333.625 142.582 333.438 142.431 333.247ZM148.782 325.278C149.192 324.954 149.621 324.839 150.067 324.933C150.518 325.025 150.929 325.305 151.3 325.775L152.942 327.853L151.538 328.963L150.037 327.063C149.903 326.893 149.751 326.797 149.581 326.773C149.411 326.742 149.251 326.786 149.098 326.907C148.941 327.03 148.859 327.178 148.85 327.35C148.838 327.518 148.899 327.687 149.033 327.856L150.534 329.756L149.123 330.87L146.292 327.287L147.703 326.172L148.134 326.719C148.11 326.462 148.148 326.209 148.246 325.959C148.349 325.706 148.527 325.479 148.782 325.278ZM158.074 321.848L159.022 323.049L158.489 323.47C157.506 324.247 156.628 324.146 155.855 323.167L155.112 322.227L154.667 322.578L153.739 321.403L154.183 321.052L153.501 320.188L154.911 319.073L155.594 319.937L156.178 319.475L157.107 320.651L156.523 321.113L157.286 322.078C157.353 322.163 157.42 322.209 157.488 322.217C157.561 322.222 157.644 322.188 157.737 322.114L158.074 321.848ZM164.827 315.501C164.904 315.598 164.971 315.696 165.029 315.795L162.76 317.588C163.026 317.88 163.277 317.933 163.514 317.745C163.667 317.625 163.722 317.468 163.679 317.274L165.172 316.095C165.322 316.389 165.395 316.703 165.39 317.037C165.387 317.363 165.307 317.684 165.151 318C164.995 318.309 164.769 318.58 164.473 318.815C164.117 319.096 163.741 319.273 163.344 319.345C162.952 319.414 162.568 319.373 162.194 319.222C161.821 319.063 161.487 318.797 161.192 318.424C160.898 318.051 160.718 317.667 160.653 317.271C160.589 316.868 160.636 316.483 160.794 316.118C160.956 315.748 161.215 315.423 161.571 315.142C161.927 314.861 162.301 314.686 162.694 314.617C163.087 314.54 163.467 314.577 163.834 314.727C164.205 314.874 164.536 315.132 164.827 315.501ZM163.131 316.294C163.037 316.175 162.929 316.116 162.806 316.117C162.679 316.114 162.559 316.157 162.445 316.248C162.195 316.445 162.144 316.681 162.292 316.956L163.131 316.294ZM171.981 309.848C172.058 309.946 172.125 310.044 172.183 310.143L169.914 311.935C170.18 312.228 170.431 312.28 170.668 312.093C170.821 311.972 170.876 311.815 170.833 311.622L172.326 310.442C172.476 310.737 172.549 311.051 172.544 311.384C172.541 311.711 172.461 312.032 172.305 312.348C172.149 312.656 171.923 312.928 171.627 313.162C171.271 313.443 170.895 313.62 170.498 313.693C170.106 313.762 169.722 313.721 169.348 313.569C168.975 313.41 168.641 313.144 168.346 312.772C168.052 312.399 167.872 312.015 167.807 311.619C167.743 311.215 167.79 310.831 167.948 310.465C168.11 310.096 168.369 309.771 168.725 309.49C169.081 309.209 169.455 309.033 169.848 308.964C170.241 308.887 170.621 308.924 170.988 309.075C171.359 309.222 171.69 309.48 171.981 309.848ZM170.285 310.641C170.191 310.522 170.083 310.464 169.96 310.465C169.833 310.461 169.713 310.505 169.599 310.595C169.349 310.793 169.298 311.029 169.446 311.304L170.285 310.641ZM175.5 307.119C175.202 306.742 175.008 306.366 174.918 305.99C174.828 305.607 174.839 305.254 174.949 304.933C175.057 304.607 175.25 304.334 175.53 304.113C175.763 303.929 176 303.821 176.242 303.788C176.486 303.747 176.717 303.774 176.936 303.869L175.666 302.261L177.077 301.147L180.792 305.849L179.381 306.963L178.994 306.474C179.036 306.709 179.011 306.943 178.918 307.174C178.827 307.398 178.664 307.602 178.431 307.786C178.152 308.007 177.843 308.134 177.505 308.167C177.163 308.196 176.818 308.125 176.469 307.953C176.121 307.774 175.798 307.496 175.5 307.119ZM177.972 305.166C177.821 304.976 177.655 304.866 177.474 304.837C177.293 304.808 177.126 304.854 176.974 304.974C176.821 305.095 176.738 305.247 176.724 305.429C176.711 305.612 176.779 305.799 176.93 305.99C177.08 306.18 177.246 306.29 177.427 306.319C177.608 306.348 177.775 306.302 177.928 306.182C178.08 306.061 178.163 305.909 178.177 305.727C178.191 305.544 178.122 305.357 177.972 305.166Z" fill="white"/>
<path d="M100.131 304.658C100.725 305.41 101.091 306.232 101.231 307.124C101.362 308.004 101.227 308.895 100.826 309.794C100.437 310.685 99.7597 311.512 98.7948 312.274L97.3138 313.445L100.306 317.231L96.5695 320.183L87.155 308.268L92.3722 304.146C93.8308 302.993 95.2397 302.481 96.5989 302.61C97.9694 302.73 99.1466 303.413 100.131 304.658ZM96.047 309.662C96.8212 309.05 96.9202 308.38 96.344 307.65C95.7677 306.921 95.0925 306.862 94.3184 307.474L93.2581 308.312L94.9868 310.499L96.047 309.662ZM113.49 306.814L107.874 304.308L107.858 304.321L111.235 308.596L107.499 311.548L98.0844 299.632L103.638 295.244C104.603 294.482 105.565 294.004 106.524 293.811C107.475 293.607 108.353 293.669 109.16 293.998C109.968 294.307 110.665 294.831 111.25 295.572C111.88 296.368 112.214 297.253 112.253 298.224C112.303 299.187 112.019 300.131 111.401 301.056L117.597 303.569L113.49 306.814ZM105.89 301.83L107.371 300.66C107.73 300.376 107.937 300.085 107.992 299.786C108.039 299.476 107.925 299.147 107.65 298.799C107.402 298.485 107.111 298.314 106.779 298.285C106.457 298.247 106.123 298.366 105.775 298.641L104.294 299.811L105.89 301.83ZM113.095 287.772L122.51 299.688L118.774 302.64L109.359 290.724L113.095 287.772ZM119.14 292.646C118.209 291.468 117.616 290.232 117.36 288.94C117.116 287.639 117.237 286.386 117.725 285.18C118.203 283.964 119.043 282.882 120.243 281.933C121.275 281.117 122.351 280.587 123.469 280.341C124.589 280.076 125.681 280.097 126.744 280.405C127.819 280.704 128.813 281.258 129.726 282.067L125.788 285.179C125.298 284.928 124.8 284.829 124.295 284.882C123.793 284.915 123.328 285.099 122.902 285.436C122.274 285.933 121.96 286.563 121.963 287.327C121.976 288.081 122.297 288.857 122.927 289.654C123.556 290.45 124.236 290.943 124.968 291.13C125.71 291.309 126.396 291.15 127.024 290.653C127.45 290.317 127.742 289.913 127.899 289.443C128.058 288.952 128.073 288.44 127.942 287.905L131.88 284.794C132.456 285.869 132.766 286.964 132.808 288.079C132.862 289.185 132.634 290.258 132.125 291.297C131.619 292.317 130.85 293.235 129.817 294.05C128.617 294.999 127.374 295.571 126.089 295.766C124.795 295.951 123.543 295.773 122.333 295.234C121.135 294.687 120.071 293.824 119.14 292.646ZM133.544 276.454L134.701 277.918L138.403 274.993L140.624 277.803L136.921 280.728L138.251 282.411L142.459 279.087L144.812 282.066L136.869 288.342L127.454 276.427L135.398 270.151L137.751 273.129L133.544 276.454Z" fill="#F97837"/>
</g>
<defs>
<filter id="filter0_i_2996_1152" x="439.276" y="336.045" width="51.3264" height="85.9058" filterUnits="userSpaceOnUse" color-interpolation-filters="sRGB">
<feFlood flood-opacity="0" result="BackgroundImageFix"/>
<feBlend mode="normal" in="SourceGraphic" in2="BackgroundImageFix" result="shape"/>
<feColorMatrix in="SourceAlpha" type="matrix" values="0 0 0 0 0 0 0 0 0 0 0 0 0 0 0 0 0 0 127 0" result="hardAlpha"/>
<feOffset dx="0.129173" dy="-0.258346"/>
<feGaussianBlur stdDeviation="0.258346"/>
<feComposite in2="hardAlpha" operator="arithmetic" k2="-1" k3="1"/>
<feColorMatrix type="matrix" values="0 0 0 0 0.960784 0 0 0 0 0.305882 0 0 0 0 0.764706 0 0 0 1 0"/>
<feBlend mode="normal" in2="shape" result="effect1_innerShadow_2996_1152"/>
</filter>
<filter id="filter1_i_2996_1152" x="329.165" y="335.122" width="117.779" height="165.344" filterUnits="userSpaceOnUse" color-interpolation-filters="sRGB">
<feFlood flood-opacity="0" result="BackgroundImageFix"/>
<feBlend mode="normal" in="SourceGraphic" in2="BackgroundImageFix" result="shape"/>
<feColorMatrix in="SourceAlpha" type="matrix" values="0 0 0 0 0 0 0 0 0 0 0 0 0 0 0 0 0 0 127 0" result="hardAlpha"/>
<feOffset dx="0.258346" dy="-0.258346"/>
<feGaussianBlur stdDeviation="0.387519"/>
<feComposite in2="hardAlpha" operator="arithmetic" k2="-1" k3="1"/>
<feColorMatrix type="matrix" values="0 0 0 0 0.909804 0 0 0 0 0.223529 0 0 0 0 0.717647 0 0 0 1 0"/>
<feBlend mode="normal" in2="shape" result="effect1_innerShadow_2996_1152"/>
</filter>
<filter id="filter2_ii_2996_1152" x="338.242" y="333.87" width="99.3533" height="57.6312" filterUnits="userSpaceOnUse" color-interpolation-filters="sRGB">
<feFlood flood-opacity="0" result="BackgroundImageFix"/>
<feBlend mode="normal" in="SourceGraphic" in2="BackgroundImageFix" result="shape"/>
<feColorMatrix in="SourceAlpha" type="matrix" values="0 0 0 0 0 0 0 0 0 0 0 0 0 0 0 0 0 0 127 0" result="hardAlpha"/>
<feOffset dx="-0.0516692" dy="0.0516692"/>
<feGaussianBlur stdDeviation="0.0387519"/>
<feComposite in2="hardAlpha" operator="arithmetic" k2="-1" k3="1"/>
<feColorMatrix type="matrix" values="0 0 0 0 0.913725 0 0 0 0 0.411765 0 0 0 0 0.662745 0 0 0 1 0"/>
<feBlend mode="normal" in2="shape" result="effect1_innerShadow_2996_1152"/>
<feColorMatrix in="SourceAlpha" type="matrix" values="0 0 0 0 0 0 0 0 0 0 0 0 0 0 0 0 0 0 127 0" result="hardAlpha"/>
<feOffset dx="0.0516692" dy="-0.0516692"/>
<feGaussianBlur stdDeviation="0.0387519"/>
<feComposite in2="hardAlpha" operator="arithmetic" k2="-1" k3="1"/>
<feColorMatrix type="matrix" values="0 0 0 0 0.898039 0 0 0 0 0.247059 0 0 0 0 0.615686 0 0 0 1 0"/>
<feBlend mode="normal" in2="effect1_innerShadow_2996_1152" result="effect2_innerShadow_2996_1152"/>
</filter>
<filter id="filter3_f_2996_1152" x="441.542" y="339.887" width="43.2516" height="27.4445" filterUnits="userSpaceOnUse" color-interpolation-filters="sRGB">
<feFlood flood-opacity="0" result="BackgroundImageFix"/>
<feBlend mode="normal" in="SourceGraphic" in2="BackgroundImageFix" result="shape"/>
<feGaussianBlur stdDeviation="0.19376" result="effect1_foregroundBlur_2996_1152"/>
</filter>
<filter id="filter4_f_2996_1152" x="359.507" y="342.561" width="56.8345" height="4.03764" filterUnits="userSpaceOnUse" color-interpolation-filters="sRGB">
<feFlood flood-opacity="0" result="BackgroundImageFix"/>
<feBlend mode="normal" in="SourceGraphic" in2="BackgroundImageFix" result="shape"/>
<feGaussianBlur stdDeviation="0.0645865" result="effect1_foregroundBlur_2996_1152"/>
</filter>
<linearGradient id="paint0_linear_2996_1152" x1="412.138" y1="258.528" x2="412.138" y2="285.133" gradientUnits="userSpaceOnUse">
<stop offset="0.181" stop-color="#B881CF"/>
<stop offset="1" stop-color="#754CA5"/>
</linearGradient>
<radialGradient id="paint1_radial_2996_1152" cx="0" cy="0" r="1" gradientUnits="userSpaceOnUse" gradientTransform="translate(338.378 366.234) rotate(139.682) scale(60.0252 79.2375)">
<stop offset="0.335" stop-color="#F96ACF"/>
<stop offset="1" stop-color="#E44CBA"/>
</radialGradient>
<linearGradient id="paint2_linear_2996_1152" x1="333.47" y1="427.557" x2="313.058" y2="421.093" gradientUnits="userSpaceOnUse">
<stop stop-color="#DE47B0"/>
<stop offset="1" stop-color="#DE47B0" stop-opacity="0"/>
</linearGradient>
<linearGradient id="paint3_linear_2996_1152" x1="298.395" y1="352.255" x2="305.635" y2="360.682" gradientUnits="userSpaceOnUse">
<stop offset="0.082" stop-color="#E665B5"/>
<stop offset="1" stop-color="#E665B5" stop-opacity="0"/>
</linearGradient>
<linearGradient id="paint4_linear_2996_1152" x1="448.537" y1="341.642" x2="471.699" y2="413.372" gradientUnits="userSpaceOnUse">
<stop offset="0.457" stop-color="#FF6ED9"/>
<stop offset="1" stop-color="#FA5BCA"/>
</linearGradient>
<radialGradient id="paint5_radial_2996_1152" cx="0" cy="0" r="1" gradientUnits="userSpaceOnUse" gradientTransform="translate(447.604 370.024) rotate(90) scale(34.3043 5.32081)">
<stop stop-color="#FF81D9"/>
<stop offset="1" stop-color="#FF81D9" stop-opacity="0"/>
</radialGradient>
<linearGradient id="paint6_linear_2996_1152" x1="387.929" y1="384.341" x2="387.929" y2="500.465" gradientUnits="userSpaceOnUse">
<stop stop-color="#F972CA"/>
<stop offset="1" stop-color="#F949C4"/>
</linearGradient>
<radialGradient id="paint7_radial_2996_1152" cx="0" cy="0" r="1" gradientUnits="userSpaceOnUse" gradientTransform="translate(326.852 344.356) rotate(90) scale(88.8459 40.0697)">
<stop offset="0.355" stop-color="#F76AC8"/>
<stop offset="1" stop-color="#F360C4" stop-opacity="0"/>
</radialGradient>
<radialGradient id="paint8_radial_2996_1152" cx="0" cy="0" r="1" gradientUnits="userSpaceOnUse" gradientTransform="translate(446.682 381.624) rotate(90) scale(81.1957 10.4116)">
<stop offset="0.077" stop-color="#FF83DA"/>
<stop offset="1" stop-color="#FF83DA" stop-opacity="0"/>
</radialGradient>
<radialGradient id="paint9_radial_2996_1152" cx="0" cy="0" r="1" gradientUnits="userSpaceOnUse" gradientTransform="translate(386.648 340.163) rotate(90) scale(42.9422 63.08)">
<stop offset="0.247" stop-color="#CE59A3"/>
<stop offset="1" stop-color="#B8387F"/>
</radialGradient>
<radialGradient id="paint10_radial_2996_1152" cx="0" cy="0" r="1" gradientUnits="userSpaceOnUse" gradientTransform="translate(412.22 360.928) rotate(145.15) scale(43.9763 13.5738)">
<stop stop-color="#BA3A82"/>
<stop offset="1" stop-color="#BA3A82" stop-opacity="0"/>
</radialGradient>
<linearGradient id="paint11_linear_2996_1152" x1="432.569" y1="337.691" x2="378.44" y2="384.302" gradientUnits="userSpaceOnUse">
<stop stop-color="#DD53A4"/>
<stop offset="1" stop-color="#E24B9B"/>
</linearGradient>
<radialGradient id="paint12_radial_2996_1152" cx="0" cy="0" r="1" gradientUnits="userSpaceOnUse" gradientTransform="translate(387.927 344.579) rotate(90) scale(7.30541 37.2456)">
<stop stop-color="#D463A8"/>
<stop offset="1" stop-color="#D463A8" stop-opacity="0"/>
</radialGradient>
<clipPath id="clip0_2996_1152">
<rect width="449.669" height="449.669" fill="white"/>
</clipPath>
</defs>
</svg>
