<svg width="450" height="450" viewBox="0 0 450 450" fill="none" xmlns="http://www.w3.org/2000/svg">
<g clip-path="url(#clip0_2996_1099)">
<rect width="449.669" height="449.669" fill="white"/>
<path d="M-4.35174 357.2C-136.346 480.225 -221.803 229.084 -248.032 88.1354L593.764 -231.986C608.575 -193.039 681.286 -112.368 633.578 0.517741C573.943 141.625 584.406 346.388 362.937 351.657C141.467 356.925 160.641 203.418 -4.35174 357.2Z" fill="#FFE0B8"/>
<path d="M-8.86423 497.304C-132.301 642.832 -251.086 304.051 -295.049 116.47L546.747 -203.651C566.796 -150.931 652.236 -36.7894 615.66 105.37C569.941 283.07 604.932 552.332 374.185 533.205C143.438 514.079 145.431 315.393 -8.86423 497.304Z" fill="#FFC882" fill-opacity="0.23"/>
<path d="M70.0536 77.8104H84.6056V89.2344H54.9576V41.0904H70.0536V77.8104ZM112.816 89.7104C108.283 89.7104 104.112 88.645 100.304 86.5144C96.5414 84.3837 93.5494 81.437 91.3281 77.6744C89.1067 73.9117 87.9961 69.673 87.9961 64.9584C87.9961 60.2437 89.1067 56.005 91.3281 52.2424C93.5494 48.4797 96.5414 45.5557 100.304 43.4704C104.112 41.3397 108.283 40.2744 112.816 40.2744C117.349 40.2744 121.497 41.3397 125.26 43.4704C129.023 45.5557 131.992 48.4797 134.168 52.2424C136.389 56.005 137.5 60.2437 137.5 64.9584C137.5 69.673 136.389 73.9117 134.168 77.6744C131.992 81.437 129 84.3837 125.192 86.5144C121.429 88.645 117.304 89.7104 112.816 89.7104ZM112.816 75.6344C115.808 75.6344 118.12 74.6824 119.752 72.7784C121.384 70.829 122.2 68.2224 122.2 64.9584C122.2 61.649 121.384 59.0424 119.752 57.1384C118.12 55.189 115.808 54.2144 112.816 54.2144C109.779 54.2144 107.444 55.189 105.812 57.1384C104.18 59.0424 103.364 61.649 103.364 64.9584C103.364 68.2224 104.18 70.829 105.812 72.7784C107.444 74.6824 109.779 75.6344 112.816 75.6344ZM212.306 41.0904L201.29 89.2344H182.522L176.946 61.8984L171.37 89.2344H152.602L141.586 41.0904H157.838L162.19 71.4184L168.718 41.0904H185.174L191.702 71.4184L196.054 41.0904H212.306ZM232.815 53.1264V59.0424H247.775V70.3984H232.815V77.1984H249.815V89.2344H217.719V41.0904H249.815V53.1264H232.815ZM274.34 89.7104C268.583 89.7104 263.823 88.373 260.06 85.6984C256.343 82.9784 254.326 79.0117 254.008 73.7984H270.056C270.283 76.5637 271.507 77.9464 273.728 77.9464C274.544 77.9464 275.224 77.765 275.768 77.4024C276.358 76.9944 276.652 76.3824 276.652 75.5664C276.652 74.433 276.04 73.5264 274.816 72.8464C273.592 72.121 271.688 71.305 269.104 70.3984C266.022 69.3104 263.46 68.245 261.42 67.2024C259.426 66.1597 257.703 64.641 256.252 62.6464C254.802 60.6517 254.099 58.0904 254.144 54.9624C254.144 51.8344 254.938 49.1824 256.524 47.0064C258.156 44.785 260.355 43.1077 263.12 41.9744C265.931 40.841 269.082 40.2744 272.572 40.2744C278.466 40.2744 283.135 41.6344 286.58 44.3544C290.071 47.0744 291.907 50.905 292.088 55.8464H275.836C275.791 54.4864 275.451 53.5117 274.816 52.9224C274.182 52.333 273.411 52.0384 272.504 52.0384C271.87 52.0384 271.348 52.265 270.94 52.7184C270.532 53.1264 270.328 53.7157 270.328 54.4864C270.328 55.5744 270.918 56.481 272.096 57.2064C273.32 57.8864 275.247 58.725 277.876 59.7224C280.914 60.8557 283.407 61.9437 285.356 62.9864C287.351 64.029 289.074 65.4797 290.524 67.3384C291.975 69.197 292.7 71.5317 292.7 74.3424C292.7 77.289 291.975 79.941 290.524 82.2984C289.074 84.6104 286.966 86.4237 284.2 87.7384C281.435 89.053 278.148 89.7104 274.34 89.7104ZM335.812 41.0904V53.0584H323.028V89.2344H307.932V53.0584H295.284V41.0904H335.812Z" fill="#F97837"/>
<path d="M92.0816 117.567C92.0816 120.604 91.3789 123.369 89.9736 125.863C88.5682 128.311 86.4829 130.26 83.7176 131.711C80.9976 133.161 77.6882 133.887 73.7896 133.887H67.8056V149.187H52.7096V101.043H73.7896C79.6829 101.043 84.1936 102.539 87.3216 105.531C90.4949 108.523 92.0816 112.535 92.0816 117.567ZM72.0896 121.987C75.2176 121.987 76.7816 120.513 76.7816 117.567C76.7816 114.62 75.2176 113.147 72.0896 113.147H67.8056V121.987H72.0896ZM121.078 149.187L112.034 131.915H111.966V149.187H96.8697V101.043H119.31C123.208 101.043 126.54 101.745 129.306 103.151C132.071 104.511 134.134 106.392 135.494 108.795C136.899 111.152 137.602 113.827 137.602 116.819C137.602 120.037 136.695 122.893 134.882 125.387C133.114 127.88 130.552 129.671 127.198 130.759L137.67 149.187H121.078ZM111.966 121.851H117.95C119.4 121.851 120.488 121.533 121.214 120.899C121.939 120.219 122.302 119.176 122.302 117.771C122.302 116.501 121.916 115.504 121.146 114.779C120.42 114.053 119.355 113.691 117.95 113.691H111.966V121.851ZM157.52 101.043V149.187H142.424V101.043H157.52ZM162.978 125.047C162.978 120.287 163.93 116.048 165.834 112.331C167.784 108.613 170.549 105.735 174.13 103.695C177.712 101.609 181.928 100.567 186.778 100.567C190.949 100.567 194.666 101.36 197.93 102.947C201.24 104.488 203.914 106.687 205.954 109.543C208.04 112.399 209.422 115.731 210.102 119.539H194.19C193.465 117.952 192.422 116.728 191.062 115.867C189.748 114.96 188.229 114.507 186.506 114.507C183.968 114.507 181.95 115.459 180.454 117.363C179.004 119.267 178.278 121.828 178.278 125.047C178.278 128.265 179.004 130.827 180.454 132.731C181.95 134.635 183.968 135.587 186.506 135.587C188.229 135.587 189.748 135.156 191.062 134.295C192.422 133.388 193.465 132.141 194.19 130.555H210.102C209.422 134.363 208.04 137.695 205.954 140.551C203.914 143.407 201.24 145.628 197.93 147.215C194.666 148.756 190.949 149.527 186.778 149.527C181.928 149.527 177.712 148.507 174.13 146.467C170.549 144.381 167.784 141.48 165.834 137.763C163.93 134.045 162.978 129.807 162.978 125.047ZM230.634 113.079V118.995H245.594V130.351H230.634V137.151H247.634V149.187H215.538V101.043H247.634V113.079H230.634Z" fill="#F97837"/>
<path d="M82.5334 162.522V173.075H65.8656V178.95H77.8568V188.963H65.8656V204.971H52.5554V162.522H82.5334ZM107.727 205.391C103.729 205.391 100.052 204.452 96.6947 202.573C93.3771 200.694 90.739 198.096 88.7805 194.779C86.8219 191.461 85.8426 187.724 85.8426 183.567C85.8426 179.41 86.8219 175.673 88.7805 172.355C90.739 169.038 93.3771 166.46 96.6947 164.621C100.052 162.742 103.729 161.803 107.727 161.803C111.724 161.803 115.381 162.742 118.698 164.621C122.016 166.46 124.634 169.038 126.553 172.355C128.511 175.673 129.491 179.41 129.491 183.567C129.491 187.724 128.511 191.461 126.553 194.779C124.634 198.096 121.996 200.694 118.639 202.573C115.321 204.452 111.684 205.391 107.727 205.391ZM107.727 192.98C110.365 192.98 112.403 192.141 113.842 190.462C115.281 188.743 116 186.445 116 183.567C116 180.649 115.281 178.351 113.842 176.672C112.403 174.953 110.365 174.094 107.727 174.094C105.049 174.094 102.99 174.953 101.551 176.672C100.112 178.351 99.3927 180.649 99.3927 183.567C99.3927 186.445 100.112 188.743 101.551 190.462C102.99 192.141 105.049 192.98 107.727 192.98ZM155.636 204.971L147.662 189.742H147.602V204.971H134.292V162.522H154.078C157.515 162.522 160.453 163.142 162.891 164.381C165.329 165.58 167.148 167.239 168.347 169.357C169.586 171.436 170.206 173.794 170.206 176.432C170.206 179.27 169.406 181.788 167.807 183.987C166.249 186.185 163.99 187.764 161.032 188.723L170.266 204.971H155.636ZM147.602 180.869H152.878C154.158 180.869 155.117 180.589 155.756 180.03C156.396 179.43 156.716 178.511 156.716 177.272C156.716 176.152 156.376 175.273 155.696 174.634C155.057 173.994 154.118 173.674 152.878 173.674H147.602V180.869ZM187.768 173.135V178.351H200.958V188.363H187.768V194.359H202.757V204.971H174.458V162.522H202.757V173.135H187.768ZM250.522 162.522L236.252 204.971H219.045L204.775 162.522H218.925L227.679 191.721L236.372 162.522H250.522ZM266.812 173.135V178.351H280.002V188.363H266.812V194.359H281.801V204.971H253.501V162.522H281.801V173.135H266.812ZM308.161 204.971L300.187 189.742H300.127V204.971H286.817V162.522H306.602C310.04 162.522 312.977 163.142 315.416 164.381C317.854 165.58 319.672 167.239 320.872 169.357C322.111 171.436 322.73 173.794 322.73 176.432C322.73 179.27 321.931 181.788 320.332 183.987C318.773 186.185 316.515 187.764 313.557 188.723L322.79 204.971H308.161ZM300.127 180.869H305.403C306.682 180.869 307.641 180.589 308.281 180.03C308.92 179.43 309.24 178.511 309.24 177.272C309.24 176.152 308.9 175.273 308.221 174.634C307.581 173.994 306.642 173.674 305.403 173.674H300.127V180.869ZM333.578 205.451C331.259 205.451 329.401 204.831 328.002 203.592C326.603 202.353 325.903 200.794 325.903 198.916C325.903 196.997 326.603 195.418 328.002 194.179C329.401 192.9 331.259 192.261 333.578 192.261C335.856 192.261 337.695 192.9 339.094 194.179C340.492 195.418 341.192 196.997 341.192 198.916C341.192 200.794 340.492 202.353 339.094 203.592C337.695 204.831 335.856 205.451 333.578 205.451Z" fill="#F97837"/>
<path d="M56.9296 228.036C56.057 228.036 55.275 227.894 54.5836 227.611C53.8923 227.327 53.337 226.908 52.9176 226.353C52.5096 225.797 52.2943 225.129 52.2716 224.347H55.3656C55.411 224.789 55.564 225.129 55.8246 225.367C56.0853 225.593 56.4253 225.707 56.8446 225.707C57.2753 225.707 57.6153 225.61 57.8646 225.418C58.114 225.214 58.2386 224.936 58.2386 224.585C58.2386 224.29 58.1366 224.046 57.9326 223.854C57.74 223.661 57.4963 223.502 57.2016 223.378C56.9183 223.253 56.5103 223.111 55.9776 222.953C55.207 222.715 54.578 222.477 54.0906 222.239C53.6033 222.001 53.184 221.649 52.8326 221.185C52.4813 220.72 52.3056 220.114 52.3056 219.366C52.3056 218.255 52.708 217.388 53.5126 216.765C54.3173 216.13 55.3656 215.813 56.6576 215.813C57.9723 215.813 59.032 216.13 59.8366 216.765C60.6413 217.388 61.072 218.261 61.1286 219.383H57.9836C57.961 218.997 57.8193 218.697 57.5586 218.482C57.298 218.255 56.9636 218.142 56.5556 218.142C56.2043 218.142 55.921 218.238 55.7056 218.431C55.4903 218.612 55.3826 218.878 55.3826 219.23C55.3826 219.615 55.564 219.915 55.9266 220.131C56.2893 220.346 56.856 220.578 57.6266 220.828C58.3973 221.088 59.0206 221.338 59.4966 221.576C59.984 221.814 60.4033 222.159 60.7546 222.613C61.106 223.066 61.2816 223.65 61.2816 224.364C61.2816 225.044 61.106 225.661 60.7546 226.217C60.4146 226.772 59.916 227.214 59.2586 227.543C58.6013 227.871 57.825 228.036 56.9296 228.036ZM76.5856 215.983V227.917H73.6786V220.76L71.0096 227.917H68.6636L65.9776 220.743V227.917H63.0706V215.983H66.5046L69.8536 224.245L73.1686 215.983H76.5856ZM86.1051 225.809H81.6511L80.9371 227.917H77.8941L82.2121 215.983H85.5781L89.8961 227.917H86.8191L86.1051 225.809ZM85.3571 223.565L83.8781 219.196L82.4161 223.565H85.3571ZM97.2963 227.917L94.8143 223.412H94.1173V227.917H91.2103V215.983H96.0893C97.0299 215.983 97.8289 216.147 98.4863 216.476C99.1549 216.804 99.6536 217.258 99.9823 217.836C100.311 218.402 100.475 219.037 100.475 219.74C100.475 220.533 100.249 221.241 99.7953 221.865C99.3533 222.488 98.6959 222.93 97.8233 223.191L100.577 227.917H97.2963ZM94.1173 221.355H95.9193C96.4519 221.355 96.8486 221.224 97.1093 220.964C97.3813 220.703 97.5173 220.335 97.5173 219.859C97.5173 219.405 97.3813 219.048 97.1093 218.788C96.8486 218.527 96.4519 218.397 95.9193 218.397H94.1173V221.355ZM110.885 215.983V218.312H107.723V227.917H104.816V218.312H101.654V215.983H110.885ZM120.265 228.036C119.392 228.036 118.61 227.894 117.919 227.611C117.227 227.327 116.672 226.908 116.253 226.353C115.845 225.797 115.629 225.129 115.607 224.347H118.701C118.746 224.789 118.899 225.129 119.16 225.367C119.42 225.593 119.76 225.707 120.18 225.707C120.61 225.707 120.95 225.61 121.2 225.418C121.449 225.214 121.574 224.936 121.574 224.585C121.574 224.29 121.472 224.046 121.268 223.854C121.075 223.661 120.831 223.502 120.537 223.378C120.253 223.253 119.845 223.111 119.313 222.953C118.542 222.715 117.913 222.477 117.426 222.239C116.938 222.001 116.519 221.649 116.168 221.185C115.816 220.72 115.641 220.114 115.641 219.366C115.641 218.255 116.043 217.388 116.848 216.765C117.652 216.13 118.701 215.813 119.993 215.813C121.307 215.813 122.367 216.13 123.172 216.765C123.976 217.388 124.407 218.261 124.464 219.383H121.319C121.296 218.997 121.154 218.697 120.894 218.482C120.633 218.255 120.299 218.142 119.891 218.142C119.539 218.142 119.256 218.238 119.041 218.431C118.825 218.612 118.718 218.878 118.718 219.23C118.718 219.615 118.899 219.915 119.262 220.131C119.624 220.346 120.191 220.578 120.962 220.828C121.732 221.088 122.356 221.338 122.832 221.576C123.319 221.814 123.738 222.159 124.09 222.613C124.441 223.066 124.617 223.65 124.617 224.364C124.617 225.044 124.441 225.661 124.09 226.217C123.75 226.772 123.251 227.214 122.594 227.543C121.936 227.871 121.16 228.036 120.265 228.036ZM136.742 215.983V227.917H133.835V223.004H129.313V227.917H126.406V215.983H129.313V220.658H133.835V215.983H136.742ZM144.484 228.036C143.362 228.036 142.331 227.775 141.39 227.254C140.461 226.732 139.718 226.007 139.163 225.078C138.619 224.137 138.347 223.083 138.347 221.916C138.347 220.748 138.619 219.7 139.163 218.771C139.718 217.841 140.461 217.116 141.39 216.595C142.331 216.073 143.362 215.813 144.484 215.813C145.606 215.813 146.632 216.073 147.561 216.595C148.502 217.116 149.238 217.841 149.771 218.771C150.315 219.7 150.587 220.748 150.587 221.916C150.587 223.083 150.315 224.137 149.771 225.078C149.227 226.007 148.49 226.732 147.561 227.254C146.632 227.775 145.606 228.036 144.484 228.036ZM144.484 225.384C145.436 225.384 146.195 225.066 146.762 224.432C147.34 223.797 147.629 222.958 147.629 221.916C147.629 220.862 147.34 220.023 146.762 219.4C146.195 218.765 145.436 218.448 144.484 218.448C143.521 218.448 142.75 218.759 142.172 219.383C141.605 220.006 141.322 220.85 141.322 221.916C141.322 222.97 141.605 223.814 142.172 224.449C142.75 225.072 143.521 225.384 144.484 225.384ZM161.299 219.825C161.299 220.516 161.141 221.151 160.823 221.729C160.506 222.295 160.019 222.754 159.361 223.106C158.704 223.457 157.888 223.633 156.913 223.633H155.111V227.917H152.204V215.983H156.913C157.865 215.983 158.67 216.147 159.327 216.476C159.985 216.804 160.478 217.258 160.806 217.836C161.135 218.414 161.299 219.077 161.299 219.825ZM156.692 221.321C157.248 221.321 157.661 221.19 157.933 220.93C158.205 220.669 158.341 220.301 158.341 219.825C158.341 219.349 158.205 218.98 157.933 218.72C157.661 218.459 157.248 218.329 156.692 218.329H155.111V221.321H156.692ZM171.908 219.825C171.908 220.516 171.749 221.151 171.432 221.729C171.114 222.295 170.627 222.754 169.97 223.106C169.312 223.457 168.496 223.633 167.522 223.633H165.72V227.917H162.813V215.983H167.522C168.474 215.983 169.278 216.147 169.936 216.476C170.593 216.804 171.086 217.258 171.415 217.836C171.743 218.414 171.908 219.077 171.908 219.825ZM167.301 221.321C167.856 221.321 168.27 221.19 168.542 220.93C168.814 220.669 168.95 220.301 168.95 219.825C168.95 219.349 168.814 218.98 168.542 218.72C168.27 218.459 167.856 218.329 167.301 218.329H165.72V221.321H167.301ZM176.328 215.983V227.917H173.421V215.983H176.328ZM189.111 227.917H186.204L181.342 220.556V227.917H178.435V215.983H181.342L186.204 223.378V215.983H189.111V227.917ZM199.14 219.757C198.925 219.36 198.613 219.06 198.205 218.856C197.808 218.64 197.338 218.533 196.794 218.533C195.853 218.533 195.1 218.844 194.533 219.468C193.966 220.08 193.683 220.901 193.683 221.933C193.683 223.032 193.978 223.893 194.567 224.517C195.168 225.129 195.989 225.435 197.032 225.435C197.746 225.435 198.347 225.253 198.834 224.891C199.333 224.528 199.695 224.007 199.922 223.327H196.233V221.185H202.557V223.888C202.342 224.613 201.973 225.287 201.452 225.911C200.942 226.534 200.29 227.038 199.497 227.424C198.704 227.809 197.808 228.002 196.811 228.002C195.632 228.002 194.578 227.747 193.649 227.237C192.731 226.715 192.011 225.996 191.49 225.078C190.98 224.16 190.725 223.111 190.725 221.933C190.725 220.754 190.98 219.706 191.49 218.788C192.011 217.858 192.731 217.139 193.649 216.629C194.567 216.107 195.615 215.847 196.794 215.847C198.222 215.847 199.423 216.192 200.398 216.884C201.384 217.575 202.036 218.533 202.353 219.757H199.14ZM210.677 215.983V227.917H207.77V215.983H210.677ZM217.101 228.036C216.229 228.036 215.447 227.894 214.755 227.611C214.064 227.327 213.509 226.908 213.089 226.353C212.681 225.797 212.466 225.129 212.443 224.347H215.537C215.583 224.789 215.736 225.129 215.996 225.367C216.257 225.593 216.597 225.707 217.016 225.707C217.447 225.707 217.787 225.61 218.036 225.418C218.286 225.214 218.41 224.936 218.41 224.585C218.41 224.29 218.308 224.046 218.104 223.854C217.912 223.661 217.668 223.502 217.373 223.378C217.09 223.253 216.682 223.111 216.149 222.953C215.379 222.715 214.75 222.477 214.262 222.239C213.775 222.001 213.356 221.649 213.004 221.185C212.653 220.72 212.477 220.114 212.477 219.366C212.477 218.255 212.88 217.388 213.684 216.765C214.489 216.13 215.537 215.813 216.829 215.813C218.144 215.813 219.204 216.13 220.008 216.765C220.813 217.388 221.244 218.261 221.3 219.383H218.155C218.133 218.997 217.991 218.697 217.73 218.482C217.47 218.255 217.135 218.142 216.727 218.142C216.376 218.142 216.093 218.238 215.877 218.431C215.662 218.612 215.554 218.878 215.554 219.23C215.554 219.615 215.736 219.915 216.098 220.131C216.461 220.346 217.028 220.578 217.798 220.828C218.569 221.088 219.192 221.338 219.668 221.576C220.156 221.814 220.575 222.159 220.926 222.613C221.278 223.066 221.453 223.65 221.453 224.364C221.453 225.044 221.278 225.661 220.926 226.217C220.586 226.772 220.088 227.214 219.43 227.543C218.773 227.871 217.997 228.036 217.101 228.036ZM232.489 228.036C231.367 228.036 230.336 227.775 229.395 227.254C228.466 226.732 227.723 226.007 227.168 225.078C226.624 224.137 226.352 223.083 226.352 221.916C226.352 220.748 226.624 219.7 227.168 218.771C227.723 217.841 228.466 217.116 229.395 216.595C230.336 216.073 231.367 215.813 232.489 215.813C233.611 215.813 234.637 216.073 235.566 216.595C236.507 217.116 237.243 217.841 237.776 218.771C238.32 219.7 238.592 220.748 238.592 221.916C238.592 223.083 238.32 224.137 237.776 225.078C237.232 226.007 236.495 226.732 235.566 227.254C234.637 227.775 233.611 228.036 232.489 228.036ZM232.489 225.384C233.441 225.384 234.2 225.066 234.767 224.432C235.345 223.797 235.634 222.958 235.634 221.916C235.634 220.862 235.345 220.023 234.767 219.4C234.2 218.765 233.441 218.448 232.489 218.448C231.526 218.448 230.755 218.759 230.177 219.383C229.61 220.006 229.327 220.85 229.327 221.916C229.327 222.97 229.61 223.814 230.177 224.449C230.755 225.072 231.526 225.384 232.489 225.384ZM250.885 227.917H247.978L243.116 220.556V227.917H240.209V215.983H243.116L247.978 223.378V215.983H250.885V227.917Z" fill="#F97837"/>
<path d="M259.144 321.041H470.991V426.964H259.144V321.041Z" fill="#D6CBBE"/>
<path d="M259.144 426.964H470.991V449.264H259.144V426.964Z" fill="#AAA5A0"/>
<path d="M381.793 348.915H448.692V449.263H381.793V348.915Z" fill="#A06113"/>
<path d="M281.443 348.915H359.492V410.239H281.443V348.915Z" fill="white"/>
<path d="M287.017 354.491H353.916V404.666H287.017V354.491Z" fill="#FFDD55"/>
<path d="M434.753 401.876C433.081 401.876 431.966 402.991 431.966 404.664V415.814C431.966 417.486 433.081 418.601 434.753 418.601C436.426 418.601 437.541 417.486 437.541 415.814V404.664C437.541 402.991 436.426 401.876 434.753 401.876Z" fill="#90A4AE"/>
<path d="M365.071 337.765C374.308 337.765 381.796 330.278 381.796 321.041C381.796 311.804 374.308 304.316 365.071 304.316C355.835 304.316 348.347 311.804 348.347 321.041C348.347 330.278 355.835 337.765 365.071 337.765Z" fill="#558B2F"/>
<path d="M431.964 337.765C441.201 337.765 448.689 330.278 448.689 321.041C448.689 311.804 441.201 304.316 431.964 304.316C422.727 304.316 415.239 311.804 415.239 321.041C415.239 330.278 422.727 337.765 431.964 337.765Z" fill="#558B2F"/>
<path d="M298.168 337.765C307.405 337.765 314.893 330.278 314.893 321.041C314.893 311.804 307.405 304.316 298.168 304.316C288.931 304.316 281.443 311.804 281.443 321.041C281.443 330.278 288.931 337.765 298.168 337.765Z" fill="#558B2F"/>
<path d="M454.265 248.566H275.868C269.735 248.566 264.718 253.584 264.718 259.716V276.441H465.415V259.716C465.415 253.584 460.398 248.566 454.265 248.566ZM348.342 276.441H381.791V321.04H348.342V276.441ZM437.54 276.441H409.666L415.241 321.04H448.69L437.54 276.441ZM292.592 276.441H320.467L314.892 321.04H281.443L292.592 276.441Z" fill="#FB8C00"/>
<path d="M398.516 337.765C407.753 337.765 415.241 330.278 415.241 321.041C415.241 311.804 407.753 304.316 398.516 304.316C389.279 304.316 381.791 311.804 381.791 321.041C381.791 330.278 389.279 337.765 398.516 337.765Z" fill="#FFA000"/>
<path d="M482.136 321.041C482.136 330.518 474.889 337.765 465.411 337.765C455.934 337.765 448.687 330.518 448.687 321.041C448.687 311.563 455.934 304.316 465.411 304.316L482.136 321.041Z" fill="#FFA000"/>
<path d="M331.617 337.765C340.854 337.765 348.342 330.278 348.342 321.041C348.342 311.804 340.854 304.316 331.617 304.316C322.381 304.316 314.893 311.804 314.893 321.041C314.893 330.278 322.381 337.765 331.617 337.765Z" fill="#FFA000"/>
<path d="M247.989 321.041C247.989 330.518 255.237 337.765 264.714 337.765C274.191 337.765 281.439 330.518 281.439 321.041C281.439 311.563 274.191 304.316 264.714 304.316L247.989 321.041Z" fill="#FFA000"/>
<path d="M409.662 276.441H381.787V321.041H415.237L409.662 276.441ZM465.411 276.441H437.537L448.687 321.041H482.136L465.411 276.441ZM320.463 276.441H348.338V321.041H314.888L320.463 276.441ZM264.714 276.441H292.589L281.439 321.041H247.989L264.714 276.441Z" fill="#FFC107"/>
<ellipse cx="344.348" cy="455.088" rx="192.793" ry="6.23925" fill="#D9D9D9"/>
<path d="M206.467 286.56H151.855V318.895H206.467V286.56Z" fill="#2F2E41"/>
<path d="M97.7495 291.774H69.5928V281.956C69.5928 278.222 71.076 274.641 73.7162 272.001C76.3564 269.361 79.9373 267.877 83.6711 267.877C87.4049 267.877 90.9859 269.361 93.6261 272.001C96.2663 274.641 97.7495 278.222 97.7495 281.956V291.774ZM70.2161 291.151H97.1262V281.956C97.1262 278.387 95.7086 274.965 93.1853 272.442C90.662 269.918 87.2396 268.501 83.6711 268.501C80.1026 268.501 76.6803 269.918 74.157 272.442C71.6337 274.965 70.2161 278.387 70.2161 281.956V291.151Z" fill="#3F3D56"/>
<path d="M111.671 290.424V286.586L40.0652 288.505L37.7988 385.699L48.3964 398.79L111.671 290.424Z" fill="#D24600"/>
<path d="M124.347 289.072L46.7344 290.839L48.3965 398.79L123.296 390.717L124.347 289.072Z" fill="#E76063"/>
<path d="M132.121 426.06C132.121 426.06 119.25 453.778 130.878 509.573C142.506 565.367 142.603 626.62 142.603 626.62L160.383 626.91L170.371 495.037L175.6 625.048H193.118L208.556 497.092C208.556 497.092 218.715 439.956 196.06 429.726L132.121 426.06Z" fill="#2F2E41"/>
<path d="M193.733 328.238L154.802 324.649C142.593 333.547 135.741 349.53 137.148 366.02C139.055 388.378 138.41 419.147 123.105 432.514C123.105 432.514 164.818 465.436 201.872 434.203C201.872 434.203 189.202 400.259 197.901 386.704C206.6 373.148 209.739 335.064 193.733 328.238Z" fill="#FFD2D2"/>
<path d="M77.8968 272.991C77.7774 274.113 77.9056 275.248 78.2722 276.315C78.6388 277.382 79.235 278.356 80.0187 279.168C80.8024 279.98 81.7546 280.611 82.8083 281.015C83.862 281.419 84.9915 281.587 86.1172 281.508L137.519 329.478L146.732 315.444L93.3085 272.704C93.0495 270.821 92.109 269.1 90.6653 267.864C89.2216 266.629 87.3749 265.966 85.4752 266.002C83.5755 266.037 81.7548 266.768 80.3581 268.056C78.9613 269.344 78.0856 271.1 77.8968 272.991Z" fill="#FFB6B6"/>
<path d="M127.918 322.067L140.112 309.541C140.459 309.185 140.878 308.908 141.342 308.728C141.806 308.548 142.303 308.471 142.8 308.501C143.296 308.531 143.78 308.667 144.219 308.901C144.658 309.135 145.042 309.461 145.343 309.856L155.915 323.712C157.728 325.498 158.759 327.929 158.783 330.474C158.806 333.019 157.819 335.469 156.038 337.287C154.258 339.105 151.829 340.143 149.285 340.173C146.74 340.204 144.288 339.224 142.464 337.448L128.373 327.289C127.969 326.998 127.633 326.623 127.388 326.191C127.142 325.758 126.993 325.278 126.95 324.782C126.906 324.287 126.971 323.788 127.138 323.319C127.305 322.851 127.571 322.424 127.918 322.067Z" fill="#FF9797"/>
<path d="M268.863 389.809C268.92 388.682 268.729 387.556 268.303 386.51C267.878 385.465 267.229 384.526 266.401 383.759C265.573 382.991 264.588 382.415 263.513 382.07C262.439 381.725 261.302 381.62 260.182 381.762L206.194 336.721L197.775 351.245L253.491 390.951C253.854 392.816 254.889 394.483 256.399 395.636C257.909 396.79 259.79 397.349 261.684 397.208C263.579 397.067 265.356 396.236 266.679 394.872C268.003 393.509 268.779 391.707 268.863 389.809Z" fill="#FFB6B6"/>
<path d="M216.188 343.588L204.709 356.772C204.382 357.147 203.978 357.447 203.525 357.652C203.072 357.857 202.58 357.962 202.083 357.96C201.585 357.958 201.094 357.848 200.643 357.639C200.192 357.43 199.791 357.126 199.467 356.748L188.142 343.501C186.232 341.819 185.068 339.448 184.903 336.909C184.738 334.369 185.588 331.868 187.264 329.954C188.941 328.039 191.309 326.868 193.848 326.696C196.387 326.525 198.89 327.367 200.809 329.039L215.444 338.399C215.862 338.668 216.219 339.023 216.488 339.441C216.757 339.859 216.933 340.331 217.004 340.823C217.074 341.315 217.038 341.817 216.897 342.294C216.757 342.771 216.515 343.212 216.188 343.588Z" fill="#FF9797"/>
<path d="M274.346 408.854H253.018V401.417C253.018 398.589 254.141 395.876 256.141 393.876C258.141 391.876 260.853 390.753 263.682 390.753C266.51 390.753 269.222 391.876 271.222 393.876C273.222 395.876 274.346 398.589 274.346 401.417L274.346 408.854ZM253.49 408.382H273.873V401.417C273.873 398.714 272.8 396.122 270.888 394.21C268.977 392.299 266.385 391.225 263.682 391.225C260.978 391.225 258.386 392.299 256.475 394.21C254.564 396.122 253.49 398.714 253.49 401.417V408.382Z" fill="#3F3D56"/>
<path d="M284.897 407.83V404.924L230.657 406.378L228.94 479.999L236.968 489.915L284.897 407.83Z" fill="#FB8C00"/>
<path d="M294.497 406.807L235.708 408.145L236.967 489.915L293.702 483.8L294.497 406.807Z" fill="#FFE62E"/>
<path d="M176.999 318.178C189.699 318.178 199.994 307.883 199.994 295.183C199.994 282.484 189.699 272.189 176.999 272.189C164.3 272.189 154.005 282.484 154.005 295.183C154.005 307.883 164.3 318.178 176.999 318.178Z" fill="#FFB6B6"/>
<path d="M166.415 284.934C174.37 292.73 188.212 293.477 196.96 286.583C199.388 294.957 199.654 303.809 197.732 312.313C195.811 320.818 191.766 328.696 185.974 335.213C190.84 336.971 196.442 335.815 200.791 333.012C205.14 330.21 208.361 325.931 210.792 321.364C216.809 310.057 218.316 296.252 214.059 284.172C209.802 272.092 199.603 262.076 187.213 258.832C174.823 255.589 160.616 259.595 152.338 269.368C143.682 279.588 142.279 294.562 146.072 307.407C149.866 320.252 158.186 331.282 167.327 341.07C162.936 329.78 160.025 317.969 158.665 305.931C158.2 301.808 157.928 297.559 159.093 293.577C160.257 289.595 163.124 285.886 167.119 284.767" fill="#2F2E41"/>
</g>
<defs>
<clipPath id="clip0_2996_1099">
<rect width="449.669" height="449.669" fill="white"/>
</clipPath>
</defs>
</svg>
