<svg width="545" height="424" viewBox="0 0 545 424" fill="none" xmlns="http://www.w3.org/2000/svg">
<g clip-path="url(#clip0_966_1533)">
<rect width="545" height="424" fill="white"/>
<path d="M66.576 78.288C67.6 78.528 68.392 79.024 68.952 79.776C69.528 80.512 69.816 81.368 69.816 82.344C69.816 83.832 69.32 84.984 68.328 85.8C67.352 86.6 65.944 87 64.104 87H55.2V70.008H63.864C65.592 70.008 66.952 70.384 67.944 71.136C68.936 71.888 69.432 72.984 69.432 74.424C69.432 75.416 69.168 76.256 68.64 76.944C68.128 77.616 67.44 78.064 66.576 78.288ZM60.528 76.632H62.592C63.072 76.632 63.424 76.536 63.648 76.344C63.888 76.152 64.008 75.856 64.008 75.456C64.008 75.04 63.888 74.736 63.648 74.544C63.424 74.336 63.072 74.232 62.592 74.232H60.528V76.632ZM62.952 82.728C63.432 82.728 63.784 82.64 64.008 82.464C64.248 82.272 64.368 81.968 64.368 81.552C64.368 80.736 63.896 80.328 62.952 80.328H60.528V82.728H62.952ZM70.8863 80.232C70.8863 78.808 71.1263 77.576 71.6063 76.536C72.1023 75.48 72.7743 74.68 73.6223 74.136C74.4703 73.576 75.4223 73.296 76.4783 73.296C77.3583 73.296 78.1183 73.48 78.7583 73.848C79.3983 74.2 79.8863 74.688 80.2223 75.312V73.464H85.5263V87H80.2223V85.152C79.8863 85.776 79.3983 86.272 78.7583 86.64C78.1183 86.992 77.3583 87.168 76.4783 87.168C75.4223 87.168 74.4703 86.896 73.6223 86.352C72.7743 85.792 72.1023 84.992 71.6063 83.952C71.1263 82.896 70.8863 81.656 70.8863 80.232ZM80.2223 80.232C80.2223 79.512 80.0383 78.952 79.6703 78.552C79.3023 78.152 78.8303 77.952 78.2543 77.952C77.6783 77.952 77.2063 78.152 76.8383 78.552C76.4703 78.952 76.2863 79.512 76.2863 80.232C76.2863 80.952 76.4703 81.512 76.8383 81.912C77.2063 82.312 77.6783 82.512 78.2543 82.512C78.8303 82.512 79.3023 82.312 79.6703 81.912C80.0383 81.512 80.2223 80.952 80.2223 80.232ZM93.2468 75.96C93.7908 75.176 94.4548 74.552 95.2388 74.088C96.0228 73.608 96.8388 73.368 97.6868 73.368V79.056H96.1748C95.1668 79.056 94.4228 79.232 93.9428 79.584C93.4788 79.936 93.2468 80.56 93.2468 81.456V87H87.9188V73.464H93.2468V75.96ZM103.994 73.296C104.874 73.296 105.634 73.48 106.274 73.848C106.914 74.2 107.402 74.688 107.738 75.312V73.464H113.042V86.76C113.042 88.024 112.81 89.176 112.346 90.216C111.882 91.256 111.13 92.088 110.09 92.712C109.066 93.336 107.746 93.648 106.13 93.648C103.954 93.648 102.226 93.136 100.946 92.112C99.6819 91.104 98.9619 89.728 98.7859 87.984H104.018C104.162 88.688 104.738 89.04 105.746 89.04C106.37 89.04 106.858 88.88 107.21 88.56C107.562 88.24 107.738 87.64 107.738 86.76V85.152C107.402 85.776 106.914 86.272 106.274 86.64C105.634 86.992 104.874 87.168 103.994 87.168C102.938 87.168 101.986 86.896 101.138 86.352C100.29 85.792 99.6179 84.992 99.1219 83.952C98.6419 82.896 98.4019 81.656 98.4019 80.232C98.4019 78.808 98.6419 77.576 99.1219 76.536C99.6179 75.48 100.29 74.68 101.138 74.136C101.986 73.576 102.938 73.296 103.994 73.296ZM107.738 80.232C107.738 79.512 107.554 78.952 107.186 78.552C106.818 78.152 106.346 77.952 105.77 77.952C105.194 77.952 104.722 78.152 104.354 78.552C103.986 78.952 103.802 79.512 103.802 80.232C103.802 80.952 103.986 81.512 104.354 81.912C104.722 82.312 105.194 82.512 105.77 82.512C106.346 82.512 106.818 82.312 107.186 81.912C107.554 81.512 107.738 80.952 107.738 80.232ZM114.714 80.232C114.714 78.808 114.954 77.576 115.434 76.536C115.93 75.48 116.602 74.68 117.45 74.136C118.298 73.576 119.25 73.296 120.306 73.296C121.186 73.296 121.946 73.48 122.586 73.848C123.226 74.2 123.714 74.688 124.05 75.312V73.464H129.354V87H124.05V85.152C123.714 85.776 123.226 86.272 122.586 86.64C121.946 86.992 121.186 87.168 120.306 87.168C119.25 87.168 118.298 86.896 117.45 86.352C116.602 85.792 115.93 84.992 115.434 83.952C114.954 82.896 114.714 81.656 114.714 80.232ZM124.05 80.232C124.05 79.512 123.866 78.952 123.498 78.552C123.13 78.152 122.658 77.952 122.082 77.952C121.506 77.952 121.034 78.152 120.666 78.552C120.298 78.952 120.114 79.512 120.114 80.232C120.114 80.952 120.298 81.512 120.666 81.912C121.034 82.312 121.506 82.512 122.082 82.512C122.658 82.512 123.13 82.312 123.498 81.912C123.866 81.512 124.05 80.952 124.05 80.232ZM134.435 72.384C133.507 72.384 132.763 72.136 132.203 71.64C131.643 71.144 131.363 70.52 131.363 69.768C131.363 69 131.643 68.368 132.203 67.872C132.763 67.36 133.507 67.104 134.435 67.104C135.347 67.104 136.083 67.36 136.643 67.872C137.203 68.368 137.483 69 137.483 69.768C137.483 70.52 137.203 71.144 136.643 71.64C136.083 72.136 135.347 72.384 134.435 72.384ZM137.075 73.464V87H131.747V73.464H137.075ZM148.961 73.368C150.513 73.368 151.721 73.888 152.585 74.928C153.465 75.968 153.905 77.376 153.905 79.152V87H148.601V79.824C148.601 79.184 148.425 78.68 148.073 78.312C147.737 77.928 147.281 77.736 146.705 77.736C146.113 77.736 145.649 77.928 145.313 78.312C144.977 78.68 144.809 79.184 144.809 79.824V87H139.481V73.464H144.809V75.528C145.225 74.888 145.777 74.368 146.465 73.968C147.169 73.568 148.001 73.368 148.961 73.368ZM158.904 72.384C157.976 72.384 157.232 72.136 156.672 71.64C156.112 71.144 155.832 70.52 155.832 69.768C155.832 69 156.112 68.368 156.672 67.872C157.232 67.36 157.976 67.104 158.904 67.104C159.816 67.104 160.552 67.36 161.112 67.872C161.672 68.368 161.952 69 161.952 69.768C161.952 70.52 161.672 71.144 161.112 71.64C160.552 72.136 159.816 72.384 158.904 72.384ZM161.544 73.464V87H156.216V73.464H161.544ZM173.43 73.368C174.982 73.368 176.19 73.888 177.054 74.928C177.934 75.968 178.374 77.376 178.374 79.152V87H173.07V79.824C173.07 79.184 172.894 78.68 172.542 78.312C172.206 77.928 171.75 77.736 171.174 77.736C170.582 77.736 170.118 77.928 169.782 78.312C169.446 78.68 169.278 79.184 169.278 79.824V87H163.95V73.464H169.278V75.528C169.694 74.888 170.246 74.368 170.934 73.968C171.638 73.568 172.47 73.368 173.43 73.368ZM185.556 73.296C186.436 73.296 187.196 73.48 187.836 73.848C188.476 74.2 188.964 74.688 189.3 75.312V73.464H194.604V86.76C194.604 88.024 194.372 89.176 193.908 90.216C193.444 91.256 192.692 92.088 191.652 92.712C190.628 93.336 189.308 93.648 187.692 93.648C185.516 93.648 183.788 93.136 182.508 92.112C181.244 91.104 180.524 89.728 180.348 87.984H185.58C185.724 88.688 186.3 89.04 187.308 89.04C187.932 89.04 188.42 88.88 188.772 88.56C189.124 88.24 189.3 87.64 189.3 86.76V85.152C188.964 85.776 188.476 86.272 187.836 86.64C187.196 86.992 186.436 87.168 185.556 87.168C184.5 87.168 183.548 86.896 182.7 86.352C181.852 85.792 181.18 84.992 180.684 83.952C180.204 82.896 179.964 81.656 179.964 80.232C179.964 78.808 180.204 77.576 180.684 76.536C181.18 75.48 181.852 74.68 182.7 74.136C183.548 73.576 184.5 73.296 185.556 73.296ZM189.3 80.232C189.3 79.512 189.116 78.952 188.748 78.552C188.38 78.152 187.908 77.952 187.332 77.952C186.756 77.952 186.284 78.152 185.916 78.552C185.548 78.952 185.364 79.512 185.364 80.232C185.364 80.952 185.548 81.512 185.916 81.912C186.284 82.312 186.756 82.512 187.332 82.512C187.908 82.512 188.38 82.312 188.748 81.912C189.116 81.512 189.3 80.952 189.3 80.232ZM205.947 73.296C206.827 73.296 207.587 73.48 208.227 73.848C208.867 74.2 209.355 74.688 209.691 75.312V73.464H214.995V86.76C214.995 88.024 214.763 89.176 214.299 90.216C213.835 91.256 213.083 92.088 212.043 92.712C211.019 93.336 209.699 93.648 208.083 93.648C205.907 93.648 204.179 93.136 202.899 92.112C201.635 91.104 200.915 89.728 200.739 87.984H205.971C206.115 88.688 206.691 89.04 207.699 89.04C208.323 89.04 208.811 88.88 209.163 88.56C209.515 88.24 209.691 87.64 209.691 86.76V85.152C209.355 85.776 208.867 86.272 208.227 86.64C207.587 86.992 206.827 87.168 205.947 87.168C204.891 87.168 203.939 86.896 203.091 86.352C202.243 85.792 201.571 84.992 201.075 83.952C200.595 82.896 200.355 81.656 200.355 80.232C200.355 78.808 200.595 77.576 201.075 76.536C201.571 75.48 202.243 74.68 203.091 74.136C203.939 73.576 204.891 73.296 205.947 73.296ZM209.691 80.232C209.691 79.512 209.507 78.952 209.139 78.552C208.771 78.152 208.299 77.952 207.723 77.952C207.147 77.952 206.675 78.152 206.307 78.552C205.939 78.952 205.755 79.512 205.755 80.232C205.755 80.952 205.939 81.512 206.307 81.912C206.675 82.312 207.147 82.512 207.723 82.512C208.299 82.512 208.771 82.312 209.139 81.912C209.507 81.512 209.691 80.952 209.691 80.232ZM230.492 80.112C230.492 80.48 230.468 80.832 230.42 81.168H221.852C221.932 82.336 222.42 82.92 223.316 82.92C223.892 82.92 224.308 82.656 224.564 82.128H230.204C230.012 83.088 229.604 83.952 228.98 84.72C228.372 85.472 227.596 86.072 226.652 86.52C225.724 86.952 224.7 87.168 223.58 87.168C222.236 87.168 221.036 86.888 219.98 86.328C218.94 85.768 218.124 84.968 217.532 83.928C216.956 82.872 216.668 81.64 216.668 80.232C216.668 78.824 216.956 77.6 217.532 76.56C218.124 75.504 218.94 74.696 219.98 74.136C221.036 73.576 222.236 73.296 223.58 73.296C224.924 73.296 226.116 73.576 227.156 74.136C228.212 74.68 229.028 75.464 229.604 76.488C230.196 77.512 230.492 78.72 230.492 80.112ZM225.092 78.84C225.092 78.392 224.948 78.056 224.66 77.832C224.372 77.592 224.012 77.472 223.58 77.472C222.636 77.472 222.084 77.928 221.924 78.84H225.092ZM240.601 82.464V87H238.585C234.873 87 233.017 85.152 233.017 81.456V77.904H231.337V73.464H233.017V70.2H238.345V73.464H240.553V77.904H238.345V81.552C238.345 81.872 238.417 82.104 238.561 82.248C238.721 82.392 238.977 82.464 239.329 82.464H240.601ZM248.654 87.168C247.374 87.168 246.238 86.96 245.246 86.544C244.27 86.128 243.494 85.552 242.918 84.816C242.342 84.08 242.014 83.248 241.934 82.32H247.046C247.11 82.72 247.278 83.016 247.55 83.208C247.838 83.4 248.198 83.496 248.63 83.496C248.902 83.496 249.118 83.44 249.278 83.328C249.438 83.2 249.518 83.048 249.518 82.872C249.518 82.568 249.35 82.352 249.014 82.224C248.678 82.096 248.11 81.952 247.31 81.792C246.334 81.6 245.526 81.392 244.886 81.168C244.262 80.944 243.71 80.56 243.23 80.016C242.766 79.472 242.534 78.72 242.534 77.76C242.534 76.928 242.75 76.176 243.182 75.504C243.63 74.816 244.286 74.28 245.15 73.896C246.014 73.496 247.062 73.296 248.294 73.296C250.118 73.296 251.542 73.744 252.566 74.64C253.606 75.536 254.23 76.704 254.438 78.144H249.71C249.63 77.776 249.462 77.496 249.206 77.304C248.95 77.096 248.606 76.992 248.174 76.992C247.902 76.992 247.694 77.048 247.55 77.16C247.406 77.256 247.334 77.408 247.334 77.616C247.334 77.888 247.502 78.096 247.838 78.24C248.174 78.368 248.71 78.504 249.446 78.648C250.422 78.84 251.246 79.056 251.918 79.296C252.59 79.536 253.174 79.952 253.67 80.544C254.166 81.12 254.414 81.92 254.414 82.944C254.414 83.744 254.182 84.464 253.718 85.104C253.254 85.744 252.582 86.248 251.702 86.616C250.838 86.984 249.822 87.168 248.654 87.168ZM273.71 80.112C273.71 80.48 273.686 80.832 273.638 81.168H265.07C265.15 82.336 265.638 82.92 266.534 82.92C267.11 82.92 267.526 82.656 267.782 82.128H273.422C273.23 83.088 272.822 83.952 272.198 84.72C271.59 85.472 270.814 86.072 269.87 86.52C268.942 86.952 267.918 87.168 266.798 87.168C265.454 87.168 264.254 86.888 263.198 86.328C262.158 85.768 261.342 84.968 260.75 83.928C260.174 82.872 259.886 81.64 259.886 80.232C259.886 78.824 260.174 77.6 260.75 76.56C261.342 75.504 262.158 74.696 263.198 74.136C264.254 73.576 265.454 73.296 266.798 73.296C268.142 73.296 269.334 73.576 270.374 74.136C271.43 74.68 272.246 75.464 272.822 76.488C273.414 77.512 273.71 78.72 273.71 80.112ZM268.31 78.84C268.31 78.392 268.166 78.056 267.878 77.832C267.59 77.592 267.23 77.472 266.798 77.472C265.854 77.472 265.302 77.928 265.142 78.84H268.31ZM274.675 80.232C274.675 78.808 274.915 77.576 275.395 76.536C275.891 75.48 276.563 74.68 277.411 74.136C278.259 73.576 279.211 73.296 280.267 73.296C281.147 73.296 281.907 73.48 282.547 73.848C283.187 74.2 283.675 74.688 284.011 75.312V73.464H289.315V87H284.011V85.152C283.675 85.776 283.187 86.272 282.547 86.64C281.907 86.992 281.147 87.168 280.267 87.168C279.211 87.168 278.259 86.896 277.411 86.352C276.563 85.792 275.891 84.992 275.395 83.952C274.915 82.896 274.675 81.656 274.675 80.232ZM284.011 80.232C284.011 79.512 283.827 78.952 283.459 78.552C283.091 78.152 282.619 77.952 282.043 77.952C281.467 77.952 280.995 78.152 280.627 78.552C280.259 78.952 280.075 79.512 280.075 80.232C280.075 80.952 280.259 81.512 280.627 81.912C280.995 82.312 281.467 82.512 282.043 82.512C282.619 82.512 283.091 82.312 283.459 81.912C283.827 81.512 284.011 80.952 284.011 80.232ZM297.732 87.168C296.452 87.168 295.316 86.96 294.324 86.544C293.348 86.128 292.572 85.552 291.996 84.816C291.42 84.08 291.092 83.248 291.012 82.32H296.124C296.188 82.72 296.356 83.016 296.628 83.208C296.916 83.4 297.276 83.496 297.708 83.496C297.98 83.496 298.196 83.44 298.356 83.328C298.516 83.2 298.596 83.048 298.596 82.872C298.596 82.568 298.428 82.352 298.092 82.224C297.756 82.096 297.188 81.952 296.388 81.792C295.412 81.6 294.604 81.392 293.964 81.168C293.34 80.944 292.788 80.56 292.308 80.016C291.844 79.472 291.612 78.72 291.612 77.76C291.612 76.928 291.828 76.176 292.26 75.504C292.708 74.816 293.364 74.28 294.228 73.896C295.092 73.496 296.14 73.296 297.372 73.296C299.196 73.296 300.62 73.744 301.644 74.64C302.684 75.536 303.308 76.704 303.516 78.144H298.788C298.708 77.776 298.54 77.496 298.284 77.304C298.028 77.096 297.684 76.992 297.252 76.992C296.98 76.992 296.772 77.048 296.628 77.16C296.484 77.256 296.412 77.408 296.412 77.616C296.412 77.888 296.58 78.096 296.916 78.24C297.252 78.368 297.788 78.504 298.524 78.648C299.5 78.84 300.324 79.056 300.996 79.296C301.668 79.536 302.252 79.952 302.748 80.544C303.244 81.12 303.492 81.92 303.492 82.944C303.492 83.744 303.26 84.464 302.796 85.104C302.332 85.744 301.66 86.248 300.78 86.616C299.916 86.984 298.9 87.168 297.732 87.168ZM320.894 73.464L312.23 93.48H306.398L309.806 86.328L304.166 73.464H310.094L312.638 80.328L315.014 73.464H320.894ZM335.407 73.368C336.959 73.368 338.167 73.888 339.031 74.928C339.911 75.968 340.351 77.376 340.351 79.152V87H335.047V79.824C335.047 79.184 334.871 78.68 334.519 78.312C334.183 77.928 333.727 77.736 333.151 77.736C332.559 77.736 332.095 77.928 331.759 78.312C331.423 78.68 331.255 79.184 331.255 79.824V87H325.927V73.464H331.255V75.528C331.671 74.888 332.223 74.368 332.911 73.968C333.615 73.568 334.447 73.368 335.407 73.368ZM349.093 87.168C347.733 87.168 346.509 86.888 345.421 86.328C344.333 85.768 343.477 84.968 342.853 83.928C342.245 82.872 341.941 81.64 341.941 80.232C341.941 78.824 342.245 77.6 342.853 76.56C343.477 75.504 344.333 74.696 345.421 74.136C346.509 73.576 347.733 73.296 349.093 73.296C350.453 73.296 351.677 73.576 352.765 74.136C353.853 74.696 354.701 75.504 355.309 76.56C355.933 77.6 356.245 78.824 356.245 80.232C356.245 81.64 355.933 82.872 355.309 83.928C354.701 84.968 353.853 85.768 352.765 86.328C351.677 86.888 350.453 87.168 349.093 87.168ZM349.093 82.56C349.589 82.56 350.005 82.368 350.341 81.984C350.677 81.584 350.845 81 350.845 80.232C350.845 79.464 350.677 78.888 350.341 78.504C350.005 78.104 349.589 77.904 349.093 77.904C348.597 77.904 348.181 78.104 347.845 78.504C347.509 78.888 347.341 79.464 347.341 80.232C347.341 81 347.501 81.584 347.821 81.984C348.157 82.368 348.581 82.56 349.093 82.56ZM378.463 73.464L375.247 87H369.247L367.615 79.368L365.887 87H359.887L356.695 73.464H361.975L363.103 81.696L364.855 73.464H370.543L372.391 81.792L373.543 73.464H378.463ZM382.238 87.192C381.31 87.192 380.566 86.944 380.006 86.448C379.446 85.952 379.166 85.328 379.166 84.576C379.166 83.808 379.446 83.176 380.006 82.68C380.566 82.168 381.31 81.912 382.238 81.912C383.15 81.912 383.886 82.168 384.446 82.68C385.006 83.176 385.286 83.808 385.286 84.576C385.286 85.328 385.006 85.952 384.446 86.448C383.886 86.944 383.15 87.192 382.238 87.192Z" fill="#3F3D56"/>
<path d="M-156.211 496.001H478.439V380.323H468.649V294.222C468.628 273.936 461.112 254.487 447.752 240.143C434.391 225.798 416.276 217.729 397.382 217.707H-76.3044C-95.1992 217.729 -113.314 225.798 -126.675 240.143C-140.035 254.487 -147.551 273.936 -147.572 294.222V380.323H-156.211V496.001Z" fill="#FFC882"/>
<path d="M-173.415 623.321H-141.822V622.702C-141.79 592.703 -130.676 563.942 -110.919 542.73C-91.1608 521.517 -64.3724 509.585 -36.4307 509.551H358.642C386.584 509.585 413.372 521.517 433.13 542.73C452.888 563.942 464.002 592.703 464.033 622.702V623.321H495.627C502.825 623.312 509.725 620.238 514.815 614.774C519.905 609.309 522.768 601.9 522.776 594.172V405.078C531.95 399.513 539.412 369.289 534.565 345.152C531.523 330.005 522.743 311.711 498.184 310.579C474.278 309.475 456.533 333.571 454.948 356.767C454.089 368.973 457.428 381.094 464.333 390.834H464.033V417.81C412.192 399.974 360.277 390.898 309.72 390.834C257.984 390.889 206.609 400.068 157.646 418.007C55.8436 382.656 -44.9042 381.968 -141.822 415.97V390.834H-142.121C-135.216 381.094 -131.877 368.973 -132.736 356.767C-134.475 331.325 -153.859 310.605 -175.947 310.578H-176.021C-202.068 310.578 -211.28 327.413 -214.423 341.544C-219.984 366.551 -209.774 399.467 -200.564 405.077V594.172C-200.556 601.9 -197.693 609.309 -192.604 614.774C-187.514 620.238 -180.613 623.312 -173.415 623.321Z" fill="#FB8C00"/>
<path d="M49.0911 428.32C49.0911 428.32 39.5921 411.587 27.3965 421.481C15.201 431.374 -7.38416 448.066 -7.38416 448.066C-7.38416 448.066 -12.0101 458.742 -0.0372554 454.732C11.9356 450.722 51.0205 444.268 51.0205 444.268L49.0911 428.32Z" fill="#9E616A"/>
<path d="M95.759 449.116C105.98 449.116 115.337 448.065 122.771 445.58C131.608 442.625 137.156 437.848 139.264 431.37C140.254 428.619 140.55 425.636 140.121 422.724C139.692 419.811 138.554 417.071 136.821 414.783C123.749 396.495 78.3852 391.337 72.2985 390.727L59.95 365.623C59.1599 359.633 62.8981 355.099 56.4396 354.986L-19.9602 353.872C-26.3031 353.729 -24.5029 357.946 -25.589 363.786L-37.229 386.095L12.8677 408.795L5.29346 428.61L5.78775 428.919C20.4496 438.05 62.6146 449.115 95.759 449.116Z" fill="#2F2E41"/>
<path d="M-30.2942 387.048C-30.2942 387.048 -100.257 378.452 -95.6946 412.837C-91.1318 447.221 -37.8989 471.576 42.7109 412.837L33.5853 395.644C33.5853 395.644 3.54662 394.04 -14.7047 385.444L-30.2942 387.048Z" fill="#2F2E41"/>
<path d="M-23.8253 213.037L1.32687 202.937L50.0792 202.261L71.0645 213.037L65.1705 249.405C65.1705 249.405 77.0706 271.039 63.9682 292.675L61.028 369.77C61.028 369.77 14.0246 399.034 -25.6502 363.893L-16.683 292.213C-16.683 292.213 -31.6818 258.956 -20.0562 246.601L-23.8253 213.037Z" fill="#3F3D56"/>
<path d="M-11.2711 419.967C-11.2711 419.967 -3.43687 402.269 9.64721 410.753C22.7313 419.237 46.8049 433.328 46.8049 433.328C46.8049 433.328 52.4357 443.433 40.1404 440.776C27.8452 438.118 -11.6521 436.044 -11.6521 436.044L-11.2711 419.967Z" fill="#9E616A"/>
<path d="M1.00161 361.492H50.0724C51.3074 361.492 52.4919 360.965 53.3652 360.027C54.2385 359.09 54.7292 357.818 54.7292 356.492L56.8916 287.557C56.8916 286.231 56.401 284.959 55.5277 284.021C54.6544 283.084 53.4698 282.557 52.2348 282.557H-1.16079C-2.39584 282.557 -3.58031 283.084 -4.45363 284.021C-5.32694 284.959 -5.81761 286.231 -5.81761 287.557L-3.65514 356.492C-3.65514 357.818 -3.16455 359.09 -2.29123 360.027C-1.41791 360.965 -0.233447 361.492 1.00161 361.492Z" fill="white"/>
<path d="M25.5386 308.096C23.1501 308.096 21.2138 306.017 21.2138 303.453C21.2138 300.888 23.1501 298.81 25.5386 298.81C27.9271 298.81 29.8633 300.888 29.8633 303.453C29.8633 306.017 27.9271 308.096 25.5386 308.096Z" fill="#F9A826"/>
<path d="M24.1879 334.053C24.943 332.401 26.0264 330.947 27.3616 329.793C28.6968 328.639 30.2514 327.814 31.9159 327.374C33.5804 326.935 35.3144 326.894 36.9957 327.252C38.6769 327.61 40.2645 328.36 41.6467 329.448L64.5605 314.541L76.3945 327.281L43.7605 347.845C41.9037 350.217 39.3011 351.775 36.4458 352.224C33.5905 352.674 30.6809 351.983 28.2683 350.283C25.8558 348.583 24.1079 345.992 23.3558 343C22.6038 340.009 22.8998 336.826 24.1879 334.053Z" fill="#9E616A"/>
<path d="M25.2867 328.44C24.2599 326.966 22.9446 325.752 21.4336 324.884C19.9226 324.015 18.2525 323.512 16.5411 323.412C14.8296 323.311 13.1183 323.614 11.5279 324.3C9.93739 324.986 8.50638 326.038 7.33559 327.382L-17.7516 317.284L-27.1858 332.156L8.42878 345.882C10.6622 347.844 13.4884 348.858 16.3718 348.732C19.2553 348.607 21.9955 347.35 24.0735 345.2C26.1514 343.05 27.4226 340.156 27.6462 337.067C27.8698 333.978 27.0303 330.909 25.2867 328.44Z" fill="#9E616A"/>
<path d="M-21.1159 212.735C-21.1159 212.735 -37.4041 209.237 -41.7475 224.393C-46.0909 239.549 -67.8084 295.508 -61.2931 303.669C-54.7779 311.83 -30.8887 333.981 -23.2876 338.644C-15.6865 343.307 -12.4289 343.307 -12.4289 343.307L-2.65606 347.971L0.601562 321.157L-10.5436 314.069L-27.6311 299.006L-17.8583 267.529L-21.1159 212.735Z" fill="#3F3D56"/>
<path d="M69.1735 213.231C69.1735 213.231 85.4615 209.734 89.805 224.889C94.1484 240.045 115.866 296.005 109.351 304.166C102.835 312.327 78.9462 334.477 71.3452 339.141C63.7442 343.804 60.4865 343.804 60.4865 343.804L50.7136 348.467L47.456 321.653L58.6012 314.565L75.6887 299.502L59.9435 258.116L69.1735 213.231Z" fill="#3F3D56"/>
<path d="M23.7784 192.153C3.04844 192.153 -13.7565 174.11 -13.7565 151.854C-13.7565 129.598 3.04844 111.555 23.7784 111.555C44.5084 111.555 61.3135 129.598 61.3135 151.854C61.3135 174.11 44.5084 192.153 23.7784 192.153Z" fill="#9E616A"/>
<path d="M-13.5555 122.378C-11.0464 116.509 -6.57293 111.869 -1.0239 109.38C4.47617 106.998 10.623 107.004 16.1192 109.396C21.0814 106.03 26.5949 103.361 32.4014 103.031C38.2079 102.7 44.3471 105.013 47.9253 110.104C48.7244 111.448 49.6319 112.714 50.6375 113.887C53.5138 116.747 57.885 116.335 61.7081 115.75C59.9933 117.328 58.2781 118.906 56.5625 120.483C58.6382 121.066 60.7141 121.648 62.7902 122.23C60.3677 123.807 57.9454 125.385 55.5234 126.962C62.5555 131.494 65.7517 141.384 64.9075 150.367C64.1088 158.872 60.2844 166.649 55.7126 173.562C53.8889 169.43 54.2818 164.485 54.312 159.832C54.3434 154.915 53.5331 149.331 49.8632 146.583C47.3875 144.729 44.2041 144.646 41.2188 144.664C26.1604 144.753 11.1188 145.761 -3.83293 147.683C-5.86181 147.778 -7.83994 148.394 -9.60094 149.48C-12.9074 151.901 -13.5517 156.899 -13.8837 161.284C-15.6306 154.044 -16.4855 146.59 -16.4266 139.111C-16.3805 133.387 -15.7677 127.547 -13.5555 122.378Z" fill="#2F2E41"/>
<path d="M376.01 152.754C373.616 155.304 372.245 158.759 372.19 162.38C372.135 166.001 373.401 169.502 375.717 172.135C376.195 172.661 376.714 173.144 377.267 173.578L364.28 220.06L386.381 212.639L395.326 169.636C396.836 167.04 397.501 163.979 397.216 160.933C396.931 157.887 395.713 155.029 393.753 152.806C392.602 151.532 391.224 150.518 389.703 149.825C388.181 149.131 386.545 148.771 384.892 148.766C383.239 148.761 381.601 149.111 380.076 149.796C378.55 150.481 377.168 151.486 376.01 152.754Z" fill="#FFB6B6"/>
<path d="M234.13 471.557L223.205 460.962L256.922 409.667L273.046 425.307L234.13 471.557Z" fill="#FEB8B8"/>
<path d="M368.695 200.369L366.159 208.646L354.76 245.82C353.979 248.27 353.656 250.86 353.809 253.444C353.962 256.028 354.588 258.554 355.651 260.878C356.713 263.202 358.192 265.279 360.003 266.989C361.814 268.699 363.92 270.009 366.203 270.844C370.424 272.326 375.007 272.075 379.066 270.14L443.215 238.797C445.74 237.6 447.995 235.831 449.826 233.612C451.656 231.394 453.019 228.777 453.82 225.94C454.622 223.104 454.844 220.115 454.47 217.179C454.097 214.242 453.138 211.426 451.658 208.925C449.162 204.721 445.269 201.696 440.769 200.465C436.27 199.235 431.503 199.89 427.439 202.299L382.971 229.402L387.992 203.697L368.695 200.369Z" fill="#F9A826"/>
<path d="M267.751 467.607L289.659 478.437L334.283 384.803C372.539 407.731 410.169 424.677 446.386 428.154C452.349 428.672 458.263 426.649 462.849 422.524C467.434 418.398 470.324 412.501 470.893 406.107C470.953 405.481 470.991 404.853 471.006 404.224C471.306 389.691 468.881 373.079 465.382 355.646L403.769 356.47L398.743 364.73L343.195 334.623C340.502 333.198 337.572 332.359 334.576 332.156C331.579 331.952 328.575 332.387 325.735 333.436C322.896 334.485 320.278 336.126 318.032 338.266C315.787 340.407 313.958 343.003 312.651 345.905C312.35 346.554 312.076 347.216 311.827 347.89L267.751 467.607Z" fill="#2F2E41"/>
<path d="M240.103 433.874L262.011 444.704L332.68 370.067C370.936 392.995 408.565 409.941 444.783 413.419C450.746 413.936 456.659 411.913 461.245 407.788C465.831 403.662 468.72 397.765 469.289 391.371C469.349 390.745 469.387 390.117 469.403 389.488C469.702 374.955 467.278 358.343 463.779 340.91L398.584 322.673L397.139 349.995L341.592 319.887C338.898 318.462 335.969 317.624 332.972 317.42C329.976 317.216 326.971 317.651 324.132 318.7C321.292 319.749 318.674 321.391 316.429 323.531C314.183 325.671 312.354 328.267 311.048 331.169C310.747 331.818 310.472 332.48 310.224 333.154L240.103 433.874Z" fill="#2F2E41"/>
<path d="M441.798 184.927C426.445 179.119 418.484 160.75 424.015 143.9C429.546 127.05 446.475 118.099 461.827 123.908C477.18 129.717 485.141 148.085 479.61 164.935C474.079 181.786 457.15 190.736 441.798 184.927Z" fill="#FFB6B6"/>
<path d="M403.597 192.609C403.695 193.258 403.555 193.922 403.206 194.462C402.858 195.002 402.327 195.376 401.727 195.505C400.951 195.322 379.513 200.809 379.469 199.235C379.222 199.044 379.013 198.801 378.854 198.521C378.696 198.241 378.591 197.93 378.546 197.607L368.98 130.473C368.927 130.105 368.95 129.729 369.048 129.371C369.146 129.014 369.315 128.684 369.545 128.405C369.245 126.655 391.234 128.698 392.065 128.521C392.586 128.545 393.084 128.763 393.472 129.138C393.86 129.512 394.114 130.02 394.191 130.574L403.597 192.609Z" fill="#3F3D56"/>
<path d="M373.405 130.809C373.405 130.809 391.948 132.093 391.735 131.769C392.199 131.922 393.353 131.562 393.407 132.403L402.182 191.425C402.904 192.913 382.309 195.039 381.988 195.506C380.279 195.922 373.417 132.169 372.746 131.601C372.721 131.423 372.762 131.241 372.86 131.095C372.958 130.948 373.105 130.849 373.271 130.817C373.315 130.809 373.36 130.806 373.405 130.809Z" fill="#F9A826"/>
<path d="M420.721 195.873C420.695 195.097 420.765 194.322 420.929 193.566C421.394 191.357 422.654 189.434 424.434 188.218C426.214 187.002 428.37 186.591 430.431 187.075L443.866 190.407C444.878 190.669 445.833 191.144 446.674 191.804C447.515 192.465 448.226 193.297 448.766 194.253C449.306 195.209 449.665 196.271 449.822 197.377C449.978 198.483 449.93 199.611 449.678 200.696C449.257 202.63 448.234 204.352 446.779 205.578C453.148 208.867 458.481 214.086 462.119 220.591C465.758 227.096 467.542 234.603 467.252 242.184C471.658 272.493 471.176 305.439 464.042 341.982L397.067 349.525L391.686 291.077L389.721 282.005C389.185 280.703 388.687 279.417 388.238 278.13C385.516 270.921 383.945 263.272 383.592 255.502C383.389 249.953 384.02 244.405 385.462 239.071C390.077 222.011 402.889 208.01 420.721 195.873Z" fill="#EDEDED"/>
<path opacity="0.2" d="M383.586 255.502C383.939 263.271 385.51 270.921 388.232 278.13C388.681 279.417 389.179 280.703 389.715 282.005L391.681 291.077C412.172 284.165 442.165 237.772 442.165 237.772L425.13 227.032L383.586 255.502Z" fill="black"/>
<path d="M398.618 171.792C399.25 175.351 398.564 179.035 396.705 182.059C394.846 185.084 391.961 187.21 388.664 187.985C387.991 188.131 387.309 188.218 386.623 188.243L372.9 234.483L358.541 215.029L373.774 174.102C373.896 171.041 374.958 168.109 376.795 165.765C378.632 163.42 381.141 161.795 383.929 161.142C385.546 160.78 387.215 160.771 388.836 161.113C390.458 161.456 391.998 162.144 393.368 163.137C394.737 164.13 395.907 165.407 396.809 166.894C397.711 168.38 398.326 170.046 398.618 171.792Z" fill="#FFB6B6"/>
<path d="M380.191 217.828L358.881 213.248L344.944 258.696C343.938 261.934 343.72 265.394 344.31 268.748C344.901 272.101 346.28 275.237 348.318 277.857C350.814 281.038 354.204 283.261 357.98 284.192C361.755 285.123 365.709 284.711 369.247 283.019L433.397 251.671C437.895 249.513 441.452 245.587 443.336 240.7C445.22 235.813 445.288 230.336 443.526 225.397C442.658 222.941 441.34 220.697 439.649 218.799C437.958 216.901 435.929 215.386 433.682 214.346C431.436 213.306 429.017 212.761 426.571 212.743C424.124 212.725 421.699 213.236 419.44 214.244C418.817 214.519 418.209 214.83 417.618 215.176L373.157 242.279L380.191 217.828Z" fill="#F9F9F9"/>
<path d="M438.989 110.697C446.16 109.192 453.393 111.919 460.215 114.606C465.157 116.552 470.099 118.498 475.042 120.445C481.041 122.807 487.342 125.398 491.338 130.805C495.334 136.213 495.824 145.376 490.639 149.563C503.875 143.763 519.47 147.957 530.549 157.48C536.124 162.059 540.423 168.19 542.982 175.206C545.585 182.902 545.437 191.487 543.857 199.569C542.278 207.651 539.333 215.345 536.404 222.984C534.563 227.788 532.235 233.11 527.733 234.813C523.579 236.384 518.976 234.168 515.824 230.898C510.328 225.197 508.014 216.73 506.909 208.499C505.803 200.268 505.674 191.818 503.551 183.843C501.428 175.868 496.818 168.125 489.667 165.316C492.054 174.768 489.318 186.156 481.777 191.652C476.354 195.605 469.32 196.061 463.028 194.472C456.736 192.883 451.003 189.456 445.36 186.066C441.539 183.771 437.209 180.573 437.268 175.782C437.325 171.084 441.549 167.915 444.151 164.136C449.174 156.842 447.586 145.251 440.851 140.052L441.676 139.635C435.146 138.234 427.989 134.534 426.6 127.427C425.084 119.669 431.818 112.201 438.989 110.697Z" fill="#2F2E41"/>
<path d="M428.471 437.263C434.897 437.259 441.263 435.954 447.238 433.417C453.229 430.938 458.702 427.209 463.343 422.445C467.983 417.682 471.698 411.978 474.273 405.665L511.215 314.515C521.837 288.309 509.933 258.02 484.68 246.997L484.052 246.723L408.585 432.928L409.212 433.202C415.327 435.879 421.867 437.258 428.471 437.263Z" fill="#3F3D56"/>
</g>
<defs>
<clipPath id="clip0_966_1533">
<rect width="545" height="424" fill="white"/>
</clipPath>
</defs>
</svg>
