<svg width="453" height="453" viewBox="0 0 453 453" fill="none" xmlns="http://www.w3.org/2000/svg">
<g clip-path="url(#clip0_2996_1055)">
<rect width="453" height="453" fill="white"/>
<path d="M206.288 15.5968C41.0966 -60.2544 242.351 -236.088 363.628 -314.523L984.382 347.158C953.769 375.878 906.461 474.53 783.006 473.325C628.688 471.82 441.914 560.013 352.16 355.684C262.407 151.354 412.778 110.411 206.288 15.5968Z" fill="#FFE0B8"/>
<path d="M44.5549 190.887C-147.299 203.083 15.4059 -119.912 120.74 -282.934L941.422 103.898C917.195 155.296 894.128 297.065 765.44 369.913C604.58 460.974 433.725 674.588 286.291 493.839C138.857 313.091 284.372 175.641 44.5549 190.887Z" fill="#FFC882" fill-opacity="0.39"/>
<path d="M117.646 38.2032L106.502 86.9058H87.5166L81.8759 59.2526L76.2352 86.9058H57.2495L46.1057 38.2032H62.5462L66.9487 68.8831L73.5524 38.2032H90.1993L96.8031 68.8831L101.206 38.2032H117.646ZM168.179 38.2032V86.9058H152.908V67.92H138.393V86.9058H123.122V38.2032H138.393V55.7444H152.908V38.2032H168.179ZM221.826 38.2032L204.354 72.1162V86.9058H189.083V72.1162L171.61 38.2032H189.083L196.856 55.4692L204.629 38.2032H221.826Z" fill="#F97837"/>
<path d="M102.325 163.278V208.417H88.2346V185.911L81.2853 208.417H69.1717L62.2224 185.911V208.417H48.0686V163.278H65.4101L75.356 190.374L85.0469 163.278H102.325ZM130.707 208.863C126.456 208.863 122.546 207.864 118.976 205.866C115.448 203.869 112.643 201.106 110.56 197.578C108.477 194.05 107.436 190.076 107.436 185.656C107.436 181.235 108.477 177.261 110.56 173.733C112.643 170.206 115.448 167.464 118.976 165.509C122.546 163.511 126.456 162.513 130.707 162.513C134.957 162.513 138.846 163.511 142.374 165.509C145.902 167.464 148.686 170.206 150.726 173.733C152.809 177.261 153.85 181.235 153.85 185.656C153.85 190.076 152.809 194.05 150.726 197.578C148.686 201.106 145.881 203.869 142.31 205.866C138.782 207.864 134.915 208.863 130.707 208.863ZM130.707 195.665C133.512 195.665 135.68 194.773 137.21 192.988C138.74 191.16 139.505 188.716 139.505 185.656C139.505 182.553 138.74 180.109 137.21 178.324C135.68 176.496 133.512 175.582 130.707 175.582C127.859 175.582 125.67 176.496 124.14 178.324C122.61 180.109 121.845 182.553 121.845 185.656C121.845 188.716 122.61 191.16 124.14 192.988C125.67 194.773 127.859 195.665 130.707 195.665ZM181.653 208.417L173.173 192.223H173.11V208.417H158.956V163.278H179.995C183.651 163.278 186.775 163.936 189.367 165.254C191.96 166.529 193.894 168.293 195.169 170.546C196.487 172.756 197.146 175.264 197.146 178.069C197.146 181.087 196.295 183.764 194.595 186.102C192.938 188.44 190.536 190.119 187.391 191.139L197.209 208.417H181.653ZM173.11 182.787H178.72C180.08 182.787 181.1 182.489 181.78 181.894C182.46 181.257 182.801 180.279 182.801 178.961C182.801 177.771 182.439 176.836 181.717 176.156C181.037 175.476 180.038 175.136 178.72 175.136H173.11V182.787ZM215.821 174.562V180.109H229.847V190.756H215.821V197.132H231.76V208.417H201.667V163.278H231.76V174.562H215.821ZM262.081 159.133C266.799 159.133 270.582 160.324 273.43 162.704C276.32 165.041 277.765 168.484 277.765 173.032C277.765 176.773 276.49 179.79 273.94 182.085C271.432 184.381 268.138 185.571 264.057 185.656L263.675 190.182H251.179L250.796 176.666H256.152C258.659 176.666 260.572 176.39 261.89 175.837C263.25 175.285 263.93 174.392 263.93 173.16C263.93 172.352 263.717 171.736 263.292 171.311C262.91 170.843 262.379 170.609 261.698 170.609C260.848 170.609 260.211 170.886 259.786 171.438C259.403 171.948 259.212 172.628 259.212 173.478H245.887C245.76 170.843 246.27 168.442 247.417 166.274C248.607 164.106 250.435 162.385 252.9 161.11C255.365 159.792 258.426 159.133 262.081 159.133ZM257.618 208.927C255.153 208.927 253.177 208.268 251.689 206.95C250.201 205.633 249.457 203.975 249.457 201.977C249.457 199.937 250.201 198.258 251.689 196.941C253.177 195.58 255.153 194.9 257.618 194.9C260.041 194.9 261.996 195.58 263.484 196.941C264.971 198.258 265.715 199.937 265.715 201.977C265.715 203.975 264.971 205.633 263.484 206.95C261.996 208.268 260.041 208.927 257.618 208.927Z" fill="#F97837"/>
<path d="M88.987 119.094C88.987 122.166 88.2761 124.964 86.8545 127.486C85.4329 129.962 83.3233 131.934 80.5259 133.402C77.7744 134.869 74.4266 135.603 70.4827 135.603H64.4293V151.081H49.1582V102.378H70.4827C76.4444 102.378 81.0074 103.891 84.1717 106.918C87.3819 109.945 88.987 114.003 88.987 119.094ZM68.763 123.565C71.9273 123.565 73.5095 122.075 73.5095 119.094C73.5095 116.113 71.9273 114.622 68.763 114.622H64.4293V123.565H68.763ZM125.061 143.72H108.827L106.419 151.081H90.3912L108.208 102.378H125.817L143.565 151.081H127.468L125.061 143.72ZM121.346 132.232L116.944 118.681L112.541 132.232H121.346ZM193.811 102.378L176.339 136.291V151.081H161.067V136.291L143.595 102.378H161.067L168.841 119.644L176.614 102.378H193.811Z" fill="#F97837"/>
<rect x="271.858" y="35.4912" width="162.857" height="69.0688" rx="10.9056" fill="white"/>
<path d="M335.612 149.213C335.107 148.4 335.107 148.31 335.954 146.406C336.972 144.102 337.45 141.595 337.35 139.078C337.249 136.56 336.574 134.099 335.376 131.883C333.025 127.492 332.443 122.369 333.747 117.563C334.944 113.275 336.597 111.558 338.095 113.039C338.828 113.853 338.812 114.007 337.346 118.018C336.716 120.056 336.498 122.199 336.703 124.322C336.909 126.445 337.534 128.506 338.543 130.386C339.963 133.104 340.744 136.11 340.827 139.175C340.911 142.24 340.294 145.283 339.024 148.074C338.209 149.58 338.022 149.824 337.135 149.921C336.833 150.004 336.511 149.976 336.229 149.841C335.946 149.707 335.721 149.475 335.596 149.189L335.612 149.213ZM352.06 149.539C351.335 148.807 351.482 148.058 352.451 145.69C353.077 144.099 353.403 142.405 353.412 140.695C353.65 137.581 352.959 134.466 351.425 131.745C349.955 128.952 349.239 125.825 349.348 122.673C349.348 118.246 351.083 113.039 352.662 112.632C352.89 112.542 353.135 112.506 353.379 112.529C353.623 112.552 353.858 112.632 354.064 112.763C354.271 112.894 354.443 113.072 354.568 113.283C354.692 113.493 354.765 113.731 354.78 113.975C354.623 114.991 354.33 115.982 353.908 116.92C353.136 118.787 352.839 120.817 353.045 122.827C352.762 124.951 353.132 127.11 354.104 129.019C355.961 131.978 356.941 135.403 356.929 138.896C357.28 142.111 356.665 145.357 355.162 148.221C354.446 149.571 354.144 149.848 353.314 149.954C353.076 150 352.83 149.989 352.596 149.923C352.363 149.856 352.149 149.736 351.97 149.571L352.06 149.539ZM368.223 149.539C367.669 148.961 367.84 148.082 369.037 144.926C369.624 143.352 369.9 141.681 369.851 140.003C369.913 137.165 369.231 134.36 367.873 131.867C367.18 130.38 366.6 128.843 366.138 127.27C365.499 124.29 365.499 121.209 366.138 118.23C366.561 116.242 367.393 114.363 368.581 112.714C368.966 112.49 369.423 112.426 369.855 112.533C370.287 112.641 370.659 112.913 370.894 113.291C371.39 114.056 371.374 114.194 370.373 116.692C369.462 118.846 369.045 121.175 369.151 123.51C369.256 125.846 369.882 128.128 370.983 130.191C372.592 133.137 373.403 136.452 373.336 139.808C373.458 141.827 373.181 143.851 372.522 145.764C371.504 148.864 370.698 149.994 369.485 149.994C369.247 150.014 369.008 149.981 368.784 149.898C368.561 149.815 368.358 149.684 368.19 149.514L368.223 149.539ZM272.8 102.6C272.423 102.226 272.143 101.765 271.986 101.258C271.85 91.5265 271.823 81.7953 271.904 72.0642L271.986 43.5869L273.044 41.4714C274.192 39.0282 276.231 37.1158 278.744 36.1258C280.478 35.4912 280.861 35.4912 353.314 35.4912C425.767 35.4912 426.166 35.4912 427.9 36.1258C430.409 37.1099 432.447 39.013 433.6 41.447L434.634 43.5625L434.715 72.0642C434.715 87.7186 434.715 100.883 434.618 101.258C434.46 101.765 434.18 102.226 433.803 102.6C433.168 103.235 432.403 103.235 353.298 103.235C274.192 103.235 273.435 103.121 272.8 102.486V102.6ZM279.843 90.3955C279.941 83.0728 279.998 82.6252 280.706 81.1688C281.248 80.1399 282.044 79.2661 283.019 78.6303L284.517 77.6132H422.298L423.78 78.6303C424.724 79.2837 425.491 80.1617 426.011 81.1851C426.727 82.6253 426.784 83.0728 426.825 90.4199L426.939 98.1088H429.447V71.5923C429.447 42.936 429.447 43.8066 427.77 42.2444L427.004 41.5121L426.809 43.7252C426.83 45.1003 426.445 46.451 425.702 47.6087C424.959 48.7664 423.891 49.6796 422.632 50.2343C421.589 50.6737 414.106 50.7306 353.355 50.7306C292.603 50.7306 285.152 50.8608 284.077 50.4377C282.815 49.8923 281.747 48.9794 281.012 47.8183C280.277 46.6572 279.91 45.3017 279.957 43.9286L279.77 41.74L278.956 42.4722C277.221 44.01 277.262 43.1801 277.262 71.7632V98.2959H279.762L279.843 90.3955ZM344.381 73.5369C344.123 73.4046 343.903 73.2089 343.741 72.968C343.58 72.7272 343.482 72.4493 343.458 72.1604C343.433 71.8715 343.483 71.5811 343.602 71.3166C343.721 71.0521 343.905 70.8222 344.137 70.6485C344.748 70.2091 346.075 70.1278 353.298 70.1278C362.816 70.1278 363.297 70.2254 363.109 72.1537C362.938 73.8217 362.336 73.9356 353.338 73.9356C350.361 74.1164 347.373 73.9882 344.422 73.5532L344.381 73.5369ZM405.964 72.8616C405.826 72.6552 405.736 72.42 405.703 72.1739C405.67 71.9277 405.694 71.6773 405.772 71.4417C405.851 71.2061 405.982 70.9916 406.157 70.8146C406.331 70.6376 406.544 70.5029 406.778 70.4207C408.227 69.6559 409.783 72.048 408.594 73.2277C408.395 73.3811 408.168 73.4931 407.926 73.5571C407.683 73.621 407.43 73.6356 407.182 73.5999C406.933 73.5642 406.695 73.479 406.48 73.3494C406.265 73.2198 406.078 73.0484 405.931 72.8453L405.964 72.8616ZM414.253 72.9185C414.007 72.6084 413.883 72.2195 413.903 71.8245C413.924 71.4295 414.088 71.0554 414.364 70.7722C414.64 70.4891 415.011 70.3162 415.405 70.2859C415.8 70.2557 416.192 70.3701 416.508 70.6078C416.736 70.7318 416.931 70.9066 417.08 71.1187C417.228 71.3307 417.325 71.5742 417.364 71.83C417.402 72.0859 417.381 72.3471 417.301 72.5933C417.222 72.8396 417.086 73.0641 416.906 73.2493C416.725 73.4345 416.504 73.5753 416.259 73.6609C416.015 73.7464 415.754 73.7742 415.497 73.7422C415.24 73.7101 414.994 73.6191 414.778 73.4762C414.562 73.3333 414.383 73.1425 414.253 72.9185ZM422.99 96.6849V95.261H283.613V98.1088H422.99V96.6849ZM422.99 90.0131V88.2638H283.613V91.7624H422.99V90.0131ZM422.99 83.7237C422.91 83.2006 422.704 82.705 422.389 82.2796C422.074 81.8543 421.66 81.5121 421.182 81.2827C420.686 81.0387 402.153 80.9247 353.298 80.9247C304.442 80.9247 285.942 81.0387 285.421 81.2827C284.952 81.5229 284.544 81.8681 284.231 82.2916C283.917 82.715 283.706 83.2051 283.613 83.7237V84.4397H422.99V83.7237ZM422.029 46.2963C422.892 45.4339 422.99 45.206 422.99 42.9685V40.5276H283.597V42.9685C283.597 45.1979 283.654 45.4095 284.517 46.2963L285.478 47.2401H421.028L422.029 46.2963Z" fill="#F9A826"/>
<g filter="url(#filter0_d_2996_1055)">
<path fill-rule="evenodd" clip-rule="evenodd" d="M313 353.513V371.833C313 417.89 313 440.925 324.647 455.227C327.695 458.952 331.344 461.852 335.359 463.74V481.755C335.359 486.811 338.698 490.915 342.812 490.915H352.75C354.727 490.915 356.622 489.95 358.02 488.232C359.418 486.514 360.203 484.184 360.203 481.755V468.967C369.097 469.541 379.7 469.541 392.5 469.541C405.299 469.541 415.903 469.541 424.797 468.967V481.755C424.797 486.811 428.136 490.915 432.25 490.915H442.187C444.164 490.915 446.06 489.95 447.458 488.232C448.855 486.514 449.641 484.184 449.641 481.755V463.74C453.656 461.852 457.305 458.952 460.353 455.227C472 440.925 472 417.89 472 371.833V353.513H313ZM442.187 374.886C444.164 374.886 446.06 375.851 447.458 377.569C448.855 379.287 449.641 381.617 449.641 384.046V408.474C449.641 410.903 448.855 413.233 447.458 414.951C446.06 416.669 444.164 417.634 442.187 417.634C440.211 417.634 438.315 416.669 436.917 414.951C435.52 413.233 434.734 410.903 434.734 408.474V384.046C434.734 381.617 435.52 379.287 436.917 377.569C438.315 375.851 440.211 374.886 442.187 374.886Z" fill="#F9AD4F"/>
<path d="M313 335.116C313 288.867 313 265.736 324.647 251.374C336.293 237.012 355.026 237 392.5 237C429.974 237 448.716 237 460.353 251.374C471.99 265.748 472 288.867 472 335.116V353.513H313V335.116Z" fill="white"/>
<path d="M449.769 298.141C449.769 295.714 448.975 293.386 447.562 291.67C446.149 289.954 444.232 288.99 442.234 288.99C440.235 288.99 438.319 289.954 436.905 291.67C435.492 293.386 434.698 295.714 434.698 298.141V322.544C434.698 324.972 435.492 327.299 436.905 329.015C438.319 330.732 440.235 331.696 442.234 331.696C444.232 331.696 446.149 330.732 447.562 329.015C448.975 327.299 449.769 324.972 449.769 322.544V298.141Z" fill="#FB8C00"/>
</g>
<path d="M51.3944 237.119C50.5181 237.119 49.7328 236.977 49.0386 236.693C48.3444 236.408 47.7867 235.987 47.3657 235.429C46.956 234.872 46.7397 234.2 46.717 233.415H49.8239C49.8694 233.859 50.023 234.2 50.2848 234.439C50.5465 234.667 50.8879 234.781 51.309 234.781C51.7415 234.781 52.0829 234.684 52.3333 234.491C52.5836 234.286 52.7088 234.007 52.7088 233.654C52.7088 233.358 52.6064 233.114 52.4015 232.92C52.2081 232.727 51.9634 232.567 51.6675 232.442C51.383 232.317 50.9733 232.175 50.4384 232.015C49.6645 231.776 49.0329 231.537 48.5435 231.298C48.0542 231.059 47.6331 230.707 47.2803 230.24C46.9275 229.773 46.7511 229.165 46.7511 228.413C46.7511 227.298 47.1551 226.428 47.9631 225.802C48.7712 225.164 49.8239 224.846 51.1212 224.846C52.4414 224.846 53.5055 225.164 54.3135 225.802C55.1215 226.428 55.5539 227.304 55.6108 228.43H52.4528C52.43 228.044 52.2877 227.742 52.026 227.526C51.7642 227.298 51.4285 227.184 51.0188 227.184C50.666 227.184 50.3815 227.281 50.1653 227.475C49.949 227.657 49.8409 227.924 49.8409 228.277C49.8409 228.664 50.023 228.965 50.3872 229.182C50.7514 229.398 51.3204 229.631 52.0943 229.881C52.8681 230.143 53.4941 230.394 53.9721 230.633C54.4614 230.872 54.8825 231.219 55.2353 231.674C55.5881 232.129 55.7645 232.715 55.7645 233.432C55.7645 234.115 55.5881 234.735 55.2353 235.293C54.8939 235.851 54.3931 236.294 53.7331 236.624C53.073 236.954 52.2934 237.119 51.3944 237.119ZM66.1817 225.016V227.355H63.0065V237H60.0874V227.355H56.9122V225.016H66.1817ZM75.1066 234.883H70.6341L69.9171 237H66.8614L71.1974 225.016H74.5774L78.9134 237H75.8236L75.1066 234.883ZM74.3555 232.63L72.8703 228.243L71.4022 232.63H74.3555ZM86.3444 237L83.852 232.476H83.1521V237H80.233V225.016H85.1323C86.0769 225.016 86.8793 225.181 87.5393 225.511C88.2108 225.841 88.7115 226.297 89.0416 226.877C89.3716 227.446 89.5366 228.083 89.5366 228.789C89.5366 229.586 89.309 230.297 88.8538 230.923C88.4099 231.549 87.7499 231.993 86.8736 232.254L89.639 237H86.3444ZM83.1521 230.411H84.9616C85.4965 230.411 85.8948 230.28 86.1566 230.018C86.4297 229.756 86.5663 229.386 86.5663 228.908C86.5663 228.453 86.4297 228.095 86.1566 227.833C85.8948 227.571 85.4965 227.44 84.9616 227.44H83.1521V230.411ZM99.9898 225.016V227.355H96.8146V237H93.8955V227.355H90.7204V225.016H99.9898ZM112.327 230.855C113.022 231.002 113.579 231.35 114 231.896C114.421 232.431 114.632 233.045 114.632 233.739C114.632 234.741 114.279 235.538 113.574 236.129C112.879 236.71 111.906 237 110.654 237H105.072V225.016H110.467C111.684 225.016 112.635 225.295 113.318 225.853C114.012 226.41 114.359 227.167 114.359 228.123C114.359 228.829 114.171 229.415 113.796 229.881C113.431 230.348 112.942 230.672 112.327 230.855ZM107.991 229.864H109.903C110.381 229.864 110.746 229.762 110.996 229.557C111.258 229.341 111.389 229.028 111.389 228.618C111.389 228.209 111.258 227.896 110.996 227.679C110.746 227.463 110.381 227.355 109.903 227.355H107.991V229.864ZM110.142 234.644C110.632 234.644 111.007 234.536 111.269 234.32C111.542 234.092 111.679 233.768 111.679 233.347C111.679 232.926 111.536 232.596 111.252 232.357C110.979 232.118 110.598 231.998 110.108 231.998H107.991V234.644H110.142ZM123.785 234.883H119.312L118.595 237H115.54L119.876 225.016H123.256L127.592 237H124.502L123.785 234.883ZM123.034 232.63L121.549 228.243L120.081 232.63H123.034ZM135.023 237L132.53 232.476H131.831V237H128.911V225.016H133.811C134.755 225.016 135.558 225.181 136.218 225.511C136.889 225.841 137.39 226.297 137.72 226.877C138.05 227.446 138.215 228.083 138.215 228.789C138.215 229.586 137.987 230.297 137.532 230.923C137.088 231.549 136.428 231.993 135.552 232.254L138.317 237H135.023ZM131.831 230.411H133.64C134.175 230.411 134.573 230.28 134.835 230.018C135.108 229.756 135.245 229.386 135.245 228.908C135.245 228.453 135.108 228.095 134.835 227.833C134.573 227.571 134.175 227.44 133.64 227.44H131.831V230.411ZM148.002 228.806C147.786 228.408 147.473 228.106 147.064 227.901C146.665 227.685 146.193 227.577 145.647 227.577C144.702 227.577 143.945 227.89 143.376 228.516C142.807 229.13 142.523 229.955 142.523 230.991C142.523 232.095 142.819 232.96 143.41 233.586C144.014 234.2 144.839 234.508 145.886 234.508C146.603 234.508 147.206 234.326 147.695 233.961C148.196 233.597 148.56 233.074 148.788 232.391H145.083V230.24H151.434V232.954C151.217 233.683 150.848 234.36 150.324 234.986C149.812 235.612 149.158 236.118 148.361 236.505C147.564 236.892 146.665 237.085 145.664 237.085C144.48 237.085 143.422 236.829 142.489 236.317C141.567 235.794 140.844 235.071 140.321 234.149C139.808 233.227 139.552 232.175 139.552 230.991C139.552 229.808 139.808 228.755 140.321 227.833C140.844 226.9 141.567 226.177 142.489 225.665C143.41 225.142 144.463 224.88 145.647 224.88C147.081 224.88 148.287 225.227 149.266 225.921C150.256 226.615 150.91 227.577 151.229 228.806H148.002ZM160.51 234.883H156.038L155.321 237H152.265L156.601 225.016H159.981L164.317 237H161.227L160.51 234.883ZM159.759 232.63L158.274 228.243L156.806 232.63H159.759ZM168.556 225.016V237H165.637V225.016H168.556ZM181.392 237H178.473L173.591 229.608V237H170.671V225.016H173.591L178.473 232.442V225.016H181.392V237ZM186.427 225.016V237H183.508V225.016H186.427ZM199.263 237H196.344L191.462 229.608V237H188.542V225.016H191.462L196.344 232.442V225.016H199.263V237ZM209.334 228.806C209.118 228.408 208.805 228.106 208.395 227.901C207.997 227.685 207.524 227.577 206.978 227.577C206.033 227.577 205.277 227.89 204.708 228.516C204.139 229.13 203.854 229.955 203.854 230.991C203.854 232.095 204.15 232.96 204.742 233.586C205.345 234.2 206.17 234.508 207.217 234.508C207.934 234.508 208.537 234.326 209.027 233.961C209.527 233.597 209.891 233.074 210.119 232.391H206.415V230.24H212.765V232.954C212.549 233.683 212.179 234.36 211.655 234.986C211.143 235.612 210.489 236.118 209.692 236.505C208.896 236.892 207.997 237.085 206.995 237.085C205.812 237.085 204.753 236.829 203.82 236.317C202.898 235.794 202.175 235.071 201.652 234.149C201.14 233.227 200.884 232.175 200.884 230.991C200.884 229.808 201.14 228.755 201.652 227.833C202.175 226.9 202.898 226.177 203.82 225.665C204.742 225.142 205.794 224.88 206.978 224.88C208.412 224.88 209.618 225.227 210.597 225.921C211.587 226.615 212.242 227.577 212.56 228.806H209.334Z" fill="#F97837"/>
<path d="M380.485 487.95H226.295C225.156 487.95 224.064 487.497 223.258 486.691C222.453 485.886 222 484.793 222 483.653V273.296C222 272.157 222.453 271.064 223.258 270.258C224.064 269.453 225.156 269 226.295 269H380.494C381.633 269 382.726 269.453 383.531 270.258C384.337 271.064 384.789 272.157 384.789 273.296V483.649C384.789 484.789 384.337 485.881 383.531 486.687C382.726 487.493 381.633 487.945 380.494 487.945" fill="#FFC67E"/>
<path d="M303.584 462.146C332.086 462.146 355.191 439.041 355.191 410.539C355.191 382.038 332.086 358.933 303.584 358.933C275.083 358.933 251.978 382.038 251.978 410.539C251.978 439.041 275.083 462.146 303.584 462.146Z" fill="white"/>
<path d="M251.978 410.54C251.978 439.039 275.085 462.146 303.584 462.146C332.084 462.146 355.191 439.039 355.191 410.54" fill="#92D3F5"/>
<path d="M232.885 303.863C232.885 296.519 238.838 290.566 246.182 290.566H293.552C300.896 290.566 306.849 296.519 306.849 303.863V319.653C306.849 326.997 300.896 332.95 293.552 332.95H246.182C238.838 332.95 232.885 326.997 232.885 319.653V303.863Z" fill="#FFE9CE"/>
<path d="M303.585 440.517C320.141 440.517 333.562 427.096 333.562 410.54C333.562 393.983 320.141 380.562 303.585 380.562C287.029 380.562 273.607 393.983 273.607 410.54C273.607 427.096 287.029 440.517 303.585 440.517Z" fill="#FCEA2B"/>
<path d="M273.607 410.54C273.607 418.49 276.766 426.115 282.388 431.737C288.01 437.359 295.634 440.517 303.585 440.517C311.535 440.517 319.16 437.359 324.782 431.737C330.404 426.115 333.562 418.49 333.562 410.54" fill="#61B2E4"/>
<path d="M311.405 302.204H335.106M311.405 315.568H335.106M264.003 308.886H277.547M243.688 295.552H297.862V328.795H243.688V295.552Z" stroke="#FB8C00" stroke-width="0.69717" stroke-miterlimit="10" stroke-linecap="round" stroke-linejoin="round"/>
<path d="M359.365 316.054C364.185 316.054 368.093 312.231 368.093 307.516C368.093 302.801 364.185 298.978 359.365 298.978C354.545 298.978 350.638 302.801 350.638 307.516C350.638 312.231 354.545 316.054 359.365 316.054Z" fill="#FB8C00"/>
<g filter="url(#filter1_d_2996_1055)">
<rect x="77" y="336" width="202.592" height="116.606" rx="15.9389" fill="#FF945D"/>
<rect x="77.0419" y="336.042" width="202.508" height="116.522" rx="15.8969" stroke="#FB8C00" stroke-width="0.0838889"/>
</g>
<rect x="96.5017" y="357.601" width="115.689" height="80.9528" rx="8.59861" fill="#FFBB00" stroke="#FB8C00" stroke-width="2.09722"/>
<rect x="234.704" y="357.601" width="26.9566" height="23.0694" rx="8.59861" fill="#FFCA08" stroke="#FB8C00" stroke-width="2.09722"/>
<rect x="237.452" y="394.932" width="4.96993" height="6.29167" rx="2.48496" fill="#FFCA08" stroke="#FB8C00" stroke-width="2.09722"/>
<rect x="246.483" y="394.932" width="4.96993" height="6.29167" rx="2.48496" fill="#FFCA08" stroke="#FB8C00" stroke-width="2.09722"/>
<rect x="255.512" y="394.932" width="4.96993" height="6.29167" rx="2.48496" fill="#FFCA08" stroke="#FB8C00" stroke-width="2.09722"/>
<rect x="237.452" y="425.132" width="4.96993" height="6.29167" rx="2.48496" fill="#FFB8B8" stroke="#E76063" stroke-width="2.09722"/>
<rect x="246.483" y="425.132" width="4.96993" height="6.29167" rx="2.48496" fill="#FFB8B8" stroke="#E76063" stroke-width="2.09722"/>
<rect x="255.512" y="425.132" width="4.96993" height="6.29167" rx="2.48496" fill="#FFCA08" stroke="#FB8C00" stroke-width="2.09722"/>
<rect x="237.452" y="415.485" width="4.96993" height="6.29167" rx="2.48496" fill="#FFB8B8" stroke="#E76063" stroke-width="2.09722"/>
<rect x="246.483" y="415.485" width="4.96993" height="6.29167" rx="2.48496" fill="#FFB8B8" stroke="#E76063" stroke-width="2.09722"/>
<rect x="255.512" y="415.485" width="4.96993" height="6.29167" rx="2.48496" fill="#FFB8B8" stroke="#E76063" stroke-width="2.09722"/>
<rect x="237.452" y="405.418" width="4.96993" height="6.29167" rx="2.48496" fill="#FFB8B8" stroke="#E76063" stroke-width="2.09722"/>
<rect x="246.483" y="405.418" width="4.96993" height="6.29167" rx="2.48496" fill="#FFB8B8" stroke="#E76063" stroke-width="2.09722"/>
<rect x="255.512" y="405.418" width="4.96993" height="6.29167" rx="2.48496" fill="#FFB8B8" stroke="#E76063" stroke-width="2.09722"/>
<rect x="222.662" y="356.499" width="1.57048" height="82.3184" rx="0.785239" fill="#FFCA08" stroke="#FB8C00" stroke-width="1.57048"/>
<path d="M373.5 257C378.829 257 383.975 258.941 387.976 262.46L389.031 263.453L393.813 268.235C395.125 269.539 396.839 270.362 398.677 270.571L399.602 270.626H406.453C412.051 270.626 417.438 272.768 421.508 276.612C425.578 280.456 428.023 285.712 428.341 291.302L428.376 292.549V299.4C428.376 301.249 429.006 303.051 430.143 304.49L430.76 305.175L435.535 309.957C439.493 313.892 441.801 319.189 441.988 324.767C442.175 330.345 440.227 335.785 436.542 339.977L435.549 341.032L430.767 345.814C429.463 347.126 428.64 348.84 428.43 350.678L428.376 351.603V358.453C428.376 364.052 426.234 369.438 422.39 373.508C418.545 377.578 413.289 380.023 407.7 380.342L406.453 380.376H399.602C397.755 380.376 395.962 380.999 394.512 382.143L393.827 382.76L389.045 387.535C385.109 391.493 379.812 393.801 374.234 393.988C368.656 394.175 363.216 392.227 359.024 388.542L357.969 387.549L353.187 382.767C351.875 381.463 350.161 380.64 348.323 380.431L347.398 380.376H340.547C334.949 380.376 329.562 378.235 325.492 374.39C321.422 370.546 318.977 365.29 318.659 359.7L318.624 358.453V351.603C318.624 349.755 318.001 347.962 316.857 346.512L316.24 345.827L311.465 341.045C307.507 337.11 305.199 331.813 305.012 326.235C304.825 320.657 306.773 315.217 310.458 311.025L311.451 309.97L316.233 305.188C317.537 303.876 318.36 302.162 318.57 300.324L318.624 299.4V292.549L318.659 291.302C318.964 285.927 321.237 280.853 325.044 277.046C328.851 273.239 333.925 270.966 339.3 270.66L340.547 270.626H347.398C349.245 270.626 351.038 270.003 352.488 268.859L353.173 268.242L357.955 263.467C359.992 261.418 362.414 259.792 365.082 258.682C367.75 257.572 370.611 257 373.5 257ZM398.828 306.887C397.543 305.603 395.801 304.882 393.984 304.882C392.168 304.882 390.425 305.603 389.141 306.887L366.581 329.44L357.722 320.589L357.078 320.02C355.701 318.956 353.971 318.455 352.238 318.62C350.505 318.785 348.9 319.604 347.749 320.909C346.598 322.215 345.987 323.909 346.04 325.649C346.093 327.389 346.807 329.043 348.035 330.276L361.737 343.978L362.381 344.546C363.699 345.569 365.345 346.075 367.01 345.97C368.675 345.866 370.245 345.157 371.424 343.978L398.828 316.574L399.396 315.931C400.419 314.612 400.925 312.966 400.821 311.302C400.716 309.637 400.007 308.067 398.828 306.887Z" fill="#70B241"/>
<ellipse cx="375.959" cy="325.751" rx="37.2545" ry="35.9699" fill="#70B241"/>
<path d="M323.794 326.466C325.469 325.217 326.793 324.086 327.768 323.074C328.743 322.049 329.23 321.093 329.23 320.206C329.23 319.906 329.161 319.675 329.024 319.512C328.899 319.35 328.73 319.269 328.518 319.269C328.268 319.269 328.068 319.4 327.918 319.662C327.78 319.912 327.73 320.3 327.768 320.824H323.738C323.776 319.662 324.026 318.706 324.488 317.957C324.963 317.207 325.575 316.657 326.325 316.307C327.074 315.958 327.899 315.783 328.799 315.783C330.398 315.783 331.566 316.17 332.304 316.945C333.053 317.707 333.428 318.688 333.428 319.887C333.428 321.149 333.022 322.336 332.21 323.449C331.41 324.548 330.404 325.479 329.192 326.241H333.485V329.596H323.794V326.466ZM344.832 319.737H339.396V321.312C339.634 321.099 339.94 320.931 340.315 320.806C340.702 320.681 341.133 320.618 341.608 320.618C342.458 320.618 343.176 320.818 343.763 321.218C344.351 321.618 344.788 322.155 345.075 322.83C345.363 323.492 345.507 324.229 345.507 325.042C345.507 326.541 345.082 327.709 344.232 328.547C343.395 329.371 342.239 329.784 340.764 329.784C339.69 329.784 338.759 329.596 337.972 329.221C337.197 328.847 336.604 328.328 336.191 327.666C335.791 327.003 335.604 326.247 335.629 325.398H339.677C339.677 325.598 339.746 325.785 339.884 325.96C340.021 326.135 340.246 326.222 340.558 326.222C340.871 326.222 341.102 326.11 341.252 325.885C341.402 325.66 341.477 325.354 341.477 324.967C341.477 324.604 341.389 324.329 341.214 324.142C341.052 323.955 340.814 323.861 340.502 323.861C340.24 323.861 340.04 323.923 339.902 324.048C339.765 324.173 339.696 324.317 339.696 324.479H335.648V316.082H344.832V319.737ZM356.848 329.915C355.598 329.915 354.448 329.621 353.399 329.034C352.362 328.447 351.537 327.634 350.925 326.597C350.312 325.56 350.006 324.392 350.006 323.092C350.006 321.793 350.312 320.625 350.925 319.587C351.537 318.55 352.362 317.744 353.399 317.17C354.448 316.582 355.598 316.289 356.848 316.289C358.097 316.289 359.24 316.582 360.278 317.17C361.315 317.744 362.133 318.55 362.733 319.587C363.345 320.625 363.651 321.793 363.651 323.092C363.651 324.392 363.345 325.56 362.733 326.597C362.133 327.634 361.308 328.447 360.259 329.034C359.222 329.621 358.085 329.915 356.848 329.915ZM356.848 326.035C357.672 326.035 358.31 325.773 358.759 325.248C359.209 324.711 359.434 323.992 359.434 323.092C359.434 322.18 359.209 321.462 358.759 320.937C358.31 320.4 357.672 320.131 356.848 320.131C356.01 320.131 355.367 320.4 354.917 320.937C354.467 321.462 354.242 322.18 354.242 323.092C354.242 323.992 354.467 324.711 354.917 325.248C355.367 325.773 356.01 326.035 356.848 326.035ZM371.825 329.784L369.332 325.023H369.313V329.784H365.152V316.514H371.338C372.412 316.514 373.331 316.707 374.093 317.095C374.855 317.469 375.424 317.988 375.798 318.65C376.186 319.3 376.38 320.037 376.38 320.862C376.38 321.749 376.13 322.536 375.63 323.224C375.142 323.911 374.436 324.404 373.512 324.704L376.398 329.784H371.825ZM369.313 322.249H370.963C371.363 322.249 371.662 322.161 371.862 321.987C372.062 321.799 372.162 321.512 372.162 321.124C372.162 320.774 372.056 320.5 371.844 320.3C371.644 320.1 371.35 320 370.963 320H369.313V322.249ZM383.238 316.514C384.625 316.514 385.837 316.795 386.874 317.357C387.924 317.919 388.73 318.7 389.292 319.7C389.854 320.7 390.136 321.837 390.136 323.111C390.136 324.373 389.854 325.51 389.292 326.522C388.73 327.535 387.924 328.334 386.874 328.922C385.837 329.496 384.625 329.784 383.238 329.784H377.709V316.514H383.238ZM382.863 326.073C383.8 326.073 384.544 325.816 385.094 325.304C385.643 324.792 385.918 324.061 385.918 323.111C385.918 322.161 385.643 321.431 385.094 320.918C384.544 320.406 383.8 320.15 382.863 320.15H381.87V326.073H382.863ZM395.799 319.831V321.462H399.922V324.592H395.799V326.466H400.485V329.784H391.638V316.514H400.485V319.831H395.799ZM408.725 329.784L406.233 325.023H406.214V329.784H402.053V316.514H408.238C409.313 316.514 410.231 316.707 410.993 317.095C411.756 317.469 412.324 317.988 412.699 318.65C413.086 319.3 413.28 320.037 413.28 320.862C413.28 321.749 413.03 322.536 412.53 323.224C412.043 323.911 411.337 324.404 410.412 324.704L413.299 329.784H408.725ZM406.214 322.249H407.863C408.263 322.249 408.563 322.161 408.763 321.987C408.963 321.799 409.063 321.512 409.063 321.124C409.063 320.774 408.957 320.5 408.744 320.3C408.544 320.1 408.251 320 407.863 320H406.214V322.249ZM419.801 329.915C418.214 329.915 416.902 329.546 415.865 328.809C414.841 328.059 414.284 326.966 414.197 325.529H418.62C418.683 326.291 419.02 326.672 419.633 326.672C419.857 326.672 420.045 326.622 420.195 326.522C420.357 326.41 420.438 326.241 420.438 326.016C420.438 325.704 420.27 325.454 419.932 325.267C419.595 325.067 419.07 324.842 418.358 324.592C417.508 324.292 416.802 323.998 416.24 323.711C415.69 323.424 415.215 323.005 414.816 322.455C414.416 321.905 414.222 321.199 414.234 320.337C414.234 319.475 414.453 318.744 414.89 318.144C415.34 317.532 415.946 317.07 416.709 316.757C417.483 316.445 418.352 316.289 419.314 316.289C420.938 316.289 422.225 316.663 423.175 317.413C424.137 318.163 424.643 319.219 424.693 320.581H420.214C420.201 320.206 420.107 319.937 419.932 319.775C419.757 319.612 419.545 319.531 419.295 319.531C419.12 319.531 418.977 319.594 418.864 319.719C418.752 319.831 418.695 319.994 418.695 320.206C418.695 320.506 418.858 320.756 419.183 320.956C419.52 321.143 420.051 321.374 420.776 321.649C421.613 321.962 422.3 322.261 422.838 322.549C423.387 322.836 423.862 323.236 424.262 323.748C424.662 324.261 424.862 324.904 424.862 325.679C424.862 326.491 424.662 327.222 424.262 327.872C423.862 328.509 423.281 329.009 422.519 329.371C421.757 329.734 420.851 329.915 419.801 329.915Z" fill="white"/>
<path d="M359.009 292.929C358.755 292.395 358.388 291.984 357.907 291.696C357.426 291.398 356.866 291.249 356.228 291.249C355.589 291.249 355.012 291.398 354.496 291.696C353.988 291.984 353.586 292.404 353.289 292.955C353 293.497 352.856 294.127 352.856 294.844C352.856 295.562 353 296.191 353.289 296.734C353.586 297.276 353.988 297.696 354.496 297.993C355.012 298.282 355.589 298.426 356.228 298.426C357.12 298.426 357.854 298.159 358.432 297.626C359.009 297.092 359.346 296.371 359.442 295.461H355.795V294.49H360.715V295.409C360.645 296.161 360.408 296.852 360.006 297.482C359.604 298.103 359.075 298.597 358.419 298.964C357.763 299.323 357.032 299.502 356.228 299.502C355.379 299.502 354.605 299.305 353.905 298.912C353.206 298.509 352.65 297.954 352.239 297.245C351.837 296.537 351.635 295.737 351.635 294.844C351.635 293.952 351.837 293.152 352.239 292.443C352.65 291.726 353.206 291.171 353.905 290.777C354.605 290.375 355.379 290.174 356.228 290.174C357.198 290.174 358.056 290.414 358.799 290.895C359.551 291.376 360.098 292.054 360.439 292.929H359.009ZM368.853 295.553C368.853 295.78 368.84 296.021 368.814 296.274H363.067C363.111 296.983 363.352 297.538 363.789 297.941C364.235 298.334 364.773 298.531 365.403 298.531C365.919 298.531 366.347 298.413 366.689 298.177C367.038 297.932 367.283 297.608 367.423 297.206H368.709C368.517 297.897 368.132 298.461 367.554 298.899C366.977 299.327 366.26 299.541 365.403 299.541C364.72 299.541 364.108 299.388 363.566 299.082C363.032 298.776 362.613 298.343 362.306 297.783C362 297.215 361.847 296.559 361.847 295.815C361.847 295.072 361.996 294.42 362.293 293.86C362.591 293.301 363.006 292.872 363.54 292.575C364.082 292.268 364.703 292.115 365.403 292.115C366.085 292.115 366.689 292.264 367.213 292.561C367.738 292.859 368.14 293.27 368.42 293.795C368.709 294.311 368.853 294.897 368.853 295.553ZM367.62 295.304C367.62 294.849 367.519 294.46 367.318 294.136C367.117 293.804 366.842 293.554 366.492 293.388C366.151 293.213 365.77 293.126 365.35 293.126C364.747 293.126 364.231 293.318 363.802 293.703C363.382 294.088 363.142 294.621 363.08 295.304H367.62ZM371.886 293.217V297.455C371.886 297.805 371.96 298.054 372.109 298.203C372.257 298.343 372.515 298.413 372.883 298.413H373.762V299.423H372.686C372.021 299.423 371.523 299.27 371.19 298.964C370.858 298.658 370.692 298.155 370.692 297.455V293.217H369.76V292.233H370.692V290.423H371.886V292.233H373.762V293.217H371.886ZM381.632 293.217H380.123V299.423H378.929V293.217H377.998V292.233H378.929V291.722C378.929 290.917 379.135 290.331 379.546 289.964C379.966 289.588 380.635 289.4 381.553 289.4V290.397C381.029 290.397 380.657 290.502 380.438 290.712C380.228 290.913 380.123 291.249 380.123 291.722V292.233H381.632V293.217ZM383.641 291.066C383.413 291.066 383.221 290.987 383.064 290.83C382.906 290.672 382.827 290.48 382.827 290.252C382.827 290.025 382.906 289.832 383.064 289.675C383.221 289.518 383.413 289.439 383.641 289.439C383.86 289.439 384.043 289.518 384.192 289.675C384.349 289.832 384.428 290.025 384.428 290.252C384.428 290.48 384.349 290.672 384.192 290.83C384.043 290.987 383.86 291.066 383.641 291.066ZM384.218 292.233V299.423H383.024V292.233H384.218ZM387.447 293.401C387.657 292.99 387.954 292.671 388.339 292.443C388.733 292.216 389.209 292.102 389.769 292.102V293.336H389.454C388.116 293.336 387.447 294.062 387.447 295.514V299.423H386.253V292.233H387.447V293.401ZM393.693 299.541C393.142 299.541 392.648 299.45 392.21 299.266C391.773 299.073 391.427 298.811 391.174 298.479C390.92 298.138 390.78 297.748 390.754 297.311H391.987C392.022 297.67 392.188 297.963 392.486 298.19C392.792 298.417 393.19 298.531 393.68 298.531C394.134 298.531 394.493 298.431 394.755 298.229C395.018 298.028 395.149 297.775 395.149 297.468C395.149 297.154 395.009 296.922 394.729 296.773C394.449 296.616 394.016 296.463 393.43 296.314C392.897 296.174 392.459 296.034 392.118 295.894C391.786 295.745 391.497 295.531 391.252 295.251C391.016 294.962 390.898 294.586 390.898 294.123C390.898 293.755 391.007 293.419 391.226 293.113C391.445 292.806 391.755 292.566 392.158 292.391C392.56 292.207 393.019 292.115 393.535 292.115C394.331 292.115 394.974 292.317 395.464 292.719C395.954 293.121 396.216 293.672 396.251 294.372H395.057C395.031 293.996 394.878 293.694 394.598 293.467C394.327 293.239 393.96 293.126 393.496 293.126C393.067 293.126 392.726 293.217 392.473 293.401C392.219 293.585 392.092 293.825 392.092 294.123C392.092 294.359 392.166 294.556 392.315 294.713C392.473 294.862 392.665 294.984 392.892 295.081C393.129 295.168 393.452 295.269 393.863 295.382C394.379 295.522 394.799 295.662 395.123 295.802C395.446 295.933 395.722 296.135 395.949 296.406C396.186 296.677 396.308 297.031 396.317 297.468C396.317 297.862 396.207 298.216 395.989 298.531C395.77 298.846 395.46 299.095 395.057 299.279C394.664 299.454 394.209 299.541 393.693 299.541ZM399.459 293.217V297.455C399.459 297.805 399.533 298.054 399.682 298.203C399.83 298.343 400.088 298.413 400.456 298.413H401.335V299.423H400.259C399.594 299.423 399.096 299.27 398.763 298.964C398.431 298.658 398.265 298.155 398.265 297.455V293.217H397.333V292.233H398.265V290.423H399.459V292.233H401.335V293.217H399.459Z" fill="white"/>
<path d="M395.136 338.102C397.302 337.632 399.492 337.665 401.257 338.195C403.022 338.724 404.23 339.709 404.632 340.949L404.709 341.238L405.363 344.253C405.454 344.703 405.343 345.187 405.041 345.658C404.74 346.128 404.258 346.569 403.644 346.937L403.362 347.099C402.503 347.561 401.814 348.133 401.365 348.755C400.917 349.377 400.728 350.025 400.817 350.632C400.906 351.238 401.27 351.78 401.871 352.2C402.472 352.619 403.287 352.902 404.231 353.017L404.654 353.056C405.957 353.145 407.212 353.641 407.58 354.575L407.654 354.817L408.307 357.832C408.583 359.101 408.02 360.503 406.734 361.749C405.448 362.995 403.536 363.992 401.39 364.535L400.893 364.651L361.256 373.247C359.089 373.717 356.9 373.684 355.134 373.155C353.369 372.625 352.162 371.64 351.76 370.4L351.683 370.111L351.029 367.096C350.811 366.09 351.638 365.091 352.747 364.412L353.029 364.251C353.888 363.788 354.578 363.216 355.026 362.594C355.474 361.972 355.664 361.324 355.575 360.718C355.486 360.111 355.122 359.569 354.521 359.15C353.92 358.73 353.105 358.447 352.161 358.332L351.738 358.294C350.435 358.204 349.18 357.708 348.811 356.774L348.739 356.534L348.084 353.518C347.809 352.248 348.372 350.847 349.658 349.6C350.944 348.354 352.855 347.358 355.002 346.814L355.499 346.698L395.136 338.102ZM371.454 351.924C370.703 352.087 370.021 352.418 369.557 352.845C369.094 353.271 368.887 353.758 368.983 354.198L370.422 360.835C370.517 361.275 370.907 361.633 371.506 361.829C372.104 362.025 372.862 362.043 373.613 361.88C374.364 361.718 375.046 361.387 375.509 360.96C375.973 360.534 376.18 360.047 376.084 359.607L374.645 352.97C374.55 352.53 374.16 352.172 373.561 351.976C372.963 351.78 372.205 351.762 371.454 351.924Z" fill="#F9A826"/>
<rect x="364.566" y="352.421" width="16.6801" height="14.4421" transform="rotate(-9.53002 364.566 352.421)" fill="#F9A826"/>
<path d="M370.558 351.021V353.33H366.91V354.616H369.535V356.807H366.91V360.31H363.998V351.021H370.558ZM374.457 354.275C374.755 353.846 375.118 353.505 375.546 353.251C375.975 352.989 376.421 352.858 376.884 352.858V355.967H376.058C375.507 355.967 375.1 356.063 374.838 356.256C374.584 356.448 374.457 356.789 374.457 357.279V360.31H371.544V352.91H374.457V354.275ZM384.833 356.545C384.833 356.746 384.819 356.938 384.793 357.122H380.109C380.153 357.76 380.42 358.08 380.91 358.08C381.225 358.08 381.452 357.935 381.592 357.647H384.675C384.57 358.171 384.347 358.644 384.006 359.064C383.674 359.475 383.249 359.803 382.733 360.048C382.226 360.284 381.666 360.402 381.054 360.402C380.319 360.402 379.663 360.249 379.086 359.943C378.517 359.637 378.071 359.199 377.748 358.631C377.433 358.053 377.275 357.38 377.275 356.61C377.275 355.84 377.433 355.171 377.748 354.603C378.071 354.025 378.517 353.584 379.086 353.278C379.663 352.971 380.319 352.818 381.054 352.818C381.789 352.818 382.44 352.971 383.009 353.278C383.586 353.575 384.032 354.004 384.347 354.563C384.671 355.123 384.833 355.784 384.833 356.545ZM381.881 355.849C381.881 355.604 381.802 355.421 381.644 355.298C381.487 355.167 381.29 355.101 381.054 355.101C380.538 355.101 380.236 355.351 380.149 355.849H381.881ZM392.917 356.545C392.917 356.746 392.904 356.938 392.878 357.122H388.194C388.238 357.76 388.505 358.08 388.994 358.08C389.309 358.08 389.537 357.935 389.677 357.647H392.76C392.655 358.171 392.432 358.644 392.091 359.064C391.758 359.475 391.334 359.803 390.818 360.048C390.311 360.284 389.751 360.402 389.139 360.402C388.404 360.402 387.748 360.249 387.171 359.943C386.602 359.637 386.156 359.199 385.832 358.631C385.518 358.053 385.36 357.38 385.36 356.61C385.36 355.84 385.518 355.171 385.832 354.603C386.156 354.025 386.602 353.584 387.171 353.278C387.748 352.971 388.404 352.818 389.139 352.818C389.873 352.818 390.525 352.971 391.094 353.278C391.671 353.575 392.117 354.004 392.432 354.563C392.756 355.123 392.917 355.784 392.917 356.545ZM389.965 355.849C389.965 355.604 389.887 355.421 389.729 355.298C389.572 355.167 389.375 355.101 389.139 355.101C388.623 355.101 388.321 355.351 388.233 355.849H389.965Z" fill="white"/>
<path d="M370.558 351.021V353.33H366.91V354.616H369.535V356.807H366.91V360.31H363.998V351.021H370.558ZM374.457 354.275C374.755 353.846 375.118 353.505 375.546 353.251C375.975 352.989 376.421 352.858 376.884 352.858V355.967H376.058C375.507 355.967 375.1 356.063 374.838 356.256C374.584 356.448 374.457 356.789 374.457 357.279V360.31H371.544V352.91H374.457V354.275ZM384.833 356.545C384.833 356.746 384.819 356.938 384.793 357.122H380.109C380.153 357.76 380.42 358.08 380.91 358.08C381.225 358.08 381.452 357.935 381.592 357.647H384.675C384.57 358.171 384.347 358.644 384.006 359.064C383.674 359.475 383.249 359.803 382.733 360.048C382.226 360.284 381.666 360.402 381.054 360.402C380.319 360.402 379.663 360.249 379.086 359.943C378.517 359.637 378.071 359.199 377.748 358.631C377.433 358.053 377.275 357.38 377.275 356.61C377.275 355.84 377.433 355.171 377.748 354.603C378.071 354.025 378.517 353.584 379.086 353.278C379.663 352.971 380.319 352.818 381.054 352.818C381.789 352.818 382.44 352.971 383.009 353.278C383.586 353.575 384.032 354.004 384.347 354.563C384.671 355.123 384.833 355.784 384.833 356.545ZM381.881 355.849C381.881 355.604 381.802 355.421 381.644 355.298C381.487 355.167 381.29 355.101 381.054 355.101C380.538 355.101 380.236 355.351 380.149 355.849H381.881ZM392.917 356.545C392.917 356.746 392.904 356.938 392.878 357.122H388.194C388.238 357.76 388.505 358.08 388.994 358.08C389.309 358.08 389.537 357.935 389.677 357.647H392.76C392.655 358.171 392.432 358.644 392.091 359.064C391.758 359.475 391.334 359.803 390.818 360.048C390.311 360.284 389.751 360.402 389.139 360.402C388.404 360.402 387.748 360.249 387.171 359.943C386.602 359.637 386.156 359.199 385.832 358.631C385.518 358.053 385.36 357.38 385.36 356.61C385.36 355.84 385.518 355.171 385.832 354.603C386.156 354.025 386.602 353.584 387.171 353.278C387.748 352.971 388.404 352.818 389.139 352.818C389.873 352.818 390.525 352.971 391.094 353.278C391.671 353.575 392.117 354.004 392.432 354.563C392.756 355.123 392.917 355.784 392.917 356.545ZM389.965 355.849C389.965 355.604 389.887 355.421 389.729 355.298C389.572 355.167 389.375 355.101 389.139 355.101C388.623 355.101 388.321 355.351 388.233 355.849H389.965Z" fill="white"/>
<path d="M55.8931 273.092C60.3553 269.567 65.9488 267.788 71.6276 268.087L73.1683 268.221L80.3364 269.061C82.298 269.284 84.2776 268.84 85.9552 267.799L86.766 267.233L92.5028 262.7C97.1908 258.996 103.119 257.225 109.07 257.751C115.022 258.278 120.547 261.062 124.512 265.531L125.365 266.553L129.898 272.29C131.122 273.839 132.842 274.93 134.746 275.383L135.716 275.548L142.878 276.393C148.796 277.07 154.233 279.979 158.08 284.526C161.928 289.073 163.896 294.917 163.583 300.865L163.45 302.406L162.609 309.574C162.386 311.536 162.83 313.515 163.871 315.193L164.437 316.004L168.97 321.74C172.674 326.428 174.445 332.356 173.918 338.308C173.392 344.259 170.608 349.784 166.138 353.749L165.117 354.603L159.38 359.136C157.833 360.358 156.744 362.066 156.287 363.984L156.121 364.953L155.276 372.116C154.599 378.034 151.69 383.471 147.143 387.318C142.596 391.166 136.752 393.134 130.803 392.821L129.263 392.688L122.095 391.847C120.133 391.624 118.153 392.068 116.476 393.109L115.665 393.675L109.928 398.208C105.24 401.913 99.3125 403.683 93.3608 403.157C87.409 402.63 81.8842 399.847 77.9194 395.377L77.0657 394.355L72.533 388.619C71.3104 387.072 69.6027 385.983 67.6851 385.526L66.7155 385.36L59.5531 384.515C53.6351 383.838 48.198 380.93 44.3506 376.382C40.5031 371.835 38.535 365.991 38.8476 360.043L38.9814 358.502L39.8219 351.334C40.0454 349.372 39.6008 347.393 38.5599 345.715L37.9939 344.905L33.4612 339.168L32.6649 338.101C29.3649 333.398 27.9109 327.645 28.58 321.938C29.2491 316.232 31.9945 310.971 36.293 307.159L37.3144 306.305L43.0513 301.773C44.5976 300.55 45.6872 298.842 46.1443 296.925L46.3101 295.955L47.1551 288.793C47.5051 285.729 48.4572 282.765 49.9568 280.07C51.4564 277.376 53.4738 275.004 55.8931 273.092ZM110.109 298.11C108.184 297.884 106.247 298.433 104.726 299.635C103.205 300.837 102.223 302.594 101.997 304.519L98.0276 338.331L84.7536 336.78L83.8382 336.73C81.9807 336.749 80.2002 337.475 78.8585 338.76C77.5167 340.044 76.7142 341.792 76.614 343.646C76.5138 345.501 77.1234 347.325 78.319 348.746C79.5145 350.168 81.2064 351.081 83.051 351.301L103.59 353.709L104.506 353.759C106.286 353.743 107.999 353.078 109.324 351.889C110.649 350.7 111.495 349.068 111.702 347.3L116.519 306.221L116.569 305.306C116.553 303.526 115.888 301.812 114.699 300.487C113.509 299.163 111.878 298.317 110.109 298.11Z" fill="#FB8C00"/>
<ellipse cx="100.311" cy="331.539" rx="43.619" ry="42.1149" transform="rotate(-38.3128 100.311 331.539)" fill="#FB8C00"/>
<path d="M143.824 292.287C144.616 293.119 145.387 293.98 146.136 294.87L145.688 295.247C146.056 295.684 146.418 296.129 146.775 296.58C147.132 297.032 147.48 297.487 147.821 297.946L148.291 297.598C148.984 298.532 149.643 299.481 150.269 300.445L149.779 300.763C150.406 301.727 150.999 302.705 151.559 303.695L152.068 303.407C152.64 304.419 153.178 305.443 153.682 306.479L153.156 306.735C153.658 307.768 154.125 308.813 154.559 309.867L155.1 309.645C155.541 310.717 155.947 311.8 156.318 312.891L155.764 313.08C156.133 314.165 156.467 315.26 156.767 316.361L157.331 316.207C157.636 317.325 157.904 318.45 158.138 319.58L157.565 319.699C157.797 320.821 157.994 321.949 158.156 323.08L158.735 322.997C158.899 324.143 159.028 325.292 159.121 326.443L158.538 326.491C158.631 327.632 158.689 328.775 158.712 329.919L159.297 329.907C159.32 331.063 159.309 332.22 159.262 333.375L158.678 333.351C158.632 334.495 158.551 335.637 158.436 336.776L159.018 336.835C158.902 337.984 158.752 339.131 158.567 340.273L157.989 340.18C157.806 341.309 157.59 342.433 157.339 343.551L157.91 343.679C157.657 344.806 157.371 345.926 157.051 347.039L156.489 346.877C156.173 347.975 155.824 349.066 155.442 350.146L155.993 350.341C155.609 351.429 155.191 352.508 154.74 353.575L154.201 353.348C153.757 354.4 153.281 355.442 152.772 356.471L153.296 356.73C152.786 357.763 152.243 358.784 151.668 359.791L151.16 359.501C150.594 360.492 149.998 361.468 149.37 362.43L149.86 362.75C149.23 363.714 148.57 364.664 147.878 365.596L147.409 365.248C146.73 366.164 146.021 367.063 145.282 367.945L145.731 368.321C144.992 369.203 144.224 370.067 143.426 370.913L143 370.511C142.22 371.339 141.41 372.148 140.573 372.937L140.974 373.363C140.138 374.151 139.274 374.919 138.383 375.666L138.007 375.218C137.569 375.586 137.124 375.948 136.672 376.305C136.22 376.662 135.765 377.011 135.306 377.353L135.655 377.822C134.722 378.516 133.775 379.179 132.815 379.81L132.493 379.321C131.532 379.953 130.557 380.554 129.572 381.122L129.864 381.629C128.857 382.209 127.838 382.757 126.809 383.271L126.547 382.748C125.518 383.263 124.479 383.744 123.431 384.193L123.661 384.731C122.594 385.187 121.518 385.61 120.434 386L120.236 385.449C119.155 385.838 118.067 386.192 116.972 386.513L117.137 387.074C116.024 387.401 114.906 387.693 113.782 387.951L113.651 387.381C112.533 387.637 111.409 387.86 110.283 388.049L110.379 388.626C109.237 388.817 108.091 388.974 106.943 389.097L106.881 388.515C105.741 388.637 104.6 388.724 103.458 388.778L103.485 389.362C102.329 389.416 101.173 389.435 100.018 389.42L100.026 388.835C98.88 388.821 97.736 388.771 96.5954 388.688L96.5528 389.271C95.3989 389.187 94.2484 389.068 93.1029 388.915L93.1804 388.335C92.0457 388.184 90.916 387.998 89.7931 387.778L89.6808 388.352C88.5461 388.13 87.4182 387.874 86.2988 387.584L86.4456 387.018C85.3383 386.731 84.2395 386.41 83.1507 386.056L82.9698 386.612C81.8712 386.255 80.7828 385.864 79.7062 385.439L79.9208 384.895C78.8577 384.476 77.8062 384.023 76.768 383.538L76.5203 384.068C75.4747 383.579 74.4424 383.057 73.4251 382.503L73.705 381.989C72.7031 381.443 71.7159 380.865 70.745 380.255L70.4337 380.75C69.4579 380.136 68.4983 379.491 67.5566 378.814L67.8981 378.339C66.9726 377.673 66.0646 376.977 65.1755 376.249L64.8051 376.702C63.9139 375.972 63.0415 375.212 62.1897 374.422L62.5875 373.993C61.7538 373.219 60.9399 372.416 60.1472 371.583L59.7235 371.986C58.9314 371.154 58.1604 370.293 57.4118 369.403L57.8594 369.026C57.4915 368.589 57.1291 368.144 56.7724 367.693C56.4156 367.241 56.067 366.786 55.7265 366.327L55.2567 366.675C54.5639 365.741 53.9044 364.792 53.278 363.829L53.7683 363.51C53.1414 362.546 52.5481 361.568 51.9882 360.578L51.4791 360.866C50.9069 359.854 50.3693 358.83 49.8658 357.794L50.3919 357.538C49.8897 356.505 49.422 355.461 48.9885 354.406L48.4476 354.629C48.0066 353.556 47.6007 352.473 47.2296 351.382L47.7834 351.194C47.4142 350.108 47.08 349.014 46.7804 347.912L46.216 348.066C45.9118 346.948 45.6431 345.823 45.4095 344.693L45.9823 344.574C45.7503 343.452 45.5535 342.324 45.3914 341.193L44.8124 341.276C44.6484 340.13 44.5196 338.981 44.4261 337.83L45.009 337.782C44.9163 336.641 44.8585 335.498 44.8353 334.354L44.2505 334.366C44.2271 333.21 44.2388 332.053 44.2853 330.898L44.8698 330.922C44.9158 329.778 44.9964 328.636 45.1113 327.497L44.5293 327.439C44.6453 326.289 44.7959 325.142 44.9808 324L45.5582 324.093C45.741 322.964 45.9577 321.84 46.2082 320.722L45.6375 320.594C45.8899 319.467 46.1763 318.347 46.4963 317.234L47.0584 317.396C47.3743 316.298 47.7235 315.208 48.1056 314.127L47.5541 313.932C47.9388 312.844 48.3565 311.765 48.8071 310.698L49.346 310.925C49.7902 309.873 50.2667 308.831 50.7753 307.803L50.251 307.543C50.7619 306.51 51.3048 305.489 51.8795 304.482L52.3874 304.772C52.953 303.782 53.5497 302.805 54.1773 301.843L53.6875 301.524C54.3172 300.559 54.9778 299.61 55.6689 298.677L56.1388 299.025C56.8177 298.109 57.5265 297.21 58.265 296.328L57.8166 295.953C58.5555 295.07 59.3239 294.206 60.1215 293.36L60.547 293.762C61.3279 292.934 62.1371 292.125 62.9745 291.336L62.5734 290.91C63.4094 290.122 64.2733 289.354 65.1647 288.607L65.5404 289.055C65.9787 288.688 66.4238 288.325 66.8756 287.968C67.3274 287.611 67.7828 287.262 68.2417 286.921L67.8925 286.451C68.8256 285.757 69.7728 285.094 70.7328 284.463L71.0541 284.952C72.0156 284.32 72.99 283.72 73.9759 283.151L73.6838 282.645C74.6907 282.064 75.7096 281.517 76.7389 281.002L77.0005 281.525C78.0291 281.01 79.0682 280.529 80.1164 280.08L79.8862 279.543C80.9533 279.086 82.0297 278.663 83.1139 278.273L83.3116 278.824C84.3922 278.436 85.4806 278.081 86.5752 277.76L86.4106 277.199C87.523 276.872 88.6417 276.58 89.7653 276.322L89.8962 276.893C91.0148 276.636 92.1381 276.413 93.2647 276.224L93.1681 275.647C94.3108 275.456 95.4567 275.299 96.6043 275.176L96.6664 275.758C97.8063 275.636 98.9478 275.549 100.089 275.496L100.062 274.911C101.218 274.857 102.375 274.838 103.529 274.853L103.522 275.438C104.667 275.453 105.811 275.502 106.952 275.585L106.995 275.002C108.149 275.086 109.299 275.205 110.445 275.358L110.367 275.938C111.502 276.089 112.631 276.275 113.754 276.495L113.867 275.921C115.001 276.143 116.129 276.399 117.249 276.689L117.102 277.255C118.209 277.542 119.308 277.863 120.397 278.217L120.578 277.661C121.676 278.018 122.765 278.41 123.841 278.834L123.627 279.378C124.69 279.798 125.741 280.25 126.779 280.735L127.027 280.205C128.073 280.694 129.105 281.216 130.122 281.77L129.842 282.284C130.844 282.83 131.832 283.408 132.802 284.019L133.114 283.523C134.09 284.137 135.049 284.782 135.991 285.459L135.649 285.934C136.575 286.6 137.483 287.296 138.372 288.024L138.742 287.571C139.634 288.301 140.506 289.061 141.358 289.851L140.96 290.28C141.794 291.054 142.608 291.857 143.4 292.69L143.824 292.287Z" stroke="white" stroke-width="1.16979" stroke-dasharray="3.51 3.51"/>
<path d="M139.376 296.052C140.222 296.912 141.042 297.807 141.834 298.739L141.388 299.118C141.776 299.575 142.158 300.04 142.532 300.514C142.906 300.987 143.271 301.466 143.625 301.949L144.097 301.603C144.82 302.59 145.502 303.594 146.143 304.616L145.648 304.927C146.29 305.95 146.891 306.991 147.45 308.046L147.966 307.772C148.538 308.85 149.067 309.944 149.553 311.05L149.017 311.285C149.503 312.389 149.945 313.506 150.345 314.634L150.896 314.439C151.303 315.587 151.667 316.746 151.987 317.914L151.423 318.069C151.741 319.23 152.016 320.399 152.248 321.574L152.822 321.461C153.058 322.655 153.249 323.855 153.397 325.059L152.817 325.13C152.964 326.323 153.067 327.52 153.127 328.719L153.712 328.689C153.773 329.903 153.791 331.118 153.765 332.332L153.18 332.32C153.155 333.52 153.087 334.72 152.976 335.916L153.558 335.97C153.446 337.179 153.291 338.385 153.094 339.584L152.517 339.489C152.322 340.673 152.085 341.851 151.806 343.02L152.375 343.156C152.093 344.336 151.77 345.508 151.405 346.668L150.847 346.493C150.487 347.636 150.087 348.769 149.645 349.889L150.19 350.103C149.745 351.231 149.26 352.345 148.735 353.444L148.207 353.191C147.69 354.272 147.134 355.337 146.539 356.384L147.047 356.673C146.449 357.725 145.812 358.76 145.136 359.775L144.649 359.451C143.986 360.446 143.286 361.422 142.547 362.377L143.01 362.735C142.271 363.691 141.495 364.625 140.682 365.536L140.246 365.147C139.451 366.038 138.62 366.907 137.753 367.751L138.161 368.17C137.298 369.011 136.399 369.828 135.466 370.619L135.088 370.172C134.631 370.56 134.165 370.941 133.691 371.316C133.217 371.69 132.738 372.055 132.255 372.41L132.602 372.882C131.617 373.606 130.614 374.291 129.596 374.937L129.283 374.443C128.261 375.091 127.224 375.698 126.173 376.266L126.451 376.781C125.377 377.361 124.288 377.899 123.187 378.397L122.946 377.864C121.847 378.362 120.735 378.818 119.613 379.233L119.816 379.781C118.672 380.204 117.518 380.585 116.356 380.923L116.192 380.361C115.036 380.698 113.871 380.993 112.7 381.246L112.824 381.817C111.633 382.075 110.437 382.289 109.237 382.46L109.154 381.881C107.963 382.051 106.768 382.179 105.573 382.265L105.614 382.848C104.401 382.935 103.186 382.978 101.973 382.979L101.973 382.394C100.77 382.395 99.5695 382.353 98.3727 382.269L98.3317 382.852C97.119 382.767 95.9104 382.639 94.7082 382.468L94.7904 381.889C93.6013 381.72 92.4185 381.509 91.2445 381.256L91.1213 381.828C89.9342 381.572 88.756 381.274 87.5892 380.933L87.753 380.372C86.6012 380.036 85.4607 379.658 84.3339 379.24L84.1302 379.788C82.9933 379.365 81.8702 378.901 80.7632 378.396L81.0061 377.864C79.9161 377.366 78.842 376.828 77.7863 376.25L77.5054 376.763C76.4433 376.182 75.3995 375.56 74.3764 374.898L74.6941 374.407C73.6896 373.757 72.7052 373.068 71.7433 372.341L71.3905 372.807C70.4267 372.078 69.4853 371.311 68.5685 370.506L68.9545 370.066C68.0574 369.278 67.1841 368.453 66.3367 367.591L65.9197 368.002C65.0742 367.142 64.2543 366.246 63.462 365.314L63.9076 364.935C63.5196 364.479 63.1383 364.014 62.7639 363.54C62.3895 363.066 62.0252 362.587 61.6709 362.104L61.1992 362.45C60.4759 361.464 59.7939 360.459 59.153 359.437L59.6484 359.127C59.006 358.103 58.4054 357.062 57.8462 356.007L57.3294 356.281C56.758 355.203 56.2293 354.11 55.7431 353.003L56.2786 352.768C55.7933 351.664 55.3509 350.547 54.9511 349.419L54.3998 349.615C53.9926 348.466 53.6291 347.307 53.3089 346.139L53.873 345.985C53.5547 344.824 53.2797 343.654 53.0478 342.479L52.474 342.592C52.2384 341.398 52.0468 340.198 51.8987 338.994L52.4792 338.923C52.3324 337.73 52.2289 336.533 52.1685 335.335L51.5843 335.364C51.523 334.15 51.5054 332.935 51.531 331.721L52.1158 331.733C52.1411 330.533 52.2093 329.333 52.3201 328.137L51.7377 328.083C51.8496 326.874 52.0046 325.669 52.2022 324.469L52.7793 324.564C52.9743 323.38 53.2114 322.203 53.4902 321.033L52.9213 320.897C53.2026 319.717 53.526 318.546 53.8911 317.385L54.449 317.56C54.8087 316.417 55.2093 315.284 55.6505 314.165L55.1064 313.95C55.5507 312.823 56.0357 311.708 56.5613 310.61L57.0889 310.862C57.6055 309.782 58.1617 308.717 58.7571 307.669L58.2486 307.38C58.8466 306.328 59.4837 305.293 60.1597 304.278L60.6465 304.603C61.3095 303.607 62.0103 302.631 62.7487 301.676L62.286 301.318C63.0248 300.363 63.8008 299.428 64.6137 298.517L65.0501 298.907C65.8454 298.015 66.6764 297.147 67.5428 296.303L67.1347 295.884C67.9983 295.042 68.8968 294.225 69.8298 293.435L70.208 293.881C70.6653 293.493 71.131 293.112 71.6051 292.738C72.0791 292.363 72.5577 291.998 73.0405 291.643L72.6939 291.172C73.679 290.447 74.6817 289.762 75.6999 289.116L76.0131 289.61C77.0346 288.962 78.072 288.355 79.123 287.787L78.8451 287.273C79.9194 286.693 81.0079 286.154 82.1085 285.656L82.3495 286.189C83.4493 285.691 84.5613 285.235 85.6831 284.821L85.4803 284.272C86.6241 283.849 87.778 283.469 88.9399 283.13L89.1035 283.692C90.2604 283.355 91.4252 283.06 92.5956 282.807L92.4721 282.236C93.6627 281.979 94.859 281.765 96.0587 281.593L96.1414 282.172C97.3328 282.002 98.5275 281.874 99.7232 281.789L99.6815 281.205C100.895 281.119 102.11 281.075 103.323 281.074L103.323 281.659C104.526 281.658 105.726 281.7 106.923 281.784L106.964 281.201C108.177 281.286 109.386 281.414 110.588 281.585L110.505 282.164C111.695 282.333 112.877 282.544 114.051 282.797L114.175 282.225C115.362 282.481 116.54 282.779 117.707 283.12L117.543 283.681C118.695 284.017 119.835 284.395 120.962 284.814L121.166 284.265C122.303 284.688 123.426 285.152 124.533 285.657L124.29 286.189C125.38 286.687 126.454 287.225 127.51 287.803L127.791 287.29C128.853 287.872 129.896 288.494 130.919 289.155L130.602 289.646C131.606 290.296 132.591 290.985 133.553 291.713L133.905 291.246C134.869 291.975 135.811 292.742 136.727 293.548L136.341 293.987C137.239 294.775 138.112 295.6 138.959 296.462L139.376 296.052Z" fill="white" stroke="white" stroke-width="1.16979" stroke-dasharray="3.51 3.51"/>
<rect x="51.26" y="391.545" width="153.23" height="35.1341" transform="rotate(-38.3128 51.26 391.545)" fill="#FB8C00" stroke="white" stroke-width="1.16979"/>
<path d="M96.2966 408.241L74.3467 418.625L90.5315 405.838L96.2966 408.241Z" fill="#F9AD4F" stroke="#F9AD4F" stroke-width="0.233957"/>
<path d="M175.315 345.804L189.781 327.416L174.219 339.712L175.315 345.804Z" fill="#F9AD4F" stroke="#F9AD4F" stroke-width="0.233957"/>
<path d="M54.5962 443.914L96.9267 410.468L72.4164 420.513L61.8368 407.123L39.4824 424.786L55.3205 426.253L54.5962 443.914Z" fill="#FB8C00" stroke="white" stroke-width="2.33957"/>
<path d="M215.368 313.375L180.517 340.911L192.429 322.178L181.85 308.788L200.254 294.246L199.615 308.732L215.368 313.375Z" fill="#FB8C00" stroke="white" stroke-width="2.10561"/>
<path d="M65.8305 339.139L69.0479 336.753L70.9207 339.279L64.3656 344.139L56.4732 333.495L59.8109 331.02L65.8305 339.139ZM77.236 334.76C76.2337 335.503 75.137 335.951 73.9457 336.104C72.7645 336.25 71.6199 336.089 70.512 335.621C69.404 335.153 68.4636 334.398 67.6907 333.356C66.9178 332.313 66.4685 331.194 66.3428 329.998C66.2171 328.802 66.3993 327.665 66.8894 326.587C67.382 325.492 68.1295 324.573 69.1318 323.829C70.1342 323.086 71.2259 322.642 72.4071 322.496C73.5809 322.34 74.7168 322.5 75.8147 322.975C76.9227 323.443 77.8631 324.198 78.636 325.241C79.4089 326.283 79.8582 327.402 79.9839 328.598C80.1196 329.787 79.9411 330.929 79.4484 332.024C78.9658 333.112 78.2283 334.024 77.236 334.76ZM74.9285 331.648C75.5901 331.157 75.9452 330.568 75.9939 329.879C76.0352 329.18 75.7882 328.47 75.2532 327.749C74.7107 327.017 74.1029 326.574 73.43 326.421C72.7496 326.258 72.0786 326.421 71.4171 326.912C70.7455 327.41 70.3891 328.008 70.3478 328.706C70.2991 329.395 70.546 330.105 71.0885 330.837C71.6236 331.558 72.2314 332.001 72.9118 332.164C73.5847 332.318 74.257 332.145 74.9285 331.648ZM91.2627 307.7L96.7195 320.151L92.5699 323.227L86.8558 318.098L90.1042 325.056L85.9546 328.132L75.6266 319.294L79.2199 316.629L85.1539 322.621L81.6255 314.846L85.2639 312.148L91.679 317.783L87.6694 310.364L91.2627 307.7ZM97.7705 306.999L98.7403 308.307L102.048 305.855L103.91 308.366L100.602 310.818L101.717 312.321L105.475 309.535L107.448 312.196L100.352 317.457L92.4597 306.813L99.5561 301.551L101.529 304.212L97.7705 306.999ZM112.949 308.281C111.676 309.224 110.404 309.709 109.134 309.734C107.866 309.742 106.77 309.196 105.845 308.095L109.393 305.465C109.897 306.039 110.394 306.144 110.885 305.78C111.066 305.646 111.186 305.494 111.247 305.325C111.31 305.138 111.275 304.955 111.141 304.774C110.956 304.524 110.672 304.424 110.29 304.474C109.9 304.514 109.345 304.646 108.625 304.869C107.765 305.134 107.025 305.318 106.403 305.422C105.791 305.518 105.161 305.465 104.513 305.262C103.865 305.059 103.29 304.608 102.787 303.909C102.275 303.217 102.015 302.501 102.009 301.759C102.006 301.001 102.217 300.269 102.643 299.565C103.078 298.854 103.682 298.212 104.454 297.64C105.757 296.674 107.012 296.209 108.22 296.246C109.438 296.275 110.471 296.821 111.322 297.884L107.728 300.548C107.495 300.255 107.26 300.095 107.023 300.069C106.787 300.042 106.568 300.104 106.367 300.252C106.227 300.356 106.149 300.492 106.133 300.659C106.11 300.816 106.161 300.98 106.288 301.15C106.466 301.391 106.745 301.495 107.124 301.462C107.506 301.411 108.07 301.281 108.815 301.071C109.672 300.823 110.402 300.655 111.004 300.566C111.616 300.469 112.234 300.508 112.86 300.681C113.485 300.854 114.028 301.251 114.489 301.873C114.972 302.524 115.246 303.23 115.312 303.989C115.37 304.738 115.202 305.484 114.806 306.228C114.41 306.972 113.791 307.656 112.949 308.281ZM118.57 287.453L120.532 290.099L117.705 292.195L123.636 300.194L120.298 302.668L114.368 294.67L111.571 296.743L109.609 294.097L118.57 287.453Z" fill="#F97837"/>
<path d="M90.0341 385.838C88.7907 386.82 87.5345 387.343 86.2655 387.408C84.9986 387.455 83.886 386.942 82.9279 385.87L86.3937 383.132C86.9146 383.691 87.4148 383.78 87.8946 383.401C88.0708 383.262 88.1867 383.107 88.2423 382.936C88.3 382.747 88.2592 382.565 88.1199 382.388C87.9265 382.144 87.6397 382.052 87.2593 382.114C86.8712 382.166 86.3207 382.315 85.608 382.56C84.7566 382.851 84.0216 383.058 83.4031 383.181C82.7944 383.296 82.1632 383.262 81.5096 383.079C80.8559 382.896 80.2671 382.463 79.7431 381.779C79.2094 381.104 78.9282 380.396 78.8995 379.655C78.8729 378.897 79.0616 378.159 79.4654 377.443C79.879 376.718 80.4628 376.058 81.2166 375.463C82.4894 374.457 83.7299 373.954 84.9381 373.954C86.1561 373.945 87.2063 374.459 88.0886 375.496L84.5787 378.269C84.3369 377.983 84.0971 377.83 83.8595 377.811C83.6219 377.792 83.4051 377.86 83.2093 378.015C83.0723 378.123 82.9983 378.261 82.9876 378.429C82.9691 378.586 83.0256 378.748 83.1571 378.915C83.3428 379.15 83.6247 379.245 84.0031 379.201C84.3834 379.139 84.9426 378.991 85.6807 378.758C86.53 378.484 87.2542 378.294 87.8531 378.186C88.4618 378.071 89.0814 378.09 89.7118 378.244C90.3423 378.398 90.8973 378.779 91.3769 379.386C91.8797 380.022 92.1756 380.719 92.2646 381.475C92.3458 382.222 92.1999 382.973 91.8271 383.729C91.4542 384.485 90.8565 385.188 90.0341 385.838ZM96.4675 363.699L104.683 374.097L101.422 376.672L98.2199 372.619L95.1212 375.068L98.3238 379.121L95.0635 381.697L86.8483 371.299L90.1085 368.723L93.0674 372.468L96.1661 370.02L93.2072 366.275L96.4675 363.699ZM111.297 369.037C110.318 369.811 109.236 370.292 108.05 370.482C106.874 370.664 105.725 370.538 104.603 370.104C103.481 369.671 102.518 368.945 101.713 367.927C100.909 366.909 100.425 365.804 100.263 364.612C100.101 363.42 100.248 362.278 100.705 361.186C101.164 360.076 101.883 359.134 102.862 358.361C103.841 357.587 104.918 357.109 106.094 356.927C107.263 356.736 108.403 356.861 109.515 357.302C110.637 357.735 111.6 358.461 112.405 359.48C113.209 360.498 113.693 361.603 113.855 362.794C114.027 363.978 113.884 365.125 113.425 366.235C112.976 367.337 112.267 368.271 111.297 369.037ZM108.895 365.997C109.542 365.487 109.878 364.887 109.906 364.197C109.926 363.497 109.657 362.795 109.1 362.09C108.536 361.376 107.915 360.952 107.237 360.819C106.552 360.677 105.887 360.861 105.24 361.371C104.584 361.889 104.246 362.498 104.227 363.198C104.199 363.888 104.468 364.59 105.032 365.304C105.589 366.009 106.21 366.433 106.895 366.576C107.573 366.708 108.239 366.515 108.895 365.997ZM120.831 350.246C121.349 350.902 121.669 351.619 121.791 352.397C121.905 353.166 121.787 353.942 121.438 354.728C121.098 355.505 120.507 356.226 119.665 356.892L118.373 357.913L120.983 361.217L117.723 363.793L109.508 353.396L114.06 349.798C115.333 348.793 116.563 348.346 117.749 348.459C118.945 348.563 119.972 349.159 120.831 350.246ZM117.267 354.612C117.943 354.078 118.029 353.493 117.526 352.857C117.023 352.22 116.434 352.169 115.759 352.703L114.834 353.434L116.342 355.343L117.267 354.612ZM130.368 342.71C130.886 343.366 131.206 344.083 131.328 344.862C131.442 345.63 131.325 346.407 130.975 347.192C130.635 347.97 130.044 348.691 129.202 349.356L127.91 350.377L130.52 353.682L127.26 356.258L119.045 345.86L123.598 342.263C124.87 341.257 126.1 340.811 127.286 340.923C128.482 341.028 129.509 341.624 130.368 342.71ZM126.804 347.076C127.48 346.543 127.566 345.958 127.063 345.321C126.561 344.685 125.971 344.633 125.296 345.167L124.371 345.898L125.879 347.807L126.804 347.076ZM131.842 335.749L140.058 346.146L136.797 348.722L128.582 338.325L131.842 335.749ZM151.502 337.104L148.241 339.68L140.659 337.179L144.79 342.407L141.53 344.983L133.315 334.585L136.575 332.009L144.227 334.599L140.026 329.283L143.286 326.707L151.502 337.104ZM153.941 324.061C153.651 323.956 153.346 323.942 153.026 324.02C152.699 324.088 152.368 324.254 152.035 324.517C151.409 325.012 151.087 325.601 151.069 326.283C151.043 326.955 151.309 327.643 151.866 328.348C152.508 329.161 153.179 329.617 153.878 329.717C154.577 329.816 155.323 329.553 156.116 328.926C156.869 328.331 157.237 327.548 157.217 326.577L154.618 328.631L152.796 326.325L158.098 322.136L160.674 325.397C160.834 326.526 160.739 327.683 160.387 328.867C160.027 330.042 159.24 331.109 158.026 332.069C156.949 332.919 155.835 333.442 154.684 333.636C153.535 333.812 152.428 333.669 151.363 333.206C150.308 332.736 149.374 331.987 148.562 330.959C147.749 329.931 147.237 328.849 147.023 327.714C146.82 326.571 146.94 325.465 147.385 324.398C147.823 323.321 148.575 322.361 149.642 321.518C151.003 320.443 152.368 319.897 153.738 319.88C155.118 319.855 156.331 320.344 157.377 321.346L153.941 324.061Z" fill="white"/>
<path d="M100.588 384.737C100.479 384.697 100.364 384.692 100.243 384.722C100.119 384.747 99.9945 384.81 99.8688 384.909C99.6323 385.096 99.5107 385.318 99.5039 385.576C99.4943 385.83 99.5946 386.089 99.8049 386.356C100.047 386.662 100.3 386.835 100.564 386.872C100.828 386.91 101.11 386.81 101.409 386.574C101.694 386.349 101.832 386.053 101.825 385.687L100.844 386.462L100.156 385.592L102.157 384.01L103.13 385.241C103.191 385.668 103.155 386.104 103.022 386.552C102.886 386.995 102.589 387.398 102.13 387.76C101.724 388.081 101.303 388.279 100.869 388.352C100.435 388.418 100.017 388.364 99.615 388.19C99.2166 388.012 98.8641 387.729 98.5575 387.341C98.2508 386.953 98.0572 386.545 97.9767 386.116C97.8998 385.685 97.9454 385.267 98.1134 384.864C98.2784 384.458 98.5624 384.095 98.9653 383.777C99.479 383.371 99.9945 383.165 100.512 383.159C101.033 383.149 101.491 383.334 101.886 383.712L100.588 384.737ZM108.058 377.953L110.529 381.08L109.298 382.052L108.921 381.575C108.942 381.799 108.907 382.021 108.818 382.242C108.732 382.46 108.578 382.657 108.356 382.832C107.998 383.115 107.622 383.217 107.229 383.138C106.839 383.055 106.482 382.809 106.158 382.398L104.726 380.585L105.951 379.617L107.261 381.275C107.378 381.423 107.51 381.51 107.658 381.538C107.806 381.559 107.947 381.516 108.08 381.411C108.217 381.303 108.29 381.176 108.301 381.03C108.308 380.88 108.254 380.731 108.137 380.583L106.827 378.925L108.058 377.953ZM112.509 376.975C112.249 376.646 112.08 376.318 112.001 375.99C111.923 375.656 111.932 375.348 112.028 375.068C112.122 374.783 112.291 374.545 112.535 374.352C112.738 374.192 112.947 374.095 113.162 374.064C113.374 374.028 113.576 374.052 113.768 374.135L113.43 373.708L114.656 372.74L117.126 375.867L115.901 376.835L115.564 376.408C115.6 376.613 115.578 376.817 115.497 377.019C115.414 377.217 115.27 377.396 115.067 377.557C114.823 377.75 114.553 377.861 114.258 377.89C113.96 377.915 113.659 377.853 113.354 377.703C113.051 377.547 112.769 377.304 112.509 376.975ZM114.666 375.271C114.534 375.105 114.39 375.009 114.232 374.984C114.074 374.959 113.928 374.999 113.795 375.104C113.662 375.209 113.589 375.341 113.577 375.501C113.565 375.66 113.625 375.823 113.757 375.99C113.888 376.156 114.033 376.252 114.191 376.277C114.349 376.302 114.494 376.262 114.627 376.157C114.76 376.052 114.833 375.92 114.845 375.76C114.857 375.6 114.797 375.438 114.666 375.271ZM119.721 369.674C119.704 369.394 119.743 369.128 119.84 368.878C119.933 368.624 120.078 368.42 120.274 368.265L121.312 369.579L120.963 369.855C120.73 370.039 120.59 370.215 120.543 370.384C120.5 370.55 120.561 370.737 120.724 370.944L121.736 372.224L120.505 373.197L118.035 370.07L119.265 369.097L119.721 369.674ZM124.518 367.487C124.258 367.158 124.089 366.829 124.01 366.502C123.931 366.167 123.941 365.86 124.037 365.579C124.131 365.295 124.3 365.057 124.544 364.864C124.747 364.703 124.956 364.607 125.171 364.575C125.383 364.54 125.585 364.563 125.777 364.646L125.439 364.219L126.665 363.251L129.135 366.378L127.91 367.346L127.573 366.919C127.609 367.125 127.587 367.329 127.506 367.53C127.422 367.728 127.279 367.908 127.076 368.068C126.832 368.261 126.562 368.372 126.267 368.401C125.969 368.427 125.668 368.365 125.363 368.215C125.06 368.058 124.778 367.816 124.518 367.487ZM126.675 365.783C126.543 365.616 126.398 365.521 126.24 365.495C126.082 365.47 125.937 365.51 125.804 365.615C125.671 365.72 125.598 365.853 125.586 366.012C125.574 366.172 125.634 366.335 125.765 366.501C125.897 366.668 126.041 366.763 126.2 366.789C126.358 366.814 126.503 366.774 126.636 366.669C126.769 366.564 126.842 366.431 126.854 366.272C126.866 366.112 126.806 365.949 126.675 365.783ZM132.216 358.829C132.574 358.546 132.948 358.445 133.338 358.528C133.731 358.608 134.09 358.852 134.414 359.263L135.846 361.076L134.621 362.044L133.311 360.386C133.194 360.238 133.062 360.154 132.913 360.133C132.765 360.106 132.625 360.145 132.492 360.25C132.355 360.358 132.283 360.487 132.276 360.637C132.265 360.783 132.318 360.93 132.435 361.078L133.745 362.736L132.514 363.708L130.043 360.581L131.274 359.609L131.651 360.086C131.63 359.862 131.663 359.641 131.749 359.423C131.838 359.202 131.994 359.004 132.216 358.829ZM140.324 355.836L141.152 356.883L140.686 357.251C139.829 357.929 139.063 357.841 138.388 356.987L137.74 356.166L137.352 356.473L136.541 355.447L136.93 355.141L136.334 354.387L137.565 353.414L138.16 354.168L138.67 353.765L139.481 354.791L138.971 355.194L139.637 356.037C139.695 356.111 139.754 356.151 139.814 356.158C139.877 356.162 139.949 356.132 140.03 356.068L140.324 355.836ZM146.217 350.297C146.284 350.382 146.343 350.468 146.393 350.554L144.414 352.118C144.646 352.373 144.865 352.419 145.072 352.255C145.205 352.15 145.253 352.013 145.216 351.845L146.519 350.815C146.649 351.072 146.713 351.346 146.709 351.637C146.706 351.922 146.636 352.202 146.5 352.478C146.364 352.747 146.167 352.984 145.908 353.189C145.598 353.434 145.269 353.588 144.923 353.652C144.581 353.712 144.246 353.676 143.92 353.544C143.594 353.405 143.303 353.173 143.046 352.848C142.789 352.523 142.632 352.187 142.575 351.842C142.519 351.49 142.56 351.154 142.698 350.835C142.84 350.513 143.066 350.229 143.376 349.984C143.687 349.739 144.013 349.586 144.356 349.525C144.699 349.458 145.031 349.49 145.35 349.622C145.674 349.75 145.963 349.975 146.217 350.297ZM144.737 350.989C144.656 350.885 144.561 350.834 144.454 350.835C144.343 350.832 144.238 350.87 144.138 350.949C143.92 351.121 143.876 351.327 144.006 351.567L144.737 350.989ZM152.46 345.365C152.527 345.45 152.586 345.535 152.636 345.622L150.657 347.185C150.888 347.441 151.108 347.487 151.315 347.323C151.448 347.218 151.496 347.081 151.458 346.912L152.761 345.883C152.892 346.14 152.956 346.414 152.952 346.705C152.948 346.99 152.879 347.27 152.742 347.546C152.607 347.815 152.41 348.052 152.151 348.256C151.84 348.501 151.512 348.656 151.166 348.719C150.823 348.78 150.489 348.744 150.162 348.612C149.837 348.473 149.545 348.241 149.288 347.915C149.031 347.59 148.874 347.255 148.818 346.909C148.762 346.557 148.803 346.222 148.941 345.903C149.082 345.581 149.308 345.297 149.619 345.052C149.929 344.806 150.256 344.653 150.598 344.593C150.942 344.526 151.273 344.558 151.593 344.689C151.917 344.818 152.206 345.043 152.46 345.365ZM150.98 346.056C150.898 345.953 150.804 345.901 150.696 345.902C150.586 345.899 150.481 345.937 150.381 346.016C150.163 346.189 150.119 346.395 150.248 346.635L150.98 346.056ZM155.531 342.983C155.271 342.654 155.101 342.326 155.023 341.998C154.944 341.663 154.954 341.356 155.05 341.075C155.144 340.791 155.313 340.553 155.557 340.36C155.76 340.199 155.967 340.105 156.179 340.076C156.391 340.04 156.592 340.064 156.784 340.147L155.676 338.744L156.907 337.772L160.148 341.874L158.917 342.847L158.58 342.42C158.616 342.625 158.594 342.829 158.513 343.031C158.434 343.226 158.292 343.404 158.089 343.565C157.845 343.757 157.575 343.868 157.28 343.897C156.982 343.923 156.681 343.861 156.376 343.711C156.073 343.555 155.791 343.312 155.531 342.983ZM157.688 341.279C157.556 341.113 157.411 341.017 157.253 340.992C157.095 340.966 156.95 341.006 156.817 341.112C156.684 341.217 156.611 341.349 156.599 341.509C156.587 341.668 156.647 341.831 156.778 341.997C156.91 342.164 157.054 342.26 157.212 342.285C157.37 342.31 157.516 342.27 157.649 342.165C157.782 342.06 157.855 341.927 157.867 341.768C157.879 341.608 157.819 341.445 157.688 341.279Z" fill="white"/>
<path d="M89.7075 340.766C90.2257 341.422 90.5459 342.139 90.6678 342.917C90.782 343.686 90.6643 344.462 90.3146 345.248C89.9747 346.025 89.3838 346.746 88.5418 347.412L87.2495 348.433L89.8602 351.737L86.6 354.313L78.3848 343.915L82.9374 340.318C84.2101 339.313 85.4396 338.866 86.6257 338.979C87.8215 339.083 88.8488 339.679 89.7075 340.766ZM86.1441 345.132C86.8196 344.598 86.906 344.013 86.4032 343.377C85.9004 342.74 85.3112 342.689 84.6356 343.223L83.7104 343.954L85.2189 345.863L86.1441 345.132ZM101.365 342.647L96.4648 340.46L96.4501 340.471L99.3974 344.202L96.1371 346.778L87.9219 336.38L92.7682 332.551C93.6102 331.886 94.4497 331.469 95.2867 331.3C96.116 331.122 96.8825 331.177 97.5862 331.463C98.2919 331.733 98.9001 332.191 99.4106 332.837C99.9599 333.532 100.251 334.303 100.285 335.151C100.329 335.991 100.081 336.815 99.5424 337.623L104.949 339.816L101.365 342.647ZM94.7328 338.298L96.0251 337.277C96.3384 337.029 96.5192 336.775 96.5676 336.514C96.6082 336.244 96.5086 335.957 96.2688 335.653C96.0522 335.379 95.7988 335.229 95.5086 335.204C95.2282 335.171 94.9362 335.275 94.6327 335.515L93.3404 336.536L94.7328 338.298ZM101.02 326.031L109.236 336.428L105.975 339.004L97.7602 328.607L101.02 326.031ZM106.295 330.283C105.483 329.255 104.965 328.178 104.742 327.05C104.529 325.914 104.635 324.821 105.06 323.769C105.478 322.708 106.21 321.763 107.258 320.935C108.159 320.224 109.097 319.761 110.073 319.546C111.05 319.315 112.003 319.333 112.931 319.602C113.869 319.863 114.736 320.346 115.533 321.053L112.096 323.768C111.669 323.549 111.235 323.463 110.794 323.509C110.355 323.537 109.95 323.698 109.578 323.992C109.03 324.426 108.756 324.975 108.758 325.642C108.77 326.301 109.05 326.978 109.599 327.673C110.149 328.368 110.742 328.797 111.381 328.961C112.029 329.117 112.627 328.978 113.175 328.545C113.547 328.251 113.802 327.899 113.938 327.488C114.077 327.061 114.09 326.613 113.976 326.147L117.412 323.432C117.915 324.37 118.185 325.326 118.222 326.298C118.269 327.263 118.07 328.199 117.626 329.107C117.184 329.997 116.513 330.797 115.612 331.509C114.565 332.337 113.48 332.836 112.359 333.006C111.229 333.167 110.137 333.012 109.082 332.542C108.036 332.064 107.107 331.311 106.295 330.283ZM118.864 316.154L119.874 317.432L123.105 314.879L125.042 317.332L121.812 319.884L122.972 321.353L126.643 318.452L128.697 321.051L121.765 326.528L113.55 316.131L120.482 310.654L122.536 313.253L118.864 316.154Z" fill="#F97837"/>
</g>
<defs>
<filter id="filter0_d_2996_1055" x="213" y="147" width="359" height="453.915" filterUnits="userSpaceOnUse" color-interpolation-filters="sRGB">
<feFlood flood-opacity="0" result="BackgroundImageFix"/>
<feColorMatrix in="SourceAlpha" type="matrix" values="0 0 0 0 0 0 0 0 0 0 0 0 0 0 0 0 0 0 127 0" result="hardAlpha"/>
<feOffset dy="10"/>
<feGaussianBlur stdDeviation="50"/>
<feComposite in2="hardAlpha" operator="out"/>
<feColorMatrix type="matrix" values="0 0 0 0 0.976471 0 0 0 0 0.658824 0 0 0 0 0.14902 0 0 0 0.15 0"/>
<feBlend mode="normal" in2="BackgroundImageFix" result="effect1_dropShadow_2996_1055"/>
<feBlend mode="normal" in="SourceGraphic" in2="effect1_dropShadow_2996_1055" result="shape"/>
</filter>
<filter id="filter1_d_2996_1055" x="43.025" y="314.608" width="270.542" height="184.555" filterUnits="userSpaceOnUse" color-interpolation-filters="sRGB">
<feFlood flood-opacity="0" result="BackgroundImageFix"/>
<feColorMatrix in="SourceAlpha" type="matrix" values="0 0 0 0 0 0 0 0 0 0 0 0 0 0 0 0 0 0 127 0" result="hardAlpha"/>
<feOffset dy="12.5833"/>
<feGaussianBlur stdDeviation="16.9875"/>
<feComposite in2="hardAlpha" operator="out"/>
<feColorMatrix type="matrix" values="0 0 0 0 0 0 0 0 0 0 0 0 0 0 0 0 0 0 0.1 0"/>
<feBlend mode="normal" in2="BackgroundImageFix" result="effect1_dropShadow_2996_1055"/>
<feBlend mode="normal" in="SourceGraphic" in2="effect1_dropShadow_2996_1055" result="shape"/>
</filter>
<clipPath id="clip0_2996_1055">
<rect width="453" height="453" fill="white"/>
</clipPath>
</defs>
</svg>
