<svg width="545" height="424" viewBox="0 0 545 424" fill="none" xmlns="http://www.w3.org/2000/svg">
<g clip-path="url(#clip0_1660_363)">
<rect width="545" height="424" fill="white"/>
<g filter="url(#filter0_d_1660_363)">
<path d="M421.168 17.145H49.7526C42.0483 17.145 35.8027 26.8353 35.8027 38.7888V401.322C35.8027 413.275 42.0483 422.966 49.7526 422.966H421.168C428.872 422.966 435.117 413.275 435.117 401.322V38.7888C435.117 26.8353 428.872 17.145 421.168 17.145Z" fill="white"/>
</g>
<rect width="545" height="423.538" rx="24" fill="white"/>
<path d="M472.409 238.889H471.044V267.564H472.409V238.889Z" fill="#F2F2F2"/>
<path d="M457.39 220.454H449.197V503.115H457.39V220.454Z" fill="#F2F2F2"/>
<path d="M490.803 242.644H415.785C414.962 242.644 414.148 242.469 413.398 242.131C412.648 241.792 411.979 241.298 411.434 240.681C410.889 240.064 410.482 239.339 410.24 238.552C409.997 237.766 409.924 236.937 410.026 236.121L419.585 159.652C419.762 158.249 420.445 156.959 421.505 156.023C422.565 155.088 423.93 154.57 425.343 154.568H481.244C482.658 154.57 484.023 155.088 485.083 156.023C486.143 156.959 486.826 158.249 487.003 159.652L496.562 236.121C496.664 236.937 496.591 237.766 496.348 238.552C496.106 239.339 495.698 240.064 495.154 240.681C494.609 241.298 493.94 241.792 493.19 242.131C492.439 242.469 491.626 242.644 490.803 242.644Z" fill="#FCEA2B"/>
<path d="M471.729 272.343C474.368 272.343 476.508 270.203 476.508 267.564C476.508 264.924 474.368 262.785 471.729 262.785C469.089 262.785 466.949 264.924 466.949 267.564C466.949 270.203 469.089 272.343 471.729 272.343Z" fill="#F2F2F2"/>
<path d="M23.9037 367.97H-50.2095C-53.6586 367.966 -56.9653 366.594 -59.4041 364.156C-61.843 361.717 -63.2149 358.41 -63.2188 354.961V304.501C-63.2149 301.052 -61.843 297.745 -59.4041 295.306C-56.9653 292.867 -53.6586 291.496 -50.2095 291.492H23.9037C27.3527 291.496 30.6594 292.867 33.0983 295.306C35.5372 297.745 36.909 301.052 36.9129 304.501V354.961C36.909 358.41 35.5371 361.717 33.0983 364.156C30.6594 366.594 27.3527 367.966 23.9037 367.97Z" fill="#F9A826"/>
<path d="M123.643 368.364H49.5298C46.0807 368.36 42.774 366.988 40.3351 364.55C37.8963 362.111 36.5244 358.804 36.5205 355.355V304.895C36.5244 301.446 37.8963 298.139 40.3351 295.7C42.774 293.262 46.0807 291.89 49.5298 291.886H123.643C127.092 291.89 130.399 293.262 132.838 295.7C135.276 298.139 136.648 301.446 136.652 304.895V355.355C136.648 358.804 135.276 362.111 132.838 364.55C130.399 366.988 127.092 368.36 123.643 368.364Z" fill="#F9A826"/>
<path d="M223.378 368.758H149.265C145.816 368.754 142.509 367.382 140.07 364.944C137.632 362.505 136.26 359.198 136.256 355.749V305.289C136.26 301.84 137.632 298.533 140.07 296.094C142.509 293.656 145.816 292.284 149.265 292.28H223.378C226.827 292.284 230.134 293.656 232.573 296.094C235.012 298.533 236.384 301.84 236.387 305.289V355.749C236.384 359.198 235.012 362.505 232.573 364.944C230.134 367.382 226.827 368.754 223.378 368.758Z" fill="#F9A826"/>
<path d="M251.763 365.21H-74.6504V433.41H251.763V365.21Z" fill="#FB8C00"/>
<path d="M250.188 433.805H235.996V336.827H263.197V417.136C263.197 426.327 257.361 433.805 250.188 433.805Z" fill="#F9A826"/>
<path d="M37.3093 379.402H-62.8223V358.114C-29.4449 338.968 3.93224 338.968 37.3093 358.114V379.402Z" fill="#FFC882"/>
<path d="M137.045 379.797H36.9131V358.509C70.2904 339.363 103.668 339.363 137.045 358.509V379.797Z" fill="#FFC882"/>
<path d="M236.784 380.191H136.652V358.903C170.03 339.757 203.407 339.757 236.784 358.903V380.191Z" fill="#FFC882"/>
<path d="M258.464 365.21C271.31 365.21 281.723 354.797 281.723 341.951C281.723 329.106 271.31 318.692 258.464 318.692C245.618 318.692 235.205 329.106 235.205 341.951C235.205 354.797 245.618 365.21 258.464 365.21Z" fill="#FFC882"/>
<path d="M189.95 296.385C190.004 296.759 190.028 297.137 190.023 297.514L217.902 316.73L225.337 313.21L232.116 323.736L219.559 331.246C218.545 331.853 217.361 332.114 216.185 331.991C215.01 331.868 213.906 331.366 213.04 330.562L184.805 304.356C183.404 304.751 181.916 304.709 180.539 304.237C179.162 303.765 177.962 302.885 177.098 301.714C176.233 300.544 175.746 299.137 175.7 297.683C175.654 296.228 176.052 294.794 176.842 293.571C177.631 292.348 178.774 291.395 180.118 290.837C181.462 290.28 182.945 290.145 184.368 290.45C185.791 290.756 187.087 291.487 188.084 292.547C189.081 293.608 189.732 294.946 189.95 296.385Z" fill="#FFB8B8"/>
<path d="M218.442 315.076C218.565 314.652 218.777 314.26 219.066 313.925C219.354 313.591 219.711 313.323 220.112 313.139L234.131 306.715C236.024 305.483 238.329 305.051 240.539 305.516C242.75 305.98 244.687 307.301 245.924 309.191C247.162 311.08 247.6 313.384 247.142 315.596C246.684 317.808 245.368 319.748 243.482 320.991L231.893 331.239C231.562 331.531 231.172 331.749 230.749 331.877C230.327 332.005 229.882 332.041 229.444 331.981C229.007 331.922 228.587 331.769 228.214 331.533C227.841 331.297 227.523 330.983 227.282 330.613L218.818 317.607C218.577 317.237 218.419 316.82 218.354 316.383C218.289 315.946 218.319 315.501 218.442 315.076Z" fill="#F9A826"/>
<path d="M189.599 297.638L189.459 297.648L189.076 292.36C188.954 290.669 187.86 289.371 186.634 289.46L178.505 290.048C177.278 290.137 175.021 291.678 175.143 293.368L175.242 294.73L177.243 322.379C177.365 324.069 179.82 325.269 181.047 325.18L189.176 324.592C190.402 324.503 191.297 323.061 191.175 321.371L189.731 301.412L189.871 301.402L189.599 297.638Z" fill="#3F3D56"/>
<path d="M188.607 292.416L190.703 321.384C190.794 322.646 190.126 323.723 189.21 323.789L181.042 324.38C180.126 324.447 179.309 323.477 179.218 322.215L177.122 293.247C177.03 291.984 177.699 290.907 178.615 290.841L179.606 290.769C179.537 291.027 179.552 291.3 179.648 291.549C179.744 291.797 179.917 292.009 180.141 292.154C180.235 292.199 180.339 292.219 180.443 292.212L185.101 291.875C185.536 291.843 185.853 291.331 185.81 290.731C185.8 290.593 185.77 290.457 185.722 290.327L186.783 290.25C187.699 290.184 188.515 291.153 188.607 292.416Z" fill="white"/>
<path d="M74.0184 359.306L71.3242 351.381L100.61 337.218L104.587 348.915L74.0184 359.306Z" fill="#FFB8B8"/>
<path d="M67.0218 363.939L58.335 338.385L58.6582 338.275C59.9643 337.831 61.3451 337.649 62.7218 337.738C64.0984 337.828 65.4439 338.188 66.6815 338.797C67.9191 339.407 69.0245 340.254 69.9346 341.291C70.8447 342.328 71.5416 343.534 71.9856 344.84L77.2914 360.448L67.0218 363.939Z" fill="#2F2E41"/>
<path d="M190.249 364.961C183.968 365.314 177.705 364.003 172.093 361.16L137.655 337.732L97.4445 352.622C96.3771 352.986 95.2117 352.93 94.1836 352.467C93.1555 352.004 92.3413 351.169 91.9054 350.129L89.9346 345.389C89.4851 344.322 89.4722 343.122 89.8986 342.047C90.325 340.971 91.1566 340.105 92.2145 339.637L130.631 322.385C135.244 320.321 140.417 319.873 145.316 321.115L198.647 334.705L212.744 351.446L212.588 351.662C205.667 361.21 197.459 364.44 190.249 364.961Z" fill="#2F2E41"/>
<path d="M233.806 295.006C243.068 295.006 250.576 287.498 250.576 278.237C250.576 268.976 243.068 261.468 233.806 261.468C224.545 261.468 217.037 268.976 217.037 278.237C217.037 287.498 224.545 295.006 233.806 295.006Z" fill="#FFB8B8"/>
<path d="M216.591 358.911L189.603 338.826L208.009 325.744C207.482 324.05 205.147 314.363 217.92 307.76C221.963 305.67 224.876 303.871 226.577 302.413C228.992 300.33 232.085 299.202 235.274 299.241C237.285 299.273 239.26 299.772 241.043 300.699C242.827 301.626 244.371 302.956 245.552 304.583C246.733 306.21 247.519 308.089 247.848 310.072C248.178 312.056 248.041 314.088 247.449 316.01C244.785 324.667 240.543 336.139 235.456 341.625C229.702 347.824 223.462 353.553 216.795 358.757L216.591 358.911Z" fill="#F9A826"/>
<path d="M78.2967 366.328L75.6025 358.403L104.889 344.24L108.865 355.937L78.2967 366.328Z" fill="#FFB8B8"/>
<path d="M71.2991 370.961L62.6123 345.408L62.9355 345.298C64.2416 344.854 65.6225 344.671 66.9991 344.761C68.3758 344.851 69.7213 345.21 70.9589 345.82C72.1964 346.43 73.3018 347.277 74.2119 348.314C75.122 349.35 75.819 350.556 76.263 351.863L81.5687 367.47L71.2991 370.961Z" fill="#2F2E41"/>
<path d="M194.528 371.984C188.247 372.337 181.984 371.026 176.372 368.183L141.935 344.755L101.724 359.645C100.656 360.009 99.491 359.953 98.4629 359.49C97.4348 359.027 96.6206 358.192 96.1847 357.152L94.2139 352.412C93.7644 351.345 93.7515 350.145 94.1779 349.069C94.6042 347.994 95.4359 347.128 96.4938 346.66L134.91 329.408C139.523 327.344 144.697 326.896 149.595 328.137L202.927 341.728L217.024 358.469L216.867 358.685C209.947 368.233 201.738 371.463 194.528 371.984Z" fill="#2F2E41"/>
<path d="M186.789 316.501C186.997 316.816 187.181 317.147 187.338 317.491L220.76 322.919L225.972 316.555L236.605 323.165L228.473 335.328C227.816 336.311 226.858 337.054 225.743 337.446C224.628 337.838 223.416 337.857 222.288 337.501L185.552 325.908C184.455 326.864 183.092 327.463 181.646 327.626C180.2 327.789 178.738 327.508 177.456 326.82C176.173 326.132 175.131 325.07 174.466 323.775C173.802 322.48 173.548 321.013 173.738 319.57C173.928 318.127 174.552 316.776 175.528 315.697C176.505 314.617 177.786 313.861 179.203 313.528C180.62 313.195 182.104 313.301 183.459 313.832C184.814 314.363 185.976 315.294 186.789 316.501Z" fill="#FFB8B8"/>
<path d="M220.538 321.195C220.467 320.759 220.491 320.313 220.608 319.887C220.726 319.462 220.933 319.066 221.218 318.728L231.136 306.921C232.319 304.997 234.217 303.62 236.414 303.093C238.61 302.566 240.926 302.931 242.854 304.109C244.781 305.287 246.163 307.181 246.697 309.376C247.23 311.571 246.871 313.888 245.699 315.819L239.613 330.042C239.439 330.447 239.18 330.811 238.853 331.108C238.526 331.405 238.139 331.627 237.718 331.761C237.298 331.895 236.853 331.936 236.415 331.882C235.976 331.829 235.555 331.681 235.179 331.45L221.961 323.321C221.585 323.09 221.263 322.78 221.017 322.413C220.772 322.046 220.608 321.631 220.538 321.195Z" fill="#F9A826"/>
<path d="M229.323 296.705C234.196 290.436 236.898 282.752 237.022 274.813C234.728 276.517 232.132 277.771 229.371 278.508C226.441 279.289 223.22 279.446 220.46 278.189C216.576 276.419 214.279 271.907 214.72 267.662C215.161 263.417 218.094 259.625 221.914 257.721C225.824 255.893 230.284 255.623 234.386 256.966C236.556 255.118 239.213 253.935 242.039 253.558C244.864 253.18 247.739 253.626 250.318 254.84C256.253 257.754 259.536 264.5 260.105 271.087C260.675 277.675 258.982 284.225 257.304 290.62L257.115 291.343C256.592 293.334 255.074 297.154 255.074 297.154C255.074 297.154 246.255 295.414 242.752 294.299C237.674 296.134 229.323 296.705 229.323 296.705Z" fill="#2F2E41"/>
<path d="M187.288 298.312L180.103 298.832C179.923 298.845 179.744 298.786 179.607 298.667C179.47 298.549 179.386 298.381 179.373 298.2C179.36 298.02 179.419 297.841 179.537 297.704C179.656 297.567 179.824 297.483 180.005 297.47L187.19 296.95C187.279 296.943 187.369 296.954 187.455 296.983C187.54 297.011 187.619 297.055 187.687 297.114C187.755 297.173 187.81 297.244 187.851 297.325C187.891 297.405 187.915 297.492 187.921 297.582C187.928 297.671 187.917 297.761 187.888 297.846C187.86 297.932 187.815 298.01 187.756 298.078C187.698 298.146 187.626 298.202 187.546 298.242C187.465 298.282 187.378 298.306 187.288 298.312Z" fill="#3F3D56"/>
<path d="M187.532 301.716L180.347 302.236C180.257 302.243 180.167 302.232 180.082 302.204C179.997 302.176 179.918 302.131 179.85 302.072C179.782 302.013 179.726 301.942 179.686 301.862C179.646 301.782 179.622 301.694 179.615 301.605C179.609 301.515 179.62 301.425 179.648 301.34C179.676 301.255 179.721 301.176 179.78 301.108C179.839 301.04 179.911 300.985 179.991 300.945C180.071 300.904 180.159 300.881 180.248 300.874L187.433 300.354C187.614 300.341 187.792 300.4 187.929 300.519C188.066 300.637 188.151 300.805 188.164 300.986C188.177 301.167 188.118 301.345 187.999 301.482C187.881 301.619 187.713 301.703 187.532 301.716Z" fill="#3F3D56"/>
<path d="M187.779 305.122L180.594 305.641C180.413 305.654 180.235 305.595 180.099 305.476C179.962 305.358 179.878 305.19 179.865 305.01C179.852 304.829 179.911 304.651 180.029 304.514C180.147 304.377 180.315 304.293 180.495 304.279L187.68 303.76C187.861 303.747 188.039 303.806 188.176 303.924C188.313 304.043 188.398 304.211 188.411 304.391C188.424 304.572 188.365 304.75 188.246 304.887C188.128 305.024 187.96 305.108 187.779 305.122Z" fill="#3F3D56"/>
<path d="M106.255 212.247H37.2962C35.667 212.245 34.1052 211.597 32.9532 210.445C31.8012 209.293 31.1532 207.731 31.1514 206.102V146.702C31.1532 145.073 31.8012 143.511 32.9532 142.359C34.1052 141.207 35.667 140.559 37.2962 140.557H106.255C107.884 140.559 109.446 141.207 110.598 142.359C111.75 143.511 112.398 145.073 112.399 146.702V206.102C112.398 207.731 111.75 209.293 110.598 210.445C109.446 211.597 107.884 212.245 106.255 212.247ZM37.2962 141.923C36.0291 141.924 34.8143 142.428 33.9183 143.324C33.0223 144.22 32.5183 145.435 32.5169 146.702V206.102C32.5183 207.369 33.0223 208.584 33.9183 209.48C34.8143 210.376 36.0291 210.88 37.2962 210.881H106.255C107.522 210.88 108.736 210.376 109.632 209.48C110.528 208.584 111.032 207.369 111.034 206.102V146.702C111.032 145.435 110.528 144.22 109.632 143.324C108.736 142.428 107.522 141.924 106.255 141.923H37.2962Z" fill="#F2F2F2"/>
<path d="M96.1716 203.029H47.3776C45.839 203.028 44.3639 202.416 43.2759 201.328C42.1879 200.24 41.5759 198.765 41.5742 197.226V155.578C41.5759 154.039 42.1879 152.564 43.2759 151.476C44.3639 150.388 45.839 149.776 47.3776 149.774H96.1716C97.7102 149.776 99.1853 150.388 100.273 151.476C101.361 152.564 101.973 154.039 101.975 155.578V197.226C101.973 198.765 101.361 200.24 100.273 201.328C99.1853 202.416 97.7102 203.028 96.1716 203.029Z" fill="#E6E6E6"/>
<path d="M72.1179 131.682C74.0033 131.682 75.5317 130.153 75.5317 128.268C75.5317 126.382 74.0033 124.854 72.1179 124.854C70.2325 124.854 68.7041 126.382 68.7041 128.268C68.7041 130.153 70.2325 131.682 72.1179 131.682Z" fill="#F2F2F2"/>
<path d="M79.2928 141.591L72.1171 129.6L64.9822 141.589L63.8086 140.891L72.1136 126.936L80.4644 140.889L79.2928 141.591Z" fill="#F2F2F2"/>
<path d="M79.9671 171.622C79.9652 170.589 79.8518 169.559 79.6287 168.55H69.3843C68.66 168.55 67.9654 168.838 67.4532 169.35C66.9411 169.862 66.6533 170.557 66.6533 171.281V185.908C70.2677 185.652 73.6506 184.035 76.1209 181.385C78.5912 178.734 79.9656 175.246 79.9671 171.622Z" fill="#F9A826"/>
<path d="M65.6324 186.643C62.7994 186.644 60.0238 185.844 57.6261 184.335C55.2284 182.825 53.3064 180.669 52.0819 178.114C50.8574 175.56 50.3804 172.711 50.7059 169.896C51.0315 167.082 52.1462 164.417 53.9216 162.209C55.697 160.002 58.0605 158.341 60.7394 157.419C63.4183 156.497 66.3033 156.352 69.0613 156.999C71.8193 157.647 74.3379 159.062 76.3264 161.08C78.3148 163.098 79.692 165.637 80.299 168.404L80.4801 169.233H69.3876C68.8446 169.233 68.3239 169.449 67.9399 169.833C67.5559 170.217 67.3399 170.738 67.3393 171.281V186.545L66.5862 186.598C66.2702 186.621 65.9542 186.643 65.6324 186.643ZM65.6324 157.967C62.0109 157.967 58.5376 159.406 55.9768 161.967C53.416 164.527 51.9773 168.001 51.9773 171.622C51.9773 175.244 53.416 178.717 55.9768 181.278C58.5376 183.839 62.0109 185.277 65.6324 185.277C65.747 185.277 65.8606 185.274 65.9738 185.269V171.281C65.9749 170.376 66.3349 169.508 66.9748 168.868C67.6148 168.228 68.4825 167.868 69.3876 167.867H78.7561C77.9291 165.022 76.2042 162.521 73.839 160.737C71.4738 158.952 68.5951 157.981 65.6324 157.967Z" fill="white"/>
<path d="M85.7697 191.081H69.3835C68.4784 191.08 67.6107 190.72 66.9707 190.08C66.3308 189.44 65.9708 188.573 65.9697 187.668V185.273L66.6042 185.228C68.5589 185.093 70.4614 184.538 72.1819 183.6C73.9024 182.663 75.4003 181.365 76.5733 179.796C77.7464 178.226 78.5669 176.422 78.979 174.507C79.391 172.591 79.3848 170.609 78.9609 168.696L78.7797 167.868H85.7697C86.6747 167.869 87.5424 168.229 88.1824 168.869C88.8224 169.509 89.1824 170.376 89.1834 171.281V187.668C89.1824 188.573 88.8224 189.44 88.1824 190.08C87.5424 190.72 86.6747 191.08 85.7697 191.081ZM67.3352 186.531V187.668C67.3358 188.211 67.5518 188.731 67.9358 189.115C68.3198 189.499 68.8405 189.715 69.3835 189.716H85.7697C86.3127 189.715 86.8333 189.499 87.2173 189.115C87.6013 188.731 87.8173 188.211 87.8179 187.668V171.281C87.8173 170.738 87.6013 170.218 87.2173 169.834C86.8333 169.45 86.3127 169.234 85.7697 169.233H80.4529C80.5824 170.023 80.648 170.822 80.649 171.623C80.6364 175.306 79.2747 178.857 76.8215 181.604C74.3682 184.351 70.9935 186.104 67.3352 186.531Z" fill="white"/>
<path d="M-0.755447 50.7138H-220.768C-221.094 50.7134 -221.408 50.5835 -221.639 50.3524C-221.87 50.1214 -222 49.8082 -222 49.4814V42.2324C-222 41.9056 -221.87 41.5924 -221.639 41.3613C-221.408 41.1303 -221.094 41.0004 -220.768 41H-0.755447C-0.428711 41.0004 -0.115463 41.1303 0.11557 41.3613C0.346603 41.5924 0.476562 41.9056 0.476929 42.2324V49.4814C0.476562 49.8082 0.346603 50.1214 0.11557 50.3524C-0.115463 50.5835 -0.428711 50.7134 -0.755447 50.7138Z" fill="#E4E4E4"/>
<path d="M65.496 83H60.168L54.528 74.456V83H49.2V66.008H54.528L60.168 74.696V66.008H65.496V83ZM74.3351 83.168C72.9751 83.168 71.7511 82.888 70.6631 82.328C69.5751 81.768 68.7191 80.968 68.0951 79.928C67.4871 78.872 67.1831 77.64 67.1831 76.232C67.1831 74.824 67.4871 73.6 68.0951 72.56C68.7191 71.504 69.5751 70.696 70.6631 70.136C71.7511 69.576 72.9751 69.296 74.3351 69.296C75.6951 69.296 76.9191 69.576 78.0071 70.136C79.0951 70.696 79.9431 71.504 80.5511 72.56C81.1751 73.6 81.4871 74.824 81.4871 76.232C81.4871 77.64 81.1751 78.872 80.5511 79.928C79.9431 80.968 79.0951 81.768 78.0071 82.328C76.9191 82.888 75.6951 83.168 74.3351 83.168ZM74.3351 78.56C74.8311 78.56 75.2471 78.368 75.5831 77.984C75.9191 77.584 76.0871 77 76.0871 76.232C76.0871 75.464 75.9191 74.888 75.5831 74.504C75.2471 74.104 74.8311 73.904 74.3351 73.904C73.8391 73.904 73.4231 74.104 73.0871 74.504C72.7511 74.888 72.5831 75.464 72.5831 76.232C72.5831 77 72.7431 77.584 73.0631 77.984C73.3991 78.368 73.8231 78.56 74.3351 78.56ZM103.705 69.464L100.489 83H94.4889L92.8569 75.368L91.1289 83H85.1289L81.9369 69.464H87.2169L88.3449 77.696L90.0969 69.464H95.7849L97.6329 77.792L98.7849 69.464H103.705ZM114.247 71.312C114.583 70.688 115.063 70.2 115.687 69.848C116.327 69.48 117.087 69.296 117.967 69.296C119.023 69.296 119.975 69.576 120.823 70.136C121.671 70.68 122.335 71.48 122.815 72.536C123.311 73.576 123.559 74.808 123.559 76.232C123.559 77.656 123.311 78.896 122.815 79.952C122.335 80.992 121.671 81.792 120.823 82.352C119.975 82.896 119.023 83.168 117.967 83.168C117.087 83.168 116.327 82.992 115.687 82.64C115.063 82.272 114.583 81.776 114.247 81.152V83H108.919V65.24H114.247V71.312ZM118.159 76.232C118.159 75.512 117.975 74.952 117.607 74.552C117.239 74.152 116.767 73.952 116.191 73.952C115.615 73.952 115.143 74.152 114.775 74.552C114.407 74.952 114.223 75.512 114.223 76.232C114.223 76.952 114.407 77.512 114.775 77.912C115.143 78.312 115.615 78.512 116.191 78.512C116.767 78.512 117.239 78.312 117.607 77.912C117.975 77.512 118.159 76.952 118.159 76.232ZM124.511 76.232C124.511 74.808 124.751 73.576 125.231 72.536C125.727 71.48 126.399 70.68 127.247 70.136C128.095 69.576 129.047 69.296 130.103 69.296C130.983 69.296 131.743 69.48 132.383 69.848C133.023 70.2 133.511 70.688 133.847 71.312V69.464H139.151V83H133.847V81.152C133.511 81.776 133.023 82.272 132.383 82.64C131.743 82.992 130.983 83.168 130.103 83.168C129.047 83.168 128.095 82.896 127.247 82.352C126.399 81.792 125.727 80.992 125.231 79.952C124.751 78.896 124.511 77.656 124.511 76.232ZM133.847 76.232C133.847 75.512 133.663 74.952 133.295 74.552C132.927 74.152 132.455 73.952 131.879 73.952C131.303 73.952 130.831 74.152 130.463 74.552C130.095 74.952 129.911 75.512 129.911 76.232C129.911 76.952 130.095 77.512 130.463 77.912C130.831 78.312 131.303 78.512 131.879 78.512C132.455 78.512 132.927 78.312 133.295 77.912C133.663 77.512 133.847 76.952 133.847 76.232ZM146.872 71.96C147.416 71.176 148.08 70.552 148.864 70.088C149.648 69.608 150.464 69.368 151.312 69.368V75.056H149.8C148.792 75.056 148.048 75.232 147.568 75.584C147.104 75.936 146.872 76.56 146.872 77.456V83H141.544V69.464H146.872V71.96ZM157.619 69.296C158.499 69.296 159.259 69.48 159.899 69.848C160.539 70.2 161.027 70.688 161.363 71.312V69.464H166.667V82.76C166.667 84.024 166.435 85.176 165.971 86.216C165.507 87.256 164.755 88.088 163.715 88.712C162.691 89.336 161.371 89.648 159.755 89.648C157.579 89.648 155.851 89.136 154.571 88.112C153.307 87.104 152.587 85.728 152.411 83.984H157.643C157.787 84.688 158.363 85.04 159.371 85.04C159.995 85.04 160.483 84.88 160.835 84.56C161.187 84.24 161.363 83.64 161.363 82.76V81.152C161.027 81.776 160.539 82.272 159.899 82.64C159.259 82.992 158.499 83.168 157.619 83.168C156.563 83.168 155.611 82.896 154.763 82.352C153.915 81.792 153.243 80.992 152.747 79.952C152.267 78.896 152.027 77.656 152.027 76.232C152.027 74.808 152.267 73.576 152.747 72.536C153.243 71.48 153.915 70.68 154.763 70.136C155.611 69.576 156.563 69.296 157.619 69.296ZM161.363 76.232C161.363 75.512 161.179 74.952 160.811 74.552C160.443 74.152 159.971 73.952 159.395 73.952C158.819 73.952 158.347 74.152 157.979 74.552C157.611 74.952 157.427 75.512 157.427 76.232C157.427 76.952 157.611 77.512 157.979 77.912C158.347 78.312 158.819 78.512 159.395 78.512C159.971 78.512 160.443 78.312 160.811 77.912C161.179 77.512 161.363 76.952 161.363 76.232ZM168.339 76.232C168.339 74.808 168.579 73.576 169.059 72.536C169.555 71.48 170.227 70.68 171.075 70.136C171.923 69.576 172.875 69.296 173.931 69.296C174.811 69.296 175.571 69.48 176.211 69.848C176.851 70.2 177.339 70.688 177.675 71.312V69.464H182.979V83H177.675V81.152C177.339 81.776 176.851 82.272 176.211 82.64C175.571 82.992 174.811 83.168 173.931 83.168C172.875 83.168 171.923 82.896 171.075 82.352C170.227 81.792 169.555 80.992 169.059 79.952C168.579 78.896 168.339 77.656 168.339 76.232ZM177.675 76.232C177.675 75.512 177.491 74.952 177.123 74.552C176.755 74.152 176.283 73.952 175.707 73.952C175.131 73.952 174.659 74.152 174.291 74.552C173.923 74.952 173.739 75.512 173.739 76.232C173.739 76.952 173.923 77.512 174.291 77.912C174.659 78.312 175.131 78.512 175.707 78.512C176.283 78.512 176.755 78.312 177.123 77.912C177.491 77.512 177.675 76.952 177.675 76.232ZM188.06 68.384C187.132 68.384 186.388 68.136 185.828 67.64C185.268 67.144 184.988 66.52 184.988 65.768C184.988 65 185.268 64.368 185.828 63.872C186.388 63.36 187.132 63.104 188.06 63.104C188.972 63.104 189.708 63.36 190.268 63.872C190.828 64.368 191.108 65 191.108 65.768C191.108 66.52 190.828 67.144 190.268 67.64C189.708 68.136 188.972 68.384 188.06 68.384ZM190.7 69.464V83H185.372V69.464H190.7ZM202.586 69.368C204.138 69.368 205.346 69.888 206.21 70.928C207.09 71.968 207.53 73.376 207.53 75.152V83H202.226V75.824C202.226 75.184 202.05 74.68 201.698 74.312C201.362 73.928 200.906 73.736 200.33 73.736C199.738 73.736 199.274 73.928 198.938 74.312C198.602 74.68 198.434 75.184 198.434 75.824V83H193.106V69.464H198.434V71.528C198.85 70.888 199.402 70.368 200.09 69.968C200.794 69.568 201.626 69.368 202.586 69.368ZM212.529 68.384C211.601 68.384 210.857 68.136 210.297 67.64C209.737 67.144 209.457 66.52 209.457 65.768C209.457 65 209.737 64.368 210.297 63.872C210.857 63.36 211.601 63.104 212.529 63.104C213.441 63.104 214.177 63.36 214.737 63.872C215.297 64.368 215.577 65 215.577 65.768C215.577 66.52 215.297 67.144 214.737 67.64C214.177 68.136 213.441 68.384 212.529 68.384ZM215.169 69.464V83H209.841V69.464H215.169ZM227.055 69.368C228.607 69.368 229.815 69.888 230.679 70.928C231.559 71.968 231.999 73.376 231.999 75.152V83H226.695V75.824C226.695 75.184 226.519 74.68 226.167 74.312C225.831 73.928 225.375 73.736 224.799 73.736C224.207 73.736 223.743 73.928 223.407 74.312C223.071 74.68 222.903 75.184 222.903 75.824V83H217.575V69.464H222.903V71.528C223.319 70.888 223.871 70.368 224.559 69.968C225.263 69.568 226.095 69.368 227.055 69.368ZM239.181 69.296C240.061 69.296 240.821 69.48 241.461 69.848C242.101 70.2 242.589 70.688 242.925 71.312V69.464H248.229V82.76C248.229 84.024 247.997 85.176 247.533 86.216C247.069 87.256 246.317 88.088 245.277 88.712C244.253 89.336 242.933 89.648 241.317 89.648C239.141 89.648 237.413 89.136 236.133 88.112C234.869 87.104 234.149 85.728 233.973 83.984H239.205C239.349 84.688 239.925 85.04 240.933 85.04C241.557 85.04 242.045 84.88 242.397 84.56C242.749 84.24 242.925 83.64 242.925 82.76V81.152C242.589 81.776 242.101 82.272 241.461 82.64C240.821 82.992 240.061 83.168 239.181 83.168C238.125 83.168 237.173 82.896 236.325 82.352C235.477 81.792 234.805 80.992 234.309 79.952C233.829 78.896 233.589 77.656 233.589 76.232C233.589 74.808 233.829 73.576 234.309 72.536C234.805 71.48 235.477 70.68 236.325 70.136C237.173 69.576 238.125 69.296 239.181 69.296ZM242.925 76.232C242.925 75.512 242.741 74.952 242.373 74.552C242.005 74.152 241.533 73.952 240.957 73.952C240.381 73.952 239.909 74.152 239.541 74.552C239.173 74.952 238.989 75.512 238.989 76.232C238.989 76.952 239.173 77.512 239.541 77.912C239.909 78.312 240.381 78.512 240.957 78.512C241.533 78.512 242.005 78.312 242.373 77.912C242.741 77.512 242.925 76.952 242.925 76.232ZM257.388 68.384C256.46 68.384 255.716 68.136 255.156 67.64C254.596 67.144 254.316 66.52 254.316 65.768C254.316 65 254.596 64.368 255.156 63.872C255.716 63.36 256.46 63.104 257.388 63.104C258.3 63.104 259.036 63.36 259.596 63.872C260.156 64.368 260.436 65 260.436 65.768C260.436 66.52 260.156 67.144 259.596 67.64C259.036 68.136 258.3 68.384 257.388 68.384ZM260.028 69.464V83H254.7V69.464H260.028ZM268.458 83.168C267.178 83.168 266.042 82.96 265.05 82.544C264.074 82.128 263.298 81.552 262.722 80.816C262.146 80.08 261.818 79.248 261.738 78.32H266.85C266.914 78.72 267.082 79.016 267.354 79.208C267.642 79.4 268.002 79.496 268.434 79.496C268.706 79.496 268.922 79.44 269.082 79.328C269.242 79.2 269.322 79.048 269.322 78.872C269.322 78.568 269.154 78.352 268.818 78.224C268.482 78.096 267.914 77.952 267.114 77.792C266.138 77.6 265.33 77.392 264.69 77.168C264.066 76.944 263.514 76.56 263.034 76.016C262.57 75.472 262.338 74.72 262.338 73.76C262.338 72.928 262.554 72.176 262.986 71.504C263.434 70.816 264.09 70.28 264.954 69.896C265.818 69.496 266.866 69.296 268.098 69.296C269.922 69.296 271.346 69.744 272.37 70.64C273.41 71.536 274.034 72.704 274.242 74.144H269.514C269.434 73.776 269.266 73.496 269.01 73.304C268.754 73.096 268.41 72.992 267.978 72.992C267.706 72.992 267.498 73.048 267.354 73.16C267.21 73.256 267.138 73.408 267.138 73.616C267.138 73.888 267.306 74.096 267.642 74.24C267.978 74.368 268.514 74.504 269.25 74.648C270.226 74.84 271.05 75.056 271.722 75.296C272.394 75.536 272.978 75.952 273.474 76.544C273.97 77.12 274.218 77.92 274.218 78.944C274.218 79.744 273.986 80.464 273.522 81.104C273.058 81.744 272.386 82.248 271.506 82.616C270.642 82.984 269.626 83.168 268.458 83.168ZM285.739 71.312C286.075 70.688 286.555 70.2 287.179 69.848C287.819 69.48 288.579 69.296 289.459 69.296C290.515 69.296 291.467 69.576 292.315 70.136C293.163 70.68 293.827 71.48 294.307 72.536C294.803 73.576 295.051 74.808 295.051 76.232C295.051 77.656 294.803 78.896 294.307 79.952C293.827 80.992 293.163 81.792 292.315 82.352C291.467 82.896 290.515 83.168 289.459 83.168C288.579 83.168 287.819 82.992 287.179 82.64C286.555 82.272 286.075 81.776 285.739 81.152V89.48H280.411V69.464H285.739V71.312ZM289.651 76.232C289.651 75.512 289.467 74.952 289.099 74.552C288.731 74.152 288.259 73.952 287.683 73.952C287.107 73.952 286.635 74.152 286.267 74.552C285.899 74.952 285.715 75.512 285.715 76.232C285.715 76.952 285.899 77.512 286.267 77.912C286.635 78.312 287.107 78.512 287.683 78.512C288.259 78.512 288.731 78.312 289.099 77.912C289.467 77.512 289.651 76.952 289.651 76.232ZM303.155 83.168C301.795 83.168 300.571 82.888 299.483 82.328C298.395 81.768 297.539 80.968 296.915 79.928C296.307 78.872 296.003 77.64 296.003 76.232C296.003 74.824 296.307 73.6 296.915 72.56C297.539 71.504 298.395 70.696 299.483 70.136C300.571 69.576 301.795 69.296 303.155 69.296C304.515 69.296 305.739 69.576 306.827 70.136C307.915 70.696 308.763 71.504 309.371 72.56C309.995 73.6 310.307 74.824 310.307 76.232C310.307 77.64 309.995 78.872 309.371 79.928C308.763 80.968 307.915 81.768 306.827 82.328C305.739 82.888 304.515 83.168 303.155 83.168ZM303.155 78.56C303.651 78.56 304.067 78.368 304.403 77.984C304.739 77.584 304.907 77 304.907 76.232C304.907 75.464 304.739 74.888 304.403 74.504C304.067 74.104 303.651 73.904 303.155 73.904C302.659 73.904 302.243 74.104 301.907 74.504C301.571 74.888 301.403 75.464 301.403 76.232C301.403 77 301.563 77.584 301.883 77.984C302.219 78.368 302.643 78.56 303.155 78.56ZM318.005 83.168C316.725 83.168 315.589 82.96 314.597 82.544C313.621 82.128 312.845 81.552 312.269 80.816C311.693 80.08 311.365 79.248 311.285 78.32H316.397C316.461 78.72 316.629 79.016 316.901 79.208C317.189 79.4 317.549 79.496 317.981 79.496C318.253 79.496 318.469 79.44 318.629 79.328C318.789 79.2 318.869 79.048 318.869 78.872C318.869 78.568 318.701 78.352 318.365 78.224C318.029 78.096 317.461 77.952 316.661 77.792C315.685 77.6 314.877 77.392 314.237 77.168C313.613 76.944 313.061 76.56 312.581 76.016C312.117 75.472 311.885 74.72 311.885 73.76C311.885 72.928 312.101 72.176 312.533 71.504C312.981 70.816 313.637 70.28 314.501 69.896C315.365 69.496 316.413 69.296 317.645 69.296C319.469 69.296 320.893 69.744 321.917 70.64C322.957 71.536 323.581 72.704 323.789 74.144H319.061C318.981 73.776 318.813 73.496 318.557 73.304C318.301 73.096 317.957 72.992 317.525 72.992C317.253 72.992 317.045 73.048 316.901 73.16C316.757 73.256 316.685 73.408 316.685 73.616C316.685 73.888 316.853 74.096 317.189 74.24C317.525 74.368 318.061 74.504 318.797 74.648C319.773 74.84 320.597 75.056 321.269 75.296C321.941 75.536 322.525 75.952 323.021 76.544C323.517 77.12 323.765 77.92 323.765 78.944C323.765 79.744 323.533 80.464 323.069 81.104C322.605 81.744 321.933 82.248 321.053 82.616C320.189 82.984 319.173 83.168 318.005 83.168ZM331.904 83.168C330.624 83.168 329.488 82.96 328.496 82.544C327.52 82.128 326.744 81.552 326.168 80.816C325.592 80.08 325.264 79.248 325.184 78.32H330.296C330.36 78.72 330.528 79.016 330.8 79.208C331.088 79.4 331.448 79.496 331.88 79.496C332.152 79.496 332.368 79.44 332.528 79.328C332.688 79.2 332.768 79.048 332.768 78.872C332.768 78.568 332.6 78.352 332.264 78.224C331.928 78.096 331.36 77.952 330.56 77.792C329.584 77.6 328.776 77.392 328.136 77.168C327.512 76.944 326.96 76.56 326.48 76.016C326.016 75.472 325.784 74.72 325.784 73.76C325.784 72.928 326 72.176 326.432 71.504C326.88 70.816 327.536 70.28 328.4 69.896C329.264 69.496 330.312 69.296 331.544 69.296C333.368 69.296 334.792 69.744 335.816 70.64C336.856 71.536 337.48 72.704 337.688 74.144H332.96C332.88 73.776 332.712 73.496 332.456 73.304C332.2 73.096 331.856 72.992 331.424 72.992C331.152 72.992 330.944 73.048 330.8 73.16C330.656 73.256 330.584 73.408 330.584 73.616C330.584 73.888 330.752 74.096 331.088 74.24C331.424 74.368 331.96 74.504 332.696 74.648C333.672 74.84 334.496 75.056 335.168 75.296C335.84 75.536 336.424 75.952 336.92 76.544C337.416 77.12 337.664 77.92 337.664 78.944C337.664 79.744 337.432 80.464 336.968 81.104C336.504 81.744 335.832 82.248 334.952 82.616C334.088 82.984 333.072 83.168 331.904 83.168ZM342.466 68.384C341.538 68.384 340.794 68.136 340.234 67.64C339.674 67.144 339.394 66.52 339.394 65.768C339.394 65 339.674 64.368 340.234 63.872C340.794 63.36 341.538 63.104 342.466 63.104C343.378 63.104 344.114 63.36 344.674 63.872C345.234 64.368 345.514 65 345.514 65.768C345.514 66.52 345.234 67.144 344.674 67.64C344.114 68.136 343.378 68.384 342.466 68.384ZM345.106 69.464V83H339.778V69.464H345.106ZM352.841 71.312C353.177 70.688 353.657 70.2 354.281 69.848C354.921 69.48 355.681 69.296 356.561 69.296C357.617 69.296 358.569 69.576 359.417 70.136C360.265 70.68 360.929 71.48 361.409 72.536C361.905 73.576 362.153 74.808 362.153 76.232C362.153 77.656 361.905 78.896 361.409 79.952C360.929 80.992 360.265 81.792 359.417 82.352C358.569 82.896 357.617 83.168 356.561 83.168C355.681 83.168 354.921 82.992 354.281 82.64C353.657 82.272 353.177 81.776 352.841 81.152V83H347.513V65.24H352.841V71.312ZM356.753 76.232C356.753 75.512 356.569 74.952 356.201 74.552C355.833 74.152 355.361 73.952 354.785 73.952C354.209 73.952 353.737 74.152 353.368 74.552C353.001 74.952 352.817 75.512 352.817 76.232C352.817 76.952 353.001 77.512 353.368 77.912C353.737 78.312 354.209 78.512 354.785 78.512C355.361 78.512 355.833 78.312 356.201 77.912C356.569 77.512 356.753 76.952 356.753 76.232ZM369.153 65.24V83H363.825V65.24H369.153ZM384.663 76.112C384.663 76.48 384.639 76.832 384.591 77.168H376.023C376.103 78.336 376.591 78.92 377.487 78.92C378.063 78.92 378.479 78.656 378.735 78.128H384.375C384.183 79.088 383.775 79.952 383.151 80.72C382.543 81.472 381.767 82.072 380.823 82.52C379.895 82.952 378.871 83.168 377.751 83.168C376.407 83.168 375.207 82.888 374.151 82.328C373.111 81.768 372.295 80.968 371.703 79.928C371.127 78.872 370.839 77.64 370.839 76.232C370.839 74.824 371.127 73.6 371.703 72.56C372.295 71.504 373.111 70.696 374.151 70.136C375.207 69.576 376.407 69.296 377.751 69.296C379.095 69.296 380.287 69.576 381.327 70.136C382.383 70.68 383.199 71.464 383.775 72.488C384.367 73.512 384.663 74.72 384.663 76.112ZM379.263 74.84C379.263 74.392 379.119 74.056 378.831 73.832C378.543 73.592 378.183 73.472 377.751 73.472C376.807 73.472 376.255 73.928 376.095 74.84H379.263ZM398.227 68.504C397.939 68.472 397.739 68.456 397.627 68.456C397.227 68.456 396.923 68.536 396.715 68.696C396.507 68.84 396.363 69.096 396.283 69.464H398.227V73.904H396.235V83H390.907V73.904H389.467V69.464H390.907C390.939 67.704 391.491 66.344 392.563 65.384C393.651 64.408 395.171 63.92 397.123 63.92C397.347 63.92 397.715 63.936 398.227 63.968V68.504ZM404.989 71.96C405.533 71.176 406.197 70.552 406.981 70.088C407.765 69.608 408.581 69.368 409.429 69.368V75.056H407.917C406.909 75.056 406.165 75.232 405.685 75.584C405.221 75.936 404.989 76.56 404.989 77.456V83H399.661V69.464H404.989V71.96ZM417.296 83.168C415.936 83.168 414.712 82.888 413.624 82.328C412.536 81.768 411.68 80.968 411.056 79.928C410.448 78.872 410.144 77.64 410.144 76.232C410.144 74.824 410.448 73.6 411.056 72.56C411.68 71.504 412.536 70.696 413.624 70.136C414.712 69.576 415.936 69.296 417.296 69.296C418.656 69.296 419.88 69.576 420.968 70.136C422.056 70.696 422.904 71.504 423.512 72.56C424.136 73.6 424.448 74.824 424.448 76.232C424.448 77.64 424.136 78.872 423.512 79.928C422.904 80.968 422.056 81.768 420.968 82.328C419.88 82.888 418.656 83.168 417.296 83.168ZM417.296 78.56C417.792 78.56 418.208 78.368 418.544 77.984C418.88 77.584 419.048 77 419.048 76.232C419.048 75.464 418.88 74.888 418.544 74.504C418.208 74.104 417.792 73.904 417.296 73.904C416.8 73.904 416.384 74.104 416.048 74.504C415.712 74.888 415.544 75.464 415.544 76.232C415.544 77 415.704 77.584 416.024 77.984C416.36 78.368 416.784 78.56 417.296 78.56ZM444.194 69.368C445.922 69.368 447.258 69.888 448.202 70.928C449.162 71.968 449.642 73.376 449.642 75.152V83H444.338V75.824C444.338 75.248 444.162 74.8 443.81 74.48C443.474 74.144 443.018 73.976 442.442 73.976C441.85 73.976 441.386 74.144 441.05 74.48C440.714 74.8 440.546 75.248 440.546 75.824V83H435.242V75.824C435.242 75.248 435.066 74.8 434.714 74.48C434.378 74.144 433.922 73.976 433.346 73.976C432.754 73.976 432.29 74.144 431.954 74.48C431.618 74.8 431.45 75.248 431.45 75.824V83H426.122V69.464H431.45V71.288C431.834 70.712 432.354 70.248 433.01 69.896C433.682 69.544 434.466 69.368 435.362 69.368C436.338 69.368 437.202 69.584 437.954 70.016C438.706 70.432 439.306 71.024 439.754 71.792C440.25 71.088 440.882 70.512 441.65 70.064C442.418 69.6 443.266 69.368 444.194 69.368ZM64.488 105.464L55.824 125.48H49.992L53.4 118.328L47.76 105.464H53.688L56.232 112.328L58.608 105.464H64.488ZM71.8742 119.168C70.5142 119.168 69.2902 118.888 68.2022 118.328C67.1142 117.768 66.2582 116.968 65.6342 115.928C65.0262 114.872 64.7222 113.64 64.7222 112.232C64.7222 110.824 65.0262 109.6 65.6342 108.56C66.2582 107.504 67.1142 106.696 68.2022 106.136C69.2902 105.576 70.5142 105.296 71.8742 105.296C73.2342 105.296 74.4582 105.576 75.5462 106.136C76.6342 106.696 77.4822 107.504 78.0902 108.56C78.7142 109.6 79.0262 110.824 79.0262 112.232C79.0262 113.64 78.7142 114.872 78.0902 115.928C77.4822 116.968 76.6342 117.768 75.5462 118.328C74.4582 118.888 73.2342 119.168 71.8742 119.168ZM71.8742 114.56C72.3702 114.56 72.7862 114.368 73.1222 113.984C73.4582 113.584 73.6262 113 73.6262 112.232C73.6262 111.464 73.4582 110.888 73.1222 110.504C72.7862 110.104 72.3702 109.904 71.8742 109.904C71.3782 109.904 70.9622 110.104 70.6262 110.504C70.2902 110.888 70.1222 111.464 70.1222 112.232C70.1222 113 70.2822 113.584 70.6022 113.984C70.9382 114.368 71.3622 114.56 71.8742 114.56ZM95.028 105.464V119H89.7V116.936C89.284 117.576 88.724 118.096 88.02 118.496C87.332 118.896 86.508 119.096 85.548 119.096C83.996 119.096 82.78 118.576 81.9 117.536C81.036 116.496 80.604 115.088 80.604 113.312V105.464H85.908V112.64C85.908 113.28 86.076 113.792 86.412 114.176C86.764 114.544 87.228 114.728 87.804 114.728C88.396 114.728 88.86 114.544 89.196 114.176C89.532 113.792 89.7 113.28 89.7 112.64V105.464H95.028ZM102.762 107.96C103.306 107.176 103.97 106.552 104.754 106.088C105.538 105.608 106.354 105.368 107.202 105.368V111.056H105.69C104.682 111.056 103.938 111.232 103.458 111.584C102.994 111.936 102.762 112.56 102.762 113.456V119H97.4344V105.464H102.762V107.96ZM111.996 112.232C111.996 110.824 112.284 109.6 112.86 108.56C113.452 107.504 114.268 106.696 115.308 106.136C116.364 105.576 117.564 105.296 118.908 105.296C120.668 105.296 122.148 105.792 123.348 106.784C124.564 107.776 125.332 109.152 125.652 110.912H120.012C119.804 110.208 119.396 109.856 118.788 109.856C118.356 109.856 118.012 110.056 117.756 110.456C117.516 110.856 117.396 111.448 117.396 112.232C117.396 113.016 117.516 113.608 117.756 114.008C118.012 114.408 118.356 114.608 118.788 114.608C119.396 114.608 119.804 114.256 120.012 113.552H125.652C125.332 115.312 124.564 116.688 123.348 117.68C122.148 118.672 120.668 119.168 118.908 119.168C117.564 119.168 116.364 118.888 115.308 118.328C114.268 117.768 113.452 116.968 112.86 115.928C112.284 114.872 111.996 113.64 111.996 112.232ZM133.773 119.168C132.413 119.168 131.189 118.888 130.101 118.328C129.013 117.768 128.157 116.968 127.533 115.928C126.925 114.872 126.621 113.64 126.621 112.232C126.621 110.824 126.925 109.6 127.533 108.56C128.157 107.504 129.013 106.696 130.101 106.136C131.189 105.576 132.413 105.296 133.773 105.296C135.133 105.296 136.357 105.576 137.445 106.136C138.533 106.696 139.381 107.504 139.989 108.56C140.613 109.6 140.925 110.824 140.925 112.232C140.925 113.64 140.613 114.872 139.989 115.928C139.381 116.968 138.533 117.768 137.445 118.328C136.357 118.888 135.133 119.168 133.773 119.168ZM133.773 114.56C134.269 114.56 134.685 114.368 135.021 113.984C135.357 113.584 135.525 113 135.525 112.232C135.525 111.464 135.357 110.888 135.021 110.504C134.685 110.104 134.269 109.904 133.773 109.904C133.277 109.904 132.861 110.104 132.525 110.504C132.189 110.888 132.021 111.464 132.021 112.232C132.021 113 132.181 113.584 132.501 113.984C132.837 114.368 133.261 114.56 133.773 114.56ZM156.926 105.464V119H151.598V116.936C151.182 117.576 150.622 118.096 149.918 118.496C149.23 118.896 148.406 119.096 147.446 119.096C145.894 119.096 144.678 118.576 143.798 117.536C142.934 116.496 142.502 115.088 142.502 113.312V105.464H147.806V112.64C147.806 113.28 147.974 113.792 148.31 114.176C148.662 114.544 149.126 114.728 149.702 114.728C150.294 114.728 150.758 114.544 151.094 114.176C151.43 113.792 151.598 113.28 151.598 112.64V105.464H156.926ZM158.613 112.232C158.613 110.824 158.901 109.6 159.477 108.56C160.069 107.504 160.885 106.696 161.925 106.136C162.981 105.576 164.181 105.296 165.525 105.296C167.285 105.296 168.765 105.792 169.965 106.784C171.181 107.776 171.949 109.152 172.269 110.912H166.629C166.421 110.208 166.013 109.856 165.405 109.856C164.973 109.856 164.629 110.056 164.373 110.456C164.133 110.856 164.013 111.448 164.013 112.232C164.013 113.016 164.133 113.608 164.373 114.008C164.629 114.408 164.973 114.608 165.405 114.608C166.013 114.608 166.421 114.256 166.629 113.552H172.269C171.949 115.312 171.181 116.688 169.965 117.68C168.765 118.672 167.285 119.168 165.525 119.168C164.181 119.168 162.981 118.888 161.925 118.328C160.885 117.768 160.069 116.968 159.477 115.928C158.901 114.872 158.613 113.64 158.613 112.232ZM183.438 105.368C184.99 105.368 186.198 105.888 187.062 106.928C187.942 107.968 188.382 109.376 188.382 111.152V119H183.078V111.824C183.078 111.184 182.902 110.68 182.55 110.312C182.214 109.928 181.758 109.736 181.182 109.736C180.59 109.736 180.126 109.928 179.79 110.312C179.454 110.68 179.286 111.184 179.286 111.824V119H173.958V101.24H179.286V107.528C179.702 106.888 180.254 106.368 180.942 105.968C181.646 105.568 182.478 105.368 183.438 105.368ZM201.946 100.88L201.322 112.256H196.762L196.138 100.88H201.946ZM199.042 119.192C198.114 119.192 197.37 118.944 196.81 118.448C196.25 117.952 195.97 117.328 195.97 116.576C195.97 115.808 196.25 115.176 196.81 114.68C197.37 114.168 198.114 113.912 199.042 113.912C199.954 113.912 200.69 114.168 201.25 114.68C201.81 115.176 202.09 115.808 202.09 116.576C202.09 117.328 201.81 117.952 201.25 118.448C200.69 118.944 199.954 119.192 199.042 119.192Z" fill="#3F3D56"/>
</g>
<defs>
<filter id="filter0_d_1660_363" x="-54.1973" y="-72.855" width="599.314" height="605.821" filterUnits="userSpaceOnUse" color-interpolation-filters="sRGB">
<feFlood flood-opacity="0" result="BackgroundImageFix"/>
<feColorMatrix in="SourceAlpha" type="matrix" values="0 0 0 0 0 0 0 0 0 0 0 0 0 0 0 0 0 0 127 0" result="hardAlpha"/>
<feOffset dx="10" dy="10"/>
<feGaussianBlur stdDeviation="50"/>
<feComposite in2="hardAlpha" operator="out"/>
<feColorMatrix type="matrix" values="0 0 0 0 0.741667 0 0 0 0 0.741667 0 0 0 0 0.741667 0 0 0 0.35 0"/>
<feBlend mode="normal" in2="BackgroundImageFix" result="effect1_dropShadow_1660_363"/>
<feBlend mode="normal" in="SourceGraphic" in2="effect1_dropShadow_1660_363" result="shape"/>
</filter>
<clipPath id="clip0_1660_363">
<rect width="545" height="424" fill="white"/>
</clipPath>
</defs>
</svg>
