<svg width="545" height="424" viewBox="0 0 545 424" fill="none" xmlns="http://www.w3.org/2000/svg">
<g clip-path="url(#clip0_1660_400)">
<rect width="545" height="424" fill="white"/>
<ellipse cx="411" cy="227" rx="80" ry="76" fill="#FFC882"/>
<path d="M363.887 241.837H460.696V290.242H363.887V241.837Z" fill="#CFD8DC"/>
<path d="M363.887 290.241H460.696V300.432H363.887V290.241Z" fill="#B0BEC5"/>
<path d="M419.935 254.576H450.506V300.433H419.935V254.576Z" fill="#455A64"/>
<path d="M374.078 254.576H409.745V282.599H374.078V254.576Z" fill="#E3F2FD"/>
<path d="M376.624 257.122H407.195V280.051H376.624V257.122Z" fill="#1E88E5"/>
<path d="M444.135 278.776C443.371 278.776 442.861 279.286 442.861 280.05V285.145C442.861 285.91 443.371 286.419 444.135 286.419C444.899 286.419 445.409 285.91 445.409 285.145V280.05C445.409 279.286 444.899 278.776 444.135 278.776Z" fill="#90A4AE"/>
<path d="M412.294 249.48C416.515 249.48 419.937 246.058 419.937 241.837C419.937 237.616 416.515 234.194 412.294 234.194C408.073 234.194 404.651 237.616 404.651 241.837C404.651 246.058 408.073 249.48 412.294 249.48Z" fill="#558B2F"/>
<path d="M442.864 249.48C447.085 249.48 450.506 246.058 450.506 241.837C450.506 237.616 447.085 234.194 442.864 234.194C438.643 234.194 435.221 237.616 435.221 241.837C435.221 246.058 438.643 249.48 442.864 249.48Z" fill="#558B2F"/>
<path d="M381.722 249.48C385.943 249.48 389.365 246.058 389.365 241.837C389.365 237.616 385.943 234.194 381.722 234.194C377.501 234.194 374.079 237.616 374.079 241.837C374.079 246.058 377.501 249.48 381.722 249.48Z" fill="#558B2F"/>
<path d="M453.053 208.719H371.53C368.727 208.719 366.435 211.012 366.435 213.814V221.457H458.149V213.814C458.149 211.012 455.856 208.719 453.053 208.719ZM404.649 221.457H419.934V241.838H404.649V221.457ZM445.411 221.457H432.673L435.22 241.838H450.506L445.411 221.457ZM379.173 221.457H391.911L389.363 241.838H374.077L379.173 221.457Z" fill="#FB8C00"/>
<path d="M427.577 249.48C431.798 249.48 435.22 246.058 435.22 241.837C435.22 237.616 431.798 234.194 427.577 234.194C423.356 234.194 419.935 237.616 419.935 241.837C419.935 246.058 423.356 249.48 427.577 249.48Z" fill="#FFA000"/>
<path d="M465.79 241.837C465.79 246.168 462.478 249.48 458.147 249.48C453.816 249.48 450.504 246.168 450.504 241.837C450.504 237.506 453.816 234.194 458.147 234.194L465.79 241.837Z" fill="#FFA000"/>
<path d="M397.005 249.48C401.226 249.48 404.648 246.058 404.648 241.837C404.648 237.616 401.226 234.194 397.005 234.194C392.784 234.194 389.362 237.616 389.362 241.837C389.362 246.058 392.784 249.48 397.005 249.48Z" fill="#FFA000"/>
<path d="M358.79 241.837C358.79 246.168 362.102 249.48 366.433 249.48C370.764 249.48 374.076 246.168 374.076 241.837C374.076 237.506 370.764 234.194 366.433 234.194L358.79 241.837Z" fill="#FFA000"/>
<path d="M432.671 221.457H419.933V241.837H435.218L432.671 221.457ZM458.147 221.457H445.409L450.504 241.837H465.79L458.147 221.457ZM391.909 221.457H404.647V241.837H389.361L391.909 221.457ZM366.433 221.457H379.171L374.076 241.837H358.79L366.433 221.457Z" fill="#FFC107"/>
<ellipse cx="415.122" cy="303.116" rx="75.8772" ry="2.82932" fill="#D9D9D9"/>
<path d="M236.259 193.997H179.904V227.365H236.259V193.997Z" fill="#2F2E41"/>
<path d="M124.072 199.378H95.0166V189.246C95.0166 185.393 96.5472 181.698 99.2717 178.973C101.996 176.249 105.691 174.718 109.544 174.718C113.397 174.718 117.093 176.249 119.817 178.973C122.542 181.698 124.072 185.393 124.072 189.246V199.378ZM95.6599 198.735H123.429V189.246C123.429 185.564 121.966 182.032 119.362 179.428C116.758 176.824 113.227 175.362 109.544 175.362C105.862 175.362 102.33 176.824 99.7266 179.428C97.1227 182.032 95.6599 185.564 95.6599 189.246V198.735Z" fill="#3F3D56"/>
<path d="M138.44 197.985V194.025L64.5477 196.005L62.209 296.302L73.1449 309.811L138.44 197.985Z" fill="#3F3D56"/>
<path d="M151.521 196.589L71.4307 198.412L73.1458 309.81L150.437 301.479L151.521 196.589Z" fill="#F9A826"/>
<path d="M159.547 337.951C159.547 337.951 146.264 366.554 158.264 424.13C170.263 481.705 170.363 544.914 170.363 544.914L188.71 545.213L199.017 409.13L204.414 543.292H222.491L238.422 411.251C238.422 411.251 248.905 352.291 225.527 341.734L159.547 337.951Z" fill="#2F2E41"/>
<path d="M223.126 237.005L182.952 233.302C170.354 242.484 163.283 258.977 164.735 275.993C166.703 299.065 166.037 330.817 150.244 344.61C150.244 344.61 193.289 378.583 231.525 346.353C231.525 346.353 218.45 311.325 227.427 297.338C236.404 283.35 239.643 244.049 223.126 237.005Z" fill="#E4E4E4"/>
<path d="M103.59 179.997C103.466 181.155 103.599 182.326 103.977 183.427C104.355 184.528 104.97 185.533 105.779 186.371C106.588 187.209 107.571 187.86 108.658 188.277C109.745 188.694 110.911 188.867 112.072 188.785L165.115 238.287L174.622 223.805L119.493 179.7C119.226 177.758 118.256 175.981 116.766 174.707C115.276 173.432 113.37 172.748 111.41 172.785C109.45 172.821 107.571 173.575 106.129 174.905C104.688 176.234 103.784 178.046 103.59 179.997Z" fill="#FFB6B6"/>
<path d="M155.21 230.638L167.793 217.713C168.151 217.345 168.584 217.059 169.063 216.873C169.542 216.688 170.054 216.608 170.567 216.639C171.079 216.67 171.579 216.81 172.032 217.052C172.485 217.293 172.88 217.629 173.192 218.037L184.101 232.336C185.972 234.178 187.036 236.687 187.06 239.313C187.084 241.939 186.065 244.467 184.228 246.344C182.391 248.22 179.885 249.291 177.259 249.322C174.633 249.353 172.102 248.342 170.221 246.51L155.679 236.027C155.263 235.726 154.916 235.34 154.663 234.893C154.41 234.447 154.255 233.951 154.211 233.44C154.166 232.929 154.232 232.414 154.405 231.93C154.577 231.447 154.852 231.006 155.21 230.638Z" fill="#E4E4E4"/>
<path d="M300.652 300.543C300.71 299.379 300.513 298.218 300.074 297.139C299.635 296.06 298.965 295.091 298.111 294.299C297.257 293.508 296.24 292.913 295.131 292.557C294.022 292.201 292.849 292.092 291.694 292.239L235.983 245.76L227.295 260.748L284.789 301.722C285.164 303.646 286.231 305.366 287.79 306.556C289.348 307.746 291.289 308.323 293.244 308.178C295.199 308.032 297.033 307.175 298.399 305.768C299.764 304.36 300.566 302.501 300.652 300.543Z" fill="#FFB6B6"/>
<path d="M246.297 252.846L234.451 266.451C234.114 266.838 233.697 267.148 233.23 267.359C232.762 267.571 232.254 267.679 231.741 267.677C231.228 267.675 230.721 267.562 230.255 267.346C229.79 267.13 229.376 266.817 229.042 266.426L217.356 252.756C215.385 251.021 214.183 248.574 214.013 245.954C213.843 243.333 214.719 240.752 216.45 238.776C218.18 236.801 220.623 235.592 223.243 235.415C225.863 235.238 228.447 236.107 230.427 237.832L245.529 247.492C245.961 247.769 246.328 248.135 246.606 248.567C246.884 248.999 247.066 249.485 247.138 249.993C247.211 250.501 247.174 251.019 247.029 251.511C246.883 252.003 246.634 252.459 246.297 252.846Z" fill="#E4E4E4"/>
<path d="M306.313 320.198H284.304V312.523C284.304 309.604 285.463 306.805 287.527 304.742C289.591 302.678 292.39 301.519 295.308 301.519C298.227 301.519 301.026 302.678 303.089 304.742C305.153 306.805 306.313 309.604 306.313 312.523L306.313 320.198ZM284.791 319.71H305.825V312.523C305.825 309.734 304.717 307.059 302.745 305.086C300.773 303.114 298.097 302.006 295.308 302.006C292.519 302.006 289.844 303.114 287.871 305.086C285.899 307.059 284.791 309.734 284.791 312.523V319.71Z" fill="#3F3D56"/>
<path d="M317.195 319.141V316.141L261.224 317.641L259.452 393.613L267.736 403.846L317.195 319.141Z" fill="#3F3D56"/>
<path d="M327.103 318.084L266.437 319.465L267.736 403.845L326.282 397.535L327.103 318.084Z" fill="#F9A826"/>
<path d="M205.857 226.623C218.962 226.623 229.586 216 229.586 202.895C229.586 189.79 218.962 179.167 205.857 179.167C192.752 179.167 182.129 189.79 182.129 202.895C182.129 216 192.752 226.623 205.857 226.623Z" fill="#FFB6B6"/>
<path d="M194.931 192.32C203.139 200.365 217.424 201.136 226.45 194.022C228.956 202.663 229.23 211.798 227.248 220.574C225.265 229.349 221.091 237.479 215.114 244.204C220.135 246.019 225.916 244.825 230.404 241.933C234.892 239.042 238.216 234.626 240.724 229.913C246.933 218.246 248.488 203.999 244.095 191.534C239.702 179.068 229.178 168.732 216.392 165.385C203.607 162.038 188.946 166.172 180.404 176.257C171.471 186.803 170.024 202.256 173.939 215.511C177.853 228.765 186.439 240.148 195.872 250.249C191.341 238.598 188.336 226.409 186.933 213.987C186.453 209.733 186.172 205.348 187.374 201.239C188.576 197.13 191.534 193.302 195.657 192.148" fill="#2F2E41"/>
<path d="M69.576 70.288C70.6 70.528 71.392 71.024 71.952 71.776C72.528 72.512 72.816 73.368 72.816 74.344C72.816 75.832 72.32 76.984 71.328 77.8C70.352 78.6 68.944 79 67.104 79H58.2V62.008H66.864C68.592 62.008 69.952 62.384 70.944 63.136C71.936 63.888 72.432 64.984 72.432 66.424C72.432 67.416 72.168 68.256 71.64 68.944C71.128 69.616 70.44 70.064 69.576 70.288ZM63.528 68.632H65.592C66.072 68.632 66.424 68.536 66.648 68.344C66.888 68.152 67.008 67.856 67.008 67.456C67.008 67.04 66.888 66.736 66.648 66.544C66.424 66.336 66.072 66.232 65.592 66.232H63.528V68.632ZM65.952 74.728C66.432 74.728 66.784 74.64 67.008 74.464C67.248 74.272 67.368 73.968 67.368 73.552C67.368 72.736 66.896 72.328 65.952 72.328H63.528V74.728H65.952ZM73.8863 72.232C73.8863 70.808 74.1263 69.576 74.6063 68.536C75.1023 67.48 75.7743 66.68 76.6223 66.136C77.4703 65.576 78.4223 65.296 79.4783 65.296C80.3583 65.296 81.1183 65.48 81.7583 65.848C82.3983 66.2 82.8863 66.688 83.2223 67.312V65.464H88.5263V79H83.2223V77.152C82.8863 77.776 82.3983 78.272 81.7583 78.64C81.1183 78.992 80.3583 79.168 79.4783 79.168C78.4223 79.168 77.4703 78.896 76.6223 78.352C75.7743 77.792 75.1023 76.992 74.6063 75.952C74.1263 74.896 73.8863 73.656 73.8863 72.232ZM83.2223 72.232C83.2223 71.512 83.0383 70.952 82.6703 70.552C82.3023 70.152 81.8303 69.952 81.2543 69.952C80.6783 69.952 80.2063 70.152 79.8383 70.552C79.4703 70.952 79.2863 71.512 79.2863 72.232C79.2863 72.952 79.4703 73.512 79.8383 73.912C80.2063 74.312 80.6783 74.512 81.2543 74.512C81.8303 74.512 82.3023 74.312 82.6703 73.912C83.0383 73.512 83.2223 72.952 83.2223 72.232ZM96.2468 67.96C96.7908 67.176 97.4548 66.552 98.2388 66.088C99.0228 65.608 99.8388 65.368 100.687 65.368V71.056H99.1748C98.1668 71.056 97.4228 71.232 96.9428 71.584C96.4788 71.936 96.2468 72.56 96.2468 73.456V79H90.9188V65.464H96.2468V67.96ZM106.994 65.296C107.874 65.296 108.634 65.48 109.274 65.848C109.914 66.2 110.402 66.688 110.738 67.312V65.464H116.042V78.76C116.042 80.024 115.81 81.176 115.346 82.216C114.882 83.256 114.13 84.088 113.09 84.712C112.066 85.336 110.746 85.648 109.13 85.648C106.954 85.648 105.226 85.136 103.946 84.112C102.682 83.104 101.962 81.728 101.786 79.984H107.018C107.162 80.688 107.738 81.04 108.746 81.04C109.37 81.04 109.858 80.88 110.21 80.56C110.562 80.24 110.738 79.64 110.738 78.76V77.152C110.402 77.776 109.914 78.272 109.274 78.64C108.634 78.992 107.874 79.168 106.994 79.168C105.938 79.168 104.986 78.896 104.138 78.352C103.29 77.792 102.618 76.992 102.122 75.952C101.642 74.896 101.402 73.656 101.402 72.232C101.402 70.808 101.642 69.576 102.122 68.536C102.618 67.48 103.29 66.68 104.138 66.136C104.986 65.576 105.938 65.296 106.994 65.296ZM110.738 72.232C110.738 71.512 110.554 70.952 110.186 70.552C109.818 70.152 109.346 69.952 108.77 69.952C108.194 69.952 107.722 70.152 107.354 70.552C106.986 70.952 106.802 71.512 106.802 72.232C106.802 72.952 106.986 73.512 107.354 73.912C107.722 74.312 108.194 74.512 108.77 74.512C109.346 74.512 109.818 74.312 110.186 73.912C110.554 73.512 110.738 72.952 110.738 72.232ZM117.714 72.232C117.714 70.808 117.954 69.576 118.434 68.536C118.93 67.48 119.602 66.68 120.45 66.136C121.298 65.576 122.25 65.296 123.306 65.296C124.186 65.296 124.946 65.48 125.586 65.848C126.226 66.2 126.714 66.688 127.05 67.312V65.464H132.354V79H127.05V77.152C126.714 77.776 126.226 78.272 125.586 78.64C124.946 78.992 124.186 79.168 123.306 79.168C122.25 79.168 121.298 78.896 120.45 78.352C119.602 77.792 118.93 76.992 118.434 75.952C117.954 74.896 117.714 73.656 117.714 72.232ZM127.05 72.232C127.05 71.512 126.866 70.952 126.498 70.552C126.13 70.152 125.658 69.952 125.082 69.952C124.506 69.952 124.034 70.152 123.666 70.552C123.298 70.952 123.114 71.512 123.114 72.232C123.114 72.952 123.298 73.512 123.666 73.912C124.034 74.312 124.506 74.512 125.082 74.512C125.658 74.512 126.13 74.312 126.498 73.912C126.866 73.512 127.05 72.952 127.05 72.232ZM137.435 64.384C136.507 64.384 135.763 64.136 135.203 63.64C134.643 63.144 134.363 62.52 134.363 61.768C134.363 61 134.643 60.368 135.203 59.872C135.763 59.36 136.507 59.104 137.435 59.104C138.347 59.104 139.083 59.36 139.643 59.872C140.203 60.368 140.483 61 140.483 61.768C140.483 62.52 140.203 63.144 139.643 63.64C139.083 64.136 138.347 64.384 137.435 64.384ZM140.075 65.464V79H134.747V65.464H140.075ZM151.961 65.368C153.513 65.368 154.721 65.888 155.585 66.928C156.465 67.968 156.905 69.376 156.905 71.152V79H151.601V71.824C151.601 71.184 151.425 70.68 151.073 70.312C150.737 69.928 150.281 69.736 149.705 69.736C149.113 69.736 148.649 69.928 148.313 70.312C147.977 70.68 147.809 71.184 147.809 71.824V79H142.481V65.464H147.809V67.528C148.225 66.888 148.777 66.368 149.465 65.968C150.169 65.568 151.001 65.368 151.961 65.368ZM161.904 64.384C160.976 64.384 160.232 64.136 159.672 63.64C159.112 63.144 158.832 62.52 158.832 61.768C158.832 61 159.112 60.368 159.672 59.872C160.232 59.36 160.976 59.104 161.904 59.104C162.816 59.104 163.552 59.36 164.112 59.872C164.672 60.368 164.952 61 164.952 61.768C164.952 62.52 164.672 63.144 164.112 63.64C163.552 64.136 162.816 64.384 161.904 64.384ZM164.544 65.464V79H159.216V65.464H164.544ZM176.43 65.368C177.982 65.368 179.19 65.888 180.054 66.928C180.934 67.968 181.374 69.376 181.374 71.152V79H176.07V71.824C176.07 71.184 175.894 70.68 175.542 70.312C175.206 69.928 174.75 69.736 174.174 69.736C173.582 69.736 173.118 69.928 172.782 70.312C172.446 70.68 172.278 71.184 172.278 71.824V79H166.95V65.464H172.278V67.528C172.694 66.888 173.246 66.368 173.934 65.968C174.638 65.568 175.47 65.368 176.43 65.368ZM188.556 65.296C189.436 65.296 190.196 65.48 190.836 65.848C191.476 66.2 191.964 66.688 192.3 67.312V65.464H197.604V78.76C197.604 80.024 197.372 81.176 196.908 82.216C196.444 83.256 195.692 84.088 194.652 84.712C193.628 85.336 192.308 85.648 190.692 85.648C188.516 85.648 186.788 85.136 185.508 84.112C184.244 83.104 183.524 81.728 183.348 79.984H188.58C188.724 80.688 189.3 81.04 190.308 81.04C190.932 81.04 191.42 80.88 191.772 80.56C192.124 80.24 192.3 79.64 192.3 78.76V77.152C191.964 77.776 191.476 78.272 190.836 78.64C190.196 78.992 189.436 79.168 188.556 79.168C187.5 79.168 186.548 78.896 185.7 78.352C184.852 77.792 184.18 76.992 183.684 75.952C183.204 74.896 182.964 73.656 182.964 72.232C182.964 70.808 183.204 69.576 183.684 68.536C184.18 67.48 184.852 66.68 185.7 66.136C186.548 65.576 187.5 65.296 188.556 65.296ZM192.3 72.232C192.3 71.512 192.116 70.952 191.748 70.552C191.38 70.152 190.908 69.952 190.332 69.952C189.756 69.952 189.284 70.152 188.916 70.552C188.548 70.952 188.364 71.512 188.364 72.232C188.364 72.952 188.548 73.512 188.916 73.912C189.284 74.312 189.756 74.512 190.332 74.512C190.908 74.512 191.38 74.312 191.748 73.912C192.116 73.512 192.3 72.952 192.3 72.232ZM211.875 64.504C211.587 64.472 211.387 64.456 211.275 64.456C210.875 64.456 210.571 64.536 210.363 64.696C210.155 64.84 210.011 65.096 209.931 65.464H211.875V69.904H209.883V79H204.555V69.904H203.115V65.464H204.555C204.587 63.704 205.139 62.344 206.211 61.384C207.299 60.408 208.819 59.92 210.771 59.92C210.995 59.92 211.363 59.936 211.875 59.968V64.504ZM215.997 64.384C215.069 64.384 214.325 64.136 213.765 63.64C213.205 63.144 212.925 62.52 212.925 61.768C212.925 61 213.205 60.368 213.765 59.872C214.325 59.36 215.069 59.104 215.997 59.104C216.909 59.104 217.645 59.36 218.205 59.872C218.765 60.368 219.045 61 219.045 61.768C219.045 62.52 218.765 63.144 218.205 63.64C217.645 64.136 216.909 64.384 215.997 64.384ZM218.637 65.464V79H213.309V65.464H218.637ZM226.372 67.96C226.916 67.176 227.58 66.552 228.364 66.088C229.148 65.608 229.964 65.368 230.812 65.368V71.056H229.3C228.292 71.056 227.548 71.232 227.068 71.584C226.604 71.936 226.372 72.56 226.372 73.456V79H221.044V65.464H226.372V67.96ZM238.271 79.168C236.991 79.168 235.855 78.96 234.863 78.544C233.887 78.128 233.111 77.552 232.535 76.816C231.959 76.08 231.631 75.248 231.551 74.32H236.663C236.727 74.72 236.895 75.016 237.167 75.208C237.455 75.4 237.815 75.496 238.247 75.496C238.519 75.496 238.735 75.44 238.895 75.328C239.055 75.2 239.135 75.048 239.135 74.872C239.135 74.568 238.967 74.352 238.631 74.224C238.295 74.096 237.727 73.952 236.927 73.792C235.951 73.6 235.143 73.392 234.503 73.168C233.879 72.944 233.327 72.56 232.847 72.016C232.383 71.472 232.151 70.72 232.151 69.76C232.151 68.928 232.367 68.176 232.799 67.504C233.247 66.816 233.903 66.28 234.767 65.896C235.631 65.496 236.679 65.296 237.911 65.296C239.735 65.296 241.159 65.744 242.183 66.64C243.223 67.536 243.847 68.704 244.055 70.144H239.327C239.247 69.776 239.079 69.496 238.823 69.304C238.567 69.096 238.223 68.992 237.791 68.992C237.519 68.992 237.311 69.048 237.167 69.16C237.023 69.256 236.951 69.408 236.951 69.616C236.951 69.888 237.119 70.096 237.455 70.24C237.791 70.368 238.327 70.504 239.063 70.648C240.039 70.84 240.863 71.056 241.535 71.296C242.207 71.536 242.791 71.952 243.287 72.544C243.783 73.12 244.031 73.92 244.031 74.944C244.031 75.744 243.799 76.464 243.335 77.104C242.871 77.744 242.199 78.248 241.319 78.616C240.455 78.984 239.439 79.168 238.271 79.168ZM254.569 74.464V79H252.553C248.841 79 246.985 77.152 246.985 73.456V69.904H245.305V65.464H246.985V62.2H252.313V65.464H254.521V69.904H252.313V73.552C252.313 73.872 252.385 74.104 252.529 74.248C252.689 74.392 252.945 74.464 253.297 74.464H254.569ZM266.389 74.752L263.917 81.88H260.557L261.685 74.752H266.389ZM57.48 108.232C57.48 106.824 57.768 105.6 58.344 104.56C58.936 103.504 59.752 102.696 60.792 102.136C61.848 101.576 63.048 101.296 64.392 101.296C66.152 101.296 67.632 101.792 68.832 102.784C70.048 103.776 70.816 105.152 71.136 106.912H65.496C65.288 106.208 64.88 105.856 64.272 105.856C63.84 105.856 63.496 106.056 63.24 106.456C63 106.856 62.88 107.448 62.88 108.232C62.88 109.016 63 109.608 63.24 110.008C63.496 110.408 63.84 110.608 64.272 110.608C64.88 110.608 65.288 110.256 65.496 109.552H71.136C70.816 111.312 70.048 112.688 68.832 113.68C67.632 114.672 66.152 115.168 64.392 115.168C63.048 115.168 61.848 114.888 60.792 114.328C59.752 113.768 58.936 112.968 58.344 111.928C57.768 110.872 57.48 109.64 57.48 108.232ZM82.305 101.368C83.857 101.368 85.065 101.888 85.929 102.928C86.809 103.968 87.249 105.376 87.249 107.152V115H81.945V107.824C81.945 107.184 81.769 106.68 81.417 106.312C81.081 105.928 80.625 105.736 80.049 105.736C79.457 105.736 78.993 105.928 78.657 106.312C78.321 106.68 78.153 107.184 78.153 107.824V115H72.825V97.24H78.153V103.528C78.569 102.888 79.121 102.368 79.809 101.968C80.513 101.568 81.345 101.368 82.305 101.368ZM95.9914 115.168C94.6314 115.168 93.4074 114.888 92.3194 114.328C91.2314 113.768 90.3754 112.968 89.7514 111.928C89.1434 110.872 88.8394 109.64 88.8394 108.232C88.8394 106.824 89.1434 105.6 89.7514 104.56C90.3754 103.504 91.2314 102.696 92.3194 102.136C93.4074 101.576 94.6314 101.296 95.9914 101.296C97.3514 101.296 98.5754 101.576 99.6634 102.136C100.751 102.696 101.599 103.504 102.207 104.56C102.831 105.6 103.143 106.824 103.143 108.232C103.143 109.64 102.831 110.872 102.207 111.928C101.599 112.968 100.751 113.768 99.6634 114.328C98.5754 114.888 97.3514 115.168 95.9914 115.168ZM95.9914 110.56C96.4874 110.56 96.9034 110.368 97.2394 109.984C97.5754 109.584 97.7434 109 97.7434 108.232C97.7434 107.464 97.5754 106.888 97.2394 106.504C96.9034 106.104 96.4874 105.904 95.9914 105.904C95.4954 105.904 95.0794 106.104 94.7434 106.504C94.4074 106.888 94.2394 107.464 94.2394 108.232C94.2394 109 94.3994 109.584 94.7194 109.984C95.0554 110.368 95.4794 110.56 95.9914 110.56ZM111.249 115.168C109.889 115.168 108.665 114.888 107.577 114.328C106.489 113.768 105.633 112.968 105.009 111.928C104.401 110.872 104.097 109.64 104.097 108.232C104.097 106.824 104.401 105.6 105.009 104.56C105.633 103.504 106.489 102.696 107.577 102.136C108.665 101.576 109.889 101.296 111.249 101.296C112.609 101.296 113.833 101.576 114.921 102.136C116.009 102.696 116.857 103.504 117.465 104.56C118.089 105.6 118.401 106.824 118.401 108.232C118.401 109.64 118.089 110.872 117.465 111.928C116.857 112.968 116.009 113.768 114.921 114.328C113.833 114.888 112.609 115.168 111.249 115.168ZM111.249 110.56C111.745 110.56 112.161 110.368 112.497 109.984C112.833 109.584 113.001 109 113.001 108.232C113.001 107.464 112.833 106.888 112.497 106.504C112.161 106.104 111.745 105.904 111.249 105.904C110.753 105.904 110.337 106.104 110.001 106.504C109.665 106.888 109.497 107.464 109.497 108.232C109.497 109 109.657 109.584 109.977 109.984C110.313 110.368 110.737 110.56 111.249 110.56ZM126.099 115.168C124.819 115.168 123.683 114.96 122.691 114.544C121.715 114.128 120.939 113.552 120.363 112.816C119.787 112.08 119.459 111.248 119.379 110.32H124.491C124.555 110.72 124.723 111.016 124.995 111.208C125.283 111.4 125.643 111.496 126.075 111.496C126.347 111.496 126.563 111.44 126.723 111.328C126.883 111.2 126.963 111.048 126.963 110.872C126.963 110.568 126.795 110.352 126.459 110.224C126.123 110.096 125.555 109.952 124.755 109.792C123.779 109.6 122.971 109.392 122.331 109.168C121.707 108.944 121.155 108.56 120.675 108.016C120.211 107.472 119.979 106.72 119.979 105.76C119.979 104.928 120.195 104.176 120.627 103.504C121.075 102.816 121.731 102.28 122.595 101.896C123.459 101.496 124.507 101.296 125.739 101.296C127.563 101.296 128.987 101.744 130.011 102.64C131.051 103.536 131.675 104.704 131.883 106.144H127.155C127.075 105.776 126.907 105.496 126.651 105.304C126.395 105.096 126.051 104.992 125.619 104.992C125.347 104.992 125.139 105.048 124.995 105.16C124.851 105.256 124.779 105.408 124.779 105.616C124.779 105.888 124.947 106.096 125.283 106.24C125.619 106.368 126.155 106.504 126.891 106.648C127.867 106.84 128.691 107.056 129.363 107.296C130.035 107.536 130.619 107.952 131.115 108.544C131.611 109.12 131.859 109.92 131.859 110.944C131.859 111.744 131.627 112.464 131.163 113.104C130.699 113.744 130.027 114.248 129.147 114.616C128.283 114.984 127.267 115.168 126.099 115.168ZM147.077 108.112C147.077 108.48 147.053 108.832 147.005 109.168H138.437C138.517 110.336 139.005 110.92 139.901 110.92C140.477 110.92 140.893 110.656 141.149 110.128H146.789C146.597 111.088 146.189 111.952 145.565 112.72C144.957 113.472 144.181 114.072 143.237 114.52C142.309 114.952 141.285 115.168 140.165 115.168C138.821 115.168 137.621 114.888 136.565 114.328C135.525 113.768 134.709 112.968 134.117 111.928C133.541 110.872 133.253 109.64 133.253 108.232C133.253 106.824 133.541 105.6 134.117 104.56C134.709 103.504 135.525 102.696 136.565 102.136C137.621 101.576 138.821 101.296 140.165 101.296C141.509 101.296 142.701 101.576 143.741 102.136C144.797 102.68 145.613 103.464 146.189 104.488C146.781 105.512 147.077 106.72 147.077 108.112ZM141.677 106.84C141.677 106.392 141.533 106.056 141.245 105.832C140.957 105.592 140.597 105.472 140.165 105.472C139.221 105.472 138.669 105.928 138.509 106.84H141.677ZM161.265 110.464V115H159.249C155.537 115 153.681 113.152 153.681 109.456V105.904H152.001V101.464H153.681V98.2H159.009V101.464H161.217V105.904H159.009V109.552C159.009 109.872 159.081 110.104 159.225 110.248C159.385 110.392 159.641 110.464 159.993 110.464H161.265ZM172.774 101.368C174.326 101.368 175.534 101.888 176.398 102.928C177.278 103.968 177.718 105.376 177.718 107.152V115H172.414V107.824C172.414 107.184 172.238 106.68 171.886 106.312C171.55 105.928 171.094 105.736 170.518 105.736C169.926 105.736 169.462 105.928 169.126 106.312C168.79 106.68 168.622 107.184 168.622 107.824V115H163.294V97.24H168.622V103.528C169.038 102.888 169.59 102.368 170.278 101.968C170.982 101.568 171.814 101.368 172.774 101.368ZM193.132 108.112C193.132 108.48 193.108 108.832 193.06 109.168H184.492C184.572 110.336 185.06 110.92 185.956 110.92C186.532 110.92 186.948 110.656 187.204 110.128H192.844C192.652 111.088 192.244 111.952 191.62 112.72C191.012 113.472 190.236 114.072 189.292 114.52C188.364 114.952 187.34 115.168 186.22 115.168C184.876 115.168 183.676 114.888 182.62 114.328C181.58 113.768 180.764 112.968 180.172 111.928C179.596 110.872 179.308 109.64 179.308 108.232C179.308 106.824 179.596 105.6 180.172 104.56C180.764 103.504 181.58 102.696 182.62 102.136C183.676 101.576 184.876 101.296 186.22 101.296C187.564 101.296 188.756 101.576 189.796 102.136C190.852 102.68 191.668 103.464 192.244 104.488C192.836 105.512 193.132 106.72 193.132 108.112ZM187.732 106.84C187.732 106.392 187.588 106.056 187.3 105.832C187.012 105.592 186.652 105.472 186.22 105.472C185.276 105.472 184.724 105.928 184.564 106.84H187.732ZM204.223 103.96C204.767 103.176 205.431 102.552 206.215 102.088C206.999 101.608 207.815 101.368 208.663 101.368V107.056H207.151C206.143 107.056 205.399 107.232 204.919 107.584C204.455 107.936 204.223 108.56 204.223 109.456V115H198.895V101.464H204.223V103.96ZM212.786 100.384C211.858 100.384 211.114 100.136 210.554 99.64C209.994 99.144 209.714 98.52 209.714 97.768C209.714 97 209.994 96.368 210.554 95.872C211.114 95.36 211.858 95.104 212.786 95.104C213.698 95.104 214.434 95.36 214.994 95.872C215.554 96.368 215.834 97 215.834 97.768C215.834 98.52 215.554 99.144 214.994 99.64C214.434 100.136 213.698 100.384 212.786 100.384ZM215.426 101.464V115H210.098V101.464H215.426ZM222.705 101.296C223.585 101.296 224.345 101.48 224.985 101.848C225.625 102.2 226.113 102.688 226.449 103.312V101.464H231.753V114.76C231.753 116.024 231.521 117.176 231.057 118.216C230.593 119.256 229.841 120.088 228.801 120.712C227.777 121.336 226.457 121.648 224.841 121.648C222.665 121.648 220.937 121.136 219.657 120.112C218.393 119.104 217.673 117.728 217.497 115.984H222.729C222.873 116.688 223.449 117.04 224.457 117.04C225.081 117.04 225.569 116.88 225.921 116.56C226.273 116.24 226.449 115.64 226.449 114.76V113.152C226.113 113.776 225.625 114.272 224.985 114.64C224.345 114.992 223.585 115.168 222.705 115.168C221.649 115.168 220.697 114.896 219.849 114.352C219.001 113.792 218.329 112.992 217.833 111.952C217.353 110.896 217.113 109.656 217.113 108.232C217.113 106.808 217.353 105.576 217.833 104.536C218.329 103.48 219.001 102.68 219.849 102.136C220.697 101.576 221.649 101.296 222.705 101.296ZM226.449 108.232C226.449 107.512 226.265 106.952 225.897 106.552C225.529 106.152 225.057 105.952 224.481 105.952C223.905 105.952 223.433 106.152 223.065 106.552C222.697 106.952 222.513 107.512 222.513 108.232C222.513 108.952 222.697 109.512 223.065 109.912C223.433 110.312 223.905 110.512 224.481 110.512C225.057 110.512 225.529 110.312 225.897 109.912C226.265 109.512 226.449 108.952 226.449 108.232ZM243.625 101.368C245.177 101.368 246.385 101.888 247.249 102.928C248.129 103.968 248.569 105.376 248.569 107.152V115H243.265V107.824C243.265 107.184 243.089 106.68 242.737 106.312C242.401 105.928 241.945 105.736 241.369 105.736C240.777 105.736 240.313 105.928 239.977 106.312C239.641 106.68 239.473 107.184 239.473 107.824V115H234.145V97.24H239.473V103.528C239.889 102.888 240.441 102.368 241.129 101.968C241.833 101.568 242.665 101.368 243.625 101.368ZM259.304 110.464V115H257.288C253.576 115 251.72 113.152 251.72 109.456V105.904H250.04V101.464H251.72V98.2H257.048V101.464H259.256V105.904H257.048V109.552C257.048 109.872 257.12 110.104 257.264 110.248C257.424 110.392 257.68 110.464 258.032 110.464H259.304ZM271.435 115.168C270.155 115.168 269.019 114.96 268.027 114.544C267.051 114.128 266.275 113.552 265.699 112.816C265.123 112.08 264.795 111.248 264.715 110.32H269.827C269.891 110.72 270.059 111.016 270.331 111.208C270.619 111.4 270.979 111.496 271.411 111.496C271.683 111.496 271.899 111.44 272.059 111.328C272.219 111.2 272.299 111.048 272.299 110.872C272.299 110.568 272.131 110.352 271.795 110.224C271.459 110.096 270.891 109.952 270.091 109.792C269.115 109.6 268.307 109.392 267.667 109.168C267.043 108.944 266.491 108.56 266.011 108.016C265.547 107.472 265.315 106.72 265.315 105.76C265.315 104.928 265.531 104.176 265.963 103.504C266.411 102.816 267.067 102.28 267.931 101.896C268.795 101.496 269.843 101.296 271.075 101.296C272.899 101.296 274.323 101.744 275.347 102.64C276.387 103.536 277.011 104.704 277.219 106.144H272.491C272.411 105.776 272.243 105.496 271.987 105.304C271.731 105.096 271.387 104.992 270.955 104.992C270.683 104.992 270.475 105.048 270.331 105.16C270.187 105.256 270.115 105.408 270.115 105.616C270.115 105.888 270.283 106.096 270.619 106.24C270.955 106.368 271.491 106.504 272.227 106.648C273.203 106.84 274.027 107.056 274.699 107.296C275.371 107.536 275.955 107.952 276.451 108.544C276.947 109.12 277.195 109.92 277.195 110.944C277.195 111.744 276.963 112.464 276.499 113.104C276.035 113.744 275.363 114.248 274.483 114.616C273.619 114.984 272.603 115.168 271.435 115.168ZM287.733 110.464V115H285.717C282.005 115 280.149 113.152 280.149 109.456V105.904H278.469V101.464H280.149V98.2H285.477V101.464H287.685V105.904H285.477V109.552C285.477 109.872 285.549 110.104 285.693 110.248C285.853 110.392 286.109 110.464 286.461 110.464H287.733ZM296.195 115.168C294.835 115.168 293.611 114.888 292.523 114.328C291.435 113.768 290.579 112.968 289.955 111.928C289.347 110.872 289.043 109.64 289.043 108.232C289.043 106.824 289.347 105.6 289.955 104.56C290.579 103.504 291.435 102.696 292.523 102.136C293.611 101.576 294.835 101.296 296.195 101.296C297.555 101.296 298.779 101.576 299.867 102.136C300.955 102.696 301.803 103.504 302.411 104.56C303.035 105.6 303.347 106.824 303.347 108.232C303.347 109.64 303.035 110.872 302.411 111.928C301.803 112.968 300.955 113.768 299.867 114.328C298.779 114.888 297.555 115.168 296.195 115.168ZM296.195 110.56C296.691 110.56 297.107 110.368 297.443 109.984C297.779 109.584 297.947 109 297.947 108.232C297.947 107.464 297.779 106.888 297.443 106.504C297.107 106.104 296.691 105.904 296.195 105.904C295.699 105.904 295.283 106.104 294.947 106.504C294.611 106.888 294.443 107.464 294.443 108.232C294.443 109 294.603 109.584 294.923 109.984C295.259 110.368 295.683 110.56 296.195 110.56ZM310.348 103.96C310.892 103.176 311.556 102.552 312.34 102.088C313.124 101.608 313.94 101.368 314.788 101.368V107.056H313.276C312.268 107.056 311.524 107.232 311.044 107.584C310.58 107.936 310.348 108.56 310.348 109.456V115H305.02V101.464H310.348V103.96ZM329.327 108.112C329.327 108.48 329.303 108.832 329.255 109.168H320.687C320.767 110.336 321.255 110.92 322.151 110.92C322.727 110.92 323.143 110.656 323.399 110.128H329.039C328.847 111.088 328.439 111.952 327.815 112.72C327.207 113.472 326.431 114.072 325.487 114.52C324.559 114.952 323.535 115.168 322.415 115.168C321.071 115.168 319.871 114.888 318.815 114.328C317.775 113.768 316.959 112.968 316.367 111.928C315.791 110.872 315.503 109.64 315.503 108.232C315.503 106.824 315.791 105.6 316.367 104.56C316.959 103.504 317.775 102.696 318.815 102.136C319.871 101.576 321.071 101.296 322.415 101.296C323.759 101.296 324.951 101.576 325.991 102.136C327.047 102.68 327.863 103.464 328.439 104.488C329.031 105.512 329.327 106.72 329.327 108.112ZM323.927 106.84C323.927 106.392 323.783 106.056 323.495 105.832C323.207 105.592 322.847 105.472 322.415 105.472C321.471 105.472 320.919 105.928 320.759 106.84H323.927ZM347.979 115L346.803 113.896C345.299 114.792 343.531 115.24 341.499 115.24C340.123 115.24 338.923 115.024 337.899 114.592C336.891 114.16 336.115 113.552 335.571 112.768C335.027 111.968 334.755 111.056 334.755 110.032C334.755 109.056 335.003 108.168 335.499 107.368C336.011 106.552 336.771 105.864 337.779 105.304C337.043 104.392 336.675 103.432 336.675 102.424C336.675 101.56 336.899 100.768 337.347 100.048C337.811 99.328 338.483 98.76 339.363 98.344C340.243 97.912 341.291 97.696 342.507 97.696C343.739 97.696 344.787 97.92 345.651 98.368C346.515 98.8 347.163 99.376 347.595 100.096C348.027 100.816 348.243 101.592 348.243 102.424H343.395C343.395 102.12 343.307 101.896 343.131 101.752C342.955 101.592 342.747 101.512 342.507 101.512C342.251 101.512 342.027 101.592 341.835 101.752C341.659 101.896 341.571 102.104 341.571 102.376C341.571 102.888 341.923 103.48 342.627 104.152L346.491 107.896C346.715 107.464 346.915 106.976 347.091 106.432L347.163 106.216H352.323L352.083 106.84C351.475 108.44 350.723 109.864 349.827 111.112L353.835 115H347.979ZM341.883 111.04C342.459 111.04 342.995 110.952 343.491 110.776L340.659 108.136C340.387 108.328 340.179 108.552 340.035 108.808C339.907 109.048 339.843 109.296 339.843 109.552C339.843 109.968 340.019 110.32 340.371 110.608C340.739 110.896 341.243 111.04 341.883 111.04ZM364.442 103.312C364.778 102.688 365.258 102.2 365.882 101.848C366.522 101.48 367.282 101.296 368.162 101.296C369.218 101.296 370.17 101.576 371.018 102.136C371.866 102.68 372.53 103.48 373.01 104.536C373.506 105.576 373.754 106.808 373.754 108.232C373.754 109.656 373.506 110.896 373.01 111.952C372.53 112.992 371.866 113.792 371.018 114.352C370.17 114.896 369.218 115.168 368.162 115.168C367.282 115.168 366.522 114.992 365.882 114.64C365.258 114.272 364.778 113.776 364.442 113.152V115H359.114V97.24H364.442V103.312ZM368.354 108.232C368.354 107.512 368.17 106.952 367.802 106.552C367.434 106.152 366.962 105.952 366.386 105.952C365.81 105.952 365.338 106.152 364.97 106.552C364.602 106.952 364.418 107.512 364.418 108.232C364.418 108.952 364.602 109.512 364.97 109.912C365.338 110.312 365.81 110.512 366.386 110.512C366.962 110.512 367.434 110.312 367.802 109.912C368.17 109.512 368.354 108.952 368.354 108.232ZM389.755 101.464V115H384.427V112.936C384.011 113.576 383.451 114.096 382.747 114.496C382.059 114.896 381.235 115.096 380.275 115.096C378.723 115.096 377.507 114.576 376.627 113.536C375.763 112.496 375.331 111.088 375.331 109.312V101.464H380.635V108.64C380.635 109.28 380.803 109.792 381.139 110.176C381.491 110.544 381.955 110.728 382.531 110.728C383.123 110.728 383.587 110.544 383.923 110.176C384.259 109.792 384.427 109.28 384.427 108.64V101.464H389.755ZM407.449 101.464L398.785 121.48H392.953L396.361 114.328L390.721 101.464H396.649L399.193 108.328L401.569 101.464H407.449ZM411.043 115.192C410.115 115.192 409.371 114.944 408.811 114.448C408.251 113.952 407.971 113.328 407.971 112.576C407.971 111.808 408.251 111.176 408.811 110.68C409.371 110.168 410.115 109.912 411.043 109.912C411.955 109.912 412.691 110.168 413.251 110.68C413.811 111.176 414.091 111.808 414.091 112.576C414.091 113.328 413.811 113.952 413.251 114.448C412.691 114.944 411.955 115.192 411.043 115.192Z" fill="#3F3D56"/>
</g>
<defs>
<clipPath id="clip0_1660_400">
<rect width="545" height="424" fill="white"/>
</clipPath>
</defs>
</svg>
