<svg width="450" height="450" viewBox="0 0 450 450" fill="none" xmlns="http://www.w3.org/2000/svg">
<g clip-path="url(#clip0_3033_503)">
<rect width="450" height="450" fill="white"/>
<path d="M136.279 280.233C-5.37329 392.216 -70.2034 134.776 -84.9119 -7.94132L780.735 -258.837C792.342 -218.787 858.312 -132.414 801.553 -23.6953C730.605 112.203 724.403 317.291 503.074 304.55C281.745 291.808 313.344 140.254 136.279 280.233Z" fill="#FFE0B8"/>
<path d="M218.459 502.448C142.705 677.748 -69.7596 388.04 -166.522 221.273L546.063 -330.555C580.623 -285.927 695.687 -201.558 702.108 -54.8004C710.133 128.646 822.114 376.224 595.634 425.17C369.155 474.116 313.151 283.324 218.459 502.448Z" fill="#FFC882" fill-opacity="0.39"/>
<path d="M86.827 37.4535V49.4802H73.9803V85.8335H58.8103V49.4802H46.1003V37.4535H86.827ZM121.965 78.5218H105.838L103.446 85.8335H87.5247L105.223 37.4535H122.716L140.346 85.8335H124.356L121.965 78.5218ZM118.275 67.1102L113.901 53.6485L109.528 67.1102H118.275ZM183.358 54.0585C183.358 57.1107 182.652 59.8896 181.24 62.3952C179.827 64.8552 177.732 66.8141 174.953 68.2718C172.22 69.7296 168.894 70.4585 164.976 70.4585H158.963V85.8335H143.793V37.4535H164.976C170.899 37.4535 175.431 38.9568 178.575 41.9635C181.764 44.9702 183.358 49.0018 183.358 54.0585ZM163.268 58.5002C166.411 58.5002 167.983 57.0196 167.983 54.0585C167.983 51.0974 166.411 49.6168 163.268 49.6168H158.963V58.5002H163.268ZM216.564 62.2335V68.1002H210.298V85.8335H202.898V68.1002H196.698V62.2335H216.564ZM240.405 62.2335V85.8335H233.005V76.6335H225.971V85.8335H218.571V62.2335H225.971V70.7335H233.005V62.2335H240.405ZM251.134 68.1335V71.0335H258.467V76.6002H251.134V79.9335H259.467V85.8335H243.734V62.2335H259.467V68.1335H251.134Z" fill="#F97837"/>
<path d="M101.646 99.3265V144.167H87.6497V121.81L80.7463 144.167H68.713L61.8097 121.81V144.167H47.7497V99.3265H64.9763L74.8563 126.243L84.483 99.3265H101.646ZM136.744 137.39H121.797L119.581 144.167H104.824L121.227 99.3265H137.441L153.781 144.167H138.961L136.744 137.39ZM133.324 126.813L129.271 114.337L125.217 126.813H133.324ZM179.522 144.167L171.098 128.08H171.035V144.167H156.975V99.3265H177.875C181.506 99.3265 184.609 99.9809 187.185 101.29C189.76 102.557 191.682 104.309 192.948 106.547C194.257 108.742 194.912 111.233 194.912 114.02C194.912 117.018 194.067 119.678 192.378 122C190.732 124.322 188.346 125.99 185.222 127.003L194.975 144.167H179.522ZM171.035 118.707H176.608C177.959 118.707 178.973 118.411 179.648 117.82C180.324 117.187 180.662 116.215 180.662 114.907C180.662 113.724 180.303 112.795 179.585 112.12C178.909 111.444 177.917 111.107 176.608 111.107H171.035V118.707ZM226.51 144.167L213.463 124.723V144.167H199.403V99.3265H213.463V118.2L226.32 99.3265H242.217L226.763 120.797L243.23 144.167H226.51ZM261.273 110.537V116.047H275.206V126.623H261.273V132.957H277.106V144.167H247.213V99.3265H277.106V110.537H261.273ZM317.618 99.3265V110.473H305.711V144.167H291.651V110.473H279.871V99.3265H317.618Z" fill="#F97837"/>
<path d="M52.4813 170.786C51.6044 170.786 50.8186 170.644 50.1238 170.359C49.4291 170.074 48.8711 169.653 48.4497 169.095C48.0397 168.537 47.8233 167.865 47.8005 167.079H50.9097C50.9552 167.523 51.109 167.865 51.3709 168.104C51.6329 168.332 51.9745 168.446 52.3959 168.446C52.8287 168.446 53.1704 168.349 53.4209 168.155C53.6715 167.95 53.7968 167.671 53.7968 167.318C53.7968 167.022 53.6943 166.777 53.4893 166.584C53.2956 166.39 53.0508 166.231 52.7547 166.105C52.47 165.98 52.06 165.838 51.5247 165.678C50.7502 165.439 50.1181 165.2 49.6284 164.961C49.1387 164.722 48.7173 164.368 48.3643 163.902C48.0112 163.435 47.8347 162.825 47.8347 162.074C47.8347 160.957 48.239 160.086 49.0476 159.46C49.8562 158.822 50.9097 158.503 52.208 158.503C53.5291 158.503 54.594 158.822 55.4026 159.46C56.2112 160.086 56.644 160.963 56.7009 162.091H53.5405C53.5177 161.703 53.3754 161.402 53.1134 161.185C52.8515 160.957 52.5155 160.844 52.1055 160.844C51.7525 160.844 51.4677 160.94 51.2513 161.134C51.035 161.316 50.9268 161.584 50.9268 161.937C50.9268 162.324 51.109 162.626 51.4734 162.842C51.8379 163.059 52.4073 163.292 53.1818 163.543C53.9562 163.805 54.5826 164.055 55.0609 164.294C55.5506 164.534 55.972 164.881 56.3251 165.337C56.6781 165.792 56.8547 166.379 56.8547 167.096C56.8547 167.779 56.6781 168.4 56.3251 168.958C55.9834 169.516 55.4823 169.96 54.8218 170.291C54.1612 170.621 53.3811 170.786 52.4813 170.786ZM69.0391 158.674V170.667H66.1178V165.729H61.5737V170.667H58.6524V158.674H61.5737V163.372H66.1178V158.674H69.0391ZM76.8196 170.786C75.6921 170.786 74.6557 170.524 73.7104 170C72.7766 169.476 72.0306 168.747 71.4725 167.814C70.9259 166.868 70.6525 165.809 70.6525 164.636C70.6525 163.463 70.9259 162.41 71.4725 161.476C72.0306 160.542 72.7766 159.813 73.7104 159.289C74.6557 158.765 75.6921 158.503 76.8196 158.503C77.9471 158.503 78.9778 158.765 79.9117 159.289C80.857 159.813 81.5973 160.542 82.1325 161.476C82.6792 162.41 82.9525 163.463 82.9525 164.636C82.9525 165.809 82.6792 166.868 82.1325 167.814C81.5859 168.747 80.8456 169.476 79.9117 170C78.9778 170.524 77.9471 170.786 76.8196 170.786ZM76.8196 168.121C77.7763 168.121 78.5393 167.802 79.1088 167.164C79.6896 166.527 79.98 165.684 79.98 164.636C79.98 163.577 79.6896 162.734 79.1088 162.108C78.5393 161.47 77.7763 161.151 76.8196 161.151C75.8516 161.151 75.0771 161.464 74.4963 162.091C73.9268 162.717 73.6421 163.566 73.6421 164.636C73.6421 165.695 73.9268 166.544 74.4963 167.182C75.0771 167.808 75.8516 168.121 76.8196 168.121ZM93.7173 162.535C93.7173 163.23 93.5579 163.867 93.239 164.448C92.9201 165.018 92.4304 165.479 91.7698 165.832C91.1092 166.185 90.2892 166.362 89.3098 166.362H87.499V170.667H84.5777V158.674H89.3098C90.2665 158.674 91.0751 158.839 91.7356 159.169C92.3962 159.5 92.8916 159.955 93.2219 160.536C93.5522 161.117 93.7173 161.783 93.7173 162.535ZM89.0877 164.038C89.6458 164.038 90.0615 163.907 90.3348 163.645C90.6081 163.383 90.7448 163.013 90.7448 162.535C90.7448 162.057 90.6081 161.686 90.3348 161.424C90.0615 161.162 89.6458 161.032 89.0877 161.032H87.499V164.038H89.0877ZM103.197 170.786C102.321 170.786 101.535 170.644 100.84 170.359C100.145 170.074 99.5872 169.653 99.1658 169.095C98.7558 168.537 98.5394 167.865 98.5166 167.079H101.626C101.671 167.523 101.825 167.865 102.087 168.104C102.349 168.332 102.691 168.446 103.112 168.446C103.545 168.446 103.887 168.349 104.137 168.155C104.388 167.95 104.513 167.671 104.513 167.318C104.513 167.022 104.41 166.777 104.205 166.584C104.012 166.39 103.767 166.231 103.471 166.105C103.186 165.98 102.776 165.838 102.241 165.678C101.466 165.439 100.834 165.2 100.345 164.961C99.8548 164.722 99.4335 164.368 99.0804 163.902C98.7273 163.435 98.5508 162.825 98.5508 162.074C98.5508 160.957 98.9551 160.086 99.7637 159.46C100.572 158.822 101.626 158.503 102.924 158.503C104.245 158.503 105.31 158.822 106.119 159.46C106.927 160.086 107.36 160.963 107.417 162.091H104.257C104.234 161.703 104.092 161.402 103.83 161.185C103.568 160.957 103.232 160.844 102.822 160.844C102.469 160.844 102.184 160.94 101.967 161.134C101.751 161.316 101.643 161.584 101.643 161.937C101.643 162.324 101.825 162.626 102.19 162.842C102.554 163.059 103.123 163.292 103.898 163.543C104.672 163.805 105.299 164.055 105.777 164.294C106.267 164.534 106.688 164.881 107.041 165.337C107.394 165.792 107.571 166.379 107.571 167.096C107.571 167.779 107.394 168.4 107.041 168.958C106.7 169.516 106.198 169.96 105.538 170.291C104.877 170.621 104.097 170.786 103.197 170.786ZM122.95 158.674V170.667H120.029V163.474L117.346 170.667H114.989L112.29 163.457V170.667H109.369V158.674H112.819L116.185 166.977L119.516 158.674H122.95ZM132.516 168.548H128.04L127.323 170.667H124.265L128.604 158.674H131.986L136.326 170.667H133.233L132.516 168.548ZM131.764 166.293L130.278 161.903L128.809 166.293H131.764ZM143.762 170.667L141.268 166.139H140.567V170.667H137.646V158.674H142.549C143.494 158.674 144.297 158.839 144.958 159.169C145.63 159.5 146.131 159.955 146.461 160.536C146.791 161.106 146.957 161.743 146.957 162.449C146.957 163.247 146.729 163.958 146.273 164.585C145.829 165.211 145.169 165.655 144.292 165.917L147.059 170.667H143.762ZM140.567 164.072H142.378C142.914 164.072 143.312 163.941 143.574 163.679C143.847 163.417 143.984 163.047 143.984 162.569C143.984 162.113 143.847 161.755 143.574 161.493C143.312 161.231 142.914 161.1 142.378 161.1H140.567V164.072ZM157.417 158.674V161.014H154.24V170.667H151.319V161.014H148.141V158.674H157.417Z" fill="#F97837"/>
<path d="M408.006 295.595H405.326V222.113C405.326 210.833 400.844 200.016 392.865 192.04C384.886 184.064 374.064 179.583 362.781 179.583H207.036C201.449 179.583 195.917 180.683 190.755 182.821C185.593 184.958 180.903 188.09 176.952 192.04C173.001 195.989 169.867 200.677 167.729 205.837C165.591 210.997 164.49 216.527 164.49 222.112V625.24C164.49 636.519 168.973 647.337 176.951 655.313C184.93 663.288 195.752 667.769 207.036 667.769H362.779C374.062 667.769 384.884 663.288 392.863 655.313C400.842 647.337 405.324 636.519 405.324 625.24V347.9H408.004L408.006 295.595Z" fill="#F9F9F9"/>
<path d="M396.849 219.518V628.218C396.848 636.768 393.449 644.967 387.399 651.013C381.349 657.058 373.144 660.457 364.587 660.46H205.621C197.061 660.461 188.851 657.065 182.797 651.019C176.743 644.972 173.34 636.771 173.338 628.218V219.518C173.34 210.966 176.743 202.765 182.797 196.718C188.851 190.672 197.06 187.276 205.62 187.277H224.903C223.956 189.604 223.596 192.127 223.854 194.625C224.112 197.124 224.98 199.52 226.381 201.605C227.783 203.69 229.676 205.398 231.894 206.581C234.112 207.763 236.586 208.383 239.1 208.386H329.729C332.242 208.383 334.717 207.763 336.934 206.581C339.152 205.398 341.045 203.69 342.447 201.605C343.849 199.52 344.717 197.124 344.975 194.625C345.232 192.127 344.872 189.604 343.925 187.277H364.581C373.138 187.279 381.343 190.675 387.394 196.72C393.445 202.765 396.846 210.963 396.849 219.512V219.518Z" fill="white"/>
<path d="M357.302 454.259H215.965C215.271 454.258 214.606 453.984 214.115 453.497C213.624 453.01 213.348 452.35 213.348 451.661V416.85C213.349 416.161 213.625 415.5 214.115 415.013C214.606 414.526 215.271 414.252 215.965 414.251H357.302C357.995 414.252 358.661 414.526 359.151 415.013C359.642 415.5 359.918 416.161 359.919 416.85V451.661C359.918 452.35 359.642 453.011 359.151 453.498C358.661 453.985 357.995 454.259 357.302 454.26V454.259ZM215.965 415.29C215.548 415.291 215.149 415.455 214.855 415.747C214.56 416.04 214.395 416.436 214.394 416.85V451.661C214.395 452.075 214.56 452.471 214.855 452.764C215.149 453.056 215.548 453.22 215.965 453.221H357.302C357.718 453.22 358.117 453.056 358.412 452.764C358.706 452.471 358.872 452.075 358.872 451.661V416.85C358.872 416.436 358.706 416.04 358.412 415.747C358.117 415.455 357.718 415.291 357.302 415.29H215.965Z" fill="#FB8C00"/>
<path d="M259.426 427.331C258.939 427.331 258.471 427.533 258.126 427.894C257.782 428.254 257.588 428.743 257.588 429.253C257.588 429.763 257.782 430.252 258.126 430.613C258.471 430.974 258.939 431.176 259.426 431.176H346.084C346.325 431.186 346.566 431.146 346.792 431.058C347.018 430.97 347.226 430.837 347.403 430.665C347.58 430.494 347.724 430.287 347.824 430.058C347.925 429.828 347.982 429.58 347.991 429.328C348.001 429.076 347.962 428.824 347.878 428.587C347.795 428.35 347.667 428.133 347.503 427.948C347.339 427.762 347.141 427.613 346.922 427.507C346.703 427.402 346.466 427.342 346.224 427.333C346.197 427.332 346.171 427.331 346.144 427.331H259.426V427.331Z" fill="#FFC882"/>
<path d="M259.426 438.103C258.939 438.103 258.471 438.305 258.126 438.666C257.782 439.026 257.588 439.515 257.588 440.025C257.588 440.535 257.782 441.024 258.126 441.385C258.471 441.746 258.939 441.948 259.426 441.948H346.084C346.325 441.958 346.566 441.918 346.792 441.83C347.018 441.742 347.226 441.609 347.403 441.437C347.58 441.266 347.724 441.059 347.824 440.83C347.925 440.6 347.982 440.352 347.991 440.1C348.001 439.848 347.962 439.596 347.878 439.359C347.795 439.122 347.667 438.905 347.503 438.72C347.339 438.534 347.141 438.385 346.922 438.279C346.703 438.174 346.466 438.114 346.224 438.105C346.197 438.104 346.171 438.103 346.144 438.103L259.426 438.103Z" fill="#FFC882"/>
<path d="M308.368 313.134H288.482V293.07H285.167V313.134H265.281V316.478H285.167V336.542H288.482V316.478H308.368V313.134Z" fill="#F9A826"/>
<path d="M123.559 355.046C138.96 355.046 151.446 342.561 151.446 327.159C151.446 311.758 138.96 299.272 123.559 299.272C108.157 299.272 95.6719 311.758 95.6719 327.159C95.6719 342.561 108.157 355.046 123.559 355.046Z" fill="#FFB8B8"/>
<path d="M244.016 565.367L201.411 487.901L176.619 447.62L206.058 434.45L222.326 466.211C222.326 466.211 244.016 497.971 249.438 524.31C254.86 550.649 260.283 563.043 260.283 563.043L244.016 565.367Z" fill="#FFB8B8"/>
<path d="M9.2937 542.899L72.8148 487.125L69.7197 442.195H51.9026L46.4772 465.435L-4.64941 532.829L9.2937 542.899Z" fill="#FFB8B8"/>
<path d="M91.4106 368.605C91.4106 368.605 114.417 378.249 131.575 366.455C131.575 366.455 173.523 373.254 175.847 375.577C178.171 377.899 173.523 447.617 173.523 447.617L164.228 487.126C164.228 487.126 177.397 547.548 158.031 563.041L161.904 583.957C161.904 583.957 75.9189 590.154 41.834 569.239L48.0299 548.322L64.2976 482.476L54.2271 391.07C54.2271 391.07 61.9709 370.154 91.4106 368.605Z" fill="#FF6584"/>
<path d="M156.094 379.061L176.235 375.965C176.235 375.965 186.305 377.515 195.601 396.881C204.897 416.247 214.968 441.81 214.968 441.81L180.109 457.304L151.447 412.374L156.094 379.061Z" fill="#FF6584"/>
<path d="M58.8755 387.196L54.2275 391.069C54.2275 391.069 48.0303 413.534 48.0303 429.027V449.942L75.9179 453.041L58.8755 387.196Z" fill="#FF6584"/>
<path d="M95.6786 334.728C95.6786 334.728 91.8877 330.634 92.2716 325.509C92.5246 322.594 92.3382 319.658 91.7188 316.798C91.7188 316.798 92.9055 308.411 94.6574 303.549C96.4093 298.686 94.9321 296.995 102.463 294.341C109.994 291.686 105.2 282.088 127.402 289.739C128.246 290.592 129.324 291.175 130.5 291.416C131.676 291.656 132.896 291.543 134.008 291.091C138.107 289.59 140.577 295.221 140.577 295.221C140.577 295.221 143.134 293.123 144.568 295.304C146.003 297.485 152.942 292.514 155.488 308.381C158.034 324.247 149.297 338.396 149.297 338.396C149.297 338.396 148.072 313.006 133.653 312.546C119.234 312.085 102.927 306.624 100.905 317.315C98.8823 328.007 95.6786 334.728 95.6786 334.728Z" fill="#2F2E41"/>
<path d="M240.276 439.572C240.277 440.236 240.212 440.9 240.083 441.551C238.319 442.322 236.422 442.719 234.506 442.719C232.59 442.719 230.693 442.322 228.929 441.551C228.8 440.9 228.735 440.236 228.735 439.572C228.735 436.117 230.443 433.196 232.795 432.221C231.856 431.814 231.082 431.084 230.606 430.157C230.129 429.229 229.979 428.16 230.18 427.131C230.381 426.102 230.922 425.177 231.711 424.512C232.499 423.847 233.487 423.484 234.506 423.484C235.524 423.484 236.512 423.847 237.3 424.512C238.089 425.177 238.63 426.102 238.831 427.131C239.033 428.16 238.882 429.229 238.405 430.157C237.929 431.084 237.155 431.814 236.216 432.221C238.569 433.196 240.276 436.117 240.276 439.572Z" fill="#F9A826"/>
<path d="M185.254 364.285C184.741 351.845 183.18 307.971 199.187 315.136C215.193 322.302 227.403 337.032 231.507 343.501C222.273 320.113 218.271 275.128 276.14 282.294C327.36 288.636 331.718 318.056 326.352 336.81C338.235 306.505 361.699 265.839 377.719 304.686C386.954 311.155 414.153 357.802 394.685 364.285C371.599 371.974 308.449 364.285 185.254 364.285Z" fill="#55CD00"/>
<path d="M234.889 290.252H344.723V345.169H234.889V290.252Z" fill="#D6CBBE"/>
<path d="M234.889 345.169H344.723V356.731H234.889V345.169Z" fill="#AAA5A0"/>
<path d="M298.478 304.704H333.162V356.731H298.478V304.704Z" fill="#A06113"/>
<path d="M246.448 304.704H286.914V336.498H246.448V304.704Z" fill="white"/>
<path d="M249.339 307.595H284.023V333.608H249.339V307.595Z" fill="#FFDD55"/>
<path d="M325.934 332.163C325.067 332.163 324.489 332.741 324.489 333.608V339.389C324.489 340.256 325.067 340.834 325.934 340.834C326.802 340.834 327.38 340.256 327.38 339.389V333.608C327.38 332.741 326.802 332.163 325.934 332.163Z" fill="#90A4AE"/>
<path d="M289.806 298.923C294.595 298.923 298.477 295.041 298.477 290.252C298.477 285.463 294.595 281.581 289.806 281.581C285.017 281.581 281.135 285.463 281.135 290.252C281.135 295.041 285.017 298.923 289.806 298.923Z" fill="#558B2F"/>
<path d="M324.488 298.923C329.277 298.923 333.159 295.041 333.159 290.252C333.159 285.463 329.277 281.581 324.488 281.581C319.699 281.581 315.816 285.463 315.816 290.252C315.816 295.041 319.699 298.923 324.488 298.923Z" fill="#558B2F"/>
<path d="M255.119 298.923C259.908 298.923 263.791 295.041 263.791 290.252C263.791 285.463 259.908 281.581 255.119 281.581C250.33 281.581 246.448 285.463 246.448 290.252C246.448 295.041 250.33 298.923 255.119 298.923Z" fill="#558B2F"/>
<path d="M336.05 252.677H243.558C240.379 252.677 237.777 255.278 237.777 258.458V267.129H341.831V258.458C341.831 255.278 339.23 252.677 336.05 252.677ZM281.133 267.129H298.475V290.252H281.133V267.129ZM327.379 267.129H312.927L315.818 290.252H333.16L327.379 267.129ZM252.229 267.129H266.681L263.791 290.252H246.449L252.229 267.129Z" fill="#FB8C00"/>
<path d="M307.147 298.923C311.936 298.923 315.818 295.041 315.818 290.252C315.818 285.463 311.936 281.581 307.147 281.581C302.358 281.581 298.476 285.463 298.476 290.252C298.476 295.041 302.358 298.923 307.147 298.923Z" fill="#FFA000"/>
<path d="M350.501 290.252C350.501 295.166 346.744 298.923 341.83 298.923C336.917 298.923 333.159 295.166 333.159 290.252C333.159 285.339 336.917 281.581 341.83 281.581L350.501 290.252Z" fill="#FFA000"/>
<path d="M272.462 298.923C277.251 298.923 281.133 295.041 281.133 290.252C281.133 285.463 277.251 281.581 272.462 281.581C267.673 281.581 263.791 285.463 263.791 290.252C263.791 295.041 267.673 298.923 272.462 298.923Z" fill="#FFA000"/>
<path d="M229.104 290.252C229.104 295.166 232.862 298.923 237.776 298.923C242.689 298.923 246.447 295.166 246.447 290.252C246.447 285.339 242.689 281.581 237.776 281.581L229.104 290.252Z" fill="#FFA000"/>
<path d="M312.926 267.129H298.474V290.252H315.816L312.926 267.129ZM341.83 267.129H327.378L333.158 290.252H350.501L341.83 267.129ZM266.68 267.129H281.131V290.252H263.789L266.68 267.129ZM237.776 267.129H252.228L246.447 290.252H229.104L237.776 267.129Z" fill="#FFC107"/>
<ellipse cx="290.366" cy="362.893" rx="100.022" ry="6.34757" fill="#D9D9D9"/>
</g>
<defs>
<clipPath id="clip0_3033_503">
<rect width="450" height="450" fill="white"/>
</clipPath>
</defs>
</svg>
