<svg width="450" height="450" viewBox="0 0 450 450" fill="none" xmlns="http://www.w3.org/2000/svg">
<g clip-path="url(#clip0_2996_1152)">
<rect width="449.669" height="449.669" fill="white"/>
<path d="M204.771 15.4822C40.7938 -59.8112 240.569 -234.352 360.953 -312.211L977.144 344.606C946.755 373.114 899.796 471.041 777.248 469.845C624.065 468.351 438.664 555.896 349.57 353.069C260.477 150.242 409.742 109.599 204.771 15.4822Z" fill="#FFE0B8"/>
<path d="M44.2289 189.484C-146.214 201.591 15.2942 -119.03 119.854 -280.853L934.502 103.135C910.453 154.155 887.556 294.881 759.814 367.194C600.136 457.585 430.537 669.629 284.187 490.209C137.837 310.789 282.282 174.35 44.2289 189.484Z" fill="#FFC882" fill-opacity="0.39"/>
<path d="M515.175 223.496C512.342 214.311 515.507 204.575 513.746 195.24C512.291 187.381 508.693 179.998 504.406 173.266C496.648 161.078 480.928 155.572 467.045 153.87C457.654 152.718 447.727 153.945 439.152 149.19C432.9 145.736 426.264 142.082 419.425 139.479C402.251 132.997 382.549 132.121 364.303 131.595L363.129 131.57L361.955 131.595C343.734 132.121 324.033 132.997 306.858 139.479C300.019 142.057 293.384 145.711 287.132 149.19C278.557 153.945 268.63 152.718 259.213 153.87C245.356 155.546 229.636 161.052 221.878 173.266C217.591 179.998 214.018 187.381 212.538 195.24C210.777 204.575 213.941 214.311 211.109 223.496C210.471 225.573 207.791 228.651 208.837 230.979C209.909 233.406 215.804 235.183 218.024 236.435C225.451 240.714 233.617 243.743 241.885 246.145C247.423 247.772 253.19 251.126 259.188 250.3C261.765 249.95 263.756 248.923 264.138 246.321C265.287 238.362 268.145 230.253 270.799 222.695C271.514 220.643 272.585 216.989 275.597 217.239C277.638 217.414 278.787 221.719 278.659 223.295C278.174 229.277 276.745 235.208 276.515 241.215C276.26 247.522 278.098 252.652 280.139 258.484C282.436 264.966 285.243 271.298 287.234 277.88C289.352 285.063 288.076 292.646 285.932 299.679C280.777 316.447 273.785 331.789 266.946 347.906C264.368 353.938 262.122 360.095 259.596 366.151C258.449 368.896 257.224 371.608 255.921 374.285C252.374 381.593 244.769 387.074 245.739 396.184C247.27 410.5 260.948 418.809 272.305 425.691C299.279 442.059 331.434 449.818 363.154 449.667C394.901 449.818 427.056 442.084 454.055 425.691C465.386 418.809 479.09 410.5 480.621 396.184C481.591 387.099 473.961 381.593 470.439 374.285C469.163 371.632 467.913 368.879 466.79 366.151C464.289 360.095 462.017 353.938 459.44 347.906C452.575 331.789 445.583 316.447 440.453 299.679C438.31 292.646 437.008 285.063 439.152 277.88C441.117 271.273 443.95 264.966 446.221 258.484C448.288 252.652 450.1 247.522 449.87 241.215C449.666 235.183 448.211 229.277 447.727 223.295C447.624 221.744 448.747 217.414 450.763 217.239C453.8 217.014 454.872 220.643 455.587 222.695C458.241 230.278 461.099 238.387 462.247 246.321C462.63 248.923 464.62 249.95 467.198 250.3C473.221 251.126 478.937 247.772 484.5 246.145C492.769 243.743 500.909 240.714 508.361 236.435C510.556 235.183 516.451 233.406 517.548 230.979C518.492 228.651 515.838 225.573 515.175 223.496Z" fill="#FFBB00"/>
<path d="M337.204 197.443C330.569 200.321 322.939 199.845 316.227 197.418L315.793 197.267C311.991 195.841 307.958 193.388 304.845 190.785C294.892 182.301 293.897 167.51 297.827 155.947C298.848 152.919 302.37 148.84 306.045 149.59C306.58 149.716 307.142 149.916 307.703 150.191C311.378 152.068 314.134 155.096 317.477 157.424C323.296 161.478 329.318 163.255 335.877 165.758C340.47 167.485 345.192 168.912 349.964 169.913C351.24 170.163 352.669 170.588 353.843 171.014C355.68 171.69 355.782 173.692 355.859 175.344C356.088 179.573 351.597 184.929 349.071 188.032C345.881 191.912 341.976 195.39 337.204 197.443ZM419.632 190.76C416.544 193.388 412.512 195.816 408.684 197.242L408.276 197.393C401.59 199.82 393.934 200.296 387.299 197.418C382.527 195.365 378.622 191.912 375.407 187.957C372.88 184.879 368.389 179.498 368.619 175.268C368.721 173.617 368.823 171.614 370.66 170.939C371.86 170.488 373.289 170.088 374.539 169.838C379.337 168.836 384.058 167.41 388.652 165.683C395.21 163.205 401.233 161.403 407.051 157.349C410.394 155.021 413.176 151.968 416.825 150.116C417.387 149.841 417.948 149.615 418.484 149.515C422.159 148.765 425.655 152.869 426.676 155.872C430.606 167.485 429.61 182.276 419.632 190.76Z" fill="white"/>
<path d="M362.337 400.063C368.933 400.063 374.28 394.819 374.28 388.35C374.28 381.881 368.933 376.637 362.337 376.637C355.741 376.637 350.394 381.881 350.394 388.35C350.394 394.819 355.741 400.063 362.337 400.063Z" fill="#F79329"/>
<path d="M362.337 339.873C368.933 339.873 374.28 334.629 374.28 328.161C374.28 321.692 368.933 316.448 362.337 316.448C355.741 316.448 350.394 321.692 350.394 328.161C350.394 334.629 355.741 339.873 362.337 339.873Z" fill="#F79329"/>
<path d="M362.337 279.706C368.933 279.706 374.28 274.462 374.28 267.994C374.28 261.525 368.933 256.281 362.337 256.281C355.741 256.281 350.394 261.525 350.394 267.994C350.394 274.462 355.741 279.706 362.337 279.706Z" fill="#F97837"/>
<path d="M362.337 219.516C368.933 219.516 374.28 214.272 374.28 207.804C374.28 201.335 368.933 196.091 362.337 196.091C355.741 196.091 350.394 201.335 350.394 207.804C350.394 214.272 355.741 219.516 362.337 219.516Z" fill="#F97837"/>
<path d="M67.7104 86.3037C61.9291 86.3037 57.1493 84.9608 53.371 82.275C49.6381 79.5436 47.6124 75.5605 47.2938 70.3254H63.4086C63.6362 73.1023 64.8653 74.4907 67.0959 74.4907C67.9153 74.4907 68.5981 74.3086 69.1444 73.9444C69.7361 73.5347 70.032 72.9202 70.032 72.1008C70.032 70.9627 69.4175 70.0523 68.1884 69.3695C66.9593 68.6411 65.0474 67.8217 62.4526 66.9113C59.3571 65.8187 56.7851 64.749 54.7366 63.702C52.7336 62.655 51.0038 61.13 49.5471 59.127C48.0904 57.124 47.3848 54.552 47.4303 51.411C47.4303 48.27 48.227 45.6069 49.8202 43.4219C51.459 41.1913 53.6669 39.507 56.4437 38.3689C59.2661 37.2309 62.4298 36.6619 65.935 36.6619C71.8529 36.6619 76.5417 38.0275 80.0014 40.7588C83.5066 43.4902 85.3502 47.3368 85.5323 52.2987H69.2126C69.1671 50.933 68.8257 49.9543 68.1884 49.3625C67.5511 48.7707 66.7772 48.4748 65.8668 48.4748C65.2295 48.4748 64.706 48.7024 64.2963 49.1577C63.8866 49.5674 63.6817 50.1591 63.6817 50.933C63.6817 52.0255 64.2735 52.936 65.4571 53.6643C66.6862 54.3472 68.6209 55.1893 71.2611 56.1908C74.3111 57.3289 76.8148 58.4214 78.7723 59.4684C80.7752 60.5154 82.5051 61.9721 83.9618 63.8385C85.4185 65.7049 86.1468 68.0493 86.1468 70.8717C86.1468 73.8306 85.4185 76.4937 83.9618 78.8608C82.5051 81.1824 80.3883 83.0033 77.6115 84.3235C74.8346 85.6436 71.5343 86.3037 67.7104 86.3037ZM122.473 78.5194H106.359L103.969 85.8257H88.0588L105.744 37.4813H123.225L140.842 85.8257H124.863L122.473 78.5194ZM118.786 67.1161L114.416 53.6643L110.046 67.1161H118.786ZM192.971 37.4813L176.72 85.8257H157.123L140.871 37.4813H156.986L166.956 70.7351L176.857 37.4813H192.971ZM211.524 49.5674V55.508H226.546V66.9113H211.524V73.7396H228.594V85.8257H196.365V37.4813H228.594V49.5674H211.524Z" fill="#F97837"/>
<path d="M101.571 99.3053V144.112H87.5848V121.772L80.6866 144.112H68.6621L61.7638 121.772V144.112H47.7141V99.3053H64.9281L74.8009 126.202L84.4205 99.3053H101.571ZM129.745 144.555C125.526 144.555 121.644 143.564 118.1 141.581C114.598 139.598 111.813 136.855 109.746 133.354C107.679 129.852 106.645 125.907 106.645 121.519C106.645 117.131 107.679 113.186 109.746 109.684C111.813 106.182 114.598 103.461 118.1 101.52C121.644 99.5373 125.526 98.5458 129.745 98.5458C133.964 98.5458 137.824 99.5373 141.326 101.52C144.828 103.461 147.592 106.182 149.617 109.684C151.684 113.186 152.718 117.131 152.718 121.519C152.718 125.907 151.684 129.852 149.617 133.354C147.592 136.855 144.807 139.598 141.263 141.581C137.761 143.564 133.922 144.555 129.745 144.555ZM129.745 131.455C132.529 131.455 134.681 130.569 136.2 128.797C137.719 126.983 138.478 124.557 138.478 121.519C138.478 118.439 137.719 116.013 136.2 114.241C134.681 112.427 132.529 111.52 129.745 111.52C126.918 111.52 124.745 112.427 123.226 114.241C121.707 116.013 120.948 118.439 120.948 121.519C120.948 124.557 121.707 126.983 123.226 128.797C124.745 130.569 126.918 131.455 129.745 131.455ZM180.316 144.112L171.899 128.037H171.836V144.112H157.786V99.3053H178.671C182.299 99.3053 185.4 99.9592 187.974 101.267C190.548 102.533 192.467 104.284 193.733 106.52C195.041 108.714 195.695 111.203 195.695 113.988C195.695 116.983 194.851 119.641 193.163 121.962C191.518 124.282 189.134 125.949 186.012 126.962L195.758 144.112H180.316ZM171.836 118.671H177.405C178.755 118.671 179.768 118.376 180.443 117.785C181.118 117.152 181.455 116.182 181.455 114.874C181.455 113.692 181.097 112.764 180.38 112.089C179.704 111.414 178.713 111.077 177.405 111.077H171.836V118.671ZM214.233 110.507V116.013H228.156V126.582H214.233V132.911H230.055V144.112H200.183V99.3053H230.055V110.507H214.233Z" fill="#F97837"/>
<path d="M65.3687 222.65C69.9834 219.257 75.6759 217.661 81.3819 218.16L82.9282 218.349L90.1144 219.445C92.0812 219.738 94.0894 219.359 95.8144 218.37L96.6503 217.829L102.583 213.466C107.431 209.9 113.46 208.325 119.433 209.062C125.406 209.8 130.87 212.794 134.705 217.432L135.529 218.49L139.891 224.423C141.069 226.025 142.763 227.184 144.664 227.705L145.634 227.906L152.814 229.006C158.748 229.894 164.119 233.011 167.834 237.723C171.548 242.434 173.326 248.385 172.804 254.362L172.615 255.909L171.519 263.095C171.226 265.062 171.604 267.07 172.593 268.795L173.135 269.631L177.498 275.563C181.063 280.412 182.639 286.44 181.901 292.413C181.164 298.386 178.169 303.85 173.531 307.685L172.473 308.509L166.54 312.872C164.941 314.048 163.785 315.73 163.258 317.644L163.057 318.614L161.957 325.794C161.069 331.728 157.951 337.1 153.24 340.814C148.528 344.528 142.577 346.306 136.6 345.784L135.054 345.596L127.868 344.5C125.901 344.206 123.893 344.585 122.168 345.574L121.332 346.116L115.399 350.478C110.551 354.044 104.522 355.62 98.5491 354.882C92.5763 354.145 87.1121 351.15 83.2768 346.512L82.4532 345.454L78.0905 339.522C76.9137 337.922 75.2327 336.766 73.3184 336.239L72.3481 336.038L65.1678 334.938C59.2341 334.051 53.8625 330.933 50.1482 326.222C46.4338 321.51 44.6565 315.559 45.1785 309.582L45.3669 308.036L46.4629 300.85C46.7563 298.883 46.3777 296.875 45.3885 295.15L44.847 294.314L40.4843 288.381L39.72 287.279C36.5622 282.43 35.2991 276.588 36.1716 270.867C37.0441 265.147 39.9912 259.947 44.451 256.259L45.509 255.435L51.4419 251.073C53.0411 249.896 54.1974 248.215 54.7244 246.301L54.9251 245.33L56.0254 238.15C56.4846 235.078 57.5464 232.127 59.1499 229.468C60.7533 226.808 62.8668 224.491 65.3687 222.65ZM119.071 249.724C117.141 249.43 115.173 249.914 113.6 251.071C112.026 252.228 110.977 253.962 110.682 255.893L105.507 289.79L92.1996 287.766L91.2798 287.683C89.4093 287.638 87.5918 288.307 86.1963 289.553C84.8009 290.8 83.9322 292.53 83.7666 294.394C83.6011 296.258 84.1511 298.114 85.305 299.587C86.4589 301.06 88.1302 302.038 89.9793 302.324L110.57 305.464L111.49 305.546C113.283 305.592 115.031 304.982 116.406 303.832C117.781 302.681 118.689 301.067 118.959 299.295L125.24 258.113L125.323 257.193C125.369 255.4 124.759 253.653 123.608 252.277C122.457 250.902 120.844 249.994 119.071 249.724Z" fill="#FB8C00"/>
<ellipse cx="108.045" cy="283.034" rx="43.9341" ry="42.4191" transform="rotate(-36.3289 108.045 283.034)" fill="#FB8C00"/>
<path d="M153.216 245.039C153.984 245.904 154.73 246.798 155.453 247.72L154.989 248.083C155.344 248.537 155.693 248.997 156.037 249.464C156.38 249.931 156.715 250.401 157.042 250.875L157.527 250.541C158.192 251.505 158.822 252.484 159.419 253.475L158.915 253.779C159.512 254.771 160.075 255.776 160.604 256.792L161.127 256.52C161.667 257.559 162.173 258.609 162.644 259.669L162.105 259.908C162.575 260.965 163.009 262.033 163.409 263.11L163.961 262.905C164.367 264 164.738 265.104 165.074 266.215L164.51 266.386C164.843 267.491 165.142 268.605 165.405 269.723L165.978 269.589C166.246 270.725 166.477 271.866 166.673 273.012L166.092 273.111C166.286 274.249 166.445 275.391 166.569 276.536L167.154 276.472C167.28 277.631 167.369 278.793 167.423 279.955L166.835 279.982C166.888 281.134 166.907 282.287 166.89 283.439L167.479 283.448C167.462 284.612 167.41 285.776 167.323 286.937L166.736 286.893C166.649 288.043 166.529 289.189 166.373 290.332L166.957 290.411C166.8 291.565 166.609 292.714 166.383 293.857L165.805 293.743C165.581 294.873 165.324 295.997 165.033 297.114L165.603 297.262C165.309 298.388 164.982 299.506 164.621 300.614L164.061 300.432C163.705 301.527 163.315 302.612 162.893 303.687L163.441 303.902C163.016 304.984 162.558 306.055 162.067 307.114L161.533 306.866C161.049 307.91 160.533 308.942 159.985 309.96L160.504 310.239C159.953 311.261 159.371 312.27 158.758 313.263L158.256 312.954C157.653 313.931 157.018 314.894 156.353 315.84L156.834 316.179C156.167 317.128 155.469 318.06 154.741 318.975L154.28 318.608C153.565 319.506 152.82 320.387 152.046 321.249L152.484 321.642C151.709 322.505 150.906 323.348 150.073 324.171L149.659 323.753C148.844 324.558 148.001 325.345 147.131 326.11L147.52 326.552C146.651 327.316 145.754 328.06 144.831 328.781L144.468 328.316C144.014 328.671 143.554 329.02 143.086 329.364C142.619 329.707 142.149 330.043 141.675 330.371L142.01 330.855C141.046 331.522 140.07 332.156 139.082 332.757L138.775 332.254C137.785 332.857 136.783 333.427 135.771 333.965L136.048 334.485C135.014 335.034 133.969 335.55 132.915 336.032L132.67 335.497C131.617 335.979 130.554 336.427 129.483 336.842L129.696 337.391C128.606 337.814 127.508 338.202 126.403 338.557L126.223 337.996C125.122 338.349 124.014 338.668 122.901 338.953L123.047 339.523C121.916 339.813 120.779 340.068 119.639 340.288L119.527 339.71C118.392 339.93 117.254 340.115 116.113 340.265L116.19 340.849C115.033 341.002 113.874 341.12 112.715 341.204L112.673 340.616C111.521 340.699 110.369 340.747 109.218 340.761L109.225 341.35C108.059 341.364 106.895 341.343 105.733 341.288L105.761 340.699C104.608 340.644 103.458 340.555 102.313 340.431L102.25 341.017C101.091 340.892 99.9372 340.732 98.7895 340.538L98.8877 339.957C97.7508 339.765 96.6201 339.539 95.4974 339.278L95.3643 339.852C94.2299 339.589 93.1035 339.292 91.9867 338.961L92.1542 338.396C91.0497 338.069 89.9548 337.707 88.8711 337.313L88.6696 337.866C87.5763 337.468 86.4943 337.037 85.4253 336.572L85.6603 336.032C84.6048 335.572 83.5621 335.08 82.534 334.556L82.2662 335.081C81.2307 334.552 80.2097 333.991 79.205 333.397L79.5047 332.89C78.5152 332.305 77.5416 331.689 76.5855 331.041L76.2549 331.528C75.294 330.877 74.3506 330.194 73.4264 329.479L73.7867 329.013C72.8782 328.311 71.9885 327.578 71.1189 326.815L70.7303 327.257C69.8585 326.492 69.0069 325.696 68.177 324.871L68.5925 324.453C67.7802 323.645 66.9889 322.808 66.22 321.942L65.7794 322.333C65.0112 321.468 64.265 320.574 63.5425 319.652L64.0062 319.289C63.6512 318.836 63.3019 318.376 62.9585 317.909C62.6151 317.442 62.28 316.971 61.9533 316.497L61.4683 316.831C60.8034 315.867 60.1727 314.888 59.5757 313.897L60.0804 313.593C59.483 312.601 58.9199 311.596 58.3907 310.58L57.8682 310.852C57.3276 309.814 56.822 308.764 56.3514 307.703L56.8898 307.464C56.4204 306.407 55.986 305.339 55.5864 304.263L55.0341 304.468C54.6276 303.372 54.2568 302.268 53.9213 301.157L54.4853 300.987C54.1516 299.881 53.8532 298.768 53.5901 297.649L53.0166 297.784C52.7494 296.648 52.5181 295.506 52.3224 294.36L52.9031 294.261C52.7087 293.123 52.5499 291.981 52.4262 290.837L51.8405 290.9C51.7153 289.741 51.6258 288.58 51.5718 287.417L52.1603 287.39C52.1067 286.238 52.0883 285.085 52.1049 283.933L51.5159 283.925C51.5326 282.76 51.5847 281.596 51.6718 280.435L52.2593 280.479C52.3455 279.33 52.4665 278.183 52.6218 277.04L52.0381 276.961C52.1949 275.808 52.3864 274.659 52.6124 273.515L53.1903 273.63C53.4137 272.499 53.6711 271.375 53.9623 270.258L53.3922 270.11C53.6856 268.984 54.0129 267.867 54.3739 266.758L54.934 266.94C55.2904 265.846 55.6798 264.76 56.1021 263.686L55.5538 263.47C55.979 262.388 56.4371 261.317 56.9279 260.258L57.4624 260.506C57.9463 259.462 58.4623 258.431 59.0101 257.413L58.4913 257.134C59.0416 256.111 59.6237 255.102 60.2373 254.109L60.7385 254.419C61.3424 253.441 61.9771 252.479 62.6424 251.533L62.1605 251.194C62.828 250.245 63.526 249.312 64.2543 248.398L64.7151 248.764C65.4305 247.866 66.1753 246.985 66.9494 246.124L66.5111 245.73C67.2857 244.868 68.0894 244.024 68.9217 243.201L69.336 243.62C70.1509 242.814 70.9937 242.028 71.8642 241.262L71.4752 240.82C72.3443 240.056 73.2407 239.313 74.164 238.592L74.5266 239.056C74.9806 238.701 75.4413 238.352 75.9086 238.009C76.3758 237.665 76.8464 237.329 77.3202 237.002L76.985 236.517C77.9485 235.851 78.9251 235.217 79.9135 234.615L80.2199 235.118C81.2098 234.515 82.2115 233.945 83.2237 233.407L82.9474 232.887C83.9812 232.338 85.0259 231.822 86.08 231.34L86.3251 231.876C87.3785 231.394 88.4413 230.945 89.512 230.53L89.2991 229.981C90.3892 229.558 91.4874 229.17 92.5923 228.816L92.7722 229.377C93.8735 229.024 94.9814 228.705 96.0945 228.42L95.9484 227.849C97.0795 227.559 98.2158 227.304 99.3558 227.084L99.4677 227.662C100.603 227.443 101.741 227.258 102.882 227.107L102.805 226.523C103.962 226.37 105.121 226.252 106.28 226.169L106.322 226.756C107.474 226.674 108.626 226.625 109.777 226.611L109.77 226.022C110.936 226.008 112.1 226.029 113.262 226.085L113.234 226.673C114.387 226.728 115.537 226.817 116.682 226.941L116.745 226.355C117.904 226.48 119.058 226.64 120.206 226.834L120.107 227.415C121.244 227.607 122.375 227.834 123.498 228.094L123.631 227.52C124.765 227.783 125.892 228.08 127.008 228.411L126.841 228.976C127.945 229.304 129.04 229.665 130.124 230.059L130.325 229.506C131.419 229.904 132.501 230.335 133.57 230.8L133.335 231.341C134.39 231.8 135.433 232.292 136.461 232.817L136.729 232.292C137.764 232.82 138.785 233.381 139.79 233.975L139.49 234.482C140.48 235.067 141.453 235.683 142.409 236.332L142.74 235.844C143.701 236.496 144.644 237.179 145.569 237.893L145.208 238.359C146.117 239.061 147.007 239.794 147.876 240.558L148.265 240.115C149.136 240.88 149.988 241.676 150.818 242.501L150.403 242.919C151.215 243.727 152.006 244.564 152.775 245.43L153.216 245.039Z" stroke="white" stroke-width="1.17823" stroke-dasharray="3.53 3.53"/>
<path d="M148.606 248.671C149.427 249.566 150.222 250.497 150.987 251.462L150.525 251.828C150.9 252.301 151.267 252.783 151.628 253.273C151.988 253.763 152.338 254.257 152.678 254.756L153.165 254.424C153.858 255.442 154.51 256.477 155.119 257.528L154.61 257.824C155.221 258.877 155.789 259.945 156.315 261.026L156.845 260.769C157.382 261.874 157.877 262.993 158.327 264.123L157.78 264.342C158.23 265.47 158.636 266.61 159 267.759L159.561 267.581C159.931 268.752 160.257 269.931 160.538 271.118L159.965 271.254C160.245 272.434 160.481 273.62 160.674 274.812L161.255 274.718C161.451 275.928 161.602 277.142 161.709 278.359L161.122 278.411C161.228 279.617 161.29 280.825 161.31 282.034L161.899 282.024C161.918 283.248 161.893 284.472 161.825 285.694L161.237 285.661C161.17 286.868 161.059 288.074 160.906 289.274L161.49 289.348C161.335 290.561 161.137 291.769 160.897 292.97L160.319 292.854C160.082 294.039 159.802 295.216 159.48 296.384L160.048 296.54C159.724 297.718 159.358 298.887 158.95 300.042L158.394 299.846C157.992 300.985 157.549 302.111 157.066 303.223L157.607 303.457C157.12 304.577 156.593 305.682 156.026 306.769L155.503 306.497C154.945 307.566 154.349 308.619 153.713 309.653L154.214 309.961C153.576 311 152.898 312.019 152.183 313.017L151.704 312.674C151.002 313.653 150.262 314.611 149.486 315.546L149.939 315.923C149.162 316.859 148.348 317.772 147.498 318.661L147.072 318.254C146.241 319.123 145.374 319.969 144.472 320.788L144.869 321.224C143.97 322.041 143.037 322.832 142.07 323.595L141.705 323.133C141.231 323.507 140.749 323.875 140.259 324.235C139.769 324.596 139.274 324.946 138.776 325.287L139.108 325.773C138.091 326.469 137.058 327.123 136.011 327.738L135.713 327.229C134.662 327.846 133.596 328.421 132.519 328.956L132.781 329.484C131.679 330.03 130.564 330.535 129.439 330.997L129.215 330.452C128.091 330.915 126.955 331.335 125.812 331.713L125.997 332.273C124.831 332.659 123.656 333.001 122.474 333.301L122.329 332.73C121.153 333.029 119.97 333.285 118.783 333.499L118.888 334.079C117.68 334.296 116.468 334.47 115.255 334.601L115.192 334.015C113.987 334.145 112.78 334.232 111.573 334.276L111.595 334.865C110.37 334.91 109.146 334.911 107.924 334.87L107.945 334.281C106.734 334.24 105.527 334.156 104.325 334.029L104.263 334.615C103.046 334.487 101.834 334.316 100.629 334.102L100.732 333.522C99.5412 333.311 98.358 333.057 97.1851 332.761L97.0411 333.333C95.855 333.034 94.6795 332.692 93.5168 332.309L93.7013 331.749C92.5536 331.371 91.4187 330.951 90.2991 330.49L90.0748 331.035C88.9452 330.57 87.8308 330.064 86.7341 329.517L86.9972 328.99C85.9173 328.451 84.8549 327.872 83.8123 327.253L83.5116 327.759C82.4628 327.137 81.4338 326.475 80.4271 325.773L80.764 325.289C79.7754 324.6 78.8085 323.873 77.8656 323.107L77.4942 323.564C76.5495 322.797 75.6286 321.992 74.7338 321.149L75.1377 320.72C74.2621 319.896 73.4118 319.035 72.5889 318.138L72.1548 318.536C71.3337 317.641 70.5396 316.71 69.7746 315.745L70.2363 315.379C69.8617 314.906 69.494 314.424 69.1337 313.934C68.7733 313.444 68.4233 312.95 68.0835 312.451L67.5967 312.783C66.903 311.765 66.2515 310.73 65.6419 309.679L66.1515 309.383C65.5405 308.33 64.9722 307.262 64.4461 306.181L63.9164 306.438C63.3787 305.333 62.8846 304.214 62.4338 303.084L62.981 302.865C62.5311 301.737 62.1247 300.597 61.7616 299.448L61.1998 299.626C60.83 298.455 60.5045 297.276 60.2229 296.089L60.7961 295.953C60.5161 294.773 60.2801 293.587 60.0877 292.395L59.5061 292.489C59.3106 291.279 59.1595 290.065 59.0524 288.848L59.6393 288.796C59.5331 287.59 59.4707 286.382 59.4516 285.173L58.8626 285.183C58.8432 283.959 58.8678 282.735 58.936 281.513L59.5242 281.546C59.5916 280.339 59.702 279.133 59.8552 277.933L59.2708 277.859C59.4257 276.646 59.6237 275.438 59.8644 274.237L60.442 274.353C60.6796 273.168 60.9594 271.991 61.2808 270.823L60.7128 270.667C61.0372 269.489 61.4035 268.32 61.8115 267.165L62.367 267.361C62.7689 266.222 63.2117 265.096 63.6949 263.984L63.1546 263.75C63.6412 262.63 64.1683 261.525 64.7356 260.438L65.258 260.71C65.8157 259.641 66.4127 258.588 67.0486 257.554L66.5468 257.246C67.1854 256.207 67.8628 255.188 68.5786 254.19L69.0574 254.533C69.7595 253.554 70.499 252.596 71.2755 251.661L70.8222 251.284C71.5993 250.348 72.413 249.435 73.2631 248.546L73.6888 248.953C74.5204 248.084 75.3871 247.238 76.2888 246.419L75.8926 245.983C76.7912 245.166 77.7241 244.375 78.6909 243.612L79.056 244.074C79.5298 243.7 80.0119 243.332 80.5022 242.972C80.9925 242.611 81.4869 242.261 81.9853 241.92L81.6528 241.434C82.6698 240.738 83.7029 240.084 84.7504 239.469L85.0484 239.978C86.0993 239.361 87.1647 238.786 88.2425 238.251L87.9807 237.723C89.0824 237.177 90.1969 236.672 91.3221 236.21L91.5461 236.755C92.6706 236.292 93.8058 235.872 94.9495 235.494L94.7644 234.934C95.9305 234.548 97.1054 234.206 98.2868 233.906L98.4318 234.477C99.6081 234.178 100.791 233.922 101.978 233.708L101.874 233.128C103.081 232.911 104.293 232.737 105.506 232.606L105.569 233.192C106.775 233.062 107.982 232.975 109.188 232.931L109.167 232.342C110.391 232.297 111.616 232.296 112.837 232.337L112.817 232.926C114.027 232.967 115.234 233.051 116.436 233.178L116.498 232.592C117.715 232.72 118.928 232.891 120.132 233.105L120.029 233.685C121.22 233.896 122.403 234.15 123.576 234.446L123.72 233.874C124.906 234.173 126.082 234.515 127.244 234.898L127.06 235.458C128.208 235.836 129.342 236.256 130.462 236.717L130.686 236.172C131.816 236.637 132.93 237.143 134.027 237.69L133.764 238.217C134.844 238.756 135.906 239.335 136.949 239.954L137.25 239.448C138.298 240.07 139.327 240.732 140.334 241.434L139.997 241.918C140.986 242.607 141.953 243.334 142.896 244.1L143.267 243.643C144.212 244.41 145.133 245.215 146.027 246.058L145.624 246.487C146.499 247.311 147.349 248.172 148.172 249.069L148.606 248.671Z" fill="white" stroke="white" stroke-width="1.17823" stroke-dasharray="3.53 3.53"/>
<rect x="56.5765" y="341.725" width="154.337" height="31.5136" transform="rotate(-36.3289 56.5765 341.725)" fill="#FB8C00" stroke="white" stroke-width="1.17823"/>
<path d="M100.349 355.831L77.8916 365.519L94.6294 353.211L100.349 355.831Z" fill="#F9AD4F" stroke="#F9AD4F" stroke-width="0.235647"/>
<path d="M182.07 295.738L197.272 277.732L181.178 289.567L182.07 295.738Z" fill="#F9AD4F" stroke="#F9AD4F" stroke-width="0.235647"/>
<path d="M57.1337 390.288L100.911 358.097L75.8879 367.353L65.7051 353.506L42.5869 370.506L58.4786 372.536L57.1337 390.288Z" fill="#FB8C00" stroke="white" stroke-width="2.35647"/>
<path d="M222.918 267.544L186.876 294.047L199.521 275.605L189.338 261.758L208.371 247.762L207.223 262.322L222.918 267.544Z" fill="#FB8C00" stroke="white" stroke-width="2.12082"/>
<path d="M73.6884 290.149L76.9385 287.759L78.8148 290.31L72.193 295.18L64.286 284.427L67.6576 281.948L73.6884 290.149ZM85.1936 285.783C84.1811 286.528 83.0747 286.975 81.8742 287.125C80.6839 287.267 79.5317 287.1 78.4176 286.624C77.3035 286.149 76.3593 285.385 75.585 284.332C74.8106 283.279 74.3626 282.149 74.2407 280.944C74.1189 279.739 74.3069 278.595 74.8048 277.511C75.3053 276.41 76.0619 275.487 77.0744 274.742C78.0869 273.998 79.1883 273.554 80.3786 273.412C81.5615 273.26 82.7049 273.425 83.8089 273.908C84.923 274.384 85.8672 275.148 86.6415 276.201C87.4158 277.254 87.8639 278.383 87.9857 279.588C88.1177 280.786 87.9334 281.936 87.4328 283.037C86.9424 284.131 86.196 285.046 85.1936 285.783ZM82.8818 282.64C83.5501 282.148 83.9101 281.556 83.9619 280.863C84.0062 280.159 83.7604 279.443 83.2243 278.714C82.6808 277.975 82.0704 277.527 81.3932 277.369C80.7086 277.202 80.0321 277.364 79.3639 277.856C78.6855 278.354 78.3241 278.956 78.2798 279.659C78.228 280.352 78.4738 281.068 79.0174 281.808C79.5534 282.537 80.1638 282.985 80.8484 283.152C81.5256 283.309 82.2034 283.138 82.8818 282.64ZM99.4291 258.584L104.876 271.146L100.684 274.229L94.949 269.039L98.1932 276.06L94.0015 279.143L83.634 270.199L87.2638 267.53L93.2168 273.589L89.6939 265.743L93.3692 263.041L99.8082 268.742L95.7992 261.254L99.4291 258.584ZM105.987 257.904L106.958 259.226L110.299 256.769L112.164 259.305L108.823 261.762L109.94 263.281L113.737 260.489L115.714 263.177L108.545 268.448L100.638 257.695L107.807 252.424L109.783 255.112L105.987 257.904ZM121.269 259.255C119.984 260.201 118.701 260.684 117.421 260.704C116.144 260.707 115.042 260.153 114.115 259.041L117.699 256.405C118.204 256.985 118.705 257.093 119.201 256.728C119.383 256.594 119.505 256.442 119.567 256.272C119.632 256.084 119.597 255.899 119.463 255.716C119.277 255.463 118.991 255.361 118.606 255.41C118.214 255.449 117.654 255.58 116.928 255.802C116.061 256.065 115.314 256.248 114.687 256.35C114.07 256.445 113.436 256.388 112.785 256.181C112.133 255.974 111.555 255.517 111.052 254.811C110.538 254.113 110.28 253.39 110.277 252.643C110.276 251.879 110.492 251.144 110.923 250.436C111.365 249.721 111.976 249.077 112.755 248.504C114.072 247.536 115.338 247.073 116.554 247.115C117.78 247.149 118.82 247.703 119.672 248.777L116.042 251.446C115.808 251.15 115.572 250.988 115.334 250.96C115.095 250.933 114.875 250.994 114.672 251.143C114.53 251.247 114.451 251.383 114.435 251.552C114.41 251.71 114.462 251.875 114.588 252.047C114.767 252.29 115.048 252.396 115.43 252.364C115.815 252.315 116.383 252.186 117.134 251.977C117.999 251.731 118.734 251.564 119.341 251.477C119.957 251.382 120.581 251.424 121.21 251.6C121.839 251.777 122.384 252.18 122.846 252.807C123.33 253.465 123.604 254.177 123.667 254.942C123.722 255.696 123.549 256.447 123.148 257.195C122.746 257.943 122.12 258.63 121.269 259.255ZM127.014 238.3L128.979 240.973L126.124 243.073L132.066 251.152L128.694 253.632L122.752 245.552L119.928 247.629L117.962 244.956L127.014 238.3Z" fill="#F97837"/>
<path d="M96.9568 291.827C97.4556 292.505 97.7529 293.238 97.8485 294.026C97.9367 294.804 97.7911 295.581 97.4117 296.36C97.0424 297.13 96.4224 297.836 95.5517 298.476L94.2152 299.459L96.728 302.876L93.3564 305.355L85.4493 294.603L90.1575 291.141C91.4737 290.173 92.7269 289.766 93.9169 289.921C95.117 290.068 96.1303 290.703 96.9568 291.827ZM93.2176 296.098C93.9162 295.584 94.0235 294.998 93.5396 294.34C93.0556 293.682 92.4643 293.609 91.7657 294.123L90.8089 294.827L92.2608 296.801L93.2176 296.098ZM108.626 294.127L103.769 291.755L103.754 291.766L106.591 295.623L103.219 298.103L95.3123 287.35L100.324 283.664C101.195 283.024 102.055 282.634 102.903 282.494C103.744 282.343 104.514 282.425 105.212 282.738C105.913 283.034 106.509 283.515 107.001 284.184C107.529 284.903 107.796 285.689 107.8 286.544C107.815 287.391 107.537 288.212 106.966 289.006L112.332 291.402L108.626 294.127ZM102.101 289.518L103.438 288.535C103.762 288.297 103.953 288.047 104.011 287.787C104.061 287.516 103.971 287.223 103.74 286.909C103.531 286.626 103.282 286.466 102.99 286.431C102.709 286.388 102.412 286.482 102.098 286.713L100.761 287.696L102.101 289.518ZM108.858 277.389L116.765 288.142L113.394 290.621L105.487 279.868L108.858 277.389ZM114.02 281.854C113.238 280.791 112.755 279.687 112.569 278.545C112.394 277.394 112.539 276.297 113.004 275.253C113.461 274.199 114.232 273.274 115.315 272.477C116.246 271.792 117.207 271.359 118.197 271.177C119.189 270.978 120.147 271.03 121.072 271.333C122.007 271.628 122.863 272.145 123.64 272.884L120.086 275.497C119.664 275.262 119.23 275.16 118.785 275.191C118.342 275.204 117.928 275.352 117.544 275.635C116.977 276.052 116.682 276.596 116.661 277.267C116.65 277.931 116.908 278.622 117.437 279.341C117.966 280.06 118.548 280.513 119.185 280.7C119.832 280.879 120.439 280.76 121.006 280.344C121.391 280.061 121.659 279.715 121.811 279.307C121.966 278.881 121.994 278.431 121.896 277.958L125.449 275.344C125.923 276.306 126.161 277.278 126.165 278.258C126.178 279.231 125.946 280.166 125.467 281.064C124.991 281.945 124.287 282.727 123.356 283.412C122.273 284.209 121.163 284.674 120.029 284.806C118.886 284.929 117.792 284.735 116.746 284.225C115.71 283.707 114.802 282.917 114.02 281.854ZM127.165 268.069L128.136 269.39L131.478 266.933L133.343 269.47L130.001 271.927L131.118 273.445L134.915 270.653L136.892 273.342L129.723 278.613L121.816 267.86L128.985 262.589L130.962 265.277L127.165 268.069Z" fill="#F97837"/>
<path d="M543.893 330.78C538.306 321.67 514.51 288.111 490.601 275.63C484.72 272.574 468.388 268.63 461.105 266.895C451.492 263.957 448.302 264.371 445.181 265.653C433.283 270.563 425.298 272.909 413.106 272.909C412.767 272.909 412.45 272.889 412.133 272.889C411.817 272.909 411.5 272.909 411.161 272.909C398.969 272.909 390.984 270.563 379.086 265.653C375.964 264.371 372.775 263.957 363.162 266.895C355.878 268.63 339.547 272.574 333.666 275.63C309.756 288.091 285.961 321.67 280.373 330.78C279.582 332.042 278.587 333.166 279.175 334.487C281.934 340.619 291.91 348.644 313.466 359.764C314.982 360.553 316.859 360.652 318.239 359.705C323.894 355.821 337.647 341.072 337.647 341.072C337.647 341.072 347.441 375.814 343.324 405.844C339.185 435.874 332.105 459.219 332.105 459.219C331.901 460.698 332.783 462.137 334.367 462.788C341.175 465.647 374.019 472.095 412.156 472.154C450.293 472.114 483.136 465.647 489.945 462.788C491.528 462.137 492.411 460.678 492.207 459.219C492.207 459.219 485.104 435.893 480.988 405.844C476.848 375.814 486.665 341.072 486.665 341.072C486.665 341.072 500.418 355.821 506.073 359.705C507.453 360.652 509.33 360.553 510.846 359.764C532.402 348.663 542.4 340.638 545.137 334.487C545.703 333.146 544.685 332.042 543.893 330.78Z" fill="#CFB0EA"/>
<path d="M453.713 258.2C452.084 256.859 448.307 254.118 441.815 255.716C434.78 257.431 424.103 258.673 411.911 258.713C399.742 258.673 389.066 257.451 382.031 255.716C375.562 254.138 371.784 256.879 370.133 258.2C367.509 260.329 359.411 265.811 359.411 267.96C359.411 275.472 363.754 298.266 387.889 301.933C399.833 303.747 407.388 294.953 410.419 290.458C410.758 289.965 411.323 289.708 411.911 289.689C412.5 289.728 413.065 289.965 413.404 290.458C416.435 294.973 423.99 303.747 435.934 301.933C460.069 298.286 464.434 275.492 464.434 267.98C464.434 265.811 456.337 260.329 453.713 258.2Z" fill="#EEEEEE"/>
<path d="M359.652 267.979C360.67 273.914 362.66 279.672 366.008 284.66C369.197 289.688 373.699 293.888 379.195 296.293C381.932 297.516 384.918 298.265 387.949 298.738C390.844 299.192 393.491 298.916 396.002 297.969C398.513 297.043 400.842 295.505 402.856 293.553C403.873 292.587 404.801 291.522 405.66 290.418C406.09 289.866 406.497 289.294 406.882 288.702L407.199 288.209C407.583 287.618 408.149 287.085 408.827 286.671C409.998 285.962 411.436 285.671 412.846 285.858C414.256 286.045 415.529 286.696 416.405 287.677L416.744 288.091L416.835 288.209L417.513 289.156C417.943 289.767 418.395 290.358 418.825 290.93C419.707 292.074 420.635 293.139 421.63 294.105C423.62 296.037 425.928 297.476 428.438 298.324C430.949 299.192 433.777 299.369 436.695 298.975C439.68 298.521 442.757 297.772 445.471 296.589C450.99 294.243 455.401 290.043 458.274 284.897C459.789 282.353 460.966 279.593 461.87 276.734C462.753 273.875 463.408 270.937 464.155 267.959L464.607 267.999C464.064 273.973 463.16 280.066 460.513 285.685C457.957 291.305 453.411 296.372 447.235 299.31C444.204 300.828 440.857 301.795 437.418 302.386C433.98 302.958 430.338 302.879 427.013 301.834C423.666 300.828 420.748 298.936 418.373 296.707C417.174 295.584 416.111 294.381 415.115 293.139C414.618 292.508 414.143 291.877 413.668 291.246L412.967 290.299C412.897 290.176 412.799 290.067 412.678 289.978C412.557 289.89 412.417 289.825 412.265 289.787C412.119 289.755 411.967 289.751 411.819 289.775C411.67 289.799 411.53 289.85 411.406 289.925C411.293 290.004 411.18 290.102 411.089 290.201L410.772 290.694C410.32 291.344 409.868 291.995 409.37 292.626C408.375 293.868 407.289 295.091 406.09 296.195C403.715 298.423 400.865 300.335 397.563 301.459C394.283 302.603 390.596 302.82 387.18 302.169C383.765 301.578 380.417 300.572 377.386 299.034C371.256 296.017 366.709 291.049 363.791 285.567C360.883 280.049 359.304 274.07 359.154 267.999H359.652V267.979Z" fill="#B881CF"/>
<path d="M453.711 258.2C451.97 256.977 448.305 254.118 441.813 255.715C434.779 257.431 424.102 258.673 411.91 258.712C399.741 258.673 389.064 257.451 382.03 255.715C375.56 254.138 371.783 256.879 370.132 258.2C367.598 260.27 359.93 265.476 359.455 267.763C360.654 268.019 369.136 260.763 372.009 260.98C374.226 261.138 377.302 267.487 382.618 269.084C387.933 270.681 440.931 269.794 440.931 269.794C440.931 269.794 445.93 266.363 448.645 263.109C450.273 261.157 451.721 260.428 454.051 261.433C456.335 262.439 464.071 269.084 464.388 267.822C464.094 265.594 456.788 260.349 453.711 258.2Z" fill="#B7D5E5"/>
<path d="M315.8 362.189C300.668 354.243 288.069 345.252 276.94 335.827C276.678 335.609 276.512 335.318 276.471 335.005C276.43 334.692 276.516 334.376 276.714 334.112L279.609 330.188C279.73 330.018 279.893 329.874 280.087 329.766C280.28 329.659 280.498 329.59 280.726 329.565C280.954 329.541 281.185 329.561 281.403 329.624C281.62 329.688 281.819 329.793 281.984 329.932C292.615 338.824 307.092 348.604 321.41 356.176C322.247 356.629 322.405 357.635 321.727 358.266L317.746 361.973C317.271 362.426 316.434 362.525 315.8 362.189ZM508.565 362.189C523.698 354.243 536.32 345.252 547.449 335.827C547.992 335.374 548.082 334.644 547.675 334.112L544.78 330.188C544.658 330.018 544.495 329.874 544.302 329.766C544.109 329.659 543.89 329.59 543.662 329.565C543.435 329.541 543.203 329.561 542.986 329.624C542.768 329.688 542.569 329.793 542.404 329.932C531.773 338.824 517.297 348.604 502.978 356.176C502.781 356.282 502.614 356.425 502.488 356.594C502.362 356.763 502.281 356.955 502.251 357.155C502.221 357.355 502.242 357.559 502.313 357.751C502.384 357.943 502.503 358.119 502.662 358.266L506.643 361.973C507.095 362.426 507.932 362.525 508.565 362.189Z" fill="#B881CF"/>
<path d="M442.215 259.205C438.37 260.013 425.839 263.03 412.629 263.03H411.679C398.469 263.03 385.915 260.033 382.092 259.205C378.247 258.396 376.754 259.224 377.501 261.906C380.735 269.123 390.394 279.652 412.177 279.671C433.959 279.652 443.618 269.123 446.853 261.906C447.554 259.205 446.061 258.396 442.215 259.205Z" fill="url(#paint0_linear_2996_1152)"/>
<path d="M311.055 326.474C312.44 315.413 314.785 295.92 313.234 285.191C311.683 274.461 307.621 264.568 299.146 260.654C291.816 257.285 282.676 260.849 277.395 269.183C274.385 273.935 272.668 279.796 271.209 285.599C268.717 295.57 266.335 309.201 265.135 319.464" stroke="#D57700" stroke-width="1.59506" stroke-miterlimit="10"/>
<path d="M304.133 476.791L348.761 457.181L338.402 409.004L340.618 299.212L227.691 285.23V295.629L200.825 299.212L304.133 476.791Z" fill="#F97837"/>
<path d="M191.24 458.874L304.149 476.906L313.75 413.851V317.223L200.823 299.21V395.818L191.24 458.874Z" fill="#FF945E"/>
<path d="M313.752 317.226V306.36L340.617 299.213L227.468 285.971L223.849 294.422L200.824 299.213L313.752 317.226Z" fill="#B15C5F"/>
<path d="M348.761 457.181C347.985 457.181 322.024 435.468 322.024 435.468L304.151 476.908L307.992 410.834L313.808 317.225L321.36 418.39L348.761 457.181Z" fill="#EE7132"/>
<path d="M279.685 324.527C281.069 313.486 295.49 271.072 267.886 265.659C247.021 261.569 237.808 308.442 236.589 318.724" stroke="#FF945D" stroke-width="1.59506" stroke-miterlimit="10"/>
<path d="M276.251 327.603C277.857 321.897 279.537 310.369 279.611 309.863L274.146 308.986C274.127 309.103 272.17 320.865 270.028 326.376L276.251 327.603ZM233.192 320.69C234.799 314.984 236.479 303.456 236.553 302.95L231.087 302.073C231.069 302.19 228.798 314.147 226.896 319.483L233.192 320.69ZM274.349 472.155L258.839 443.821L266.243 368.283L204.259 355.567L237.494 466.352L274.349 472.155Z" fill="#DC5F5F" fill-opacity="0.5"/>
<path d="M225.919 360.749C225.919 360.749 232.898 321.666 209.652 324.256C197.004 325.658 197.521 356.679 197.521 356.679" stroke="#D7578A" stroke-width="1.59506" stroke-miterlimit="10"/>
<path d="M223.355 491.104L257.644 475.973L249.667 438.934L251.366 354.536L164.584 343.787V351.79L143.941 354.536L223.355 491.104Z" fill="#FF7878"/>
<path d="M136.568 477.258L223.351 491.123L230.718 442.653V368.401L143.936 354.536V428.808L136.568 477.258Z" fill="#FF9F9F"/>
<path d="M230.715 368.401L237.658 362.793L251.358 354.536L164.576 343.787L156.692 349.025L143.933 354.536L230.715 368.401Z" fill="#B15C5F"/>
<path d="M164.909 345.792L150.045 353.523L230.328 366.337L246.004 355.821L164.909 345.792ZM164.576 343.787L251.358 354.536L230.715 368.401L143.933 354.536L164.576 343.787Z" fill="#B15C5F"/>
<path d="M201.379 375.857C202.616 371.495 203.89 362.635 203.945 362.265L199.071 361.603C199.052 361.7 197.815 370.619 196.67 374.728L201.379 375.857ZM168.346 370.502C169.583 366.14 170.857 357.28 170.913 356.91L166.094 356.267C166.075 356.364 165.078 365.556 163.933 369.665L168.346 370.502Z" fill="#D7578A"/>
<path d="M204.112 376.055C205.183 367.565 216.151 331.772 195.471 328.754C179.315 326.398 172.354 361.645 171.412 369.532" stroke="#FF9F9F" stroke-width="1.59506" stroke-miterlimit="10"/>
<path d="M257.644 475.973L240.121 460.316L223.355 491.123L230.686 442.946L230.612 368.635L232.68 367.739L239.216 443.277L257.644 475.973Z" fill="#E07070"/>
<path d="M320.138 341.152C324.675 338.238 329.065 336.603 330.205 336.397L335.987 342.202L329.221 422.037C329.221 421.01 328.236 418.831 324.305 418.333C319.39 417.717 304.466 415.19 294.346 399.766C287.565 389.926 285.129 378.341 284.796 369.867C284.685 366.747 286.321 363.92 288.794 362.246C299.639 354.909 316.133 343.726 320.138 341.152Z" fill="url(#paint1_radial_2996_1152)"/>
<path d="M320.138 341.152C324.675 338.238 329.065 336.603 330.205 336.397L335.987 342.202L329.221 422.037C329.221 421.01 328.236 418.831 324.305 418.333C319.39 417.717 304.466 415.19 294.346 399.766C287.565 389.926 285.129 378.341 284.796 369.867C284.685 366.747 286.321 363.92 288.794 362.246C299.639 354.909 316.133 343.726 320.138 341.152Z" fill="url(#paint2_linear_2996_1152)"/>
<path d="M320.138 341.152C324.675 338.238 329.065 336.603 330.205 336.397L335.987 342.202L329.221 422.037C329.221 421.01 328.236 418.831 324.305 418.333C319.39 417.717 304.466 415.19 294.346 399.766C287.565 389.926 285.129 378.341 284.796 369.867C284.685 366.747 286.321 363.92 288.794 362.246C299.639 354.909 316.133 343.726 320.138 341.152Z" fill="url(#paint3_linear_2996_1152)"/>
<g filter="url(#filter0_i_2996_1152)">
<path d="M455.126 341.057C450.588 338.143 446.198 336.516 445.058 336.303L439.276 342.108L446.043 421.951C446.043 420.916 447.027 418.736 450.958 418.239C455.874 417.623 470.798 415.096 480.917 399.672C487.698 389.832 490.134 378.246 490.467 369.78C490.586 366.653 488.942 363.826 486.47 362.151C475.624 354.823 459.131 343.632 455.126 341.057Z" fill="url(#paint4_linear_2996_1152)"/>
</g>
<path d="M455.118 341.056C450.58 338.142 446.19 336.515 445.05 336.302L439.269 342.107L446.035 421.95C446.035 420.915 447.019 418.735 450.95 418.238C455.866 417.622 470.79 415.095 480.91 399.671C487.691 389.831 490.126 378.245 490.459 369.779C490.578 366.652 488.934 363.825 486.462 362.15C475.617 354.822 459.123 343.631 455.118 341.056Z" fill="url(#paint5_radial_2996_1152)"/>
<g filter="url(#filter1_i_2996_1152)">
<path d="M329.165 336.822L329.476 485.033C329.491 489.116 331.926 492.772 335.62 493.87C369.185 502.976 406.895 502.36 440.223 493.831C443.924 492.765 446.367 489.116 446.367 485.033L446.685 336.822C445.183 335.898 436.877 334.666 432.05 335.898C420.598 339.255 400.536 343.053 387.929 343.053C375.322 343.053 355.253 339.255 343.808 335.898C338.974 334.666 330.668 335.898 329.165 336.822Z" fill="url(#paint6_linear_2996_1152)"/>
</g>
<path d="M329.162 336.822L329.473 485.033C329.488 489.115 331.923 492.772 335.617 493.87C369.182 502.975 406.892 502.359 440.22 493.83C443.921 492.764 446.364 489.115 446.364 485.033L446.682 336.822C445.18 335.898 436.874 334.666 432.047 335.898C420.595 339.254 400.533 343.053 387.926 343.053C375.319 343.053 355.25 339.254 343.805 335.898C338.971 334.666 330.665 335.898 329.162 336.822Z" fill="url(#paint7_radial_2996_1152)"/>
<path d="M329.162 336.822L329.473 485.033C329.488 489.115 331.923 492.772 335.617 493.87C369.182 502.975 406.892 502.359 440.22 493.83C443.921 492.764 446.364 489.115 446.364 485.033L446.682 336.822C445.18 335.898 436.874 334.666 432.047 335.898C420.595 339.254 400.533 343.053 387.926 343.053C375.319 343.053 355.25 339.254 343.805 335.898C338.971 334.666 330.665 335.898 329.162 336.822Z" fill="url(#paint8_radial_2996_1152)"/>
<path d="M343.408 335.804L387.811 386.063L429.881 336.514C418.207 339.697 399.774 343.054 387.929 343.054C375.322 343.054 355.253 339.255 343.808 335.898L343.408 335.804Z" fill="url(#paint9_radial_2996_1152)"/>
<path d="M343.408 335.804L387.811 386.063L429.881 336.514C418.207 339.697 399.774 343.054 387.929 343.054C375.322 343.054 355.253 339.255 343.808 335.898L343.408 335.804Z" fill="url(#paint10_radial_2996_1152)"/>
<g filter="url(#filter2_ii_2996_1152)">
<path d="M376.197 378.529C379.972 383.093 383.422 387.271 386.279 390.667C386.485 390.913 386.738 391.11 387.021 391.245C387.303 391.38 387.609 391.45 387.919 391.45C388.229 391.45 388.535 391.38 388.817 391.245C389.1 391.11 389.352 390.913 389.559 390.667C392.424 387.271 395.873 383.085 399.641 378.529C412.019 363.531 427.846 344.783 437.544 335.377C434.612 335.377 431.822 334.485 429.956 334.042C429.368 333.889 428.755 333.882 428.164 334.023C427.573 334.164 427.021 334.449 426.551 334.856C418.674 342.042 409.272 353.494 401.129 363.421C396.243 369.383 391.802 374.793 388.433 378.371C388.295 378.513 388.111 378.592 387.919 378.592C387.727 378.592 387.542 378.513 387.404 378.371C384.036 374.785 379.602 369.383 374.709 363.421C366.565 353.502 357.164 342.035 349.28 334.856C348.81 334.45 348.259 334.166 347.67 334.025C347.081 333.884 346.469 333.89 345.882 334.042C344.016 334.485 341.225 335.385 338.294 335.385C347.999 344.783 363.819 363.531 376.197 378.529Z" fill="url(#paint11_linear_2996_1152)"/>
</g>
<g filter="url(#filter3_f_2996_1152)">
<path d="M442.059 340.406C443.139 340.366 446.226 340.903 449.928 343.367C453.629 345.839 474.372 360.031 484.277 366.815" stroke="#FF8EE2" stroke-width="0.258346" stroke-linecap="round"/>
</g>
<g filter="url(#filter4_f_2996_1152)">
<path d="M359.7 342.754C368.413 345.511 391.903 349.365 416.147 342.754" stroke="url(#paint12_radial_2996_1152)" stroke-width="0.129173" stroke-linecap="round"/>
</g>
<path d="M51.4343 175.12C50.5515 175.12 49.7605 174.977 49.0611 174.69C48.3618 174.404 47.8 173.98 47.3758 173.418C46.963 172.856 46.7452 172.18 46.7223 171.389H49.8522C49.898 171.836 50.0528 172.18 50.3165 172.42C50.5802 172.65 50.9241 172.764 51.3483 172.764C51.784 172.764 52.1279 172.667 52.3802 172.472C52.6324 172.266 52.7585 171.985 52.7585 171.629C52.7585 171.331 52.6553 171.085 52.449 170.89C52.2541 170.695 52.0076 170.534 51.7095 170.408C51.4229 170.282 51.0101 170.139 50.4713 169.978C49.6917 169.738 49.0554 169.497 48.5624 169.256C48.0694 169.015 47.6452 168.66 47.2898 168.19C46.9344 167.72 46.7567 167.106 46.7567 166.35C46.7567 165.226 47.1637 164.349 47.9777 163.719C48.7917 163.077 49.8522 162.756 51.1592 162.756C52.4891 162.756 53.561 163.077 54.375 163.719C55.189 164.349 55.6247 165.232 55.682 166.367H52.5005C52.4776 165.977 52.3343 165.673 52.0706 165.456C51.8069 165.226 51.4687 165.112 51.056 165.112C50.7006 165.112 50.414 165.209 50.1961 165.404C49.9783 165.587 49.8694 165.857 49.8694 166.212C49.8694 166.602 50.0528 166.906 50.4197 167.124C50.7866 167.342 51.3598 167.577 52.1394 167.829C52.919 168.092 53.5496 168.345 54.0311 168.585C54.5241 168.826 54.9483 169.176 55.3037 169.634C55.6591 170.093 55.8368 170.683 55.8368 171.406C55.8368 172.094 55.6591 172.719 55.3037 173.28C54.9598 173.842 54.4553 174.289 53.7903 174.622C53.1254 174.954 52.34 175.12 51.4343 175.12ZM68.1025 162.928V175H65.1617V170.03H60.5873V175H57.6465V162.928H60.5873V167.657H65.1617V162.928H68.1025ZM75.9348 175.12C74.7998 175.12 73.7565 174.857 72.805 174.329C71.8648 173.802 71.1139 173.068 70.5521 172.128C70.0018 171.176 69.7267 170.11 69.7267 168.929C69.7267 167.749 70.0018 166.688 70.5521 165.748C71.1139 164.808 71.8648 164.074 72.805 163.547C73.7565 163.019 74.7998 162.756 75.9348 162.756C77.0699 162.756 78.1074 163.019 79.0475 163.547C79.9991 164.074 80.7443 164.808 81.2832 165.748C81.8335 166.688 82.1086 167.749 82.1086 168.929C82.1086 170.11 81.8335 171.176 81.2832 172.128C80.7329 173.068 79.9877 173.802 79.0475 174.329C78.1074 174.857 77.0699 175.12 75.9348 175.12ZM75.9348 172.438C76.8979 172.438 77.666 172.117 78.2393 171.475C78.824 170.833 79.1163 169.984 79.1163 168.929C79.1163 167.863 78.824 167.015 78.2393 166.384C77.666 165.742 76.8979 165.421 75.9348 165.421C74.9603 165.421 74.1807 165.736 73.596 166.367C73.0228 166.998 72.7362 167.852 72.7362 168.929C72.7362 169.996 73.0228 170.85 73.596 171.492C74.1807 172.122 74.9603 172.438 75.9348 172.438ZM92.9452 166.814C92.9452 167.513 92.7847 168.156 92.4637 168.74C92.1426 169.313 91.6497 169.778 90.9847 170.133C90.3197 170.489 89.4943 170.666 88.5083 170.666H86.6854V175H83.7447V162.928H88.5083C89.4713 162.928 90.2853 163.094 90.9503 163.426C91.6153 163.759 92.114 164.217 92.4465 164.802C92.7789 165.387 92.9452 166.057 92.9452 166.814ZM88.2847 168.327C88.8465 168.327 89.265 168.196 89.5401 167.932C89.8153 167.668 89.9529 167.296 89.9529 166.814C89.9529 166.333 89.8153 165.96 89.5401 165.696C89.265 165.433 88.8465 165.301 88.2847 165.301H86.6854V168.327H88.2847ZM102.489 175.12C101.606 175.12 100.815 174.977 100.115 174.69C99.416 174.404 98.8542 173.98 98.43 173.418C98.0173 172.856 97.7995 172.18 97.7765 171.389H100.906C100.952 171.836 101.107 172.18 101.371 172.42C101.634 172.65 101.978 172.764 102.403 172.764C102.838 172.764 103.182 172.667 103.434 172.472C103.687 172.266 103.813 171.985 103.813 171.629C103.813 171.331 103.71 171.085 103.503 170.89C103.308 170.695 103.062 170.534 102.764 170.408C102.477 170.282 102.064 170.139 101.526 169.978C100.746 169.738 100.11 169.497 99.6166 169.256C99.1236 169.015 98.6994 168.66 98.344 168.19C97.9886 167.72 97.8109 167.106 97.8109 166.35C97.8109 165.226 98.2179 164.349 99.0319 163.719C99.8459 163.077 100.906 162.756 102.213 162.756C103.543 162.756 104.615 163.077 105.429 163.719C106.243 164.349 106.679 165.232 106.736 166.367H103.555C103.532 165.977 103.389 165.673 103.125 165.456C102.861 165.226 102.523 165.112 102.11 165.112C101.755 165.112 101.468 165.209 101.25 165.404C101.033 165.587 100.924 165.857 100.924 166.212C100.924 166.602 101.107 166.906 101.474 167.124C101.841 167.342 102.414 167.577 103.194 167.829C103.973 168.092 104.604 168.345 105.085 168.585C105.578 168.826 106.003 169.176 106.358 169.634C106.713 170.093 106.891 170.683 106.891 171.406C106.891 172.094 106.713 172.719 106.358 173.28C106.014 173.842 105.51 174.289 104.845 174.622C104.18 174.954 103.394 175.12 102.489 175.12ZM122.373 162.928V175H119.432V167.76L116.732 175H114.359L111.642 167.743V175H108.701V162.928H112.175L115.562 171.285L118.916 162.928H122.373ZM132.002 172.868H127.497L126.775 175H123.696L128.064 162.928H131.469L135.837 175H132.725L132.002 172.868ZM131.246 170.598L129.75 166.178L128.271 170.598H131.246ZM143.323 175L140.813 170.443H140.108V175H137.167V162.928H142.102C143.054 162.928 143.862 163.094 144.527 163.426C145.204 163.759 145.708 164.217 146.041 164.802C146.373 165.375 146.539 166.017 146.539 166.728C146.539 167.531 146.31 168.247 145.851 168.878C145.404 169.508 144.739 169.955 143.857 170.219L146.643 175H143.323ZM140.108 168.362H141.931C142.469 168.362 142.871 168.23 143.134 167.966C143.409 167.703 143.547 167.33 143.547 166.849C143.547 166.39 143.409 166.029 143.134 165.765C142.871 165.501 142.469 165.37 141.931 165.37H140.108V168.362ZM157.07 162.928V165.284H153.871V175H150.931V165.284H147.732V162.928H157.07Z" fill="#F97837"/>
<path d="M79.0006 343.517C79.8865 343.137 80.7406 343.072 81.5629 343.322C82.3884 343.551 83.0668 344.025 83.598 344.745C84.408 345.843 84.6692 346.962 84.3818 348.104C84.0974 349.225 83.2766 350.287 81.9195 351.288L75.3524 356.135L66.1031 343.603L72.4933 338.887C73.7678 337.946 74.9755 337.483 76.1165 337.498C77.2575 337.512 78.2199 338.051 79.0037 339.113C79.5437 339.845 79.8062 340.608 79.7913 341.403C79.7795 342.177 79.5159 342.882 79.0006 343.517ZM73.6384 345.588L75.1607 344.465C75.5148 344.203 75.7221 343.941 75.7828 343.677C75.8553 343.405 75.7827 343.121 75.565 342.826C75.3385 342.52 75.0846 342.361 74.803 342.35C74.5246 342.318 74.2084 342.433 73.8544 342.694L72.332 343.818L73.6384 345.588ZM78.7445 348.765C79.0985 348.503 79.3102 348.247 79.3797 347.995C79.4522 347.723 79.3752 347.433 79.1487 347.127C78.7046 346.525 78.1344 346.481 77.4381 346.995L75.6503 348.314L76.9567 350.084L78.7445 348.765ZM94.0914 339.38L89.9139 342.463L90.6922 344.814L86.5678 347.858L81.9031 331.942L86.4346 328.598L100.251 337.76L96.1087 340.817L94.0914 339.38ZM90.9538 337.129L87.2473 334.478L88.6881 338.801L90.9538 337.129ZM107.445 332.45L101.773 329.691L101.755 329.704L105.073 334.2L101.144 337.101L91.8944 324.568L97.7358 320.257C98.7506 319.508 99.753 319.051 100.743 318.885C101.724 318.708 102.622 318.802 103.438 319.166C104.257 319.509 104.953 320.071 105.528 320.85C106.147 321.687 106.459 322.605 106.466 323.602C106.485 324.591 106.162 325.549 105.498 326.477L111.764 329.262L107.445 332.45ZM99.8216 327.085L101.379 325.935C101.757 325.656 101.979 325.365 102.046 325.06C102.104 324.744 101.998 324.403 101.728 324.037C101.484 323.706 101.193 323.521 100.853 323.48C100.524 323.431 100.177 323.541 99.8116 323.811L98.2539 324.96L99.8216 327.085ZM114.597 314.43C114.26 314.296 113.903 314.268 113.524 314.347C113.136 314.415 112.741 314.596 112.34 314.893C111.585 315.45 111.184 316.129 111.136 316.929C111.081 317.718 111.366 318.537 111.993 319.387C112.716 320.366 113.486 320.928 114.303 321.072C115.121 321.216 116.007 320.936 116.963 320.23C117.872 319.56 118.334 318.654 118.348 317.513L115.215 319.825L113.164 317.046L119.554 312.33L122.454 316.26C122.6 317.593 122.442 318.948 121.983 320.326C121.515 321.693 120.549 322.916 119.086 323.996C117.788 324.954 116.459 325.524 115.099 325.707C113.743 325.87 112.448 325.659 111.214 325.075C109.993 324.481 108.925 323.565 108.01 322.326C107.096 321.087 106.535 319.796 106.329 318.454C106.134 317.103 106.318 315.81 106.882 314.573C107.437 313.325 108.358 312.226 109.644 311.277C111.285 310.066 112.91 309.477 114.52 309.51C116.142 309.535 117.548 310.156 118.739 311.373L114.597 314.43ZM132.951 310.7L128.774 313.783L129.552 316.135L125.428 319.179L120.763 303.263L125.294 299.918L139.111 309.08L134.968 312.137L132.951 310.7ZM129.814 308.45L126.107 305.799L127.548 310.122L129.814 308.45ZM134.684 292.989L143.933 305.521L140.003 308.421L130.754 295.889L134.684 292.989ZM157.727 295.341L153.797 298.241L144.987 295.009L149.638 301.311L145.708 304.211L136.459 291.679L140.388 288.779L149.277 292.116L144.548 285.708L148.478 282.808L157.727 295.341ZM154.183 278.598L163.432 291.13L159.502 294.03L150.253 281.498L154.183 278.598ZM177.226 280.95L173.296 283.85L164.486 280.619L169.137 286.92L165.207 289.82L155.958 277.288L159.887 274.388L168.776 277.726L164.047 271.318L167.977 268.418L177.226 280.95ZM180.596 265.721C180.26 265.587 179.902 265.559 179.523 265.638C179.135 265.706 178.741 265.887 178.34 266.183C177.584 266.741 177.183 267.42 177.136 268.22C177.08 269.009 177.365 269.828 177.992 270.678C178.715 271.657 179.485 272.219 180.303 272.363C181.12 272.507 182.007 272.227 182.962 271.521C183.871 270.851 184.333 269.945 184.347 268.804L181.214 271.116L179.163 268.337L185.553 263.621L188.454 267.551C188.599 268.884 188.442 270.239 187.982 271.617C187.514 272.983 186.548 274.207 185.085 275.287C183.787 276.245 182.458 276.815 181.099 276.998C179.742 277.161 178.447 276.95 177.214 276.365C175.992 275.772 174.924 274.856 174.01 273.617C173.095 272.378 172.535 271.087 172.328 269.745C172.133 268.394 172.317 267.101 172.881 265.864C173.437 264.616 174.357 263.517 175.644 262.568C177.284 261.357 178.909 260.768 180.519 260.801C182.141 260.826 183.548 261.447 184.738 262.664L180.596 265.721Z" fill="white"/>
</g>
<defs>
<filter id="filter0_i_2996_1152" x="439.276" y="336.045" width="51.3264" height="85.9058" filterUnits="userSpaceOnUse" color-interpolation-filters="sRGB">
<feFlood flood-opacity="0" result="BackgroundImageFix"/>
<feBlend mode="normal" in="SourceGraphic" in2="BackgroundImageFix" result="shape"/>
<feColorMatrix in="SourceAlpha" type="matrix" values="0 0 0 0 0 0 0 0 0 0 0 0 0 0 0 0 0 0 127 0" result="hardAlpha"/>
<feOffset dx="0.129173" dy="-0.258346"/>
<feGaussianBlur stdDeviation="0.258346"/>
<feComposite in2="hardAlpha" operator="arithmetic" k2="-1" k3="1"/>
<feColorMatrix type="matrix" values="0 0 0 0 0.960784 0 0 0 0 0.305882 0 0 0 0 0.764706 0 0 0 1 0"/>
<feBlend mode="normal" in2="shape" result="effect1_innerShadow_2996_1152"/>
</filter>
<filter id="filter1_i_2996_1152" x="329.165" y="335.122" width="117.779" height="165.344" filterUnits="userSpaceOnUse" color-interpolation-filters="sRGB">
<feFlood flood-opacity="0" result="BackgroundImageFix"/>
<feBlend mode="normal" in="SourceGraphic" in2="BackgroundImageFix" result="shape"/>
<feColorMatrix in="SourceAlpha" type="matrix" values="0 0 0 0 0 0 0 0 0 0 0 0 0 0 0 0 0 0 127 0" result="hardAlpha"/>
<feOffset dx="0.258346" dy="-0.258346"/>
<feGaussianBlur stdDeviation="0.387519"/>
<feComposite in2="hardAlpha" operator="arithmetic" k2="-1" k3="1"/>
<feColorMatrix type="matrix" values="0 0 0 0 0.909804 0 0 0 0 0.223529 0 0 0 0 0.717647 0 0 0 1 0"/>
<feBlend mode="normal" in2="shape" result="effect1_innerShadow_2996_1152"/>
</filter>
<filter id="filter2_ii_2996_1152" x="338.242" y="333.87" width="99.3533" height="57.6312" filterUnits="userSpaceOnUse" color-interpolation-filters="sRGB">
<feFlood flood-opacity="0" result="BackgroundImageFix"/>
<feBlend mode="normal" in="SourceGraphic" in2="BackgroundImageFix" result="shape"/>
<feColorMatrix in="SourceAlpha" type="matrix" values="0 0 0 0 0 0 0 0 0 0 0 0 0 0 0 0 0 0 127 0" result="hardAlpha"/>
<feOffset dx="-0.0516692" dy="0.0516692"/>
<feGaussianBlur stdDeviation="0.0387519"/>
<feComposite in2="hardAlpha" operator="arithmetic" k2="-1" k3="1"/>
<feColorMatrix type="matrix" values="0 0 0 0 0.913725 0 0 0 0 0.411765 0 0 0 0 0.662745 0 0 0 1 0"/>
<feBlend mode="normal" in2="shape" result="effect1_innerShadow_2996_1152"/>
<feColorMatrix in="SourceAlpha" type="matrix" values="0 0 0 0 0 0 0 0 0 0 0 0 0 0 0 0 0 0 127 0" result="hardAlpha"/>
<feOffset dx="0.0516692" dy="-0.0516692"/>
<feGaussianBlur stdDeviation="0.0387519"/>
<feComposite in2="hardAlpha" operator="arithmetic" k2="-1" k3="1"/>
<feColorMatrix type="matrix" values="0 0 0 0 0.898039 0 0 0 0 0.247059 0 0 0 0 0.615686 0 0 0 1 0"/>
<feBlend mode="normal" in2="effect1_innerShadow_2996_1152" result="effect2_innerShadow_2996_1152"/>
</filter>
<filter id="filter3_f_2996_1152" x="441.542" y="339.887" width="43.2516" height="27.4445" filterUnits="userSpaceOnUse" color-interpolation-filters="sRGB">
<feFlood flood-opacity="0" result="BackgroundImageFix"/>
<feBlend mode="normal" in="SourceGraphic" in2="BackgroundImageFix" result="shape"/>
<feGaussianBlur stdDeviation="0.19376" result="effect1_foregroundBlur_2996_1152"/>
</filter>
<filter id="filter4_f_2996_1152" x="359.507" y="342.561" width="56.8345" height="4.03764" filterUnits="userSpaceOnUse" color-interpolation-filters="sRGB">
<feFlood flood-opacity="0" result="BackgroundImageFix"/>
<feBlend mode="normal" in="SourceGraphic" in2="BackgroundImageFix" result="shape"/>
<feGaussianBlur stdDeviation="0.0645865" result="effect1_foregroundBlur_2996_1152"/>
</filter>
<linearGradient id="paint0_linear_2996_1152" x1="412.138" y1="258.528" x2="412.138" y2="285.133" gradientUnits="userSpaceOnUse">
<stop offset="0.181" stop-color="#B881CF"/>
<stop offset="1" stop-color="#754CA5"/>
</linearGradient>
<radialGradient id="paint1_radial_2996_1152" cx="0" cy="0" r="1" gradientUnits="userSpaceOnUse" gradientTransform="translate(338.378 366.234) rotate(139.682) scale(60.0252 79.2375)">
<stop offset="0.335" stop-color="#F96ACF"/>
<stop offset="1" stop-color="#E44CBA"/>
</radialGradient>
<linearGradient id="paint2_linear_2996_1152" x1="333.47" y1="427.557" x2="313.058" y2="421.093" gradientUnits="userSpaceOnUse">
<stop stop-color="#DE47B0"/>
<stop offset="1" stop-color="#DE47B0" stop-opacity="0"/>
</linearGradient>
<linearGradient id="paint3_linear_2996_1152" x1="298.395" y1="352.255" x2="305.635" y2="360.682" gradientUnits="userSpaceOnUse">
<stop offset="0.082" stop-color="#E665B5"/>
<stop offset="1" stop-color="#E665B5" stop-opacity="0"/>
</linearGradient>
<linearGradient id="paint4_linear_2996_1152" x1="448.537" y1="341.642" x2="471.699" y2="413.372" gradientUnits="userSpaceOnUse">
<stop offset="0.457" stop-color="#FF6ED9"/>
<stop offset="1" stop-color="#FA5BCA"/>
</linearGradient>
<radialGradient id="paint5_radial_2996_1152" cx="0" cy="0" r="1" gradientUnits="userSpaceOnUse" gradientTransform="translate(447.604 370.024) rotate(90) scale(34.3043 5.32081)">
<stop stop-color="#FF81D9"/>
<stop offset="1" stop-color="#FF81D9" stop-opacity="0"/>
</radialGradient>
<linearGradient id="paint6_linear_2996_1152" x1="387.929" y1="384.341" x2="387.929" y2="500.465" gradientUnits="userSpaceOnUse">
<stop stop-color="#F972CA"/>
<stop offset="1" stop-color="#F949C4"/>
</linearGradient>
<radialGradient id="paint7_radial_2996_1152" cx="0" cy="0" r="1" gradientUnits="userSpaceOnUse" gradientTransform="translate(326.852 344.356) rotate(90) scale(88.8459 40.0697)">
<stop offset="0.355" stop-color="#F76AC8"/>
<stop offset="1" stop-color="#F360C4" stop-opacity="0"/>
</radialGradient>
<radialGradient id="paint8_radial_2996_1152" cx="0" cy="0" r="1" gradientUnits="userSpaceOnUse" gradientTransform="translate(446.682 381.624) rotate(90) scale(81.1957 10.4116)">
<stop offset="0.077" stop-color="#FF83DA"/>
<stop offset="1" stop-color="#FF83DA" stop-opacity="0"/>
</radialGradient>
<radialGradient id="paint9_radial_2996_1152" cx="0" cy="0" r="1" gradientUnits="userSpaceOnUse" gradientTransform="translate(386.648 340.163) rotate(90) scale(42.9422 63.08)">
<stop offset="0.247" stop-color="#CE59A3"/>
<stop offset="1" stop-color="#B8387F"/>
</radialGradient>
<radialGradient id="paint10_radial_2996_1152" cx="0" cy="0" r="1" gradientUnits="userSpaceOnUse" gradientTransform="translate(412.22 360.928) rotate(145.15) scale(43.9763 13.5738)">
<stop stop-color="#BA3A82"/>
<stop offset="1" stop-color="#BA3A82" stop-opacity="0"/>
</radialGradient>
<linearGradient id="paint11_linear_2996_1152" x1="432.569" y1="337.691" x2="378.44" y2="384.302" gradientUnits="userSpaceOnUse">
<stop stop-color="#DD53A4"/>
<stop offset="1" stop-color="#E24B9B"/>
</linearGradient>
<radialGradient id="paint12_radial_2996_1152" cx="0" cy="0" r="1" gradientUnits="userSpaceOnUse" gradientTransform="translate(387.927 344.579) rotate(90) scale(7.30541 37.2456)">
<stop stop-color="#D463A8"/>
<stop offset="1" stop-color="#D463A8" stop-opacity="0"/>
</radialGradient>
<clipPath id="clip0_2996_1152">
<rect width="449.669" height="449.669" fill="white"/>
</clipPath>
</defs>
</svg>
