<svg width="450" height="450" viewBox="0 0 450 450" fill="none" xmlns="http://www.w3.org/2000/svg">
<g clip-path="url(#clip0_3033_439)">
<rect width="450" height="450" fill="white"/>
<path d="M124.489 227.807C-20.9589 334.814 -76.828 75.2819 -86.5815 -67.8598L787.24 -288.604C797.453 -248.176 860.389 -159.569 799.897 -52.882C724.282 80.4763 710.975 285.226 490.221 264.821C269.467 244.417 306.299 94.0488 124.489 227.807Z" fill="#FFE0B8"/>
<path d="M103.783 366.55C-35.7643 496.916 -114.615 146.41 -136.597 -45.1387L737.225 -265.882C751.05 -211.156 822.763 -87.806 769.947 49.2685C703.927 220.612 707.534 492.313 480.383 446.586C253.232 400.858 278.216 203.592 103.783 366.55Z" fill="#FFC882" fill-opacity="0.23"/>
<path d="M80.965 63.1178C83.7917 63.7803 85.9779 65.1494 87.5238 67.2253C89.1138 69.2569 89.9088 71.6198 89.9088 74.314C89.9088 78.4215 88.5396 81.6015 85.8013 83.854C83.1071 86.0623 79.2204 87.1665 74.1413 87.1665H49.5625V40.2615H73.4788C78.2488 40.2615 82.0029 41.2994 84.7413 43.3753C87.4796 45.4511 88.8488 48.4765 88.8488 52.4515C88.8488 55.1898 88.12 57.5086 86.6625 59.4078C85.2492 61.2628 83.35 62.4994 80.965 63.1178ZM64.27 58.5465H69.9675C71.2925 58.5465 72.2642 58.2815 72.8825 57.7515C73.545 57.2215 73.8763 56.4044 73.8763 55.3003C73.8763 54.1519 73.545 53.3128 72.8825 52.7828C72.2642 52.2086 71.2925 51.9215 69.9675 51.9215H64.27V58.5465ZM70.9613 75.374C72.2863 75.374 73.2579 75.1311 73.8763 74.6453C74.5388 74.1153 74.87 73.2761 74.87 72.1278C74.87 69.8753 73.5671 68.749 70.9613 68.749H64.27V75.374H70.9613ZM109.558 51.9878V57.7515H124.133V68.8153H109.558V75.4403H126.121V87.1665H94.8506V40.2615H126.121V51.9878H109.558ZM150.015 87.6303C144.405 87.6303 139.768 86.3273 136.102 83.7215C132.48 81.0715 130.515 77.2069 130.206 72.1278H145.841C146.062 74.8219 147.254 76.169 149.418 76.169C150.213 76.169 150.876 75.9923 151.406 75.639C151.98 75.2415 152.267 74.6453 152.267 73.8503C152.267 72.7461 151.671 71.8628 150.478 71.2003C149.286 70.4936 147.431 69.6986 144.913 68.8153C141.91 67.7553 139.415 66.7173 137.427 65.7015C135.484 64.6857 133.805 63.2061 132.392 61.2628C130.979 59.3194 130.294 56.824 130.338 53.7765C130.338 50.729 131.111 48.1453 132.657 46.0253C134.247 43.8611 136.389 42.2269 139.083 41.1228C141.822 40.0186 144.891 39.4665 148.292 39.4665C154.034 39.4665 158.583 40.7915 161.94 43.4415C165.34 46.0915 167.129 49.8236 167.306 54.6378H151.472C151.428 53.3128 151.097 52.3632 150.478 51.789C149.86 51.2148 149.109 50.9278 148.226 50.9278C147.607 50.9278 147.1 51.1486 146.702 51.5903C146.305 51.9878 146.106 52.5619 146.106 53.3128C146.106 54.3728 146.68 55.2561 147.828 55.9628C149.021 56.6253 150.898 57.4423 153.46 58.414C156.419 59.5182 158.848 60.5782 160.747 61.594C162.69 62.6098 164.369 64.0232 165.782 65.834C167.195 67.6448 167.902 69.9194 167.902 72.6578C167.902 75.5286 167.195 78.1123 165.782 80.409C164.369 82.6615 162.315 84.4282 159.621 85.709C156.927 86.9898 153.725 87.6303 150.015 87.6303ZM209.905 40.2615V51.9215H197.45V87.1665H182.742V51.9215H170.42V40.2615H209.905Z" fill="#F97837"/>
<path d="M65.87 145.587C60.79 145.587 56.59 144.407 53.27 142.047C49.99 139.647 48.21 136.147 47.93 131.547H62.09C62.29 133.987 63.37 135.207 65.33 135.207C66.05 135.207 66.65 135.047 67.13 134.727C67.65 134.367 67.91 133.827 67.91 133.107C67.91 132.107 67.37 131.307 66.29 130.707C65.21 130.067 63.53 129.347 61.25 128.547C58.53 127.587 56.27 126.647 54.47 125.727C52.71 124.807 51.19 123.467 49.91 121.707C48.63 119.947 48.01 117.687 48.05 114.927C48.05 112.167 48.75 109.827 50.15 107.907C51.59 105.947 53.53 104.467 55.97 103.467C58.45 102.467 61.23 101.967 64.31 101.967C69.51 101.967 73.63 103.167 76.67 105.567C79.75 107.967 81.37 111.347 81.53 115.707H67.19C67.15 114.507 66.85 113.647 66.29 113.127C65.73 112.607 65.05 112.347 64.25 112.347C63.69 112.347 63.23 112.547 62.87 112.947C62.51 113.307 62.33 113.827 62.33 114.507C62.33 115.467 62.85 116.267 63.89 116.907C64.97 117.507 66.67 118.247 68.99 119.127C71.67 120.127 73.87 121.087 75.59 122.007C77.35 122.927 78.87 124.207 80.15 125.847C81.43 127.487 82.07 129.547 82.07 132.027C82.07 134.627 81.43 136.967 80.15 139.047C78.87 141.087 77.01 142.687 74.57 143.847C72.13 145.007 69.23 145.587 65.87 145.587ZM120.11 102.687V113.247H108.83V145.167H95.51V113.247H84.35V102.687H120.11ZM144.423 145.587C140.423 145.587 136.743 144.647 133.383 142.767C130.063 140.887 127.423 138.287 125.463 134.967C123.503 131.647 122.523 127.907 122.523 123.747C122.523 119.587 123.503 115.847 125.463 112.527C127.423 109.207 130.063 106.627 133.383 104.787C136.743 102.907 140.423 101.967 144.423 101.967C148.423 101.967 152.083 102.907 155.403 104.787C158.723 106.627 161.343 109.207 163.263 112.527C165.223 115.847 166.203 119.587 166.203 123.747C166.203 127.907 165.223 131.647 163.263 134.967C161.343 138.287 158.703 140.887 155.343 142.767C152.023 144.647 148.383 145.587 144.423 145.587ZM144.423 133.167C147.063 133.167 149.103 132.327 150.543 130.647C151.983 128.927 152.703 126.627 152.703 123.747C152.703 120.827 151.983 118.527 150.543 116.847C149.103 115.127 147.063 114.267 144.423 114.267C141.743 114.267 139.683 115.127 138.243 116.847C136.803 118.527 136.083 120.827 136.083 123.747C136.083 126.627 136.803 128.927 138.243 130.647C139.683 132.327 141.743 133.167 144.423 133.167ZM192.368 145.167L184.388 129.927H184.328V145.167H171.008V102.687H190.808C194.248 102.687 197.188 103.307 199.628 104.547C202.068 105.747 203.888 107.407 205.088 109.527C206.328 111.607 206.948 113.967 206.948 116.607C206.948 119.447 206.148 121.967 204.548 124.167C202.988 126.367 200.728 127.947 197.768 128.907L207.008 145.167H192.368ZM184.328 121.047H189.608C190.888 121.047 191.848 120.767 192.488 120.207C193.128 119.607 193.448 118.687 193.448 117.447C193.448 116.327 193.108 115.447 192.428 114.807C191.788 114.167 190.848 113.847 189.608 113.847H184.328V121.047ZM224.523 113.307V118.527H237.723V128.547H224.523V134.547H239.523V145.167H211.203V102.687H239.523V113.307H224.523ZM261.163 145.587C256.083 145.587 251.883 144.407 248.563 142.047C245.283 139.647 243.503 136.147 243.223 131.547H257.383C257.583 133.987 258.663 135.207 260.623 135.207C261.343 135.207 261.943 135.047 262.423 134.727C262.943 134.367 263.203 133.827 263.203 133.107C263.203 132.107 262.663 131.307 261.583 130.707C260.503 130.067 258.823 129.347 256.543 128.547C253.823 127.587 251.563 126.647 249.763 125.727C248.003 124.807 246.483 123.467 245.203 121.707C243.923 119.947 243.303 117.687 243.343 114.927C243.343 112.167 244.043 109.827 245.443 107.907C246.883 105.947 248.823 104.467 251.263 103.467C253.743 102.467 256.523 101.967 259.603 101.967C264.803 101.967 268.923 103.167 271.963 105.567C275.043 107.967 276.663 111.347 276.823 115.707H262.483C262.443 114.507 262.143 113.647 261.583 113.127C261.023 112.607 260.343 112.347 259.543 112.347C258.983 112.347 258.523 112.547 258.163 112.947C257.803 113.307 257.623 113.827 257.623 114.507C257.623 115.467 258.143 116.267 259.183 116.907C260.263 117.507 261.963 118.247 264.283 119.127C266.963 120.127 269.163 121.087 270.883 122.007C272.643 122.927 274.163 124.207 275.443 125.847C276.723 127.487 277.363 129.547 277.363 132.027C277.363 134.627 276.723 136.967 275.443 139.047C274.163 141.087 272.303 142.687 269.863 143.847C267.423 145.007 264.523 145.587 261.163 145.587Z" fill="#F97837"/>
<path d="M259.332 321.277H471.335V427.278H259.332V321.277Z" fill="#D6CBBE"/>
<path d="M259.332 427.279H471.335V449.595H259.332V427.279Z" fill="#AAA5A0"/>
<path d="M382.072 349.172H449.021V449.595H382.072V349.172Z" fill="#A06113"/>
<path d="M281.646 349.172H359.753V410.542H281.646V349.172Z" fill="white"/>
<path d="M287.227 354.751H354.175V404.963H287.227V354.751Z" fill="#FFDD55"/>
<path d="M435.069 402.173C433.395 402.173 432.279 403.289 432.279 404.962V416.12C432.279 417.794 433.395 418.91 435.069 418.91C436.743 418.91 437.858 417.794 437.858 416.12V404.962C437.858 403.289 436.743 402.173 435.069 402.173Z" fill="#90A4AE"/>
<path d="M365.337 338.014C374.58 338.014 382.074 330.521 382.074 321.277C382.074 312.033 374.58 304.54 365.337 304.54C356.093 304.54 348.6 312.033 348.6 321.277C348.6 330.521 356.093 338.014 365.337 338.014Z" fill="#558B2F"/>
<path d="M432.28 338.014C441.524 338.014 449.017 330.521 449.017 321.277C449.017 312.033 441.524 304.54 432.28 304.54C423.036 304.54 415.543 312.033 415.543 321.277C415.543 330.521 423.036 338.014 432.28 338.014Z" fill="#558B2F"/>
<path d="M298.384 338.014C307.627 338.014 315.121 330.521 315.121 321.277C315.121 312.033 307.627 304.54 298.384 304.54C289.14 304.54 281.646 312.033 281.646 321.277C281.646 330.521 289.14 338.014 298.384 338.014Z" fill="#558B2F"/>
<path d="M454.595 248.75H276.066C269.929 248.75 264.908 253.771 264.908 259.908V276.645H465.753V259.908C465.753 253.771 460.732 248.75 454.595 248.75ZM348.594 276.645H382.068V321.277H348.594V276.645ZM437.858 276.645H409.963L415.542 321.277H449.016L437.858 276.645ZM292.803 276.645H320.698L315.119 321.277H281.645L292.803 276.645Z" fill="#FB8C00"/>
<path d="M398.803 338.014C408.047 338.014 415.541 330.521 415.541 321.277C415.541 312.033 408.047 304.54 398.803 304.54C389.56 304.54 382.066 312.033 382.066 321.277C382.066 330.521 389.56 338.014 398.803 338.014Z" fill="#FFA000"/>
<path d="M482.488 321.277C482.488 330.761 475.235 338.014 465.751 338.014C456.266 338.014 449.014 330.761 449.014 321.277C449.014 311.793 456.266 304.54 465.751 304.54L482.488 321.277Z" fill="#FFA000"/>
<path d="M331.858 338.014C341.102 338.014 348.595 330.521 348.595 321.277C348.595 312.033 341.102 304.54 331.858 304.54C322.615 304.54 315.121 312.033 315.121 321.277C315.121 330.521 322.615 338.014 331.858 338.014Z" fill="#FFA000"/>
<path d="M248.168 321.277C248.168 330.761 255.421 338.014 264.905 338.014C274.389 338.014 281.642 330.761 281.642 321.277C281.642 311.793 274.389 304.54 264.905 304.54L248.168 321.277Z" fill="#FFA000"/>
<path d="M409.96 276.645H382.065V321.277H415.539L409.96 276.645ZM465.75 276.645H437.855L449.013 321.277H482.487L465.75 276.645ZM320.695 276.645H348.59V321.277H315.116L320.695 276.645ZM264.905 276.645H292.8L281.642 321.277H248.168L264.905 276.645Z" fill="#FFC107"/>
<ellipse cx="344.599" cy="455.423" rx="192.935" ry="6.24384" fill="#D9D9D9"/>
<path d="M302.869 333.437H248.217V365.797H302.869V333.437Z" fill="#2F2E41"/>
<path d="M194.072 338.656H165.895V328.83C165.895 325.093 167.379 321.51 170.021 318.868C172.663 316.226 176.247 314.741 179.983 314.741C183.72 314.741 187.303 316.226 189.946 318.868C192.588 321.51 194.072 325.093 194.072 328.83V338.656ZM166.518 338.032H193.448V328.83C193.448 325.259 192.03 321.834 189.504 319.309C186.979 316.784 183.554 315.365 179.983 315.365C176.412 315.365 172.987 316.784 170.462 319.309C167.937 321.834 166.518 325.259 166.518 328.83V338.032Z" fill="#3F3D56"/>
<path d="M208.005 337.304V333.464L136.346 335.384L134.078 432.65L144.683 445.75L208.005 337.304Z" fill="#D24600"/>
<path d="M220.689 335.952L143.02 337.719L144.683 445.75L219.638 437.671L220.689 335.952Z" fill="#E76063"/>
<path d="M290.126 375.146L251.167 371.555C238.95 380.46 232.092 396.454 233.5 412.956C235.409 435.331 234.763 466.122 219.447 479.499C219.447 479.499 261.191 512.446 298.272 481.189C298.272 481.189 285.592 447.22 294.298 433.655C303.003 420.09 306.144 381.977 290.126 375.146Z" fill="#FFD2D2"/>
<path d="M174.205 319.858C174.086 320.981 174.214 322.117 174.581 323.185C174.948 324.253 175.545 325.228 176.329 326.04C177.113 326.853 178.066 327.484 179.121 327.888C180.175 328.292 181.305 328.461 182.432 328.381L233.872 376.387L243.091 362.343L189.628 319.571C189.369 317.687 188.428 315.964 186.983 314.728C185.539 313.492 183.69 312.829 181.789 312.864C179.888 312.9 178.066 313.631 176.669 314.92C175.271 316.209 174.394 317.966 174.205 319.858Z" fill="#FFB6B6"/>
<path d="M224.263 368.971L236.466 356.436C236.813 356.079 237.233 355.801 237.698 355.622C238.162 355.442 238.659 355.365 239.156 355.394C239.653 355.424 240.138 355.561 240.577 355.795C241.016 356.029 241.4 356.355 241.702 356.751L252.281 370.617C254.096 372.404 255.128 374.837 255.151 377.384C255.174 379.93 254.186 382.382 252.405 384.201C250.623 386.021 248.192 387.06 245.646 387.09C243.1 387.12 240.645 386.14 238.82 384.363L224.718 374.196C224.315 373.905 223.979 373.53 223.733 373.097C223.487 372.665 223.338 372.184 223.294 371.688C223.251 371.192 223.315 370.693 223.482 370.224C223.65 369.755 223.916 369.328 224.263 368.971Z" fill="#FF9797"/>
<path d="M365.312 436.762C365.368 435.634 365.177 434.508 364.752 433.462C364.326 432.416 363.676 431.476 362.848 430.708C362.02 429.94 361.033 429.363 359.958 429.018C358.883 428.673 357.745 428.567 356.624 428.709L302.597 383.636L294.172 398.17L349.928 437.906C350.292 439.772 351.327 441.44 352.838 442.594C354.35 443.748 356.232 444.308 358.128 444.167C360.024 444.026 361.803 443.194 363.127 441.83C364.451 440.465 365.228 438.662 365.312 436.762Z" fill="#FFB6B6"/>
<path d="M312.598 390.507L301.11 403.701C300.783 404.076 300.379 404.377 299.926 404.582C299.472 404.787 298.98 404.892 298.482 404.89C297.984 404.888 297.493 404.778 297.041 404.569C296.59 404.359 296.188 404.055 295.865 403.677L284.531 390.42C282.62 388.737 281.454 386.364 281.29 383.823C281.125 381.282 281.975 378.778 283.653 376.863C285.331 374.947 287.7 373.775 290.241 373.603C292.782 373.431 295.287 374.274 297.208 375.947L311.853 385.315C312.272 385.583 312.628 385.939 312.898 386.357C313.167 386.776 313.343 387.247 313.414 387.74C313.485 388.233 313.448 388.735 313.308 389.212C313.167 389.69 312.925 390.131 312.598 390.507Z" fill="#FF9797"/>
<path d="M370.799 455.822H349.455V448.379C349.455 445.549 350.579 442.834 352.581 440.833C354.582 438.831 357.297 437.707 360.127 437.707C362.957 437.707 365.672 438.831 367.673 440.833C369.674 442.834 370.799 445.549 370.799 448.379L370.799 455.822ZM349.928 455.349H370.326V448.379C370.326 445.674 369.252 443.08 367.339 441.167C365.426 439.254 362.832 438.18 360.127 438.18C357.422 438.18 354.828 439.254 352.915 441.167C351.002 443.08 349.928 445.674 349.928 448.379V455.349Z" fill="#3F3D56"/>
<path d="M273.38 365.078C286.089 365.078 296.392 354.775 296.392 342.066C296.392 329.358 286.089 319.055 273.38 319.055C260.672 319.055 250.369 329.358 250.369 342.066C250.369 354.775 260.672 365.078 273.38 365.078Z" fill="#FFB6B6"/>
<path d="M262.791 331.811C270.751 339.612 284.604 340.36 293.358 333.461C295.788 341.84 296.054 350.699 294.131 359.21C292.209 367.721 288.16 375.605 282.364 382.127C287.234 383.886 292.84 382.729 297.192 379.924C301.545 377.12 304.768 372.838 307.2 368.267C313.222 356.952 314.729 343.137 310.47 331.048C306.21 318.959 296.004 308.935 283.604 305.689C271.205 302.443 256.987 306.453 248.703 316.233C240.041 326.46 238.637 341.446 242.433 354.3C246.229 367.154 254.556 378.193 263.704 387.988C259.31 376.689 256.396 364.869 255.035 352.823C254.569 348.697 254.297 344.444 255.463 340.459C256.628 336.475 259.497 332.763 263.495 331.643" fill="#2F2E41"/>
<path d="M120.427 241.499L142.95 254.285C143.798 254.766 144.759 255.011 145.733 254.994C146.708 254.977 147.66 254.699 148.49 254.189L170.151 240.853C172.697 239.472 175.717 241.605 175.262 244.471L169.561 268.735C169.099 270.699 169.756 272.754 171.275 274.079L191.255 291.569C193.351 293.563 192.258 297.097 189.394 297.548L163.928 300.4C162.966 300.507 162.051 300.868 161.276 301.447C160.501 302.025 159.895 302.8 159.519 303.691L149.542 327.291C148.297 329.898 144.596 329.952 143.28 327.376L132.191 303.248C131.346 301.42 129.569 300.201 127.554 300.085L102.673 298.672C99.8077 298.295 98.6163 294.788 100.657 292.743L119.6 275.767C120.325 275.116 120.862 274.282 121.155 273.352C121.449 272.423 121.487 271.432 121.267 270.482L115.41 245.254C114.891 242.401 117.85 240.192 120.427 241.499Z" fill="#FDD835"/>
<path d="M134.861 262.098L122.994 249.147C122.356 248.409 121.197 247.192 122.447 246.258C123.438 245.519 125.516 247.178 125.516 247.178L138.144 255.26C142.936 258.346 143.375 260.303 142.48 262.321C141.449 264.633 138.259 265.81 134.861 262.098Z" fill="#FFFF8D"/>
<path d="M166.996 268.711L172.067 250.163C172.293 249.213 172.781 247.605 171.234 247.342C170.011 247.137 168.926 249.558 168.926 249.558L161.396 261.649C159.045 265.111 158.151 268.305 159.49 270.487C161.282 273.391 165.295 273.664 166.996 268.711Z" fill="#F4B400"/>
<path d="M240.201 208.265L247.453 221.834C247.725 222.345 248.13 222.773 248.625 223.074C249.12 223.375 249.686 223.537 250.265 223.545L265.374 223.723C267.091 223.838 267.93 225.868 266.793 227.162L256.228 237.537C255.373 238.377 255.05 239.617 255.393 240.764L259.874 255.889C260.294 257.555 258.623 258.983 257.042 258.301L243.349 251.649C242.832 251.398 242.258 251.289 241.685 251.333C241.113 251.378 240.562 251.574 240.091 251.903L227.59 260.586C226.137 261.5 224.262 260.352 224.419 258.641L226.509 243.006C226.665 241.82 226.159 240.644 225.184 239.946L213.139 231.339C211.82 230.24 212.335 228.101 214.009 227.722L228.909 225.21C229.48 225.113 230.014 224.865 230.456 224.491C230.899 224.118 231.232 223.632 231.423 223.086L236.49 208.558C237.135 206.961 239.322 206.791 240.201 208.265Z" fill="#FDD835"/>
<path d="M240.91 223.191L239.062 212.921C238.976 212.347 238.78 211.368 239.705 211.296C240.437 211.239 240.953 212.732 240.953 212.732L244.73 220.799C246.156 223.869 245.755 224.991 244.666 225.721C243.414 226.555 241.438 226.133 240.91 223.191Z" fill="#FFFF8D"/>
<path d="M254.949 236.711L263.382 229.007C263.797 228.601 264.552 227.949 263.859 227.326C263.31 226.835 261.997 227.706 261.997 227.706L254.378 231.387C252.098 232.379 250.636 233.699 250.616 235.22C250.594 237.247 252.522 238.658 254.949 236.711Z" fill="#F4B400"/>
<path d="M69.2361 366.202L83.8755 361.469C84.4264 361.291 84.9194 360.968 85.303 360.534C85.6867 360.101 85.9471 359.572 86.0569 359.004L88.9091 344.165C89.3265 342.496 91.4725 342.029 92.5451 343.378L100.884 355.613C101.559 356.604 102.723 357.141 103.913 357.007L119.592 355.276C121.306 355.158 122.415 357.055 121.463 358.491L112.492 370.789C112.153 371.253 111.944 371.798 111.886 372.37C111.828 372.942 111.925 373.518 112.164 374.04L118.496 387.881C119.138 389.473 117.676 391.116 116.02 390.658L101.002 385.832C99.8624 385.468 98.6154 385.757 97.7561 386.593L87.1517 396.923C85.8364 398.027 83.8222 397.141 83.7459 395.427L83.9129 380.317C83.9187 379.738 83.7691 379.168 83.4797 378.667C83.1902 378.165 82.7716 377.751 82.2674 377.466L68.8673 369.906C67.4098 368.989 67.6298 366.806 69.2361 366.202Z" fill="#FDD835"/>
<path d="M84.0503 368.148L73.6154 368.148C73.0359 368.131 72.0375 368.15 72.1305 367.228C72.2042 366.497 73.7649 366.253 73.7649 366.253L82.373 363.965C85.6473 363.105 86.6808 363.699 87.2055 364.9C87.8045 366.28 87.0394 368.149 84.0503 368.148Z" fill="#FFFF8D"/>
<path d="M99.8454 356.726L93.757 347.061C93.4318 346.581 92.9232 345.723 92.1875 346.294C91.6066 346.748 92.2312 348.195 92.2312 348.195L94.5049 356.345C95.0775 358.764 96.1175 360.437 97.6107 360.726C99.6021 361.107 101.332 359.459 99.8454 356.726Z" fill="#F4B400"/>
<path d="M56.2313 173.703C55.3544 173.703 54.5686 173.561 53.8738 173.276C53.1791 172.991 52.6211 172.57 52.1997 172.012C51.7897 171.454 51.5733 170.782 51.5505 169.996H54.6597C54.7052 170.44 54.859 170.782 55.1209 171.021C55.3829 171.249 55.7245 171.363 56.1459 171.363C56.5787 171.363 56.9204 171.266 57.1709 171.072C57.4215 170.867 57.5468 170.588 57.5468 170.235C57.5468 169.939 57.4443 169.694 57.2393 169.501C57.0456 169.307 56.8008 169.148 56.5047 169.022C56.22 168.897 55.81 168.755 55.2747 168.595C54.5002 168.356 53.8681 168.117 53.3784 167.878C52.8887 167.638 52.4673 167.285 52.1143 166.818C51.7612 166.352 51.5847 165.742 51.5847 164.991C51.5847 163.874 51.989 163.003 52.7976 162.377C53.6062 161.739 54.6597 161.42 55.958 161.42C57.2791 161.42 58.344 161.739 59.1526 162.377C59.9612 163.003 60.394 163.88 60.4509 165.008H57.2905C57.2677 164.62 57.1254 164.319 56.8634 164.102C56.6015 163.874 56.2655 163.761 55.8555 163.761C55.5025 163.761 55.2177 163.857 55.0013 164.051C54.785 164.233 54.6768 164.501 54.6768 164.854C54.6768 165.241 54.859 165.543 55.2234 165.759C55.5879 165.976 56.1573 166.209 56.9318 166.46C57.7062 166.722 58.3326 166.972 58.8109 167.211C59.3006 167.451 59.722 167.798 60.0751 168.253C60.4281 168.709 60.6047 169.296 60.6047 170.013C60.6047 170.696 60.4281 171.317 60.0751 171.875C59.7334 172.433 59.2323 172.877 58.5718 173.208C57.9112 173.538 57.1311 173.703 56.2313 173.703ZM69.8678 171.465H65.392L64.6745 173.583H61.6166L65.9558 161.591H69.3383L73.6774 173.583H70.5853L69.8678 171.465ZM69.1162 169.21L67.6299 164.82L66.1608 169.21H69.1162ZM86.256 161.591L82.0022 173.583H78.3464L74.0926 161.591H77.2018L80.1743 170.645L83.1639 161.591H86.256ZM90.3981 163.931V166.357H94.3102V168.612H90.3981V171.243H94.8227V173.583H87.4769V161.591H94.8227V163.931H90.3981ZM113.921 161.591V173.583H110.999V166.391L108.317 173.583H105.96L103.261 166.374V173.583H100.339V161.591H103.79L107.156 169.893L110.487 161.591H113.921ZM121.693 173.703C120.566 173.703 119.529 173.441 118.584 172.917C117.65 172.393 116.904 171.664 116.346 170.731C115.799 169.785 115.526 168.726 115.526 167.553C115.526 166.38 115.799 165.327 116.346 164.393C116.904 163.459 117.65 162.73 118.584 162.206C119.529 161.682 120.566 161.42 121.693 161.42C122.821 161.42 123.851 161.682 124.785 162.206C125.73 162.73 126.471 163.459 127.006 164.393C127.553 165.327 127.826 166.38 127.826 167.553C127.826 168.726 127.553 169.785 127.006 170.731C126.459 171.664 125.719 172.393 124.785 172.917C123.851 173.441 122.821 173.703 121.693 173.703ZM121.693 171.038C122.65 171.038 123.413 170.719 123.982 170.081C124.563 169.444 124.853 168.601 124.853 167.553C124.853 166.494 124.563 165.651 123.982 165.025C123.413 164.387 122.65 164.068 121.693 164.068C120.725 164.068 119.951 164.381 119.37 165.008C118.8 165.634 118.516 166.483 118.516 167.553C118.516 168.612 118.8 169.461 119.37 170.098C119.951 170.725 120.725 171.038 121.693 171.038ZM135.567 173.583L133.073 169.056H132.372V173.583H129.451V161.591H134.354C135.299 161.591 136.102 161.756 136.763 162.086C137.435 162.417 137.936 162.872 138.266 163.453C138.596 164.023 138.762 164.66 138.762 165.366C138.762 166.164 138.534 166.875 138.078 167.502C137.634 168.128 136.974 168.572 136.097 168.834L138.864 173.583H135.567ZM132.372 166.989H134.183C134.719 166.989 135.117 166.858 135.379 166.596C135.652 166.334 135.789 165.964 135.789 165.486C135.789 165.03 135.652 164.672 135.379 164.41C135.117 164.148 134.719 164.017 134.183 164.017H132.372V166.989ZM143.517 163.931V166.357H147.429V168.612H143.517V171.243H147.941V173.583H140.595V161.591H147.941V163.931H143.517Z" fill="#F97837"/>
</g>
<defs>
<clipPath id="clip0_3033_439">
<rect width="450" height="450" fill="white"/>
</clipPath>
</defs>
</svg>
