<svg width="450" height="450" viewBox="0 0 450 450" fill="none" xmlns="http://www.w3.org/2000/svg">
<g clip-path="url(#clip0_3529_165)">
<rect width="450" height="450" fill="white"/>
<path d="M124.489 227.807C-20.9589 334.814 -76.828 75.2819 -86.5815 -67.8598L787.24 -288.604C797.453 -248.176 860.389 -159.569 799.897 -52.882C724.282 80.4763 710.975 285.226 490.221 264.821C269.467 244.417 306.299 94.0488 124.489 227.807Z" fill="#FFE0B8"/>
<path d="M103.783 366.55C-35.7643 496.916 -114.615 146.41 -136.597 -45.1387L737.225 -265.882C751.05 -211.156 822.763 -87.806 769.947 49.2685C703.927 220.612 707.534 492.313 480.383 446.586C253.232 400.858 278.216 203.592 103.783 366.55Z" fill="#FFC882" fill-opacity="0.23"/>
<path d="M82.114 103H67.462L51.952 79.504V103H37.3V56.272H51.952L67.462 80.164V56.272H82.114V103ZM103.386 67.954V73.696H117.906V84.718H103.386V91.318H119.886V103H88.7336V56.272H119.886V67.954H103.386ZM140.059 67.954V73.696H154.579V84.718H140.059V91.318H156.559V103H125.407V56.272H156.559V67.954H140.059ZM181.551 56.272C186.435 56.272 190.703 57.262 194.355 59.242C198.051 61.222 200.889 63.972 202.869 67.492C204.849 71.012 205.839 75.016 205.839 79.504C205.839 83.948 204.849 87.952 202.869 91.516C200.889 95.08 198.051 97.896 194.355 99.964C190.703 101.988 186.435 103 181.551 103H162.081V56.272H181.551ZM180.231 89.932C183.531 89.932 186.149 89.03 188.085 87.226C190.021 85.422 190.989 82.848 190.989 79.504C190.989 76.16 190.021 73.586 188.085 71.782C186.149 69.978 183.531 69.076 180.231 69.076H176.733V89.932H180.231Z" fill="#F97837"/>
<path d="M80.298 131.988V166.533H69.5149V149.309L64.1965 166.533H54.9259L49.6075 149.309V166.533H38.7756V131.988H52.0471L59.6588 152.724L67.0752 131.988H80.298ZM107.337 161.312H95.8224L94.1147 166.533H82.746L95.3833 131.988H107.874L120.463 166.533H109.045L107.337 161.312ZM104.703 153.164L101.58 143.551L98.4572 153.164H104.703ZM133.756 131.988V166.533H122.924V131.988H133.756ZM171.778 166.533H160.946L149.48 149.163V166.533H138.648V131.988H149.48L160.946 149.65V131.988H171.778V166.533ZM203.8 131.988V140.575H194.627V166.533H183.795V140.575H174.72V131.988H203.8ZM217.57 140.624V144.869H228.305V153.017H217.57V157.896H229.768V166.533H206.738V131.988H229.768V140.624H217.57ZM266.981 166.533H256.149L244.682 149.163V166.533H233.85V131.988H244.682L256.149 149.65V131.988H266.981V166.533ZM294.026 161.312H282.511L280.803 166.533H269.435L282.072 131.988H294.563L307.151 166.533H295.734L294.026 161.312ZM291.391 153.164L288.269 143.551L285.146 153.164H291.391ZM342.742 166.533H331.911L320.444 149.163V166.533H309.612V131.988H320.444L331.911 149.65V131.988H342.742V166.533ZM346.66 149.211C346.66 145.796 347.343 142.754 348.71 140.087C350.108 137.42 352.093 135.354 354.662 133.89C357.232 132.394 360.257 131.646 363.738 131.646C366.73 131.646 369.398 132.215 371.74 133.354C374.114 134.46 376.033 136.037 377.497 138.087C378.994 140.136 379.986 142.527 380.474 145.259H369.056C368.536 144.121 367.788 143.242 366.812 142.624C365.868 141.974 364.779 141.649 363.543 141.649C361.721 141.649 360.273 142.332 359.2 143.698C358.159 145.064 357.639 146.902 357.639 149.211C357.639 151.521 358.159 153.359 359.2 154.725C360.273 156.091 361.721 156.774 363.543 156.774C364.779 156.774 365.868 156.465 366.812 155.847C367.788 155.197 368.536 154.302 369.056 153.164H380.474C379.986 155.896 378.994 158.287 377.497 160.336C376.033 162.385 374.114 163.979 371.74 165.118C369.398 166.224 366.73 166.777 363.738 166.777C360.257 166.777 357.232 166.045 354.662 164.581C352.093 163.085 350.108 161.003 348.71 158.336C347.343 155.668 346.66 152.627 346.66 149.211ZM395.206 140.624V144.869H405.94V153.017H395.206V157.896H407.404V166.533H384.374V131.988H407.404V140.624H395.206Z" fill="#F97837"/>
<path d="M57.1523 242.658C51.5643 242.658 46.9443 241.36 43.2923 238.764C39.6843 236.124 37.7263 232.274 37.4183 227.214H52.9943C53.2143 229.898 54.4023 231.24 56.5583 231.24C57.3503 231.24 58.0103 231.064 58.5383 230.712C59.1103 230.316 59.3963 229.722 59.3963 228.93C59.3963 227.83 58.8023 226.95 57.6143 226.29C56.4263 225.586 54.5783 224.794 52.0703 223.914C49.0783 222.858 46.5923 221.824 44.6123 220.812C42.6763 219.8 41.0043 218.326 39.5963 216.39C38.1883 214.454 37.5063 211.968 37.5503 208.932C37.5503 205.896 38.3203 203.322 39.8603 201.21C41.4443 199.054 43.5783 197.426 46.2623 196.326C48.9903 195.226 52.0483 194.676 55.4363 194.676C61.1563 194.676 65.6883 195.996 69.0323 198.636C72.4203 201.276 74.2023 204.994 74.3783 209.79H58.6043C58.5603 208.47 58.2303 207.524 57.6143 206.952C56.9983 206.38 56.2503 206.094 55.3703 206.094C54.7543 206.094 54.2483 206.314 53.8523 206.754C53.4563 207.15 53.2583 207.722 53.2583 208.47C53.2583 209.526 53.8303 210.406 54.9743 211.11C56.1623 211.77 58.0323 212.584 60.5843 213.552C63.5323 214.652 65.9523 215.708 67.8443 216.72C69.7803 217.732 71.4523 219.14 72.8603 220.944C74.2683 222.748 74.9723 225.014 74.9723 227.742C74.9723 230.602 74.2683 233.176 72.8603 235.464C71.4523 237.708 69.4063 239.468 66.7223 240.744C64.0383 242.02 60.8483 242.658 57.1523 242.658ZM94.7723 207.15V212.892H109.292V223.914H94.7723V230.514H111.272V242.196H80.1203V195.468H111.272V207.15H94.7723ZM140.29 242.196L131.512 225.432H131.446V242.196H116.794V195.468H138.574C142.358 195.468 145.592 196.15 148.276 197.514C150.96 198.834 152.962 200.66 154.282 202.992C155.646 205.28 156.328 207.876 156.328 210.78C156.328 213.904 155.448 216.676 153.688 219.096C151.972 221.516 149.486 223.254 146.23 224.31L156.394 242.196H140.29ZM131.446 215.664H137.254C138.662 215.664 139.718 215.356 140.422 214.74C141.126 214.08 141.478 213.068 141.478 211.704C141.478 210.472 141.104 209.504 140.356 208.8C139.652 208.096 138.618 207.744 137.254 207.744H131.446V215.664ZM208.067 195.468L192.359 242.196H173.417L157.709 195.468H173.285L182.921 227.61L192.491 195.468H208.067ZM225.999 195.468V242.196H211.347V195.468H225.999ZM231.296 218.766C231.296 214.146 232.22 210.032 234.068 206.424C235.96 202.816 238.644 200.022 242.12 198.042C245.596 196.018 249.688 195.006 254.396 195.006C258.444 195.006 262.052 195.776 265.22 197.316C268.432 198.812 271.028 200.946 273.008 203.718C275.032 206.49 276.374 209.724 277.034 213.42H261.59C260.886 211.88 259.874 210.692 258.554 209.856C257.278 208.976 255.804 208.536 254.132 208.536C251.668 208.536 249.71 209.46 248.258 211.308C246.85 213.156 246.146 215.642 246.146 218.766C246.146 221.89 246.85 224.376 248.258 226.224C249.71 228.072 251.668 228.996 254.132 228.996C255.804 228.996 257.278 228.578 258.554 227.742C259.874 226.862 260.886 225.652 261.59 224.112H277.034C276.374 227.808 275.032 231.042 273.008 233.814C271.028 236.586 268.432 238.742 265.22 240.282C262.052 241.778 258.444 242.526 254.396 242.526C249.688 242.526 245.596 241.536 242.12 239.556C238.644 237.532 235.96 234.716 234.068 231.108C232.22 227.5 231.296 223.386 231.296 218.766ZM296.962 207.15V212.892H311.482V223.914H296.962V230.514H313.462V242.196H282.31V195.468H313.462V207.15H296.962ZM337.266 242.658C331.678 242.658 327.058 241.36 323.406 238.764C319.798 236.124 317.84 232.274 317.532 227.214H333.108C333.328 229.898 334.516 231.24 336.672 231.24C337.464 231.24 338.124 231.064 338.652 230.712C339.224 230.316 339.51 229.722 339.51 228.93C339.51 227.83 338.916 226.95 337.728 226.29C336.54 225.586 334.692 224.794 332.184 223.914C329.192 222.858 326.706 221.824 324.726 220.812C322.79 219.8 321.118 218.326 319.71 216.39C318.302 214.454 317.62 211.968 317.664 208.932C317.664 205.896 318.434 203.322 319.974 201.21C321.558 199.054 323.692 197.426 326.376 196.326C329.104 195.226 332.162 194.676 335.55 194.676C341.27 194.676 345.802 195.996 349.146 198.636C352.534 201.276 354.316 204.994 354.492 209.79H338.718C338.674 208.47 338.344 207.524 337.728 206.952C337.112 206.38 336.364 206.094 335.484 206.094C334.868 206.094 334.362 206.314 333.966 206.754C333.57 207.15 333.372 207.722 333.372 208.47C333.372 209.526 333.944 210.406 335.088 211.11C336.276 211.77 338.146 212.584 340.698 213.552C343.646 214.652 346.066 215.708 347.958 216.72C349.894 217.732 351.566 219.14 352.974 220.944C354.382 222.748 355.086 225.014 355.086 227.742C355.086 230.602 354.382 233.176 352.974 235.464C351.566 237.708 349.52 239.468 346.836 240.744C344.152 242.02 340.962 242.658 337.266 242.658ZM386.1 191.178C390.984 191.178 394.9 192.41 397.848 194.874C400.84 197.294 402.336 200.858 402.336 205.566C402.336 209.438 401.016 212.562 398.376 214.938C395.78 217.314 392.37 218.546 388.146 218.634L387.75 223.32H374.814L374.418 209.328H379.962C382.558 209.328 384.538 209.042 385.902 208.47C387.31 207.898 388.014 206.974 388.014 205.698C388.014 204.862 387.794 204.224 387.354 203.784C386.958 203.3 386.408 203.058 385.704 203.058C384.824 203.058 384.164 203.344 383.724 203.916C383.328 204.444 383.13 205.148 383.13 206.028H369.336C369.204 203.3 369.732 200.814 370.92 198.57C372.152 196.326 374.044 194.544 376.596 193.224C379.148 191.86 382.316 191.178 386.1 191.178ZM381.48 242.724C378.928 242.724 376.882 242.042 375.342 240.678C373.802 239.314 373.032 237.598 373.032 235.53C373.032 233.418 373.802 231.68 375.342 230.316C376.882 228.908 378.928 228.204 381.48 228.204C383.988 228.204 386.012 228.908 387.552 230.316C389.092 231.68 389.862 233.418 389.862 235.53C389.862 237.598 389.092 239.314 387.552 240.678C386.012 242.042 383.988 242.724 381.48 242.724Z" fill="#F97837"/>
<g filter="url(#filter0_d_3529_165)">
<path fill-rule="evenodd" clip-rule="evenodd" d="M152.34 402.381V409.798C152.34 428.444 152.34 437.77 157.055 443.56C158.289 445.069 159.767 446.243 161.392 447.007V454.3C161.392 456.347 162.744 458.009 164.41 458.009H168.433C169.233 458.009 170.001 457.618 170.566 456.923C171.132 456.227 171.45 455.284 171.45 454.3V449.123C175.051 449.356 179.344 449.356 184.526 449.356C189.708 449.356 194.001 449.356 197.601 449.123V454.3C197.601 456.347 198.953 458.009 200.619 458.009H204.642C205.442 458.009 206.21 457.618 206.776 456.923C207.342 456.227 207.659 455.284 207.659 454.3V447.007C209.285 446.243 210.762 445.069 211.997 443.56C216.712 437.77 216.712 428.444 216.712 409.798V402.381H152.34ZM204.642 411.034C205.442 411.034 206.21 411.425 206.776 412.12C207.342 412.816 207.659 413.759 207.659 414.743V424.632C207.659 425.616 207.342 426.559 206.776 427.254C206.21 427.95 205.442 428.341 204.642 428.341C203.842 428.341 203.074 427.95 202.508 427.254C201.943 426.559 201.625 425.616 201.625 424.632V414.743C201.625 413.759 201.943 412.816 202.508 412.12C203.074 411.425 203.842 411.034 204.642 411.034Z" fill="#F9AD4F"/>
<path d="M152.34 394.933C152.34 376.209 152.34 366.844 157.055 361.029C161.77 355.215 169.354 355.21 184.526 355.21C199.697 355.21 207.285 355.21 211.997 361.029C216.708 366.849 216.712 376.209 216.712 394.933V402.381H152.34V394.933Z" fill="white"/>
<path d="M207.711 379.963C207.711 378.981 207.39 378.038 206.817 377.343C206.245 376.649 205.469 376.258 204.66 376.258C203.851 376.258 203.075 376.649 202.503 377.343C201.931 378.038 201.609 378.981 201.609 379.963V389.843C201.609 390.826 201.931 391.768 202.503 392.463C203.075 393.158 203.851 393.548 204.66 393.548C205.469 393.548 206.245 393.158 206.817 392.463C207.39 391.768 207.711 390.826 207.711 389.843V379.963Z" fill="#FB8C00"/>
</g>
<path d="M179.66 454.859H117.235C116.774 454.859 116.332 454.676 116.005 454.35C115.679 454.024 115.496 453.581 115.496 453.12V367.956C115.496 367.494 115.679 367.052 116.005 366.726C116.332 366.4 116.774 366.216 117.235 366.216H179.663C180.124 366.216 180.567 366.4 180.893 366.726C181.219 367.052 181.402 367.494 181.402 367.956V453.118C181.402 453.579 181.219 454.022 180.893 454.348C180.567 454.674 180.124 454.858 179.663 454.858" fill="#FFC107"/>
<path d="M148.526 444.413C160.065 444.413 169.419 435.058 169.419 423.519C169.419 411.98 160.065 402.626 148.526 402.626C136.987 402.626 127.633 411.98 127.633 423.519C127.633 435.058 136.987 444.413 148.526 444.413Z" fill="white"/>
<path d="M127.633 423.52C127.633 435.058 136.988 444.413 148.526 444.413C160.064 444.413 169.419 435.058 169.419 423.52" fill="#92D3F5"/>
<path d="M119.902 377.09C119.902 375.907 120.861 374.948 122.044 374.948H147.705C148.888 374.948 149.847 375.907 149.847 377.09V389.966C149.847 391.149 148.888 392.108 147.705 392.108H122.044C120.861 392.108 119.902 391.149 119.902 389.966V377.09Z" fill="#FFE9CE"/>
<path d="M148.523 435.656C155.226 435.656 160.66 430.222 160.66 423.519C160.66 416.817 155.226 411.383 148.523 411.383C141.82 411.383 136.387 416.817 136.387 423.519C136.387 430.222 141.82 435.656 148.523 435.656Z" fill="#FCEA2B"/>
<path d="M136.387 423.52C136.387 426.738 137.665 429.825 139.941 432.101C142.217 434.377 145.304 435.656 148.523 435.656C151.742 435.656 154.829 434.377 157.105 432.101C159.381 429.825 160.66 426.738 160.66 423.52" fill="#61B2E4"/>
<path d="M151.693 379.659H161.288M151.693 385.07H161.288M132.502 382.365H137.985M124.277 376.966H146.21V390.425H124.277V376.966Z" stroke="#FB8C00" stroke-width="0.112306" stroke-miterlimit="10" stroke-linecap="round" stroke-linejoin="round"/>
<path d="M171.112 385.267C173.063 385.267 174.645 383.719 174.645 381.81C174.645 379.901 173.063 378.354 171.112 378.354C169.16 378.354 167.578 379.901 167.578 381.81C167.578 383.719 169.16 385.267 171.112 385.267Z" fill="#FB8C00"/>
<g filter="url(#filter1_d_3529_165)">
<rect x="50" y="405.178" width="82.0203" height="47.2084" rx="2.56757" fill="white"/>
<rect x="50.0068" y="405.184" width="82.0068" height="47.1949" rx="2.56081" stroke="#FB8C00" stroke-width="0.0135135"/>
</g>
<rect x="57.6416" y="413.668" width="47.3484" height="33.2854" rx="1.38514" fill="#FFBB00" stroke="#FB8C00" stroke-width="0.337838"/>
<rect x="113.591" y="413.668" width="11.4248" height="9.85102" rx="1.38514" fill="#FFCA08" stroke="#FB8C00" stroke-width="0.337838"/>
<rect x="114.704" y="428.782" width="2.52333" height="3.05845" rx="1.26167" fill="#FFCA08" stroke="#FB8C00" stroke-width="0.337838"/>
<rect x="118.36" y="428.782" width="2.52333" height="3.05845" rx="1.26167" fill="#FFCA08" stroke="#FB8C00" stroke-width="0.337838"/>
<rect x="122.013" y="428.782" width="2.52333" height="3.05845" rx="1.26167" fill="#FFCA08" stroke="#FB8C00" stroke-width="0.337838"/>
<rect x="114.704" y="441.008" width="2.52333" height="3.05845" rx="1.26167" fill="#FFB8B8" stroke="#E76063" stroke-width="0.337838"/>
<rect x="118.36" y="441.008" width="2.52333" height="3.05845" rx="1.26167" fill="#FFB8B8" stroke="#E76063" stroke-width="0.337838"/>
<rect x="122.013" y="441.008" width="2.52333" height="3.05845" rx="1.26167" fill="#FFCA08" stroke="#FB8C00" stroke-width="0.337838"/>
<rect x="114.704" y="437.102" width="2.52333" height="3.05845" rx="1.26167" fill="#FFB8B8" stroke="#E76063" stroke-width="0.337838"/>
<rect x="118.36" y="437.102" width="2.52333" height="3.05845" rx="1.26167" fill="#FFB8B8" stroke="#E76063" stroke-width="0.337838"/>
<rect x="122.013" y="437.102" width="2.52333" height="3.05845" rx="1.26167" fill="#FFB8B8" stroke="#E76063" stroke-width="0.337838"/>
<rect x="114.704" y="433.027" width="2.52333" height="3.05845" rx="1.26167" fill="#FFB8B8" stroke="#E76063" stroke-width="0.337838"/>
<rect x="118.36" y="433.027" width="2.52333" height="3.05845" rx="1.26167" fill="#FFB8B8" stroke="#E76063" stroke-width="0.337838"/>
<rect x="122.013" y="433.027" width="2.52333" height="3.05845" rx="1.26167" fill="#FFB8B8" stroke="#E76063" stroke-width="0.337838"/>
<rect x="108.829" y="413.328" width="0.933794" height="33.625" rx="0.466897" fill="#FFCA08" stroke="#FB8C00" stroke-width="0.337838"/>
<rect x="154.004" y="324.14" width="55.1896" height="23.4063" rx="1.47049" fill="white"/>
<path d="M175.609 362.678C175.438 362.403 175.438 362.372 175.725 361.727C176.07 360.946 176.232 360.097 176.198 359.243C176.164 358.39 175.935 357.556 175.529 356.805C174.732 355.317 174.535 353.581 174.977 351.952C175.383 350.499 175.943 349.918 176.451 350.419C176.699 350.695 176.693 350.747 176.197 352.107C175.983 352.797 175.909 353.524 175.979 354.243C176.049 354.962 176.26 355.661 176.602 356.298C177.083 357.219 177.348 358.238 177.376 359.276C177.405 360.315 177.196 361.346 176.765 362.292C176.489 362.802 176.426 362.885 176.125 362.918C176.023 362.946 175.914 362.937 175.818 362.891C175.722 362.846 175.646 362.767 175.603 362.67L175.609 362.678ZM181.183 362.789C180.937 362.54 180.987 362.287 181.315 361.484C181.528 360.945 181.638 360.371 181.641 359.791C181.722 358.736 181.487 357.681 180.968 356.758C180.47 355.812 180.227 354.752 180.264 353.684C180.264 352.184 180.852 350.419 181.387 350.282C181.464 350.251 181.547 350.239 181.63 350.247C181.713 350.254 181.792 350.281 181.862 350.326C181.932 350.37 181.991 350.431 182.033 350.502C182.075 350.573 182.1 350.654 182.105 350.736C182.052 351.081 181.952 351.417 181.809 351.735C181.547 352.367 181.447 353.055 181.517 353.736C181.421 354.456 181.546 355.188 181.876 355.835C182.505 356.838 182.837 357.998 182.833 359.182C182.952 360.271 182.744 361.371 182.234 362.342C181.991 362.8 181.889 362.893 181.608 362.929C181.527 362.945 181.444 362.941 181.365 362.919C181.286 362.896 181.213 362.855 181.153 362.8L181.183 362.789ZM186.66 362.789C186.473 362.593 186.531 362.295 186.936 361.225C187.135 360.692 187.229 360.126 187.212 359.557C187.233 358.595 187.002 357.645 186.542 356.8C186.307 356.296 186.11 355.775 185.954 355.242C185.737 354.232 185.737 353.188 185.954 352.179C186.097 351.505 186.379 350.868 186.782 350.309C186.912 350.233 187.067 350.211 187.213 350.248C187.36 350.285 187.486 350.377 187.565 350.505C187.734 350.764 187.728 350.811 187.389 351.657C187.08 352.387 186.939 353.177 186.975 353.968C187.011 354.759 187.223 355.533 187.596 356.232C188.141 357.23 188.416 358.354 188.393 359.491C188.434 360.175 188.341 360.861 188.117 361.509C187.772 362.56 187.499 362.943 187.088 362.943C187.007 362.95 186.926 362.939 186.851 362.91C186.775 362.882 186.706 362.838 186.649 362.78L186.66 362.789ZM154.323 346.882C154.195 346.755 154.1 346.599 154.047 346.427C154.001 343.129 153.992 339.831 154.019 336.534L154.047 326.883L154.406 326.166C154.795 325.338 155.486 324.69 156.337 324.355C156.925 324.14 157.055 324.14 181.608 324.14C206.161 324.14 206.296 324.14 206.884 324.355C207.734 324.688 208.425 325.333 208.816 326.158L209.166 326.875L209.194 336.534C209.194 341.839 209.194 346.3 209.16 346.427C209.107 346.599 209.012 346.755 208.884 346.882C208.669 347.097 208.41 347.097 181.602 347.097C154.795 347.097 154.538 347.058 154.323 346.843V346.882ZM156.71 342.746C156.743 340.264 156.762 340.113 157.002 339.619C157.186 339.27 157.456 338.974 157.786 338.759L158.294 338.414H204.985L205.488 338.759C205.808 338.98 206.068 339.278 206.244 339.625C206.487 340.113 206.506 340.264 206.52 342.754L206.558 345.36H207.408V336.374C207.408 326.663 207.408 326.958 206.84 326.428L206.58 326.18L206.514 326.93C206.521 327.396 206.391 327.854 206.139 328.246C205.887 328.638 205.525 328.948 205.099 329.136C204.745 329.285 202.21 329.304 181.622 329.304C161.034 329.304 158.509 329.348 158.145 329.205C157.717 329.02 157.355 328.711 157.106 328.317C156.857 327.924 156.732 327.464 156.748 326.999L156.685 326.257L156.409 326.505C155.821 327.027 155.835 326.745 155.835 336.432V345.423H156.682L156.71 342.746ZM178.581 337.033C178.493 336.988 178.419 336.922 178.364 336.84C178.309 336.758 178.276 336.664 178.268 336.566C178.26 336.468 178.276 336.37 178.317 336.28C178.357 336.191 178.419 336.113 178.498 336.054C178.705 335.905 179.155 335.877 181.602 335.877C184.828 335.877 184.991 335.911 184.927 336.564C184.869 337.129 184.665 337.168 181.616 337.168C180.607 337.229 179.595 337.186 178.595 337.038L178.581 337.033ZM199.45 336.804C199.403 336.734 199.373 336.654 199.362 336.571C199.351 336.487 199.359 336.403 199.385 336.323C199.412 336.243 199.456 336.17 199.515 336.11C199.575 336.05 199.647 336.005 199.726 335.977C200.217 335.718 200.744 336.528 200.341 336.928C200.274 336.98 200.197 337.018 200.115 337.04C200.033 337.061 199.947 337.066 199.863 337.054C199.779 337.042 199.698 337.013 199.625 336.969C199.552 336.925 199.489 336.867 199.439 336.798L199.45 336.804ZM202.259 336.823C202.176 336.718 202.134 336.586 202.141 336.452C202.148 336.319 202.203 336.192 202.297 336.096C202.39 336 202.516 335.941 202.65 335.931C202.783 335.921 202.916 335.96 203.024 336.04C203.101 336.082 203.167 336.141 203.217 336.213C203.267 336.285 203.3 336.368 203.313 336.454C203.326 336.541 203.319 336.63 203.292 336.713C203.265 336.796 203.219 336.872 203.158 336.935C203.097 336.998 203.022 337.046 202.939 337.075C202.856 337.104 202.768 337.113 202.681 337.102C202.594 337.091 202.51 337.061 202.437 337.012C202.364 336.964 202.303 336.899 202.259 336.823ZM205.22 344.877V344.395H157.987V345.36H205.22V344.877ZM205.22 342.616V342.023H157.987V343.209H205.22V342.616ZM205.22 340.485C205.193 340.308 205.123 340.14 205.016 339.996C204.909 339.851 204.769 339.735 204.607 339.658C204.439 339.575 198.159 339.536 181.602 339.536C165.046 339.536 158.777 339.575 158.6 339.658C158.441 339.739 158.303 339.856 158.197 340C158.09 340.143 158.019 340.309 157.987 340.485V340.728H205.22V340.485ZM204.894 327.801C205.187 327.509 205.22 327.432 205.22 326.674V325.846H157.982V326.674C157.982 327.429 158.001 327.501 158.294 327.801L158.619 328.121H204.555L204.894 327.801Z" fill="#F9A826"/>
<path d="M249.176 442.189V457.266H375.371V442.189C375.371 419.063 344.394 407.325 312.751 407.37C281.311 407.416 249.176 417.706 249.176 442.189Z" fill="#9E616A"/>
<path d="M312.298 399.748H299.148V414.367C299.148 420.983 304.507 426.35 311.11 426.35H313.5C320.104 426.35 325.462 420.983 325.462 414.367V399.748H312.298Z" fill="#FFB6B6"/>
<path d="M325.899 457.296H298.645V408.056L312.272 426.349L325.899 408.056V457.296Z" fill="#814E55"/>
<path d="M349.39 439.109V413.102C345.856 411.836 342.091 410.784 338.166 409.931V434.337L312.287 434.139L286.408 434.337V409.931C282.483 410.769 278.718 411.836 275.185 413.102V439.124L269.406 457.281H355.197L349.39 439.109Z" fill="#FF6F00"/>
<path d="M358.917 342C358.917 342 367.447 343.555 367.447 353.236C367.447 361.773 361.22 365.142 354.993 365.142V342H358.917ZM265.842 342C265.842 342 257.312 343.555 257.312 353.236C257.312 361.773 263.54 365.142 269.767 365.142V342H265.842Z" fill="#FFB6B6"/>
<path d="M312.373 278.644C275.589 278.644 265.973 308.66 265.973 350.827C265.973 394.549 292.663 405.861 312.373 405.861C331.793 405.861 358.772 394.885 358.772 350.827C358.787 308.645 349.156 278.644 312.373 278.644Z" fill="#FFB6B6"/>
<path d="M297.102 354.73C297.102 359.09 294.336 362.611 290.904 362.611C287.486 362.611 284.691 359.075 284.691 354.73C284.691 350.37 287.472 346.833 290.904 346.833C294.336 346.833 297.102 350.37 297.102 354.73ZM327.659 354.73C327.659 359.09 330.425 362.611 333.872 362.611C337.29 362.611 340.07 359.075 340.07 354.73C340.07 350.37 337.29 346.833 333.872 346.833C330.425 346.833 327.659 350.37 327.659 354.73Z" fill="#6D4C41"/>
<path d="M325.81 381.362H298.961C297.425 381.362 296.759 382.445 297.773 384.091C299.192 386.378 304.493 390.768 312.385 390.768C320.278 390.768 325.578 386.378 326.997 384.091C328.011 382.46 327.345 381.362 325.81 381.362Z" fill="#513F35"/>
<path d="M318.864 369.349C316.576 370.035 314.201 370.355 312.376 370.355C310.552 370.355 308.177 370.02 305.889 369.349C304.918 369.06 304.527 370.035 304.875 370.676C305.599 372.017 308.524 374.731 312.376 374.731C316.229 374.731 319.154 372.017 319.878 370.676C320.226 370.035 319.849 369.06 318.864 369.349Z" fill="#E39400"/>
<path d="M313.491 273.125C313.491 273.125 312.766 273.094 312.462 273.11C312.158 273.11 311.434 273.125 311.434 273.125C271.739 273.933 259.777 299.071 259.777 316.496C259.777 333.448 259.792 345.888 259.792 345.888C259.792 345.888 260.429 345.202 261.588 344.242C262.833 343.22 264.209 342.656 264.209 342.656L266.207 356.803L279.429 327.716C279.516 327.533 279.69 327.427 279.878 327.457L287.713 328.372C295.591 329.287 303.513 329.744 311.42 329.759V329.774C311.767 329.774 312.1 329.759 312.448 329.759C312.795 329.759 313.129 329.774 313.476 329.774V329.759C321.383 329.729 329.305 329.287 337.183 328.372L345.018 327.457C345.206 327.442 345.38 327.549 345.467 327.716L358.688 356.803L360.716 342.656C360.716 342.656 362.092 343.235 363.337 344.242C364.51 345.202 365.133 345.888 365.133 345.888C365.133 345.888 365.147 333.448 365.147 316.496C365.147 299.071 353.185 273.933 313.491 273.125Z" fill="#6D4C41"/>
<path d="M385.128 426.09C387.3 426.654 388.69 428.27 389.66 430.283C392.079 429.825 396.25 429.368 397.466 429.398C398.9 429.444 400.797 429.612 401.116 432.706C401.318 434.719 400.594 436.38 398.147 436.624C397.234 436.716 396.293 436.777 395.366 436.823L395.699 437.951C396.554 437.935 397.321 437.905 397.915 437.905C400.392 437.874 401.796 439.262 401.796 442.021C401.796 444.445 399.812 445.588 398.364 445.68C397.597 445.725 395.453 445.603 393.339 445.39L393.122 445.863L393.035 446C394.367 446.213 395.641 446.442 396.539 446.61C398.958 447.067 400.116 448.759 399.841 450.771C399.508 453.211 397.437 453.881 396.004 453.836C394.932 453.805 391.167 453.18 388.647 452.616L388.154 453.363C388.328 453.394 388.516 453.424 388.719 453.455C388.748 453.455 388.777 453.47 388.821 453.47L389.327 453.561C389.371 453.561 389.4 453.576 389.443 453.576C389.646 453.607 389.849 453.653 390.051 453.683H390.08C390.298 453.714 390.515 453.759 390.732 453.805C390.776 453.805 390.819 453.82 390.848 453.82L391.355 453.912C391.427 453.927 391.485 453.942 391.558 453.942C391.702 453.973 391.847 454.003 391.978 454.019L392.195 454.064C392.34 454.095 392.47 454.125 392.6 454.141L392.803 454.186C392.991 454.232 393.194 454.262 393.368 454.308C395.584 454.796 396.423 455.848 396.148 457.693C395.772 460.284 393.295 460.863 391.978 460.726C390.66 460.604 386.228 459.644 384.78 458.973L384.519 458.836L384.013 459.598C377.496 459.141 372.818 456.275 372.818 456.275C368.995 454.019 368.358 452.281 367.72 449.521C366.996 446.381 367.17 442.661 367.199 442.082C367.431 435.832 368.749 431.792 373.542 428.438C374.701 427.63 376.395 426.212 380.146 425.755C381.594 425.602 383.679 425.709 385.128 426.09Z" fill="#FBC11B"/>
<path d="M390.546 436.472C390.546 436.472 390.604 433.332 389.662 430.283L390.705 430.084C390.705 430.084 391.444 432.249 391.704 435.451C391.748 435.969 391.762 436.442 391.762 436.899L392.689 436.838L398.902 436.472C398.902 436.472 398.438 436.563 398.438 437.295C398.438 437.6 398.612 437.798 398.743 437.92C398.482 437.89 398.192 437.859 397.903 437.875L391.733 438.042C391.719 438.225 391.719 438.408 391.704 438.606C391.56 441.259 390.966 443.805 389.561 444.78C394.224 445.36 398.366 445.649 398.366 445.649C397.555 446 397.903 447.037 397.903 447.037C394.76 446.137 387.143 445.665 387.143 445.665C383.928 445.375 383.493 447.662 383.493 447.662C382.899 450.421 385.752 451.686 385.752 451.686C386.129 451.915 389.532 452.631 391.965 453.119L394.398 453.592L395.079 453.729C395.006 453.714 394.717 453.699 394.601 454.202C394.543 454.446 394.601 454.613 394.644 454.72C394.282 454.552 393.848 454.4 393.341 454.293C392.197 454.049 388.736 453.455 388.475 453.409L387.606 453.287C384.739 452.891 384.044 453.424 384.044 453.424C382.451 454.308 382.914 456.443 382.914 456.443C383.261 458.501 385.419 459.141 385.419 459.141C386.245 459.4 390.618 460.513 390.618 460.513L384 459.598C383.537 459.446 383.363 459.217 383.102 459.004C380.771 456.991 381.755 454.263 381.755 454.263C382.117 453.211 382.87 452.738 382.87 452.738C383.319 452.448 383.841 452.296 384.377 452.235C381.668 450.726 382.103 447.677 382.103 447.677C382.451 445.802 383.739 445.009 384.753 444.674C384.666 444.597 384.565 444.521 384.478 444.43C384.478 444.43 382.74 443.225 383.377 438.057C383.595 436.32 383.566 436.076 383.392 434.978C383.392 434.978 382.769 432.63 380.915 433.377C380.915 433.377 380.293 433.545 379.322 434.353C379.322 434.353 378.54 434.993 378.555 433.987C378.555 433.682 378.758 433.133 379.149 432.661C379.149 432.661 379.554 432.158 380.553 431.868C380.553 431.868 383.146 430.786 384.435 433.515C385.115 434.948 384.985 435.893 384.768 437.356C384.768 437.356 384.362 441.975 385.506 443.454C385.506 443.454 386.636 444.811 388.446 443.972C388.46 444.003 390.922 442.57 390.546 436.472Z" fill="#E49500"/>
<path d="M395.323 398.665C395.888 396.149 396.424 393.619 396.829 391.073C397.134 389.137 398.842 384.762 396.641 383.405C395.439 382.673 392.934 381.758 391.63 382.521C391.457 382.627 391.312 382.765 391.153 382.963C390.486 383.832 390.443 385.189 390.269 386.24C390.066 387.551 389.907 388.863 389.777 390.189C389.371 394.152 389.125 398.116 388.372 402.049C388.184 403.086 388.01 404.122 387.981 405.174C387.938 407.873 387.156 410.815 387.04 413.635C387.025 414.245 387.242 415.114 387.778 415.388C388.401 415.708 389.183 416.029 389.864 416.151C390.588 416.303 391.254 416.059 391.717 415.449C392.036 415.022 392.094 414.245 392.224 413.711C393.412 408.742 394.237 403.574 395.323 398.665Z" fill="white"/>
<path d="M395.97 394.503C396.535 391.987 397.071 389.457 397.476 386.911C397.78 384.975 399.489 380.6 397.288 379.243C396.086 378.511 393.581 377.596 392.277 378.359C392.104 378.465 391.959 378.603 391.799 378.801C391.133 379.67 391.09 381.026 390.916 382.078C390.713 383.389 390.568 384.7 390.424 386.027C390.148 388.725 389.946 391.408 389.613 394.091C389.236 397.171 388.845 400.25 388.469 403.329C388.222 405.342 387.788 407.43 387.716 409.458C387.701 410.068 387.918 410.937 388.454 411.211C389.077 411.531 389.859 411.836 390.539 411.973C391.264 412.126 391.93 411.882 392.393 411.272C392.712 410.86 392.77 410.068 392.9 409.534C394.059 404.58 394.884 399.412 395.97 394.503Z" fill="#2F2F2F"/>
<path d="M420.09 347.701C418.222 344.043 415.89 341.786 415.89 341.786C415.89 341.786 415.296 341.283 414.659 341.07C414.514 341.024 413.863 340.856 413.443 341.268C412.921 341.771 412.617 342.945 412.429 343.616C411.85 345.628 411.256 347.473 410.691 349.348C410.228 350.842 408.997 355.171 408.751 355.766C408.331 356.741 407.809 357.626 407.158 358.144C406.042 359.043 401.119 360.339 398.802 360.964C398.802 360.964 397.295 361.376 396.528 360.141C395.109 357.869 392.372 353.769 392.154 352.076C391.966 350.598 392.589 347.869 393.139 345.658C393.762 343.113 394.385 340.567 394.978 338.021C395.152 337.274 395.427 336.085 394.877 335.429C394.341 334.804 393.327 334.972 392.647 335.14C390.75 335.597 388.823 336.573 387.129 337.609C386.101 338.234 385.116 338.92 384.218 339.728C380.844 342.731 376.876 348.067 376.442 355.568C375.993 363.327 380.467 370.919 383.364 375.035C384.633 377.046 385.519 379.299 385.971 381.666C386.246 383.145 385.275 391.362 385.275 391.362L383.581 404.457L382.567 412.308C382.582 412.324 382.582 412.339 382.582 412.339L378.382 451.823C380.004 455.588 382.35 456.914 384.638 457.113C388.679 457.463 392.183 454.155 392.763 449.932L397.527 414.854C398.715 408.238 401.915 390.463 402.741 386.789C403.45 383.664 405.159 382.215 406.158 381.605C406.39 381.484 406.636 381.346 406.897 381.224C406.911 381.224 406.926 381.209 406.926 381.209C411.401 378.846 419.453 373.693 421.944 366.163C424.203 359.104 422.479 352.397 420.09 347.701ZM396.296 391.911C395.934 394.182 395.471 396.439 394.964 398.664C393.994 403.04 393.255 407.643 392.227 412.064C392.111 412.537 392.067 413.223 391.778 413.604C391.372 414.153 390.764 414.366 390.127 414.229C389.519 414.107 388.823 413.833 388.273 413.543C387.795 413.299 387.593 412.522 387.607 411.988C387.679 410.174 388.056 408.329 388.273 406.531C388.621 403.787 388.954 401.042 389.301 398.314C389.606 395.92 389.779 393.527 390.025 391.133C390.141 389.96 390.286 388.786 390.46 387.627C390.605 386.697 390.648 385.478 391.242 384.7C391.372 384.532 391.517 384.395 391.662 384.304C392.82 383.618 395.065 384.426 396.122 385.081C398.092 386.301 396.571 390.188 396.296 391.911Z" fill="#78A3AD"/>
<path d="M398.21 445.664H398.37C399.803 445.573 401.787 444.43 401.802 442.006C401.802 439.353 400.513 437.981 398.21 437.905L398.109 437.341L398.862 437.295C400.137 436.975 400.803 436.167 401.034 435.13C401.121 434.978 401.15 433.24 401.136 433.042C401.02 431.411 400.455 430.648 400.455 430.648C399.876 429.093 396.313 429.444 396.313 429.444L389.811 430.359C389.579 430.283 389.348 430.206 389.13 430.13C388.189 428.575 386.929 427.371 385.119 426.898C383.671 426.532 381.6 426.41 380.137 426.593C376.386 427.051 374.692 428.468 373.533 429.276C373.287 429.444 373.084 429.627 372.867 429.81C374.185 432.325 376.184 434.963 378.631 434.521C378.79 434.139 379.051 433.743 379.167 433.606C379.688 433.011 380.412 432.584 381.18 432.493C382.382 432.341 383.627 432.966 384.279 434.033C385.293 435.679 384.12 437.859 384.047 439.826C384.018 440.756 384.742 441.655 384.916 442.57C385.075 443.439 385.394 444.353 386.104 444.826C386.147 444.856 386.219 444.856 386.263 444.887C386.219 445.039 386.118 445.344 386.002 445.741C385.539 445.771 385.09 445.863 384.699 446.091C383.801 446.61 383.338 447.753 383.453 448.805C383.54 449.582 383.931 450.299 384.482 450.832C384.134 452.021 383.844 453.089 383.7 453.714C382.7 454.522 382.599 456.244 383.294 457.388C384.018 458.592 385.351 459.247 386.668 459.598C387.986 459.949 389.348 460.071 390.636 460.528C390.564 460.513 390.506 460.513 390.434 460.498C391.085 460.62 391.636 460.711 391.983 460.741C393.287 460.863 395.777 460.284 396.154 457.708C396.371 456.229 395.85 455.269 394.503 454.689C394.402 454.308 394.228 453.881 394.127 453.561C394.373 453.607 394.633 453.668 394.88 453.714C395.358 453.775 395.763 453.82 396.009 453.82C397.443 453.866 399.528 453.195 399.847 450.756C400.064 449.14 399.355 447.753 397.819 447.021C397.255 446.899 396.675 446.808 396.111 446.701C396.342 446.305 396.574 445.908 396.806 445.527L398.21 445.664Z" fill="#FBC11B"/>
<path d="M398.844 437.951C398.642 437.677 398.598 437.235 398.598 437.235H398.555C398.033 437.189 391.792 436.914 391.792 436.914C391.763 434.795 390.937 432.265 390.373 430.237C389.996 430.192 389.547 430.237 389.156 430.1C389.648 432.097 390.561 434.43 390.619 436.472C390.662 437.844 390.575 439.201 390.3 440.543C390.083 441.625 389.735 442.723 388.982 443.5C388.229 444.278 386.998 444.598 386.115 444.003C385.405 443.531 385.101 442.616 384.927 441.747C384.754 440.832 384.681 439.902 384.725 438.988C384.797 437.021 385.304 434.872 384.305 433.225C383.653 432.158 382.393 431.533 381.205 431.686C380.438 431.777 379.714 432.204 379.193 432.798C378.946 433.088 377.991 434.521 378.975 434.552C379.25 434.552 379.497 434.353 379.714 434.17C380.38 433.606 381.22 433.088 382.045 433.347C383.059 433.667 383.45 434.963 383.494 436.076C383.552 437.601 383.247 439.11 383.247 440.619C383.247 442.143 383.638 443.775 384.754 444.735C383.247 445.086 382.132 446.656 382.089 448.287C382.045 449.918 383.016 451.473 384.363 452.266C383.103 452.296 382.002 453.364 381.669 454.644C381.336 455.925 381.712 457.327 382.48 458.379C382.813 458.836 383.218 459.233 383.711 459.477C383.812 459.522 383.928 459.553 384.044 459.583L384.507 458.882L384.348 459.111L384.029 459.583C384.363 459.69 384.725 459.751 385.072 459.812C385.275 459.843 385.478 459.873 385.695 459.888C387.273 460.102 388.852 460.315 390.43 460.513C390.503 460.529 390.561 460.529 390.633 460.544C389.344 460.086 387.983 459.965 386.665 459.614C385.347 459.263 384.029 458.608 383.291 457.403C382.567 456.199 382.697 454.354 383.841 453.607C384.536 453.15 385.391 453.181 386.202 453.242C387.491 453.333 388.765 453.501 390.039 453.714C390.387 453.775 390.735 453.836 391.068 453.897L391.328 453.943C391.401 453.958 391.459 453.973 391.531 453.973C391.676 454.004 391.821 454.034 391.951 454.05L392.168 454.095C392.313 454.126 392.443 454.156 392.574 454.172L392.776 454.217C392.965 454.263 393.167 454.293 393.341 454.339C393.732 454.431 394.051 454.537 394.355 454.644C394.442 454.675 394.543 454.69 394.63 454.72C394.427 454.37 394.674 453.836 395.05 453.775L394.847 453.729L387.766 452.266C386.839 452.068 385.883 451.87 385.087 451.366C384.218 450.818 383.552 449.872 383.421 448.805C383.291 447.738 383.769 446.595 384.667 446.092C385.347 445.695 386.158 445.711 386.94 445.726C390.575 445.848 394.21 446.29 397.787 447.037C397.816 447.037 397.86 447.052 397.889 447.052C397.657 446.58 397.889 445.909 398.352 445.695C398.294 445.695 398.236 445.68 398.193 445.68C395.325 445.406 392.458 445.116 389.59 444.842C391.343 443.226 391.603 440.497 391.734 438.058C391.734 438.043 398.555 437.951 398.844 437.951Z" fill="#E49500"/>
</g>
<defs>
<filter id="filter0_d_3529_165" x="136.231" y="340.712" width="96.5888" height="135.017" filterUnits="userSpaceOnUse" color-interpolation-filters="sRGB">
<feFlood flood-opacity="0" result="BackgroundImageFix"/>
<feColorMatrix in="SourceAlpha" type="matrix" values="0 0 0 0 0 0 0 0 0 0 0 0 0 0 0 0 0 0 127 0" result="hardAlpha"/>
<feOffset dy="1.61088"/>
<feGaussianBlur stdDeviation="8.05442"/>
<feComposite in2="hardAlpha" operator="out"/>
<feColorMatrix type="matrix" values="0 0 0 0 0.976471 0 0 0 0 0.658824 0 0 0 0 0.14902 0 0 0 0.15 0"/>
<feBlend mode="normal" in2="BackgroundImageFix" result="effect1_dropShadow_3529_165"/>
<feBlend mode="normal" in="SourceGraphic" in2="effect1_dropShadow_3529_165" result="shape"/>
</filter>
<filter id="filter1_d_3529_165" x="44.527" y="401.732" width="92.9655" height="58.1545" filterUnits="userSpaceOnUse" color-interpolation-filters="sRGB">
<feFlood flood-opacity="0" result="BackgroundImageFix"/>
<feColorMatrix in="SourceAlpha" type="matrix" values="0 0 0 0 0 0 0 0 0 0 0 0 0 0 0 0 0 0 127 0" result="hardAlpha"/>
<feOffset dy="2.02703"/>
<feGaussianBlur stdDeviation="2.73649"/>
<feComposite in2="hardAlpha" operator="out"/>
<feColorMatrix type="matrix" values="0 0 0 0 0 0 0 0 0 0 0 0 0 0 0 0 0 0 0.1 0"/>
<feBlend mode="normal" in2="BackgroundImageFix" result="effect1_dropShadow_3529_165"/>
<feBlend mode="normal" in="SourceGraphic" in2="effect1_dropShadow_3529_165" result="shape"/>
</filter>
<clipPath id="clip0_3529_165">
<rect width="450" height="450" fill="white"/>
</clipPath>
</defs>
</svg>
