<svg width="167" height="199" viewBox="0 0 167 199" fill="none" xmlns="http://www.w3.org/2000/svg">
<g clip-path="url(#clip0_3534_243)">
<rect width="167" height="199" rx="17.72" fill="white"/>
<rect x="0.444471" y="0.553846" width="165.046" height="201.6" rx="17.1692" fill="#FFFAF4" stroke="#FB8C00" stroke-width="1.10769"/>
<path d="M41.2715 14.2227C41.5254 14.6621 41.7549 15.082 41.96 15.4824C42.165 15.8828 42.3506 16.2881 42.5166 16.6982C42.6826 17.1084 42.7998 17.5332 42.8682 17.9727C42.9365 18.4121 42.9805 18.9004 43 19.4375C43 20.209 42.9023 20.9512 42.707 21.6641C42.5117 22.377 42.2285 23.0508 41.8574 23.6855C41.4863 24.3203 41.042 24.8916 40.5244 25.3994C40.0068 25.9072 39.4355 26.3467 38.8105 26.7178C38.1855 27.0889 37.5166 27.3721 36.8037 27.5674C36.0908 27.7627 35.3438 27.8652 34.5625 27.875C34.3379 27.875 34.1133 27.8652 33.8887 27.8457C33.6641 27.8262 33.4346 27.7969 33.2002 27.7578L21.3936 39.5645C20.9248 40.0332 20.3926 40.3896 19.7969 40.6338C19.2012 40.8779 18.5713 41 17.9072 41C17.2334 41 16.5986 40.873 16.0029 40.6191C15.4072 40.3652 14.8896 40.0137 14.4502 39.5645C14.0107 39.1152 13.6592 38.5928 13.3955 37.9971C13.1318 37.4014 13 36.7666 13 36.0928C13 35.4385 13.1221 34.8135 13.3662 34.2178C13.6104 33.6221 13.9668 33.085 14.4355 32.6064L26.2422 20.7998C26.2031 20.5752 26.1738 20.3506 26.1543 20.126C26.1348 19.9014 26.125 19.6719 26.125 19.4375C26.125 18.666 26.2227 17.9238 26.418 17.2109C26.6133 16.498 26.8965 15.8242 27.2676 15.1895C27.6387 14.5547 28.083 13.9834 28.6006 13.4756C29.1182 12.9678 29.6895 12.5283 30.3145 12.1572C30.9395 11.7861 31.6084 11.5029 32.3213 11.3076C33.0342 11.1123 33.7812 11.0098 34.5625 11C35.0898 11 35.5732 11.0391 36.0127 11.1172C36.4521 11.1953 36.8818 11.3174 37.3018 11.4834C37.7217 11.6494 38.127 11.8301 38.5176 12.0254C38.9082 12.2207 39.3281 12.4551 39.7773 12.7285L34.0059 18.5L35.5 19.9941L41.2715 14.2227ZM34.5625 26C35.4707 26 36.3203 25.8291 37.1113 25.4873C37.9023 25.1455 38.5957 24.6768 39.1914 24.0811C39.7871 23.4854 40.2559 22.792 40.5977 22.001C40.9395 21.21 41.1152 20.3555 41.125 19.4375C41.125 18.7246 41.0078 18.0361 40.7734 17.3721L35.5 22.6309L31.3691 18.5L36.6279 13.2266C35.9639 12.9922 35.2754 12.875 34.5625 12.875C33.6543 12.875 32.8047 13.0459 32.0137 13.3877C31.2227 13.7295 30.5293 14.1982 29.9336 14.7939C29.3379 15.3896 28.8691 16.083 28.5273 16.874C28.1855 17.665 28.0098 18.5195 28 19.4375C28 19.7793 28.0293 20.1113 28.0879 20.4336C28.1465 20.7559 28.2148 21.0781 28.293 21.4004L15.7686 33.9395C15.4854 34.2227 15.2656 34.5498 15.1094 34.9209C14.9531 35.292 14.875 35.6826 14.875 36.0928C14.875 36.5029 14.9531 36.8936 15.1094 37.2646C15.2656 37.6357 15.4854 37.958 15.7686 38.2314C16.0518 38.5049 16.374 38.7197 16.7354 38.876C17.0967 39.0322 17.4873 39.1152 17.9072 39.125C18.3174 39.125 18.708 39.0469 19.0791 38.8906C19.4502 38.7344 19.7773 38.5146 20.0605 38.2314L32.5996 25.707C32.9219 25.7852 33.2441 25.8535 33.5664 25.9121C33.8887 25.9707 34.2207 26 34.5625 26Z" fill="#F4900C"/>
<path d="M132 83H144.6L153 57H140.4L132 83Z" fill="#414042"/>
<path d="M128.459 65.8421C128.459 65.8421 115.798 49 111.578 49H73.5962L48.2751 70.0526L22.6121 77.5053C19.9956 78.419 16.4928 80.1832 16.0286 82.6842L6.0732 124.789C5.54567 127.509 7.96384 129 10.2934 129H153.78C154.899 129 155.973 128.556 156.764 127.767C157.555 126.977 158 125.906 158 124.789V74.2632C158 65.8421 128.459 65.8421 128.459 65.8421Z" fill="#F4900C"/>
<path d="M74.2749 70L53 129H103.118L124 70H74.2749Z" fill="#3B88C3"/>
<path d="M40 133C49.3888 133 57 125.389 57 116C57 106.611 49.3888 99 40 99C30.6112 99 23 106.611 23 116C23 125.389 30.6112 133 40 133Z" fill="#292F33"/>
<path d="M40 125C44.4183 125 48 121.194 48 116.5C48 111.806 44.4183 108 40 108C35.5817 108 32 111.806 32 116.5C32 121.194 35.5817 125 40 125Z" fill="#58595B"/>
<path d="M128 133C137.389 133 145 125.389 145 116C145 106.611 137.389 99 128 99C118.611 99 111 106.611 111 116C111 125.389 118.611 133 128 133Z" fill="#292F33"/>
<path d="M128.5 125C133.194 125 137 121.194 137 116.5C137 111.806 133.194 108 128.5 108C123.806 108 120 111.806 120 116.5C120 121.194 123.806 125 128.5 125Z" fill="#58595B"/>
<path d="M88.5 112C96.5081 112 103 105.508 103 97.5C103 89.4919 96.5081 83 88.5 83C80.4919 83 74 89.4919 74 97.5C74 105.508 80.4919 112 88.5 112Z" fill="white"/>
<path d="M94.8625 92.2225C94.8625 94.019 94.0905 95.5874 92.5305 96.5895C94.5781 97.5265 96 99.4371 96 101.698C96 105.12 92.8758 108 88.8334 108C84.6204 108 82 104.888 82 102.639C82 101.527 83.166 100.728 84.1898 100.728C86.1277 100.728 85.6686 104.061 88.8862 104.061C89.2362 104.067 89.5838 104.003 89.9087 103.872C90.2336 103.741 90.5292 103.547 90.7782 103.3C91.0272 103.054 91.2246 102.76 91.3588 102.436C91.4929 102.112 91.5612 101.764 91.5595 101.413C91.5595 97.4206 86.7208 100.354 86.7208 96.9888C86.7208 93.9986 90.7632 96.0192 90.7632 92.8499C90.7632 91.7662 89.9994 90.9393 88.7116 90.9393C86.0099 90.9393 86.3796 93.7339 84.4457 93.7339C83.2757 93.7339 82.5932 92.6828 82.5932 91.6237C82.5932 89.3953 85.6402 87 88.7969 87C92.8961 87.0041 94.8625 90.0023 94.8625 92.2225Z" fill="#231F20"/>
<path d="M132 62L136.333 57.5L158 53V62H132Z" fill="#F4900C"/>
<path d="M77.7692 53H111V70H57L77.7692 53Z" fill="#88C9F9"/>
<path d="M32 87C32 88.0609 31.5522 89.0783 30.7552 89.8284C29.9582 90.5786 28.8772 91 27.75 91H19.25C18.1228 91 17.0418 90.5786 16.2448 89.8284C15.4478 89.0783 15 88.0609 15 87C15 85.9391 15.4478 84.9217 16.2448 84.1716C17.0418 83.4214 18.1228 83 19.25 83H27.75C28.8772 83 29.9582 83.4214 30.7552 84.1716C31.5522 84.9217 32 85.9391 32 87Z" fill="#FFCC4D"/>
<path d="M158 78H153.5C152.307 78 151.162 78.4565 150.318 79.2692C149.474 80.0819 149 81.1841 149 82.3333V86.6667C149 87.8159 149.474 88.9181 150.318 89.7308C151.162 90.5435 152.307 91 153.5 91H158V78Z" fill="#DD2E44"/>
<rect x="1" y="138" width="166.154" height="59.8154" rx="17.7231" fill="#F4900C"/>
<rect x="1" y="139.108" width="166.154" height="25.4769" fill="#F4900C"/>
<path d="M29.846 159.83H25.59L24.806 162H23.462L26.99 152.298H28.46L31.974 162H30.63L29.846 159.83ZM29.482 158.794L27.718 153.866L25.954 158.794H29.482ZM40.3156 154.328V162H39.0416V160.866C38.7989 161.258 38.4583 161.566 38.0196 161.79C37.5903 162.005 37.1143 162.112 36.5916 162.112C35.9943 162.112 35.4576 161.991 34.9816 161.748C34.5056 161.496 34.1276 161.123 33.8476 160.628C33.5769 160.133 33.4416 159.531 33.4416 158.822V154.328H34.7016V158.654C34.7016 159.41 34.8929 159.993 35.2756 160.404C35.6583 160.805 36.1809 161.006 36.8436 161.006C37.5249 161.006 38.0616 160.796 38.4536 160.376C38.8456 159.956 39.0416 159.345 39.0416 158.542V154.328H40.3156ZM44.0207 155.378V159.9C44.0207 160.273 44.1 160.539 44.2587 160.698C44.4173 160.847 44.6927 160.922 45.0847 160.922H46.0227V162H44.8747C44.1653 162 43.6333 161.837 43.2787 161.51C42.924 161.183 42.7467 160.647 42.7467 159.9V155.378H41.7527V154.328H42.7467V152.396H44.0207V154.328H46.0227V155.378H44.0207ZM50.9123 162.126C50.1936 162.126 49.5403 161.963 48.9523 161.636C48.3736 161.309 47.9163 160.847 47.5803 160.25C47.2536 159.643 47.0903 158.943 47.0903 158.15C47.0903 157.366 47.2583 156.675 47.5943 156.078C47.9396 155.471 48.4063 155.009 48.9943 154.692C49.5823 154.365 50.2403 154.202 50.9683 154.202C51.6963 154.202 52.3543 154.365 52.9423 154.692C53.5303 155.009 53.9923 155.467 54.3283 156.064C54.6736 156.661 54.8463 157.357 54.8463 158.15C54.8463 158.943 54.6689 159.643 54.3143 160.25C53.9689 160.847 53.4976 161.309 52.9003 161.636C52.3029 161.963 51.6403 162.126 50.9123 162.126ZM50.9123 161.006C51.3696 161.006 51.7989 160.899 52.2003 160.684C52.6016 160.469 52.9236 160.147 53.1663 159.718C53.4183 159.289 53.5443 158.766 53.5443 158.15C53.5443 157.534 53.4229 157.011 53.1803 156.582C52.9376 156.153 52.6203 155.835 52.2283 155.63C51.8363 155.415 51.4116 155.308 50.9543 155.308C50.4876 155.308 50.0583 155.415 49.6663 155.63C49.2836 155.835 48.9756 156.153 48.7423 156.582C48.5089 157.011 48.3923 157.534 48.3923 158.15C48.3923 158.775 48.5043 159.303 48.7283 159.732C48.9616 160.161 49.2696 160.483 49.6523 160.698C50.0349 160.903 50.4549 161.006 50.9123 161.006ZM65.7474 154.188C66.3447 154.188 66.8767 154.314 67.3434 154.566C67.81 154.809 68.1787 155.177 68.4494 155.672C68.72 156.167 68.8554 156.769 68.8554 157.478V162H67.5954V157.66C67.5954 156.895 67.404 156.311 67.0214 155.91C66.648 155.499 66.1394 155.294 65.4954 155.294C64.8327 155.294 64.3054 155.509 63.9134 155.938C63.5214 156.358 63.3254 156.969 63.3254 157.772V162H62.0654V157.66C62.0654 156.895 61.874 156.311 61.4914 155.91C61.118 155.499 60.6094 155.294 59.9654 155.294C59.3027 155.294 58.7754 155.509 58.3834 155.938C57.9914 156.358 57.7954 156.969 57.7954 157.772V162H56.5214V154.328H57.7954V155.434C58.0474 155.033 58.3834 154.725 58.8034 154.51C59.2327 154.295 59.704 154.188 60.2174 154.188C60.8614 154.188 61.4307 154.333 61.9254 154.622C62.42 154.911 62.7887 155.336 63.0314 155.896C63.246 155.355 63.6007 154.935 64.0954 154.636C64.59 154.337 65.1407 154.188 65.7474 154.188ZM74.2912 162.126C73.5725 162.126 72.9192 161.963 72.3312 161.636C71.7525 161.309 71.2952 160.847 70.9592 160.25C70.6325 159.643 70.4692 158.943 70.4692 158.15C70.4692 157.366 70.6372 156.675 70.9732 156.078C71.3185 155.471 71.7852 155.009 72.3732 154.692C72.9612 154.365 73.6192 154.202 74.3472 154.202C75.0752 154.202 75.7332 154.365 76.3212 154.692C76.9092 155.009 77.3712 155.467 77.7072 156.064C78.0525 156.661 78.2252 157.357 78.2252 158.15C78.2252 158.943 78.0479 159.643 77.6932 160.25C77.3479 160.847 76.8765 161.309 76.2792 161.636C75.6819 161.963 75.0192 162.126 74.2912 162.126ZM74.2912 161.006C74.7485 161.006 75.1779 160.899 75.5792 160.684C75.9805 160.469 76.3025 160.147 76.5452 159.718C76.7972 159.289 76.9232 158.766 76.9232 158.15C76.9232 157.534 76.8019 157.011 76.5592 156.582C76.3165 156.153 75.9992 155.835 75.6072 155.63C75.2152 155.415 74.7905 155.308 74.3332 155.308C73.8665 155.308 73.4372 155.415 73.0452 155.63C72.6625 155.835 72.3545 156.153 72.1212 156.582C71.8879 157.011 71.7712 157.534 71.7712 158.15C71.7712 158.775 71.8832 159.303 72.1072 159.732C72.3405 160.161 72.6485 160.483 73.0312 160.698C73.4139 160.903 73.8339 161.006 74.2912 161.006ZM81.4543 155.378V159.9C81.4543 160.273 81.5336 160.539 81.6923 160.698C81.8509 160.847 82.1263 160.922 82.5183 160.922H83.4563V162H82.3083C81.5989 162 81.0669 161.837 80.7123 161.51C80.3576 161.183 80.1803 160.647 80.1803 159.9V155.378H79.1863V154.328H80.1803V152.396H81.4543V154.328H83.4563V155.378H81.4543ZM85.6579 153.082C85.4152 153.082 85.2099 152.998 85.0419 152.83C84.8739 152.662 84.7899 152.457 84.7899 152.214C84.7899 151.971 84.8739 151.766 85.0419 151.598C85.2099 151.43 85.4152 151.346 85.6579 151.346C85.8912 151.346 86.0872 151.43 86.2459 151.598C86.4139 151.766 86.4979 151.971 86.4979 152.214C86.4979 152.457 86.4139 152.662 86.2459 152.83C86.0872 152.998 85.8912 153.082 85.6579 153.082ZM86.2739 154.328V162H84.9999V154.328H86.2739ZM91.3012 160.824L93.6812 154.328H95.0392L92.0292 162H90.5452L87.5352 154.328H88.9072L91.3012 160.824ZM103.293 157.87C103.293 158.113 103.279 158.369 103.251 158.64H97.1188C97.1655 159.396 97.4222 159.989 97.8888 160.418C98.3648 160.838 98.9388 161.048 99.6108 161.048C100.162 161.048 100.619 160.922 100.983 160.67C101.356 160.409 101.618 160.063 101.767 159.634H103.139C102.934 160.371 102.523 160.973 101.907 161.44C101.291 161.897 100.526 162.126 99.6108 162.126C98.8828 162.126 98.2295 161.963 97.6508 161.636C97.0815 161.309 96.6335 160.847 96.3068 160.25C95.9802 159.643 95.8168 158.943 95.8168 158.15C95.8168 157.357 95.9755 156.661 96.2928 156.064C96.6102 155.467 97.0535 155.009 97.6228 154.692C98.2015 154.365 98.8642 154.202 99.6108 154.202C100.339 154.202 100.983 154.361 101.543 154.678C102.103 154.995 102.532 155.434 102.831 155.994C103.139 156.545 103.293 157.17 103.293 157.87ZM101.977 157.604C101.977 157.119 101.87 156.703 101.655 156.358C101.44 156.003 101.146 155.737 100.773 155.56C100.409 155.373 100.003 155.28 99.5548 155.28C98.9108 155.28 98.3602 155.485 97.9028 155.896C97.4548 156.307 97.1982 156.876 97.1328 157.604H101.977ZM115.231 155.098C115.231 155.91 114.951 156.587 114.391 157.128C113.84 157.66 112.996 157.926 111.857 157.926H109.981V162H108.707V152.242H111.857C112.958 152.242 113.794 152.508 114.363 153.04C114.942 153.572 115.231 154.258 115.231 155.098ZM111.857 156.876C112.566 156.876 113.089 156.722 113.425 156.414C113.761 156.106 113.929 155.667 113.929 155.098C113.929 153.894 113.238 153.292 111.857 153.292H109.981V156.876H111.857ZM116.338 158.136C116.338 157.352 116.497 156.666 116.814 156.078C117.132 155.481 117.566 155.019 118.116 154.692C118.676 154.365 119.297 154.202 119.978 154.202C120.65 154.202 121.234 154.347 121.728 154.636C122.223 154.925 122.592 155.289 122.834 155.728V154.328H124.122V162H122.834V160.572C122.582 161.02 122.204 161.393 121.7 161.692C121.206 161.981 120.627 162.126 119.964 162.126C119.283 162.126 118.667 161.958 118.116 161.622C117.566 161.286 117.132 160.815 116.814 160.208C116.497 159.601 116.338 158.911 116.338 158.136ZM122.834 158.15C122.834 157.571 122.718 157.067 122.484 156.638C122.251 156.209 121.934 155.882 121.532 155.658C121.14 155.425 120.706 155.308 120.23 155.308C119.754 155.308 119.32 155.42 118.928 155.644C118.536 155.868 118.224 156.195 117.99 156.624C117.757 157.053 117.64 157.557 117.64 158.136C117.64 158.724 117.757 159.237 117.99 159.676C118.224 160.105 118.536 160.437 118.928 160.67C119.32 160.894 119.754 161.006 120.23 161.006C120.706 161.006 121.14 160.894 121.532 160.67C121.934 160.437 122.251 160.105 122.484 159.676C122.718 159.237 122.834 158.729 122.834 158.15ZM127.549 155.574C127.773 155.135 128.091 154.795 128.501 154.552C128.921 154.309 129.43 154.188 130.027 154.188V155.504H129.691C128.263 155.504 127.549 156.279 127.549 157.828V162H126.275V154.328H127.549V155.574ZM133.052 155.378V159.9C133.052 160.273 133.131 160.539 133.29 160.698C133.449 160.847 133.724 160.922 134.116 160.922H135.054V162H133.906C133.197 162 132.665 161.837 132.31 161.51C131.955 161.183 131.778 160.647 131.778 159.9V155.378H130.784V154.328H131.778V152.396H133.052V154.328H135.054V155.378H133.052ZM139.314 162.126C138.726 162.126 138.198 162.028 137.732 161.832C137.265 161.627 136.896 161.347 136.626 160.992C136.355 160.628 136.206 160.213 136.178 159.746H137.494C137.531 160.129 137.708 160.441 138.026 160.684C138.352 160.927 138.777 161.048 139.3 161.048C139.785 161.048 140.168 160.941 140.448 160.726C140.728 160.511 140.868 160.241 140.868 159.914C140.868 159.578 140.718 159.331 140.42 159.172C140.121 159.004 139.659 158.841 139.034 158.682C138.464 158.533 137.998 158.383 137.634 158.234C137.279 158.075 136.971 157.847 136.71 157.548C136.458 157.24 136.332 156.839 136.332 156.344C136.332 155.952 136.448 155.593 136.682 155.266C136.915 154.939 137.246 154.683 137.676 154.496C138.105 154.3 138.595 154.202 139.146 154.202C139.995 154.202 140.681 154.417 141.204 154.846C141.726 155.275 142.006 155.863 142.044 156.61H140.77C140.742 156.209 140.578 155.887 140.28 155.644C139.99 155.401 139.598 155.28 139.104 155.28C138.646 155.28 138.282 155.378 138.012 155.574C137.741 155.77 137.606 156.027 137.606 156.344C137.606 156.596 137.685 156.806 137.844 156.974C138.012 157.133 138.217 157.263 138.46 157.366C138.712 157.459 139.057 157.567 139.496 157.688C140.046 157.837 140.494 157.987 140.84 158.136C141.185 158.276 141.479 158.491 141.722 158.78C141.974 159.069 142.104 159.447 142.114 159.914C142.114 160.334 141.997 160.712 141.764 161.048C141.53 161.384 141.199 161.65 140.77 161.846C140.35 162.033 139.864 162.126 139.314 162.126ZM148.672 148.812L144.836 164.38H143.576L147.398 148.812H148.672ZM27.172 183.098C26.528 183.098 25.9493 182.986 25.436 182.762C24.932 182.529 24.5353 182.211 24.246 181.81C23.9567 181.399 23.8073 180.928 23.798 180.396H25.156C25.2027 180.853 25.3893 181.241 25.716 181.558C26.052 181.866 26.5373 182.02 27.172 182.02C27.7787 182.02 28.2547 181.871 28.6 181.572C28.9547 181.264 29.132 180.872 29.132 180.396C29.132 180.023 29.0293 179.719 28.824 179.486C28.6187 179.253 28.362 179.075 28.054 178.954C27.746 178.833 27.3307 178.702 26.808 178.562C26.164 178.394 25.646 178.226 25.254 178.058C24.8713 177.89 24.54 177.629 24.26 177.274C23.9893 176.91 23.854 176.425 23.854 175.818C23.854 175.286 23.9893 174.815 24.26 174.404C24.5307 173.993 24.9087 173.676 25.394 173.452C25.8887 173.228 26.4533 173.116 27.088 173.116C28.0027 173.116 28.7493 173.345 29.328 173.802C29.916 174.259 30.2473 174.866 30.322 175.622H28.922C28.8753 175.249 28.6793 174.922 28.334 174.642C27.9887 174.353 27.5313 174.208 26.962 174.208C26.43 174.208 25.996 174.348 25.66 174.628C25.324 174.899 25.156 175.281 25.156 175.776C25.156 176.131 25.254 176.42 25.45 176.644C25.6553 176.868 25.9027 177.041 26.192 177.162C26.4907 177.274 26.906 177.405 27.438 177.554C28.082 177.731 28.6 177.909 28.992 178.086C29.384 178.254 29.72 178.52 30 178.884C30.28 179.239 30.42 179.724 30.42 180.34C30.42 180.816 30.294 181.264 30.042 181.684C29.79 182.104 29.4167 182.445 28.922 182.706C28.4273 182.967 27.844 183.098 27.172 183.098ZM39.2948 178.87C39.2948 179.113 39.2808 179.369 39.2528 179.64H33.1208C33.1675 180.396 33.4241 180.989 33.8908 181.418C34.3668 181.838 34.9408 182.048 35.6128 182.048C36.1635 182.048 36.6208 181.922 36.9848 181.67C37.3581 181.409 37.6195 181.063 37.7688 180.634H39.1408C38.9355 181.371 38.5248 181.973 37.9088 182.44C37.2928 182.897 36.5275 183.126 35.6128 183.126C34.8848 183.126 34.2315 182.963 33.6528 182.636C33.0835 182.309 32.6355 181.847 32.3088 181.25C31.9821 180.643 31.8188 179.943 31.8188 179.15C31.8188 178.357 31.9775 177.661 32.2948 177.064C32.6121 176.467 33.0555 176.009 33.6248 175.692C34.2035 175.365 34.8661 175.202 35.6128 175.202C36.3408 175.202 36.9848 175.361 37.5448 175.678C38.1048 175.995 38.5341 176.434 38.8328 176.994C39.1408 177.545 39.2948 178.17 39.2948 178.87ZM37.9788 178.604C37.9788 178.119 37.8715 177.703 37.6568 177.358C37.4421 177.003 37.1481 176.737 36.7748 176.56C36.4108 176.373 36.0048 176.28 35.5568 176.28C34.9128 176.28 34.3621 176.485 33.9048 176.896C33.4568 177.307 33.2001 177.876 33.1348 178.604H37.9788ZM42.2504 176.574C42.4744 176.135 42.7918 175.795 43.2024 175.552C43.6224 175.309 44.1311 175.188 44.7284 175.188V176.504H44.3924C42.9644 176.504 42.2504 177.279 42.2504 178.828V183H40.9764V175.328H42.2504V176.574ZM49.0551 181.824L51.4351 175.328H52.7931L49.7831 183H48.2991L45.2891 175.328H46.6611L49.0551 181.824ZM54.7048 174.082C54.4621 174.082 54.2568 173.998 54.0888 173.83C53.9208 173.662 53.8368 173.457 53.8368 173.214C53.8368 172.971 53.9208 172.766 54.0888 172.598C54.2568 172.43 54.4621 172.346 54.7048 172.346C54.9381 172.346 55.1341 172.43 55.2928 172.598C55.4608 172.766 55.5448 172.971 55.5448 173.214C55.5448 173.457 55.4608 173.662 55.2928 173.83C55.1341 173.998 54.9381 174.082 54.7048 174.082ZM55.3208 175.328V183H54.0468V175.328H55.3208ZM57.0161 179.15C57.0161 178.357 57.1747 177.666 57.4921 177.078C57.8094 176.481 58.2481 176.019 58.8081 175.692C59.3774 175.365 60.0261 175.202 60.7541 175.202C61.6967 175.202 62.4714 175.431 63.0781 175.888C63.6941 176.345 64.1001 176.98 64.2961 177.792H62.9241C62.7934 177.325 62.5367 176.957 62.1541 176.686C61.7807 176.415 61.3141 176.28 60.7541 176.28C60.0261 176.28 59.4381 176.532 58.9901 177.036C58.5421 177.531 58.3181 178.235 58.3181 179.15C58.3181 180.074 58.5421 180.788 58.9901 181.292C59.4381 181.796 60.0261 182.048 60.7541 182.048C61.3141 182.048 61.7807 181.917 62.1541 181.656C62.5274 181.395 62.7841 181.021 62.9241 180.536H64.2961C64.0907 181.32 63.6801 181.95 63.0641 182.426C62.4481 182.893 61.6781 183.126 60.7541 183.126C60.0261 183.126 59.3774 182.963 58.8081 182.636C58.2481 182.309 57.8094 181.847 57.4921 181.25C57.1747 180.653 57.0161 179.953 57.0161 179.15ZM72.996 178.87C72.996 179.113 72.982 179.369 72.954 179.64H66.822C66.8686 180.396 67.1253 180.989 67.592 181.418C68.068 181.838 68.642 182.048 69.314 182.048C69.8646 182.048 70.322 181.922 70.686 181.67C71.0593 181.409 71.3206 181.063 71.47 180.634H72.842C72.6366 181.371 72.226 181.973 71.61 182.44C70.994 182.897 70.2286 183.126 69.314 183.126C68.586 183.126 67.9326 182.963 67.354 182.636C66.7846 182.309 66.3366 181.847 66.01 181.25C65.6833 180.643 65.52 179.943 65.52 179.15C65.52 178.357 65.6786 177.661 65.996 177.064C66.3133 176.467 66.7566 176.009 67.326 175.692C67.9046 175.365 68.5673 175.202 69.314 175.202C70.042 175.202 70.686 175.361 71.246 175.678C71.806 175.995 72.2353 176.434 72.534 176.994C72.842 177.545 72.996 178.17 72.996 178.87ZM71.68 178.604C71.68 178.119 71.5726 177.703 71.358 177.358C71.1433 177.003 70.8493 176.737 70.476 176.56C70.112 176.373 69.706 176.28 69.258 176.28C68.614 176.28 68.0633 176.485 67.606 176.896C67.158 177.307 66.9013 177.876 66.836 178.604H71.68ZM77.3936 183.126C76.8056 183.126 76.2783 183.028 75.8116 182.832C75.3449 182.627 74.9763 182.347 74.7056 181.992C74.4349 181.628 74.2856 181.213 74.2576 180.746H75.5736C75.6109 181.129 75.7883 181.441 76.1056 181.684C76.4323 181.927 76.8569 182.048 77.3796 182.048C77.8649 182.048 78.2476 181.941 78.5276 181.726C78.8076 181.511 78.9476 181.241 78.9476 180.914C78.9476 180.578 78.7983 180.331 78.4996 180.172C78.2009 180.004 77.7389 179.841 77.1136 179.682C76.5443 179.533 76.0776 179.383 75.7136 179.234C75.3589 179.075 75.0509 178.847 74.7896 178.548C74.5376 178.24 74.4116 177.839 74.4116 177.344C74.4116 176.952 74.5283 176.593 74.7616 176.266C74.9949 175.939 75.3263 175.683 75.7556 175.496C76.1849 175.3 76.6749 175.202 77.2256 175.202C78.0749 175.202 78.7609 175.417 79.2836 175.846C79.8063 176.275 80.0863 176.863 80.1236 177.61H78.8496C78.8216 177.209 78.6583 176.887 78.3596 176.644C78.0703 176.401 77.6783 176.28 77.1836 176.28C76.7263 176.28 76.3623 176.378 76.0916 176.574C75.8209 176.77 75.6856 177.027 75.6856 177.344C75.6856 177.596 75.7649 177.806 75.9236 177.974C76.0916 178.133 76.2969 178.263 76.5396 178.366C76.7916 178.459 77.1369 178.567 77.5756 178.688C78.1263 178.837 78.5743 178.987 78.9196 179.136C79.2649 179.276 79.5589 179.491 79.8016 179.78C80.0536 180.069 80.1843 180.447 80.1936 180.914C80.1936 181.334 80.0769 181.712 79.8436 182.048C79.6103 182.384 79.2789 182.65 78.8496 182.846C78.4296 183.033 77.9443 183.126 77.3936 183.126ZM87.3121 177.33V178.408H81.7261V177.33H87.3121ZM92.9174 180.746V179.78L97.8314 172.976H99.3574V179.64H100.757V180.746H99.3574V183H98.0974V180.746H92.9174ZM98.1534 174.306L94.3874 179.64H98.1534V174.306ZM118.237 173.242L115.409 183H113.981L111.713 175.146L109.361 183L107.947 183.014L105.217 173.242H106.575L108.703 181.516L111.055 173.242H112.483L114.723 181.488L116.865 173.242H118.237ZM123.439 175.188C124.017 175.188 124.54 175.314 125.007 175.566C125.473 175.809 125.837 176.177 126.099 176.672C126.369 177.167 126.505 177.769 126.505 178.478V183H125.245V178.66C125.245 177.895 125.053 177.311 124.671 176.91C124.288 176.499 123.765 176.294 123.103 176.294C122.431 176.294 121.894 176.504 121.493 176.924C121.101 177.344 120.905 177.955 120.905 178.758V183H119.631V172.64H120.905V176.42C121.157 176.028 121.502 175.725 121.941 175.51C122.389 175.295 122.888 175.188 123.439 175.188ZM135.586 178.87C135.586 179.113 135.572 179.369 135.544 179.64H129.412C129.458 180.396 129.715 180.989 130.182 181.418C130.658 181.838 131.232 182.048 131.904 182.048C132.454 182.048 132.912 181.922 133.276 181.67C133.649 181.409 133.91 181.063 134.06 180.634H135.432C135.226 181.371 134.816 181.973 134.2 182.44C133.584 182.897 132.818 183.126 131.904 183.126C131.176 183.126 130.522 182.963 129.944 182.636C129.374 182.309 128.926 181.847 128.6 181.25C128.273 180.643 128.11 179.943 128.11 179.15C128.11 178.357 128.268 177.661 128.586 177.064C128.903 176.467 129.346 176.009 129.916 175.692C130.494 175.365 131.157 175.202 131.904 175.202C132.632 175.202 133.276 175.361 133.836 175.678C134.396 175.995 134.825 176.434 135.124 176.994C135.432 177.545 135.586 178.17 135.586 178.87ZM134.27 178.604C134.27 178.119 134.162 177.703 133.948 177.358C133.733 177.003 133.439 176.737 133.066 176.56C132.702 176.373 132.296 176.28 131.848 176.28C131.204 176.28 130.653 176.485 130.196 176.896C129.748 177.307 129.491 177.876 129.426 178.604H134.27ZM144.267 178.87C144.267 179.113 144.253 179.369 144.225 179.64H138.093C138.14 180.396 138.397 180.989 138.863 181.418C139.339 181.838 139.913 182.048 140.585 182.048C141.136 182.048 141.593 181.922 141.957 181.67C142.331 181.409 142.592 181.063 142.741 180.634H144.113C143.908 181.371 143.497 181.973 142.881 182.44C142.265 182.897 141.5 183.126 140.585 183.126C139.857 183.126 139.204 182.963 138.625 182.636C138.056 182.309 137.608 181.847 137.281 181.25C136.955 180.643 136.791 179.943 136.791 179.15C136.791 178.357 136.95 177.661 137.267 177.064C137.585 176.467 138.028 176.009 138.597 175.692C139.176 175.365 139.839 175.202 140.585 175.202C141.313 175.202 141.957 175.361 142.517 175.678C143.077 175.995 143.507 176.434 143.805 176.994C144.113 177.545 144.267 178.17 144.267 178.87ZM142.951 178.604C142.951 178.119 142.844 177.703 142.629 177.358C142.415 177.003 142.121 176.737 141.747 176.56C141.383 176.373 140.977 176.28 140.529 176.28C139.885 176.28 139.335 176.485 138.877 176.896C138.429 177.307 138.173 177.876 138.107 178.604H142.951ZM147.223 172.64V183H145.949V172.64H147.223Z" fill="white"/>
</g>
<defs>
<clipPath id="clip0_3534_243">
<rect width="167" height="199" rx="17.72" fill="white"/>
</clipPath>
</defs>
</svg>
