<svg width="167" height="203" viewBox="0 0 167 203" fill="none" xmlns="http://www.w3.org/2000/svg">
<rect width="166.154" height="202.708" rx="17.7231" fill="white"/>
<path d="M18.96 83.136V81.48L27.384 69.816H30V81.24H32.4V83.136H30V87H27.84V83.136H18.96ZM27.936 72.096L21.48 81.24H27.936V72.096ZM45.6458 71.544H37.2218V77.016C37.5898 76.504 38.1338 76.088 38.8538 75.768C39.5738 75.432 40.3498 75.264 41.1818 75.264C42.5098 75.264 43.5898 75.544 44.4218 76.104C45.2538 76.648 45.8458 77.36 46.1978 78.24C46.5658 79.104 46.7498 80.024 46.7498 81C46.7498 82.152 46.5338 83.184 46.1018 84.096C45.6698 85.008 45.0058 85.728 44.1098 86.256C43.2298 86.784 42.1338 87.048 40.8218 87.048C39.1418 87.048 37.7818 86.616 36.7418 85.752C35.7018 84.888 35.0698 83.736 34.8458 82.296H36.9818C37.1898 83.208 37.6298 83.92 38.3018 84.432C38.9738 84.944 39.8218 85.2 40.8458 85.2C42.1098 85.2 43.0618 84.824 43.7018 84.072C44.3418 83.304 44.6618 82.296 44.6618 81.048C44.6618 79.8 44.3418 78.84 43.7018 78.168C43.0618 77.48 42.1178 77.136 40.8698 77.136C40.0218 77.136 39.2778 77.344 38.6378 77.76C38.0138 78.16 37.5578 78.712 37.2698 79.416H35.2058V69.624H45.6458V71.544ZM68.8905 79.152H63.7785V84.336H61.7385V79.152H56.6505V77.304H61.7385V72.096H63.7785V77.304H68.8905V79.152ZM19.032 114.624C19.032 112.992 19.4 111.528 20.136 110.232C20.872 108.92 21.872 107.896 23.136 107.16C24.416 106.424 25.832 106.056 27.384 106.056C29.208 106.056 30.8 106.496 32.16 107.376C33.52 108.256 34.512 109.504 35.136 111.12H32.52C32.056 110.112 31.384 109.336 30.504 108.792C29.64 108.248 28.6 107.976 27.384 107.976C26.216 107.976 25.168 108.248 24.24 108.792C23.312 109.336 22.584 110.112 22.056 111.12C21.528 112.112 21.264 113.28 21.264 114.624C21.264 115.952 21.528 117.12 22.056 118.128C22.584 119.12 23.312 119.888 24.24 120.432C25.168 120.976 26.216 121.248 27.384 121.248C28.6 121.248 29.64 120.984 30.504 120.456C31.384 119.912 32.056 119.136 32.52 118.128H35.136C34.512 119.728 33.52 120.968 32.16 121.848C30.8 122.712 29.208 123.144 27.384 123.144C25.832 123.144 24.416 122.784 23.136 122.064C21.872 121.328 20.872 120.312 20.136 119.016C19.4 117.72 19.032 116.256 19.032 114.624ZM37.5711 116.376C37.5711 115.032 37.8431 113.856 38.3871 112.848C38.9311 111.824 39.6751 111.032 40.6191 110.472C41.5791 109.912 42.6431 109.632 43.8111 109.632C44.9631 109.632 45.9631 109.88 46.8111 110.376C47.6591 110.872 48.2911 111.496 48.7071 112.248V109.848H50.9151V123H48.7071V120.552C48.2751 121.32 47.6271 121.96 46.7631 122.472C45.9151 122.968 44.9231 123.216 43.7871 123.216C42.6191 123.216 41.5631 122.928 40.6191 122.352C39.6751 121.776 38.9311 120.968 38.3871 119.928C37.8431 118.888 37.5711 117.704 37.5711 116.376ZM48.7071 116.4C48.7071 115.408 48.5071 114.544 48.1071 113.808C47.7071 113.072 47.1631 112.512 46.4751 112.128C45.8031 111.728 45.0591 111.528 44.2431 111.528C43.4271 111.528 42.6831 111.72 42.0111 112.104C41.3391 112.488 40.8031 113.048 40.4031 113.784C40.0031 114.52 39.8031 115.384 39.8031 116.376C39.8031 117.384 40.0031 118.264 40.4031 119.016C40.8031 119.752 41.3391 120.32 42.0111 120.72C42.6831 121.104 43.4271 121.296 44.2431 121.296C45.0591 121.296 45.8031 121.104 46.4751 120.72C47.1631 120.32 47.7071 119.752 48.1071 119.016C48.5071 118.264 48.7071 117.392 48.7071 116.4ZM57.2698 111.648V119.4C57.2698 120.04 57.4058 120.496 57.6778 120.768C57.9498 121.024 58.4218 121.152 59.0938 121.152H60.7018V123H58.7338C57.5178 123 56.6058 122.72 55.9978 122.16C55.3898 121.6 55.0858 120.68 55.0858 119.4V111.648H53.3818V109.848H55.0858V106.536H57.2698V109.848H60.7018V111.648H57.2698ZM75.348 115.92C75.348 116.336 75.324 116.776 75.276 117.24H64.764C64.844 118.536 65.284 119.552 66.084 120.288C66.9 121.008 67.884 121.368 69.036 121.368C69.98 121.368 70.764 121.152 71.388 120.72C72.028 120.272 72.476 119.68 72.732 118.944H75.084C74.732 120.208 74.028 121.24 72.972 122.04C71.916 122.824 70.604 123.216 69.036 123.216C67.788 123.216 66.668 122.936 65.676 122.376C64.7 121.816 63.932 121.024 63.372 120C62.812 118.96 62.532 117.76 62.532 116.4C62.532 115.04 62.804 113.848 63.348 112.824C63.892 111.8 64.652 111.016 65.628 110.472C66.62 109.912 67.756 109.632 69.036 109.632C70.284 109.632 71.388 109.904 72.348 110.448C73.308 110.992 74.044 111.744 74.556 112.704C75.084 113.648 75.348 114.72 75.348 115.92ZM73.092 115.464C73.092 114.632 72.908 113.92 72.54 113.328C72.172 112.72 71.668 112.264 71.028 111.96C70.404 111.64 69.708 111.48 68.94 111.48C67.836 111.48 66.892 111.832 66.108 112.536C65.34 113.24 64.9 114.216 64.788 115.464H73.092ZM83.6548 109.632C84.7908 109.632 85.7828 109.88 86.6308 110.376C87.4948 110.872 88.1348 111.496 88.5508 112.248V109.848H90.7588V123.288C90.7588 124.488 90.5028 125.552 89.9908 126.48C89.4788 127.424 88.7428 128.16 87.7828 128.688C86.8388 129.216 85.7348 129.48 84.4708 129.48C82.7428 129.48 81.3028 129.072 80.1508 128.256C78.9988 127.44 78.3188 126.328 78.1108 124.92H80.2708C80.5108 125.72 81.0068 126.36 81.7588 126.84C82.5108 127.336 83.4148 127.584 84.4708 127.584C85.6708 127.584 86.6468 127.208 87.3988 126.456C88.1668 125.704 88.5508 124.648 88.5508 123.288V120.528C88.1188 121.296 87.4788 121.936 86.6308 122.448C85.7828 122.96 84.7908 123.216 83.6548 123.216C82.4868 123.216 81.4228 122.928 80.4628 122.352C79.5188 121.776 78.7748 120.968 78.2308 119.928C77.6868 118.888 77.4148 117.704 77.4148 116.376C77.4148 115.032 77.6868 113.856 78.2308 112.848C78.7748 111.824 79.5188 111.032 80.4628 110.472C81.4228 109.912 82.4868 109.632 83.6548 109.632ZM88.5508 116.4C88.5508 115.408 88.3508 114.544 87.9508 113.808C87.5508 113.072 87.0068 112.512 86.3188 112.128C85.6468 111.728 84.9028 111.528 84.0868 111.528C83.2708 111.528 82.5268 111.72 81.8548 112.104C81.1828 112.488 80.6468 113.048 80.2468 113.784C79.8468 114.52 79.6468 115.384 79.6468 116.376C79.6468 117.384 79.8468 118.264 80.2468 119.016C80.6468 119.752 81.1828 120.32 81.8548 120.72C82.5268 121.104 83.2708 121.296 84.0868 121.296C84.9028 121.296 85.6468 121.104 86.3188 120.72C87.0068 120.32 87.5508 119.752 87.9508 119.016C88.3508 118.264 88.5508 117.392 88.5508 116.4ZM100.186 123.216C98.9536 123.216 97.8336 122.936 96.8256 122.376C95.8336 121.816 95.0496 121.024 94.4736 120C93.9136 118.96 93.6336 117.76 93.6336 116.4C93.6336 115.056 93.9216 113.872 94.4976 112.848C95.0896 111.808 95.8896 111.016 96.8976 110.472C97.9056 109.912 99.0336 109.632 100.282 109.632C101.53 109.632 102.658 109.912 103.666 110.472C104.674 111.016 105.466 111.8 106.042 112.824C106.634 113.848 106.93 115.04 106.93 116.4C106.93 117.76 106.626 118.96 106.018 120C105.426 121.024 104.618 121.816 103.594 122.376C102.57 122.936 101.434 123.216 100.186 123.216ZM100.186 121.296C100.97 121.296 101.706 121.112 102.394 120.744C103.082 120.376 103.634 119.824 104.05 119.088C104.482 118.352 104.698 117.456 104.698 116.4C104.698 115.344 104.49 114.448 104.074 113.712C103.658 112.976 103.114 112.432 102.442 112.08C101.77 111.712 101.042 111.528 100.258 111.528C99.4576 111.528 98.7216 111.712 98.0496 112.08C97.3936 112.432 96.8656 112.976 96.4656 113.712C96.0656 114.448 95.8656 115.344 95.8656 116.4C95.8656 117.472 96.0576 118.376 96.4416 119.112C96.8416 119.848 97.3696 120.4 98.0256 120.768C98.6816 121.12 99.4016 121.296 100.186 121.296ZM111.985 111.984C112.369 111.232 112.913 110.648 113.617 110.232C114.337 109.816 115.209 109.608 116.233 109.608V111.864H115.657C113.209 111.864 111.985 113.192 111.985 115.848V123H109.801V109.848H111.985V111.984ZM119.882 107.712C119.466 107.712 119.114 107.568 118.826 107.28C118.538 106.992 118.394 106.64 118.394 106.224C118.394 105.808 118.538 105.456 118.826 105.168C119.114 104.88 119.466 104.736 119.882 104.736C120.282 104.736 120.618 104.88 120.89 105.168C121.178 105.456 121.322 105.808 121.322 106.224C121.322 106.64 121.178 106.992 120.89 107.28C120.618 107.568 120.282 107.712 119.882 107.712ZM120.938 109.848V123H118.754V109.848H120.938ZM136.661 115.92C136.661 116.336 136.637 116.776 136.589 117.24H126.077C126.157 118.536 126.597 119.552 127.397 120.288C128.213 121.008 129.197 121.368 130.349 121.368C131.293 121.368 132.077 121.152 132.701 120.72C133.341 120.272 133.789 119.68 134.045 118.944H136.397C136.045 120.208 135.341 121.24 134.285 122.04C133.229 122.824 131.917 123.216 130.349 123.216C129.101 123.216 127.981 122.936 126.989 122.376C126.013 121.816 125.245 121.024 124.685 120C124.125 118.96 123.845 117.76 123.845 116.4C123.845 115.04 124.117 113.848 124.661 112.824C125.205 111.8 125.965 111.016 126.941 110.472C127.933 109.912 129.069 109.632 130.349 109.632C131.597 109.632 132.701 109.904 133.661 110.448C134.621 110.992 135.357 111.744 135.869 112.704C136.397 113.648 136.661 114.72 136.661 115.92ZM134.405 115.464C134.405 114.632 134.221 113.92 133.853 113.328C133.485 112.72 132.981 112.264 132.341 111.96C131.717 111.64 131.021 111.48 130.253 111.48C129.149 111.48 128.205 111.832 127.421 112.536C126.653 113.24 126.213 114.216 126.101 115.464H134.405ZM144.199 123.216C143.191 123.216 142.287 123.048 141.487 122.712C140.687 122.36 140.055 121.88 139.591 121.272C139.127 120.648 138.871 119.936 138.823 119.136H141.079C141.143 119.792 141.447 120.328 141.991 120.744C142.551 121.16 143.279 121.368 144.175 121.368C145.007 121.368 145.663 121.184 146.143 120.816C146.623 120.448 146.863 119.984 146.863 119.424C146.863 118.848 146.607 118.424 146.095 118.152C145.583 117.864 144.791 117.584 143.719 117.312C142.743 117.056 141.943 116.8 141.319 116.544C140.711 116.272 140.183 115.88 139.735 115.368C139.303 114.84 139.087 114.152 139.087 113.304C139.087 112.632 139.287 112.016 139.687 111.456C140.087 110.896 140.655 110.456 141.391 110.136C142.127 109.8 142.967 109.632 143.911 109.632C145.367 109.632 146.543 110 147.439 110.736C148.335 111.472 148.815 112.48 148.879 113.76H146.695C146.647 113.072 146.367 112.52 145.855 112.104C145.359 111.688 144.687 111.48 143.839 111.48C143.055 111.48 142.431 111.648 141.967 111.984C141.503 112.32 141.271 112.76 141.271 113.304C141.271 113.736 141.407 114.096 141.679 114.384C141.967 114.656 142.319 114.88 142.735 115.056C143.167 115.216 143.759 115.4 144.511 115.608C145.455 115.864 146.223 116.12 146.815 116.376C147.407 116.616 147.911 116.984 148.327 117.48C148.759 117.976 148.983 118.624 148.999 119.424C148.999 120.144 148.799 120.792 148.399 121.368C147.999 121.944 147.431 122.4 146.695 122.736C145.975 123.056 145.143 123.216 144.199 123.216Z" fill="#2E2C43"/>
</svg>
