<svg width="175" height="204" viewBox="0 0 175 204" fill="none" xmlns="http://www.w3.org/2000/svg">
<rect x="3.55385" y="0.553846" width="165.046" height="201.6" rx="17.1692" fill="#FFF4E6" stroke="#FB8C00" stroke-width="1.10769"/>
<g filter="url(#filter0_d_3276_128)">
<path fill-rule="evenodd" clip-rule="evenodd" d="M103.378 98.3425V105.136C103.378 122.214 103.378 130.756 107.697 136.059C108.828 137.44 110.181 138.516 111.669 139.216V145.896C111.669 147.771 112.908 149.292 114.433 149.292H118.118C118.851 149.292 119.554 148.935 120.072 148.298C120.591 147.661 120.882 146.797 120.882 145.896V141.154C124.18 141.367 128.112 141.367 132.858 141.367C137.604 141.367 141.536 141.367 144.834 141.154V145.896C144.834 147.771 146.072 149.292 147.597 149.292H151.282C152.015 149.292 152.718 148.935 153.236 148.298C153.755 147.661 154.046 146.797 154.046 145.896V139.216C155.535 138.516 156.888 137.44 158.018 136.059C162.337 130.756 162.337 122.214 162.337 105.136V98.3425H103.378ZM151.282 106.268C152.015 106.268 152.718 106.626 153.236 107.263C153.755 107.9 154.046 108.764 154.046 109.665V118.722C154.046 119.623 153.755 120.487 153.236 121.124C152.718 121.761 152.015 122.119 151.282 122.119C150.549 122.119 149.846 121.761 149.328 121.124C148.81 120.487 148.519 119.623 148.519 118.722V109.665C148.519 108.764 148.81 107.9 149.328 107.263C149.846 106.626 150.549 106.268 151.282 106.268Z" fill="#F9AD4F"/>
<path d="M103.378 91.5209C103.378 74.3711 103.378 65.7939 107.697 60.4685C112.016 55.143 118.962 55.1384 132.858 55.1384C146.753 55.1384 153.703 55.1384 158.018 60.4685C162.333 65.7985 162.337 74.3711 162.337 91.5209V98.3426H103.378V91.5209Z" fill="white"/>
<path d="M154.093 77.8101C154.093 76.9101 153.799 76.047 153.275 75.4106C152.751 74.7743 152.04 74.4167 151.299 74.4167C150.558 74.4167 149.847 74.7743 149.323 75.4106C148.799 76.047 148.505 76.9101 148.505 77.8101V86.8591C148.505 87.7591 148.799 88.6222 149.323 89.2586C149.847 89.895 150.558 90.2525 151.299 90.2525C152.04 90.2525 152.751 89.895 153.275 89.2586C153.799 88.6222 154.093 87.7591 154.093 86.8591V77.8101Z" fill="#FB8C00"/>
</g>
<path d="M128.403 150.408H71.2275C70.8051 150.408 70.3999 150.24 70.1013 149.941C69.8026 149.643 69.6348 149.237 69.6348 148.815V70.8126C69.6348 70.3901 69.8026 69.9848 70.1013 69.6861C70.3999 69.3873 70.8051 69.2195 71.2275 69.2195H128.406C128.828 69.2195 129.233 69.3873 129.532 69.6861C129.831 69.9848 129.998 70.3901 129.998 70.8126V148.813C129.998 149.236 129.831 149.641 129.532 149.94C129.233 150.239 128.828 150.406 128.406 150.406" fill="#FFB9B9"/>
<path d="M99.8873 140.84C110.456 140.84 119.024 132.272 119.024 121.704C119.024 111.135 110.456 102.567 99.8873 102.567C89.3186 102.567 80.751 111.135 80.751 121.704C80.751 132.272 89.3186 140.84 99.8873 140.84Z" fill="white"/>
<path d="M80.751 121.704C80.751 132.272 89.3192 140.84 99.8873 140.84C110.455 140.84 119.024 132.272 119.024 121.704" fill="#92D3F5"/>
<path d="M73.6709 82.147C73.6709 79.4238 75.8784 77.2163 78.6016 77.2163H96.167C98.8901 77.2163 101.098 79.4238 101.098 82.147V88.0021C101.098 90.7252 98.8901 92.9328 96.167 92.9328H78.6016C75.8784 92.9328 73.6709 90.7252 73.6709 88.0021V82.147Z" fill="#FFE9CE"/>
<path d="M99.8864 132.819C106.026 132.819 111.002 127.843 111.002 121.704C111.002 115.564 106.026 110.588 99.8864 110.588C93.7473 110.588 88.7705 115.564 88.7705 121.704C88.7705 127.843 93.7473 132.819 99.8864 132.819Z" fill="#FCEA2B"/>
<path d="M88.7705 121.704C88.7705 124.652 89.9416 127.479 92.0263 129.564C94.1109 131.648 96.9383 132.82 99.8864 132.82C102.835 132.82 105.662 131.648 107.747 129.564C109.831 127.479 111.002 124.652 111.002 121.704" fill="#61B2E4"/>
<path d="M102.787 81.532H111.576M102.787 86.4874H111.576M85.2102 84.0097H90.2322M77.6772 79.0654H97.7651V91.3921H77.6772V79.0654Z" stroke="#FB8C00" stroke-width="0.258517" stroke-miterlimit="10" stroke-linecap="round" stroke-linejoin="round"/>
<path d="M120.571 86.6676C122.359 86.6676 123.808 85.2501 123.808 83.5016C123.808 81.7531 122.359 80.3357 120.571 80.3357C118.784 80.3357 117.335 81.7531 117.335 83.5016C117.335 85.2501 118.784 86.6676 120.571 86.6676Z" fill="#FB8C00"/>
<g filter="url(#filter1_d_3276_128)">
<rect x="9.646" y="104.904" width="75.1228" height="43.2384" rx="5.91028" fill="white"/>
<rect x="9.66155" y="104.92" width="75.0917" height="43.2073" rx="5.89473" stroke="#FB8C00" stroke-width="0.0311067"/>
</g>
<rect x="16.8771" y="112.914" width="42.8984" height="30.018" rx="3.18844" fill="#FFBB00" stroke="#FB8C00" stroke-width="0.777668"/>
<rect x="68.1242" y="112.914" width="9.99575" height="8.55435" rx="3.18844" fill="#FFCA08" stroke="#FB8C00" stroke-width="0.777668"/>
<rect x="69.1432" y="126.757" width="1.84289" height="2.333" rx="0.921447" fill="#FFCA08" stroke="#FB8C00" stroke-width="0.777668"/>
<rect x="72.4919" y="126.757" width="1.84289" height="2.333" rx="0.921447" fill="#FFCA08" stroke="#FB8C00" stroke-width="0.777668"/>
<rect x="75.8405" y="126.757" width="1.84289" height="2.333" rx="0.921447" fill="#FFCA08" stroke="#FB8C00" stroke-width="0.777668"/>
<rect x="69.1432" y="137.955" width="1.84289" height="2.333" rx="0.921447" fill="#FFB8B8" stroke="#E76063" stroke-width="0.777668"/>
<rect x="72.4919" y="137.955" width="1.84289" height="2.333" rx="0.921447" fill="#FFB8B8" stroke="#E76063" stroke-width="0.777668"/>
<rect x="75.8405" y="137.955" width="1.84289" height="2.333" rx="0.921447" fill="#FFCA08" stroke="#FB8C00" stroke-width="0.777668"/>
<rect x="69.1432" y="134.378" width="1.84289" height="2.333" rx="0.921447" fill="#FFB8B8" stroke="#E76063" stroke-width="0.777668"/>
<rect x="72.4919" y="134.378" width="1.84289" height="2.333" rx="0.921447" fill="#FFB8B8" stroke="#E76063" stroke-width="0.777668"/>
<rect x="75.8405" y="134.378" width="1.84289" height="2.333" rx="0.921447" fill="#FFB8B8" stroke="#E76063" stroke-width="0.777668"/>
<rect x="69.1432" y="130.645" width="1.84289" height="2.333" rx="0.921447" fill="#FFB8B8" stroke="#E76063" stroke-width="0.777668"/>
<rect x="72.4919" y="130.645" width="1.84289" height="2.333" rx="0.921447" fill="#FFB8B8" stroke="#E76063" stroke-width="0.777668"/>
<rect x="75.8405" y="130.645" width="1.84289" height="2.333" rx="0.921447" fill="#FFB8B8" stroke="#E76063" stroke-width="0.777668"/>
<rect x="63.6593" y="112.505" width="0.582347" height="30.5244" rx="0.291174" fill="#FFCA08" stroke="#FB8C00" stroke-width="0.582347"/>
<rect x="104.907" y="15.2615" width="50.5484" height="21.438" rx="3.38493" fill="white"/>
<path d="M124.695 50.5592C124.539 50.3067 124.539 50.2789 124.802 49.6879C125.118 48.9726 125.266 48.1945 125.235 47.4132C125.204 46.6319 124.994 45.868 124.622 45.1801C123.893 43.8171 123.712 42.2271 124.117 40.7353C124.488 39.4044 125.001 38.8716 125.466 39.3312C125.694 39.5837 125.689 39.6317 125.234 40.8768C125.038 41.5093 124.97 42.1744 125.034 42.8333C125.098 43.4922 125.292 44.132 125.605 44.7154C126.046 45.5591 126.288 46.492 126.314 47.4433C126.34 48.3946 126.149 49.3393 125.754 50.2056C125.502 50.6728 125.443 50.7486 125.168 50.7789C125.074 50.8047 124.975 50.7959 124.887 50.7542C124.799 50.7124 124.729 50.6405 124.69 50.5516L124.695 50.5592ZM129.801 50.6602C129.576 50.4329 129.621 50.2006 129.922 49.4657C130.116 48.9717 130.218 48.4459 130.22 47.9151C130.294 46.9485 130.08 45.9818 129.603 45.1371C129.147 44.2705 128.925 43.2999 128.959 42.3213C128.959 40.9475 129.497 39.3312 129.988 39.2049C130.058 39.1768 130.134 39.1658 130.21 39.1729C130.286 39.18 130.359 39.2049 130.423 39.2455C130.487 39.2862 130.54 39.3415 130.579 39.4069C130.618 39.4723 130.64 39.5459 130.645 39.6216C130.596 39.9372 130.505 40.2447 130.374 40.5358C130.135 41.1154 130.042 41.7454 130.106 42.3693C130.019 43.0284 130.133 43.6985 130.435 44.2911C131.012 45.2096 131.316 46.2727 131.312 47.357C131.421 48.3547 131.23 49.3623 130.764 50.2511C130.541 50.6703 130.448 50.7562 130.19 50.789C130.116 50.8033 130.04 50.8 129.967 50.7794C129.895 50.7588 129.828 50.7214 129.773 50.6703L129.801 50.6602ZM134.817 50.6602C134.646 50.4809 134.699 50.2082 135.07 49.2283C135.252 48.7401 135.338 48.2212 135.323 47.7004C135.342 46.8195 135.13 45.9489 134.709 45.175C134.494 44.7136 134.314 44.2366 134.17 43.7482C133.972 42.8234 133.972 41.8672 134.17 40.9424C134.301 40.3253 134.56 39.7422 134.929 39.2302C135.048 39.1609 135.19 39.1408 135.324 39.1743C135.458 39.2078 135.574 39.2921 135.646 39.4095C135.801 39.6469 135.795 39.6898 135.485 40.4651C135.202 41.1335 135.073 41.8565 135.105 42.5814C135.138 43.3062 135.332 44.0146 135.674 44.6548C136.173 45.5693 136.425 46.5982 136.405 47.6398C136.442 48.2666 136.356 48.8947 136.152 49.4884C135.836 50.4506 135.586 50.8016 135.209 50.8016C135.135 50.8077 135.061 50.7976 134.992 50.7718C134.922 50.7461 134.859 50.7054 134.807 50.6526L134.817 50.6602ZM105.199 36.0911C105.082 35.9749 104.996 35.8318 104.947 35.6744C104.905 32.654 104.896 29.6336 104.921 26.6132L104.947 17.7743L105.275 17.1177C105.632 16.3593 106.264 15.7657 107.044 15.4585C107.583 15.2615 107.702 15.2615 130.19 15.2615C152.678 15.2615 152.802 15.2615 153.34 15.4585C154.119 15.7639 154.752 16.3546 155.109 17.1101L155.43 17.7667L155.456 26.6132C155.456 31.4721 155.456 35.5582 155.425 35.6744C155.376 35.8318 155.29 35.9749 155.173 36.0911C154.975 36.2881 154.738 36.2881 130.185 36.2881C105.632 36.2881 105.397 36.2527 105.199 36.0557V36.0911ZM107.386 32.303C107.416 30.0301 107.434 29.8912 107.654 29.4392C107.822 29.1198 108.069 28.8486 108.371 28.6512L108.836 28.3355H151.601L152.061 28.6512C152.355 28.854 152.593 29.1266 152.754 29.4442C152.976 29.8912 152.994 30.0301 153.007 32.3105L153.042 34.6971H153.82V26.4667C153.82 17.5722 153.82 17.8424 153.3 17.3576L153.062 17.1303L153.002 17.8172C153.008 18.244 152.889 18.6632 152.658 19.0226C152.427 19.3819 152.096 19.6653 151.705 19.8375C151.382 19.9739 149.059 19.9916 130.202 19.9916C111.346 19.9916 109.033 20.032 108.7 19.9007C108.308 19.7314 107.977 19.448 107.748 19.0876C107.52 18.7272 107.406 18.3065 107.421 17.8803L107.363 17.201L107.11 17.4283C106.572 17.9056 106.584 17.648 106.584 26.5198V34.7552H107.36L107.386 32.303ZM127.417 27.0703C127.337 27.0293 127.269 26.9685 127.219 26.8937C127.169 26.819 127.138 26.7327 127.131 26.6431C127.123 26.5534 127.138 26.4633 127.175 26.3812C127.212 26.2991 127.269 26.2277 127.342 26.1738C127.531 26.0374 127.943 26.0122 130.185 26.0122C133.139 26.0122 133.288 26.0425 133.23 26.641C133.177 27.1587 132.99 27.1941 130.197 27.1941C129.273 27.2502 128.346 27.2104 127.43 27.0754L127.417 27.0703ZM146.532 26.8607C146.489 26.7967 146.461 26.7236 146.451 26.6472C146.44 26.5708 146.448 26.4931 146.472 26.42C146.497 26.3469 146.537 26.2803 146.591 26.2253C146.646 26.1704 146.712 26.1286 146.784 26.1031C147.234 25.8657 147.717 26.6082 147.348 26.9743C147.286 27.022 147.216 27.0567 147.14 27.0766C147.065 27.0964 146.987 27.1009 146.91 27.0899C146.832 27.0788 146.758 27.0524 146.692 27.0121C146.625 26.9719 146.567 26.9187 146.522 26.8557L146.532 26.8607ZM149.104 26.8784C149.028 26.7821 148.99 26.6614 148.996 26.5388C149.002 26.4162 149.053 26.3001 149.139 26.2122C149.225 26.1243 149.34 26.0706 149.462 26.0613C149.585 26.0519 149.706 26.0874 149.805 26.1612C149.875 26.1996 149.936 26.2539 149.982 26.3197C150.028 26.3855 150.058 26.4611 150.07 26.5405C150.082 26.6199 150.075 26.701 150.051 26.7774C150.026 26.8539 149.984 26.9235 149.928 26.981C149.872 27.0385 149.803 27.0822 149.727 27.1088C149.651 27.1353 149.57 27.144 149.491 27.134C149.411 27.1241 149.334 27.0958 149.268 27.0515C149.201 27.0071 149.145 26.9479 149.104 26.8784ZM151.816 34.2551V33.8132H108.556V34.6971H151.816V34.2551ZM151.816 32.1843V31.6413H108.556V32.7272H151.816V32.1843ZM151.816 30.2321C151.791 30.0698 151.727 29.9159 151.63 29.7839C151.532 29.6519 151.403 29.5457 151.255 29.4745C151.101 29.3987 145.349 29.3634 130.185 29.3634C115.021 29.3634 109.279 29.3987 109.117 29.4745C108.971 29.549 108.845 29.6562 108.747 29.7876C108.65 29.9191 108.585 30.0712 108.556 30.2321V30.4544H151.816V30.2321ZM151.518 18.6152C151.786 18.3475 151.816 18.2768 151.816 17.5823V16.8247H108.551V17.5823C108.551 18.2743 108.568 18.34 108.836 18.6152L109.135 18.9082H151.207L151.518 18.6152Z" fill="#F9A826"/>
<rect x="3" y="144" width="166.154" height="59.8154" rx="17.7231" fill="#FB8C00"/>
<rect x="3" y="145.108" width="166.154" height="25.4769" fill="#FB8C00"/>
<path d="M14.172 167.098C13.528 167.098 12.9493 166.986 12.436 166.762C11.932 166.529 11.5353 166.211 11.246 165.81C10.9567 165.399 10.8073 164.928 10.798 164.396H12.156C12.2027 164.853 12.3893 165.241 12.716 165.558C13.052 165.866 13.5373 166.02 14.172 166.02C14.7787 166.02 15.2547 165.871 15.6 165.572C15.9547 165.264 16.132 164.872 16.132 164.396C16.132 164.023 16.0293 163.719 15.824 163.486C15.6187 163.253 15.362 163.075 15.054 162.954C14.746 162.833 14.3307 162.702 13.808 162.562C13.164 162.394 12.646 162.226 12.254 162.058C11.8713 161.89 11.54 161.629 11.26 161.274C10.9893 160.91 10.854 160.425 10.854 159.818C10.854 159.286 10.9893 158.815 11.26 158.404C11.5307 157.993 11.9087 157.676 12.394 157.452C12.8887 157.228 13.4533 157.116 14.088 157.116C15.0027 157.116 15.7493 157.345 16.328 157.802C16.916 158.259 17.2473 158.866 17.322 159.622H15.922C15.8753 159.249 15.6793 158.922 15.334 158.642C14.9887 158.353 14.5313 158.208 13.962 158.208C13.43 158.208 12.996 158.348 12.66 158.628C12.324 158.899 12.156 159.281 12.156 159.776C12.156 160.131 12.254 160.42 12.45 160.644C12.6553 160.868 12.9027 161.041 13.192 161.162C13.4907 161.274 13.906 161.405 14.438 161.554C15.082 161.731 15.6 161.909 15.992 162.086C16.384 162.254 16.72 162.52 17 162.884C17.28 163.239 17.42 163.724 17.42 164.34C17.42 164.816 17.294 165.264 17.042 165.684C16.79 166.104 16.4167 166.445 15.922 166.706C15.4273 166.967 14.844 167.098 14.172 167.098ZM26.2948 162.87C26.2948 163.113 26.2808 163.369 26.2528 163.64H20.1208C20.1675 164.396 20.4241 164.989 20.8908 165.418C21.3668 165.838 21.9408 166.048 22.6128 166.048C23.1635 166.048 23.6208 165.922 23.9848 165.67C24.3581 165.409 24.6195 165.063 24.7688 164.634H26.1408C25.9355 165.371 25.5248 165.973 24.9088 166.44C24.2928 166.897 23.5275 167.126 22.6128 167.126C21.8848 167.126 21.2315 166.963 20.6528 166.636C20.0835 166.309 19.6355 165.847 19.3088 165.25C18.9821 164.643 18.8188 163.943 18.8188 163.15C18.8188 162.357 18.9775 161.661 19.2948 161.064C19.6121 160.467 20.0555 160.009 20.6248 159.692C21.2035 159.365 21.8661 159.202 22.6128 159.202C23.3408 159.202 23.9848 159.361 24.5448 159.678C25.1048 159.995 25.5341 160.434 25.8328 160.994C26.1408 161.545 26.2948 162.17 26.2948 162.87ZM24.9788 162.604C24.9788 162.119 24.8715 161.703 24.6568 161.358C24.4421 161.003 24.1481 160.737 23.7748 160.56C23.4108 160.373 23.0048 160.28 22.5568 160.28C21.9128 160.28 21.3621 160.485 20.9048 160.896C20.4568 161.307 20.2001 161.876 20.1348 162.604H24.9788ZM29.2504 160.574C29.4744 160.135 29.7918 159.795 30.2024 159.552C30.6224 159.309 31.1311 159.188 31.7284 159.188V160.504H31.3924C29.9644 160.504 29.2504 161.279 29.2504 162.828V167H27.9764V159.328H29.2504V160.574ZM36.0551 165.824L38.4351 159.328H39.7931L36.7831 167H35.2991L32.2891 159.328H33.6611L36.0551 165.824ZM41.7048 158.082C41.4621 158.082 41.2568 157.998 41.0888 157.83C40.9208 157.662 40.8368 157.457 40.8368 157.214C40.8368 156.971 40.9208 156.766 41.0888 156.598C41.2568 156.43 41.4621 156.346 41.7048 156.346C41.9381 156.346 42.1341 156.43 42.2928 156.598C42.4608 156.766 42.5448 156.971 42.5448 157.214C42.5448 157.457 42.4608 157.662 42.2928 157.83C42.1341 157.998 41.9381 158.082 41.7048 158.082ZM42.3208 159.328V167H41.0468V159.328H42.3208ZM44.0161 163.15C44.0161 162.357 44.1747 161.666 44.4921 161.078C44.8094 160.481 45.2481 160.019 45.8081 159.692C46.3774 159.365 47.0261 159.202 47.7541 159.202C48.6967 159.202 49.4714 159.431 50.0781 159.888C50.6941 160.345 51.1001 160.98 51.2961 161.792H49.9241C49.7934 161.325 49.5367 160.957 49.1541 160.686C48.7807 160.415 48.3141 160.28 47.7541 160.28C47.0261 160.28 46.4381 160.532 45.9901 161.036C45.5421 161.531 45.3181 162.235 45.3181 163.15C45.3181 164.074 45.5421 164.788 45.9901 165.292C46.4381 165.796 47.0261 166.048 47.7541 166.048C48.3141 166.048 48.7807 165.917 49.1541 165.656C49.5274 165.395 49.7841 165.021 49.9241 164.536H51.2961C51.0907 165.32 50.6801 165.95 50.0641 166.426C49.4481 166.893 48.6781 167.126 47.7541 167.126C47.0261 167.126 46.3774 166.963 45.8081 166.636C45.2481 166.309 44.8094 165.847 44.4921 165.25C44.1747 164.653 44.0161 163.953 44.0161 163.15ZM59.996 162.87C59.996 163.113 59.982 163.369 59.954 163.64H53.822C53.8686 164.396 54.1253 164.989 54.592 165.418C55.068 165.838 55.642 166.048 56.314 166.048C56.8646 166.048 57.322 165.922 57.686 165.67C58.0593 165.409 58.3206 165.063 58.47 164.634H59.842C59.6366 165.371 59.226 165.973 58.61 166.44C57.994 166.897 57.2286 167.126 56.314 167.126C55.586 167.126 54.9326 166.963 54.354 166.636C53.7846 166.309 53.3366 165.847 53.01 165.25C52.6833 164.643 52.52 163.943 52.52 163.15C52.52 162.357 52.6786 161.661 52.996 161.064C53.3133 160.467 53.7566 160.009 54.326 159.692C54.9046 159.365 55.5673 159.202 56.314 159.202C57.042 159.202 57.686 159.361 58.246 159.678C58.806 159.995 59.2353 160.434 59.534 160.994C59.842 161.545 59.996 162.17 59.996 162.87ZM58.68 162.604C58.68 162.119 58.5726 161.703 58.358 161.358C58.1433 161.003 57.8493 160.737 57.476 160.56C57.112 160.373 56.706 160.28 56.258 160.28C55.614 160.28 55.0633 160.485 54.606 160.896C54.158 161.307 53.9013 161.876 53.836 162.604H58.68ZM72.9 167L71.626 165.712C71.15 166.207 70.6414 166.575 70.1 166.818C69.5587 167.051 68.9474 167.168 68.266 167.168C67.594 167.168 66.9967 167.047 66.474 166.804C65.9607 166.561 65.5594 166.216 65.27 165.768C64.99 165.32 64.85 164.797 64.85 164.2C64.85 163.519 65.0414 162.921 65.424 162.408C65.816 161.885 66.39 161.475 67.146 161.176C66.8474 160.821 66.6327 160.495 66.502 160.196C66.3714 159.897 66.306 159.571 66.306 159.216C66.306 158.805 66.4087 158.437 66.614 158.11C66.8287 157.774 67.132 157.513 67.524 157.326C67.916 157.139 68.3687 157.046 68.882 157.046C69.386 157.046 69.8247 157.144 70.198 157.34C70.5714 157.536 70.8514 157.811 71.038 158.166C71.2247 158.511 71.3087 158.899 71.29 159.328H70.016C70.0254 158.945 69.918 158.647 69.694 158.432C69.47 158.208 69.1807 158.096 68.826 158.096C68.4527 158.096 68.1494 158.203 67.916 158.418C67.692 158.623 67.58 158.889 67.58 159.216C67.58 159.496 67.6547 159.767 67.804 160.028C67.9627 160.289 68.224 160.611 68.588 160.994L71.5 163.92L71.752 163.528L72.704 161.932H74.076L72.928 163.92C72.7694 164.2 72.5827 164.494 72.368 164.802L74.566 167H72.9ZM68.266 166.076C68.77 166.076 69.2227 165.978 69.624 165.782C70.0347 165.586 70.422 165.283 70.786 164.872L67.916 161.988C66.7214 162.445 66.124 163.169 66.124 164.158C66.124 164.709 66.32 165.166 66.712 165.53C67.1134 165.894 67.6314 166.076 68.266 166.076ZM84.6301 167L82.3061 163.01H80.7661V167H79.4921V157.242H82.6421C83.3794 157.242 84.0001 157.368 84.5041 157.62C85.0174 157.872 85.4001 158.213 85.6521 158.642C85.9041 159.071 86.0301 159.561 86.0301 160.112C86.0301 160.784 85.8341 161.377 85.4421 161.89C85.0594 162.403 84.4807 162.744 83.7061 162.912L86.1561 167H84.6301ZM80.7661 161.988H82.6421C83.3327 161.988 83.8507 161.82 84.1961 161.484C84.5414 161.139 84.7141 160.681 84.7141 160.112C84.7141 159.533 84.5414 159.085 84.1961 158.768C83.8601 158.451 83.3421 158.292 82.6421 158.292H80.7661V161.988ZM95.0096 162.87C95.0096 163.113 94.9956 163.369 94.9676 163.64H88.8356C88.8823 164.396 89.139 164.989 89.6056 165.418C90.0816 165.838 90.6556 166.048 91.3276 166.048C91.8783 166.048 92.3356 165.922 92.6996 165.67C93.073 165.409 93.3343 165.063 93.4836 164.634H94.8556C94.6503 165.371 94.2396 165.973 93.6236 166.44C93.0076 166.897 92.2423 167.126 91.3276 167.126C90.5996 167.126 89.9463 166.963 89.3676 166.636C88.7983 166.309 88.3503 165.847 88.0236 165.25C87.697 164.643 87.5336 163.943 87.5336 163.15C87.5336 162.357 87.6923 161.661 88.0096 161.064C88.327 160.467 88.7703 160.009 89.3396 159.692C89.9183 159.365 90.581 159.202 91.3276 159.202C92.0556 159.202 92.6996 159.361 93.2596 159.678C93.8196 159.995 94.249 160.434 94.5476 160.994C94.8556 161.545 95.0096 162.17 95.0096 162.87ZM93.6936 162.604C93.6936 162.119 93.5863 161.703 93.3716 161.358C93.157 161.003 92.863 160.737 92.4896 160.56C92.1256 160.373 91.7196 160.28 91.2716 160.28C90.6276 160.28 90.077 160.485 89.6196 160.896C89.1716 161.307 88.915 161.876 88.8496 162.604H93.6936ZM97.9653 160.742C98.2173 160.303 98.5906 159.939 99.0853 159.65C99.5893 159.351 100.173 159.202 100.835 159.202C101.517 159.202 102.133 159.365 102.683 159.692C103.243 160.019 103.682 160.481 103.999 161.078C104.317 161.666 104.475 162.352 104.475 163.136C104.475 163.911 104.317 164.601 103.999 165.208C103.682 165.815 103.243 166.286 102.683 166.622C102.133 166.958 101.517 167.126 100.835 167.126C100.182 167.126 99.6033 166.981 99.0993 166.692C98.6046 166.393 98.2266 166.025 97.9653 165.586V170.64H96.6913V159.328H97.9653V160.742ZM103.173 163.136C103.173 162.557 103.057 162.053 102.823 161.624C102.59 161.195 102.273 160.868 101.871 160.644C101.479 160.42 101.045 160.308 100.569 160.308C100.103 160.308 99.6686 160.425 99.2673 160.658C98.8753 160.882 98.5579 161.213 98.3153 161.652C98.0819 162.081 97.9653 162.581 97.9653 163.15C97.9653 163.729 98.0819 164.237 98.3153 164.676C98.5579 165.105 98.8753 165.437 99.2673 165.67C99.6686 165.894 100.103 166.006 100.569 166.006C101.045 166.006 101.479 165.894 101.871 165.67C102.273 165.437 102.59 165.105 102.823 164.676C103.057 164.237 103.173 163.724 103.173 163.136ZM105.676 163.136C105.676 162.352 105.835 161.666 106.152 161.078C106.47 160.481 106.904 160.019 107.454 159.692C108.014 159.365 108.635 159.202 109.316 159.202C109.988 159.202 110.572 159.347 111.066 159.636C111.561 159.925 111.93 160.289 112.172 160.728V159.328H113.46V167H112.172V165.572C111.92 166.02 111.542 166.393 111.038 166.692C110.544 166.981 109.965 167.126 109.302 167.126C108.621 167.126 108.005 166.958 107.454 166.622C106.904 166.286 106.47 165.815 106.152 165.208C105.835 164.601 105.676 163.911 105.676 163.136ZM112.172 163.15C112.172 162.571 112.056 162.067 111.822 161.638C111.589 161.209 111.272 160.882 110.87 160.658C110.478 160.425 110.044 160.308 109.568 160.308C109.092 160.308 108.658 160.42 108.266 160.644C107.874 160.868 107.562 161.195 107.328 161.624C107.095 162.053 106.978 162.557 106.978 163.136C106.978 163.724 107.095 164.237 107.328 164.676C107.562 165.105 107.874 165.437 108.266 165.67C108.658 165.894 109.092 166.006 109.568 166.006C110.044 166.006 110.478 165.894 110.87 165.67C111.272 165.437 111.589 165.105 111.822 164.676C112.056 164.237 112.172 163.729 112.172 163.15ZM116.271 158.082C116.028 158.082 115.823 157.998 115.655 157.83C115.487 157.662 115.403 157.457 115.403 157.214C115.403 156.971 115.487 156.766 115.655 156.598C115.823 156.43 116.028 156.346 116.271 156.346C116.504 156.346 116.7 156.43 116.859 156.598C117.027 156.766 117.111 156.971 117.111 157.214C117.111 157.457 117.027 157.662 116.859 157.83C116.7 157.998 116.504 158.082 116.271 158.082ZM116.887 159.328V167H115.613V159.328H116.887ZM120.332 160.574C120.556 160.135 120.874 159.795 121.284 159.552C121.704 159.309 122.213 159.188 122.81 159.188V160.504H122.474C121.046 160.504 120.332 161.279 120.332 162.828V167H119.058V159.328H120.332V160.574ZM10.602 183.114C10.602 182.162 10.8167 181.308 11.246 180.552C11.6753 179.787 12.2587 179.189 12.996 178.76C13.7427 178.331 14.5687 178.116 15.474 178.116C16.538 178.116 17.4667 178.373 18.26 178.886C19.0533 179.399 19.632 180.127 19.996 181.07H18.47C18.1993 180.482 17.8073 180.029 17.294 179.712C16.79 179.395 16.1833 179.236 15.474 179.236C14.7927 179.236 14.1813 179.395 13.64 179.712C13.0987 180.029 12.674 180.482 12.366 181.07C12.058 181.649 11.904 182.33 11.904 183.114C11.904 183.889 12.058 184.57 12.366 185.158C12.674 185.737 13.0987 186.185 13.64 186.502C14.1813 186.819 14.7927 186.978 15.474 186.978C16.1833 186.978 16.79 186.824 17.294 186.516C17.8073 186.199 18.1993 185.746 18.47 185.158H19.996C19.632 186.091 19.0533 186.815 18.26 187.328C17.4667 187.832 16.538 188.084 15.474 188.084C14.5687 188.084 13.7427 187.874 12.996 187.454C12.2587 187.025 11.6753 186.432 11.246 185.676C10.8167 184.92 10.602 184.066 10.602 183.114ZM25.2385 188.126C24.5198 188.126 23.8665 187.963 23.2785 187.636C22.6998 187.309 22.2425 186.847 21.9065 186.25C21.5798 185.643 21.4165 184.943 21.4165 184.15C21.4165 183.366 21.5845 182.675 21.9205 182.078C22.2658 181.471 22.7325 181.009 23.3205 180.692C23.9085 180.365 24.5665 180.202 25.2945 180.202C26.0225 180.202 26.6805 180.365 27.2685 180.692C27.8565 181.009 28.3185 181.467 28.6545 182.064C28.9998 182.661 29.1725 183.357 29.1725 184.15C29.1725 184.943 28.9951 185.643 28.6405 186.25C28.2951 186.847 27.8238 187.309 27.2265 187.636C26.6291 187.963 25.9665 188.126 25.2385 188.126ZM25.2385 187.006C25.6958 187.006 26.1251 186.899 26.5265 186.684C26.9278 186.469 27.2498 186.147 27.4925 185.718C27.7445 185.289 27.8705 184.766 27.8705 184.15C27.8705 183.534 27.7491 183.011 27.5065 182.582C27.2638 182.153 26.9465 181.835 26.5545 181.63C26.1625 181.415 25.7378 181.308 25.2805 181.308C24.8138 181.308 24.3845 181.415 23.9925 181.63C23.6098 181.835 23.3018 182.153 23.0685 182.582C22.8351 183.011 22.7185 183.534 22.7185 184.15C22.7185 184.775 22.8305 185.303 23.0545 185.732C23.2878 186.161 23.5958 186.483 23.9785 186.698C24.3611 186.903 24.7811 187.006 25.2385 187.006ZM34.5855 180.188C35.5189 180.188 36.2749 180.473 36.8535 181.042C37.4322 181.602 37.7215 182.414 37.7215 183.478V188H36.4615V183.66C36.4615 182.895 36.2702 182.311 35.8875 181.91C35.5049 181.499 34.9822 181.294 34.3195 181.294C33.6475 181.294 33.1109 181.504 32.7095 181.924C32.3175 182.344 32.1215 182.955 32.1215 183.758V188H30.8475V180.328H32.1215V181.42C32.3735 181.028 32.7142 180.725 33.1435 180.51C33.5822 180.295 34.0629 180.188 34.5855 180.188ZM42.5186 188.126C41.9306 188.126 41.4033 188.028 40.9366 187.832C40.4699 187.627 40.1013 187.347 39.8306 186.992C39.5599 186.628 39.4106 186.213 39.3826 185.746H40.6986C40.7359 186.129 40.9133 186.441 41.2306 186.684C41.5573 186.927 41.9819 187.048 42.5046 187.048C42.9899 187.048 43.3726 186.941 43.6526 186.726C43.9326 186.511 44.0726 186.241 44.0726 185.914C44.0726 185.578 43.9233 185.331 43.6246 185.172C43.3259 185.004 42.8639 184.841 42.2386 184.682C41.6693 184.533 41.2026 184.383 40.8386 184.234C40.4839 184.075 40.1759 183.847 39.9146 183.548C39.6626 183.24 39.5366 182.839 39.5366 182.344C39.5366 181.952 39.6533 181.593 39.8866 181.266C40.1199 180.939 40.4513 180.683 40.8806 180.496C41.3099 180.3 41.7999 180.202 42.3506 180.202C43.1999 180.202 43.8859 180.417 44.4086 180.846C44.9313 181.275 45.2113 181.863 45.2486 182.61H43.9746C43.9466 182.209 43.7833 181.887 43.4846 181.644C43.1953 181.401 42.8033 181.28 42.3086 181.28C41.8513 181.28 41.4873 181.378 41.2166 181.574C40.9459 181.77 40.8106 182.027 40.8106 182.344C40.8106 182.596 40.8899 182.806 41.0486 182.974C41.2166 183.133 41.4219 183.263 41.6646 183.366C41.9166 183.459 42.2619 183.567 42.7006 183.688C43.2513 183.837 43.6993 183.987 44.0446 184.136C44.3899 184.276 44.6839 184.491 44.9266 184.78C45.1786 185.069 45.3093 185.447 45.3186 185.914C45.3186 186.334 45.2019 186.712 44.9686 187.048C44.7353 187.384 44.4039 187.65 43.9746 187.846C43.5546 188.033 43.0693 188.126 42.5186 188.126ZM53.9211 180.328V188H52.6471V186.866C52.4044 187.258 52.0637 187.566 51.6251 187.79C51.1957 188.005 50.7197 188.112 50.1971 188.112C49.5997 188.112 49.0631 187.991 48.5871 187.748C48.1111 187.496 47.7331 187.123 47.4531 186.628C47.1824 186.133 47.0471 185.531 47.0471 184.822V180.328H48.3071V184.654C48.3071 185.41 48.4984 185.993 48.8811 186.404C49.2637 186.805 49.7864 187.006 50.4491 187.006C51.1304 187.006 51.6671 186.796 52.0591 186.376C52.4511 185.956 52.6471 185.345 52.6471 184.542V180.328H53.9211ZM65.2981 180.188C65.8955 180.188 66.4275 180.314 66.8941 180.566C67.3608 180.809 67.7295 181.177 68.0001 181.672C68.2708 182.167 68.4061 182.769 68.4061 183.478V188H67.1461V183.66C67.1461 182.895 66.9548 182.311 66.5721 181.91C66.1988 181.499 65.6901 181.294 65.0461 181.294C64.3835 181.294 63.8561 181.509 63.4641 181.938C63.0721 182.358 62.8761 182.969 62.8761 183.772V188H61.6161V183.66C61.6161 182.895 61.4248 182.311 61.0421 181.91C60.6688 181.499 60.1601 181.294 59.5161 181.294C58.8535 181.294 58.3261 181.509 57.9341 181.938C57.5421 182.358 57.3461 182.969 57.3461 183.772V188H56.0721V180.328H57.3461V181.434C57.5981 181.033 57.9341 180.725 58.3541 180.51C58.7835 180.295 59.2548 180.188 59.7681 180.188C60.4121 180.188 60.9815 180.333 61.4761 180.622C61.9708 180.911 62.3395 181.336 62.5821 181.896C62.7968 181.355 63.1515 180.935 63.6461 180.636C64.1408 180.337 64.6915 180.188 65.2981 180.188ZM77.496 183.87C77.496 184.113 77.482 184.369 77.454 184.64H71.322C71.3686 185.396 71.6253 185.989 72.092 186.418C72.568 186.838 73.142 187.048 73.814 187.048C74.3646 187.048 74.822 186.922 75.186 186.67C75.5593 186.409 75.8206 186.063 75.97 185.634H77.342C77.1366 186.371 76.726 186.973 76.11 187.44C75.494 187.897 74.7286 188.126 73.814 188.126C73.086 188.126 72.4326 187.963 71.854 187.636C71.2846 187.309 70.8366 186.847 70.51 186.25C70.1833 185.643 70.02 184.943 70.02 184.15C70.02 183.357 70.1786 182.661 70.496 182.064C70.8133 181.467 71.2566 181.009 71.826 180.692C72.4046 180.365 73.0673 180.202 73.814 180.202C74.542 180.202 75.186 180.361 75.746 180.678C76.306 180.995 76.7353 181.434 77.034 181.994C77.342 182.545 77.496 183.17 77.496 183.87ZM76.18 183.604C76.18 183.119 76.0726 182.703 75.858 182.358C75.6433 182.003 75.3493 181.737 74.976 181.56C74.612 181.373 74.206 181.28 73.758 181.28C73.114 181.28 72.5633 181.485 72.106 181.896C71.658 182.307 71.4013 182.876 71.336 183.604H76.18ZM80.4516 181.574C80.6756 181.135 80.9929 180.795 81.4036 180.552C81.8236 180.309 82.3323 180.188 82.9296 180.188V181.504H82.5936C81.1656 181.504 80.4516 182.279 80.4516 183.828V188H79.1776V180.328H80.4516V181.574ZM89.4067 179.278V182.54H92.9627V183.59H89.4067V186.95H93.3827V188H88.1327V178.228H93.3827V179.278H89.4067ZM96.5844 177.64V188H95.3104V177.64H96.5844ZM105.756 183.87C105.756 184.113 105.742 184.369 105.714 184.64H99.5817C99.6284 185.396 99.8851 185.989 100.352 186.418C100.828 186.838 101.402 187.048 102.074 187.048C102.624 187.048 103.082 186.922 103.446 186.67C103.819 186.409 104.08 186.063 104.23 185.634H105.602C105.396 186.371 104.986 186.973 104.37 187.44C103.754 187.897 102.988 188.126 102.074 188.126C101.346 188.126 100.692 187.963 100.114 187.636C99.5444 187.309 99.0964 186.847 98.7697 186.25C98.4431 185.643 98.2797 184.943 98.2797 184.15C98.2797 183.357 98.4384 182.661 98.7557 182.064C99.0731 181.467 99.5164 181.009 100.086 180.692C100.664 180.365 101.327 180.202 102.074 180.202C102.802 180.202 103.446 180.361 104.006 180.678C104.566 180.995 104.995 181.434 105.294 181.994C105.602 182.545 105.756 183.17 105.756 183.87ZM104.44 183.604C104.44 183.119 104.332 182.703 104.118 182.358C103.903 182.003 103.609 181.737 103.236 181.56C102.872 181.373 102.466 181.28 102.018 181.28C101.374 181.28 100.823 181.485 100.366 181.896C99.9177 182.307 99.6611 182.876 99.5957 183.604H104.44ZM106.961 184.15C106.961 183.357 107.12 182.666 107.437 182.078C107.755 181.481 108.193 181.019 108.753 180.692C109.323 180.365 109.971 180.202 110.699 180.202C111.642 180.202 112.417 180.431 113.023 180.888C113.639 181.345 114.045 181.98 114.241 182.792H112.869C112.739 182.325 112.482 181.957 112.099 181.686C111.726 181.415 111.259 181.28 110.699 181.28C109.971 181.28 109.383 181.532 108.935 182.036C108.487 182.531 108.263 183.235 108.263 184.15C108.263 185.074 108.487 185.788 108.935 186.292C109.383 186.796 109.971 187.048 110.699 187.048C111.259 187.048 111.726 186.917 112.099 186.656C112.473 186.395 112.729 186.021 112.869 185.536H114.241C114.036 186.32 113.625 186.95 113.009 187.426C112.393 187.893 111.623 188.126 110.699 188.126C109.971 188.126 109.323 187.963 108.753 187.636C108.193 187.309 107.755 186.847 107.437 186.25C107.12 185.653 106.961 184.953 106.961 184.15ZM117.495 181.378V185.9C117.495 186.273 117.575 186.539 117.733 186.698C117.892 186.847 118.167 186.922 118.559 186.922H119.497V188H118.349C117.64 188 117.108 187.837 116.753 187.51C116.399 187.183 116.221 186.647 116.221 185.9V181.378H115.227V180.328H116.221V178.396H117.495V180.328H119.497V181.378H117.495ZM122.315 181.574C122.539 181.135 122.856 180.795 123.267 180.552C123.687 180.309 124.196 180.188 124.793 180.188V181.504H124.457C123.029 181.504 122.315 182.279 122.315 183.828V188H121.041V180.328H122.315V181.574ZM129.61 188.126C128.891 188.126 128.238 187.963 127.65 187.636C127.071 187.309 126.614 186.847 126.278 186.25C125.951 185.643 125.788 184.943 125.788 184.15C125.788 183.366 125.956 182.675 126.292 182.078C126.637 181.471 127.104 181.009 127.692 180.692C128.28 180.365 128.938 180.202 129.666 180.202C130.394 180.202 131.052 180.365 131.64 180.692C132.228 181.009 132.69 181.467 133.026 182.064C133.371 182.661 133.544 183.357 133.544 184.15C133.544 184.943 133.366 185.643 133.012 186.25C132.666 186.847 132.195 187.309 131.598 187.636C131 187.963 130.338 188.126 129.61 188.126ZM129.61 187.006C130.067 187.006 130.496 186.899 130.898 186.684C131.299 186.469 131.621 186.147 131.864 185.718C132.116 185.289 132.242 184.766 132.242 184.15C132.242 183.534 132.12 183.011 131.878 182.582C131.635 182.153 131.318 181.835 130.926 181.63C130.534 181.415 130.109 181.308 129.652 181.308C129.185 181.308 128.756 181.415 128.364 181.63C127.981 181.835 127.673 182.153 127.44 182.582C127.206 183.011 127.09 183.534 127.09 184.15C127.09 184.775 127.202 185.303 127.426 185.732C127.659 186.161 127.967 186.483 128.35 186.698C128.732 186.903 129.152 187.006 129.61 187.006ZM138.957 180.188C139.89 180.188 140.646 180.473 141.225 181.042C141.803 181.602 142.093 182.414 142.093 183.478V188H140.833V183.66C140.833 182.895 140.641 182.311 140.259 181.91C139.876 181.499 139.353 181.294 138.691 181.294C138.019 181.294 137.482 181.504 137.081 181.924C136.689 182.344 136.493 182.955 136.493 183.758V188H135.219V180.328H136.493V181.42C136.745 181.028 137.085 180.725 137.515 180.51C137.953 180.295 138.434 180.188 138.957 180.188ZM144.832 179.082C144.589 179.082 144.384 178.998 144.216 178.83C144.048 178.662 143.964 178.457 143.964 178.214C143.964 177.971 144.048 177.766 144.216 177.598C144.384 177.43 144.589 177.346 144.832 177.346C145.065 177.346 145.261 177.43 145.42 177.598C145.588 177.766 145.672 177.971 145.672 178.214C145.672 178.457 145.588 178.662 145.42 178.83C145.261 178.998 145.065 179.082 144.832 179.082ZM145.448 180.328V188H144.174V180.328H145.448ZM147.143 184.15C147.143 183.357 147.302 182.666 147.619 182.078C147.936 181.481 148.375 181.019 148.935 180.692C149.504 180.365 150.153 180.202 150.881 180.202C151.824 180.202 152.598 180.431 153.205 180.888C153.821 181.345 154.227 181.98 154.423 182.792H153.051C152.92 182.325 152.664 181.957 152.281 181.686C151.908 181.415 151.441 181.28 150.881 181.28C150.153 181.28 149.565 181.532 149.117 182.036C148.669 182.531 148.445 183.235 148.445 184.15C148.445 185.074 148.669 185.788 149.117 186.292C149.565 186.796 150.153 187.048 150.881 187.048C151.441 187.048 151.908 186.917 152.281 186.656C152.654 186.395 152.911 186.021 153.051 185.536H154.423C154.218 186.32 153.807 186.95 153.191 187.426C152.575 187.893 151.805 188.126 150.881 188.126C150.153 188.126 149.504 187.963 148.935 187.636C148.375 187.309 147.936 186.847 147.619 186.25C147.302 185.653 147.143 184.953 147.143 184.15ZM158.839 188.126C158.251 188.126 157.724 188.028 157.257 187.832C156.79 187.627 156.422 187.347 156.151 186.992C155.88 186.628 155.731 186.213 155.703 185.746H157.019C157.056 186.129 157.234 186.441 157.551 186.684C157.878 186.927 158.302 187.048 158.825 187.048C159.31 187.048 159.693 186.941 159.973 186.726C160.253 186.511 160.393 186.241 160.393 185.914C160.393 185.578 160.244 185.331 159.945 185.172C159.646 185.004 159.184 184.841 158.559 184.682C157.99 184.533 157.523 184.383 157.159 184.234C156.804 184.075 156.496 183.847 156.235 183.548C155.983 183.24 155.857 182.839 155.857 182.344C155.857 181.952 155.974 181.593 156.207 181.266C156.44 180.939 156.772 180.683 157.201 180.496C157.63 180.3 158.12 180.202 158.671 180.202C159.52 180.202 160.206 180.417 160.729 180.846C161.252 181.275 161.532 181.863 161.569 182.61H160.295C160.267 182.209 160.104 181.887 159.805 181.644C159.516 181.401 159.124 181.28 158.629 181.28C158.172 181.28 157.808 181.378 157.537 181.574C157.266 181.77 157.131 182.027 157.131 182.344C157.131 182.596 157.21 182.806 157.369 182.974C157.537 183.133 157.742 183.263 157.985 183.366C158.237 183.459 158.582 183.567 159.021 183.688C159.572 183.837 160.02 183.987 160.365 184.136C160.71 184.276 161.004 184.491 161.247 184.78C161.499 185.069 161.63 185.447 161.639 185.914C161.639 186.334 161.522 186.712 161.289 187.048C161.056 187.384 160.724 187.65 160.295 187.846C159.875 188.033 159.39 188.126 158.839 188.126Z" fill="white"/>
<path d="M40.2715 14.2227C40.5254 14.6621 40.7549 15.082 40.96 15.4824C41.165 15.8828 41.3506 16.2881 41.5166 16.6982C41.6826 17.1084 41.7998 17.5332 41.8682 17.9727C41.9365 18.4121 41.9805 18.9004 42 19.4375C42 20.209 41.9023 20.9512 41.707 21.6641C41.5117 22.377 41.2285 23.0508 40.8574 23.6855C40.4863 24.3203 40.042 24.8916 39.5244 25.3994C39.0068 25.9072 38.4355 26.3467 37.8105 26.7178C37.1855 27.0889 36.5166 27.3721 35.8037 27.5674C35.0908 27.7627 34.3438 27.8652 33.5625 27.875C33.3379 27.875 33.1133 27.8652 32.8887 27.8457C32.6641 27.8262 32.4346 27.7969 32.2002 27.7578L20.3936 39.5645C19.9248 40.0332 19.3926 40.3896 18.7969 40.6338C18.2012 40.8779 17.5713 41 16.9072 41C16.2334 41 15.5986 40.873 15.0029 40.6191C14.4072 40.3652 13.8896 40.0137 13.4502 39.5645C13.0107 39.1152 12.6592 38.5928 12.3955 37.9971C12.1318 37.4014 12 36.7666 12 36.0928C12 35.4385 12.1221 34.8135 12.3662 34.2178C12.6104 33.6221 12.9668 33.085 13.4355 32.6064L25.2422 20.7998C25.2031 20.5752 25.1738 20.3506 25.1543 20.126C25.1348 19.9014 25.125 19.6719 25.125 19.4375C25.125 18.666 25.2227 17.9238 25.418 17.2109C25.6133 16.498 25.8965 15.8242 26.2676 15.1895C26.6387 14.5547 27.083 13.9834 27.6006 13.4756C28.1182 12.9678 28.6895 12.5283 29.3145 12.1572C29.9395 11.7861 30.6084 11.5029 31.3213 11.3076C32.0342 11.1123 32.7812 11.0098 33.5625 11C34.0898 11 34.5732 11.0391 35.0127 11.1172C35.4521 11.1953 35.8818 11.3174 36.3018 11.4834C36.7217 11.6494 37.127 11.8301 37.5176 12.0254C37.9082 12.2207 38.3281 12.4551 38.7773 12.7285L33.0059 18.5L34.5 19.9941L40.2715 14.2227ZM33.5625 26C34.4707 26 35.3203 25.8291 36.1113 25.4873C36.9023 25.1455 37.5957 24.6768 38.1914 24.0811C38.7871 23.4854 39.2559 22.792 39.5977 22.001C39.9395 21.21 40.1152 20.3555 40.125 19.4375C40.125 18.7246 40.0078 18.0361 39.7734 17.3721L34.5 22.6309L30.3691 18.5L35.6279 13.2266C34.9639 12.9922 34.2754 12.875 33.5625 12.875C32.6543 12.875 31.8047 13.0459 31.0137 13.3877C30.2227 13.7295 29.5293 14.1982 28.9336 14.7939C28.3379 15.3896 27.8691 16.083 27.5273 16.874C27.1855 17.665 27.0098 18.5195 27 19.4375C27 19.7793 27.0293 20.1113 27.0879 20.4336C27.1465 20.7559 27.2148 21.0781 27.293 21.4004L14.7686 33.9395C14.4854 34.2227 14.2656 34.5498 14.1094 34.9209C13.9531 35.292 13.875 35.6826 13.875 36.0928C13.875 36.5029 13.9531 36.8936 14.1094 37.2646C14.2656 37.6357 14.4854 37.958 14.7686 38.2314C15.0518 38.5049 15.374 38.7197 15.7354 38.876C16.0967 39.0322 16.4873 39.1152 16.9072 39.125C17.3174 39.125 17.708 39.0469 18.0791 38.8906C18.4502 38.7344 18.7773 38.5146 19.0605 38.2314L31.5996 25.707C31.9219 25.7852 32.2441 25.8535 32.5664 25.9121C32.8887 25.9707 33.2207 26 33.5625 26Z" fill="#FB8C00"/>
<defs>
<filter id="filter0_d_3276_128" x="66.2975" y="21.7656" width="133.12" height="168.316" filterUnits="userSpaceOnUse" color-interpolation-filters="sRGB">
<feFlood flood-opacity="0" result="BackgroundImageFix"/>
<feColorMatrix in="SourceAlpha" type="matrix" values="0 0 0 0 0 0 0 0 0 0 0 0 0 0 0 0 0 0 127 0" result="hardAlpha"/>
<feOffset dy="3.70809"/>
<feGaussianBlur stdDeviation="18.5404"/>
<feComposite in2="hardAlpha" operator="out"/>
<feColorMatrix type="matrix" values="0 0 0 0 0.976471 0 0 0 0 0.658824 0 0 0 0 0.14902 0 0 0 0.15 0"/>
<feBlend mode="normal" in2="BackgroundImageFix" result="effect1_dropShadow_3276_128"/>
<feBlend mode="normal" in="SourceGraphic" in2="effect1_dropShadow_3276_128" result="shape"/>
</filter>
<filter id="filter1_d_3276_128" x="-2.95224" y="96.9718" width="100.319" height="68.4347" filterUnits="userSpaceOnUse" color-interpolation-filters="sRGB">
<feFlood flood-opacity="0" result="BackgroundImageFix"/>
<feColorMatrix in="SourceAlpha" type="matrix" values="0 0 0 0 0 0 0 0 0 0 0 0 0 0 0 0 0 0 127 0" result="hardAlpha"/>
<feOffset dy="4.66601"/>
<feGaussianBlur stdDeviation="6.29912"/>
<feComposite in2="hardAlpha" operator="out"/>
<feColorMatrix type="matrix" values="0 0 0 0 0 0 0 0 0 0 0 0 0 0 0 0 0 0 0.1 0"/>
<feBlend mode="normal" in2="BackgroundImageFix" result="effect1_dropShadow_3276_128"/>
<feBlend mode="normal" in="SourceGraphic" in2="effect1_dropShadow_3276_128" result="shape"/>
</filter>
</defs>
</svg>
