<svg width="167" height="199" viewBox="0 0 167 199" fill="none" xmlns="http://www.w3.org/2000/svg">
<g clip-path="url(#clip0_3534_154)">
<rect width="167" height="199" rx="17.72" fill="white"/>
<rect x="0.444471" y="0.553846" width="165.046" height="201.6" rx="17.1692" fill="#F0FFFE" stroke="#009688" stroke-width="1.10769"/>
<path d="M104.308 61.75C112.799 61.75 119.683 54.8664 119.683 46.375C119.683 37.8836 112.799 31 104.308 31C95.8167 31 88.9331 37.8836 88.9331 46.375C88.9331 54.8664 95.8167 61.75 104.308 61.75Z" fill="#FF9800"/>
<path d="M107.383 102.647L79.0931 90.0398C76.0181 88.5023 74.4806 93.1148 72.9431 96.1898C71.4056 99.2648 60.3356 118.33 61.2581 121.712C62.1806 124.48 64.6406 126.017 67.1006 126.017C67.7156 126.017 68.3306 126.017 68.9456 125.71L106.768 114.025C109.228 113.41 111.073 110.95 111.073 108.49C111.073 106.03 109.536 103.57 107.383 102.647Z" fill="#00796B"/>
<path d="M100.618 65.44L93.8526 62.365C89.8552 60.52 84.9352 62.365 83.0902 66.3625L46.4977 145.082C44.9602 148.157 46.4977 151.847 49.5727 153.385C50.4952 153.692 51.4177 154 52.3402 154C54.8002 154 56.9527 152.77 57.8752 150.617C57.8752 150.617 87.3952 109.72 89.8551 104.8C92.3151 99.8799 104.923 76.2025 104.923 76.2025C106.46 72.205 104.923 67.285 100.618 65.44Z" fill="#009688"/>
<path d="M142.745 66.9775C140.593 64.5175 136.595 63.9025 134.135 66.055L118.76 78.97L99.0802 68.2075C95.6977 66.3625 91.0853 66.9775 88.9328 70.975C86.4728 74.9725 87.7028 79.8925 91.3927 81.43L116.915 91.885C117.838 92.1925 118.76 92.5 119.683 92.5C121.22 92.5 122.45 91.885 123.68 90.9625L142.13 75.5875C144.59 73.435 144.898 69.745 142.745 66.9775ZM54.1853 89.7325L64.6403 74.05L78.7853 75.895L83.3978 66.3625C84.6278 63.595 87.0878 62.0575 89.8553 61.75H61.5653C59.4128 61.75 57.5678 62.6725 56.3378 64.5175L44.0378 82.9675C42.1928 85.735 42.8078 89.7325 45.8828 91.5775C46.4978 92.1925 47.7278 92.5 48.9578 92.5C50.8028 92.5 52.9553 91.5775 54.1853 89.7325Z" fill="#FF9800"/>
<path d="M30.5483 58.4582C30.7282 58.6533 30.8239 58.9114 30.8145 59.1765C30.8051 59.4417 30.6915 59.6924 30.4983 59.8742L28.3263 61.9052C28.1323 62.0852 27.8748 62.1809 27.6103 62.1713C27.3458 62.1617 27.0959 62.0477 26.9153 61.8542L14.2663 48.2222C14.0866 48.0271 13.9911 47.7689 14.0007 47.5038C14.0102 47.2386 14.124 46.988 14.3173 46.8062L16.4923 44.7782C16.6864 44.5983 16.9439 44.5026 17.2084 44.5122C17.4728 44.5217 17.7228 44.6358 17.9033 44.8292L30.5483 58.4582ZM46.6883 32.8082C46.8681 33.0034 46.9636 33.2616 46.954 33.5267C46.9445 33.7919 46.8307 34.0425 46.6373 34.2242L32.9673 46.9942C32.7733 47.1742 32.5158 47.2699 32.2513 47.2603C31.9868 47.2507 31.7369 47.1367 31.5563 46.9432L28.2933 43.4222C28.1136 43.2271 28.0181 42.9689 28.0277 42.7038C28.0372 42.4386 28.151 42.188 28.3443 42.0062L42.0113 29.2362C42.1072 29.1469 42.2198 29.0774 42.3426 29.0316C42.4653 28.9858 42.5959 28.9647 42.7269 28.9694C42.8579 28.9742 42.9866 29.0047 43.1057 29.0592C43.2249 29.1138 43.3321 29.1912 43.4213 29.2872L46.6883 32.8082ZM35.1993 54.1112C35.5733 54.5142 35.5503 55.1512 35.1483 55.5272L32.9733 57.5572C32.7793 57.7372 32.5218 57.8329 32.2573 57.8233C31.9928 57.8137 31.7429 57.6997 31.5623 57.5062L18.9203 43.8742C18.7405 43.6792 18.6448 43.4211 18.6542 43.156C18.6635 42.8908 18.7771 42.6401 18.9703 42.4582L21.1413 40.4292C21.3354 40.2493 21.5929 40.1536 21.8574 40.1632C22.1218 40.1727 22.3718 40.2868 22.5523 40.4802L35.1993 54.1112ZM56.2623 33.2972C56.4419 33.4925 56.5372 33.7508 56.5275 34.0159C56.5178 34.2811 56.4038 34.5317 56.2103 34.7132L54.0363 36.7432C53.8423 36.9236 53.5847 37.0197 53.32 37.0103C53.0553 37.0009 52.8051 36.8869 52.6243 36.6932L39.9803 23.0642C39.8002 22.8693 39.7044 22.6112 39.7138 22.3459C39.7231 22.0807 39.8369 21.83 40.0303 21.6482L42.2103 19.6132C42.3062 19.5239 42.4188 19.4544 42.5416 19.4086C42.6643 19.3628 42.7949 19.3417 42.9259 19.3464C43.0569 19.3512 43.1856 19.3817 43.3048 19.4362C43.4239 19.4908 43.5311 19.5682 43.6203 19.6642L56.2623 33.2972ZM60.9063 28.9572C61.0856 29.1528 61.1808 29.411 61.1713 29.6762C61.1617 29.9413 61.0482 30.1921 60.8553 30.3742L58.6853 32.4032C58.5895 32.4926 58.477 32.5622 58.3543 32.6081C58.2315 32.654 58.1009 32.6752 57.97 32.6705C57.839 32.6659 57.7103 32.6355 57.5911 32.581C57.4719 32.5266 57.3646 32.4492 57.2753 32.3532L44.6333 18.7182C44.4539 18.5228 44.3585 18.2646 44.3679 17.9995C44.3772 17.7343 44.4906 17.4835 44.6833 17.3012L46.8553 15.2682C46.951 15.1788 47.0634 15.1091 47.1861 15.0632C47.3088 15.0172 47.4393 14.996 47.5702 15.0006C47.7011 15.0053 47.8298 15.0357 47.9489 15.0902C48.0681 15.1447 48.1752 15.2222 48.2643 15.3182L60.9063 28.9572Z" fill="#FB8C00"/>
<rect y="138" width="166.154" height="59.8154" rx="17.7231" fill="#009688"/>
<rect y="139.108" width="166.154" height="25.4769" fill="#009688"/>
<path d="M20.172 161.098C19.528 161.098 18.9493 160.986 18.436 160.762C17.932 160.529 17.5353 160.211 17.246 159.81C16.9567 159.399 16.8073 158.928 16.798 158.396H18.156C18.2027 158.853 18.3893 159.241 18.716 159.558C19.052 159.866 19.5373 160.02 20.172 160.02C20.7787 160.02 21.2547 159.871 21.6 159.572C21.9547 159.264 22.132 158.872 22.132 158.396C22.132 158.023 22.0293 157.719 21.824 157.486C21.6187 157.253 21.362 157.075 21.054 156.954C20.746 156.833 20.3307 156.702 19.808 156.562C19.164 156.394 18.646 156.226 18.254 156.058C17.8713 155.89 17.54 155.629 17.26 155.274C16.9893 154.91 16.854 154.425 16.854 153.818C16.854 153.286 16.9893 152.815 17.26 152.404C17.5307 151.993 17.9087 151.676 18.394 151.452C18.8887 151.228 19.4533 151.116 20.088 151.116C21.0027 151.116 21.7493 151.345 22.328 151.802C22.916 152.259 23.2473 152.866 23.322 153.622H21.922C21.8753 153.249 21.6793 152.922 21.334 152.642C20.9887 152.353 20.5313 152.208 19.962 152.208C19.43 152.208 18.996 152.348 18.66 152.628C18.324 152.899 18.156 153.281 18.156 153.776C18.156 154.131 18.254 154.42 18.45 154.644C18.6553 154.868 18.9027 155.041 19.192 155.162C19.4907 155.274 19.906 155.405 20.438 155.554C21.082 155.731 21.6 155.909 21.992 156.086C22.384 156.254 22.72 156.52 23 156.884C23.28 157.239 23.42 157.724 23.42 158.34C23.42 158.816 23.294 159.264 23.042 159.684C22.79 160.104 22.4167 160.445 21.922 160.706C21.4273 160.967 20.844 161.098 20.172 161.098ZM26.5688 154.742C26.8208 154.303 27.1941 153.939 27.6888 153.65C28.1928 153.351 28.7761 153.202 29.4388 153.202C30.1201 153.202 30.7361 153.365 31.2868 153.692C31.8468 154.019 32.2855 154.481 32.6028 155.078C32.9201 155.666 33.0788 156.352 33.0788 157.136C33.0788 157.911 32.9201 158.601 32.6028 159.208C32.2855 159.815 31.8468 160.286 31.2868 160.622C30.7361 160.958 30.1201 161.126 29.4388 161.126C28.7855 161.126 28.2068 160.981 27.7028 160.692C27.2081 160.393 26.8301 160.025 26.5688 159.586V164.64H25.2948V153.328H26.5688V154.742ZM31.7768 157.136C31.7768 156.557 31.6601 156.053 31.4268 155.624C31.1935 155.195 30.8761 154.868 30.4748 154.644C30.0828 154.42 29.6488 154.308 29.1728 154.308C28.7061 154.308 28.2721 154.425 27.8708 154.658C27.4788 154.882 27.1615 155.213 26.9188 155.652C26.6855 156.081 26.5688 156.581 26.5688 157.15C26.5688 157.729 26.6855 158.237 26.9188 158.676C27.1615 159.105 27.4788 159.437 27.8708 159.67C28.2721 159.894 28.7061 160.006 29.1728 160.006C29.6488 160.006 30.0828 159.894 30.4748 159.67C30.8761 159.437 31.1935 159.105 31.4268 158.676C31.6601 158.237 31.7768 157.724 31.7768 157.136ZM38.1017 161.126C37.3831 161.126 36.7297 160.963 36.1417 160.636C35.5631 160.309 35.1057 159.847 34.7697 159.25C34.4431 158.643 34.2797 157.943 34.2797 157.15C34.2797 156.366 34.4477 155.675 34.7837 155.078C35.1291 154.471 35.5957 154.009 36.1837 153.692C36.7717 153.365 37.4297 153.202 38.1577 153.202C38.8857 153.202 39.5437 153.365 40.1317 153.692C40.7197 154.009 41.1817 154.467 41.5177 155.064C41.8631 155.661 42.0357 156.357 42.0357 157.15C42.0357 157.943 41.8584 158.643 41.5037 159.25C41.1584 159.847 40.6871 160.309 40.0897 160.636C39.4924 160.963 38.8297 161.126 38.1017 161.126ZM38.1017 160.006C38.5591 160.006 38.9884 159.899 39.3897 159.684C39.7911 159.469 40.1131 159.147 40.3557 158.718C40.6077 158.289 40.7337 157.766 40.7337 157.15C40.7337 156.534 40.6124 156.011 40.3697 155.582C40.1271 155.153 39.8097 154.835 39.4177 154.63C39.0257 154.415 38.6011 154.308 38.1437 154.308C37.6771 154.308 37.2477 154.415 36.8557 154.63C36.4731 154.835 36.1651 155.153 35.9317 155.582C35.6984 156.011 35.5817 156.534 35.5817 157.15C35.5817 157.775 35.6937 158.303 35.9177 158.732C36.1511 159.161 36.4591 159.483 36.8417 159.698C37.2244 159.903 37.6444 160.006 38.1017 160.006ZM44.9848 154.574C45.2088 154.135 45.5261 153.795 45.9368 153.552C46.3568 153.309 46.8655 153.188 47.4628 153.188V154.504H47.1268C45.6988 154.504 44.9848 155.279 44.9848 156.828V161H43.7108V153.328H44.9848V154.574ZM50.4875 154.378V158.9C50.4875 159.273 50.5668 159.539 50.7255 159.698C50.8841 159.847 51.1595 159.922 51.5515 159.922H52.4895V161H51.3415C50.6321 161 50.1001 160.837 49.7455 160.51C49.3908 160.183 49.2135 159.647 49.2135 158.9V154.378H48.2195V153.328H49.2135V151.396H50.4875V153.328H52.4895V154.378H50.4875ZM56.7491 161.126C56.1611 161.126 55.6337 161.028 55.1671 160.832C54.7004 160.627 54.3317 160.347 54.0611 159.992C53.7904 159.628 53.6411 159.213 53.6131 158.746H54.9291C54.9664 159.129 55.1437 159.441 55.4611 159.684C55.7877 159.927 56.2124 160.048 56.7351 160.048C57.2204 160.048 57.6031 159.941 57.8831 159.726C58.1631 159.511 58.3031 159.241 58.3031 158.914C58.3031 158.578 58.1537 158.331 57.8551 158.172C57.5564 158.004 57.0944 157.841 56.4691 157.682C55.8997 157.533 55.4331 157.383 55.0691 157.234C54.7144 157.075 54.4064 156.847 54.1451 156.548C53.8931 156.24 53.7671 155.839 53.7671 155.344C53.7671 154.952 53.8837 154.593 54.1171 154.266C54.3504 153.939 54.6817 153.683 55.1111 153.496C55.5404 153.3 56.0304 153.202 56.5811 153.202C57.4304 153.202 58.1164 153.417 58.6391 153.846C59.1617 154.275 59.4417 154.863 59.4791 155.61H58.2051C58.1771 155.209 58.0137 154.887 57.7151 154.644C57.4257 154.401 57.0337 154.28 56.5391 154.28C56.0817 154.28 55.7177 154.378 55.4471 154.574C55.1764 154.77 55.0411 155.027 55.0411 155.344C55.0411 155.596 55.1204 155.806 55.2791 155.974C55.4471 156.133 55.6524 156.263 55.8951 156.366C56.1471 156.459 56.4924 156.567 56.9311 156.688C57.4817 156.837 57.9297 156.987 58.2751 157.136C58.6204 157.276 58.9144 157.491 59.1571 157.78C59.4091 158.069 59.5397 158.447 59.5491 158.914C59.5491 159.334 59.4324 159.712 59.1991 160.048C58.9657 160.384 58.6344 160.65 58.2051 160.846C57.7851 161.033 57.2997 161.126 56.7491 161.126ZM72.752 161H71.478L66.354 153.23V161H65.08V151.228H66.354L71.478 158.984V151.228H72.752V161ZM81.7277 153.328V161H80.4537V159.866C80.211 160.258 79.8704 160.566 79.4317 160.79C79.0024 161.005 78.5264 161.112 78.0037 161.112C77.4064 161.112 76.8697 160.991 76.3937 160.748C75.9177 160.496 75.5397 160.123 75.2597 159.628C74.989 159.133 74.8537 158.531 74.8537 157.822V153.328H76.1137V157.654C76.1137 158.41 76.305 158.993 76.6877 159.404C77.0704 159.805 77.593 160.006 78.2557 160.006C78.937 160.006 79.4737 159.796 79.8657 159.376C80.2577 158.956 80.4537 158.345 80.4537 157.542V153.328H81.7277ZM85.4328 154.378V158.9C85.4328 159.273 85.5121 159.539 85.6708 159.698C85.8294 159.847 86.1048 159.922 86.4968 159.922H87.4348V161H86.2868C85.5774 161 85.0454 160.837 84.6908 160.51C84.3361 160.183 84.1588 159.647 84.1588 158.9V154.378H83.1648V153.328H84.1588V151.396H85.4328V153.328H87.4348V154.378H85.4328ZM90.2524 154.574C90.4764 154.135 90.7937 153.795 91.2044 153.552C91.6244 153.309 92.1331 153.188 92.7304 153.188V154.504H92.3944C90.9664 154.504 90.2524 155.279 90.2524 156.828V161H88.9784V153.328H90.2524V154.574ZM94.859 152.082C94.6164 152.082 94.411 151.998 94.243 151.83C94.075 151.662 93.991 151.457 93.991 151.214C93.991 150.971 94.075 150.766 94.243 150.598C94.411 150.43 94.6164 150.346 94.859 150.346C95.0924 150.346 95.2884 150.43 95.447 150.598C95.615 150.766 95.699 150.971 95.699 151.214C95.699 151.457 95.615 151.662 95.447 151.83C95.2884 151.998 95.0924 152.082 94.859 152.082ZM95.475 153.328V161H94.201V153.328H95.475ZM99.2004 154.378V158.9C99.2004 159.273 99.2797 159.539 99.4384 159.698C99.597 159.847 99.8724 159.922 100.264 159.922H101.202V161H100.054C99.345 161 98.813 160.837 98.4584 160.51C98.1037 160.183 97.9264 159.647 97.9264 158.9V154.378H96.9324V153.328H97.9264V151.396H99.2004V153.328H101.202V154.378H99.2004ZM103.404 152.082C103.161 152.082 102.956 151.998 102.788 151.83C102.62 151.662 102.536 151.457 102.536 151.214C102.536 150.971 102.62 150.766 102.788 150.598C102.956 150.43 103.161 150.346 103.404 150.346C103.637 150.346 103.833 150.43 103.992 150.598C104.16 150.766 104.244 150.971 104.244 151.214C104.244 151.457 104.16 151.662 103.992 151.83C103.833 151.998 103.637 152.082 103.404 152.082ZM104.02 153.328V161H102.746V153.328H104.02ZM109.537 161.126C108.819 161.126 108.165 160.963 107.577 160.636C106.999 160.309 106.541 159.847 106.205 159.25C105.879 158.643 105.715 157.943 105.715 157.15C105.715 156.366 105.883 155.675 106.219 155.078C106.565 154.471 107.031 154.009 107.619 153.692C108.207 153.365 108.865 153.202 109.593 153.202C110.321 153.202 110.979 153.365 111.567 153.692C112.155 154.009 112.617 154.467 112.953 155.064C113.299 155.661 113.471 156.357 113.471 157.15C113.471 157.943 113.294 158.643 112.939 159.25C112.594 159.847 112.123 160.309 111.525 160.636C110.928 160.963 110.265 161.126 109.537 161.126ZM109.537 160.006C109.995 160.006 110.424 159.899 110.825 159.684C111.227 159.469 111.549 159.147 111.791 158.718C112.043 158.289 112.169 157.766 112.169 157.15C112.169 156.534 112.048 156.011 111.805 155.582C111.563 155.153 111.245 154.835 110.853 154.63C110.461 154.415 110.037 154.308 109.579 154.308C109.113 154.308 108.683 154.415 108.291 154.63C107.909 154.835 107.601 155.153 107.367 155.582C107.134 156.011 107.017 156.534 107.017 157.15C107.017 157.775 107.129 158.303 107.353 158.732C107.587 159.161 107.895 159.483 108.277 159.698C108.66 159.903 109.08 160.006 109.537 160.006ZM118.884 153.188C119.818 153.188 120.574 153.473 121.152 154.042C121.731 154.602 122.02 155.414 122.02 156.478V161H120.76V156.66C120.76 155.895 120.569 155.311 120.186 154.91C119.804 154.499 119.281 154.294 118.618 154.294C117.946 154.294 117.41 154.504 117.008 154.924C116.616 155.344 116.42 155.955 116.42 156.758V161H115.146V153.328H116.42V154.42C116.672 154.028 117.013 153.725 117.442 153.51C117.881 153.295 118.362 153.188 118.884 153.188ZM129.421 155.33V156.408H123.835V155.33H129.421ZM29.342 172.242L26.514 182H25.086L22.818 174.146L20.466 182L19.052 182.014L16.322 172.242H17.68L19.808 180.516L22.16 172.242H23.588L25.828 180.488L27.97 172.242H29.342ZM34.5442 174.188C35.1229 174.188 35.6455 174.314 36.1122 174.566C36.5789 174.809 36.9429 175.177 37.2042 175.672C37.4749 176.167 37.6102 176.769 37.6102 177.478V182H36.3502V177.66C36.3502 176.895 36.1589 176.311 35.7762 175.91C35.3935 175.499 34.8709 175.294 34.2082 175.294C33.5362 175.294 32.9995 175.504 32.5982 175.924C32.2062 176.344 32.0102 176.955 32.0102 177.758V182H30.7362V171.64H32.0102V175.42C32.2622 175.028 32.6075 174.725 33.0462 174.51C33.4942 174.295 33.9935 174.188 34.5442 174.188ZM46.6913 177.87C46.6913 178.113 46.6773 178.369 46.6493 178.64H40.5173C40.5639 179.396 40.8206 179.989 41.2873 180.418C41.7633 180.838 42.3373 181.048 43.0093 181.048C43.5599 181.048 44.0173 180.922 44.3813 180.67C44.7546 180.409 45.0159 180.063 45.1653 179.634H46.5373C46.3319 180.371 45.9213 180.973 45.3053 181.44C44.6893 181.897 43.9239 182.126 43.0093 182.126C42.2813 182.126 41.6279 181.963 41.0493 181.636C40.4799 181.309 40.0319 180.847 39.7053 180.25C39.3786 179.643 39.2153 178.943 39.2153 178.15C39.2153 177.357 39.3739 176.661 39.6913 176.064C40.0086 175.467 40.4519 175.009 41.0213 174.692C41.5999 174.365 42.2626 174.202 43.0093 174.202C43.7373 174.202 44.3813 174.361 44.9413 174.678C45.5013 174.995 45.9306 175.434 46.2293 175.994C46.5373 176.545 46.6913 177.17 46.6913 177.87ZM45.3753 177.604C45.3753 177.119 45.2679 176.703 45.0533 176.358C44.8386 176.003 44.5446 175.737 44.1713 175.56C43.8073 175.373 43.4013 175.28 42.9533 175.28C42.3093 175.28 41.7586 175.485 41.3013 175.896C40.8533 176.307 40.5966 176.876 40.5313 177.604H45.3753ZM54.9809 174.328L50.3609 185.612H49.0449L50.5569 181.916L47.4629 174.328H48.8769L51.2849 180.544L53.6649 174.328H54.9809ZM66.518 175.098C66.518 175.91 66.238 176.587 65.678 177.128C65.1273 177.66 64.2827 177.926 63.144 177.926H61.268V182H59.994V172.242H63.144C64.2453 172.242 65.0807 172.508 65.65 173.04C66.2287 173.572 66.518 174.258 66.518 175.098ZM63.144 176.876C63.8533 176.876 64.376 176.722 64.712 176.414C65.048 176.106 65.216 175.667 65.216 175.098C65.216 173.894 64.5253 173.292 63.144 173.292H61.268V176.876H63.144ZM69.3754 175.574C69.5994 175.135 69.9168 174.795 70.3274 174.552C70.7474 174.309 71.2561 174.188 71.8534 174.188V175.504H71.5174C70.0894 175.504 69.3754 176.279 69.3754 177.828V182H68.1014V174.328H69.3754V175.574ZM76.6701 182.126C75.9514 182.126 75.2981 181.963 74.7101 181.636C74.1314 181.309 73.6741 180.847 73.3381 180.25C73.0114 179.643 72.8481 178.943 72.8481 178.15C72.8481 177.366 73.0161 176.675 73.3521 176.078C73.6974 175.471 74.1641 175.009 74.7521 174.692C75.3401 174.365 75.9981 174.202 76.7261 174.202C77.4541 174.202 78.1121 174.365 78.7001 174.692C79.2881 175.009 79.7501 175.467 80.0861 176.064C80.4314 176.661 80.6041 177.357 80.6041 178.15C80.6041 178.943 80.4268 179.643 80.0721 180.25C79.7268 180.847 79.2554 181.309 78.6581 181.636C78.0608 181.963 77.3981 182.126 76.6701 182.126ZM76.6701 181.006C77.1274 181.006 77.5568 180.899 77.9581 180.684C78.3594 180.469 78.6814 180.147 78.9241 179.718C79.1761 179.289 79.3021 178.766 79.3021 178.15C79.3021 177.534 79.1808 177.011 78.9381 176.582C78.6954 176.153 78.3781 175.835 77.9861 175.63C77.5941 175.415 77.1694 175.308 76.7121 175.308C76.2454 175.308 75.8161 175.415 75.4241 175.63C75.0414 175.835 74.7334 176.153 74.5001 176.582C74.2668 177.011 74.1501 177.534 74.1501 178.15C74.1501 178.775 74.2621 179.303 74.4861 179.732C74.7194 180.161 75.0274 180.483 75.4101 180.698C75.7928 180.903 76.2128 181.006 76.6701 181.006ZM93.0116 177.87C93.0116 178.113 92.9976 178.369 92.9696 178.64H86.8376C86.8843 179.396 87.1409 179.989 87.6076 180.418C88.0836 180.838 88.6576 181.048 89.3296 181.048C89.8803 181.048 90.3376 180.922 90.7016 180.67C91.0749 180.409 91.3363 180.063 91.4856 179.634H92.8576C92.6523 180.371 92.2416 180.973 91.6256 181.44C91.0096 181.897 90.2443 182.126 89.3296 182.126C88.6016 182.126 87.9483 181.963 87.3696 181.636C86.8003 181.309 86.3523 180.847 86.0256 180.25C85.6989 179.643 85.5356 178.943 85.5356 178.15C85.5356 177.357 85.6943 176.661 86.0116 176.064C86.3289 175.467 86.7723 175.009 87.3416 174.692C87.9203 174.365 88.5829 174.202 89.3296 174.202C90.0576 174.202 90.7016 174.361 91.2616 174.678C91.8216 174.995 92.2509 175.434 92.5496 175.994C92.8576 176.545 93.0116 177.17 93.0116 177.87ZM91.6956 177.604C91.6956 177.119 91.5883 176.703 91.3736 176.358C91.1589 176.003 90.8649 175.737 90.4916 175.56C90.1276 175.373 89.7216 175.28 89.2736 175.28C88.6296 175.28 88.0789 175.485 87.6216 175.896C87.1736 176.307 86.9169 176.876 86.8516 177.604H91.6956ZM96.2472 175.378V179.9C96.2472 180.273 96.3266 180.539 96.4852 180.698C96.6439 180.847 96.9192 180.922 97.3112 180.922H98.2492V182H97.1012C96.3919 182 95.8599 181.837 95.5052 181.51C95.1506 181.183 94.9732 180.647 94.9732 179.9V175.378H93.9792V174.328H94.9732V172.396H96.2472V174.328H98.2492V175.378H96.2472ZM99.3168 178.15C99.3168 177.357 99.4755 176.666 99.7928 176.078C100.11 175.481 100.549 175.019 101.109 174.692C101.678 174.365 102.327 174.202 103.055 174.202C103.998 174.202 104.772 174.431 105.379 174.888C105.995 175.345 106.401 175.98 106.597 176.792H105.225C105.094 176.325 104.838 175.957 104.455 175.686C104.082 175.415 103.615 175.28 103.055 175.28C102.327 175.28 101.739 175.532 101.291 176.036C100.843 176.531 100.619 177.235 100.619 178.15C100.619 179.074 100.843 179.788 101.291 180.292C101.739 180.796 102.327 181.048 103.055 181.048C103.615 181.048 104.082 180.917 104.455 180.656C104.828 180.395 105.085 180.021 105.225 179.536H106.597C106.392 180.32 105.981 180.95 105.365 181.426C104.749 181.893 103.979 182.126 103.055 182.126C102.327 182.126 101.678 181.963 101.109 181.636C100.549 181.309 100.11 180.847 99.7928 180.25C99.4755 179.653 99.3168 178.953 99.3168 178.15Z" fill="white"/>
</g>
<defs>
<clipPath id="clip0_3534_154">
<rect width="167" height="199" rx="17.72" fill="white"/>
</clipPath>
</defs>
</svg>
