<svg width="167" height="203" viewBox="0 0 167 203" fill="none" xmlns="http://www.w3.org/2000/svg">
<rect x="0.553846" y="0.553846" width="165.046" height="201.6" rx="17.1692" fill="#F0FFFD" stroke="#80DDD2" stroke-width="1.10769"/>
<path d="M65.5882 27H70.6471V39.7778H65.5882V27ZM65.5882 44.8889H70.6471V60.2222H65.5882V44.8889ZM65.5882 85.7778H70.6471V101.111H65.5882V85.7778ZM75.7059 27H80.7647V29.5556H75.7059V27ZM45.3529 85.7778H50.4118V101.111H45.3529V85.7778ZM75.7059 34.6667H80.7647V50H75.7059V34.6667ZM55.4706 27H60.5294V29.5556H55.4706V27ZM55.4706 75.5556H60.5294V90.8889H55.4706V75.5556ZM55.4706 34.6667H60.5294V50H55.4706V34.6667ZM45.3529 65.3333H50.4118V80.6667H45.3529V65.3333ZM55.4706 55.1111H60.5294V70.4444H55.4706V55.1111ZM55.4706 96H60.5294V111.333H55.4706V96ZM65.5882 65.3333H70.6471V80.6667H65.5882V65.3333ZM95.9412 96H101V111.333H95.9412V96ZM95.9412 55.1111H101V70.4444H95.9412V55.1111ZM95.9412 75.5556H101V90.8889H95.9412V75.5556ZM95.9412 27.2556V29.5556H99.9882C98.9765 28.5333 97.4588 27.7667 95.9412 27.2556ZM75.7059 55.1111H80.7647V70.4444H75.7059V55.1111ZM99.9882 116.444H95.9412V118.744C97.4588 118.233 98.9765 117.467 99.9882 116.444ZM85.8235 44.8889H90.8824V60.2222H85.8235V44.8889ZM75.7059 96H80.7647V111.333H75.7059V96ZM85.8235 85.7778H90.8824V101.111H85.8235V85.7778ZM95.9412 34.6667H101V50H95.9412V34.6667ZM85.8235 65.3333H90.8824V80.6667H85.8235V65.3333ZM75.7059 75.5556H80.7647V90.8889H75.7059V75.5556ZM85.8235 106.222H90.8824V119H85.8235V106.222ZM85.8235 27H90.8824V39.7778H85.8235V27ZM75.7059 116.444H80.7647V119H75.7059V116.444ZM55.4706 116.444H60.5294V119H55.4706V116.444ZM65.5882 106.222H70.6471V119H65.5882V106.222ZM45.3529 106.222H50.4118V119H45.3529V106.222ZM15 55.1111H20.0588V70.4444H15V55.1111ZM20.0588 116.444H16.0118C17.2765 117.467 18.5412 118.233 20.0588 118.744V116.444ZM16.0118 29.5556H20.0588V27.2556C18.5412 27.7667 17.0235 28.5333 16.0118 29.5556ZM15 96H20.0588V111.333H15V96ZM15 75.5556H20.0588V90.8889H15V75.5556ZM15 34.6667H20.0588V50H15V34.6667ZM25.1176 85.7778H30.1765V101.111H25.1176V85.7778ZM35.2353 55.1111H40.2941V70.4444H35.2353V55.1111ZM35.2353 96H40.2941V111.333H35.2353V96ZM35.2353 34.6667H40.2941V50H35.2353V34.6667ZM35.2353 27H40.2941V29.5556H35.2353V27ZM45.3529 27H50.4118V39.7778H45.3529V27ZM35.2353 75.5556H40.2941V90.8889H35.2353V75.5556ZM35.2353 116.444H40.2941V119H35.2353V116.444ZM25.1176 65.3333H30.1765V80.6667H25.1176V65.3333ZM25.1176 27H30.1765V39.7778H25.1176V27ZM25.1176 106.222H30.1765V119H25.1176V106.222ZM45.3529 44.8889H50.4118V60.2222H45.3529V44.8889ZM25.1176 44.8889H30.1765V60.2222H25.1176V44.8889Z" fill="#FF8A65"/>
<path d="M84.6341 50.3999L73.9341 60.6199L83.9441 116.07C92.4141 113.08 98.2041 107.48 102.854 104.59C105.554 102.91 108.484 102 108.484 102L84.6341 50.3999Z" fill="#00796B"/>
<path d="M88.234 58.1299L95.214 73.2899C95.214 73.2899 87.784 66.5499 86.904 74.7399C86.034 82.9299 84.214 90.9799 84.214 90.9799L75.084 56.4399L88.234 58.1299Z" fill="#00695C"/>
<path d="M107.574 100.2C103.664 101.1 100.564 103.41 97.1542 105.81C93.3542 108.52 89.2442 111.43 83.5542 113.16L84.3042 117.04C91.6142 115.06 96.6642 111.49 100.764 108.62C103.874 106.42 106.574 104.51 109.284 103.91L107.574 100.2Z" fill="#E2A610"/>
<path d="M99.6642 52.0999C97.1642 48.8899 92.1242 42.0499 86.9042 38.8099C80.5942 34.9999 73.8142 32.6599 73.8142 32.6599C73.8142 32.6599 68.7742 41.1899 61.2942 42.5799C53.8142 43.9699 47.9642 39.4699 46.5642 37.5699C45.0642 35.3699 44.2642 32.9599 42.7542 33.4599C40.2542 34.3599 36.3442 35.4199 32.1342 38.4699C28.6042 41.0299 21.9042 48.8999 19.4042 52.0999C18.8042 52.7999 18.9042 53.8999 19.6042 54.4999L28.1242 63.0199C28.8242 63.7199 30.0242 63.7199 30.7342 63.0199L36.8442 57.2099L37.8442 61.5199C39.0442 66.5299 39.4442 68.7299 39.3442 70.9399C39.3442 71.0299 79.7242 71.0299 79.7242 70.9399C79.6242 68.7399 80.0242 66.5299 81.2242 61.5199L82.2242 57.2099L88.3342 63.0199C89.0342 63.7199 90.2342 63.7199 90.9442 63.0199L99.4642 54.4999C100.164 53.9099 100.264 52.7999 99.6642 52.0999Z" fill="#C62828"/>
<path d="M29.424 119.74L26.314 145.09C32.724 149.2 40.344 146.29 44.654 147.29C48.964 148.29 53.174 151.4 60.684 151.4C68.194 151.4 70.304 148.29 74.614 147.29C78.924 146.29 84.834 149.29 93.954 143.88L79.924 67.6301C79.974 67.5301 71.004 85.5601 58.034 98.9601C45.744 111.65 29.424 119.74 29.424 119.74Z" fill="#26A69A"/>
<path d="M39.494 120.88C40.314 120.39 44.024 118.42 43.684 123.75C43.144 132.05 41.394 147.63 41.394 147.63C41.394 147.63 43.354 147.61 44.644 148.06C46.094 148.57 49.944 149.92 49.944 149.92C49.944 149.92 52.054 130.95 53.354 121.5C55.204 108.09 60.374 104.28 61.924 103.34C63.464 102.41 66.004 102.22 67.444 105.48C70.524 112.47 73.054 131.31 73.524 135.34C73.994 139.37 75.004 138.82 75.044 135.07C75.164 122.92 75.424 94.2301 76.414 86.5601C78.264 72.2201 80.564 71.1401 80.564 71.1401L79.914 67.6301C79.934 67.5901 80.774 67.5801 78.614 67.5801C75.134 74.9101 67.644 88.8301 56.304 100.19C39.104 117.43 29.424 119.74 29.424 119.74L28.624 126.35C28.624 126.35 31.414 125.75 39.494 120.88Z" fill="#00796B"/>
<path d="M60.6843 152C53.0343 151.97 49.5543 149.41 43.9543 147.79C38.4643 147.24 31.6943 149.4 26.1143 145.59L26.8643 140.56C32.3643 144.44 39.3343 142.28 45.1443 143.28C50.5543 144.71 53.9943 147.39 60.5743 147.39C67.0843 147.44 68.2443 144.12 73.9043 143.38C80.8443 142.48 85.0843 145 93.1043 139.33L94.1643 144.58C85.3443 149.83 81.6143 147.25 75.1043 147.98C70.0343 149.51 68.4443 151.97 60.6843 152Z" fill="#FFCA28"/>
<path d="M55.484 41.76C48.974 40.86 46.564 35.85 45.564 33.74C45.264 33.14 44.564 32.84 43.864 33.04L40.584 34.27C40.584 34.27 42.564 39.66 45.664 42.36C51.774 47.77 60.794 47.67 66.204 44.36L67.004 37.95C62.704 41.16 61.094 42.46 55.484 41.76Z" fill="#FF7555"/>
<path d="M73.1438 32.3799C60.3638 45.5899 36.0738 64.5899 36.0738 64.5899L38.0038 73.2399L35.4538 78.5899L35.5138 90.0899L32.7638 96.0699L29.4238 119.74C29.4238 119.74 54.3738 108.38 67.9738 86.6399C82.7838 63.4299 84.3238 52.0299 86.6438 38.3499C86.6438 38.3499 78.7338 33.6399 73.1438 32.3799Z" fill="#80DDD2"/>
<path d="M36.0741 64.5899C36.0741 64.5899 37.5241 72.6199 37.6141 73.3499C37.7041 74.0799 34.9941 77.6599 34.9941 79.0499C34.9941 80.4399 34.9641 88.6599 34.9641 89.6399C34.9641 90.6199 32.4241 94.8599 32.3041 95.8199C32.1841 96.7699 29.4141 119.75 29.4141 119.75C29.4141 119.75 32.6441 119.27 36.4641 117.05C37.3841 100.55 35.6341 95.1299 38.9541 92.3299C42.2741 89.5399 48.7941 85.0699 57.0441 70.9499C57.3941 70.3599 57.8041 69.1399 56.9841 68.9499C56.3041 68.7899 55.5141 70.2599 55.3641 70.4699C52.9641 73.9199 49.1541 78.7399 41.7141 82.5299C38.5141 84.1599 38.6641 76.3799 40.1441 75.5699C42.8341 73.9799 50.2041 67.9699 55.4141 61.2799C55.5941 61.0399 56.5341 59.9599 56.1141 59.5599C55.7341 59.2099 54.6941 60.2299 54.6941 60.2399C54.6941 60.2399 47.6241 66.7799 44.5441 68.0399C40.9041 69.6099 41.2941 66.0699 41.0441 60.6399C37.2341 63.7199 36.0741 64.5899 36.0741 64.5899Z" fill="#29B3A6"/>
<path d="M41.6439 108.29L38.7339 104.69L41.6439 101.09L44.5639 104.69L41.6439 108.29Z" fill="#FFE36C"/>
<path d="M33.4943 112.97L31.1343 110.04L33.4943 107.12L35.8643 110.04L33.4943 112.97Z" fill="#FFCA28"/>
<path d="M57.1838 93.9799L53.6738 89.7699L57.1838 85.5599L60.5838 89.8699L57.1838 93.9799ZM71.4438 73.7999L67.9338 69.5899L71.4438 65.3899L74.8438 69.6899L71.4438 73.7999ZM76.3938 63.9699L73.3538 60.3199L76.3938 56.6799L79.3438 60.4099L76.3938 63.9699ZM49.7138 101.91L46.4038 97.9399L49.6138 93.9799L52.9238 97.9399L49.7138 101.91Z" fill="#FFE36C"/>
<path d="M37.0041 136.37L33.4941 132.16L37.0041 127.95L40.4141 132.16L37.0041 136.37ZM82.2641 136.37L78.7541 132.16L82.2641 127.95L85.7741 132.16L82.2641 136.37Z" fill="#FFCA28"/>
<path d="M93.9041 100L90.4941 95.7901L93.9041 91.5801L97.4041 95.7901L93.9041 100Z" fill="#E2A610"/>
<path d="M60.6343 142.48L57.1343 138.27L60.6343 134.06L64.1443 138.27L60.6343 142.48Z" fill="#FFE36C"/>
<path d="M33.034 60.92L21.584 49.26C20.814 50.13 19.804 51.6 19.394 52.1C18.794 52.8 18.894 53.9 19.594 54.5L28.114 63.02C28.814 63.72 30.014 63.72 30.724 63.02C30.624 63.12 33.034 60.92 33.034 60.92ZM86.034 60.84L97.454 49.32C98.134 50.09 99.324 51.6 99.654 52.13C100.284 52.92 100.154 53.93 99.454 54.53L90.934 63.05C90.234 63.75 89.034 63.75 88.324 63.05C88.444 63.14 86.034 60.84 86.034 60.84Z" fill="#FF7555"/>
<path d="M48.754 44.56C46.6007 43.503 44.7653 41.8953 43.434 39.9C43.3713 39.802 43.3295 39.6922 43.3112 39.5773C43.2929 39.4625 43.2984 39.345 43.3275 39.2324C43.3566 39.1198 43.4086 39.0144 43.4803 38.9228C43.5519 38.8312 43.6417 38.7553 43.744 38.7L45.754 37.58C46.114 37.38 46.584 37.46 46.834 37.79C47.874 39.12 48.824 40.06 50.334 40.95C50.704 41.16 50.844 41.62 50.684 42.01L49.884 44.11C49.714 44.56 49.184 44.78 48.754 44.56ZM25.184 58.79L22.434 55.98C22.271 55.814 22.1747 55.5938 22.1637 55.3614C22.1526 55.129 22.2275 54.9007 22.374 54.72L23.774 52.99C23.8581 52.8868 23.9629 52.8024 24.0816 52.7423C24.2004 52.6822 24.3305 52.6478 24.4634 52.6412C24.5964 52.6346 24.7292 52.656 24.8533 52.704C24.9775 52.752 25.0901 52.8256 25.184 52.92L28.344 56.14C28.4389 56.2374 28.5118 56.3542 28.5578 56.4822C28.6037 56.6103 28.6216 56.7468 28.6102 56.8824C28.5988 57.018 28.5585 57.1495 28.4918 57.2681C28.4252 57.3868 28.3339 57.4897 28.224 57.57L26.414 58.89C26.034 59.17 25.514 59.13 25.184 58.79Z" fill="#FFA996"/>
<path d="M79.7642 55.3201L77.1342 52.1001L79.6942 49.0201L82.3242 52.1701L79.7642 55.3201ZM82.4742 46.4901L80.2142 43.7101L82.4042 41.0601L84.6742 43.7701L82.4742 46.4901ZM64.9342 83.9801L61.2842 79.6001L64.8342 75.2201L68.4842 79.6001L64.9342 83.9801Z" fill="#FFE36C"/>
<path d="M57.194 148.1L56.994 150.41C56.9762 150.636 57.0446 150.861 57.1856 151.039C57.3265 151.217 57.5296 151.335 57.754 151.37C59.174 151.58 62.164 151.71 65.114 151.16C65.574 151.07 65.884 150.62 65.814 150.15L65.414 147.73C65.344 147.23 64.874 146.85 64.384 146.96C61.404 147.61 59.334 147.39 58.174 147.27C58.0543 147.256 57.933 147.266 57.8176 147.301C57.7022 147.336 57.5952 147.394 57.5032 147.472C57.4113 147.549 57.3364 147.645 57.2832 147.754C57.2299 147.862 57.1996 147.98 57.194 148.1Z" fill="#FFF59D"/>
<path d="M94.8441 57.7601L97.5941 54.9501C97.9341 54.6101 97.9541 54.0701 97.6541 53.6901L96.2541 51.9601C96.17 51.8569 96.0652 51.7725 95.9464 51.7124C95.8277 51.6523 95.6976 51.6179 95.5647 51.6113C95.4317 51.6047 95.2989 51.6261 95.1748 51.6741C95.0506 51.7221 94.938 51.7957 94.8441 51.8901L91.6841 55.1101C91.5891 55.2075 91.5162 55.3243 91.4703 55.4523C91.4244 55.5804 91.4065 55.7169 91.4179 55.8525C91.4293 55.988 91.4696 56.1196 91.5363 56.2382C91.6029 56.3569 91.6942 56.4598 91.8041 56.5401L93.6141 57.8601C93.9941 58.1401 94.5141 58.1001 94.8441 57.7601Z" fill="#FFA996"/>
<path d="M74.4938 32.71L72.3138 32C58.1838 46.01 37.2738 61.74 37.2738 61.74C36.0438 62.77 35.9138 63.95 36.2038 65.75C52.4638 55.86 74.4938 32.71 74.4938 32.71ZM86.2538 38.29C86.2538 38.29 86.0838 57.29 66.7638 85.77C52.9538 106.12 34.9638 115.3 29.5838 117.77C29.4438 119.06 29.2838 120.45 29.1738 121.49C29.1738 121.49 52.9138 112.56 69.3138 87.35C87.4538 59.47 88.2738 39.49 88.2738 39.49C87.1938 38.73 86.8038 38.5 86.2538 38.29Z" fill="#FFE36C"/>
<path d="M81.6841 35.65L80.2441 35.01C68.5241 71.55 43.2341 93.31 31.5641 101.97C31.5341 102.1 31.5141 102.22 31.4841 102.35C31.3141 103.32 31.1241 104.59 30.9341 106C41.4441 98.96 68.6741 77.34 81.6841 35.65Z" fill="#FFE36C"/>
<path d="M46.0541 54.89C40.8541 59.04 36.7141 61.95 36.7141 61.95C35.4841 62.98 35.9141 63.95 36.2041 65.75C39.4341 63.78 42.9041 61.29 46.3741 58.56C46.2841 57.33 46.1641 56.01 46.0541 54.89ZM36.6141 114.08C34.0241 115.56 30.9141 117.17 29.5941 117.78C29.4541 119.07 29.2941 120.46 29.1841 121.5C29.1841 121.5 32.5841 120.08 36.6141 117.88V114.08ZM31.5641 101.97C31.5341 102.1 31.5141 102.22 31.4841 102.35C31.3141 103.32 31.1241 104.59 30.9341 106C32.1741 105.17 35.1341 102.99 36.7841 101.75L36.8841 97.8C35.4541 98.96 32.7441 101.09 31.5641 101.97ZM66.3141 37.7C67.0541 37.88 69.2841 37.99 69.2841 37.99C70.9541 36.3 74.4941 32.71 74.4941 32.71L72.3141 32C71.3941 32.92 67.2941 36.78 66.3141 37.7ZM77.1341 43.5L78.8041 43.98C79.4041 42.56 81.3241 36.8 81.6841 35.66L80.2441 35.01C79.8941 36.1 77.1341 43.5 77.1341 43.5ZM84.6741 47.89L86.7041 48.94C88.0241 44.33 88.2841 39.49 88.2841 39.49C88.2841 39.49 86.9641 38.44 86.2541 38.12C86.2541 38.12 86.0341 42.56 84.6741 47.89Z" fill="#FFCA28"/>
<path d="M50.514 145.15C46.334 142.86 43.004 143.03 41.894 143C41.594 145.77 41.394 147.7 41.394 147.7C44.524 147.78 45.414 148.55 49.944 149.92C49.944 149.91 50.174 148.03 50.514 145.15ZM79.524 143.18C77.984 143.16 75.694 143.15 73.914 143.38C73.844 143.39 73.174 143.5 73.104 143.51L73.424 148.57C73.734 148.46 75.204 147.7 80.424 147.92L79.524 143.18Z" fill="#E2A610"/>
<path d="M117.328 92C117.126 101.114 125.829 114.604 133.879 133.657C135.913 139.062 111.767 141.964 105.357 134.479C98.9471 126.993 117.328 92 117.328 92Z" fill="#FFAC33"/>
<path d="M118.95 88.4793C119.938 96.8946 125.856 112.387 132.987 130.81C133.604 137.184 111.804 138.291 105.388 130.711C100.993 125.52 107.988 96.2623 113.155 86.5823C115.531 82.1333 118.95 88.4793 118.95 88.4793Z" fill="#5C913B"/>
<path d="M126.869 148.652C126.676 147.792 126.478 146.934 126.274 146.077L126.251 145.983C123.175 133.128 117.011 112.236 116.322 96.8886L119.737 85.6632L119.629 82.113L119.253 70L115.006 75.1803C114.171 75.4648 113.306 76.3153 112.491 77.9482C110.318 82.2922 92.2629 94.7067 80.8386 103.275C80.0411 116.486 75.5893 137.973 73.4874 147.559L73.4674 147.5C73.3506 148.1 73.2367 148.706 73.1142 149.252C71.861 155.394 81.1633 157.917 89.0472 154.518L89.0643 154.512C90.0982 155.513 91.2973 156.25 92.5705 156.796C98.7853 159.465 106.968 157.212 108.766 154.737L108.768 154.731C109.888 155.141 111.058 155.436 112.243 155.644C119.913 156.981 128.142 154.193 126.869 148.652Z" fill="#77B255"/>
<path d="M84.4258 56.0774C76.3855 56.5574 70.4628 63.9334 66.4341 70.1876C65.1375 72.3348 63.5379 74.8483 63 77.3307C64.642 87.3566 138.724 88.6006 134.854 74.7404C130.825 67.4184 125.231 59.7782 118.504 57.0573L114.427 56.103C113.302 56.0216 112.174 55.9884 111.047 56.0036C104.071 66.6316 88.7036 62.5786 84.4258 56.0774Z" fill="#9266CC"/>
<path d="M89 152.026L90.2533 155L92.1375 153.411L92.1404 153.465C91.8091 145.549 91.6276 136.875 91.2213 131.967C90.7969 132.293 90.3666 132.613 89.9306 132.928C89.7952 138.147 89.5532 146.428 89 152.026ZM108.785 152.238L110.421 155L112 152.69C110.948 136.688 109.934 118.048 109.148 111L108.58 111.936C108.909 120.4 109.214 141.492 108.785 152.238Z" fill="#66A141"/>
<path d="M119.997 70L79.1884 118.649C79.1884 118.649 76.618 132.961 75 140C80.7405 138.543 85.8154 135.949 90.2907 132.706C90.7229 132.391 91.1513 132.069 91.5759 131.743C98.9717 126.033 104.643 118.578 108.86 111.664C109.052 111.351 109.24 111.038 109.426 110.726C112.664 105.283 115.003 100.258 116.56 96.7936L120 85.6078L119.997 70Z" fill="#5C913B"/>
<path d="M98.1475 61.7572C89.493 61.7572 84.7494 56.0029 84.7494 56.0029C84.4968 56.0029 84 56.0689 84 56.0747C84.066 62.6387 93.803 79 100.301 79C106.822 79 111 62.521 111 56H110.503C110.503 56 106.799 61.7572 98.1475 61.7572Z" fill="#553788"/>
<path d="M119.96 82.0881L120.491 85.8735L131.762 82.3365C132.371 82.1474 132.934 81.834 133.415 81.4162C133.896 80.9985 134.286 80.4855 134.558 79.9097C134.831 79.3339 134.98 78.7078 134.998 78.0712C135.016 77.4345 134.901 76.8011 134.661 76.211C134.489 75.7941 134.289 75.3895 134.062 75C133.703 78.8588 131.409 79.398 119.96 82.0881ZM126.439 148.729C126.248 147.877 126.051 147.025 125.849 146.175V146.178C124.809 150.804 119.319 153.548 111.746 152.862C110.978 152.783 110.214 152.673 109.455 152.532C109.17 152.483 108.883 152.442 108.596 152.408C103.702 154.948 98.2631 155.936 92.2731 153.63L92.2702 153.576C92.1064 153.551 91.9397 153.497 91.7729 153.449C90.9507 153.206 90.0889 152.712 89.1933 152.196C85.1726 153.17 76.2553 154.186 73.4835 147.64L73.4637 147.58C73.3478 148.176 73.2348 148.777 73.1133 149.319C71.8701 155.414 81.0982 157.918 88.9192 154.544L88.9361 154.539C89.9618 155.532 91.1513 156.264 92.4143 156.805C98.5796 159.453 106.697 157.218 108.48 154.762L108.483 154.756C109.593 155.163 110.755 155.456 111.93 155.662C119.539 156.995 127.702 154.228 126.439 148.729Z" fill="#FFAC33"/>
<path d="M111.819 152.735C110.709 152.631 110.255 152.499 109.526 152.364C109.241 152.312 108.955 152.267 108.667 152.23C108.634 153.163 108.594 154.002 108.552 154.78L108.555 154.774C109.664 155.215 110.825 155.533 112 155.757L111.819 152.735ZM92.3523 153.555L92.3495 153.497C92.1857 153.47 92.019 153.412 91.8524 153.359C91.0306 153.096 90.1692 152.56 89.2739 152C89.1892 152.934 89.0988 153.77 89 154.547L89.0169 154.541C90.0421 155.619 91.2311 156.412 92.4935 157C92.4398 155.803 92.4059 154.994 92.3523 153.555Z" fill="#FF960D"/>
<path d="M119.939 86L119 65.3561L124.997 63C124.997 63 125.203 68.2442 121.999 80.807C122.429 83.0265 122.812 85.0354 122.812 85.0354L119.939 86Z" fill="#553788"/>
<path d="M110.299 56C109.421 57.7442 103.889 71.321 77.8826 82.1429C77.8798 82.1598 76.3264 81.8031 76.3122 81.8002C68.446 79.9541 64.158 78.949 62.1048 77.2586C61.8625 78.3639 62.0437 79.5196 62.6129 80.4984C63.182 81.4772 64.0979 82.2083 65.1803 82.5477L75.483 85.433L77.8286 85.9398L77.8315 85.937C78.1013 91.3649 79.4558 99.4742 80.6201 103.464C79.6915 117.876 75.7755 136 75.7755 136C75.7755 136 112.008 125.331 125 62.0282C120.402 56.9967 114.24 56 112.653 56H110.299Z" fill="#FFAC33"/>
<path d="M77 131C77.2084 128.185 80.1827 113.369 80.8615 103.331C77 93.2501 78.0872 87.2978 78.09 85.8549C78.09 85.8549 101.727 78.9538 112.644 56C118.851 56.096 122.104 59.5381 123 60.2299C117.468 101.193 86.3397 127.88 77 131Z" fill="#77B255"/>
<path d="M100 88C94.5042 93.1627 87.8442 96.8804 80 100.561C80.3191 101.578 80.6726 102.624 81.1066 103.743C80.9248 106.167 80.6727 108.585 80.3507 110.994L80.3536 111C84.2167 108.801 97.5941 92.9927 100 88Z" fill="#5C913B"/>
<path d="M84.9607 118.131L86.0066 120.027L87.9215 121.067L86.0066 122.104L84.9607 124L83.9149 122.104L82 121.067L83.9149 120.027L84.9607 118.131ZM95.5442 107.302L96.59 109.199L98.5021 110.238L96.59 111.276L95.5442 113.172L94.4955 111.276L92.5835 110.238L94.4955 109.199L95.5442 107.302ZM104.555 95.4682L105.6 97.3642L107.513 98.4041L105.6 99.4412L104.555 101.337L103.509 99.4412L101.594 98.4041L103.509 97.3642L104.555 95.4682ZM111.425 85.1795L112.331 86.8241L113.99 87.7227L112.331 88.6213L111.425 90.2659L110.519 88.6213L108.86 87.7227L110.519 86.8241L111.425 85.1795ZM116.908 73.9753L117.614 75.2526L118.902 75.9505L117.614 76.6513L116.908 77.9286L116.204 76.6513L114.916 75.9505L116.204 75.2526L116.908 73.9753ZM120.453 63L121 63.9918L122 64.5344L121 65.0798L120.453 66.0716L119.903 65.0798L118.902 64.5344L119.903 63.9918L120.453 63Z" fill="#FFAC33"/>
<path d="M100.203 170.372L106.387 135.413L146.389 109.738L157.112 168.687C157.242 169.401 157.213 170.135 157.028 170.837C156.843 171.539 156.505 172.191 156.04 172.749C155.575 173.306 154.993 173.754 154.336 174.062C153.679 174.37 152.962 174.53 152.236 174.53H103.692C103.174 174.53 102.663 174.417 102.194 174.198C101.726 173.98 101.31 173.661 100.978 173.265C100.645 172.868 100.404 172.404 100.27 171.904C100.136 171.405 100.113 170.882 100.203 170.372Z" fill="#836CE0" fill-opacity="0.5"/>
<path d="M135.989 92.1414H155.576V124.622C155.576 127.066 153.593 129.049 151.149 129.049H135.989V92.1414Z" fill="url(#paint0_linear_3260_531)"/>
<path d="M135.989 92.1414H155.576V124.622C155.576 127.066 153.593 129.049 151.149 129.049H135.989V92.1414Z" fill="url(#paint1_linear_3260_531)"/>
<path d="M135.989 92.1414H155.576V124.622C155.576 127.066 153.593 129.049 151.149 129.049H135.989V92.1414Z" fill="url(#paint2_radial_3260_531)"/>
<g filter="url(#filter0_f_3260_531)">
<path d="M149.106 79.0137C148.086 78.3742 146.989 77.8672 145.841 77.5051L144.846 78.8614V95.6826L150.126 98.7317C150.369 98.8724 150.637 98.9636 150.916 98.9999C151.195 99.0362 151.477 99.0169 151.749 98.9431C152.02 98.8693 152.273 98.7425 152.495 98.5701C152.717 98.3976 152.902 98.1829 153.04 97.9384L158.6 88.0936C158.885 87.5899 158.971 86.9976 158.84 86.4337C158.71 85.8699 158.373 85.3755 157.895 85.0481C154.644 82.8171 150.214 79.7149 149.106 79.0137Z" fill="#2F8AA6"/>
</g>
<g filter="url(#filter1_i_3260_531)">
<path fill-rule="evenodd" clip-rule="evenodd" d="M155.491 125.507C155.076 127.526 153.292 129.049 151.149 129.049H135.989V125.507H155.491Z" fill="url(#paint3_radial_3260_531)"/>
</g>
<path d="M100.203 170.372L106.387 135.413L146.389 109.738L157.112 168.687C157.242 169.401 157.213 170.135 157.028 170.837C156.843 171.539 156.505 172.191 156.04 172.749C155.575 173.306 154.993 173.754 154.336 174.062C153.679 174.37 152.962 174.53 152.236 174.53H103.692C103.174 174.53 102.663 174.417 102.194 174.198C101.726 173.98 101.31 173.661 100.978 173.265C100.645 172.868 100.404 172.404 100.27 171.904C100.136 171.405 100.113 170.882 100.203 170.372Z" fill="url(#paint4_linear_3260_531)"/>
<path d="M100.203 170.372L106.387 135.413L146.389 109.738L157.112 168.687C157.242 169.401 157.213 170.135 157.028 170.837C156.843 171.539 156.505 172.191 156.04 172.749C155.575 173.306 154.993 173.754 154.336 174.062C153.679 174.37 152.962 174.53 152.236 174.53H103.692C103.174 174.53 102.663 174.417 102.194 174.198C101.726 173.98 101.31 173.661 100.978 173.265C100.645 172.868 100.404 172.404 100.27 171.904C100.136 171.405 100.113 170.882 100.203 170.372Z" fill="url(#paint5_linear_3260_531)"/>
<path d="M100.203 170.372L106.387 135.413L146.389 109.738L157.112 168.687C157.242 169.401 157.213 170.135 157.028 170.837C156.843 171.539 156.505 172.191 156.04 172.749C155.575 173.306 154.993 173.754 154.336 174.062C153.679 174.37 152.962 174.53 152.236 174.53H103.692C103.174 174.53 102.663 174.417 102.194 174.198C101.726 173.98 101.31 173.661 100.978 173.265C100.645 172.868 100.404 172.404 100.27 171.904C100.136 171.405 100.113 170.882 100.203 170.372Z" fill="url(#paint6_linear_3260_531)"/>
<g filter="url(#filter2_f_3260_531)">
<path d="M108.37 129.848C123.017 119.125 137.076 108.342 146.135 101.727V110.216C146.135 111.363 145.866 112.494 145.349 113.518C144.832 114.542 144.082 115.43 143.16 116.112L108.395 142.346C108.185 142.5 107.933 142.588 107.673 142.598C107.412 142.608 107.155 142.539 106.934 142.401C106.712 142.263 106.538 142.062 106.432 141.823C106.326 141.585 106.295 141.32 106.341 141.064L108.37 129.848Z" fill="url(#paint7_radial_3260_531)"/>
</g>
<g filter="url(#filter3_i_3260_531)">
<path d="M107.796 78.5676C109.124 77.7283 110.842 77.0944 111.242 76.9917L112.057 78.4188V95.24L106.777 98.289C106.534 98.4292 106.265 98.52 105.987 98.556C105.709 98.592 105.426 98.5725 105.156 98.4988C104.885 98.425 104.632 98.2984 104.41 98.1263C104.189 97.9541 104.004 97.7399 103.866 97.4958L98.2987 87.651C98.0141 87.1468 97.929 86.5543 98.0601 85.9904C98.1912 85.4265 98.5291 84.9323 99.007 84.6055C102.258 82.3745 106.688 79.2758 107.796 78.5747" fill="url(#paint8_linear_3260_531)"/>
<path d="M107.796 78.5676C109.124 77.7283 110.842 77.0944 111.242 76.9917L112.057 78.4188V95.24L106.777 98.289C106.534 98.4292 106.265 98.52 105.987 98.556C105.709 98.592 105.426 98.5725 105.156 98.4988C104.885 98.425 104.632 98.2984 104.41 98.1263C104.189 97.9541 104.004 97.7399 103.866 97.4958L98.2987 87.651C98.0141 87.1468 97.929 86.5543 98.0601 85.9904C98.1912 85.4265 98.5291 84.9323 99.007 84.6055C102.258 82.3745 106.688 79.2758 107.796 78.5747" fill="url(#paint9_linear_3260_531)"/>
<path d="M107.796 78.5676C109.124 77.7283 110.842 77.0944 111.242 76.9917L112.057 78.4188V95.24L106.777 98.289C106.534 98.4292 106.265 98.52 105.987 98.556C105.709 98.592 105.426 98.5725 105.156 98.4988C104.885 98.425 104.632 98.2984 104.41 98.1263C104.189 97.9541 104.004 97.7399 103.866 97.4958L98.2987 87.651C98.0141 87.1468 97.929 86.5543 98.0601 85.9904C98.1912 85.4265 98.5291 84.9323 99.007 84.6055C102.258 82.3745 106.688 79.2758 107.796 78.5747" fill="url(#paint10_linear_3260_531)"/>
</g>
<path d="M111.119 109.738V77.0345C111.813 76.7512 113.722 76.1775 115.772 76.1775H142.247C144.301 76.1775 146.206 76.7476 146.904 77.0345V109.738H111.119Z" fill="url(#paint11_linear_3260_531)"/>
<path d="M111.119 109.738V77.0345C111.813 76.7512 113.722 76.1775 115.772 76.1775H142.247C144.301 76.1775 146.206 76.7476 146.904 77.0345V109.738H111.119Z" fill="url(#paint12_linear_3260_531)"/>
<path d="M111.119 109.738V77.0345C111.813 76.7512 113.722 76.1775 115.772 76.1775H142.247C144.301 76.1775 146.206 76.7476 146.904 77.0345V109.738H111.119Z" fill="url(#paint13_radial_3260_531)"/>
<path d="M111.119 109.738V77.0345C111.813 76.7512 113.722 76.1775 115.772 76.1775H142.247C144.301 76.1775 146.206 76.7476 146.904 77.0345V109.738H111.119Z" fill="url(#paint14_linear_3260_531)"/>
<g filter="url(#filter4_f_3260_531)">
<path d="M119.228 76H119.051V77.5759C119.051 80.2169 120.1 82.7498 121.967 84.6173C123.835 86.4848 126.368 87.534 129.009 87.534C131.65 87.534 134.183 86.4848 136.05 84.6173C137.918 82.7498 138.967 80.2169 138.967 77.5759V76H119.228Z" stroke="url(#paint15_radial_3260_531)" stroke-width="0.1"/>
</g>
<path d="M119.227 76.1775V77.5763C119.227 78.8608 119.48 80.1327 119.971 81.3194C120.463 82.506 121.183 83.5843 122.091 84.4926C123 85.4008 124.078 86.1213 125.265 86.6128C126.451 87.1044 127.723 87.3574 129.008 87.3574C130.292 87.3574 131.564 87.1044 132.751 86.6128C133.937 86.1213 135.016 85.4008 135.924 84.4926C136.832 83.5843 137.553 82.506 138.044 81.3194C138.536 80.1327 138.789 78.8608 138.789 77.5763V76.1775H119.227Z" fill="url(#paint16_radial_3260_531)"/>
<path d="M119.227 76.1775V77.5763C119.227 78.8608 119.48 80.1327 119.971 81.3194C120.463 82.506 121.183 83.5843 122.091 84.4926C123 85.4008 124.078 86.1213 125.265 86.6128C126.451 87.1044 127.723 87.3574 129.008 87.3574C130.292 87.3574 131.564 87.1044 132.751 86.6128C133.937 86.1213 135.016 85.4008 135.924 84.4926C136.832 83.5843 137.553 82.506 138.044 81.3194C138.536 80.1327 138.789 78.8608 138.789 77.5763V76.1775H119.227Z" fill="url(#paint17_linear_3260_531)"/>
<path d="M119.227 76.1775V77.5763C119.227 78.8608 119.48 80.1327 119.971 81.3194C120.463 82.506 121.183 83.5843 122.091 84.4926C123 85.4008 124.078 86.1213 125.265 86.6128C126.451 87.1044 127.723 87.3574 129.008 87.3574C130.292 87.3574 131.564 87.1044 132.751 86.6128C133.937 86.1213 135.016 85.4008 135.924 84.4926C136.832 83.5843 137.553 82.506 138.044 81.3194C138.536 80.1327 138.789 78.8608 138.789 77.5763V76.1775H119.227Z" fill="url(#paint18_radial_3260_531)"/>
<path d="M119.227 76.1775V77.5763C119.227 78.8608 119.48 80.1327 119.971 81.3194C120.463 82.506 121.183 83.5843 122.091 84.4926C123 85.4008 124.078 86.1213 125.265 86.6128C126.451 87.1044 127.723 87.3574 129.008 87.3574C130.292 87.3574 131.564 87.1044 132.751 86.6128C133.937 86.1213 135.016 85.4008 135.924 84.4926C136.832 83.5843 137.553 82.506 138.044 81.3194C138.536 80.1327 138.789 78.8608 138.789 77.5763V76.1775H119.227Z" fill="url(#paint19_radial_3260_531)"/>
<path d="M119.227 76.1775V77.5763C119.227 78.8608 119.48 80.1327 119.971 81.3194C120.463 82.506 121.183 83.5843 122.091 84.4926C123 85.4008 124.078 86.1213 125.265 86.6128C126.451 87.1044 127.723 87.3574 129.008 87.3574C130.292 87.3574 131.564 87.1044 132.751 86.6128C133.937 86.1213 135.016 85.4008 135.924 84.4926C136.832 83.5843 137.553 82.506 138.044 81.3194C138.536 80.1327 138.789 78.8608 138.789 77.5763V76.1775H119.227Z" fill="url(#paint20_linear_3260_531)"/>
<path d="M119.227 76.1775V77.5763C119.227 78.8608 119.48 80.1327 119.971 81.3194C120.463 82.506 121.183 83.5843 122.091 84.4926C123 85.4008 124.078 86.1213 125.265 86.6128C126.451 87.1044 127.723 87.3574 129.008 87.3574C130.292 87.3574 131.564 87.1044 132.751 86.6128C133.937 86.1213 135.016 85.4008 135.924 84.4926C136.832 83.5843 137.553 82.506 138.044 81.3194C138.536 80.1327 138.789 78.8608 138.789 77.5763V76.1775H119.227Z" fill="url(#paint21_radial_3260_531)"/>
<path d="M150.208 78.514C149.188 77.8744 148.091 77.3675 146.943 77.0054L145.948 78.3617V95.1828L151.228 98.2319C151.471 98.3727 151.739 98.4638 152.018 98.5001C152.297 98.5364 152.58 98.5171 152.851 98.4433C153.122 98.3696 153.375 98.2428 153.597 98.0703C153.819 97.8979 154.004 97.6832 154.142 97.4386L159.702 87.5938C159.986 87.0907 160.071 86.4997 159.941 85.937C159.811 85.3742 159.476 84.8802 159.001 84.5519C155.747 82.3138 151.316 79.2187 150.208 78.514Z" fill="url(#paint22_linear_3260_531)"/>
<g filter="url(#filter5_i_3260_531)">
<path d="M156.713 171.711C156.309 172.555 155.674 173.268 154.882 173.767C154.09 174.266 153.173 174.53 152.237 174.53H103.693C102.878 174.531 102.088 174.251 101.456 173.737C100.824 173.224 100.388 172.508 100.222 171.711H156.713Z" fill="url(#paint23_linear_3260_531)"/>
</g>
<g filter="url(#filter6_f_3260_531)">
<path d="M145.738 112.394L155.966 169.884" stroke="url(#paint24_linear_3260_531)" stroke-width="0.3" stroke-linecap="round"/>
</g>
<g filter="url(#filter7_f_3260_531)">
<path d="M158.13 85.1414L150.346 80.0207C149.92 79.7401 149.347 79.8584 149.066 80.2849C148.786 80.7113 148.904 81.2845 149.33 81.565L157.114 86.6858C157.541 86.9663 158.114 86.8481 158.394 86.4216C158.675 85.9951 158.557 85.422 158.13 85.1414Z" fill="url(#paint25_linear_3260_531)"/>
</g>
<path d="M139.87 81.7056V77.1586C139.87 76.8768 139.981 76.6066 140.181 76.4074C140.38 76.2081 140.65 76.0962 140.932 76.0962H144.565C145.845 76.096 147.1 76.4423 148.199 77.0984L149.162 77.6721C149.557 77.9075 149.884 78.2414 150.111 78.6412C150.338 79.041 150.458 79.4928 150.458 79.9527V106.162C150.459 107.408 150.167 108.638 149.606 109.751C149.045 110.864 148.231 111.83 147.228 112.572L106.656 142.577C106.427 142.746 106.154 142.843 105.869 142.855C105.585 142.867 105.304 142.793 105.063 142.643C104.822 142.493 104.631 142.273 104.516 142.013C104.401 141.753 104.367 141.465 104.418 141.185L109.687 112.118C110.022 110.272 111.077 108.634 112.619 107.564L134.157 92.6128C135.919 91.3905 137.358 89.76 138.352 87.8606C139.346 85.9612 139.869 83.8494 139.87 81.7056Z" fill="url(#paint26_linear_3260_531)"/>
<path d="M139.87 81.7056V77.1586C139.87 76.8768 139.981 76.6066 140.181 76.4074C140.38 76.2081 140.65 76.0962 140.932 76.0962H144.565C145.845 76.096 147.1 76.4423 148.199 77.0984L149.162 77.6721C149.557 77.9075 149.884 78.2414 150.111 78.6412C150.338 79.041 150.458 79.4928 150.458 79.9527V106.162C150.459 107.408 150.167 108.638 149.606 109.751C149.045 110.864 148.231 111.83 147.228 112.572L106.656 142.577C106.427 142.746 106.154 142.843 105.869 142.855C105.585 142.867 105.304 142.793 105.063 142.643C104.822 142.493 104.631 142.273 104.516 142.013C104.401 141.753 104.367 141.465 104.418 141.185L109.687 112.118C110.022 110.272 111.077 108.634 112.619 107.564L134.157 92.6128C135.919 91.3905 137.358 89.76 138.352 87.8606C139.346 85.9612 139.869 83.8494 139.87 81.7056Z" fill="url(#paint27_radial_3260_531)"/>
<path d="M139.87 81.7056V77.1586C139.87 76.8768 139.981 76.6066 140.181 76.4074C140.38 76.2081 140.65 76.0962 140.932 76.0962H144.565C145.845 76.096 147.1 76.4423 148.199 77.0984L149.162 77.6721C149.557 77.9075 149.884 78.2414 150.111 78.6412C150.338 79.041 150.458 79.4928 150.458 79.9527V106.162C150.459 107.408 150.167 108.638 149.606 109.751C149.045 110.864 148.231 111.83 147.228 112.572L106.656 142.577C106.427 142.746 106.154 142.843 105.869 142.855C105.585 142.867 105.304 142.793 105.063 142.643C104.822 142.493 104.631 142.273 104.516 142.013C104.401 141.753 104.367 141.465 104.418 141.185L109.687 112.118C110.022 110.272 111.077 108.634 112.619 107.564L134.157 92.6128C135.919 91.3905 137.358 89.76 138.352 87.8606C139.346 85.9612 139.869 83.8494 139.87 81.7056Z" fill="url(#paint28_linear_3260_531)"/>
<path d="M139.87 81.7056V77.1586C139.87 76.8768 139.981 76.6066 140.181 76.4074C140.38 76.2081 140.65 76.0962 140.932 76.0962H144.565C145.845 76.096 147.1 76.4423 148.199 77.0984L149.162 77.6721C149.557 77.9075 149.884 78.2414 150.111 78.6412C150.338 79.041 150.458 79.4928 150.458 79.9527V106.162C150.459 107.408 150.167 108.638 149.606 109.751C149.045 110.864 148.231 111.83 147.228 112.572L106.656 142.577C106.427 142.746 106.154 142.843 105.869 142.855C105.585 142.867 105.304 142.793 105.063 142.643C104.822 142.493 104.631 142.273 104.516 142.013C104.401 141.753 104.367 141.465 104.418 141.185L109.687 112.118C110.022 110.272 111.077 108.634 112.619 107.564L134.157 92.6128C135.919 91.3905 137.358 89.76 138.352 87.8606C139.346 85.9612 139.869 83.8494 139.87 81.7056Z" fill="url(#paint29_linear_3260_531)"/>
<path d="M109.404 113.708L135.475 96.1612C137.881 94.5404 139.853 92.3532 141.216 89.7918C142.578 87.2304 143.291 84.3733 143.29 81.4719V76.0962H140.932C140.65 76.0962 140.38 76.2081 140.181 76.4074C139.982 76.6066 139.87 76.8768 139.87 77.1586V81.7056C139.87 83.8497 139.351 85.962 138.358 87.8621C137.364 89.7621 135.926 91.3933 134.165 92.6163L112.623 107.568C111.081 108.637 110.026 110.275 109.691 112.122L109.404 113.708Z" fill="url(#paint30_radial_3260_531)"/>
<path d="M109.404 113.708L135.475 96.1612C137.881 94.5404 139.853 92.3532 141.216 89.7918C142.578 87.2304 143.291 84.3733 143.29 81.4719V76.0962H140.932C140.65 76.0962 140.38 76.2081 140.181 76.4074C139.982 76.6066 139.87 76.8768 139.87 77.1586V81.7056C139.87 83.8497 139.351 85.962 138.358 87.8621C137.364 89.7621 135.926 91.3933 134.165 92.6163L112.623 107.568C111.081 108.637 110.026 110.275 109.691 112.122L109.404 113.708Z" fill="url(#paint31_radial_3260_531)"/>
<g filter="url(#filter8_i_3260_531)">
<path d="M104.765 139.308L144.045 110.531C144.943 109.874 145.674 109.013 146.178 108.02C146.682 107.027 146.945 105.929 146.945 104.816V76.5066C147.379 76.6624 147.797 76.8595 148.199 77.098L149.162 77.6717C149.557 77.9071 149.884 78.241 150.111 78.6408C150.338 79.0406 150.458 79.4925 150.458 79.9523V106.161C150.459 107.408 150.167 108.637 149.606 109.751C149.045 110.864 148.231 111.83 147.228 112.571L106.656 142.577C106.427 142.746 106.154 142.843 105.869 142.855C105.585 142.866 105.304 142.792 105.063 142.642C104.822 142.492 104.631 142.273 104.516 142.013C104.401 141.753 104.367 141.464 104.418 141.185L104.765 139.308Z" fill="url(#paint32_linear_3260_531)"/>
<path d="M104.765 139.308L144.045 110.531C144.943 109.874 145.674 109.013 146.178 108.02C146.682 107.027 146.945 105.929 146.945 104.816V76.5066C147.379 76.6624 147.797 76.8595 148.199 77.098L149.162 77.6717C149.557 77.9071 149.884 78.241 150.111 78.6408C150.338 79.0406 150.458 79.4925 150.458 79.9523V106.161C150.459 107.408 150.167 108.637 149.606 109.751C149.045 110.864 148.231 111.83 147.228 112.571L106.656 142.577C106.427 142.746 106.154 142.843 105.869 142.855C105.585 142.866 105.304 142.792 105.063 142.642C104.822 142.492 104.631 142.273 104.516 142.013C104.401 141.753 104.367 141.464 104.418 141.185L104.765 139.308Z" fill="url(#paint33_linear_3260_531)"/>
</g>
<rect y="142" width="166.154" height="59.8154" rx="17.7231" fill="#80DDD2"/>
<rect y="143.108" width="166.154" height="25.4769" fill="#80DDD2"/>
<path d="M13.594 155.242V156.278H9.352V159.568H12.796V160.604H9.352V165H8.078V155.242H13.594ZM14.6567 161.136C14.6567 160.352 14.8154 159.666 15.1327 159.078C15.45 158.481 15.884 158.019 16.4347 157.692C16.9947 157.365 17.6154 157.202 18.2967 157.202C18.9687 157.202 19.552 157.347 20.0467 157.636C20.5414 157.925 20.91 158.289 21.1527 158.728V157.328H22.4407V165H21.1527V163.572C20.9007 164.02 20.5227 164.393 20.0187 164.692C19.524 164.981 18.9454 165.126 18.2827 165.126C17.6014 165.126 16.9854 164.958 16.4347 164.622C15.884 164.286 15.45 163.815 15.1327 163.208C14.8154 162.601 14.6567 161.911 14.6567 161.136ZM21.1527 161.15C21.1527 160.571 21.036 160.067 20.8027 159.638C20.5694 159.209 20.252 158.882 19.8507 158.658C19.4587 158.425 19.0247 158.308 18.5487 158.308C18.0727 158.308 17.6387 158.42 17.2467 158.644C16.8547 158.868 16.542 159.195 16.3087 159.624C16.0754 160.053 15.9587 160.557 15.9587 161.136C15.9587 161.724 16.0754 162.237 16.3087 162.676C16.542 163.105 16.8547 163.437 17.2467 163.67C17.6387 163.894 18.0727 164.006 18.5487 164.006C19.0247 164.006 19.4587 163.894 19.8507 163.67C20.252 163.437 20.5694 163.105 20.8027 162.676C21.036 162.237 21.1527 161.729 21.1527 161.15ZM27.3096 165.126C26.7216 165.126 26.1943 165.028 25.7276 164.832C25.261 164.627 24.8923 164.347 24.6216 163.992C24.351 163.628 24.2016 163.213 24.1736 162.746H25.4896C25.527 163.129 25.7043 163.441 26.0216 163.684C26.3483 163.927 26.773 164.048 27.2956 164.048C27.781 164.048 28.1636 163.941 28.4436 163.726C28.7236 163.511 28.8636 163.241 28.8636 162.914C28.8636 162.578 28.7143 162.331 28.4156 162.172C28.117 162.004 27.655 161.841 27.0296 161.682C26.4603 161.533 25.9936 161.383 25.6296 161.234C25.275 161.075 24.967 160.847 24.7056 160.548C24.4536 160.24 24.3276 159.839 24.3276 159.344C24.3276 158.952 24.4443 158.593 24.6776 158.266C24.911 157.939 25.2423 157.683 25.6716 157.496C26.101 157.3 26.591 157.202 27.1416 157.202C27.991 157.202 28.677 157.417 29.1996 157.846C29.7223 158.275 30.0023 158.863 30.0396 159.61H28.7656C28.7376 159.209 28.5743 158.887 28.2756 158.644C27.9863 158.401 27.5943 158.28 27.0996 158.28C26.6423 158.28 26.2783 158.378 26.0076 158.574C25.737 158.77 25.6016 159.027 25.6016 159.344C25.6016 159.596 25.681 159.806 25.8396 159.974C26.0076 160.133 26.213 160.263 26.4556 160.366C26.7076 160.459 27.053 160.567 27.4916 160.688C28.0423 160.837 28.4903 160.987 28.8356 161.136C29.181 161.276 29.475 161.491 29.7176 161.78C29.9696 162.069 30.1003 162.447 30.1096 162.914C30.1096 163.334 29.993 163.712 29.7596 164.048C29.5263 164.384 29.195 164.65 28.7656 164.846C28.3456 165.033 27.8603 165.126 27.3096 165.126ZM35.7161 157.188C36.2947 157.188 36.8174 157.314 37.2841 157.566C37.7507 157.809 38.1147 158.177 38.3761 158.672C38.6467 159.167 38.7821 159.769 38.7821 160.478V165H37.5221V160.66C37.5221 159.895 37.3307 159.311 36.9481 158.91C36.5654 158.499 36.0427 158.294 35.3801 158.294C34.7081 158.294 34.1714 158.504 33.7701 158.924C33.3781 159.344 33.1821 159.955 33.1821 160.758V165H31.9081V154.64H33.1821V158.42C33.4341 158.028 33.7794 157.725 34.2181 157.51C34.6661 157.295 35.1654 157.188 35.7161 157.188ZM41.5212 156.082C41.2785 156.082 41.0732 155.998 40.9052 155.83C40.7372 155.662 40.6532 155.457 40.6532 155.214C40.6532 154.971 40.7372 154.766 40.9052 154.598C41.0732 154.43 41.2785 154.346 41.5212 154.346C41.7545 154.346 41.9505 154.43 42.1092 154.598C42.2772 154.766 42.3612 154.971 42.3612 155.214C42.3612 155.457 42.2772 155.662 42.1092 155.83C41.9505 155.998 41.7545 156.082 41.5212 156.082ZM42.1372 157.328V165H40.8632V157.328H42.1372ZM47.6545 165.126C46.9358 165.126 46.2825 164.963 45.6945 164.636C45.1158 164.309 44.6585 163.847 44.3225 163.25C43.9958 162.643 43.8325 161.943 43.8325 161.15C43.8325 160.366 44.0005 159.675 44.3365 159.078C44.6818 158.471 45.1485 158.009 45.7365 157.692C46.3245 157.365 46.9825 157.202 47.7105 157.202C48.4385 157.202 49.0965 157.365 49.6845 157.692C50.2725 158.009 50.7345 158.467 51.0705 159.064C51.4158 159.661 51.5885 160.357 51.5885 161.15C51.5885 161.943 51.4111 162.643 51.0565 163.25C50.7111 163.847 50.2398 164.309 49.6425 164.636C49.0451 164.963 48.3825 165.126 47.6545 165.126ZM47.6545 164.006C48.1118 164.006 48.5411 163.899 48.9425 163.684C49.3438 163.469 49.6658 163.147 49.9085 162.718C50.1605 162.289 50.2865 161.766 50.2865 161.15C50.2865 160.534 50.1651 160.011 49.9225 159.582C49.6798 159.153 49.3625 158.835 48.9705 158.63C48.5785 158.415 48.1538 158.308 47.6965 158.308C47.2298 158.308 46.8005 158.415 46.4085 158.63C46.0258 158.835 45.7178 159.153 45.4845 159.582C45.2511 160.011 45.1345 160.534 45.1345 161.15C45.1345 161.775 45.2465 162.303 45.4705 162.732C45.7038 163.161 46.0118 163.483 46.3945 163.698C46.7771 163.903 47.1971 164.006 47.6545 164.006ZM57.0015 157.188C57.9349 157.188 58.6909 157.473 59.2695 158.042C59.8482 158.602 60.1375 159.414 60.1375 160.478V165H58.8775V160.66C58.8775 159.895 58.6862 159.311 58.3035 158.91C57.9209 158.499 57.3982 158.294 56.7355 158.294C56.0635 158.294 55.5269 158.504 55.1255 158.924C54.7335 159.344 54.5375 159.955 54.5375 160.758V165H53.2635V157.328H54.5375V158.42C54.7895 158.028 55.1302 157.725 55.5595 157.51C55.9982 157.295 56.4789 157.188 57.0015 157.188ZM65.475 161.136C65.475 160.352 65.6337 159.666 65.951 159.078C66.2684 158.481 66.7024 158.019 67.253 157.692C67.813 157.365 68.4337 157.202 69.115 157.202C69.787 157.202 70.3704 157.347 70.865 157.636C71.3597 157.925 71.7284 158.289 71.971 158.728V157.328H73.259V165H71.971V163.572C71.719 164.02 71.341 164.393 70.837 164.692C70.3424 164.981 69.7637 165.126 69.101 165.126C68.4197 165.126 67.8037 164.958 67.253 164.622C66.7024 164.286 66.2684 163.815 65.951 163.208C65.6337 162.601 65.475 161.911 65.475 161.136ZM71.971 161.15C71.971 160.571 71.8544 160.067 71.621 159.638C71.3877 159.209 71.0704 158.882 70.669 158.658C70.277 158.425 69.843 158.308 69.367 158.308C68.891 158.308 68.457 158.42 68.065 158.644C67.673 158.868 67.3604 159.195 67.127 159.624C66.8937 160.053 66.777 160.557 66.777 161.136C66.777 161.724 66.8937 162.237 67.127 162.676C67.3604 163.105 67.673 163.437 68.065 163.67C68.457 163.894 68.891 164.006 69.367 164.006C69.843 164.006 70.277 163.894 70.669 163.67C71.0704 163.437 71.3877 163.105 71.621 162.676C71.8544 162.237 71.971 161.729 71.971 161.15ZM74.936 161.15C74.936 160.357 75.0947 159.666 75.412 159.078C75.7293 158.481 76.168 158.019 76.728 157.692C77.2973 157.365 77.946 157.202 78.674 157.202C79.6167 157.202 80.3913 157.431 80.998 157.888C81.614 158.345 82.02 158.98 82.216 159.792H80.844C80.7133 159.325 80.4567 158.957 80.074 158.686C79.7007 158.415 79.234 158.28 78.674 158.28C77.946 158.28 77.358 158.532 76.91 159.036C76.462 159.531 76.238 160.235 76.238 161.15C76.238 162.074 76.462 162.788 76.91 163.292C77.358 163.796 77.946 164.048 78.674 164.048C79.234 164.048 79.7007 163.917 80.074 163.656C80.4473 163.395 80.704 163.021 80.844 162.536H82.216C82.0107 163.32 81.6 163.95 80.984 164.426C80.368 164.893 79.598 165.126 78.674 165.126C77.946 165.126 77.2973 164.963 76.728 164.636C76.168 164.309 75.7293 163.847 75.412 163.25C75.0947 162.653 74.936 161.953 74.936 161.15ZM83.4399 161.15C83.4399 160.357 83.5986 159.666 83.9159 159.078C84.2332 158.481 84.6719 158.019 85.2319 157.692C85.8012 157.365 86.4499 157.202 87.1779 157.202C88.1206 157.202 88.8952 157.431 89.5019 157.888C90.1179 158.345 90.5239 158.98 90.7199 159.792H89.3479C89.2172 159.325 88.9606 158.957 88.5779 158.686C88.2046 158.415 87.7379 158.28 87.1779 158.28C86.4499 158.28 85.8619 158.532 85.4139 159.036C84.9659 159.531 84.7419 160.235 84.7419 161.15C84.7419 162.074 84.9659 162.788 85.4139 163.292C85.8619 163.796 86.4499 164.048 87.1779 164.048C87.7379 164.048 88.2046 163.917 88.5779 163.656C88.9512 163.395 89.2079 163.021 89.3479 162.536H90.7199C90.5146 163.32 90.1039 163.95 89.4879 164.426C88.8719 164.893 88.1019 165.126 87.1779 165.126C86.4499 165.126 85.8012 164.963 85.2319 164.636C84.6719 164.309 84.2332 163.847 83.9159 163.25C83.5986 162.653 83.4399 161.953 83.4399 161.15ZM99.4198 160.87C99.4198 161.113 99.4058 161.369 99.3778 161.64H93.2458C93.2925 162.396 93.5491 162.989 94.0158 163.418C94.4918 163.838 95.0658 164.048 95.7378 164.048C96.2885 164.048 96.7458 163.922 97.1098 163.67C97.4831 163.409 97.7445 163.063 97.8938 162.634H99.2658C99.0605 163.371 98.6498 163.973 98.0338 164.44C97.4178 164.897 96.6525 165.126 95.7378 165.126C95.0098 165.126 94.3565 164.963 93.7778 164.636C93.2085 164.309 92.7605 163.847 92.4338 163.25C92.1071 162.643 91.9438 161.943 91.9438 161.15C91.9438 160.357 92.1025 159.661 92.4198 159.064C92.7371 158.467 93.1805 158.009 93.7498 157.692C94.3285 157.365 94.9911 157.202 95.7378 157.202C96.4658 157.202 97.1098 157.361 97.6698 157.678C98.2298 157.995 98.6591 158.434 98.9578 158.994C99.2658 159.545 99.4198 160.17 99.4198 160.87ZM98.1038 160.604C98.1038 160.119 97.9965 159.703 97.7818 159.358C97.5671 159.003 97.2731 158.737 96.8998 158.56C96.5358 158.373 96.1298 158.28 95.6818 158.28C95.0378 158.28 94.4871 158.485 94.0298 158.896C93.5818 159.307 93.3251 159.876 93.2598 160.604H98.1038ZM103.817 165.126C103.229 165.126 102.702 165.028 102.235 164.832C101.769 164.627 101.4 164.347 101.129 163.992C100.859 163.628 100.709 163.213 100.681 162.746H101.997C102.035 163.129 102.212 163.441 102.529 163.684C102.856 163.927 103.281 164.048 103.803 164.048C104.289 164.048 104.671 163.941 104.951 163.726C105.231 163.511 105.371 163.241 105.371 162.914C105.371 162.578 105.222 162.331 104.923 162.172C104.625 162.004 104.163 161.841 103.537 161.682C102.968 161.533 102.501 161.383 102.137 161.234C101.783 161.075 101.475 160.847 101.213 160.548C100.961 160.24 100.835 159.839 100.835 159.344C100.835 158.952 100.952 158.593 101.185 158.266C101.419 157.939 101.75 157.683 102.179 157.496C102.609 157.3 103.099 157.202 103.649 157.202C104.499 157.202 105.185 157.417 105.707 157.846C106.23 158.275 106.51 158.863 106.547 159.61H105.273C105.245 159.209 105.082 158.887 104.783 158.644C104.494 158.401 104.102 158.28 103.607 158.28C103.15 158.28 102.786 158.378 102.515 158.574C102.245 158.77 102.109 159.027 102.109 159.344C102.109 159.596 102.189 159.806 102.347 159.974C102.515 160.133 102.721 160.263 102.963 160.366C103.215 160.459 103.561 160.567 103.999 160.688C104.55 160.837 104.998 160.987 105.343 161.136C105.689 161.276 105.983 161.491 106.225 161.78C106.477 162.069 106.608 162.447 106.617 162.914C106.617 163.334 106.501 163.712 106.267 164.048C106.034 164.384 105.703 164.65 105.273 164.846C104.853 165.033 104.368 165.126 103.817 165.126ZM111.132 165.126C110.544 165.126 110.017 165.028 109.55 164.832C109.083 164.627 108.715 164.347 108.444 163.992C108.173 163.628 108.024 163.213 107.996 162.746H109.312C109.349 163.129 109.527 163.441 109.844 163.684C110.171 163.927 110.595 164.048 111.118 164.048C111.603 164.048 111.986 163.941 112.266 163.726C112.546 163.511 112.686 163.241 112.686 162.914C112.686 162.578 112.537 162.331 112.238 162.172C111.939 162.004 111.477 161.841 110.852 161.682C110.283 161.533 109.816 161.383 109.452 161.234C109.097 161.075 108.789 160.847 108.528 160.548C108.276 160.24 108.15 159.839 108.15 159.344C108.15 158.952 108.267 158.593 108.5 158.266C108.733 157.939 109.065 157.683 109.494 157.496C109.923 157.3 110.413 157.202 110.964 157.202C111.813 157.202 112.499 157.417 113.022 157.846C113.545 158.275 113.825 158.863 113.862 159.61H112.588C112.56 159.209 112.397 158.887 112.098 158.644C111.809 158.401 111.417 158.28 110.922 158.28C110.465 158.28 110.101 158.378 109.83 158.574C109.559 158.77 109.424 159.027 109.424 159.344C109.424 159.596 109.503 159.806 109.662 159.974C109.83 160.133 110.035 160.263 110.278 160.366C110.53 160.459 110.875 160.567 111.314 160.688C111.865 160.837 112.313 160.987 112.658 161.136C113.003 161.276 113.297 161.491 113.54 161.78C113.792 162.069 113.923 162.447 113.932 162.914C113.932 163.334 113.815 163.712 113.582 164.048C113.349 164.384 113.017 164.65 112.588 164.846C112.168 165.033 111.683 165.126 111.132 165.126ZM119.076 165.126C118.358 165.126 117.704 164.963 117.116 164.636C116.538 164.309 116.08 163.847 115.744 163.25C115.418 162.643 115.254 161.943 115.254 161.15C115.254 160.366 115.422 159.675 115.758 159.078C116.104 158.471 116.57 158.009 117.158 157.692C117.746 157.365 118.404 157.202 119.132 157.202C119.86 157.202 120.518 157.365 121.106 157.692C121.694 158.009 122.156 158.467 122.492 159.064C122.838 159.661 123.01 160.357 123.01 161.15C123.01 161.943 122.833 162.643 122.478 163.25C122.133 163.847 121.662 164.309 121.064 164.636C120.467 164.963 119.804 165.126 119.076 165.126ZM119.076 164.006C119.534 164.006 119.963 163.899 120.364 163.684C120.766 163.469 121.088 163.147 121.33 162.718C121.582 162.289 121.708 161.766 121.708 161.15C121.708 160.534 121.587 160.011 121.344 159.582C121.102 159.153 120.784 158.835 120.392 158.63C120 158.415 119.576 158.308 119.118 158.308C118.652 158.308 118.222 158.415 117.83 158.63C117.448 158.835 117.14 159.153 116.906 159.582C116.673 160.011 116.556 160.534 116.556 161.15C116.556 161.775 116.668 162.303 116.892 162.732C117.126 163.161 117.434 163.483 117.816 163.698C118.199 163.903 118.619 164.006 119.076 164.006ZM125.959 158.574C126.183 158.135 126.501 157.795 126.911 157.552C127.331 157.309 127.84 157.188 128.437 157.188V158.504H128.101C126.673 158.504 125.959 159.279 125.959 160.828V165H124.685V157.328H125.959V158.574ZM130.566 156.082C130.323 156.082 130.118 155.998 129.95 155.83C129.782 155.662 129.698 155.457 129.698 155.214C129.698 154.971 129.782 154.766 129.95 154.598C130.118 154.43 130.323 154.346 130.566 154.346C130.799 154.346 130.995 154.43 131.154 154.598C131.322 154.766 131.406 154.971 131.406 155.214C131.406 155.457 131.322 155.662 131.154 155.83C130.995 155.998 130.799 156.082 130.566 156.082ZM131.182 157.328V165H129.908V157.328H131.182ZM140.353 160.87C140.353 161.113 140.339 161.369 140.311 161.64H134.179C134.226 162.396 134.483 162.989 134.949 163.418C135.425 163.838 135.999 164.048 136.671 164.048C137.222 164.048 137.679 163.922 138.043 163.67C138.417 163.409 138.678 163.063 138.827 162.634H140.199C139.994 163.371 139.583 163.973 138.967 164.44C138.351 164.897 137.586 165.126 136.671 165.126C135.943 165.126 135.29 164.963 134.711 164.636C134.142 164.309 133.694 163.847 133.367 163.25C133.041 162.643 132.877 161.943 132.877 161.15C132.877 160.357 133.036 159.661 133.353 159.064C133.671 158.467 134.114 158.009 134.683 157.692C135.262 157.365 135.925 157.202 136.671 157.202C137.399 157.202 138.043 157.361 138.603 157.678C139.163 157.995 139.593 158.434 139.891 158.994C140.199 159.545 140.353 160.17 140.353 160.87ZM139.037 160.604C139.037 160.119 138.93 159.703 138.715 159.358C138.501 159.003 138.207 158.737 137.833 158.56C137.469 158.373 137.063 158.28 136.615 158.28C135.971 158.28 135.421 158.485 134.963 158.896C134.515 159.307 134.259 159.876 134.193 160.604H139.037ZM144.751 165.126C144.163 165.126 143.636 165.028 143.169 164.832C142.702 164.627 142.334 164.347 142.063 163.992C141.792 163.628 141.643 163.213 141.615 162.746H142.931C142.968 163.129 143.146 163.441 143.463 163.684C143.79 163.927 144.214 164.048 144.737 164.048C145.222 164.048 145.605 163.941 145.885 163.726C146.165 163.511 146.305 163.241 146.305 162.914C146.305 162.578 146.156 162.331 145.857 162.172C145.558 162.004 145.096 161.841 144.471 161.682C143.902 161.533 143.435 161.383 143.071 161.234C142.716 161.075 142.408 160.847 142.147 160.548C141.895 160.24 141.769 159.839 141.769 159.344C141.769 158.952 141.886 158.593 142.119 158.266C142.352 157.939 142.684 157.683 143.113 157.496C143.542 157.3 144.032 157.202 144.583 157.202C145.432 157.202 146.118 157.417 146.641 157.846C147.164 158.275 147.444 158.863 147.481 159.61H146.207C146.179 159.209 146.016 158.887 145.717 158.644C145.428 158.401 145.036 158.28 144.541 158.28C144.084 158.28 143.72 158.378 143.449 158.574C143.178 158.77 143.043 159.027 143.043 159.344C143.043 159.596 143.122 159.806 143.281 159.974C143.449 160.133 143.654 160.263 143.897 160.366C144.149 160.459 144.494 160.567 144.933 160.688C145.484 160.837 145.932 160.987 146.277 161.136C146.622 161.276 146.916 161.491 147.159 161.78C147.411 162.069 147.542 162.447 147.551 162.914C147.551 163.334 147.434 163.712 147.201 164.048C146.968 164.384 146.636 164.65 146.207 164.846C145.787 165.033 145.302 165.126 144.751 165.126ZM158.402 159.33V160.408H152.816V159.33H158.402ZM11.172 186.098C10.528 186.098 9.94933 185.986 9.436 185.762C8.932 185.529 8.53533 185.211 8.246 184.81C7.95667 184.399 7.80733 183.928 7.798 183.396H9.156C9.20267 183.853 9.38933 184.241 9.716 184.558C10.052 184.866 10.5373 185.02 11.172 185.02C11.7787 185.02 12.2547 184.871 12.6 184.572C12.9547 184.264 13.132 183.872 13.132 183.396C13.132 183.023 13.0293 182.719 12.824 182.486C12.6187 182.253 12.362 182.075 12.054 181.954C11.746 181.833 11.3307 181.702 10.808 181.562C10.164 181.394 9.646 181.226 9.254 181.058C8.87133 180.89 8.54 180.629 8.26 180.274C7.98933 179.91 7.854 179.425 7.854 178.818C7.854 178.286 7.98933 177.815 8.26 177.404C8.53067 176.993 8.90867 176.676 9.394 176.452C9.88867 176.228 10.4533 176.116 11.088 176.116C12.0027 176.116 12.7493 176.345 13.328 176.802C13.916 177.259 14.2473 177.866 14.322 178.622H12.922C12.8753 178.249 12.6793 177.922 12.334 177.642C11.9887 177.353 11.5313 177.208 10.962 177.208C10.43 177.208 9.996 177.348 9.66 177.628C9.324 177.899 9.156 178.281 9.156 178.776C9.156 179.131 9.254 179.42 9.45 179.644C9.65533 179.868 9.90267 180.041 10.192 180.162C10.4907 180.274 10.906 180.405 11.438 180.554C12.082 180.731 12.6 180.909 12.992 181.086C13.384 181.254 13.72 181.52 14 181.884C14.28 182.239 14.42 182.724 14.42 183.34C14.42 183.816 14.294 184.264 14.042 184.684C13.79 185.104 13.4167 185.445 12.922 185.706C12.4273 185.967 11.844 186.098 11.172 186.098ZM23.0988 178.328V186H21.8248V184.866C21.5821 185.258 21.2415 185.566 20.8028 185.79C20.3735 186.005 19.8975 186.112 19.3748 186.112C18.7775 186.112 18.2408 185.991 17.7648 185.748C17.2888 185.496 16.9108 185.123 16.6308 184.628C16.3601 184.133 16.2248 183.531 16.2248 182.822V178.328H17.4848V182.654C17.4848 183.41 17.6761 183.993 18.0588 184.404C18.4415 184.805 18.9641 185.006 19.6268 185.006C20.3081 185.006 20.8448 184.796 21.2368 184.376C21.6288 183.956 21.8248 183.345 21.8248 182.542V178.328H23.0988ZM25.9079 177.082C25.6652 177.082 25.4599 176.998 25.2919 176.83C25.1239 176.662 25.0399 176.457 25.0399 176.214C25.0399 175.971 25.1239 175.766 25.2919 175.598C25.4599 175.43 25.6652 175.346 25.9079 175.346C26.1412 175.346 26.3372 175.43 26.4959 175.598C26.6639 175.766 26.7479 175.971 26.7479 176.214C26.7479 176.457 26.6639 176.662 26.4959 176.83C26.3372 176.998 26.1412 177.082 25.9079 177.082ZM26.5239 178.328V186H25.2499V178.328H26.5239ZM30.2492 179.378V183.9C30.2492 184.273 30.3285 184.539 30.4872 184.698C30.6459 184.847 30.9212 184.922 31.3132 184.922H32.2512V186H31.1032C30.3939 186 29.8619 185.837 29.5072 185.51C29.1525 185.183 28.9752 184.647 28.9752 183.9V179.378H27.9812V178.328H28.9752V176.396H30.2492V178.328H32.2512V179.378H30.2492ZM35.1108 184.236L33.5428 188.002H32.6888L33.7108 184.236H35.1108ZM43.3966 186.098C42.7526 186.098 42.1739 185.986 41.6606 185.762C41.1566 185.529 40.7599 185.211 40.4706 184.81C40.1813 184.399 40.0319 183.928 40.0226 183.396H41.3806C41.4273 183.853 41.6139 184.241 41.9406 184.558C42.2766 184.866 42.7619 185.02 43.3966 185.02C44.0033 185.02 44.4793 184.871 44.8246 184.572C45.1793 184.264 45.3566 183.872 45.3566 183.396C45.3566 183.023 45.2539 182.719 45.0486 182.486C44.8433 182.253 44.5866 182.075 44.2786 181.954C43.9706 181.833 43.5553 181.702 43.0326 181.562C42.3886 181.394 41.8706 181.226 41.4786 181.058C41.0959 180.89 40.7646 180.629 40.4846 180.274C40.2139 179.91 40.0786 179.425 40.0786 178.818C40.0786 178.286 40.2139 177.815 40.4846 177.404C40.7553 176.993 41.1333 176.676 41.6186 176.452C42.1133 176.228 42.6779 176.116 43.3126 176.116C44.2273 176.116 44.9739 176.345 45.5526 176.802C46.1406 177.259 46.4719 177.866 46.5466 178.622H45.1466C45.0999 178.249 44.9039 177.922 44.5586 177.642C44.2133 177.353 43.7559 177.208 43.1866 177.208C42.6546 177.208 42.2206 177.348 41.8846 177.628C41.5486 177.899 41.3806 178.281 41.3806 178.776C41.3806 179.131 41.4786 179.42 41.6746 179.644C41.8799 179.868 42.1273 180.041 42.4166 180.162C42.7153 180.274 43.1306 180.405 43.6626 180.554C44.3066 180.731 44.8246 180.909 45.2166 181.086C45.6086 181.254 45.9446 181.52 46.2246 181.884C46.5046 182.239 46.6446 182.724 46.6446 183.34C46.6446 183.816 46.5186 184.264 46.2666 184.684C46.0146 185.104 45.6413 185.445 45.1466 185.706C44.6519 185.967 44.0686 186.098 43.3966 186.098ZM48.0434 182.136C48.0434 181.352 48.2021 180.666 48.5194 180.078C48.8367 179.481 49.2707 179.019 49.8214 178.692C50.3814 178.365 51.0021 178.202 51.6834 178.202C52.3554 178.202 52.9387 178.347 53.4334 178.636C53.9281 178.925 54.2967 179.289 54.5394 179.728V178.328H55.8274V186H54.5394V184.572C54.2874 185.02 53.9094 185.393 53.4054 185.692C52.9107 185.981 52.3321 186.126 51.6694 186.126C50.9881 186.126 50.3721 185.958 49.8214 185.622C49.2707 185.286 48.8367 184.815 48.5194 184.208C48.2021 183.601 48.0434 182.911 48.0434 182.136ZM54.5394 182.15C54.5394 181.571 54.4227 181.067 54.1894 180.638C53.9561 180.209 53.6387 179.882 53.2374 179.658C52.8454 179.425 52.4114 179.308 51.9354 179.308C51.4594 179.308 51.0254 179.42 50.6334 179.644C50.2414 179.868 49.9287 180.195 49.6954 180.624C49.4621 181.053 49.3454 181.557 49.3454 182.136C49.3454 182.724 49.4621 183.237 49.6954 183.676C49.9287 184.105 50.2414 184.437 50.6334 184.67C51.0254 184.894 51.4594 185.006 51.9354 185.006C52.4114 185.006 52.8454 184.894 53.2374 184.67C53.6387 184.437 53.9561 184.105 54.1894 183.676C54.4227 183.237 54.5394 182.729 54.5394 182.15ZM59.2543 179.574C59.4783 179.135 59.7957 178.795 60.2063 178.552C60.6263 178.309 61.135 178.188 61.7323 178.188V179.504H61.3963C59.9683 179.504 59.2543 180.279 59.2543 181.828V186H57.9803V178.328H59.2543V179.574ZM63.861 177.082C63.6183 177.082 63.413 176.998 63.245 176.83C63.077 176.662 62.993 176.457 62.993 176.214C62.993 175.971 63.077 175.766 63.245 175.598C63.413 175.43 63.6183 175.346 63.861 175.346C64.0943 175.346 64.2903 175.43 64.449 175.598C64.617 175.766 64.701 175.971 64.701 176.214C64.701 176.457 64.617 176.662 64.449 176.83C64.2903 176.998 64.0943 177.082 63.861 177.082ZM64.477 178.328V186H63.203V178.328H64.477ZM67.9643 184.236L66.3963 188.002H65.5423L66.5643 184.236H67.9643ZM76.2501 186.098C75.6061 186.098 75.0275 185.986 74.5141 185.762C74.0101 185.529 73.6135 185.211 73.3241 184.81C73.0348 184.399 72.8855 183.928 72.8761 183.396H74.2341C74.2808 183.853 74.4675 184.241 74.7941 184.558C75.1301 184.866 75.6155 185.02 76.2501 185.02C76.8568 185.02 77.3328 184.871 77.6781 184.572C78.0328 184.264 78.2101 183.872 78.2101 183.396C78.2101 183.023 78.1075 182.719 77.9021 182.486C77.6968 182.253 77.4401 182.075 77.1321 181.954C76.8241 181.833 76.4088 181.702 75.8861 181.562C75.2421 181.394 74.7241 181.226 74.3321 181.058C73.9495 180.89 73.6181 180.629 73.3381 180.274C73.0675 179.91 72.9321 179.425 72.9321 178.818C72.9321 178.286 73.0675 177.815 73.3381 177.404C73.6088 176.993 73.9868 176.676 74.4721 176.452C74.9668 176.228 75.5315 176.116 76.1661 176.116C77.0808 176.116 77.8275 176.345 78.4061 176.802C78.9941 177.259 79.3255 177.866 79.4001 178.622H78.0001C77.9535 178.249 77.7575 177.922 77.4121 177.642C77.0668 177.353 76.6095 177.208 76.0401 177.208C75.5081 177.208 75.0741 177.348 74.7381 177.628C74.4021 177.899 74.2341 178.281 74.2341 178.776C74.2341 179.131 74.3321 179.42 74.5281 179.644C74.7335 179.868 74.9808 180.041 75.2701 180.162C75.5688 180.274 75.9841 180.405 76.5161 180.554C77.1601 180.731 77.6781 180.909 78.0701 181.086C78.4621 181.254 78.7981 181.52 79.0781 181.884C79.3581 182.239 79.4981 182.724 79.4981 183.34C79.4981 183.816 79.3721 184.264 79.1201 184.684C78.8681 185.104 78.4948 185.445 78.0001 185.706C77.5055 185.967 76.9221 186.098 76.2501 186.098ZM88.1769 178.328V186H86.9029V184.866C86.6603 185.258 86.3196 185.566 85.8809 185.79C85.4516 186.005 84.9756 186.112 84.4529 186.112C83.8556 186.112 83.3189 185.991 82.8429 185.748C82.3669 185.496 81.9889 185.123 81.7089 184.628C81.4383 184.133 81.3029 183.531 81.3029 182.822V178.328H82.5629V182.654C82.5629 183.41 82.7543 183.993 83.1369 184.404C83.5196 184.805 84.0423 185.006 84.7049 185.006C85.3863 185.006 85.9229 184.796 86.3149 184.376C86.7069 183.956 86.9029 183.345 86.9029 182.542V178.328H88.1769ZM90.986 177.082C90.7433 177.082 90.538 176.998 90.37 176.83C90.202 176.662 90.118 176.457 90.118 176.214C90.118 175.971 90.202 175.766 90.37 175.598C90.538 175.43 90.7433 175.346 90.986 175.346C91.2193 175.346 91.4153 175.43 91.574 175.598C91.742 175.766 91.826 175.971 91.826 176.214C91.826 176.457 91.742 176.662 91.574 176.83C91.4153 176.998 91.2193 177.082 90.986 177.082ZM91.602 178.328V186H90.328V178.328H91.602ZM95.3273 179.378V183.9C95.3273 184.273 95.4066 184.539 95.5653 184.698C95.724 184.847 95.9993 184.922 96.3913 184.922H97.3293V186H96.1813C95.472 186 94.94 185.837 94.5853 185.51C94.2306 185.183 94.0533 184.647 94.0533 183.9V179.378H93.0593V178.328H94.0533V176.396H95.3273V178.328H97.3293V179.378H95.3273ZM112.503 176.312V186H111.229V178.776L108.009 186H107.113L103.879 178.762V186H102.605V176.312H103.977L107.561 184.32L111.145 176.312H112.503ZM114.188 182.136C114.188 181.352 114.347 180.666 114.664 180.078C114.981 179.481 115.415 179.019 115.966 178.692C116.526 178.365 117.147 178.202 117.828 178.202C118.5 178.202 119.083 178.347 119.578 178.636C120.073 178.925 120.441 179.289 120.684 179.728V178.328H121.972V186H120.684V184.572C120.432 185.02 120.054 185.393 119.55 185.692C119.055 185.981 118.477 186.126 117.814 186.126C117.133 186.126 116.517 185.958 115.966 185.622C115.415 185.286 114.981 184.815 114.664 184.208C114.347 183.601 114.188 182.911 114.188 182.136ZM120.684 182.15C120.684 181.571 120.567 181.067 120.334 180.638C120.101 180.209 119.783 179.882 119.382 179.658C118.99 179.425 118.556 179.308 118.08 179.308C117.604 179.308 117.17 179.42 116.778 179.644C116.386 179.868 116.073 180.195 115.84 180.624C115.607 181.053 115.49 181.557 115.49 182.136C115.49 182.724 115.607 183.237 115.84 183.676C116.073 184.105 116.386 184.437 116.778 184.67C117.17 184.894 117.604 185.006 118.08 185.006C118.556 185.006 118.99 184.894 119.382 184.67C119.783 184.437 120.101 184.105 120.334 183.676C120.567 183.237 120.684 182.729 120.684 182.15ZM125.679 179.378V183.9C125.679 184.273 125.758 184.539 125.917 184.698C126.076 184.847 126.351 184.922 126.743 184.922H127.681V186H126.533C125.824 186 125.292 185.837 124.937 185.51C124.582 185.183 124.405 184.647 124.405 183.9V179.378H123.411V178.328H124.405V176.396H125.679V178.328H127.681V179.378H125.679ZM136.224 181.87C136.224 182.113 136.21 182.369 136.182 182.64H130.05C130.097 183.396 130.354 183.989 130.82 184.418C131.296 184.838 131.87 185.048 132.542 185.048C133.093 185.048 133.55 184.922 133.914 184.67C134.288 184.409 134.549 184.063 134.698 183.634H136.07C135.865 184.371 135.454 184.973 134.838 185.44C134.222 185.897 133.457 186.126 132.542 186.126C131.814 186.126 131.161 185.963 130.582 185.636C130.013 185.309 129.565 184.847 129.238 184.25C128.912 183.643 128.748 182.943 128.748 182.15C128.748 181.357 128.907 180.661 129.224 180.064C129.542 179.467 129.985 179.009 130.554 178.692C131.133 178.365 131.796 178.202 132.542 178.202C133.27 178.202 133.914 178.361 134.474 178.678C135.034 178.995 135.464 179.434 135.762 179.994C136.07 180.545 136.224 181.17 136.224 181.87ZM134.908 181.604C134.908 181.119 134.801 180.703 134.586 180.358C134.372 180.003 134.078 179.737 133.704 179.56C133.34 179.373 132.934 179.28 132.486 179.28C131.842 179.28 131.292 179.485 130.834 179.896C130.386 180.307 130.13 180.876 130.064 181.604H134.908ZM139.18 179.574C139.404 179.135 139.721 178.795 140.132 178.552C140.552 178.309 141.061 178.188 141.658 178.188V179.504H141.322C139.894 179.504 139.18 180.279 139.18 181.828V186H137.906V178.328H139.18V179.574ZM143.787 177.082C143.544 177.082 143.339 176.998 143.171 176.83C143.003 176.662 142.919 176.457 142.919 176.214C142.919 175.971 143.003 175.766 143.171 175.598C143.339 175.43 143.544 175.346 143.787 175.346C144.02 175.346 144.216 175.43 144.375 175.598C144.543 175.766 144.627 175.971 144.627 176.214C144.627 176.457 144.543 176.662 144.375 176.83C144.216 176.998 144.02 177.082 143.787 177.082ZM144.403 178.328V186H143.129V178.328H144.403ZM146.098 182.136C146.098 181.352 146.257 180.666 146.574 180.078C146.891 179.481 147.325 179.019 147.876 178.692C148.436 178.365 149.057 178.202 149.738 178.202C150.41 178.202 150.993 178.347 151.488 178.636C151.983 178.925 152.351 179.289 152.594 179.728V178.328H153.882V186H152.594V184.572C152.342 185.02 151.964 185.393 151.46 185.692C150.965 185.981 150.387 186.126 149.724 186.126C149.043 186.126 148.427 185.958 147.876 185.622C147.325 185.286 146.891 184.815 146.574 184.208C146.257 183.601 146.098 182.911 146.098 182.136ZM152.594 182.15C152.594 181.571 152.477 181.067 152.244 180.638C152.011 180.209 151.693 179.882 151.292 179.658C150.9 179.425 150.466 179.308 149.99 179.308C149.514 179.308 149.08 179.42 148.688 179.644C148.296 179.868 147.983 180.195 147.75 180.624C147.517 181.053 147.4 181.557 147.4 182.136C147.4 182.724 147.517 183.237 147.75 183.676C147.983 184.105 148.296 184.437 148.688 184.67C149.08 184.894 149.514 185.006 149.99 185.006C150.466 185.006 150.9 184.894 151.292 184.67C151.693 184.437 152.011 184.105 152.244 183.676C152.477 183.237 152.594 182.729 152.594 182.15ZM157.309 175.64V186H156.035V175.64H157.309Z" fill="white"/>
<defs>
<filter id="filter0_f_3260_531" x="144.596" y="77.2551" width="14.5542" height="22.0125" filterUnits="userSpaceOnUse" color-interpolation-filters="sRGB">
<feFlood flood-opacity="0" result="BackgroundImageFix"/>
<feBlend mode="normal" in="SourceGraphic" in2="BackgroundImageFix" result="shape"/>
<feGaussianBlur stdDeviation="0.125" result="effect1_foregroundBlur_3260_531"/>
</filter>
<filter id="filter1_i_3260_531" x="135.989" y="125.407" width="19.502" height="3.64126" filterUnits="userSpaceOnUse" color-interpolation-filters="sRGB">
<feFlood flood-opacity="0" result="BackgroundImageFix"/>
<feBlend mode="normal" in="SourceGraphic" in2="BackgroundImageFix" result="shape"/>
<feColorMatrix in="SourceAlpha" type="matrix" values="0 0 0 0 0 0 0 0 0 0 0 0 0 0 0 0 0 0 127 0" result="hardAlpha"/>
<feOffset dy="-0.1"/>
<feGaussianBlur stdDeviation="0.1"/>
<feComposite in2="hardAlpha" operator="arithmetic" k2="-1" k3="1"/>
<feColorMatrix type="matrix" values="0 0 0 0 0.745098 0 0 0 0 0.619608 0 0 0 0 0.427451 0 0 0 1 0"/>
<feBlend mode="normal" in2="shape" result="effect1_innerShadow_3260_531"/>
</filter>
<filter id="filter2_f_3260_531" x="105.72" y="101.127" width="41.0145" height="42.0716" filterUnits="userSpaceOnUse" color-interpolation-filters="sRGB">
<feFlood flood-opacity="0" result="BackgroundImageFix"/>
<feBlend mode="normal" in="SourceGraphic" in2="BackgroundImageFix" result="shape"/>
<feGaussianBlur stdDeviation="0.3" result="effect1_foregroundBlur_3260_531"/>
</filter>
<filter id="filter3_i_3260_531" x="98" y="76.6917" width="14.2066" height="21.8818" filterUnits="userSpaceOnUse" color-interpolation-filters="sRGB">
<feFlood flood-opacity="0" result="BackgroundImageFix"/>
<feBlend mode="normal" in="SourceGraphic" in2="BackgroundImageFix" result="shape"/>
<feColorMatrix in="SourceAlpha" type="matrix" values="0 0 0 0 0 0 0 0 0 0 0 0 0 0 0 0 0 0 127 0" result="hardAlpha"/>
<feOffset dx="0.15" dy="-0.3"/>
<feGaussianBlur stdDeviation="0.25"/>
<feComposite in2="hardAlpha" operator="arithmetic" k2="-1" k3="1"/>
<feColorMatrix type="matrix" values="0 0 0 0 0.729412 0 0 0 0 0.219608 0 0 0 0 0.403922 0 0 0 1 0"/>
<feBlend mode="normal" in2="shape" result="effect1_innerShadow_3260_531"/>
</filter>
<filter id="filter4_f_3260_531" x="118.901" y="75.85" width="20.2161" height="11.834" filterUnits="userSpaceOnUse" color-interpolation-filters="sRGB">
<feFlood flood-opacity="0" result="BackgroundImageFix"/>
<feBlend mode="normal" in="SourceGraphic" in2="BackgroundImageFix" result="shape"/>
<feGaussianBlur stdDeviation="0.05" result="effect1_foregroundBlur_3260_531"/>
</filter>
<filter id="filter5_i_3260_531" x="100.222" y="171.561" width="56.4907" height="2.96885" filterUnits="userSpaceOnUse" color-interpolation-filters="sRGB">
<feFlood flood-opacity="0" result="BackgroundImageFix"/>
<feBlend mode="normal" in="SourceGraphic" in2="BackgroundImageFix" result="shape"/>
<feColorMatrix in="SourceAlpha" type="matrix" values="0 0 0 0 0 0 0 0 0 0 0 0 0 0 0 0 0 0 127 0" result="hardAlpha"/>
<feOffset dy="-0.15"/>
<feGaussianBlur stdDeviation="0.175"/>
<feComposite in2="hardAlpha" operator="arithmetic" k2="-1" k3="1"/>
<feColorMatrix type="matrix" values="0 0 0 0 0.776471 0 0 0 0 0.521569 0 0 0 0 0.294118 0 0 0 1 0"/>
<feBlend mode="normal" in2="shape" result="effect1_innerShadow_3260_531"/>
</filter>
<filter id="filter6_f_3260_531" x="145.288" y="111.944" width="11.1273" height="58.3896" filterUnits="userSpaceOnUse" color-interpolation-filters="sRGB">
<feFlood flood-opacity="0" result="BackgroundImageFix"/>
<feBlend mode="normal" in="SourceGraphic" in2="BackgroundImageFix" result="shape"/>
<feGaussianBlur stdDeviation="0.15" result="effect1_foregroundBlur_3260_531"/>
</filter>
<filter id="filter7_f_3260_531" x="148.414" y="79.3684" width="10.6323" height="7.96948" filterUnits="userSpaceOnUse" color-interpolation-filters="sRGB">
<feFlood flood-opacity="0" result="BackgroundImageFix"/>
<feBlend mode="normal" in="SourceGraphic" in2="BackgroundImageFix" result="shape"/>
<feGaussianBlur stdDeviation="0.25" result="effect1_foregroundBlur_3260_531"/>
</filter>
<filter id="filter8_i_3260_531" x="104.395" y="76.4066" width="46.0635" height="66.4494" filterUnits="userSpaceOnUse" color-interpolation-filters="sRGB">
<feFlood flood-opacity="0" result="BackgroundImageFix"/>
<feBlend mode="normal" in="SourceGraphic" in2="BackgroundImageFix" result="shape"/>
<feColorMatrix in="SourceAlpha" type="matrix" values="0 0 0 0 0 0 0 0 0 0 0 0 0 0 0 0 0 0 127 0" result="hardAlpha"/>
<feOffset dy="-0.1"/>
<feGaussianBlur stdDeviation="0.15"/>
<feComposite in2="hardAlpha" operator="arithmetic" k2="-1" k3="1"/>
<feColorMatrix type="matrix" values="0 0 0 0 0.678431 0 0 0 0 0.611765 0 0 0 0 0.211765 0 0 0 1 0"/>
<feBlend mode="normal" in2="shape" result="effect1_innerShadow_3260_531"/>
</filter>
<linearGradient id="paint0_linear_3260_531" x1="145.78" y1="92.1414" x2="145.78" y2="129.768" gradientUnits="userSpaceOnUse">
<stop offset="0.158" stop-color="#53C8DA"/>
<stop offset="1" stop-color="#6BFFAB"/>
</linearGradient>
<linearGradient id="paint1_linear_3260_531" x1="156.241" y1="121.909" x2="154.471" y2="121.909" gradientUnits="userSpaceOnUse">
<stop stop-color="#49C4E3"/>
<stop offset="1" stop-color="#49C4E3" stop-opacity="0"/>
</linearGradient>
<radialGradient id="paint2_radial_3260_531" cx="0" cy="0" r="1" gradientUnits="userSpaceOnUse" gradientTransform="translate(155.576 125.341) rotate(-90) scale(14.7462 1.99198)">
<stop stop-color="#65FCA7"/>
<stop offset="1" stop-color="#65FCA7" stop-opacity="0"/>
</radialGradient>
<radialGradient id="paint3_radial_3260_531" cx="0" cy="0" r="1" gradientUnits="userSpaceOnUse" gradientTransform="translate(147.498 127.278) scale(6.0866 3.59958)">
<stop stop-color="#FFDC4F"/>
<stop offset="1" stop-color="#FFCD53"/>
</radialGradient>
<linearGradient id="paint4_linear_3260_531" x1="128.672" y1="117.04" x2="128.672" y2="172.596" gradientUnits="userSpaceOnUse">
<stop stop-color="#4FB7E8"/>
<stop offset="1" stop-color="#63EBA8"/>
</linearGradient>
<linearGradient id="paint5_linear_3260_531" x1="100.15" y1="161.53" x2="132.337" y2="161.53" gradientUnits="userSpaceOnUse">
<stop stop-color="#5DBBA1"/>
<stop offset="1" stop-color="#5DBBA1" stop-opacity="0"/>
</linearGradient>
<linearGradient id="paint6_linear_3260_531" x1="97.983" y1="164.561" x2="104.418" y2="165.662" gradientUnits="userSpaceOnUse">
<stop stop-color="#86CEAD"/>
<stop offset="1" stop-color="#86CEAD" stop-opacity="0"/>
</linearGradient>
<radialGradient id="paint7_radial_3260_531" cx="0" cy="0" r="1" gradientUnits="userSpaceOnUse" gradientTransform="translate(142.476 114.933) rotate(144.966) scale(48.6553 47.3914)">
<stop stop-color="#49A9D9"/>
<stop offset="1" stop-color="#2B877D"/>
</radialGradient>
<linearGradient id="paint8_linear_3260_531" x1="111.2" y1="76.9917" x2="105.027" y2="95.4596" gradientUnits="userSpaceOnUse">
<stop stop-color="#EC6A4C"/>
<stop offset="1" stop-color="#D94971"/>
</linearGradient>
<linearGradient id="paint9_linear_3260_531" x1="112.057" y1="95.5729" x2="107.878" y2="94.3547" gradientUnits="userSpaceOnUse">
<stop offset="0.138" stop-color="#CA4A4C"/>
<stop offset="1" stop-color="#CA4A4C" stop-opacity="0"/>
</linearGradient>
<linearGradient id="paint10_linear_3260_531" x1="100.795" y1="81.737" x2="103.122" y2="84.6692" gradientUnits="userSpaceOnUse">
<stop stop-color="#E9766F"/>
<stop offset="1" stop-color="#E9766F" stop-opacity="0"/>
</linearGradient>
<linearGradient id="paint11_linear_3260_531" x1="129.01" y1="76.1775" x2="129.01" y2="98.8914" gradientUnits="userSpaceOnUse">
<stop stop-color="#E5653F"/>
<stop offset="1" stop-color="#E54C74"/>
</linearGradient>
<linearGradient id="paint12_linear_3260_531" x1="111.976" y1="112.171" x2="118.726" y2="92.9561" gradientUnits="userSpaceOnUse">
<stop stop-color="#CB2979"/>
<stop offset="1" stop-color="#CB2979" stop-opacity="0"/>
</linearGradient>
<radialGradient id="paint13_radial_3260_531" cx="0" cy="0" r="1" gradientUnits="userSpaceOnUse" gradientTransform="translate(119.169 85.1122) rotate(13.0693) scale(22.2672 53.4828)">
<stop offset="0.752" stop-color="#CB4637" stop-opacity="0"/>
<stop offset="0.905" stop-color="#CB4637"/>
</radialGradient>
<linearGradient id="paint14_linear_3260_531" x1="127.746" y1="74.545" x2="127.799" y2="77.3107" gradientUnits="userSpaceOnUse">
<stop stop-color="#F78555"/>
<stop offset="1" stop-color="#F78555" stop-opacity="0"/>
</linearGradient>
<radialGradient id="paint15_radial_3260_531" cx="0" cy="0" r="1" gradientUnits="userSpaceOnUse" gradientTransform="translate(121.381 84.1733) rotate(-50.1943) scale(4.7538 8.31912)">
<stop stop-color="#F2674F"/>
<stop offset="1" stop-color="#F2674F" stop-opacity="0"/>
</radialGradient>
<radialGradient id="paint16_radial_3260_531" cx="0" cy="0" r="1" gradientUnits="userSpaceOnUse" gradientTransform="translate(124.705 76.1775) rotate(68.9481) scale(11.9766 24.4795)">
<stop stop-color="#BB5A4A"/>
<stop offset="1" stop-color="#A34C52"/>
</radialGradient>
<linearGradient id="paint17_linear_3260_531" x1="129.008" y1="75.2107" x2="129.008" y2="78.9716" gradientUnits="userSpaceOnUse">
<stop stop-color="#CE6741"/>
<stop offset="1" stop-color="#BA594A" stop-opacity="0"/>
</linearGradient>
<radialGradient id="paint18_radial_3260_531" cx="0" cy="0" r="1" gradientUnits="userSpaceOnUse" gradientTransform="translate(125.973 77.5869) rotate(32.3074) scale(13.3554 14.0445)">
<stop offset="0.812" stop-color="#95312B" stop-opacity="0"/>
<stop offset="0.915" stop-color="#95312B"/>
</radialGradient>
<radialGradient id="paint19_radial_3260_531" cx="0" cy="0" r="1" gradientUnits="userSpaceOnUse" gradientTransform="translate(124.705 76.1775) rotate(68.9481) scale(11.9766 24.4795)">
<stop stop-color="#BB5A4A"/>
<stop offset="1" stop-color="#A34C52"/>
</radialGradient>
<linearGradient id="paint20_linear_3260_531" x1="129.008" y1="75.2107" x2="129.008" y2="78.9716" gradientUnits="userSpaceOnUse">
<stop stop-color="#CE6741"/>
<stop offset="1" stop-color="#BA594A" stop-opacity="0"/>
</linearGradient>
<radialGradient id="paint21_radial_3260_531" cx="0" cy="0" r="1" gradientUnits="userSpaceOnUse" gradientTransform="translate(125.973 77.5869) rotate(32.3074) scale(13.3554 14.0445)">
<stop offset="0.812" stop-color="#95312B" stop-opacity="0"/>
<stop offset="0.915" stop-color="#95312B"/>
</radialGradient>
<linearGradient id="paint22_linear_3260_531" x1="150.265" y1="79.9659" x2="153.696" y2="96.1248" gradientUnits="userSpaceOnUse">
<stop stop-color="#FF6C60"/>
<stop offset="1" stop-color="#E63E7E"/>
</linearGradient>
<linearGradient id="paint23_linear_3260_531" x1="113.304" y1="174.53" x2="150.154" y2="174.53" gradientUnits="userSpaceOnUse">
<stop stop-color="#CEB032"/>
<stop offset="1" stop-color="#F7C44F"/>
</linearGradient>
<linearGradient id="paint24_linear_3260_531" x1="146.291" y1="114.717" x2="157.138" y2="169.055" gradientUnits="userSpaceOnUse">
<stop stop-color="#56C0F6"/>
<stop offset="1" stop-color="#6FFFB8"/>
</linearGradient>
<linearGradient id="paint25_linear_3260_531" x1="150.331" y1="81.333" x2="158.952" y2="86.4241" gradientUnits="userSpaceOnUse">
<stop stop-color="#FF7F68"/>
<stop offset="1" stop-color="#FF7B85"/>
</linearGradient>
<linearGradient id="paint26_linear_3260_531" x1="133.109" y1="119.587" x2="124.699" y2="102.323" gradientUnits="userSpaceOnUse">
<stop stop-color="#52D3BF"/>
<stop offset="0.919" stop-color="#3FBBCA"/>
</linearGradient>
<radialGradient id="paint27_radial_3260_531" cx="0" cy="0" r="1" gradientUnits="userSpaceOnUse" gradientTransform="translate(108.1 138.62) rotate(-58.82) scale(30.1388 39.3427)">
<stop stop-color="#4EC18D"/>
<stop offset="1" stop-color="#4EC18D" stop-opacity="0"/>
</radialGradient>
<linearGradient id="paint28_linear_3260_531" x1="145.061" y1="75.2109" x2="145.061" y2="104.094" gradientUnits="userSpaceOnUse">
<stop stop-color="#34ACF4"/>
<stop offset="1" stop-color="#34ACF4" stop-opacity="0"/>
</linearGradient>
<linearGradient id="paint29_linear_3260_531" x1="105.997" y1="129.216" x2="111.642" y2="130.211" gradientUnits="userSpaceOnUse">
<stop stop-color="#77C6AF"/>
<stop offset="1" stop-color="#77C6AF" stop-opacity="0"/>
</linearGradient>
<radialGradient id="paint30_radial_3260_531" cx="0" cy="0" r="1" gradientUnits="userSpaceOnUse" gradientTransform="translate(136.874 97.8964) rotate(-127.025) scale(16.3564 41.7218)">
<stop offset="0.212" stop-color="#F4CF4B"/>
<stop offset="1" stop-color="#F0BE3D"/>
</radialGradient>
<radialGradient id="paint31_radial_3260_531" cx="0" cy="0" r="1" gradientUnits="userSpaceOnUse" gradientTransform="translate(136.873 81.4064) rotate(9.246) scale(4.82126 10.7392)">
<stop offset="0.463" stop-color="#D29C35"/>
<stop offset="1" stop-color="#D29C35" stop-opacity="0"/>
</radialGradient>
<linearGradient id="paint32_linear_3260_531" x1="150.458" y1="78.1958" x2="121.157" y2="137.736" gradientUnits="userSpaceOnUse">
<stop stop-color="#FECA52"/>
<stop offset="1" stop-color="#E7C93B"/>
</linearGradient>
<linearGradient id="paint33_linear_3260_531" x1="105.664" y1="143.49" x2="127.429" y2="120.139" gradientUnits="userSpaceOnUse">
<stop stop-color="#CCB948"/>
<stop offset="1" stop-color="#CCB948" stop-opacity="0"/>
</linearGradient>
</defs>
</svg>
