<svg width="167" height="199" viewBox="0 0 167 199" fill="none" xmlns="http://www.w3.org/2000/svg">
<g clip-path="url(#clip0_3534_193)">
<rect width="167" height="199" rx="17.72" fill="white"/>
<rect x="0.444471" y="0.553846" width="165.046" height="201.6" rx="17.1692" fill="#FFD9DE" stroke="#D3203A" stroke-width="1.10769"/>
<path d="M130.125 95.2867L143.746 88.6042C143.746 88.6042 148.041 88.7588 146.992 91.693C146.992 91.693 145.209 94.181 144.85 94.1875L132.874 99.6902L130.277 99.3789L129.506 97.3655L130.125 95.2867Z" fill="#939598"/>
<path d="M108.632 101.116L135.075 89.0007C135.075 89.0007 144.091 88.8962 142.826 93.8112C142.826 93.8112 139.874 98.0449 139.108 98.0819L115.754 108.119L110.232 107.838L107.992 104.584L108.632 101.116Z" fill="#A7A9AC"/>
<path d="M73.0514 52.6039C73.0514 52.6039 87.6223 48.2614 98.0661 60.2877C98.0661 60.2877 110.591 72.7645 112.197 76.885L79.8667 78.8136C79.8667 78.8136 65.8008 78.3478 61.208 67.843C61.208 67.843 67.8034 52.6148 73.0514 52.6061" fill="#27AAE1"/>
<path d="M73.3644 66.3779C75.5411 64.8825 78.8279 55.6859 77.0561 51.9376C67.4133 51.8397 64.7338 56.291 64.7338 56.291C62.3176 56.2954 64.3485 65.9991 63.4561 67.9146C66.9497 68.289 70.2169 68.535 73.3644 66.3779Z" fill="#1E88AD"/>
<path d="M85.7418 100.495C85.7418 100.495 103.199 106.153 118.545 96.9126C118.545 96.9126 126.257 92.1478 132.439 91.2249C132.439 91.2249 144.265 85.0148 144.887 79.3771C144.887 79.3771 143.178 76.8369 137.175 77.9862C137.175 77.9862 121.808 74.8735 117.892 77.2657C117.892 77.2657 110.402 83.6739 106.072 84.7253L91.5666 82.6095L74.3185 79.2335L59.8673 81.6518L55.0264 88.2777L69.1401 97.1194L85.7374 100.495" fill="#25333A"/>
<path d="M112.515 135.39C112.515 135.39 112.761 136.694 113.662 138.603C114.907 141.199 116.626 143.539 118.732 145.503C124.728 151.596 134.012 154.014 141.859 150.653C143.385 150.093 144.829 149.329 146.151 148.383C152.277 143.799 154.902 135.453 154.739 127.606C154.515 124.396 153.733 121.25 152.427 118.31C149.819 112.387 145.148 107.285 139.021 104.579C137.772 104.03 136.479 103.589 135.155 103.26C129.456 101.854 121.731 102.28 113.603 109.603C113.603 109.603 107.117 127.169 112.515 135.39Z" fill="#2C3B44"/>
<path d="M141.75 110.915C140.676 110.304 139.554 109.78 138.396 109.348C136.446 108.636 134.687 108.351 133.107 108.377C125.223 108.491 121.825 116.242 121.825 116.242C121.79 116.283 121.768 116.333 121.738 116.377L124.019 114.157C124.019 114.157 135.573 109.751 142.088 125.889C142.088 125.889 145.618 140.072 135.157 142.882L132.619 141.912C136.461 143.681 139.526 143.775 141.914 143.109C144.295 142.447 145.995 141.024 147.101 139.772C150.59 135.873 150.999 130.917 150.79 126.194C150.655 123.982 149.991 121.79 148.994 119.724C147.994 117.674 146.728 115.763 145.231 114.041C143.365 111.989 141.75 110.915 141.75 110.915Z" fill="#25333A"/>
<path d="M142.088 125.891C135.573 109.753 124.019 114.159 124.019 114.159L121.738 116.379C118.73 121.022 123.31 132.959 123.31 132.959C124.476 134.918 125.532 136.411 126.474 137.547C129.161 140.425 132.084 142.723 136.098 142.765C137.234 142.554 138.318 141.949 139.228 140.806C140.299 139.809 141.063 138.629 141.594 137.347C143.705 132.256 142.088 125.891 142.088 125.891Z" fill="#DD2D30"/>
<path d="M131.043 120.619C131.043 120.619 137.123 112.635 142.817 120.554C142.817 120.554 149.508 131.422 136.716 133.657C136.716 133.657 130.671 131.535 128.853 126.448L128.646 122.595L131.043 120.625" fill="#26292D"/>
<path d="M104.993 109.662C104.993 109.662 119.91 103.791 116.865 119.877C116.865 119.877 111.044 125.545 110.402 124.759C109.758 123.969 103.463 121.736 103.463 121.736L100.328 119.128L104.993 109.662Z" fill="#F05E27"/>
<path d="M48.2368 85.7658C48.2368 85.7658 54.9824 71.676 68.2059 76.6541C68.2059 76.6541 82.6483 78.9396 91.3942 91.8496C91.3942 91.8496 99.3631 99.5682 102.913 99.4615C102.913 99.4615 114.091 115.425 98.6078 122.774L74.7926 101.542L54.0617 91.016L48.2368 85.7658Z" fill="#26292D"/>
<path d="M56.8634 137.855C56.8634 137.855 58.8942 141.834 63.4849 141.875C63.4849 141.875 107.591 142.001 110.798 142.678C110.798 142.678 121.087 135.234 121.437 124.137C121.437 124.137 116.651 120.743 113.614 122.411C113.614 122.411 104.773 133.484 98.5037 118.351C98.5037 118.351 90.4477 113.937 84.4901 116.22C84.4901 116.22 70.1739 121.466 67.9798 117.526C67.9754 117.526 50.4574 126.838 56.8634 137.855Z" fill="#991D32"/>
<path d="M40.9493 85.5809C40.9493 85.5809 55.753 81.9502 60.1913 88.3083C60.1913 88.3083 66.3165 91.2251 68.4105 91.1076C68.4105 91.1076 80.2518 92.6443 93.5514 103.288C93.5514 103.288 103.547 113.66 89.3264 119.281C89.3264 119.281 68.4105 127.776 63.6196 122.794L47.2857 97.8662L37.6581 96.8279L33.1523 96.0987L40.9493 85.5809Z" fill="#D3203A"/>
<path d="M79.4297 101.208C82.1935 100.562 84.9413 99.8502 87.6707 99.0722C81.4061 95.0693 75.8751 93.0188 72.3685 92.0132C66.5219 93.243 60.5229 94.1877 55.3053 97.1959C53.2179 98.4018 51.4286 99.9516 49.7656 101.652L54.4085 108.741C62.1663 104.81 70.9144 103.156 79.4232 101.208" fill="#E07E83"/>
<path d="M30.3072 105.822C30.3072 105.822 21.4524 102.651 27.6908 99.3464C27.6908 99.3464 42.1289 92.0654 47.7731 92.9687C47.7731 92.9687 76.8908 104.625 68.8305 114.52C68.8305 114.52 64.5924 121.991 64.2333 125.534C64.2333 125.534 59.0201 127.263 57.4115 125.495L44.2424 109.579L30.3116 105.822" fill="#991D32"/>
<path d="M45.729 76.5892C45.729 76.5892 47.5661 72.9301 50.189 72.8735L56.7844 74.5344L57.4592 73.2153L61.325 74.4342L61.9737 76.2278L74.5898 80.8098C74.5898 80.8098 75.5519 82.1876 73.5385 83.3565L61.1226 79.2121L59.0068 79.2621L55.8702 78.7027L55.6417 77.597L53.1406 80.3353L45.8008 80.0327L45.7246 76.5892" fill="#121416"/>
<path d="M146.972 71.4387C146.972 71.4387 147.394 76.3863 138.178 79.0898C138.178 79.0898 124.102 81.1838 119.517 79.4054L119.123 76.6584L123.795 74.7233L125.793 73.0494L127.961 72.0612C127.961 72.0612 144.071 69.3556 146.963 71.4387M25.4578 108.893C25.4578 108.893 18.7754 112.339 16.64 120.454C16.1797 122.231 15.9658 124.062 16.0044 125.898C16.4267 139.067 26.3764 151.559 39.3822 152.98C41.5053 153.078 43.6297 152.817 45.6663 152.209C47.8779 151.561 50.1939 150.488 52.6122 148.877C52.6122 148.877 63.1191 142.591 60.2263 124.38L51.9178 108.945L35.2182 105.193L25.4578 108.893Z" fill="#2C3B44"/>
<path d="M30.7752 113.318C30.7752 113.318 27.6647 114.925 25.6295 118.586C24.8741 119.939 24.3572 121.411 24.1015 122.939C23.2526 132.251 28.7923 142.273 38.1456 144.924C40.0193 145.412 41.9762 145.492 43.8833 145.157C45.9534 144.798 48.1671 143.927 50.5049 142.371C50.5049 142.371 58.1538 137.797 56.0446 124.565L50.0064 113.347L37.8713 110.621L30.7752 113.301" fill="#25333A"/>
<path d="M35.1006 117.655C35.1006 117.655 27.1578 121.751 32.63 132.26C32.63 132.26 38.727 142.182 47.6993 136.209C47.6993 136.209 52.5664 133.29 51.2299 124.84L47.3794 117.679L39.6303 115.937L35.1006 117.655Z" fill="#DD2D30"/>
<path d="M22.0103 108.412C22.0103 108.412 28.6252 100.452 42.7411 103.284C42.7411 103.284 48.5268 103.138 49.1341 106.566C49.1341 106.566 46.152 121.551 43.3006 126.542C43.3006 126.542 43.9993 133.442 38.6533 128.797C38.6533 128.797 37.4931 120.419 39.0016 116.897C39.0016 116.897 40.4012 109.254 34.5154 109.315C34.5132 109.313 24.4743 110.497 22.0103 108.412Z" fill="#374149"/>
<path d="M41.7938 120.092C41.7938 120.092 49.1097 109.992 52.6991 127.661C52.6991 127.661 47.2856 135.721 41.574 128.494L40.54 123.629L41.7916 120.436" fill="#323C45"/>
<path d="M112.319 136.426C112.319 136.426 131.687 130.676 134.515 128.575C134.515 128.575 141.232 130.695 141.519 126.268C141.519 126.268 142.56 118.961 134.057 121.305L133.211 120.534C133.211 120.534 123.69 116.137 111.335 119.587C111.335 119.587 100.913 118.669 98.0178 115.328C98.02 115.33 79.2916 129.809 112.319 136.426Z" fill="#46484E"/>
<path d="M105.101 72.8687C105.101 72.8687 86.5313 71.5257 90.7062 81.2163C94.8812 90.907 90.6932 81.9716 90.6932 81.9716C90.6932 81.9716 95.5886 93.6279 102.04 96.9364C108.499 100.254 102.169 97.5198 102.169 97.5198L111.058 95.933C111.058 95.933 105.416 85.0277 104.295 83.9938C104.295 83.9938 107.695 90.0037 112.584 81.4079C112.58 81.4057 113.903 72.3201 105.101 72.8687Z" fill="#265D70"/>
<path d="M99.7158 96.2661C99.7158 96.2661 108.695 89.8187 111.139 96.4577C111.139 96.4577 114.916 106.137 116.792 107.661C116.792 107.661 122.153 111.766 118.501 115.687C118.501 115.687 112.672 122.336 107.552 122.552C107.552 122.552 102.53 120.828 106.041 116.24C106.041 116.24 106.427 109.936 105.739 108.303C105.739 108.303 99.8834 97.8072 99.7245 96.2661" fill="#2C3B44"/>
<path d="M74.7641 75.9511C74.7641 75.9511 78.5319 73.9725 84.9554 74.804C84.9554 74.804 78.1075 62.0855 81.464 58.3699C81.464 58.3699 89.6875 53.3374 92.748 61.6915C92.748 61.6915 96.9403 77.3834 96.7923 80.7072C96.7923 80.7072 95.1423 85.0584 88.4337 83.7676C88.4337 83.7676 77.6852 84.3336 74.4702 81.3014L74.7641 75.9511Z" fill="#1E88AD"/>
<path d="M63.4543 73.3454C63.4543 73.3454 54.926 79.4445 66.8086 82.9272C66.8086 82.9272 72.6422 82.1175 75.3957 82.962C75.3957 82.962 83.5409 78.2277 74.6099 74.5491C74.6099 74.5491 68.476 75.2826 67.8142 74.8495C67.8142 74.8495 66.4299 71.9958 63.4608 73.3454" fill="#2C3B44"/>
<path d="M65.9573 52.0795C65.7527 48.0657 63.8981 49.4065 63.8981 49.4065C63.8981 49.4065 63.9155 49.3782 63.9351 49.3303C63.9068 49.3804 63.8894 49.4283 63.8589 49.4805C59.5251 57.9979 51.3016 56.2522 51.2798 56.2479C52.564 61.6265 56.0337 65.4531 58.3279 67.4905C67.9054 63.4266 65.9573 52.0795 65.9573 52.0795Z" fill="#63BED6"/>
<path d="M63.0731 41C51.5497 41.1959 50.9663 54.6044 50.9663 54.6044C51.0505 55.1703 51.155 55.7188 51.2798 56.25C51.3015 56.2543 59.5251 57.9978 63.8589 49.4826C63.8894 49.4304 63.9046 49.3825 63.9351 49.3324L63.8981 49.4086C63.8937 49.4129 65.7526 48.0656 65.9572 52.0816C65.9572 52.0816 67.9054 63.4309 58.3279 67.4948C59.5839 68.6093 60.4894 69.1883 60.4894 69.1883C69.0525 68.1217 73.21 56.6309 73.21 56.6309C77.472 42.1188 63.0731 41 63.0731 41Z" fill="#25333A"/>
<path d="M30.1357 75.8229C30.1357 75.8229 38.8861 64.6891 42.765 63.7858C42.765 63.7858 58.4372 59.687 59.9957 67.743L46.4088 75.8621L39.55 78.707L36.9249 78.3392L30.1357 75.8229Z" fill="#DD2D30"/>
<path d="M29.0214 100.21C29.0214 100.21 21.8492 99.7664 22.8526 92.481C22.8526 92.481 24.6789 80.6898 30.9412 75.0239C30.9412 75.0239 35.5232 73.461 39.8287 77.0656C39.8287 77.0656 48.2046 67.4272 62.708 66.3105C62.708 66.3105 64.7802 69.6061 61.0994 70.7793C61.0994 70.7793 45.5142 73.3043 46.8964 81.6585C46.8964 81.6585 45.8429 87.7793 41.348 90.7026C41.348 90.7026 33.858 97.9924 29.7702 100.041" fill="#26292D"/>
<path d="M36.2828 78.844C36.2828 78.844 23.967 87.9099 26.2743 95.5502C26.2743 95.5502 26.2699 97.6398 28.7949 95.4152C31.3199 93.1906 28.8711 95.7047 28.8711 95.7047C28.8711 95.7047 33.7621 95.3412 33.5597 90.7048L35.5579 88.1668C35.5579 88.169 33.958 83.7242 36.2828 78.844Z" fill="#A7A9AC"/>
<path fill-rule="evenodd" clip-rule="evenodd" d="M86.8974 62.484C87.0172 62.6473 87.2849 62.6647 87.4677 62.5406C87.5742 62.4608 87.6556 62.3522 87.7023 62.2276C87.7489 62.103 87.7589 61.9677 87.7311 61.8376C87.6179 61.3021 87.1086 61.0801 86.6863 61.128C86.0834 61.2041 85.672 61.7091 85.672 62.3578C85.672 63.198 86.325 63.7161 87.0825 63.7683C87.89 63.8292 88.5974 63.3134 88.8303 62.4993C88.9052 62.2173 88.918 61.9225 88.8677 61.6351C88.8174 61.3477 88.7052 61.0747 88.539 60.835C88.3727 60.5953 88.1564 60.3945 87.9049 60.2467C87.6534 60.0988 87.3728 60.0074 87.0825 59.9787C85.6132 59.8132 84.4987 60.9625 84.5031 62.3491C84.5074 63.3482 84.9645 64.097 85.8309 64.5976C86.0442 64.7282 86.1204 65.0025 85.9941 65.2267C85.9223 65.3508 85.9027 65.3616 85.7677 65.2963C85.2124 65.0392 84.7387 64.634 84.3986 64.1253C83.7652 63.1849 83.6912 62.1858 84.1134 61.1388C84.4116 60.4009 84.9253 59.8807 85.6415 59.5586C86.8343 59.0187 88.5474 59.354 89.2788 60.8232C89.9426 62.1554 89.3462 63.5441 88.284 64.1449C87.2414 64.7348 85.8374 64.3604 85.2584 63.3286C84.7316 62.3817 85.0777 61.1193 86.0551 60.6556C86.7821 60.3073 87.8008 60.4706 88.2318 61.3347C88.5735 62.0161 88.3232 62.8236 87.7006 63.1392C87.089 63.4483 86.4817 63.1849 86.2466 62.7344C86.1492 62.5455 86.1297 62.3259 86.1924 62.1228C86.2551 61.9198 86.3949 61.7493 86.5818 61.6482C86.8626 61.5024 87.274 61.6808 87.348 61.9921C87.3621 62.0491 87.3631 62.1086 87.3511 62.1661C87.339 62.2236 87.3142 62.2776 87.2785 62.3242C87.2428 62.3708 87.197 62.4088 87.1446 62.4353C87.0922 62.4619 87.0345 62.4763 86.9758 62.4775L86.8931 62.484" fill="#FD7D23"/>
<rect y="139" width="166.154" height="59.8154" rx="17.7231" fill="#D3203A"/>
<rect y="140.108" width="166.154" height="25.4769" fill="#D3203A"/>
<path d="M27.846 160.83H23.59L22.806 163H21.462L24.99 153.298H26.46L29.974 163H28.63L27.846 160.83ZM27.482 159.794L25.718 154.866L23.954 159.794H27.482ZM38.3156 155.328V163H37.0416V161.866C36.7989 162.258 36.4583 162.566 36.0196 162.79C35.5903 163.005 35.1143 163.112 34.5916 163.112C33.9943 163.112 33.4576 162.991 32.9816 162.748C32.5056 162.496 32.1276 162.123 31.8476 161.628C31.5769 161.133 31.4416 160.531 31.4416 159.822V155.328H32.7016V159.654C32.7016 160.41 32.8929 160.993 33.2756 161.404C33.6583 161.805 34.1809 162.006 34.8436 162.006C35.5249 162.006 36.0616 161.796 36.4536 161.376C36.8456 160.956 37.0416 160.345 37.0416 159.542V155.328H38.3156ZM42.0207 156.378V160.9C42.0207 161.273 42.1 161.539 42.2587 161.698C42.4173 161.847 42.6927 161.922 43.0847 161.922H44.0227V163H42.8747C42.1653 163 41.6333 162.837 41.2787 162.51C40.924 162.183 40.7467 161.647 40.7467 160.9V156.378H39.7527V155.328H40.7467V153.396H42.0207V155.328H44.0227V156.378H42.0207ZM48.9123 163.126C48.1936 163.126 47.5403 162.963 46.9523 162.636C46.3736 162.309 45.9163 161.847 45.5803 161.25C45.2536 160.643 45.0903 159.943 45.0903 159.15C45.0903 158.366 45.2583 157.675 45.5943 157.078C45.9396 156.471 46.4063 156.009 46.9943 155.692C47.5823 155.365 48.2403 155.202 48.9683 155.202C49.6963 155.202 50.3543 155.365 50.9423 155.692C51.5303 156.009 51.9923 156.467 52.3283 157.064C52.6736 157.661 52.8463 158.357 52.8463 159.15C52.8463 159.943 52.6689 160.643 52.3143 161.25C51.9689 161.847 51.4976 162.309 50.9003 162.636C50.3029 162.963 49.6403 163.126 48.9123 163.126ZM48.9123 162.006C49.3696 162.006 49.7989 161.899 50.2003 161.684C50.6016 161.469 50.9236 161.147 51.1663 160.718C51.4183 160.289 51.5443 159.766 51.5443 159.15C51.5443 158.534 51.4229 158.011 51.1803 157.582C50.9376 157.153 50.6203 156.835 50.2283 156.63C49.8363 156.415 49.4116 156.308 48.9543 156.308C48.4876 156.308 48.0583 156.415 47.6663 156.63C47.2836 156.835 46.9756 157.153 46.7423 157.582C46.5089 158.011 46.3923 158.534 46.3923 159.15C46.3923 159.775 46.5043 160.303 46.7283 160.732C46.9616 161.161 47.2696 161.483 47.6523 161.698C48.0349 161.903 48.4549 162.006 48.9123 162.006ZM63.7474 155.188C64.3447 155.188 64.8767 155.314 65.3434 155.566C65.81 155.809 66.1787 156.177 66.4494 156.672C66.72 157.167 66.8554 157.769 66.8554 158.478V163H65.5954V158.66C65.5954 157.895 65.404 157.311 65.0214 156.91C64.648 156.499 64.1394 156.294 63.4954 156.294C62.8327 156.294 62.3054 156.509 61.9134 156.938C61.5214 157.358 61.3254 157.969 61.3254 158.772V163H60.0654V158.66C60.0654 157.895 59.874 157.311 59.4914 156.91C59.118 156.499 58.6094 156.294 57.9654 156.294C57.3027 156.294 56.7754 156.509 56.3834 156.938C55.9914 157.358 55.7954 157.969 55.7954 158.772V163H54.5214V155.328H55.7954V156.434C56.0474 156.033 56.3834 155.725 56.8034 155.51C57.2327 155.295 57.704 155.188 58.2174 155.188C58.8614 155.188 59.4307 155.333 59.9254 155.622C60.42 155.911 60.7887 156.336 61.0314 156.896C61.246 156.355 61.6007 155.935 62.0954 155.636C62.59 155.337 63.1407 155.188 63.7474 155.188ZM72.2912 163.126C71.5725 163.126 70.9192 162.963 70.3312 162.636C69.7525 162.309 69.2952 161.847 68.9592 161.25C68.6325 160.643 68.4692 159.943 68.4692 159.15C68.4692 158.366 68.6372 157.675 68.9732 157.078C69.3185 156.471 69.7852 156.009 70.3732 155.692C70.9612 155.365 71.6192 155.202 72.3472 155.202C73.0752 155.202 73.7332 155.365 74.3212 155.692C74.9092 156.009 75.3712 156.467 75.7072 157.064C76.0525 157.661 76.2252 158.357 76.2252 159.15C76.2252 159.943 76.0479 160.643 75.6932 161.25C75.3479 161.847 74.8765 162.309 74.2792 162.636C73.6819 162.963 73.0192 163.126 72.2912 163.126ZM72.2912 162.006C72.7485 162.006 73.1779 161.899 73.5792 161.684C73.9805 161.469 74.3025 161.147 74.5452 160.718C74.7972 160.289 74.9232 159.766 74.9232 159.15C74.9232 158.534 74.8019 158.011 74.5592 157.582C74.3165 157.153 73.9992 156.835 73.6072 156.63C73.2152 156.415 72.7905 156.308 72.3332 156.308C71.8665 156.308 71.4372 156.415 71.0452 156.63C70.6625 156.835 70.3545 157.153 70.1212 157.582C69.8879 158.011 69.7712 158.534 69.7712 159.15C69.7712 159.775 69.8832 160.303 70.1072 160.732C70.3405 161.161 70.6485 161.483 71.0312 161.698C71.4139 161.903 71.8339 162.006 72.2912 162.006ZM79.4543 156.378V160.9C79.4543 161.273 79.5336 161.539 79.6923 161.698C79.8509 161.847 80.1263 161.922 80.5183 161.922H81.4563V163H80.3083C79.5989 163 79.0669 162.837 78.7123 162.51C78.3576 162.183 78.1803 161.647 78.1803 160.9V156.378H77.1863V155.328H78.1803V153.396H79.4543V155.328H81.4563V156.378H79.4543ZM83.6579 154.082C83.4152 154.082 83.2099 153.998 83.0419 153.83C82.8739 153.662 82.7899 153.457 82.7899 153.214C82.7899 152.971 82.8739 152.766 83.0419 152.598C83.2099 152.43 83.4152 152.346 83.6579 152.346C83.8912 152.346 84.0872 152.43 84.2459 152.598C84.4139 152.766 84.4979 152.971 84.4979 153.214C84.4979 153.457 84.4139 153.662 84.2459 153.83C84.0872 153.998 83.8912 154.082 83.6579 154.082ZM84.2739 155.328V163H82.9999V155.328H84.2739ZM89.3012 161.824L91.6812 155.328H93.0392L90.0292 163H88.5452L85.5352 155.328H86.9072L89.3012 161.824ZM101.293 158.87C101.293 159.113 101.279 159.369 101.251 159.64H95.1188C95.1655 160.396 95.4222 160.989 95.8888 161.418C96.3648 161.838 96.9388 162.048 97.6108 162.048C98.1615 162.048 98.6188 161.922 98.9828 161.67C99.3562 161.409 99.6175 161.063 99.7668 160.634H101.139C100.934 161.371 100.523 161.973 99.9068 162.44C99.2908 162.897 98.5255 163.126 97.6108 163.126C96.8828 163.126 96.2295 162.963 95.6508 162.636C95.0815 162.309 94.6335 161.847 94.3068 161.25C93.9802 160.643 93.8168 159.943 93.8168 159.15C93.8168 158.357 93.9755 157.661 94.2928 157.064C94.6102 156.467 95.0535 156.009 95.6228 155.692C96.2015 155.365 96.8642 155.202 97.6108 155.202C98.3388 155.202 98.9828 155.361 99.5428 155.678C100.103 155.995 100.532 156.434 100.831 156.994C101.139 157.545 101.293 158.17 101.293 158.87ZM99.9768 158.604C99.9768 158.119 99.8695 157.703 99.6548 157.358C99.4402 157.003 99.1462 156.737 98.7728 156.56C98.4088 156.373 98.0028 156.28 97.5548 156.28C96.9108 156.28 96.3602 156.485 95.9028 156.896C95.4548 157.307 95.1982 157.876 95.1328 158.604H99.9768ZM113.231 156.098C113.231 156.91 112.951 157.587 112.391 158.128C111.84 158.66 110.996 158.926 109.857 158.926H107.981V163H106.707V153.242H109.857C110.958 153.242 111.794 153.508 112.363 154.04C112.942 154.572 113.231 155.258 113.231 156.098ZM109.857 157.876C110.566 157.876 111.089 157.722 111.425 157.414C111.761 157.106 111.929 156.667 111.929 156.098C111.929 154.894 111.238 154.292 109.857 154.292H107.981V157.876H109.857ZM114.338 159.136C114.338 158.352 114.497 157.666 114.814 157.078C115.132 156.481 115.566 156.019 116.116 155.692C116.676 155.365 117.297 155.202 117.978 155.202C118.65 155.202 119.234 155.347 119.728 155.636C120.223 155.925 120.592 156.289 120.834 156.728V155.328H122.122V163H120.834V161.572C120.582 162.02 120.204 162.393 119.7 162.692C119.206 162.981 118.627 163.126 117.964 163.126C117.283 163.126 116.667 162.958 116.116 162.622C115.566 162.286 115.132 161.815 114.814 161.208C114.497 160.601 114.338 159.911 114.338 159.136ZM120.834 159.15C120.834 158.571 120.718 158.067 120.484 157.638C120.251 157.209 119.934 156.882 119.532 156.658C119.14 156.425 118.706 156.308 118.23 156.308C117.754 156.308 117.32 156.42 116.928 156.644C116.536 156.868 116.224 157.195 115.99 157.624C115.757 158.053 115.64 158.557 115.64 159.136C115.64 159.724 115.757 160.237 115.99 160.676C116.224 161.105 116.536 161.437 116.928 161.67C117.32 161.894 117.754 162.006 118.23 162.006C118.706 162.006 119.14 161.894 119.532 161.67C119.934 161.437 120.251 161.105 120.484 160.676C120.718 160.237 120.834 159.729 120.834 159.15ZM125.549 156.574C125.773 156.135 126.091 155.795 126.501 155.552C126.921 155.309 127.43 155.188 128.027 155.188V156.504H127.691C126.263 156.504 125.549 157.279 125.549 158.828V163H124.275V155.328H125.549V156.574ZM131.052 156.378V160.9C131.052 161.273 131.131 161.539 131.29 161.698C131.449 161.847 131.724 161.922 132.116 161.922H133.054V163H131.906C131.197 163 130.665 162.837 130.31 162.51C129.955 162.183 129.778 161.647 129.778 160.9V156.378H128.784V155.328H129.778V153.396H131.052V155.328H133.054V156.378H131.052ZM137.314 163.126C136.726 163.126 136.198 163.028 135.732 162.832C135.265 162.627 134.896 162.347 134.626 161.992C134.355 161.628 134.206 161.213 134.178 160.746H135.494C135.531 161.129 135.708 161.441 136.026 161.684C136.352 161.927 136.777 162.048 137.3 162.048C137.785 162.048 138.168 161.941 138.448 161.726C138.728 161.511 138.868 161.241 138.868 160.914C138.868 160.578 138.718 160.331 138.42 160.172C138.121 160.004 137.659 159.841 137.034 159.682C136.464 159.533 135.998 159.383 135.634 159.234C135.279 159.075 134.971 158.847 134.71 158.548C134.458 158.24 134.332 157.839 134.332 157.344C134.332 156.952 134.448 156.593 134.682 156.266C134.915 155.939 135.246 155.683 135.676 155.496C136.105 155.3 136.595 155.202 137.146 155.202C137.995 155.202 138.681 155.417 139.204 155.846C139.726 156.275 140.006 156.863 140.044 157.61H138.77C138.742 157.209 138.578 156.887 138.28 156.644C137.99 156.401 137.598 156.28 137.104 156.28C136.646 156.28 136.282 156.378 136.012 156.574C135.741 156.77 135.606 157.027 135.606 157.344C135.606 157.596 135.685 157.806 135.844 157.974C136.012 158.133 136.217 158.263 136.46 158.366C136.712 158.459 137.057 158.567 137.496 158.688C138.046 158.837 138.494 158.987 138.84 159.136C139.185 159.276 139.479 159.491 139.722 159.78C139.974 160.069 140.104 160.447 140.114 160.914C140.114 161.334 139.997 161.712 139.764 162.048C139.53 162.384 139.199 162.65 138.77 162.846C138.35 163.033 137.864 163.126 137.314 163.126ZM146.672 149.812L142.836 165.38H141.576L145.398 149.812H146.672ZM25.172 184.098C24.528 184.098 23.9493 183.986 23.436 183.762C22.932 183.529 22.5353 183.211 22.246 182.81C21.9567 182.399 21.8073 181.928 21.798 181.396H23.156C23.2027 181.853 23.3893 182.241 23.716 182.558C24.052 182.866 24.5373 183.02 25.172 183.02C25.7787 183.02 26.2547 182.871 26.6 182.572C26.9547 182.264 27.132 181.872 27.132 181.396C27.132 181.023 27.0293 180.719 26.824 180.486C26.6187 180.253 26.362 180.075 26.054 179.954C25.746 179.833 25.3307 179.702 24.808 179.562C24.164 179.394 23.646 179.226 23.254 179.058C22.8713 178.89 22.54 178.629 22.26 178.274C21.9893 177.91 21.854 177.425 21.854 176.818C21.854 176.286 21.9893 175.815 22.26 175.404C22.5307 174.993 22.9087 174.676 23.394 174.452C23.8887 174.228 24.4533 174.116 25.088 174.116C26.0027 174.116 26.7493 174.345 27.328 174.802C27.916 175.259 28.2473 175.866 28.322 176.622H26.922C26.8753 176.249 26.6793 175.922 26.334 175.642C25.9887 175.353 25.5313 175.208 24.962 175.208C24.43 175.208 23.996 175.348 23.66 175.628C23.324 175.899 23.156 176.281 23.156 176.776C23.156 177.131 23.254 177.42 23.45 177.644C23.6553 177.868 23.9027 178.041 24.192 178.162C24.4907 178.274 24.906 178.405 25.438 178.554C26.082 178.731 26.6 178.909 26.992 179.086C27.384 179.254 27.72 179.52 28 179.884C28.28 180.239 28.42 180.724 28.42 181.34C28.42 181.816 28.294 182.264 28.042 182.684C27.79 183.104 27.4167 183.445 26.922 183.706C26.4273 183.967 25.844 184.098 25.172 184.098ZM37.2948 179.87C37.2948 180.113 37.2808 180.369 37.2528 180.64H31.1208C31.1675 181.396 31.4241 181.989 31.8908 182.418C32.3668 182.838 32.9408 183.048 33.6128 183.048C34.1635 183.048 34.6208 182.922 34.9848 182.67C35.3581 182.409 35.6195 182.063 35.7688 181.634H37.1408C36.9355 182.371 36.5248 182.973 35.9088 183.44C35.2928 183.897 34.5275 184.126 33.6128 184.126C32.8848 184.126 32.2315 183.963 31.6528 183.636C31.0835 183.309 30.6355 182.847 30.3088 182.25C29.9821 181.643 29.8188 180.943 29.8188 180.15C29.8188 179.357 29.9775 178.661 30.2948 178.064C30.6121 177.467 31.0555 177.009 31.6248 176.692C32.2035 176.365 32.8661 176.202 33.6128 176.202C34.3408 176.202 34.9848 176.361 35.5448 176.678C36.1048 176.995 36.5341 177.434 36.8328 177.994C37.1408 178.545 37.2948 179.17 37.2948 179.87ZM35.9788 179.604C35.9788 179.119 35.8715 178.703 35.6568 178.358C35.4421 178.003 35.1481 177.737 34.7748 177.56C34.4108 177.373 34.0048 177.28 33.5568 177.28C32.9128 177.28 32.3621 177.485 31.9048 177.896C31.4568 178.307 31.2001 178.876 31.1348 179.604H35.9788ZM40.2504 177.574C40.4744 177.135 40.7918 176.795 41.2024 176.552C41.6224 176.309 42.1311 176.188 42.7284 176.188V177.504H42.3924C40.9644 177.504 40.2504 178.279 40.2504 179.828V184H38.9764V176.328H40.2504V177.574ZM47.0551 182.824L49.4351 176.328H50.7931L47.7831 184H46.2991L43.2891 176.328H44.6611L47.0551 182.824ZM52.7048 175.082C52.4621 175.082 52.2568 174.998 52.0888 174.83C51.9208 174.662 51.8368 174.457 51.8368 174.214C51.8368 173.971 51.9208 173.766 52.0888 173.598C52.2568 173.43 52.4621 173.346 52.7048 173.346C52.9381 173.346 53.1341 173.43 53.2928 173.598C53.4608 173.766 53.5448 173.971 53.5448 174.214C53.5448 174.457 53.4608 174.662 53.2928 174.83C53.1341 174.998 52.9381 175.082 52.7048 175.082ZM53.3208 176.328V184H52.0468V176.328H53.3208ZM55.0161 180.15C55.0161 179.357 55.1747 178.666 55.4921 178.078C55.8094 177.481 56.2481 177.019 56.8081 176.692C57.3774 176.365 58.0261 176.202 58.7541 176.202C59.6967 176.202 60.4714 176.431 61.0781 176.888C61.6941 177.345 62.1001 177.98 62.2961 178.792H60.9241C60.7934 178.325 60.5367 177.957 60.1541 177.686C59.7807 177.415 59.3141 177.28 58.7541 177.28C58.0261 177.28 57.4381 177.532 56.9901 178.036C56.5421 178.531 56.3181 179.235 56.3181 180.15C56.3181 181.074 56.5421 181.788 56.9901 182.292C57.4381 182.796 58.0261 183.048 58.7541 183.048C59.3141 183.048 59.7807 182.917 60.1541 182.656C60.5274 182.395 60.7841 182.021 60.9241 181.536H62.2961C62.0907 182.32 61.6801 182.95 61.0641 183.426C60.4481 183.893 59.6781 184.126 58.7541 184.126C58.0261 184.126 57.3774 183.963 56.8081 183.636C56.2481 183.309 55.8094 182.847 55.4921 182.25C55.1747 181.653 55.0161 180.953 55.0161 180.15ZM70.996 179.87C70.996 180.113 70.982 180.369 70.954 180.64H64.822C64.8686 181.396 65.1253 181.989 65.592 182.418C66.068 182.838 66.642 183.048 67.314 183.048C67.8646 183.048 68.322 182.922 68.686 182.67C69.0593 182.409 69.3206 182.063 69.47 181.634H70.842C70.6366 182.371 70.226 182.973 69.61 183.44C68.994 183.897 68.2286 184.126 67.314 184.126C66.586 184.126 65.9326 183.963 65.354 183.636C64.7846 183.309 64.3366 182.847 64.01 182.25C63.6833 181.643 63.52 180.943 63.52 180.15C63.52 179.357 63.6786 178.661 63.996 178.064C64.3133 177.467 64.7566 177.009 65.326 176.692C65.9046 176.365 66.5673 176.202 67.314 176.202C68.042 176.202 68.686 176.361 69.246 176.678C69.806 176.995 70.2353 177.434 70.534 177.994C70.842 178.545 70.996 179.17 70.996 179.87ZM69.68 179.604C69.68 179.119 69.5726 178.703 69.358 178.358C69.1433 178.003 68.8493 177.737 68.476 177.56C68.112 177.373 67.706 177.28 67.258 177.28C66.614 177.28 66.0633 177.485 65.606 177.896C65.158 178.307 64.9013 178.876 64.836 179.604H69.68ZM75.3936 184.126C74.8056 184.126 74.2783 184.028 73.8116 183.832C73.3449 183.627 72.9763 183.347 72.7056 182.992C72.4349 182.628 72.2856 182.213 72.2576 181.746H73.5736C73.6109 182.129 73.7883 182.441 74.1056 182.684C74.4323 182.927 74.8569 183.048 75.3796 183.048C75.8649 183.048 76.2476 182.941 76.5276 182.726C76.8076 182.511 76.9476 182.241 76.9476 181.914C76.9476 181.578 76.7983 181.331 76.4996 181.172C76.2009 181.004 75.7389 180.841 75.1136 180.682C74.5443 180.533 74.0776 180.383 73.7136 180.234C73.3589 180.075 73.0509 179.847 72.7896 179.548C72.5376 179.24 72.4116 178.839 72.4116 178.344C72.4116 177.952 72.5283 177.593 72.7616 177.266C72.9949 176.939 73.3263 176.683 73.7556 176.496C74.1849 176.3 74.6749 176.202 75.2256 176.202C76.0749 176.202 76.7609 176.417 77.2836 176.846C77.8063 177.275 78.0863 177.863 78.1236 178.61H76.8496C76.8216 178.209 76.6583 177.887 76.3596 177.644C76.0703 177.401 75.6783 177.28 75.1836 177.28C74.7263 177.28 74.3623 177.378 74.0916 177.574C73.8209 177.77 73.6856 178.027 73.6856 178.344C73.6856 178.596 73.7649 178.806 73.9236 178.974C74.0916 179.133 74.2969 179.263 74.5396 179.366C74.7916 179.459 75.1369 179.567 75.5756 179.688C76.1263 179.837 76.5743 179.987 76.9196 180.136C77.2649 180.276 77.5589 180.491 77.8016 180.78C78.0536 181.069 78.1843 181.447 78.1936 181.914C78.1936 182.334 78.0769 182.712 77.8436 183.048C77.6103 183.384 77.2789 183.65 76.8496 183.846C76.4296 184.033 75.9443 184.126 75.3936 184.126ZM85.3121 178.33V179.408H79.7261V178.33H85.3121ZM91.0714 182.978C92.2568 182.026 93.1854 181.247 93.8574 180.64C94.5294 180.024 95.0941 179.385 95.5514 178.722C96.0181 178.05 96.2514 177.392 96.2514 176.748C96.2514 176.141 96.1021 175.665 95.8034 175.32C95.5141 174.965 95.0428 174.788 94.3894 174.788C93.7548 174.788 93.2601 174.989 92.9054 175.39C92.5601 175.782 92.3734 176.309 92.3454 176.972H91.1134C91.1508 175.927 91.4681 175.119 92.0654 174.55C92.6628 173.981 93.4328 173.696 94.3754 173.696C95.3368 173.696 96.0974 173.962 96.6574 174.494C97.2268 175.026 97.5114 175.759 97.5114 176.692C97.5114 177.467 97.2781 178.223 96.8114 178.96C96.3541 179.688 95.8314 180.332 95.2434 180.892C94.6554 181.443 93.9041 182.087 92.9894 182.824H97.8054V183.888H91.0714V182.978ZM115.485 174.242L112.657 184H111.229L108.961 176.146L106.609 184L105.195 184.014L102.465 174.242H103.823L105.951 182.516L108.303 174.242H109.731L111.971 182.488L114.113 174.242H115.485ZM120.687 176.188C121.265 176.188 121.788 176.314 122.255 176.566C122.721 176.809 123.085 177.177 123.347 177.672C123.617 178.167 123.753 178.769 123.753 179.478V184H122.493V179.66C122.493 178.895 122.301 178.311 121.919 177.91C121.536 177.499 121.013 177.294 120.351 177.294C119.679 177.294 119.142 177.504 118.741 177.924C118.349 178.344 118.153 178.955 118.153 179.758V184H116.879V173.64H118.153V177.42C118.405 177.028 118.75 176.725 119.189 176.51C119.637 176.295 120.136 176.188 120.687 176.188ZM132.834 179.87C132.834 180.113 132.82 180.369 132.792 180.64H126.66C126.707 181.396 126.963 181.989 127.43 182.418C127.906 182.838 128.48 183.048 129.152 183.048C129.703 183.048 130.16 182.922 130.524 182.67C130.897 182.409 131.159 182.063 131.308 181.634H132.68C132.475 182.371 132.064 182.973 131.448 183.44C130.832 183.897 130.067 184.126 129.152 184.126C128.424 184.126 127.771 183.963 127.192 183.636C126.623 183.309 126.175 182.847 125.848 182.25C125.521 181.643 125.358 180.943 125.358 180.15C125.358 179.357 125.517 178.661 125.834 178.064C126.151 177.467 126.595 177.009 127.164 176.692C127.743 176.365 128.405 176.202 129.152 176.202C129.88 176.202 130.524 176.361 131.084 176.678C131.644 176.995 132.073 177.434 132.372 177.994C132.68 178.545 132.834 179.17 132.834 179.87ZM131.518 179.604C131.518 179.119 131.411 178.703 131.196 178.358C130.981 178.003 130.687 177.737 130.314 177.56C129.95 177.373 129.544 177.28 129.096 177.28C128.452 177.28 127.901 177.485 127.444 177.896C126.996 178.307 126.739 178.876 126.674 179.604H131.518ZM141.516 179.87C141.516 180.113 141.502 180.369 141.474 180.64H135.342C135.388 181.396 135.645 181.989 136.112 182.418C136.588 182.838 137.162 183.048 137.834 183.048C138.384 183.048 138.842 182.922 139.206 182.67C139.579 182.409 139.84 182.063 139.99 181.634H141.362C141.156 182.371 140.746 182.973 140.13 183.44C139.514 183.897 138.748 184.126 137.834 184.126C137.106 184.126 136.452 183.963 135.874 183.636C135.304 183.309 134.856 182.847 134.53 182.25C134.203 181.643 134.04 180.943 134.04 180.15C134.04 179.357 134.198 178.661 134.516 178.064C134.833 177.467 135.276 177.009 135.846 176.692C136.424 176.365 137.087 176.202 137.834 176.202C138.562 176.202 139.206 176.361 139.766 176.678C140.326 176.995 140.755 177.434 141.054 177.994C141.362 178.545 141.516 179.17 141.516 179.87ZM140.2 179.604C140.2 179.119 140.092 178.703 139.878 178.358C139.663 178.003 139.369 177.737 138.996 177.56C138.632 177.373 138.226 177.28 137.778 177.28C137.134 177.28 136.583 177.485 136.126 177.896C135.678 178.307 135.421 178.876 135.356 179.604H140.2ZM144.471 173.64V184H143.197V173.64H144.471Z" fill="white"/>
<path d="M41.2715 14.2227C41.5254 14.6621 41.7549 15.082 41.96 15.4824C42.165 15.8828 42.3506 16.2881 42.5166 16.6982C42.6826 17.1084 42.7998 17.5332 42.8682 17.9727C42.9365 18.4121 42.9805 18.9004 43 19.4375C43 20.209 42.9023 20.9512 42.707 21.6641C42.5117 22.377 42.2285 23.0508 41.8574 23.6855C41.4863 24.3203 41.042 24.8916 40.5244 25.3994C40.0068 25.9072 39.4355 26.3467 38.8105 26.7178C38.1855 27.0889 37.5166 27.3721 36.8037 27.5674C36.0908 27.7627 35.3438 27.8652 34.5625 27.875C34.3379 27.875 34.1133 27.8652 33.8887 27.8457C33.6641 27.8262 33.4346 27.7969 33.2002 27.7578L21.3936 39.5645C20.9248 40.0332 20.3926 40.3896 19.7969 40.6338C19.2012 40.8779 18.5713 41 17.9072 41C17.2334 41 16.5986 40.873 16.0029 40.6191C15.4072 40.3652 14.8896 40.0137 14.4502 39.5645C14.0107 39.1152 13.6592 38.5928 13.3955 37.9971C13.1318 37.4014 13 36.7666 13 36.0928C13 35.4385 13.1221 34.8135 13.3662 34.2178C13.6104 33.6221 13.9668 33.085 14.4355 32.6064L26.2422 20.7998C26.2031 20.5752 26.1738 20.3506 26.1543 20.126C26.1348 19.9014 26.125 19.6719 26.125 19.4375C26.125 18.666 26.2227 17.9238 26.418 17.2109C26.6133 16.498 26.8965 15.8242 27.2676 15.1895C27.6387 14.5547 28.083 13.9834 28.6006 13.4756C29.1182 12.9678 29.6895 12.5283 30.3145 12.1572C30.9395 11.7861 31.6084 11.5029 32.3213 11.3076C33.0342 11.1123 33.7812 11.0098 34.5625 11C35.0898 11 35.5732 11.0391 36.0127 11.1172C36.4521 11.1953 36.8818 11.3174 37.3018 11.4834C37.7217 11.6494 38.127 11.8301 38.5176 12.0254C38.9082 12.2207 39.3281 12.4551 39.7773 12.7285L34.0059 18.5L35.5 19.9941L41.2715 14.2227ZM34.5625 26C35.4707 26 36.3203 25.8291 37.1113 25.4873C37.9023 25.1455 38.5957 24.6768 39.1914 24.0811C39.7871 23.4854 40.2559 22.792 40.5977 22.001C40.9395 21.21 41.1152 20.3555 41.125 19.4375C41.125 18.7246 41.0078 18.0361 40.7734 17.3721L35.5 22.6309L31.3691 18.5L36.6279 13.2266C35.9639 12.9922 35.2754 12.875 34.5625 12.875C33.6543 12.875 32.8047 13.0459 32.0137 13.3877C31.2227 13.7295 30.5293 14.1982 29.9336 14.7939C29.3379 15.3896 28.8691 16.083 28.5273 16.874C28.1855 17.665 28.0098 18.5195 28 19.4375C28 19.7793 28.0293 20.1113 28.0879 20.4336C28.1465 20.7559 28.2148 21.0781 28.293 21.4004L15.7686 33.9395C15.4854 34.2227 15.2656 34.5498 15.1094 34.9209C14.9531 35.292 14.875 35.6826 14.875 36.0928C14.875 36.5029 14.9531 36.8936 15.1094 37.2646C15.2656 37.6357 15.4854 37.958 15.7686 38.2314C16.0518 38.5049 16.374 38.7197 16.7354 38.876C17.0967 39.0322 17.4873 39.1152 17.9072 39.125C18.3174 39.125 18.708 39.0469 19.0791 38.8906C19.4502 38.7344 19.7773 38.5146 20.0605 38.2314L32.5996 25.707C32.9219 25.7852 33.2441 25.8535 33.5664 25.9121C33.8887 25.9707 34.2207 26 34.5625 26Z" fill="#D3203A"/>
</g>
<defs>
<clipPath id="clip0_3534_193">
<rect width="167" height="199" rx="17.72" fill="white"/>
</clipPath>
</defs>
</svg>
