<svg width="167" height="199" viewBox="0 0 167 199" fill="none" xmlns="http://www.w3.org/2000/svg">
<g clip-path="url(#clip0_3298_215)">
<rect width="167" height="199" rx="17.72" fill="white"/>
<rect x="0.444471" y="0.553846" width="165.046" height="201.6" rx="17.1692" fill="#FFF4EC" stroke="#A06841" stroke-width="1.10769"/>
<path d="M64.1855 132.859L127.388 148.038L118.048 186.932L54.8447 171.753L64.1855 132.859Z" fill="#FFFF00"/>
<path d="M76.4355 146.086L110.468 154.259L108.716 161.552L74.6841 153.378L76.4355 146.086ZM71.7651 165.533L105.797 173.706L104.046 180.999L70.0137 172.825L71.7651 165.533Z" fill="#FCEA2B"/>
<path d="M73.5166 158.24L107.549 166.413L105.798 173.706L71.7652 165.533L73.5166 158.24Z" fill="#FFF591"/>
<path d="M110.563 164.566L120.287 166.902L119.119 171.763L109.396 169.428L110.563 164.566Z" fill="#FCEA2B"/>
<path d="M111.731 159.704L121.454 162.04L120.287 166.901L110.563 164.566L111.731 159.704Z" fill="#FFF591"/>
<path d="M113.482 152.412L123.206 154.747L122.038 159.609L112.315 157.274L113.482 152.412Z" fill="#FCEA2B"/>
<path d="M114.65 147.55L124.374 149.885L123.206 154.747L113.483 152.412L114.65 147.55Z" fill="#FFF591"/>
<path d="M107.645 176.72L117.368 179.056L116.2 183.917L106.477 181.582L107.645 176.72Z" fill="#FCEA2B"/>
<path d="M108.812 171.859L118.536 174.194L117.368 179.056L107.644 176.721L108.812 171.859Z" fill="#FFF591"/>
<path d="M61.9458 152.89L71.6693 155.225L70.5017 160.087L60.7782 157.752L61.9458 152.89Z" fill="#FCEA2B"/>
<path d="M63.1133 148.028L72.8368 150.364L71.6692 155.225L61.9457 152.89L63.1133 148.028Z" fill="#FFF591"/>
<path d="M64.8647 140.736L74.5883 143.071L73.4207 147.933L63.6971 145.598L64.8647 140.736Z" fill="#FCEA2B"/>
<path d="M66.0322 135.874L75.7557 138.209L74.5881 143.071L64.8646 140.736L66.0322 135.874Z" fill="#FFF591"/>
<path d="M59.0269 165.044L68.7504 167.38L67.5828 172.241L57.8593 169.906L59.0269 165.044Z" fill="#FCEA2B"/>
<path d="M60.1943 160.183L69.9179 162.518L68.7502 167.38L59.0267 165.045L60.1943 160.183Z" fill="#FFF591"/>
<path d="M89.873 25.9006L153.076 41.0795L143.735 79.9736L80.5322 64.7947L89.873 25.9006Z" fill="#FFFF00"/>
<path d="M102.123 39.127L136.155 47.3002L134.403 54.5928L100.371 46.4196L102.123 39.127Z" fill="#FCEA2B"/>
<path d="M103.874 31.8345L137.906 40.0077L136.155 47.3003L102.123 39.1271L103.874 31.8345ZM99.2036 51.2815L133.236 59.4547L131.485 66.7474L97.4522 58.5741L99.2036 51.2815Z" fill="#FFF591"/>
<path d="M136.251 57.6074L145.974 59.9426L144.807 64.8044L135.083 62.4692L136.251 57.6074Z" fill="#FCEA2B"/>
<path d="M137.418 52.7458L147.142 55.0811L145.974 59.9428L136.251 57.6076L137.418 52.7458Z" fill="#FFF591"/>
<path d="M139.17 45.4531L148.893 47.7883L147.726 52.6501L138.002 50.3149L139.17 45.4531Z" fill="#FCEA2B"/>
<path d="M140.337 40.5916L150.061 42.9268L148.893 47.7885L139.17 45.4533L140.337 40.5916Z" fill="#FFF591"/>
<path d="M133.332 69.762L143.056 72.0972L141.888 76.9589L132.164 74.6237L133.332 69.762Z" fill="#FCEA2B"/>
<path d="M134.5 64.9001L144.223 67.2354L143.055 72.0971L133.332 69.7619L134.5 64.9001Z" fill="#FFF591"/>
<path d="M87.6328 45.9314L97.3563 48.2666L96.1887 53.1284L86.4652 50.7932L87.6328 45.9314Z" fill="#FCEA2B"/>
<path d="M88.8008 41.0698L98.5243 43.405L97.3567 48.2668L87.6332 45.9316L88.8008 41.0698Z" fill="#FFF591"/>
<path d="M90.5522 33.7769L100.276 36.1121L99.1082 40.9738L89.3846 38.6386L90.5522 33.7769Z" fill="#FCEA2B"/>
<path d="M91.7197 28.9153L101.443 31.2505L100.276 36.1123L90.5521 33.777L91.7197 28.9153Z" fill="#FFF591"/>
<path d="M84.7139 58.0859L94.4374 60.4211L93.2698 65.2829L83.5463 62.9477L84.7139 58.0859Z" fill="#FCEA2B"/>
<path d="M85.8818 53.2239L95.6054 55.5591L94.4377 60.4208L84.7142 58.0856L85.8818 53.2239Z" fill="#FFF591"/>
<path d="M157.343 108.953L150.051 107.201L145.38 126.648L152.673 128.4C154.132 128.75 155.337 128.011 155.688 126.553L159.19 111.968C159.482 110.752 158.559 109.245 157.343 108.953Z" fill="#FFFF00"/>
<path d="M146.423 111.386L155.886 113.659L155.314 116.039L145.852 113.766L146.423 111.386ZM145.28 116.147L154.742 118.419L154.171 120.8L144.708 118.527L145.28 116.147ZM144.137 120.908L153.599 123.18L153.027 125.561L143.565 123.288L144.137 120.908Z" fill="#FCEA2B"/>
<path d="M90.9793 154.721C117.109 160.996 143.411 144.768 149.726 118.473C156.041 92.1793 139.977 65.7765 113.847 59.5011C87.7172 53.2257 61.4155 69.454 55.1007 95.7482C48.7858 122.042 64.8492 148.445 90.9793 154.721Z" fill="#FCEA2B"/>
<path d="M93.977 147.984C116.934 153.498 140.015 139.357 145.528 116.399C151.042 93.4419 136.9 70.3617 113.943 64.8483C90.9856 59.3348 67.9054 73.4759 62.392 96.4333C56.8785 119.391 71.0196 142.471 93.977 147.984Z" fill="#FDD835"/>
<path d="M102.851 111.035C105.402 111.647 107.966 110.076 108.579 107.525C109.191 104.974 107.62 102.41 105.069 101.797C102.519 101.185 99.9541 102.756 99.3415 105.307C98.7289 107.857 100.3 110.422 102.851 111.035Z" fill="#FFFF00"/>
<path d="M110.886 88.2821L110.721 83.6146L112.414 76.5651C114.516 67.8139 112.085 67.2301 109.983 75.9813L108.29 83.0308L106.024 87.1145L102.638 101.214C101.762 104.86 106.381 105.969 107.257 102.323L110.886 88.2821Z" fill="#FFFF00"/>
<path d="M100.436 106.513L103.705 103.069L120.928 119.423L117.658 122.867L100.436 106.513Z" fill="#FFFF00"/>
<path d="M103.376 108.847C104.719 109.17 106.068 108.343 106.391 107C106.713 105.658 105.886 104.308 104.544 103.985C103.201 103.663 101.851 104.49 101.529 105.832C101.207 107.175 102.034 108.525 103.376 108.847Z" fill="#FCEA2B"/>
<path d="M113.359 67.2791C114.702 67.6015 116.051 66.7745 116.374 65.432C116.696 64.0894 115.869 62.7397 114.527 62.4173C113.184 62.0949 111.834 62.9218 111.512 64.2644C111.189 65.6069 112.016 66.9566 113.359 67.2791Z" fill="#FFF591"/>
<path d="M91.1104 67.8496C92.453 68.172 93.8027 67.3451 94.1251 66.0025C94.4475 64.66 93.6206 63.3103 92.278 62.9879C90.9355 62.6654 89.5858 63.4924 89.2634 64.8349C88.9409 66.1775 89.7679 67.5272 91.1104 67.8496Z" fill="#FFF591"/>
<path d="M72.419 79.3013C73.7616 79.6237 75.1113 78.7967 75.4337 77.4542C75.7561 76.1117 74.9292 74.7619 73.5866 74.4395C72.2441 74.1171 70.8944 74.9441 70.572 76.2866C70.2495 77.6291 71.0765 78.9788 72.419 79.3013Z" fill="#FFF591"/>
<path d="M61.8082 98.8643C63.1507 99.1867 64.5005 98.3597 64.8229 97.0172C65.1453 95.6746 64.3183 94.3249 62.9758 94.0025C61.6333 93.6801 60.2835 94.507 59.9611 95.8496C59.6387 97.1921 60.4657 98.5418 61.8082 98.8643Z" fill="#FFF591"/>
<path d="M62.3775 121.112C63.7201 121.434 65.0698 120.608 65.3922 119.265C65.7146 117.922 64.8877 116.573 63.5451 116.25C62.2026 115.928 60.8529 116.755 60.5305 118.097C60.208 119.44 61.035 120.79 62.3775 121.112Z" fill="#FFF591"/>
<path d="M72.7028 135.933C73.7239 134.893 74.9978 134.942 76.0381 135.963C77.0784 136.984 77.0295 138.258 76.2515 139.357C75.2303 140.397 73.9565 140.348 72.9162 139.327C71.8759 138.306 71.74 136.73 72.7028 135.933ZM91.5459 147.401C91.8378 146.185 93.102 145.203 94.5606 145.553C96.0191 145.904 96.7579 147.11 96.4077 148.568C96.1158 149.784 94.8515 150.765 93.393 150.415C92.1775 150.123 91.1956 148.859 91.5459 147.401Z" fill="#FFF591"/>
<path d="M115.642 149.845C116.984 150.167 118.334 149.34 118.656 147.998C118.979 146.655 118.152 145.305 116.809 144.983C115.467 144.661 114.117 145.488 113.795 146.83C113.472 148.173 114.299 149.522 115.642 149.845Z" fill="#FFF591"/>
<path d="M133.477 137.673C132.437 136.652 132.486 135.378 133.507 134.338C134.528 133.298 135.802 133.347 136.842 134.368C137.882 135.389 137.834 136.663 136.812 137.703C135.85 138.5 134.274 138.636 133.477 137.673ZM144.944 118.83C143.729 118.538 142.747 117.274 143.097 115.816C143.448 114.357 144.653 113.618 146.112 113.969C147.327 114.26 148.309 115.525 147.959 116.983C147.667 118.199 146.403 119.181 144.944 118.83Z" fill="#FFF591"/>
<path d="M144.374 96.582C145.716 96.9045 147.066 96.0775 147.388 94.735C147.711 93.3924 146.884 92.0427 145.541 91.7203C144.199 91.3979 142.849 92.2248 142.527 93.5674C142.204 94.9099 143.031 96.2596 144.374 96.582Z" fill="#FFF591"/>
<path d="M132.922 77.8911C134.265 78.2135 135.615 77.3866 135.937 76.044C136.26 74.7015 135.433 73.3518 134.09 73.0294C132.748 72.7069 131.398 73.5339 131.075 74.8764C130.753 76.219 131.58 77.5687 132.922 77.8911Z" fill="#FFF591"/>
<path d="M93.9692 94.2157C93.9692 93.3628 94.308 92.5449 94.9111 91.9418C95.5141 91.3388 96.3321 91 97.1849 91H135.773C136.626 91 137.444 91.3388 138.047 91.9418C138.65 92.5449 138.989 93.3628 138.989 94.2157V107.889C132.433 103.169 124.557 100.635 116.479 100.647C108.08 100.647 100.304 103.332 93.9692 107.889V94.2157ZM116.479 171.392C124.878 171.392 132.654 168.707 138.989 164.15V177.823C138.989 178.676 138.65 179.494 138.047 180.097C137.444 180.7 136.626 181.039 135.773 181.039H97.1849C96.3321 181.039 95.5141 180.7 94.9111 180.097C94.308 179.494 93.9692 178.676 93.9692 177.823V164.15C100.525 168.87 108.401 171.404 116.479 171.392ZM151.851 129.588C150.999 129.588 150.181 129.927 149.578 130.53C148.975 131.133 148.636 131.951 148.636 132.804V139.235C148.636 140.088 148.975 140.906 149.578 141.509C150.181 142.112 150.999 142.451 151.851 142.451H156.675C157.528 142.451 158.346 142.112 158.949 141.509C159.552 140.906 159.891 140.088 159.891 139.235V132.804C159.891 131.951 159.552 131.133 158.949 130.53C158.346 129.927 157.528 129.588 156.675 129.588H151.851Z" fill="#3F5FFF"/>
<path d="M155.067 136.019C155.067 157.33 137.789 174.608 116.479 174.608C95.1684 174.608 77.8906 157.33 77.8906 136.019C77.8906 114.709 95.1684 97.4314 116.479 97.4314C137.789 97.4314 155.067 114.709 155.067 136.019Z" fill="#A4AEEB"/>
<path d="M145.42 136.019C145.42 143.695 142.371 151.056 136.943 156.484C131.516 161.911 124.154 164.961 116.479 164.961C108.803 164.961 101.442 161.911 96.0142 156.484C90.5867 151.056 87.5376 143.695 87.5376 136.019C87.5376 128.344 90.5867 120.983 96.0142 115.555C101.442 110.128 108.803 107.078 116.479 107.078C124.154 107.078 131.516 110.128 136.943 115.555C142.371 120.983 145.42 128.344 145.42 136.019Z" fill="#5235A6"/>
<path d="M116.478 110.294C115.625 110.294 114.807 110.633 114.204 111.236C113.601 111.839 113.262 112.657 113.262 113.51V132.804C113.262 133.479 113.471 134.109 113.832 134.63L103.326 146.338C103.044 146.653 102.826 147.02 102.686 147.419C102.546 147.817 102.486 148.24 102.509 148.662C102.532 149.084 102.638 149.497 102.82 149.878C103.003 150.259 103.259 150.6 103.574 150.882C103.888 151.164 104.255 151.382 104.654 151.522C105.052 151.662 105.475 151.722 105.897 151.699C106.319 151.676 106.732 151.571 107.113 151.388C107.494 151.205 107.835 150.949 108.117 150.635L118.851 138.666C119.335 138.126 119.622 137.438 119.666 136.714C119.71 135.99 119.508 135.273 119.092 134.678C119.484 134.132 119.694 133.476 119.694 132.804V113.51C119.694 112.657 119.355 111.839 118.752 111.236C118.149 110.633 117.331 110.294 116.478 110.294Z" fill="white"/>
<path d="M122.91 136.019C122.91 137.725 122.232 139.361 121.026 140.567C119.82 141.773 118.184 142.451 116.479 142.451C114.773 142.451 113.137 141.773 111.931 140.567C110.725 139.361 110.047 137.725 110.047 136.019C110.047 134.314 110.725 132.678 111.931 131.472C113.137 130.266 114.773 129.588 116.479 129.588C118.184 129.588 119.82 130.266 121.026 131.472C122.232 132.678 122.91 134.314 122.91 136.019Z" fill="#FCD53F"/>
<path d="M121.907 96.5677L129.1 95.0685C129.873 94.9075 130.508 94.3719 130.755 93.6209C131.166 92.4087 131.515 90.2135 130.783 86.7021C130.018 83.0315 128.704 80.934 127.791 79.8554C127.272 79.2404 126.434 78.9762 125.65 79.1397L118.57 80.6152C117.354 80.8686 116.583 82.0609 116.834 83.2655L119.243 94.8226C119.498 96.0499 120.691 96.8211 121.907 96.5677Z" fill="#B0BEC5"/>
<path d="M121.907 96.5677L129.1 95.0685C129.873 94.9075 130.508 94.3719 130.755 93.6209C131.166 92.4087 131.515 90.2135 130.783 86.7021C130.018 83.0315 128.704 80.934 127.791 79.8554C127.272 79.2404 126.434 78.9762 125.65 79.1397L118.57 80.6152C117.354 80.8686 116.583 82.0609 116.834 83.2655L119.243 94.8226C119.498 96.0499 120.691 96.8211 121.907 96.5677Z" fill="#90A4AE"/>
<path d="M116.816 97.6287L121.35 96.6837C121.839 96.5819 122.201 96.1031 122.312 95.3806C122.484 94.2181 122.549 92.0821 121.817 88.5707C121.052 84.9001 120.044 82.7387 119.382 81.608C118.999 80.9645 118.445 80.6412 117.945 80.7454L113.479 81.6761C112.718 81.8348 112.299 82.9537 112.55 84.1583L114.959 95.7154C115.237 96.938 116.054 97.7874 116.816 97.6287Z" fill="#607D8B"/>
<path d="M95.6987 50.1293C92.6905 43.5469 87.0699 41.8962 83.7743 42.5831L27.7275 54.264C24.432 54.9508 19.9387 58.7094 19.8105 65.9455C19.6959 72.0523 20.2888 78.9365 20.2888 78.9365L60.0827 69.2081L100.461 62.2275C100.45 62.2298 98.2319 55.6843 95.6987 50.1293Z" fill="#78909C"/>
<path d="M81.8426 27.7962L23.3525 39.9863L22.8141 58.1694C22.4868 62.7435 26.6345 66.373 31.1233 65.4375L85.0223 54.2042C89.5451 53.2616 91.8905 48.2432 89.7016 44.1699L81.8426 27.7962Z" fill="#A06841"/>
<path d="M38.1476 153.984C41.1558 160.566 46.7764 162.217 50.072 161.53L106.13 149.847C109.426 149.16 113.919 145.401 114.047 138.165C114.162 132.059 113.569 125.174 113.569 125.174L73.7749 134.903L33.3965 141.883C33.3965 141.883 35.6144 148.429 38.1476 153.984Z" fill="#78909C"/>
<path d="M52.0011 176.306L110.491 164.116L111.03 145.933C111.357 141.359 107.209 137.729 102.72 138.665L48.8214 149.898C44.2986 150.84 41.9532 155.859 44.1421 159.932L52.0011 176.306Z" fill="#A06841"/>
<path d="M102.723 138.676L48.8238 149.909C44.301 150.852 41.9556 155.87 44.1445 159.943L46.8235 165.515C49.4215 157.385 69.6418 161.839 80.3982 158.376C93.7227 154.093 98.9412 148.523 104.76 150.5C106.648 151.138 108.511 152.339 110.48 152C110.616 151.971 110.725 151.925 110.859 151.885L111.032 145.944C111.357 141.358 107.212 137.74 102.723 138.676ZM31.2148 65.4184L85.1138 54.1851C89.6367 53.2425 91.982 48.2241 89.7932 44.1508L87.1141 38.5788C84.5162 46.709 64.2958 42.2554 53.5395 45.7185C40.2149 50.0014 34.9964 55.5711 29.1774 53.5942C27.2895 52.9561 25.4266 51.7554 23.4578 52.0946C23.3214 52.123 23.2125 52.1694 23.0785 52.2092L22.9057 58.1503C22.5694 62.7381 26.7147 66.3563 31.2148 65.4184Z" fill="#784D30"/>
<path d="M78.1182 155.744C107.785 149.561 126.823 120.499 120.64 90.8318C114.457 61.1646 85.3947 42.1269 55.7275 48.31C26.0603 54.493 7.0226 83.5554 13.2056 113.223C19.3887 142.89 48.451 161.927 78.1182 155.744Z" fill="#B0BEC5"/>
<path d="M76.1657 145.065C99.9647 140.105 115.237 116.791 110.277 92.9919C105.317 69.1929 82.0028 53.9208 58.2038 58.8809C34.4047 63.8409 19.1327 87.1547 24.0928 110.954C29.0528 134.753 52.3666 150.025 76.1657 145.065Z" fill="#FFF3E0"/>
<path opacity="0.64" d="M45.5195 60.7768C40.1151 63.6344 32.6024 67.8681 26.1343 79.959C19.7424 91.9036 20.4579 104.098 21.6129 112.371C21.6129 112.371 17.985 119.542 17.5072 118.444C13.798 109.921 13.3873 89.2321 20.9785 76.67C29.812 62.0465 43.7259 54.6171 48.8964 52.6858C49.7974 52.3439 47.163 59.9007 45.5195 60.7768Z" fill="#ECEFF1"/>
<path d="M75.4299 142.846C97.9737 138.148 112.44 116.064 107.742 93.52C103.043 70.9762 80.9592 56.5096 58.4154 61.2081C35.8716 65.9065 21.405 87.9907 26.1035 110.534C30.8019 133.078 52.8861 147.545 75.4299 142.846Z" fill="white"/>
<path d="M68.1629 106.5C70.6671 105.978 72.2741 103.525 71.7522 101.021C71.2303 98.5165 68.7771 96.9096 66.273 97.4315C63.7688 97.9534 62.1619 100.406 62.6838 102.911C63.2057 105.415 65.6588 107.022 68.1629 106.5Z" fill="#563428"/>
<path d="M60.5206 71.3105C59.6911 71.4834 58.8809 70.9526 58.708 70.1231L57.7725 65.6343C57.5996 64.8047 58.1303 63.9945 58.9599 63.8216C59.7894 63.6488 60.5996 64.1795 60.7725 65.0091L61.708 69.4978C61.8696 70.3297 61.3388 71.1399 60.5206 71.3105ZM74.8826 140.221C74.053 140.394 73.2428 139.863 73.0699 139.034L72.1344 134.545C71.9615 133.715 72.4922 132.905 73.3218 132.732C74.1514 132.56 74.9616 133.09 75.1345 133.92L76.07 138.409C76.2315 139.24 75.7008 140.051 74.8826 140.221ZM103.929 95.8796L99.4403 96.8151C98.6108 96.988 97.8006 96.4573 97.6277 95.6277C97.4548 94.7982 97.9855 93.988 98.8151 93.8151L103.304 92.8795C104.133 92.7066 104.944 93.2374 105.116 94.0669C105.289 94.8965 104.759 95.7067 103.929 95.8796ZM35.0183 110.242L30.5296 111.177C29.7 111.35 28.8898 110.819 28.7169 109.99C28.544 109.16 29.0748 108.35 29.9043 108.177L34.3931 107.241C35.2226 107.069 36.0329 107.599 36.2057 108.429C36.3786 109.258 35.8479 110.069 35.0183 110.242Z" fill="#B2947C"/>
<path d="M60.5211 71.3101C59.6915 71.483 58.8813 70.9523 58.7084 70.1227L57.7729 65.634C57.6 64.8044 58.1308 63.9942 58.9603 63.8213C59.7899 63.6484 60.6001 64.1792 60.773 65.0087L61.7085 69.4975C61.87 70.3294 61.3393 71.1396 60.5211 71.3101ZM74.883 140.221C74.0535 140.394 73.2433 139.863 73.0704 139.033L72.1349 134.545C71.962 133.715 72.4927 132.905 73.3223 132.732C74.1518 132.559 74.962 133.09 75.1349 133.919L76.0704 138.408C76.232 139.24 75.7012 140.05 74.883 140.221ZM43.8553 78.5068L40.8066 75.0869C40.5369 74.7844 40.398 74.3874 40.4203 73.9827C40.4426 73.578 40.6244 73.1987 40.9257 72.9277C41.2282 72.658 41.6253 72.5191 42.0299 72.5414C42.4346 72.5637 42.814 72.7455 43.0849 73.0469L46.1336 76.4667C46.6919 77.0974 46.6451 78.0676 46.0145 78.6259C45.3862 79.1956 44.4249 79.1351 43.8553 78.5068ZM90.7494 131.009L87.7008 127.589C87.431 127.287 87.2921 126.89 87.3145 126.485C87.3368 126.08 87.5185 125.701 87.8199 125.43C88.1224 125.16 88.5194 125.021 88.9241 125.044C89.3288 125.066 89.7081 125.248 89.9791 125.549L93.0278 128.969C93.5861 129.6 93.5393 130.57 92.9086 131.128C92.278 131.687 91.3191 131.637 90.7494 131.009Z" fill="#B2947C"/>
<path d="M43.8555 78.5071L40.8068 75.0872C40.5371 74.7847 40.3982 74.3877 40.4205 73.983C40.4429 73.5783 40.6246 73.199 40.926 72.928C41.2285 72.6583 41.6255 72.5194 42.0302 72.5417C42.4349 72.564 42.8142 72.7458 43.0852 73.0472L46.1339 76.4671C46.6922 77.0977 46.6454 78.0679 46.0147 78.6262C45.3864 79.1959 44.4252 79.1354 43.8555 78.5071ZM90.7497 131.009L87.701 127.589C87.4313 127.287 87.2924 126.89 87.3147 126.485C87.337 126.081 87.5188 125.701 87.8202 125.43C88.1227 125.161 88.5197 125.022 88.9244 125.044C89.329 125.066 89.7084 125.248 89.9793 125.549L93.028 128.969C93.5863 129.6 93.5395 130.57 92.9089 131.129C92.2782 131.687 91.3194 131.638 90.7497 131.009ZM35.1887 93.1906L30.8356 91.7619C30.0345 91.502 29.5926 90.6337 29.8639 89.8301C30.1238 89.0289 30.9921 88.5871 31.7957 88.8583L36.1487 90.287C36.9499 90.5469 37.3918 91.4153 37.1205 92.2189C36.8469 93.011 35.9899 93.4505 35.1887 93.1906ZM102.053 115.207L97.6999 113.779C96.8987 113.519 96.4568 112.65 96.7281 111.847C96.988 111.045 97.8564 110.604 98.6599 110.875L103.013 112.304C103.814 112.564 104.256 113.432 103.985 114.235C103.713 115.039 102.854 115.467 102.053 115.207ZM76.7314 72.2245C75.9302 71.9646 75.4883 71.0962 75.7596 70.2927L77.1883 65.9396C77.4482 65.1384 78.3165 64.6966 79.1201 64.9678C79.9213 65.2277 80.3631 66.0961 80.0919 66.8997L78.6632 71.2527C78.4033 72.0539 77.5325 72.4844 76.7314 72.2245ZM54.7148 139.089C53.9136 138.829 53.4717 137.96 53.743 137.157L55.1717 132.804C55.4316 132.003 56.3 131.561 57.1035 131.832C57.9047 132.092 58.3465 132.96 58.0753 133.764L56.6466 138.117C56.3753 138.92 55.516 139.349 54.7148 139.089ZM90.3126 81.121C90.0429 80.8185 89.904 80.4215 89.9263 80.0168C89.9486 79.6122 90.1304 79.2328 90.4318 78.9619L93.8516 75.9132C94.1541 75.6434 94.5512 75.5045 94.9558 75.5269C95.3605 75.5492 95.7398 75.731 96.0108 76.0323C96.5691 76.663 96.5223 77.6332 95.8917 78.1915L92.4718 81.2402C91.8435 81.8099 90.8846 81.7607 90.3126 81.121ZM37.824 128.024C37.5543 127.722 37.4154 127.325 37.4377 126.92C37.4601 126.515 37.6418 126.136 37.9432 125.865L41.3631 122.816C41.6656 122.547 42.0626 122.408 42.4673 122.43C42.8719 122.452 43.2513 122.634 43.5223 122.935C44.0806 123.566 44.0338 124.536 43.4031 125.095L39.9832 128.143C39.3526 128.702 38.3823 128.655 37.824 128.024Z" fill="#B2947C"/>
<path d="M48.4321 96.0867L66.9229 102.027" stroke="#563428" stroke-width="4.486" stroke-miterlimit="10" stroke-linecap="round"/>
<path d="M87.7143 83.5597L67.6732 101.871" stroke="#563428" stroke-width="3.14" stroke-miterlimit="10" stroke-linecap="round"/>
<path d="M35.3663 46.933C43.0725 45.5048 50.5015 42.7471 58.2503 41.5234C59.3531 41.3529 60.472 41.2027 61.5113 40.7845C62.5506 40.3663 63.5146 39.6437 63.9525 38.6157C64.3904 37.5876 64.1701 36.2462 63.2633 35.5933C62.7457 35.215 62.0847 35.1157 61.4446 35.0594C58.032 34.7864 54.664 35.8085 51.3657 36.7093C45.8457 38.2155 40.2527 39.4286 34.6096 40.3438C32.5224 40.684 29.3925 40.4588 27.805 42.0584C26.7075 43.1646 26.3109 45.0733 27.5155 46.2452C29.3855 48.0491 33.1271 47.3404 35.3663 46.933Z" fill="#B7855F"/>
<path opacity="0.75" d="M122.752 86.1703C122.287 86.1604 121.784 85.0557 122.718 84.5883C123.891 84.012 126.783 83.5515 128.214 83.4785C128.965 83.4405 129.511 84.8089 128.18 85.193C127.083 85.5047 123.205 86.1825 122.752 86.1703ZM122.021 83.0618C121.072 83.1764 119.532 81.5884 121.115 81.1636C123.226 80.5933 125.222 80.2721 126.339 80.1106C127.687 79.9244 128.309 81.7156 126.905 82.032C125.601 82.3157 123.133 82.9367 122.021 83.0618Z" fill="#FFF3E0"/>
<rect x="0.890625" y="146" width="166.154" height="59.8154" rx="17.7231" fill="#A06841"/>
<rect x="0.890625" y="147.108" width="166.154" height="25.4769" fill="#A06841"/>
<path d="M8.49263 164.114C8.49263 163.162 8.70729 162.308 9.13663 161.552C9.56596 160.787 10.1493 160.189 10.8866 159.76C11.6333 159.331 12.4593 159.116 13.3646 159.116C14.4286 159.116 15.3573 159.373 16.1506 159.886C16.944 160.399 17.5226 161.127 17.8866 162.07H16.3606C16.09 161.482 15.698 161.029 15.1846 160.712C14.6806 160.395 14.074 160.236 13.3646 160.236C12.6833 160.236 12.072 160.395 11.5306 160.712C10.9893 161.029 10.5646 161.482 10.2566 162.07C9.94863 162.649 9.79463 163.33 9.79463 164.114C9.79463 164.889 9.94863 165.57 10.2566 166.158C10.5646 166.737 10.9893 167.185 11.5306 167.502C12.072 167.819 12.6833 167.978 13.3646 167.978C14.074 167.978 14.6806 167.824 15.1846 167.516C15.698 167.199 16.09 166.746 16.3606 166.158H17.8866C17.5226 167.091 16.944 167.815 16.1506 168.328C15.3573 168.832 14.4286 169.084 13.3646 169.084C12.4593 169.084 11.6333 168.874 10.8866 168.454C10.1493 168.025 9.56596 167.432 9.13663 166.676C8.70729 165.92 8.49263 165.066 8.49263 164.114ZM21.0571 158.64V169H19.7831V158.64H21.0571ZM26.5744 169.126C25.8557 169.126 25.2024 168.963 24.6144 168.636C24.0357 168.309 23.5784 167.847 23.2424 167.25C22.9157 166.643 22.7524 165.943 22.7524 165.15C22.7524 164.366 22.9204 163.675 23.2564 163.078C23.6017 162.471 24.0684 162.009 24.6564 161.692C25.2444 161.365 25.9024 161.202 26.6304 161.202C27.3584 161.202 28.0164 161.365 28.6044 161.692C29.1924 162.009 29.6544 162.467 29.9904 163.064C30.3357 163.661 30.5084 164.357 30.5084 165.15C30.5084 165.943 30.3311 166.643 29.9764 167.25C29.6311 167.847 29.1597 168.309 28.5624 168.636C27.9651 168.963 27.3024 169.126 26.5744 169.126ZM26.5744 168.006C27.0317 168.006 27.4611 167.899 27.8624 167.684C28.2637 167.469 28.5857 167.147 28.8284 166.718C29.0804 166.289 29.2064 165.766 29.2064 165.15C29.2064 164.534 29.0851 164.011 28.8424 163.582C28.5997 163.153 28.2824 162.835 27.8904 162.63C27.4984 162.415 27.0737 162.308 26.6164 162.308C26.1497 162.308 25.7204 162.415 25.3284 162.63C24.9457 162.835 24.6377 163.153 24.4044 163.582C24.1711 164.011 24.0544 164.534 24.0544 165.15C24.0544 165.775 24.1664 166.303 24.3904 166.732C24.6237 167.161 24.9317 167.483 25.3144 167.698C25.6971 167.903 26.1171 168.006 26.5744 168.006ZM31.7075 165.15C31.7075 164.357 31.8661 163.666 32.1835 163.078C32.5008 162.481 32.9395 162.019 33.4995 161.692C34.0688 161.365 34.7175 161.202 35.4455 161.202C36.3881 161.202 37.1628 161.431 37.7695 161.888C38.3855 162.345 38.7915 162.98 38.9875 163.792H37.6155C37.4848 163.325 37.2281 162.957 36.8455 162.686C36.4721 162.415 36.0055 162.28 35.4455 162.28C34.7175 162.28 34.1295 162.532 33.6815 163.036C33.2335 163.531 33.0095 164.235 33.0095 165.15C33.0095 166.074 33.2335 166.788 33.6815 167.292C34.1295 167.796 34.7175 168.048 35.4455 168.048C36.0055 168.048 36.4721 167.917 36.8455 167.656C37.2188 167.395 37.4755 167.021 37.6155 166.536H38.9875C38.7821 167.32 38.3715 167.95 37.7555 168.426C37.1395 168.893 36.3695 169.126 35.4455 169.126C34.7175 169.126 34.0688 168.963 33.4995 168.636C32.9395 168.309 32.5008 167.847 32.1835 167.25C31.8661 166.653 31.7075 165.953 31.7075 165.15ZM44.9714 169L41.9614 165.612V169H40.6874V158.64H41.9614V164.73L44.9154 161.328H46.6934L43.0814 165.15L46.7074 169H44.9714ZM56.7629 169L54.4389 165.01H52.8989V169H51.6249V159.242H54.7749C55.5122 159.242 56.1329 159.368 56.6369 159.62C57.1502 159.872 57.5329 160.213 57.7849 160.642C58.0369 161.071 58.1629 161.561 58.1629 162.112C58.1629 162.784 57.9669 163.377 57.5749 163.89C57.1922 164.403 56.6135 164.744 55.8389 164.912L58.2889 169H56.7629ZM52.8989 163.988H54.7749C55.4655 163.988 55.9835 163.82 56.3289 163.484C56.6742 163.139 56.8469 162.681 56.8469 162.112C56.8469 161.533 56.6742 161.085 56.3289 160.768C55.9929 160.451 55.4749 160.292 54.7749 160.292H52.8989V163.988ZM67.1425 164.87C67.1425 165.113 67.1285 165.369 67.1005 165.64H60.9685C61.0151 166.396 61.2718 166.989 61.7385 167.418C62.2145 167.838 62.7885 168.048 63.4605 168.048C64.0111 168.048 64.4685 167.922 64.8325 167.67C65.2058 167.409 65.4671 167.063 65.6165 166.634H66.9885C66.7831 167.371 66.3725 167.973 65.7565 168.44C65.1405 168.897 64.3751 169.126 63.4605 169.126C62.7325 169.126 62.0791 168.963 61.5005 168.636C60.9311 168.309 60.4831 167.847 60.1565 167.25C59.8298 166.643 59.6665 165.943 59.6665 165.15C59.6665 164.357 59.8251 163.661 60.1425 163.064C60.4598 162.467 60.9031 162.009 61.4725 161.692C62.0511 161.365 62.7138 161.202 63.4605 161.202C64.1885 161.202 64.8325 161.361 65.3925 161.678C65.9525 161.995 66.3818 162.434 66.6805 162.994C66.9885 163.545 67.1425 164.17 67.1425 164.87ZM65.8265 164.604C65.8265 164.119 65.7191 163.703 65.5045 163.358C65.2898 163.003 64.9958 162.737 64.6225 162.56C64.2585 162.373 63.8525 162.28 63.4045 162.28C62.7605 162.28 62.2098 162.485 61.7525 162.896C61.3045 163.307 61.0478 163.876 60.9825 164.604H65.8265ZM70.0981 162.742C70.3501 162.303 70.7234 161.939 71.2181 161.65C71.7221 161.351 72.3054 161.202 72.9681 161.202C73.6494 161.202 74.2654 161.365 74.8161 161.692C75.3761 162.019 75.8148 162.481 76.1321 163.078C76.4494 163.666 76.6081 164.352 76.6081 165.136C76.6081 165.911 76.4494 166.601 76.1321 167.208C75.8148 167.815 75.3761 168.286 74.8161 168.622C74.2654 168.958 73.6494 169.126 72.9681 169.126C72.3148 169.126 71.7361 168.981 71.2321 168.692C70.7374 168.393 70.3594 168.025 70.0981 167.586V172.64H68.8241V161.328H70.0981V162.742ZM75.3061 165.136C75.3061 164.557 75.1894 164.053 74.9561 163.624C74.7228 163.195 74.4054 162.868 74.0041 162.644C73.6121 162.42 73.1781 162.308 72.7021 162.308C72.2354 162.308 71.8014 162.425 71.4001 162.658C71.0081 162.882 70.6908 163.213 70.4481 163.652C70.2148 164.081 70.0981 164.581 70.0981 165.15C70.0981 165.729 70.2148 166.237 70.4481 166.676C70.6908 167.105 71.0081 167.437 71.4001 167.67C71.8014 167.894 72.2354 168.006 72.7021 168.006C73.1781 168.006 73.6121 167.894 74.0041 167.67C74.4054 167.437 74.7228 167.105 74.9561 166.676C75.1894 166.237 75.3061 165.724 75.3061 165.136ZM77.809 165.136C77.809 164.352 77.9677 163.666 78.285 163.078C78.6024 162.481 79.0364 162.019 79.587 161.692C80.147 161.365 80.7677 161.202 81.449 161.202C82.121 161.202 82.7044 161.347 83.199 161.636C83.6937 161.925 84.0624 162.289 84.305 162.728V161.328H85.593V169H84.305V167.572C84.053 168.02 83.675 168.393 83.171 168.692C82.6764 168.981 82.0977 169.126 81.435 169.126C80.7537 169.126 80.1377 168.958 79.587 168.622C79.0364 168.286 78.6024 167.815 78.285 167.208C77.9677 166.601 77.809 165.911 77.809 165.136ZM84.305 165.15C84.305 164.571 84.1884 164.067 83.955 163.638C83.7217 163.209 83.4044 162.882 83.003 162.658C82.611 162.425 82.177 162.308 81.701 162.308C81.225 162.308 80.791 162.42 80.399 162.644C80.007 162.868 79.6944 163.195 79.461 163.624C79.2277 164.053 79.111 164.557 79.111 165.136C79.111 165.724 79.2277 166.237 79.461 166.676C79.6944 167.105 80.007 167.437 80.399 167.67C80.791 167.894 81.225 168.006 81.701 168.006C82.177 168.006 82.611 167.894 83.003 167.67C83.4044 167.437 83.7217 167.105 83.955 166.676C84.1884 166.237 84.305 165.729 84.305 165.15ZM88.404 160.082C88.1613 160.082 87.956 159.998 87.788 159.83C87.62 159.662 87.536 159.457 87.536 159.214C87.536 158.971 87.62 158.766 87.788 158.598C87.956 158.43 88.1613 158.346 88.404 158.346C88.6373 158.346 88.8333 158.43 88.992 158.598C89.16 158.766 89.244 158.971 89.244 159.214C89.244 159.457 89.16 159.662 88.992 159.83C88.8333 159.998 88.6373 160.082 88.404 160.082ZM89.02 161.328V169H87.746V161.328H89.02ZM92.4653 162.574C92.6893 162.135 93.0066 161.795 93.4173 161.552C93.8373 161.309 94.3459 161.188 94.9433 161.188V162.504H94.6073C93.1793 162.504 92.4653 163.279 92.4653 164.828V169H91.1913V161.328H92.4653V162.574ZM107.636 169L106.362 167.712C105.886 168.207 105.378 168.575 104.836 168.818C104.295 169.051 103.684 169.168 103.002 169.168C102.33 169.168 101.733 169.047 101.21 168.804C100.697 168.561 100.296 168.216 100.006 167.768C99.7264 167.32 99.5864 166.797 99.5864 166.2C99.5864 165.519 99.7777 164.921 100.16 164.408C100.552 163.885 101.126 163.475 101.882 163.176C101.584 162.821 101.369 162.495 101.238 162.196C101.108 161.897 101.042 161.571 101.042 161.216C101.042 160.805 101.145 160.437 101.35 160.11C101.565 159.774 101.868 159.513 102.26 159.326C102.652 159.139 103.105 159.046 103.618 159.046C104.122 159.046 104.561 159.144 104.934 159.34C105.308 159.536 105.588 159.811 105.774 160.166C105.961 160.511 106.045 160.899 106.026 161.328H104.752C104.762 160.945 104.654 160.647 104.43 160.432C104.206 160.208 103.917 160.096 103.562 160.096C103.189 160.096 102.886 160.203 102.652 160.418C102.428 160.623 102.316 160.889 102.316 161.216C102.316 161.496 102.391 161.767 102.54 162.028C102.699 162.289 102.96 162.611 103.324 162.994L106.236 165.92L106.488 165.528L107.44 163.932H108.812L107.664 165.92C107.506 166.2 107.319 166.494 107.104 166.802L109.302 169H107.636ZM103.002 168.076C103.506 168.076 103.959 167.978 104.36 167.782C104.771 167.586 105.158 167.283 105.522 166.872L102.652 163.988C101.458 164.445 100.86 165.169 100.86 166.158C100.86 166.709 101.056 167.166 101.448 167.53C101.85 167.894 102.368 168.076 103.002 168.076ZM12.0626 190.098C11.4186 190.098 10.84 189.986 10.3266 189.762C9.82263 189.529 9.42596 189.211 9.13663 188.81C8.84729 188.399 8.69796 187.928 8.68863 187.396H10.0466C10.0933 187.853 10.28 188.241 10.6066 188.558C10.9426 188.866 11.428 189.02 12.0626 189.02C12.6693 189.02 13.1453 188.871 13.4906 188.572C13.8453 188.264 14.0226 187.872 14.0226 187.396C14.0226 187.023 13.92 186.719 13.7146 186.486C13.5093 186.253 13.2526 186.075 12.9446 185.954C12.6366 185.833 12.2213 185.702 11.6986 185.562C11.0546 185.394 10.5366 185.226 10.1446 185.058C9.76196 184.89 9.43063 184.629 9.15063 184.274C8.87996 183.91 8.74463 183.425 8.74463 182.818C8.74463 182.286 8.87996 181.815 9.15063 181.404C9.42129 180.993 9.79929 180.676 10.2846 180.452C10.7793 180.228 11.344 180.116 11.9786 180.116C12.8933 180.116 13.64 180.345 14.2186 180.802C14.8066 181.259 15.138 181.866 15.2126 182.622H13.8126C13.766 182.249 13.57 181.922 13.2246 181.642C12.8793 181.353 12.422 181.208 11.8526 181.208C11.3206 181.208 10.8866 181.348 10.5506 181.628C10.2146 181.899 10.0466 182.281 10.0466 182.776C10.0466 183.131 10.1446 183.42 10.3406 183.644C10.546 183.868 10.7933 184.041 11.0826 184.162C11.3813 184.274 11.7966 184.405 12.3286 184.554C12.9726 184.731 13.4906 184.909 13.8826 185.086C14.2746 185.254 14.6106 185.52 14.8906 185.884C15.1706 186.239 15.3106 186.724 15.3106 187.34C15.3106 187.816 15.1846 188.264 14.9326 188.684C14.6806 189.104 14.3073 189.445 13.8126 189.706C13.318 189.967 12.7346 190.098 12.0626 190.098ZM24.1854 185.87C24.1854 186.113 24.1714 186.369 24.1434 186.64H18.0114C18.0581 187.396 18.3148 187.989 18.7814 188.418C19.2574 188.838 19.8314 189.048 20.5034 189.048C21.0541 189.048 21.5114 188.922 21.8754 188.67C22.2488 188.409 22.5101 188.063 22.6594 187.634H24.0314C23.8261 188.371 23.4154 188.973 22.7994 189.44C22.1834 189.897 21.4181 190.126 20.5034 190.126C19.7754 190.126 19.1221 189.963 18.5434 189.636C17.9741 189.309 17.5261 188.847 17.1994 188.25C16.8728 187.643 16.7094 186.943 16.7094 186.15C16.7094 185.357 16.8681 184.661 17.1854 184.064C17.5028 183.467 17.9461 183.009 18.5154 182.692C19.0941 182.365 19.7568 182.202 20.5034 182.202C21.2314 182.202 21.8754 182.361 22.4354 182.678C22.9954 182.995 23.4248 183.434 23.7234 183.994C24.0314 184.545 24.1854 185.17 24.1854 185.87ZM22.8694 185.604C22.8694 185.119 22.7621 184.703 22.5474 184.358C22.3328 184.003 22.0388 183.737 21.6654 183.56C21.3014 183.373 20.8954 183.28 20.4474 183.28C19.8034 183.28 19.2528 183.485 18.7954 183.896C18.3474 184.307 18.0908 184.876 18.0254 185.604H22.8694ZM27.1411 183.574C27.3651 183.135 27.6824 182.795 28.0931 182.552C28.5131 182.309 29.0217 182.188 29.6191 182.188V183.504H29.2831C27.8551 183.504 27.1411 184.279 27.1411 185.828V190H25.8671V182.328H27.1411V183.574ZM33.9457 188.824L36.3257 182.328H37.6837L34.6737 190H33.1897L30.1797 182.328H31.5517L33.9457 188.824ZM39.5954 181.082C39.3527 181.082 39.1474 180.998 38.9794 180.83C38.8114 180.662 38.7274 180.457 38.7274 180.214C38.7274 179.971 38.8114 179.766 38.9794 179.598C39.1474 179.43 39.3527 179.346 39.5954 179.346C39.8287 179.346 40.0247 179.43 40.1834 179.598C40.3514 179.766 40.4354 179.971 40.4354 180.214C40.4354 180.457 40.3514 180.662 40.1834 180.83C40.0247 180.998 39.8287 181.082 39.5954 181.082ZM40.2114 182.328V190H38.9374V182.328H40.2114ZM41.9067 186.15C41.9067 185.357 42.0654 184.666 42.3827 184.078C42.7 183.481 43.1387 183.019 43.6987 182.692C44.268 182.365 44.9167 182.202 45.6447 182.202C46.5874 182.202 47.362 182.431 47.9687 182.888C48.5847 183.345 48.9907 183.98 49.1867 184.792H47.8147C47.684 184.325 47.4274 183.957 47.0447 183.686C46.6714 183.415 46.2047 183.28 45.6447 183.28C44.9167 183.28 44.3287 183.532 43.8807 184.036C43.4327 184.531 43.2087 185.235 43.2087 186.15C43.2087 187.074 43.4327 187.788 43.8807 188.292C44.3287 188.796 44.9167 189.048 45.6447 189.048C46.2047 189.048 46.6714 188.917 47.0447 188.656C47.418 188.395 47.6747 188.021 47.8147 187.536H49.1867C48.9814 188.32 48.5707 188.95 47.9547 189.426C47.3387 189.893 46.5687 190.126 45.6447 190.126C44.9167 190.126 44.268 189.963 43.6987 189.636C43.1387 189.309 42.7 188.847 42.3827 188.25C42.0654 187.653 41.9067 186.953 41.9067 186.15ZM57.8866 185.87C57.8866 186.113 57.8726 186.369 57.8446 186.64H51.7126C51.7593 187.396 52.0159 187.989 52.4826 188.418C52.9586 188.838 53.5326 189.048 54.2046 189.048C54.7553 189.048 55.2126 188.922 55.5766 188.67C55.9499 188.409 56.2113 188.063 56.3606 187.634H57.7326C57.5273 188.371 57.1166 188.973 56.5006 189.44C55.8846 189.897 55.1193 190.126 54.2046 190.126C53.4766 190.126 52.8233 189.963 52.2446 189.636C51.6753 189.309 51.2273 188.847 50.9006 188.25C50.5739 187.643 50.4106 186.943 50.4106 186.15C50.4106 185.357 50.5693 184.661 50.8866 184.064C51.2039 183.467 51.6473 183.009 52.2166 182.692C52.7953 182.365 53.4579 182.202 54.2046 182.202C54.9326 182.202 55.5766 182.361 56.1366 182.678C56.6966 182.995 57.1259 183.434 57.4246 183.994C57.7326 184.545 57.8866 185.17 57.8866 185.87ZM56.5706 185.604C56.5706 185.119 56.4633 184.703 56.2486 184.358C56.0339 184.003 55.7399 183.737 55.3666 183.56C55.0026 183.373 54.5966 183.28 54.1486 183.28C53.5046 183.28 52.9539 183.485 52.4966 183.896C52.0486 184.307 51.7919 184.876 51.7266 185.604H56.5706ZM62.2842 190.126C61.6962 190.126 61.1689 190.028 60.7022 189.832C60.2356 189.627 59.8669 189.347 59.5962 188.992C59.3256 188.628 59.1762 188.213 59.1482 187.746H60.4642C60.5016 188.129 60.6789 188.441 60.9962 188.684C61.3229 188.927 61.7476 189.048 62.2702 189.048C62.7556 189.048 63.1382 188.941 63.4182 188.726C63.6982 188.511 63.8382 188.241 63.8382 187.914C63.8382 187.578 63.6889 187.331 63.3902 187.172C63.0916 187.004 62.6296 186.841 62.0042 186.682C61.4349 186.533 60.9682 186.383 60.6042 186.234C60.2496 186.075 59.9416 185.847 59.6802 185.548C59.4282 185.24 59.3022 184.839 59.3022 184.344C59.3022 183.952 59.4189 183.593 59.6522 183.266C59.8856 182.939 60.2169 182.683 60.6462 182.496C61.0756 182.3 61.5656 182.202 62.1162 182.202C62.9656 182.202 63.6516 182.417 64.1742 182.846C64.6969 183.275 64.9769 183.863 65.0142 184.61H63.7402C63.7122 184.209 63.5489 183.887 63.2502 183.644C62.9609 183.401 62.5689 183.28 62.0742 183.28C61.6169 183.28 61.2529 183.378 60.9822 183.574C60.7116 183.77 60.5762 184.027 60.5762 184.344C60.5762 184.596 60.6556 184.806 60.8142 184.974C60.9822 185.133 61.1876 185.263 61.4302 185.366C61.6822 185.459 62.0276 185.567 62.4662 185.688C63.0169 185.837 63.4649 185.987 63.8102 186.136C64.1556 186.276 64.4496 186.491 64.6922 186.78C64.9442 187.069 65.0749 187.447 65.0842 187.914C65.0842 188.334 64.9676 188.712 64.7342 189.048C64.5009 189.384 64.1696 189.65 63.7402 189.846C63.3202 190.033 62.8349 190.126 62.2842 190.126Z" fill="white"/>
<path d="M38.2715 11.2227C38.5254 11.6621 38.7549 12.082 38.96 12.4824C39.165 12.8828 39.3506 13.2881 39.5166 13.6982C39.6826 14.1084 39.7998 14.5332 39.8682 14.9727C39.9365 15.4121 39.9805 15.9004 40 16.4375C40 17.209 39.9023 17.9512 39.707 18.6641C39.5117 19.377 39.2285 20.0508 38.8574 20.6855C38.4863 21.3203 38.042 21.8916 37.5244 22.3994C37.0068 22.9072 36.4355 23.3467 35.8105 23.7178C35.1855 24.0889 34.5166 24.3721 33.8037 24.5674C33.0908 24.7627 32.3437 24.8652 31.5625 24.875C31.3379 24.875 31.1133 24.8652 30.8887 24.8457C30.6641 24.8262 30.4346 24.7969 30.2002 24.7578L18.3936 36.5645C17.9248 37.0332 17.3926 37.3896 16.7969 37.6338C16.2012 37.8779 15.5713 38 14.9072 38C14.2334 38 13.5986 37.873 13.0029 37.6191C12.4072 37.3652 11.8896 37.0137 11.4502 36.5645C11.0107 36.1152 10.6592 35.5928 10.3955 34.9971C10.1318 34.4014 10 33.7666 10 33.0928C10 32.4385 10.1221 31.8135 10.3662 31.2178C10.6104 30.6221 10.9668 30.085 11.4355 29.6064L23.2422 17.7998C23.2031 17.5752 23.1738 17.3506 23.1543 17.126C23.1348 16.9014 23.125 16.6719 23.125 16.4375C23.125 15.666 23.2227 14.9238 23.418 14.2109C23.6133 13.498 23.8965 12.8242 24.2676 12.1895C24.6387 11.5547 25.083 10.9834 25.6006 10.4756C26.1182 9.96777 26.6895 9.52832 27.3145 9.15723C27.9395 8.78613 28.6084 8.50293 29.3213 8.30762C30.0342 8.1123 30.7813 8.00977 31.5625 8C32.0898 8 32.5732 8.03906 33.0127 8.11719C33.4521 8.19531 33.8818 8.31738 34.3018 8.4834C34.7217 8.64941 35.127 8.83008 35.5176 9.02539C35.9082 9.2207 36.3281 9.45508 36.7773 9.72852L31.0059 15.5L32.5 16.9941L38.2715 11.2227ZM31.5625 23C32.4707 23 33.3203 22.8291 34.1113 22.4873C34.9023 22.1455 35.5957 21.6768 36.1914 21.0811C36.7871 20.4854 37.2559 19.792 37.5977 19.001C37.9395 18.21 38.1152 17.3555 38.125 16.4375C38.125 15.7246 38.0078 15.0361 37.7734 14.3721L32.5 19.6309L28.3691 15.5L33.6279 10.2266C32.9639 9.99219 32.2754 9.875 31.5625 9.875C30.6543 9.875 29.8047 10.0459 29.0137 10.3877C28.2227 10.7295 27.5293 11.1982 26.9336 11.7939C26.3379 12.3896 25.8691 13.083 25.5273 13.874C25.1855 14.665 25.0098 15.5195 25 16.4375C25 16.7793 25.0293 17.1113 25.0879 17.4336C25.1465 17.7559 25.2148 18.0781 25.293 18.4004L12.7686 30.9395C12.4854 31.2227 12.2656 31.5498 12.1094 31.9209C11.9531 32.292 11.875 32.6826 11.875 33.0928C11.875 33.5029 11.9531 33.8936 12.1094 34.2646C12.2656 34.6357 12.4854 34.958 12.7686 35.2314C13.0518 35.5049 13.374 35.7197 13.7354 35.876C14.0967 36.0322 14.4873 36.1152 14.9072 36.125C15.3174 36.125 15.708 36.0469 16.0791 35.8906C16.4502 35.7344 16.7773 35.5146 17.0605 35.2314L29.5996 22.707C29.9219 22.7852 30.2441 22.8535 30.5664 22.9121C30.8887 22.9707 31.2207 23 31.5625 23Z" fill="#A06841"/>
</g>
<defs>
<clipPath id="clip0_3298_215">
<rect width="167" height="199" rx="17.72" fill="white"/>
</clipPath>
</defs>
</svg>
