<svg width="175" height="204" viewBox="0 0 175 204" fill="none" xmlns="http://www.w3.org/2000/svg">
<rect x="4.55385" y="0.553846" width="165.046" height="201.6" rx="17.1692" fill="#FFF4E6" stroke="#FB8C00" stroke-width="1.10769"/>
<g filter="url(#filter0_d_3260_128)">
<path fill-rule="evenodd" clip-rule="evenodd" d="M104.378 102.343V109.136C104.378 126.214 104.378 134.756 108.697 140.059C109.828 141.44 111.181 142.516 112.669 143.216V149.896C112.669 151.771 113.908 153.292 115.433 153.292H119.118C119.851 153.292 120.554 152.935 121.072 152.298C121.591 151.661 121.882 150.797 121.882 149.896V145.154C125.18 145.367 129.112 145.367 133.858 145.367C138.604 145.367 142.536 145.367 145.834 145.154V149.896C145.834 151.771 147.072 153.292 148.597 153.292H152.282C153.015 153.292 153.718 152.935 154.236 152.298C154.755 151.661 155.046 150.797 155.046 149.896V143.216C156.535 142.516 157.888 141.44 159.018 140.059C163.337 134.756 163.337 126.214 163.337 109.136V102.343H104.378ZM152.282 110.268C153.015 110.268 153.718 110.626 154.236 111.263C154.755 111.9 155.046 112.764 155.046 113.665V122.722C155.046 123.623 154.755 124.487 154.236 125.124C153.718 125.761 153.015 126.119 152.282 126.119C151.549 126.119 150.846 125.761 150.328 125.124C149.81 124.487 149.519 123.623 149.519 122.722V113.665C149.519 112.764 149.81 111.9 150.328 111.263C150.846 110.626 151.549 110.268 152.282 110.268Z" fill="#F9AD4F"/>
<path d="M104.378 95.5209C104.378 78.3711 104.378 69.7939 108.697 64.4685C113.016 59.143 119.962 59.1384 133.858 59.1384C147.753 59.1384 154.703 59.1384 159.018 64.4685C163.333 69.7985 163.337 78.3711 163.337 95.5209V102.343H104.378V95.5209Z" fill="white"/>
<path d="M155.093 81.8101C155.093 80.9101 154.799 80.047 154.275 79.4106C153.751 78.7743 153.04 78.4167 152.299 78.4167C151.558 78.4167 150.847 78.7743 150.323 79.4106C149.799 80.047 149.505 80.9101 149.505 81.8101V90.8591C149.505 91.7591 149.799 92.6222 150.323 93.2586C150.847 93.895 151.558 94.2525 152.299 94.2525C153.04 94.2525 153.751 93.895 154.275 93.2586C154.799 92.6222 155.093 91.7591 155.093 90.8591V81.8101Z" fill="#FB8C00"/>
</g>
<path d="M129.403 150.408H72.2275C71.8051 150.408 71.3999 150.24 71.1013 149.942C70.8026 149.643 70.6348 149.238 70.6348 148.815V70.8127C70.6348 70.3902 70.8026 69.985 71.1013 69.6862C71.3999 69.3874 71.8051 69.2196 72.2275 69.2196H129.406C129.828 69.2196 130.233 69.3874 130.532 69.6862C130.831 69.985 130.998 70.3902 130.998 70.8127V148.813C130.998 149.236 130.831 149.641 130.532 149.94C130.233 150.239 129.828 150.407 129.406 150.407" fill="#D7578A"/>
<path d="M100.887 140.84C111.456 140.84 120.024 132.272 120.024 121.704C120.024 111.135 111.456 102.567 100.887 102.567C90.3186 102.567 81.751 111.135 81.751 121.704C81.751 132.272 90.3186 140.84 100.887 140.84Z" fill="white"/>
<path d="M81.751 121.704C81.751 132.272 90.3192 140.84 100.887 140.84C111.455 140.84 120.024 132.272 120.024 121.704" fill="#92D3F5"/>
<path d="M74.6709 82.147C74.6709 79.4238 76.8784 77.2163 79.6016 77.2163H97.167C99.8901 77.2163 102.098 79.4238 102.098 82.147V88.0021C102.098 90.7252 99.8901 92.9328 97.167 92.9328H79.6016C76.8784 92.9328 74.6709 90.7252 74.6709 88.0021V82.147Z" fill="#FFE9CE"/>
<path d="M100.886 132.82C107.026 132.82 112.002 127.843 112.002 121.704C112.002 115.565 107.026 110.588 100.886 110.588C94.7473 110.588 89.7705 115.565 89.7705 121.704C89.7705 127.843 94.7473 132.82 100.886 132.82Z" fill="#FCEA2B"/>
<path d="M89.7705 121.704C89.7705 124.652 90.9416 127.479 93.0263 129.564C95.1109 131.648 97.9383 132.82 100.886 132.82C103.835 132.82 106.662 131.648 108.747 129.564C110.831 127.479 112.002 124.652 112.002 121.704" fill="#61B2E4"/>
<path d="M103.787 81.532H112.576M103.787 86.4874H112.576M86.2102 84.0097H91.2322M78.6772 79.0654H98.7651V91.3921H78.6772V79.0654Z" stroke="#FB8C00" stroke-width="0.258517" stroke-miterlimit="10" stroke-linecap="round" stroke-linejoin="round"/>
<path d="M121.571 86.6677C123.359 86.6677 124.808 85.2502 124.808 83.5017C124.808 81.7533 123.359 80.3358 121.571 80.3358C119.784 80.3358 118.335 81.7533 118.335 83.5017C118.335 85.2502 119.784 86.6677 121.571 86.6677Z" fill="#FB8C00"/>
<g filter="url(#filter1_d_3260_128)">
<rect x="10.646" y="104.904" width="75.1228" height="43.2384" rx="5.91028" fill="white"/>
<rect x="10.6615" y="104.92" width="75.0917" height="43.2073" rx="5.89473" stroke="#FB8C00" stroke-width="0.0311067"/>
</g>
<rect x="17.8771" y="112.914" width="42.8984" height="30.018" rx="3.18844" fill="#FFBB00" stroke="#FB8C00" stroke-width="0.777668"/>
<rect x="69.1242" y="112.914" width="9.99575" height="8.55435" rx="3.18844" fill="#FFCA08" stroke="#FB8C00" stroke-width="0.777668"/>
<rect x="70.1432" y="126.757" width="1.84289" height="2.333" rx="0.921447" fill="#FFCA08" stroke="#FB8C00" stroke-width="0.777668"/>
<rect x="73.4919" y="126.757" width="1.84289" height="2.333" rx="0.921447" fill="#FFCA08" stroke="#FB8C00" stroke-width="0.777668"/>
<rect x="76.8405" y="126.757" width="1.84289" height="2.333" rx="0.921447" fill="#FFCA08" stroke="#FB8C00" stroke-width="0.777668"/>
<rect x="70.1432" y="137.955" width="1.84289" height="2.333" rx="0.921447" fill="#FFB8B8" stroke="#E76063" stroke-width="0.777668"/>
<rect x="73.4919" y="137.955" width="1.84289" height="2.333" rx="0.921447" fill="#FFB8B8" stroke="#E76063" stroke-width="0.777668"/>
<rect x="76.8405" y="137.955" width="1.84289" height="2.333" rx="0.921447" fill="#FFCA08" stroke="#FB8C00" stroke-width="0.777668"/>
<rect x="70.1432" y="134.378" width="1.84289" height="2.333" rx="0.921447" fill="#FFB8B8" stroke="#E76063" stroke-width="0.777668"/>
<rect x="73.4919" y="134.378" width="1.84289" height="2.333" rx="0.921447" fill="#FFB8B8" stroke="#E76063" stroke-width="0.777668"/>
<rect x="76.8405" y="134.378" width="1.84289" height="2.333" rx="0.921447" fill="#FFB8B8" stroke="#E76063" stroke-width="0.777668"/>
<rect x="70.1432" y="130.645" width="1.84289" height="2.333" rx="0.921447" fill="#FFB8B8" stroke="#E76063" stroke-width="0.777668"/>
<rect x="73.4919" y="130.645" width="1.84289" height="2.333" rx="0.921447" fill="#FFB8B8" stroke="#E76063" stroke-width="0.777668"/>
<rect x="76.8405" y="130.645" width="1.84289" height="2.333" rx="0.921447" fill="#FFB8B8" stroke="#E76063" stroke-width="0.777668"/>
<rect x="64.6593" y="112.505" width="0.582347" height="30.5244" rx="0.291174" fill="#FFCA08" stroke="#FB8C00" stroke-width="0.582347"/>
<rect x="105.907" y="15.2615" width="50.5484" height="21.438" rx="3.38493" fill="white"/>
<path d="M125.695 50.5592C125.539 50.3067 125.539 50.2789 125.802 49.6879C126.118 48.9726 126.266 48.1945 126.235 47.4132C126.204 46.6319 125.994 45.868 125.622 45.1801C124.893 43.8171 124.712 42.2271 125.117 40.7353C125.488 39.4044 126.001 38.8716 126.466 39.3312C126.694 39.5837 126.689 39.6317 126.234 40.8768C126.038 41.5093 125.97 42.1744 126.034 42.8333C126.098 43.4922 126.292 44.132 126.605 44.7154C127.046 45.5591 127.288 46.492 127.314 47.4433C127.34 48.3946 127.149 49.3393 126.754 50.2056C126.502 50.6728 126.443 50.7486 126.168 50.7789C126.074 50.8047 125.975 50.7959 125.887 50.7542C125.799 50.7124 125.729 50.6405 125.69 50.5516L125.695 50.5592ZM130.801 50.6602C130.576 50.4329 130.621 50.2006 130.922 49.4657C131.116 48.9717 131.218 48.4459 131.22 47.9151C131.294 46.9485 131.08 45.9818 130.603 45.1371C130.147 44.2705 129.925 43.2999 129.959 42.3213C129.959 40.9475 130.497 39.3312 130.988 39.2049C131.058 39.1768 131.134 39.1658 131.21 39.1729C131.286 39.18 131.359 39.2049 131.423 39.2455C131.487 39.2862 131.54 39.3415 131.579 39.4069C131.618 39.4723 131.64 39.5459 131.645 39.6216C131.596 39.9372 131.505 40.2447 131.374 40.5358C131.135 41.1154 131.042 41.7454 131.106 42.3693C131.019 43.0284 131.133 43.6985 131.435 44.2911C132.012 45.2096 132.316 46.2727 132.312 47.357C132.421 48.3547 132.23 49.3623 131.764 50.2511C131.541 50.6703 131.448 50.7562 131.19 50.789C131.116 50.8033 131.04 50.8 130.967 50.7794C130.895 50.7588 130.828 50.7214 130.773 50.6703L130.801 50.6602ZM135.817 50.6602C135.646 50.4809 135.699 50.2082 136.07 49.2283C136.252 48.7401 136.338 48.2212 136.323 47.7004C136.342 46.8195 136.13 45.9489 135.709 45.175C135.494 44.7136 135.314 44.2366 135.17 43.7482C134.972 42.8234 134.972 41.8672 135.17 40.9424C135.301 40.3253 135.56 39.7422 135.929 39.2302C136.048 39.1609 136.19 39.1408 136.324 39.1743C136.458 39.2078 136.574 39.2921 136.646 39.4095C136.801 39.6469 136.795 39.6898 136.485 40.4651C136.202 41.1335 136.073 41.8565 136.105 42.5814C136.138 43.3062 136.332 44.0146 136.674 44.6548C137.173 45.5693 137.425 46.5982 137.405 47.6398C137.442 48.2666 137.356 48.8947 137.152 49.4884C136.836 50.4506 136.586 50.8016 136.209 50.8016C136.135 50.8077 136.061 50.7976 135.992 50.7718C135.922 50.7461 135.859 50.7054 135.807 50.6526L135.817 50.6602ZM106.199 36.0911C106.082 35.9749 105.996 35.8318 105.947 35.6744C105.905 32.654 105.896 29.6336 105.921 26.6132L105.947 17.7743L106.275 17.1177C106.632 16.3593 107.264 15.7657 108.044 15.4585C108.583 15.2615 108.702 15.2615 131.19 15.2615C153.678 15.2615 153.802 15.2615 154.34 15.4585C155.119 15.7639 155.752 16.3546 156.109 17.1101L156.43 17.7667L156.456 26.6132C156.456 31.4721 156.456 35.5582 156.425 35.6744C156.376 35.8318 156.29 35.9749 156.173 36.0911C155.975 36.2881 155.738 36.2881 131.185 36.2881C106.632 36.2881 106.397 36.2527 106.199 36.0557V36.0911ZM108.386 32.303C108.416 30.0301 108.434 29.8912 108.654 29.4392C108.822 29.1198 109.069 28.8486 109.371 28.6512L109.836 28.3355H152.601L153.061 28.6512C153.355 28.854 153.593 29.1266 153.754 29.4442C153.976 29.8912 153.994 30.0301 154.007 32.3105L154.042 34.6971H154.82V26.4667C154.82 17.5722 154.82 17.8424 154.3 17.3576L154.062 17.1303L154.002 17.8172C154.008 18.244 153.889 18.6632 153.658 19.0226C153.427 19.3819 153.096 19.6653 152.705 19.8375C152.382 19.9739 150.059 19.9916 131.202 19.9916C112.346 19.9916 110.033 20.032 109.7 19.9007C109.308 19.7314 108.977 19.448 108.748 19.0876C108.52 18.7272 108.406 18.3065 108.421 17.8803L108.363 17.201L108.11 17.4283C107.572 17.9056 107.584 17.648 107.584 26.5198V34.7552H108.36L108.386 32.303ZM128.417 27.0703C128.337 27.0293 128.269 26.9685 128.219 26.8937C128.169 26.819 128.138 26.7327 128.131 26.6431C128.123 26.5534 128.138 26.4633 128.175 26.3812C128.212 26.2991 128.269 26.2277 128.342 26.1738C128.531 26.0374 128.943 26.0122 131.185 26.0122C134.139 26.0122 134.288 26.0425 134.23 26.641C134.177 27.1587 133.99 27.1941 131.197 27.1941C130.273 27.2502 129.346 27.2104 128.43 27.0754L128.417 27.0703ZM147.532 26.8607C147.489 26.7967 147.461 26.7236 147.451 26.6472C147.44 26.5708 147.448 26.4931 147.472 26.42C147.497 26.3469 147.537 26.2803 147.591 26.2253C147.646 26.1704 147.712 26.1286 147.784 26.1031C148.234 25.8657 148.717 26.6082 148.348 26.9743C148.286 27.022 148.216 27.0567 148.14 27.0766C148.065 27.0964 147.987 27.1009 147.91 27.0899C147.832 27.0788 147.758 27.0524 147.692 27.0121C147.625 26.9719 147.567 26.9187 147.522 26.8557L147.532 26.8607ZM150.104 26.8784C150.028 26.7821 149.99 26.6614 149.996 26.5388C150.002 26.4162 150.053 26.3001 150.139 26.2122C150.225 26.1243 150.34 26.0706 150.462 26.0613C150.585 26.0519 150.706 26.0874 150.805 26.1612C150.875 26.1996 150.936 26.2539 150.982 26.3197C151.028 26.3855 151.058 26.4611 151.07 26.5405C151.082 26.6199 151.075 26.701 151.051 26.7774C151.026 26.8539 150.984 26.9235 150.928 26.981C150.872 27.0385 150.803 27.0822 150.727 27.1088C150.651 27.1353 150.57 27.144 150.491 27.134C150.411 27.1241 150.334 27.0958 150.268 27.0515C150.201 27.0071 150.145 26.9479 150.104 26.8784ZM152.816 34.2551V33.8132H109.556V34.6971H152.816V34.2551ZM152.816 32.1843V31.6413H109.556V32.7272H152.816V32.1843ZM152.816 30.2321C152.791 30.0698 152.727 29.9159 152.63 29.7839C152.532 29.6519 152.403 29.5457 152.255 29.4745C152.101 29.3987 146.349 29.3634 131.185 29.3634C116.021 29.3634 110.279 29.3987 110.117 29.4745C109.971 29.549 109.845 29.6562 109.747 29.7876C109.65 29.9191 109.585 30.0712 109.556 30.2321V30.4544H152.816V30.2321ZM152.518 18.6152C152.786 18.3475 152.816 18.2768 152.816 17.5823V16.8247H109.551V17.5823C109.551 18.2743 109.568 18.34 109.836 18.6152L110.135 18.9082H152.207L152.518 18.6152Z" fill="#F9A826"/>
<rect x="4" y="144" width="166.154" height="59.8154" rx="17.7231" fill="#FB8C00"/>
<rect x="4" y="145.108" width="166.154" height="25.4769" fill="#FB8C00"/>
<path d="M11.602 162.114C11.602 161.162 11.8167 160.308 12.246 159.552C12.6753 158.787 13.2587 158.189 13.996 157.76C14.7427 157.331 15.5687 157.116 16.474 157.116C17.538 157.116 18.4667 157.373 19.26 157.886C20.0533 158.399 20.632 159.127 20.996 160.07H19.47C19.1993 159.482 18.8073 159.029 18.294 158.712C17.79 158.395 17.1833 158.236 16.474 158.236C15.7927 158.236 15.1813 158.395 14.64 158.712C14.0987 159.029 13.674 159.482 13.366 160.07C13.058 160.649 12.904 161.33 12.904 162.114C12.904 162.889 13.058 163.57 13.366 164.158C13.674 164.737 14.0987 165.185 14.64 165.502C15.1813 165.819 15.7927 165.978 16.474 165.978C17.1833 165.978 17.79 165.824 18.294 165.516C18.8073 165.199 19.1993 164.746 19.47 164.158H20.996C20.632 165.091 20.0533 165.815 19.26 166.328C18.4667 166.832 17.538 167.084 16.474 167.084C15.5687 167.084 14.7427 166.874 13.996 166.454C13.2587 166.025 12.6753 165.432 12.246 164.676C11.8167 163.92 11.602 163.066 11.602 162.114ZM26.2385 167.126C25.5198 167.126 24.8665 166.963 24.2785 166.636C23.6998 166.309 23.2425 165.847 22.9065 165.25C22.5798 164.643 22.4165 163.943 22.4165 163.15C22.4165 162.366 22.5845 161.675 22.9205 161.078C23.2658 160.471 23.7325 160.009 24.3205 159.692C24.9085 159.365 25.5665 159.202 26.2945 159.202C27.0225 159.202 27.6805 159.365 28.2685 159.692C28.8565 160.009 29.3185 160.467 29.6545 161.064C29.9998 161.661 30.1725 162.357 30.1725 163.15C30.1725 163.943 29.9951 164.643 29.6405 165.25C29.2951 165.847 28.8238 166.309 28.2265 166.636C27.6291 166.963 26.9665 167.126 26.2385 167.126ZM26.2385 166.006C26.6958 166.006 27.1251 165.899 27.5265 165.684C27.9278 165.469 28.2498 165.147 28.4925 164.718C28.7445 164.289 28.8705 163.766 28.8705 163.15C28.8705 162.534 28.7491 162.011 28.5065 161.582C28.2638 161.153 27.9465 160.835 27.5545 160.63C27.1625 160.415 26.7378 160.308 26.2805 160.308C25.8138 160.308 25.3845 160.415 24.9925 160.63C24.6098 160.835 24.3018 161.153 24.0685 161.582C23.8351 162.011 23.7185 162.534 23.7185 163.15C23.7185 163.775 23.8305 164.303 24.0545 164.732C24.2878 165.161 24.5958 165.483 24.9785 165.698C25.3611 165.903 25.7811 166.006 26.2385 166.006ZM35.5855 159.188C36.5189 159.188 37.2749 159.473 37.8535 160.042C38.4322 160.602 38.7215 161.414 38.7215 162.478V167H37.4615V162.66C37.4615 161.895 37.2702 161.311 36.8875 160.91C36.5049 160.499 35.9822 160.294 35.3195 160.294C34.6475 160.294 34.1109 160.504 33.7095 160.924C33.3175 161.344 33.1215 161.955 33.1215 162.758V167H31.8475V159.328H33.1215V160.42C33.3735 160.028 33.7142 159.725 34.1435 159.51C34.5822 159.295 35.0629 159.188 35.5855 159.188ZM43.5186 167.126C42.9306 167.126 42.4033 167.028 41.9366 166.832C41.4699 166.627 41.1013 166.347 40.8306 165.992C40.5599 165.628 40.4106 165.213 40.3826 164.746H41.6986C41.7359 165.129 41.9133 165.441 42.2306 165.684C42.5573 165.927 42.9819 166.048 43.5046 166.048C43.9899 166.048 44.3726 165.941 44.6526 165.726C44.9326 165.511 45.0726 165.241 45.0726 164.914C45.0726 164.578 44.9233 164.331 44.6246 164.172C44.3259 164.004 43.8639 163.841 43.2386 163.682C42.6693 163.533 42.2026 163.383 41.8386 163.234C41.4839 163.075 41.1759 162.847 40.9146 162.548C40.6626 162.24 40.5366 161.839 40.5366 161.344C40.5366 160.952 40.6533 160.593 40.8866 160.266C41.1199 159.939 41.4513 159.683 41.8806 159.496C42.3099 159.3 42.7999 159.202 43.3506 159.202C44.1999 159.202 44.8859 159.417 45.4086 159.846C45.9313 160.275 46.2113 160.863 46.2486 161.61H44.9746C44.9466 161.209 44.7833 160.887 44.4846 160.644C44.1953 160.401 43.8033 160.28 43.3086 160.28C42.8513 160.28 42.4873 160.378 42.2166 160.574C41.9459 160.77 41.8106 161.027 41.8106 161.344C41.8106 161.596 41.8899 161.806 42.0486 161.974C42.2166 162.133 42.4219 162.263 42.6646 162.366C42.9166 162.459 43.2619 162.567 43.7006 162.688C44.2513 162.837 44.6993 162.987 45.0446 163.136C45.3899 163.276 45.6839 163.491 45.9266 163.78C46.1786 164.069 46.3093 164.447 46.3186 164.914C46.3186 165.334 46.2019 165.712 45.9686 166.048C45.7353 166.384 45.4039 166.65 44.9746 166.846C44.5546 167.033 44.0693 167.126 43.5186 167.126ZM54.9211 159.328V167H53.6471V165.866C53.4044 166.258 53.0637 166.566 52.6251 166.79C52.1957 167.005 51.7197 167.112 51.1971 167.112C50.5997 167.112 50.0631 166.991 49.5871 166.748C49.1111 166.496 48.7331 166.123 48.4531 165.628C48.1824 165.133 48.0471 164.531 48.0471 163.822V159.328H49.3071V163.654C49.3071 164.41 49.4984 164.993 49.8811 165.404C50.2637 165.805 50.7864 166.006 51.4491 166.006C52.1304 166.006 52.6671 165.796 53.0591 165.376C53.4511 164.956 53.6471 164.345 53.6471 163.542V159.328H54.9211ZM66.2981 159.188C66.8955 159.188 67.4275 159.314 67.8941 159.566C68.3608 159.809 68.7295 160.177 69.0001 160.672C69.2708 161.167 69.4061 161.769 69.4061 162.478V167H68.1461V162.66C68.1461 161.895 67.9548 161.311 67.5721 160.91C67.1988 160.499 66.6901 160.294 66.0461 160.294C65.3835 160.294 64.8561 160.509 64.4641 160.938C64.0721 161.358 63.8761 161.969 63.8761 162.772V167H62.6161V162.66C62.6161 161.895 62.4248 161.311 62.0421 160.91C61.6688 160.499 61.1601 160.294 60.5161 160.294C59.8535 160.294 59.3261 160.509 58.9341 160.938C58.5421 161.358 58.3461 161.969 58.3461 162.772V167H57.0721V159.328H58.3461V160.434C58.5981 160.033 58.9341 159.725 59.3541 159.51C59.7835 159.295 60.2548 159.188 60.7681 159.188C61.4121 159.188 61.9815 159.333 62.4761 159.622C62.9708 159.911 63.3395 160.336 63.5821 160.896C63.7968 160.355 64.1515 159.935 64.6461 159.636C65.1408 159.337 65.6915 159.188 66.2981 159.188ZM78.496 162.87C78.496 163.113 78.482 163.369 78.454 163.64H72.322C72.3686 164.396 72.6253 164.989 73.092 165.418C73.568 165.838 74.142 166.048 74.814 166.048C75.3646 166.048 75.822 165.922 76.186 165.67C76.5593 165.409 76.8206 165.063 76.97 164.634H78.342C78.1366 165.371 77.726 165.973 77.11 166.44C76.494 166.897 75.7286 167.126 74.814 167.126C74.086 167.126 73.4326 166.963 72.854 166.636C72.2846 166.309 71.8366 165.847 71.51 165.25C71.1833 164.643 71.02 163.943 71.02 163.15C71.02 162.357 71.1786 161.661 71.496 161.064C71.8133 160.467 72.2566 160.009 72.826 159.692C73.4046 159.365 74.0673 159.202 74.814 159.202C75.542 159.202 76.186 159.361 76.746 159.678C77.306 159.995 77.7353 160.434 78.034 160.994C78.342 161.545 78.496 162.17 78.496 162.87ZM77.18 162.604C77.18 162.119 77.0726 161.703 76.858 161.358C76.6433 161.003 76.3493 160.737 75.976 160.56C75.612 160.373 75.206 160.28 74.758 160.28C74.114 160.28 73.5633 160.485 73.106 160.896C72.658 161.307 72.4013 161.876 72.336 162.604H77.18ZM81.4516 160.574C81.6756 160.135 81.9929 159.795 82.4036 159.552C82.8236 159.309 83.3323 159.188 83.9296 159.188V160.504H83.5936C82.1656 160.504 81.4516 161.279 81.4516 162.828V167H80.1776V159.328H81.4516V160.574ZM90.4067 158.278V161.54H93.9627V162.59H90.4067V165.95H94.3827V167H89.1327V157.228H94.3827V158.278H90.4067ZM97.5844 156.64V167H96.3104V156.64H97.5844ZM106.756 162.87C106.756 163.113 106.742 163.369 106.714 163.64H100.582C100.628 164.396 100.885 164.989 101.352 165.418C101.828 165.838 102.402 166.048 103.074 166.048C103.624 166.048 104.082 165.922 104.446 165.67C104.819 165.409 105.08 165.063 105.23 164.634H106.602C106.396 165.371 105.986 165.973 105.37 166.44C104.754 166.897 103.988 167.126 103.074 167.126C102.346 167.126 101.692 166.963 101.114 166.636C100.544 166.309 100.096 165.847 99.7697 165.25C99.4431 164.643 99.2797 163.943 99.2797 163.15C99.2797 162.357 99.4384 161.661 99.7557 161.064C100.073 160.467 100.516 160.009 101.086 159.692C101.664 159.365 102.327 159.202 103.074 159.202C103.802 159.202 104.446 159.361 105.006 159.678C105.566 159.995 105.995 160.434 106.294 160.994C106.602 161.545 106.756 162.17 106.756 162.87ZM105.44 162.604C105.44 162.119 105.332 161.703 105.118 161.358C104.903 161.003 104.609 160.737 104.236 160.56C103.872 160.373 103.466 160.28 103.018 160.28C102.374 160.28 101.823 160.485 101.366 160.896C100.918 161.307 100.661 161.876 100.596 162.604H105.44ZM107.961 163.15C107.961 162.357 108.12 161.666 108.437 161.078C108.755 160.481 109.193 160.019 109.753 159.692C110.323 159.365 110.971 159.202 111.699 159.202C112.642 159.202 113.417 159.431 114.023 159.888C114.639 160.345 115.045 160.98 115.241 161.792H113.869C113.739 161.325 113.482 160.957 113.099 160.686C112.726 160.415 112.259 160.28 111.699 160.28C110.971 160.28 110.383 160.532 109.935 161.036C109.487 161.531 109.263 162.235 109.263 163.15C109.263 164.074 109.487 164.788 109.935 165.292C110.383 165.796 110.971 166.048 111.699 166.048C112.259 166.048 112.726 165.917 113.099 165.656C113.473 165.395 113.729 165.021 113.869 164.536H115.241C115.036 165.32 114.625 165.95 114.009 166.426C113.393 166.893 112.623 167.126 111.699 167.126C110.971 167.126 110.323 166.963 109.753 166.636C109.193 166.309 108.755 165.847 108.437 165.25C108.12 164.653 107.961 163.953 107.961 163.15ZM118.495 160.378V164.9C118.495 165.273 118.575 165.539 118.733 165.698C118.892 165.847 119.167 165.922 119.559 165.922H120.497V167H119.349C118.64 167 118.108 166.837 117.753 166.51C117.399 166.183 117.221 165.647 117.221 164.9V160.378H116.227V159.328H117.221V157.396H118.495V159.328H120.497V160.378H118.495ZM123.315 160.574C123.539 160.135 123.856 159.795 124.267 159.552C124.687 159.309 125.196 159.188 125.793 159.188V160.504H125.457C124.029 160.504 123.315 161.279 123.315 162.828V167H122.041V159.328H123.315V160.574ZM130.61 167.126C129.891 167.126 129.238 166.963 128.65 166.636C128.071 166.309 127.614 165.847 127.278 165.25C126.951 164.643 126.788 163.943 126.788 163.15C126.788 162.366 126.956 161.675 127.292 161.078C127.637 160.471 128.104 160.009 128.692 159.692C129.28 159.365 129.938 159.202 130.666 159.202C131.394 159.202 132.052 159.365 132.64 159.692C133.228 160.009 133.69 160.467 134.026 161.064C134.371 161.661 134.544 162.357 134.544 163.15C134.544 163.943 134.366 164.643 134.012 165.25C133.666 165.847 133.195 166.309 132.598 166.636C132 166.963 131.338 167.126 130.61 167.126ZM130.61 166.006C131.067 166.006 131.496 165.899 131.898 165.684C132.299 165.469 132.621 165.147 132.864 164.718C133.116 164.289 133.242 163.766 133.242 163.15C133.242 162.534 133.12 162.011 132.878 161.582C132.635 161.153 132.318 160.835 131.926 160.63C131.534 160.415 131.109 160.308 130.652 160.308C130.185 160.308 129.756 160.415 129.364 160.63C128.981 160.835 128.673 161.153 128.44 161.582C128.206 162.011 128.09 162.534 128.09 163.15C128.09 163.775 128.202 164.303 128.426 164.732C128.659 165.161 128.967 165.483 129.35 165.698C129.732 165.903 130.152 166.006 130.61 166.006ZM139.957 159.188C140.89 159.188 141.646 159.473 142.225 160.042C142.803 160.602 143.093 161.414 143.093 162.478V167H141.833V162.66C141.833 161.895 141.641 161.311 141.259 160.91C140.876 160.499 140.353 160.294 139.691 160.294C139.019 160.294 138.482 160.504 138.081 160.924C137.689 161.344 137.493 161.955 137.493 162.758V167H136.219V159.328H137.493V160.42C137.745 160.028 138.085 159.725 138.515 159.51C138.953 159.295 139.434 159.188 139.957 159.188ZM145.832 158.082C145.589 158.082 145.384 157.998 145.216 157.83C145.048 157.662 144.964 157.457 144.964 157.214C144.964 156.971 145.048 156.766 145.216 156.598C145.384 156.43 145.589 156.346 145.832 156.346C146.065 156.346 146.261 156.43 146.42 156.598C146.588 156.766 146.672 156.971 146.672 157.214C146.672 157.457 146.588 157.662 146.42 157.83C146.261 157.998 146.065 158.082 145.832 158.082ZM146.448 159.328V167H145.174V159.328H146.448ZM148.143 163.15C148.143 162.357 148.302 161.666 148.619 161.078C148.936 160.481 149.375 160.019 149.935 159.692C150.504 159.365 151.153 159.202 151.881 159.202C152.824 159.202 153.598 159.431 154.205 159.888C154.821 160.345 155.227 160.98 155.423 161.792H154.051C153.92 161.325 153.664 160.957 153.281 160.686C152.908 160.415 152.441 160.28 151.881 160.28C151.153 160.28 150.565 160.532 150.117 161.036C149.669 161.531 149.445 162.235 149.445 163.15C149.445 164.074 149.669 164.788 150.117 165.292C150.565 165.796 151.153 166.048 151.881 166.048C152.441 166.048 152.908 165.917 153.281 165.656C153.654 165.395 153.911 165.021 154.051 164.536H155.423C155.218 165.32 154.807 165.95 154.191 166.426C153.575 166.893 152.805 167.126 151.881 167.126C151.153 167.126 150.504 166.963 149.935 166.636C149.375 166.309 148.936 165.847 148.619 165.25C148.302 164.653 148.143 163.953 148.143 163.15ZM159.839 167.126C159.251 167.126 158.724 167.028 158.257 166.832C157.79 166.627 157.422 166.347 157.151 165.992C156.88 165.628 156.731 165.213 156.703 164.746H158.019C158.056 165.129 158.234 165.441 158.551 165.684C158.878 165.927 159.302 166.048 159.825 166.048C160.31 166.048 160.693 165.941 160.973 165.726C161.253 165.511 161.393 165.241 161.393 164.914C161.393 164.578 161.244 164.331 160.945 164.172C160.646 164.004 160.184 163.841 159.559 163.682C158.99 163.533 158.523 163.383 158.159 163.234C157.804 163.075 157.496 162.847 157.235 162.548C156.983 162.24 156.857 161.839 156.857 161.344C156.857 160.952 156.974 160.593 157.207 160.266C157.44 159.939 157.772 159.683 158.201 159.496C158.63 159.3 159.12 159.202 159.671 159.202C160.52 159.202 161.206 159.417 161.729 159.846C162.252 160.275 162.532 160.863 162.569 161.61H161.295C161.267 161.209 161.104 160.887 160.805 160.644C160.516 160.401 160.124 160.28 159.629 160.28C159.172 160.28 158.808 160.378 158.537 160.574C158.266 160.77 158.131 161.027 158.131 161.344C158.131 161.596 158.21 161.806 158.369 161.974C158.537 162.133 158.742 162.263 158.985 162.366C159.237 162.459 159.582 162.567 160.021 162.688C160.572 162.837 161.02 162.987 161.365 163.136C161.71 163.276 162.004 163.491 162.247 163.78C162.499 164.069 162.63 164.447 162.639 164.914C162.639 165.334 162.522 165.712 162.289 166.048C162.056 166.384 161.724 166.65 161.295 166.846C160.875 167.033 160.39 167.126 159.839 167.126ZM19.568 188L18.294 186.712C17.818 187.207 17.3093 187.575 16.768 187.818C16.2267 188.051 15.6153 188.168 14.934 188.168C14.262 188.168 13.6647 188.047 13.142 187.804C12.6287 187.561 12.2273 187.216 11.938 186.768C11.658 186.32 11.518 185.797 11.518 185.2C11.518 184.519 11.7093 183.921 12.092 183.408C12.484 182.885 13.058 182.475 13.814 182.176C13.5153 181.821 13.3007 181.495 13.17 181.196C13.0393 180.897 12.974 180.571 12.974 180.216C12.974 179.805 13.0767 179.437 13.282 179.11C13.4967 178.774 13.8 178.513 14.192 178.326C14.584 178.139 15.0367 178.046 15.55 178.046C16.054 178.046 16.4927 178.144 16.866 178.34C17.2393 178.536 17.5193 178.811 17.706 179.166C17.8927 179.511 17.9767 179.899 17.958 180.328H16.684C16.6933 179.945 16.586 179.647 16.362 179.432C16.138 179.208 15.8487 179.096 15.494 179.096C15.1207 179.096 14.8173 179.203 14.584 179.418C14.36 179.623 14.248 179.889 14.248 180.216C14.248 180.496 14.3227 180.767 14.472 181.028C14.6307 181.289 14.892 181.611 15.256 181.994L18.168 184.92L18.42 184.528L19.372 182.932H20.744L19.596 184.92C19.4373 185.2 19.2507 185.494 19.036 185.802L21.234 188H19.568ZM14.934 187.076C15.438 187.076 15.8907 186.978 16.292 186.782C16.7027 186.586 17.09 186.283 17.454 185.872L14.584 182.988C13.3893 183.445 12.792 184.169 12.792 185.158C12.792 185.709 12.988 186.166 13.38 186.53C13.7813 186.894 14.2993 187.076 14.934 187.076ZM31.928 185.83H27.672L26.888 188H25.544L29.072 178.298H30.542L34.056 188H32.712L31.928 185.83ZM31.564 184.794L29.8 179.866L28.036 184.794H31.564ZM35.1176 184.15C35.1176 183.357 35.2763 182.666 35.5936 182.078C35.911 181.481 36.3496 181.019 36.9096 180.692C37.479 180.365 38.1276 180.202 38.8556 180.202C39.7983 180.202 40.573 180.431 41.1796 180.888C41.7956 181.345 42.2016 181.98 42.3976 182.792H41.0256C40.895 182.325 40.6383 181.957 40.2556 181.686C39.8823 181.415 39.4156 181.28 38.8556 181.28C38.1276 181.28 37.5396 181.532 37.0916 182.036C36.6436 182.531 36.4196 183.235 36.4196 184.15C36.4196 185.074 36.6436 185.788 37.0916 186.292C37.5396 186.796 38.1276 187.048 38.8556 187.048C39.4156 187.048 39.8823 186.917 40.2556 186.656C40.629 186.395 40.8856 186.021 41.0256 185.536H42.3976C42.1923 186.32 41.7816 186.95 41.1656 187.426C40.5496 187.893 39.7796 188.126 38.8556 188.126C38.1276 188.126 37.479 187.963 36.9096 187.636C36.3496 187.309 35.911 186.847 35.5936 186.25C35.2763 185.653 35.1176 184.953 35.1176 184.15ZM43.6215 184.15C43.6215 183.357 43.7802 182.666 44.0975 182.078C44.4149 181.481 44.8535 181.019 45.4135 180.692C45.9829 180.365 46.6315 180.202 47.3595 180.202C48.3022 180.202 49.0769 180.431 49.6835 180.888C50.2995 181.345 50.7055 181.98 50.9015 182.792H49.5295C49.3989 182.325 49.1422 181.957 48.7595 181.686C48.3862 181.415 47.9195 181.28 47.3595 181.28C46.6315 181.28 46.0435 181.532 45.5955 182.036C45.1475 182.531 44.9235 183.235 44.9235 184.15C44.9235 185.074 45.1475 185.788 45.5955 186.292C46.0435 186.796 46.6315 187.048 47.3595 187.048C47.9195 187.048 48.3862 186.917 48.7595 186.656C49.1329 186.395 49.3895 186.021 49.5295 185.536H50.9015C50.6962 186.32 50.2855 186.95 49.6695 187.426C49.0535 187.893 48.2835 188.126 47.3595 188.126C46.6315 188.126 45.9829 187.963 45.4135 187.636C44.8535 187.309 44.4149 186.847 44.0975 186.25C43.7802 185.653 43.6215 184.953 43.6215 184.15ZM59.6014 183.87C59.6014 184.113 59.5874 184.369 59.5594 184.64H53.4274C53.4741 185.396 53.7308 185.989 54.1974 186.418C54.6734 186.838 55.2474 187.048 55.9194 187.048C56.4701 187.048 56.9274 186.922 57.2914 186.67C57.6648 186.409 57.9261 186.063 58.0754 185.634H59.4474C59.2421 186.371 58.8314 186.973 58.2154 187.44C57.5994 187.897 56.8341 188.126 55.9194 188.126C55.1914 188.126 54.5381 187.963 53.9594 187.636C53.3901 187.309 52.9421 186.847 52.6154 186.25C52.2888 185.643 52.1254 184.943 52.1254 184.15C52.1254 183.357 52.2841 182.661 52.6014 182.064C52.9188 181.467 53.3621 181.009 53.9314 180.692C54.5101 180.365 55.1728 180.202 55.9194 180.202C56.6474 180.202 57.2914 180.361 57.8514 180.678C58.4114 180.995 58.8408 181.434 59.1394 181.994C59.4474 182.545 59.6014 183.17 59.6014 183.87ZM58.2854 183.604C58.2854 183.119 58.1781 182.703 57.9634 182.358C57.7488 182.003 57.4548 181.737 57.0814 181.56C56.7174 181.373 56.3114 181.28 55.8634 181.28C55.2194 181.28 54.6688 181.485 54.2114 181.896C53.7634 182.307 53.5068 182.876 53.4414 183.604H58.2854ZM63.9991 188.126C63.4111 188.126 62.8837 188.028 62.4171 187.832C61.9504 187.627 61.5817 187.347 61.3111 186.992C61.0404 186.628 60.8911 186.213 60.8631 185.746H62.1791C62.2164 186.129 62.3937 186.441 62.7111 186.684C63.0377 186.927 63.4624 187.048 63.9851 187.048C64.4704 187.048 64.8531 186.941 65.1331 186.726C65.4131 186.511 65.5531 186.241 65.5531 185.914C65.5531 185.578 65.4037 185.331 65.1051 185.172C64.8064 185.004 64.3444 184.841 63.7191 184.682C63.1497 184.533 62.6831 184.383 62.3191 184.234C61.9644 184.075 61.6564 183.847 61.3951 183.548C61.1431 183.24 61.0171 182.839 61.0171 182.344C61.0171 181.952 61.1337 181.593 61.3671 181.266C61.6004 180.939 61.9317 180.683 62.3611 180.496C62.7904 180.3 63.2804 180.202 63.8311 180.202C64.6804 180.202 65.3664 180.417 65.8891 180.846C66.4117 181.275 66.6917 181.863 66.7291 182.61H65.4551C65.4271 182.209 65.2637 181.887 64.9651 181.644C64.6757 181.401 64.2837 181.28 63.7891 181.28C63.3317 181.28 62.9677 181.378 62.6971 181.574C62.4264 181.77 62.2911 182.027 62.2911 182.344C62.2911 182.596 62.3704 182.806 62.5291 182.974C62.6971 183.133 62.9024 183.263 63.1451 183.366C63.3971 183.459 63.7424 183.567 64.1811 183.688C64.7317 183.837 65.1797 183.987 65.5251 184.136C65.8704 184.276 66.1644 184.491 66.4071 184.78C66.6591 185.069 66.7897 185.447 66.7991 185.914C66.7991 186.334 66.6824 186.712 66.4491 187.048C66.2157 187.384 65.8844 187.65 65.4551 187.846C65.0351 188.033 64.5497 188.126 63.9991 188.126ZM71.3135 188.126C70.7255 188.126 70.1982 188.028 69.7315 187.832C69.2649 187.627 68.8962 187.347 68.6255 186.992C68.3549 186.628 68.2055 186.213 68.1775 185.746H69.4935C69.5309 186.129 69.7082 186.441 70.0255 186.684C70.3522 186.927 70.7769 187.048 71.2995 187.048C71.7849 187.048 72.1675 186.941 72.4475 186.726C72.7275 186.511 72.8675 186.241 72.8675 185.914C72.8675 185.578 72.7182 185.331 72.4195 185.172C72.1209 185.004 71.6589 184.841 71.0335 184.682C70.4642 184.533 69.9975 184.383 69.6335 184.234C69.2789 184.075 68.9709 183.847 68.7095 183.548C68.4575 183.24 68.3315 182.839 68.3315 182.344C68.3315 181.952 68.4482 181.593 68.6815 181.266C68.9149 180.939 69.2462 180.683 69.6755 180.496C70.1049 180.3 70.5949 180.202 71.1455 180.202C71.9949 180.202 72.6809 180.417 73.2035 180.846C73.7262 181.275 74.0062 181.863 74.0435 182.61H72.7695C72.7415 182.209 72.5782 181.887 72.2795 181.644C71.9902 181.401 71.5982 181.28 71.1035 181.28C70.6462 181.28 70.2822 181.378 70.0115 181.574C69.7409 181.77 69.6055 182.027 69.6055 182.344C69.6055 182.596 69.6849 182.806 69.8435 182.974C70.0115 183.133 70.2169 183.263 70.4595 183.366C70.7115 183.459 71.0569 183.567 71.4955 183.688C72.0462 183.837 72.4942 183.987 72.8395 184.136C73.1849 184.276 73.4789 184.491 73.7215 184.78C73.9735 185.069 74.1042 185.447 74.1135 185.914C74.1135 186.334 73.9969 186.712 73.7635 187.048C73.5302 187.384 73.1989 187.65 72.7695 187.846C72.3495 188.033 71.8642 188.126 71.3135 188.126ZM79.258 188.126C78.5393 188.126 77.886 187.963 77.298 187.636C76.7193 187.309 76.262 186.847 75.926 186.25C75.5993 185.643 75.436 184.943 75.436 184.15C75.436 183.366 75.604 182.675 75.94 182.078C76.2853 181.471 76.752 181.009 77.34 180.692C77.928 180.365 78.586 180.202 79.314 180.202C80.042 180.202 80.7 180.365 81.288 180.692C81.876 181.009 82.338 181.467 82.674 182.064C83.0193 182.661 83.192 183.357 83.192 184.15C83.192 184.943 83.0147 185.643 82.66 186.25C82.3147 186.847 81.8433 187.309 81.246 187.636C80.6487 187.963 79.986 188.126 79.258 188.126ZM79.258 187.006C79.7153 187.006 80.1447 186.899 80.546 186.684C80.9473 186.469 81.2693 186.147 81.512 185.718C81.764 185.289 81.89 184.766 81.89 184.15C81.89 183.534 81.7687 183.011 81.526 182.582C81.2833 182.153 80.966 181.835 80.574 181.63C80.182 181.415 79.7573 181.308 79.3 181.308C78.8333 181.308 78.404 181.415 78.012 181.63C77.6293 181.835 77.3213 182.153 77.088 182.582C76.8547 183.011 76.738 183.534 76.738 184.15C76.738 184.775 76.85 185.303 77.074 185.732C77.3073 186.161 77.6153 186.483 77.998 186.698C78.3807 186.903 78.8007 187.006 79.258 187.006ZM86.1411 181.574C86.3651 181.135 86.6824 180.795 87.0931 180.552C87.5131 180.309 88.0217 180.188 88.6191 180.188V181.504H88.2831C86.8551 181.504 86.1411 182.279 86.1411 183.828V188H84.8671V180.328H86.1411V181.574ZM90.7477 179.082C90.5051 179.082 90.2997 178.998 90.1317 178.83C89.9637 178.662 89.8797 178.457 89.8797 178.214C89.8797 177.971 89.9637 177.766 90.1317 177.598C90.2997 177.43 90.5051 177.346 90.7477 177.346C90.9811 177.346 91.1771 177.43 91.3357 177.598C91.5037 177.766 91.5877 177.971 91.5877 178.214C91.5877 178.457 91.5037 178.662 91.3357 178.83C91.1771 178.998 90.9811 179.082 90.7477 179.082ZM91.3637 180.328V188H90.0897V180.328H91.3637ZM100.535 183.87C100.535 184.113 100.521 184.369 100.493 184.64H94.361C94.4077 185.396 94.6644 185.989 95.131 186.418C95.607 186.838 96.181 187.048 96.853 187.048C97.4037 187.048 97.861 186.922 98.225 186.67C98.5984 186.409 98.8597 186.063 99.009 185.634H100.381C100.176 186.371 99.765 186.973 99.149 187.44C98.533 187.897 97.7677 188.126 96.853 188.126C96.125 188.126 95.4717 187.963 94.893 187.636C94.3237 187.309 93.8757 186.847 93.549 186.25C93.2224 185.643 93.059 184.943 93.059 184.15C93.059 183.357 93.2177 182.661 93.535 182.064C93.8524 181.467 94.2957 181.009 94.865 180.692C95.4437 180.365 96.1064 180.202 96.853 180.202C97.581 180.202 98.225 180.361 98.785 180.678C99.345 180.995 99.7744 181.434 100.073 181.994C100.381 182.545 100.535 183.17 100.535 183.87ZM99.219 183.604C99.219 183.119 99.1117 182.703 98.897 182.358C98.6824 182.003 98.3884 181.737 98.015 181.56C97.651 181.373 97.245 181.28 96.797 181.28C96.153 181.28 95.6024 181.485 95.145 181.896C94.697 182.307 94.4404 182.876 94.375 183.604H99.219ZM104.933 188.126C104.345 188.126 103.817 188.028 103.351 187.832C102.884 187.627 102.515 187.347 102.245 186.992C101.974 186.628 101.825 186.213 101.797 185.746H103.113C103.15 186.129 103.327 186.441 103.645 186.684C103.971 186.927 104.396 187.048 104.919 187.048C105.404 187.048 105.787 186.941 106.067 186.726C106.347 186.511 106.487 186.241 106.487 185.914C106.487 185.578 106.337 185.331 106.039 185.172C105.74 185.004 105.278 184.841 104.653 184.682C104.083 184.533 103.617 184.383 103.253 184.234C102.898 184.075 102.59 183.847 102.329 183.548C102.077 183.24 101.951 182.839 101.951 182.344C101.951 181.952 102.067 181.593 102.301 181.266C102.534 180.939 102.865 180.683 103.295 180.496C103.724 180.3 104.214 180.202 104.765 180.202C105.614 180.202 106.3 180.417 106.823 180.846C107.345 181.275 107.625 181.863 107.663 182.61H106.389C106.361 182.209 106.197 181.887 105.899 181.644C105.609 181.401 105.217 181.28 104.723 181.28C104.265 181.28 103.901 181.378 103.631 181.574C103.36 181.77 103.225 182.027 103.225 182.344C103.225 182.596 103.304 182.806 103.463 182.974C103.631 183.133 103.836 183.263 104.079 183.366C104.331 183.459 104.676 183.567 105.115 183.688C105.665 183.837 106.113 183.987 106.459 184.136C106.804 184.276 107.098 184.491 107.341 184.78C107.593 185.069 107.723 185.447 107.733 185.914C107.733 186.334 107.616 186.712 107.383 187.048C107.149 187.384 106.818 187.65 106.389 187.846C105.969 188.033 105.483 188.126 104.933 188.126Z" fill="white"/>
<defs>
<filter id="filter0_d_3260_128" x="67.2975" y="25.7656" width="133.12" height="168.316" filterUnits="userSpaceOnUse" color-interpolation-filters="sRGB">
<feFlood flood-opacity="0" result="BackgroundImageFix"/>
<feColorMatrix in="SourceAlpha" type="matrix" values="0 0 0 0 0 0 0 0 0 0 0 0 0 0 0 0 0 0 127 0" result="hardAlpha"/>
<feOffset dy="3.70809"/>
<feGaussianBlur stdDeviation="18.5404"/>
<feComposite in2="hardAlpha" operator="out"/>
<feColorMatrix type="matrix" values="0 0 0 0 0.976471 0 0 0 0 0.658824 0 0 0 0 0.14902 0 0 0 0.15 0"/>
<feBlend mode="normal" in2="BackgroundImageFix" result="effect1_dropShadow_3260_128"/>
<feBlend mode="normal" in="SourceGraphic" in2="effect1_dropShadow_3260_128" result="shape"/>
</filter>
<filter id="filter1_d_3260_128" x="-1.95224" y="96.9718" width="100.319" height="68.4347" filterUnits="userSpaceOnUse" color-interpolation-filters="sRGB">
<feFlood flood-opacity="0" result="BackgroundImageFix"/>
<feColorMatrix in="SourceAlpha" type="matrix" values="0 0 0 0 0 0 0 0 0 0 0 0 0 0 0 0 0 0 127 0" result="hardAlpha"/>
<feOffset dy="4.66601"/>
<feGaussianBlur stdDeviation="6.29912"/>
<feComposite in2="hardAlpha" operator="out"/>
<feColorMatrix type="matrix" values="0 0 0 0 0 0 0 0 0 0 0 0 0 0 0 0 0 0 0.1 0"/>
<feBlend mode="normal" in2="BackgroundImageFix" result="effect1_dropShadow_3260_128"/>
<feBlend mode="normal" in="SourceGraphic" in2="effect1_dropShadow_3260_128" result="shape"/>
</filter>
</defs>
</svg>
