<svg width="167" height="199" viewBox="0 0 167 199" fill="none" xmlns="http://www.w3.org/2000/svg">
<g clip-path="url(#clip0_3566_128)">
<rect width="167" height="199" rx="17.72" fill="white"/>
<rect x="0.553846" y="0.553846" width="165.892" height="202.632" rx="17.1692" fill="#FFFAF4" stroke="#FB8C00" stroke-width="1.10769"/>
<path d="M106 60H102V92H106V60Z" fill="#3F3D56"/>
<path d="M106 59.7678L105.834 60.179L104.281 64L101.424 62.8382L97.3151 61.171C71.8142 52.9803 39.5848 48.7891 27.3081 32.7378L26.5089 32.4135C21.3716 36.6789 17.8041 36.9283 17.5263 28.7622L16.7271 28.4378C-4.22561 32.7487 -22.3455 20.4389 -40 5.39856C-38.7674 4.23678 -37.5121 3.10519 -36.2305 2C-11.4103 2.6963 9.75541 7.00557 18.0464 24.0434L18.8494 24.3716L28.4954 28.2869L29.3022 28.6151C50.7291 24.0936 74.8014 40.3914 98.8982 56.8823L106 59.7678Z" fill="#3F3D56"/>
<path d="M142 165.103C138.105 170.514 133.776 175.594 129.068 180.284C74.8021 181.345 9.40854 181.213 -43.463 179.982C-48.0175 175.409 -52.2141 170.476 -56 165.227C-45.0189 164.921 -33.3559 164.68 -21.2596 164.491C-16.4716 164.412 -11.612 164.348 -6.69969 164.287C-1.82124 164.235 3.10992 164.186 8.07873 164.144H8.0825C53.2315 163.778 101.526 164.114 142 165.103Z" fill="#FFDB44"/>
<path d="M162 126C160.673 130.525 159.046 134.941 157.145 139.237C156.887 139.827 156.621 140.413 156.346 141H150V126H162Z" fill="#3F3D56"/>
<path d="M157 139C156.762 139.635 156.516 140.266 156.262 140.898C155.638 142.47 154.983 144.027 154.298 145.564C153.935 146.387 153.56 147.207 153.174 148.022C151.732 151.1 150.169 154.111 148.493 157.044C89.9201 164.115 35.7132 165.81 -10 157.044V139H157Z" fill="#3F3D56"/>
<path d="M155 118.562V145.625C154.631 146.421 154.25 147.212 153.857 148C136.941 139.871 121.477 140.841 107 148V88.6055C118.72 81.7098 130.641 80.5748 142.883 88.6055L154.13 116.407L155 118.562Z" fill="#F9A826"/>
<path d="M114.651 92H135V112.342C128.291 115.924 121.506 115.848 114.651 112.342C111.116 105.561 111.116 98.7805 114.651 92Z" fill="white"/>
<path d="M150 113.059C147.109 116.175 141.807 115.06 136 113.059V92H142L150 113.059Z" fill="white"/>
<path d="M120 124H116V133H120V124Z" fill="#3F3D56"/>
<path d="M141 106H141.25C143.873 106 146 107.791 146 110C146 112.209 143.873 114 141.25 114H141V106Z" fill="#3F3D56"/>
<path d="M163 117.664C162.53 120.145 161.986 122.6 161.374 125.027C160.166 129.835 158.685 134.527 156.955 139.092C156.72 139.719 156.478 140.342 156.228 140.966C155.612 142.518 154.967 144.055 154.292 145.573C153.934 146.386 153.565 147.195 153.185 148H151.13L150.888 140.966L150.824 139.092L150.451 128.178L150 115L153.45 115.705L163 117.664Z" fill="#F9A826"/>
<path d="M-6.5 173C3.16499 173 11 165.389 11 156C11 146.611 3.16499 139 -6.5 139C-16.165 139 -24 146.611 -24 156C-24 165.389 -16.165 173 -6.5 173Z" fill="#3F3D56"/>
<path d="M-6 165C-1.02944 165 3 160.971 3 156C3 151.029 -1.02944 147 -6 147C-10.9706 147 -15 151.029 -15 156C-15 160.971 -10.9706 165 -6 165Z" fill="#FFDB44"/>
<path d="M109 137.475L109 81H99.404C97.5001 84.5766 96.5334 90.0155 96.1892 96.6909C95.0127 119.505 76.2719 137.475 53.352 137.475H-29V141.574H98.5876C98.8581 144.38 99.1332 147.194 99.404 150L109 150V141.574L109 137.475Z" fill="#3F3D56"/>
<path d="M34.1929 118.859L36.8261 117L53 138.141L50.3668 140C38.22 138.56 32.8853 131.466 34.1929 118.859Z" fill="#3F3D56"/>
<path d="M60.2077 45L63 46.3081L32.7923 140L30 138.692C33.7437 113.018 45.2462 66.0442 60.2077 45Z" fill="#3F3D56"/>
<path d="M144 114H140V115H144V114Z" fill="#3F3D56"/>
<path d="M102.998 86.5241C103 86.4886 103.002 86.457 102.996 86.424C102.968 86.1595 102.742 85.9739 102.49 86.003L99.5231 86.3478L-4.67178 90.242L-5.59333 90.3467C-5.79415 90.3694 -5.9565 90.527 -5.99267 90.7358C-6.03755 90.9949 -5.87176 91.2411 -5.62113 91.2875L100.771 104.997C101.025 105.025 101.248 104.83 101.274 104.568L102.998 86.5241ZM-2.34313 90.9285L99.3543 87.3223L102.025 87.0145L100.405 103.964L-2.34313 90.9285Z" fill="#3F3D56"/>
<path d="M29.1492 28.203L27.0542 32.2902L-1.33807 87.6054L17.5809 28.6737L18.9762 24.325L18.1294 24L16.738 28.3524L-2.78114 89.5631L-2.98782 90.4522C-3.03557 90.6465 -2.94017 90.8445 -2.74936 90.9417C-2.51875 91.0649 -2.22458 90.9865 -2.09734 90.7661L27.897 32.6115L30 28.528L29.1492 28.203Z" fill="#3F3D56"/>
<path d="M8 109.497L5.53416 110.856L-1.51162 112.844L-7.41902 114.516L-20.2474 118.138L-26.1548 119.806C-44.5156 116.766 -53.787 123.164 -62.5523 130.088L-68.4597 131.756L-72.8581 133C-73.6523 130.573 -74.3747 128.115 -75.0176 125.622C-75.5395 123.615 -76.0122 121.584 -76.432 119.539C-77.96 112.131 -78.8298 104.482 -78.9735 96.6541C-78.9924 95.8526 -79 95.0473 -79 94.242C-79 90.6276 -78.845 87.0514 -78.5462 83.5172C-78.4403 82.2882 -78.3192 81.0631 -78.1793 79.8456L-68.9174 77.2159L-67.9643 76.9449L-62.3783 75.361L-61.4858 75.1091L-47.3072 71.0826C-36.4066 70.3055 -28.1028 75.083 -21.0303 82.4943C-21.0303 82.4943 -10.9627 79.4601 -3.55388 84.8148C-1.20909 86.5132 0.867203 89.0513 2.27412 92.7954L3.48811 96.3258L8 109.497Z" fill="#F9A826"/>
<path d="M2.99999 96.5068C-0.364399 97.9152 -4.18336 96.2042 -5.52991 92.6852C-6.55877 89.9964 -5.86322 86.9215 -3.79153 85C-1.52997 86.6963 0.47558 89.2331 1.8318 92.977L2.99999 96.5068Z" fill="#3F3D56"/>
<path d="M103.5 68C107.09 68 110 64.866 110 61C110 57.134 107.09 54 103.5 54C99.9101 54 97 57.134 97 61C97 64.866 99.9101 68 103.5 68Z" fill="#3F3D56"/>
<rect y="138" width="166.154" height="59.8154" rx="17.7231" fill="#F4900C"/>
<rect y="139.108" width="166.154" height="25.4769" fill="#F4900C"/>
<path d="M21.172 163.098C20.528 163.098 19.9493 162.986 19.436 162.762C18.932 162.529 18.5353 162.211 18.246 161.81C17.9567 161.399 17.8073 160.928 17.798 160.396H19.156C19.2027 160.853 19.3893 161.241 19.716 161.558C20.052 161.866 20.5373 162.02 21.172 162.02C21.7787 162.02 22.2547 161.871 22.6 161.572C22.9547 161.264 23.132 160.872 23.132 160.396C23.132 160.023 23.0293 159.719 22.824 159.486C22.6187 159.253 22.362 159.075 22.054 158.954C21.746 158.833 21.3307 158.702 20.808 158.562C20.164 158.394 19.646 158.226 19.254 158.058C18.8713 157.89 18.54 157.629 18.26 157.274C17.9893 156.91 17.854 156.425 17.854 155.818C17.854 155.286 17.9893 154.815 18.26 154.404C18.5307 153.993 18.9087 153.676 19.394 153.452C19.8887 153.228 20.4533 153.116 21.088 153.116C22.0027 153.116 22.7493 153.345 23.328 153.802C23.916 154.259 24.2473 154.866 24.322 155.622H22.922C22.8753 155.249 22.6793 154.922 22.334 154.642C21.9887 154.353 21.5313 154.208 20.962 154.208C20.43 154.208 19.996 154.348 19.66 154.628C19.324 154.899 19.156 155.281 19.156 155.776C19.156 156.131 19.254 156.42 19.45 156.644C19.6553 156.868 19.9027 157.041 20.192 157.162C20.4907 157.274 20.906 157.405 21.438 157.554C22.082 157.731 22.6 157.909 22.992 158.086C23.384 158.254 23.72 158.52 24 158.884C24.28 159.239 24.42 159.724 24.42 160.34C24.42 160.816 24.294 161.264 24.042 161.684C23.79 162.104 23.4167 162.445 22.922 162.706C22.4273 162.967 21.844 163.098 21.172 163.098ZM33.2948 158.87C33.2948 159.113 33.2808 159.369 33.2528 159.64H27.1208C27.1675 160.396 27.4241 160.989 27.8908 161.418C28.3668 161.838 28.9408 162.048 29.6128 162.048C30.1635 162.048 30.6208 161.922 30.9848 161.67C31.3581 161.409 31.6195 161.063 31.7688 160.634H33.1408C32.9355 161.371 32.5248 161.973 31.9088 162.44C31.2928 162.897 30.5275 163.126 29.6128 163.126C28.8848 163.126 28.2315 162.963 27.6528 162.636C27.0835 162.309 26.6355 161.847 26.3088 161.25C25.9821 160.643 25.8188 159.943 25.8188 159.15C25.8188 158.357 25.9775 157.661 26.2948 157.064C26.6121 156.467 27.0555 156.009 27.6248 155.692C28.2035 155.365 28.8661 155.202 29.6128 155.202C30.3408 155.202 30.9848 155.361 31.5448 155.678C32.1048 155.995 32.5341 156.434 32.8328 156.994C33.1408 157.545 33.2948 158.17 33.2948 158.87ZM31.9788 158.604C31.9788 158.119 31.8715 157.703 31.6568 157.358C31.4421 157.003 31.1481 156.737 30.7748 156.56C30.4108 156.373 30.0048 156.28 29.5568 156.28C28.9128 156.28 28.3621 156.485 27.9048 156.896C27.4568 157.307 27.2001 157.876 27.1348 158.604H31.9788ZM36.2504 156.574C36.4744 156.135 36.7918 155.795 37.2024 155.552C37.6224 155.309 38.1311 155.188 38.7284 155.188V156.504H38.3924C36.9644 156.504 36.2504 157.279 36.2504 158.828V163H34.9764V155.328H36.2504V156.574ZM43.0551 161.824L45.4351 155.328H46.7931L43.7831 163H42.2991L39.2891 155.328H40.6611L43.0551 161.824ZM48.7048 154.082C48.4621 154.082 48.2568 153.998 48.0888 153.83C47.9208 153.662 47.8368 153.457 47.8368 153.214C47.8368 152.971 47.9208 152.766 48.0888 152.598C48.2568 152.43 48.4621 152.346 48.7048 152.346C48.9381 152.346 49.1341 152.43 49.2928 152.598C49.4608 152.766 49.5448 152.971 49.5448 153.214C49.5448 153.457 49.4608 153.662 49.2928 153.83C49.1341 153.998 48.9381 154.082 48.7048 154.082ZM49.3208 155.328V163H48.0468V155.328H49.3208ZM51.0161 159.15C51.0161 158.357 51.1747 157.666 51.4921 157.078C51.8094 156.481 52.2481 156.019 52.8081 155.692C53.3774 155.365 54.0261 155.202 54.7541 155.202C55.6967 155.202 56.4714 155.431 57.0781 155.888C57.6941 156.345 58.1001 156.98 58.2961 157.792H56.9241C56.7934 157.325 56.5367 156.957 56.1541 156.686C55.7807 156.415 55.3141 156.28 54.7541 156.28C54.0261 156.28 53.4381 156.532 52.9901 157.036C52.5421 157.531 52.3181 158.235 52.3181 159.15C52.3181 160.074 52.5421 160.788 52.9901 161.292C53.4381 161.796 54.0261 162.048 54.7541 162.048C55.3141 162.048 55.7807 161.917 56.1541 161.656C56.5274 161.395 56.7841 161.021 56.9241 160.536H58.2961C58.0907 161.32 57.6801 161.95 57.0641 162.426C56.4481 162.893 55.6781 163.126 54.7541 163.126C54.0261 163.126 53.3774 162.963 52.8081 162.636C52.2481 162.309 51.8094 161.847 51.4921 161.25C51.1747 160.653 51.0161 159.953 51.0161 159.15ZM66.996 158.87C66.996 159.113 66.982 159.369 66.954 159.64H60.822C60.8686 160.396 61.1253 160.989 61.592 161.418C62.068 161.838 62.642 162.048 63.314 162.048C63.8646 162.048 64.322 161.922 64.686 161.67C65.0593 161.409 65.3206 161.063 65.47 160.634H66.842C66.6366 161.371 66.226 161.973 65.61 162.44C64.994 162.897 64.2286 163.126 63.314 163.126C62.586 163.126 61.9326 162.963 61.354 162.636C60.7846 162.309 60.3366 161.847 60.01 161.25C59.6833 160.643 59.52 159.943 59.52 159.15C59.52 158.357 59.6786 157.661 59.996 157.064C60.3133 156.467 60.7566 156.009 61.326 155.692C61.9046 155.365 62.5673 155.202 63.314 155.202C64.042 155.202 64.686 155.361 65.246 155.678C65.806 155.995 66.2353 156.434 66.534 156.994C66.842 157.545 66.996 158.17 66.996 158.87ZM65.68 158.604C65.68 158.119 65.5726 157.703 65.358 157.358C65.1433 157.003 64.8493 156.737 64.476 156.56C64.112 156.373 63.706 156.28 63.258 156.28C62.614 156.28 62.0633 156.485 61.606 156.896C61.158 157.307 60.9013 157.876 60.836 158.604H65.68ZM77.548 163L75.224 159.01H73.684V163H72.41V153.242H75.56C76.2974 153.242 76.918 153.368 77.422 153.62C77.9354 153.872 78.318 154.213 78.57 154.642C78.822 155.071 78.948 155.561 78.948 156.112C78.948 156.784 78.752 157.377 78.36 157.89C77.9774 158.403 77.3987 158.744 76.624 158.912L79.074 163H77.548ZM73.684 157.988H75.56C76.2507 157.988 76.7687 157.82 77.114 157.484C77.4594 157.139 77.632 156.681 77.632 156.112C77.632 155.533 77.4594 155.085 77.114 154.768C76.778 154.451 76.26 154.292 75.56 154.292H73.684V157.988ZM87.9276 158.87C87.9276 159.113 87.9136 159.369 87.8856 159.64H81.7536C81.8003 160.396 82.0569 160.989 82.5236 161.418C82.9996 161.838 83.5736 162.048 84.2456 162.048C84.7963 162.048 85.2536 161.922 85.6176 161.67C85.9909 161.409 86.2523 161.063 86.4016 160.634H87.7736C87.5683 161.371 87.1576 161.973 86.5416 162.44C85.9256 162.897 85.1603 163.126 84.2456 163.126C83.5176 163.126 82.8643 162.963 82.2856 162.636C81.7163 162.309 81.2683 161.847 80.9416 161.25C80.6149 160.643 80.4516 159.943 80.4516 159.15C80.4516 158.357 80.6103 157.661 80.9276 157.064C81.2449 156.467 81.6883 156.009 82.2576 155.692C82.8363 155.365 83.4989 155.202 84.2456 155.202C84.9736 155.202 85.6176 155.361 86.1776 155.678C86.7376 155.995 87.1669 156.434 87.4656 156.994C87.7736 157.545 87.9276 158.17 87.9276 158.87ZM86.6116 158.604C86.6116 158.119 86.5043 157.703 86.2896 157.358C86.0749 157.003 85.7809 156.737 85.4076 156.56C85.0436 156.373 84.6376 156.28 84.1896 156.28C83.5456 156.28 82.9949 156.485 82.5376 156.896C82.0896 157.307 81.8329 157.876 81.7676 158.604H86.6116ZM90.8833 156.742C91.1353 156.303 91.5086 155.939 92.0033 155.65C92.5073 155.351 93.0906 155.202 93.7533 155.202C94.4346 155.202 95.0506 155.365 95.6012 155.692C96.1612 156.019 96.5999 156.481 96.9173 157.078C97.2346 157.666 97.3933 158.352 97.3933 159.136C97.3933 159.911 97.2346 160.601 96.9173 161.208C96.5999 161.815 96.1612 162.286 95.6012 162.622C95.0506 162.958 94.4346 163.126 93.7533 163.126C93.0999 163.126 92.5213 162.981 92.0173 162.692C91.5226 162.393 91.1446 162.025 90.8833 161.586V166.64H89.6093V155.328H90.8833V156.742ZM96.0913 159.136C96.0913 158.557 95.9746 158.053 95.7413 157.624C95.5079 157.195 95.1906 156.868 94.7893 156.644C94.3973 156.42 93.9633 156.308 93.4873 156.308C93.0206 156.308 92.5866 156.425 92.1853 156.658C91.7933 156.882 91.4759 157.213 91.2333 157.652C90.9999 158.081 90.8833 158.581 90.8833 159.15C90.8833 159.729 90.9999 160.237 91.2333 160.676C91.4759 161.105 91.7933 161.437 92.1853 161.67C92.5866 161.894 93.0206 162.006 93.4873 162.006C93.9633 162.006 94.3973 161.894 94.7893 161.67C95.1906 161.437 95.5079 161.105 95.7413 160.676C95.9746 160.237 96.0913 159.724 96.0913 159.136ZM98.5942 159.136C98.5942 158.352 98.7529 157.666 99.0702 157.078C99.3875 156.481 99.8215 156.019 100.372 155.692C100.932 155.365 101.553 155.202 102.234 155.202C102.906 155.202 103.49 155.347 103.984 155.636C104.479 155.925 104.848 156.289 105.09 156.728V155.328H106.378V163H105.09V161.572C104.838 162.02 104.46 162.393 103.956 162.692C103.462 162.981 102.883 163.126 102.22 163.126C101.539 163.126 100.923 162.958 100.372 162.622C99.8215 162.286 99.3875 161.815 99.0702 161.208C98.7529 160.601 98.5942 159.911 98.5942 159.136ZM105.09 159.15C105.09 158.571 104.974 158.067 104.74 157.638C104.507 157.209 104.19 156.882 103.788 156.658C103.396 156.425 102.962 156.308 102.486 156.308C102.01 156.308 101.576 156.42 101.184 156.644C100.792 156.868 100.48 157.195 100.246 157.624C100.013 158.053 99.8962 158.557 99.8962 159.136C99.8962 159.724 100.013 160.237 100.246 160.676C100.48 161.105 100.792 161.437 101.184 161.67C101.576 161.894 102.01 162.006 102.486 162.006C102.962 162.006 103.396 161.894 103.788 161.67C104.19 161.437 104.507 161.105 104.74 160.676C104.974 160.237 105.09 159.729 105.09 159.15ZM109.189 154.082C108.946 154.082 108.741 153.998 108.573 153.83C108.405 153.662 108.321 153.457 108.321 153.214C108.321 152.971 108.405 152.766 108.573 152.598C108.741 152.43 108.946 152.346 109.189 152.346C109.422 152.346 109.618 152.43 109.777 152.598C109.945 152.766 110.029 152.971 110.029 153.214C110.029 153.457 109.945 153.662 109.777 153.83C109.618 153.998 109.422 154.082 109.189 154.082ZM109.805 155.328V163H108.531V155.328H109.805ZM113.25 156.574C113.474 156.135 113.792 155.795 114.202 155.552C114.622 155.309 115.131 155.188 115.728 155.188V156.504H115.392C113.964 156.504 113.25 157.279 113.25 158.828V163H111.976V155.328H113.25V156.574ZM122.519 157.33V158.408H116.933V157.33H122.519ZM22.992 174.242V181.452C22.992 182.255 22.7447 182.899 22.25 183.384C21.7553 183.86 21.102 184.098 20.29 184.098C19.4687 184.098 18.8107 183.855 18.316 183.37C17.8213 182.875 17.574 182.203 17.574 181.354H18.848C18.8573 181.83 18.9787 182.217 19.212 182.516C19.4547 182.815 19.814 182.964 20.29 182.964C20.766 182.964 21.1207 182.824 21.354 182.544C21.5873 182.255 21.704 181.891 21.704 181.452V174.242H22.992ZM25.0258 180.15C25.0258 179.357 25.1845 178.666 25.5018 178.078C25.8192 177.481 26.2578 177.019 26.8178 176.692C27.3872 176.365 28.0358 176.202 28.7638 176.202C29.7065 176.202 30.4812 176.431 31.0878 176.888C31.7038 177.345 32.1098 177.98 32.3058 178.792H30.9338C30.8032 178.325 30.5465 177.957 30.1638 177.686C29.7905 177.415 29.3238 177.28 28.7638 177.28C28.0358 177.28 27.4478 177.532 26.9998 178.036C26.5518 178.531 26.3278 179.235 26.3278 180.15C26.3278 181.074 26.5518 181.788 26.9998 182.292C27.4478 182.796 28.0358 183.048 28.7638 183.048C29.3238 183.048 29.7905 182.917 30.1638 182.656C30.5372 182.395 30.7938 182.021 30.9338 181.536H32.3058C32.1005 182.32 31.6898 182.95 31.0738 183.426C30.4578 183.893 29.6878 184.126 28.7638 184.126C28.0358 184.126 27.3872 183.963 26.8178 183.636C26.2578 183.309 25.8192 182.847 25.5018 182.25C25.1845 181.653 25.0258 180.953 25.0258 180.15ZM35.2797 177.756C35.5411 177.299 35.9237 176.925 36.4277 176.636C36.9317 176.347 37.5057 176.202 38.1497 176.202C38.8404 176.202 39.4611 176.365 40.0117 176.692C40.5624 177.019 40.9964 177.481 41.3137 178.078C41.6311 178.666 41.7897 179.352 41.7897 180.136C41.7897 180.911 41.6311 181.601 41.3137 182.208C40.9964 182.815 40.5577 183.286 39.9977 183.622C39.4471 183.958 38.8311 184.126 38.1497 184.126C37.4871 184.126 36.9037 183.981 36.3997 183.692C35.9051 183.403 35.5317 183.034 35.2797 182.586V184H34.0057V173.64H35.2797V177.756ZM40.4877 180.136C40.4877 179.557 40.3711 179.053 40.1377 178.624C39.9044 178.195 39.5871 177.868 39.1857 177.644C38.7937 177.42 38.3597 177.308 37.8837 177.308C37.4171 177.308 36.9831 177.425 36.5817 177.658C36.1897 177.882 35.8724 178.213 35.6297 178.652C35.3964 179.081 35.2797 179.581 35.2797 180.15C35.2797 180.729 35.3964 181.237 35.6297 181.676C35.8724 182.105 36.1897 182.437 36.5817 182.67C36.9831 182.894 37.4171 183.006 37.8837 183.006C38.3597 183.006 38.7937 182.894 39.1857 182.67C39.5871 182.437 39.9044 182.105 40.1377 181.676C40.3711 181.237 40.4877 180.724 40.4877 180.136ZM44.7827 182.236L43.2147 186.002H42.3607L43.3827 182.236H44.7827ZM49.4985 179.114C49.4985 178.162 49.7132 177.308 50.1425 176.552C50.5718 175.787 51.1552 175.189 51.8925 174.76C52.6392 174.331 53.4652 174.116 54.3705 174.116C55.4345 174.116 56.3632 174.373 57.1565 174.886C57.9498 175.399 58.5285 176.127 58.8925 177.07H57.3665C57.0958 176.482 56.7038 176.029 56.1905 175.712C55.6865 175.395 55.0798 175.236 54.3705 175.236C53.6892 175.236 53.0778 175.395 52.5365 175.712C51.9952 176.029 51.5705 176.482 51.2625 177.07C50.9545 177.649 50.8005 178.33 50.8005 179.114C50.8005 179.889 50.9545 180.57 51.2625 181.158C51.5705 181.737 51.9952 182.185 52.5365 182.502C53.0778 182.819 53.6892 182.978 54.3705 182.978C55.0798 182.978 55.6865 182.824 56.1905 182.516C56.7038 182.199 57.0958 181.746 57.3665 181.158H58.8925C58.5285 182.091 57.9498 182.815 57.1565 183.328C56.3632 183.832 55.4345 184.084 54.3705 184.084C53.4652 184.084 52.6392 183.874 51.8925 183.454C51.1552 183.025 50.5718 182.432 50.1425 181.676C49.7132 180.92 49.4985 180.066 49.4985 179.114ZM62.0629 177.574C62.2869 177.135 62.6043 176.795 63.0149 176.552C63.4349 176.309 63.9436 176.188 64.5409 176.188V177.504H64.2049C62.7769 177.504 62.0629 178.279 62.0629 179.828V184H60.7889V176.328H62.0629V177.574ZM65.5356 180.136C65.5356 179.352 65.6943 178.666 66.0116 178.078C66.3289 177.481 66.7629 177.019 67.3136 176.692C67.8736 176.365 68.4943 176.202 69.1756 176.202C69.8476 176.202 70.4309 176.347 70.9256 176.636C71.4203 176.925 71.7889 177.289 72.0316 177.728V176.328H73.3196V184H72.0316V182.572C71.7796 183.02 71.4016 183.393 70.8976 183.692C70.4029 183.981 69.8243 184.126 69.1616 184.126C68.4803 184.126 67.8643 183.958 67.3136 183.622C66.7629 183.286 66.3289 182.815 66.0116 182.208C65.6943 181.601 65.5356 180.911 65.5356 180.136ZM72.0316 180.15C72.0316 179.571 71.9149 179.067 71.6816 178.638C71.4483 178.209 71.1309 177.882 70.7296 177.658C70.3376 177.425 69.9036 177.308 69.4276 177.308C68.9516 177.308 68.5176 177.42 68.1256 177.644C67.7336 177.868 67.4209 178.195 67.1876 178.624C66.9543 179.053 66.8376 179.557 66.8376 180.136C66.8376 180.724 66.9543 181.237 67.1876 181.676C67.4209 182.105 67.7336 182.437 68.1256 182.67C68.5176 182.894 68.9516 183.006 69.4276 183.006C69.9036 183.006 70.3376 182.894 70.7296 182.67C71.1309 182.437 71.4483 182.105 71.6816 181.676C71.9149 181.237 72.0316 180.729 72.0316 180.15ZM79.2105 176.188C80.1439 176.188 80.8999 176.473 81.4785 177.042C82.0572 177.602 82.3465 178.414 82.3465 179.478V184H81.0865V179.66C81.0865 178.895 80.8952 178.311 80.5125 177.91C80.1299 177.499 79.6072 177.294 78.9445 177.294C78.2725 177.294 77.7359 177.504 77.3345 177.924C76.9425 178.344 76.7465 178.955 76.7465 179.758V184H75.4725V176.328H76.7465V177.42C76.9985 177.028 77.3392 176.725 77.7685 176.51C78.2072 176.295 78.6879 176.188 79.2105 176.188ZM91.4276 179.87C91.4276 180.113 91.4136 180.369 91.3856 180.64H85.2536C85.3003 181.396 85.5569 181.989 86.0236 182.418C86.4996 182.838 87.0736 183.048 87.7456 183.048C88.2963 183.048 88.7536 182.922 89.1176 182.67C89.4909 182.409 89.7523 182.063 89.9016 181.634H91.2736C91.0683 182.371 90.6576 182.973 90.0416 183.44C89.4256 183.897 88.6603 184.126 87.7456 184.126C87.0176 184.126 86.3643 183.963 85.7856 183.636C85.2163 183.309 84.7683 182.847 84.4416 182.25C84.1149 181.643 83.9516 180.943 83.9516 180.15C83.9516 179.357 84.1103 178.661 84.4276 178.064C84.7449 177.467 85.1883 177.009 85.7576 176.692C86.3363 176.365 86.9989 176.202 87.7456 176.202C88.4736 176.202 89.1176 176.361 89.6776 176.678C90.2376 176.995 90.6669 177.434 90.9656 177.994C91.2736 178.545 91.4276 179.17 91.4276 179.87ZM90.1116 179.604C90.1116 179.119 90.0043 178.703 89.7896 178.358C89.5749 178.003 89.2809 177.737 88.9076 177.56C88.5436 177.373 88.1376 177.28 87.6896 177.28C87.0456 177.28 86.4949 177.485 86.0376 177.896C85.5896 178.307 85.3329 178.876 85.2676 179.604H90.1116ZM95.8253 184.126C95.2373 184.126 94.7099 184.028 94.2433 183.832C93.7766 183.627 93.4079 183.347 93.1373 182.992C92.8666 182.628 92.7173 182.213 92.6893 181.746H94.0053C94.0426 182.129 94.2199 182.441 94.5373 182.684C94.8639 182.927 95.2886 183.048 95.8113 183.048C96.2966 183.048 96.6793 182.941 96.9593 182.726C97.2393 182.511 97.3793 182.241 97.3793 181.914C97.3793 181.578 97.2299 181.331 96.9313 181.172C96.6326 181.004 96.1706 180.841 95.5453 180.682C94.9759 180.533 94.5093 180.383 94.1453 180.234C93.7906 180.075 93.4826 179.847 93.2213 179.548C92.9693 179.24 92.8433 178.839 92.8433 178.344C92.8433 177.952 92.9599 177.593 93.1933 177.266C93.4266 176.939 93.7579 176.683 94.1873 176.496C94.6166 176.3 95.1066 176.202 95.6573 176.202C96.5066 176.202 97.1926 176.417 97.7153 176.846C98.2379 177.275 98.5179 177.863 98.5553 178.61H97.2813C97.2533 178.209 97.0899 177.887 96.7913 177.644C96.5019 177.401 96.1099 177.28 95.6153 177.28C95.1579 177.28 94.7939 177.378 94.5233 177.574C94.2526 177.77 94.1173 178.027 94.1173 178.344C94.1173 178.596 94.1966 178.806 94.3553 178.974C94.5233 179.133 94.7286 179.263 94.9713 179.366C95.2233 179.459 95.5686 179.567 96.0073 179.688C96.5579 179.837 97.0059 179.987 97.3513 180.136C97.6966 180.276 97.9906 180.491 98.2333 180.78C98.4853 181.069 98.6159 181.447 98.6253 181.914C98.6253 182.334 98.5086 182.712 98.2753 183.048C98.0419 183.384 97.7106 183.65 97.2813 183.846C96.8613 184.033 96.3759 184.126 95.8253 184.126ZM101.74 182.236L100.172 186.002H99.3177L100.34 182.236H101.74ZM112.938 174.242V175.278H110.278V184H109.004V175.278H106.33V174.242H112.938ZM115.78 177.574C116.004 177.135 116.321 176.795 116.732 176.552C117.152 176.309 117.66 176.188 118.258 176.188V177.504H117.922C116.494 177.504 115.78 178.279 115.78 179.828V184H114.506V176.328H115.78V177.574ZM126.532 176.328V184H125.258V182.866C125.016 183.258 124.675 183.566 124.236 183.79C123.807 184.005 123.331 184.112 122.808 184.112C122.211 184.112 121.674 183.991 121.198 183.748C120.722 183.496 120.344 183.123 120.064 182.628C119.794 182.133 119.658 181.531 119.658 180.822V176.328H120.918V180.654C120.918 181.41 121.11 181.993 121.492 182.404C121.875 182.805 122.398 183.006 123.06 183.006C123.742 183.006 124.278 182.796 124.67 182.376C125.062 181.956 125.258 181.345 125.258 180.542V176.328H126.532ZM128.207 180.15C128.207 179.357 128.366 178.666 128.683 178.078C129.001 177.481 129.439 177.019 129.999 176.692C130.569 176.365 131.217 176.202 131.945 176.202C132.888 176.202 133.663 176.431 134.269 176.888C134.885 177.345 135.291 177.98 135.487 178.792H134.115C133.985 178.325 133.728 177.957 133.345 177.686C132.972 177.415 132.505 177.28 131.945 177.28C131.217 177.28 130.629 177.532 130.181 178.036C129.733 178.531 129.509 179.235 129.509 180.15C129.509 181.074 129.733 181.788 130.181 182.292C130.629 182.796 131.217 183.048 131.945 183.048C132.505 183.048 132.972 182.917 133.345 182.656C133.719 182.395 133.975 182.021 134.115 181.536H135.487C135.282 182.32 134.871 182.95 134.255 183.426C133.639 183.893 132.869 184.126 131.945 184.126C131.217 184.126 130.569 183.963 129.999 183.636C129.439 183.309 129.001 182.847 128.683 182.25C128.366 181.653 128.207 180.953 128.207 180.15ZM141.471 184L138.461 180.612V184H137.187V173.64H138.461V179.73L141.415 176.328H143.193L139.581 180.15L143.207 184H141.471ZM147.108 184.126C146.52 184.126 145.993 184.028 145.526 183.832C145.06 183.627 144.691 183.347 144.42 182.992C144.15 182.628 144 182.213 143.972 181.746H145.288C145.326 182.129 145.503 182.441 145.82 182.684C146.147 182.927 146.572 183.048 147.094 183.048C147.58 183.048 147.962 182.941 148.242 182.726C148.522 182.511 148.662 182.241 148.662 181.914C148.662 181.578 148.513 181.331 148.214 181.172C147.916 181.004 147.454 180.841 146.828 180.682C146.259 180.533 145.792 180.383 145.428 180.234C145.074 180.075 144.766 179.847 144.504 179.548C144.252 179.24 144.126 178.839 144.126 178.344C144.126 177.952 144.243 177.593 144.476 177.266C144.71 176.939 145.041 176.683 145.47 176.496C145.9 176.3 146.39 176.202 146.94 176.202C147.79 176.202 148.476 176.417 148.998 176.846C149.521 177.275 149.801 177.863 149.838 178.61H148.564C148.536 178.209 148.373 177.887 148.074 177.644C147.785 177.401 147.393 177.28 146.898 177.28C146.441 177.28 146.077 177.378 145.806 177.574C145.536 177.77 145.4 178.027 145.4 178.344C145.4 178.596 145.48 178.806 145.638 178.974C145.806 179.133 146.012 179.263 146.254 179.366C146.506 179.459 146.852 179.567 147.29 179.688C147.841 179.837 148.289 179.987 148.634 180.136C148.98 180.276 149.274 180.491 149.516 180.78C149.768 181.069 149.899 181.447 149.908 181.914C149.908 182.334 149.792 182.712 149.558 183.048C149.325 183.384 148.994 183.65 148.564 183.846C148.144 184.033 147.659 184.126 147.108 184.126Z" fill="white"/>
<path d="M153.271 16.2227C153.525 16.6621 153.755 17.082 153.96 17.4824C154.165 17.8828 154.351 18.2881 154.517 18.6982C154.683 19.1084 154.8 19.5332 154.868 19.9727C154.937 20.4121 154.98 20.9004 155 21.4375C155 22.209 154.902 22.9512 154.707 23.6641C154.512 24.377 154.229 25.0508 153.857 25.6855C153.486 26.3203 153.042 26.8916 152.524 27.3994C152.007 27.9072 151.436 28.3467 150.811 28.7178C150.186 29.0889 149.517 29.3721 148.804 29.5674C148.091 29.7627 147.344 29.8652 146.562 29.875C146.338 29.875 146.113 29.8652 145.889 29.8457C145.664 29.8262 145.435 29.7969 145.2 29.7578L133.394 41.5645C132.925 42.0332 132.393 42.3896 131.797 42.6338C131.201 42.8779 130.571 43 129.907 43C129.233 43 128.599 42.873 128.003 42.6191C127.407 42.3652 126.89 42.0137 126.45 41.5645C126.011 41.1152 125.659 40.5928 125.396 39.9971C125.132 39.4014 125 38.7666 125 38.0928C125 37.4385 125.122 36.8135 125.366 36.2178C125.61 35.6221 125.967 35.085 126.436 34.6064L138.242 22.7998C138.203 22.5752 138.174 22.3506 138.154 22.126C138.135 21.9014 138.125 21.6719 138.125 21.4375C138.125 20.666 138.223 19.9238 138.418 19.2109C138.613 18.498 138.896 17.8242 139.268 17.1895C139.639 16.5547 140.083 15.9834 140.601 15.4756C141.118 14.9678 141.689 14.5283 142.314 14.1572C142.939 13.7861 143.608 13.5029 144.321 13.3076C145.034 13.1123 145.781 13.0098 146.562 13C147.09 13 147.573 13.0391 148.013 13.1172C148.452 13.1953 148.882 13.3174 149.302 13.4834C149.722 13.6494 150.127 13.8301 150.518 14.0254C150.908 14.2207 151.328 14.4551 151.777 14.7285L146.006 20.5L147.5 21.9941L153.271 16.2227ZM146.562 28C147.471 28 148.32 27.8291 149.111 27.4873C149.902 27.1455 150.596 26.6768 151.191 26.0811C151.787 25.4854 152.256 24.792 152.598 24.001C152.939 23.21 153.115 22.3555 153.125 21.4375C153.125 20.7246 153.008 20.0361 152.773 19.3721L147.5 24.6309L143.369 20.5L148.628 15.2266C147.964 14.9922 147.275 14.875 146.562 14.875C145.654 14.875 144.805 15.0459 144.014 15.3877C143.223 15.7295 142.529 16.1982 141.934 16.7939C141.338 17.3896 140.869 18.083 140.527 18.874C140.186 19.665 140.01 20.5195 140 21.4375C140 21.7793 140.029 22.1113 140.088 22.4336C140.146 22.7559 140.215 23.0781 140.293 23.4004L127.769 35.9395C127.485 36.2227 127.266 36.5498 127.109 36.9209C126.953 37.292 126.875 37.6826 126.875 38.0928C126.875 38.5029 126.953 38.8936 127.109 39.2646C127.266 39.6357 127.485 39.958 127.769 40.2314C128.052 40.5049 128.374 40.7197 128.735 40.876C129.097 41.0322 129.487 41.1152 129.907 41.125C130.317 41.125 130.708 41.0469 131.079 40.8906C131.45 40.7344 131.777 40.5146 132.061 40.2314L144.6 27.707C144.922 27.7852 145.244 27.8535 145.566 27.9121C145.889 27.9707 146.221 28 146.562 28Z" fill="#F4900C"/>
</g>
<defs>
<clipPath id="clip0_3566_128">
<rect width="167" height="199" rx="17.72" fill="white"/>
</clipPath>
</defs>
</svg>
