<svg width="167" height="199" viewBox="0 0 167 199" fill="none" xmlns="http://www.w3.org/2000/svg">
<g clip-path="url(#clip0_3531_371)">
<rect width="167" height="199" rx="17.72" fill="white"/>
<rect x="0.444471" y="0.553846" width="165.046" height="201.6" rx="17.1692" fill="#FFF4EC" stroke="#FB8C00" stroke-width="1.10769"/>
<path d="M20.5508 84.5798H145.015V146.812H20.5508V84.5798Z" fill="#CFD8DC"/>
<path d="M20.5508 146.812H145.015V159.914H20.5508V146.812Z" fill="#B0BEC5"/>
<path d="M92.6094 100.957H131.914V159.914H92.6094V100.957Z" fill="#455A64"/>
<path d="M33.6523 100.957H79.5077V136.986H33.6523V100.957Z" fill="#E3F2FD"/>
<path d="M36.9287 104.232H76.2333V133.711H36.9287V104.232Z" fill="#FFDD55"/>
<path d="M123.726 132.073C122.743 132.073 122.088 132.728 122.088 133.711V140.261C122.088 141.244 122.743 141.899 123.726 141.899C124.709 141.899 125.364 141.244 125.364 140.261V133.711C125.364 132.728 124.709 132.073 123.726 132.073Z" fill="#90A4AE"/>
<path d="M82.7846 94.406C88.2115 94.406 92.6108 90.0066 92.6108 84.5798C92.6108 79.153 88.2115 74.7537 82.7846 74.7537C77.3578 74.7537 72.9585 79.153 72.9585 84.5798C72.9585 90.0066 77.3578 94.406 82.7846 94.406Z" fill="#558B2F"/>
<path d="M122.089 94.406C127.516 94.406 131.915 90.0066 131.915 84.5798C131.915 79.153 127.516 74.7537 122.089 74.7537C116.662 74.7537 112.263 79.153 112.263 84.5798C112.263 90.0066 116.662 94.406 122.089 94.406Z" fill="#558B2F"/>
<path d="M43.4795 94.406C48.9063 94.406 53.3056 90.0066 53.3056 84.5798C53.3056 79.153 48.9063 74.7537 43.4795 74.7537C38.0526 74.7537 33.6533 79.153 33.6533 84.5798C33.6533 90.0066 38.0526 94.406 43.4795 94.406Z" fill="#558B2F"/>
<path d="M135.189 42H30.3769C26.774 42 23.8262 44.9478 23.8262 48.5508V58.3769H141.74V48.5508C141.74 44.9478 138.792 42 135.189 42ZM72.9569 58.3769H92.6092V84.58H72.9569V58.3769ZM125.363 58.3769H108.986L112.262 84.58H131.914L125.363 58.3769ZM40.2031 58.3769H56.58L53.3046 84.58H33.6523L40.2031 58.3769Z" fill="#FB8C00"/>
<path d="M102.436 94.406C107.862 94.406 112.262 90.0066 112.262 84.5798C112.262 79.153 107.862 74.7537 102.436 74.7537C97.0087 74.7537 92.6094 79.153 92.6094 84.5798C92.6094 90.0066 97.0087 94.406 102.436 94.406Z" fill="#FFA000"/>
<path d="M151.566 84.5798C151.566 90.148 147.308 94.406 141.74 94.406C136.172 94.406 131.914 90.148 131.914 84.5798C131.914 79.0117 136.172 74.7537 141.74 74.7537L151.566 84.5798Z" fill="#FFA000"/>
<path d="M63.1313 94.406C68.5582 94.406 72.9575 90.0066 72.9575 84.5798C72.9575 79.153 68.5582 74.7537 63.1313 74.7537C57.7045 74.7537 53.3052 79.153 53.3052 84.5798C53.3052 90.0066 57.7045 94.406 63.1313 94.406Z" fill="#FFA000"/>
<path d="M14 84.5798C14 90.148 18.258 94.406 23.8261 94.406C29.3943 94.406 33.6523 90.148 33.6523 84.5798C33.6523 79.0117 29.3943 74.7537 23.8261 74.7537L14 84.5798Z" fill="#FFA000"/>
<path d="M108.987 58.377H92.6097V84.58H112.262L108.987 58.377ZM141.74 58.377H125.364L131.914 84.58H151.567L141.74 58.377ZM56.5805 58.377H72.9574V84.58H53.3051L56.5805 58.377ZM23.8266 58.377H40.2036L33.6528 84.58H14.0005L23.8266 58.377Z" fill="#FFC107"/>
<rect y="143" width="166.154" height="59.8154" rx="17.7231" fill="#FB8C00"/>
<rect y="144.108" width="166.154" height="25.4769" fill="#FB8C00"/>
<path d="M15.596 156.242V166H14.322V161.576H9.352V166H8.078V156.242H9.352V160.526H14.322V156.242H15.596ZM17.2954 162.136C17.2954 161.352 17.454 160.666 17.7714 160.078C18.0887 159.481 18.5227 159.019 19.0734 158.692C19.6334 158.365 20.254 158.202 20.9354 158.202C21.6074 158.202 22.1907 158.347 22.6854 158.636C23.18 158.925 23.5487 159.289 23.7914 159.728V158.328H25.0794V166H23.7914V164.572C23.5394 165.02 23.1614 165.393 22.6574 165.692C22.1627 165.981 21.584 166.126 20.9214 166.126C20.24 166.126 19.624 165.958 19.0734 165.622C18.5227 165.286 18.0887 164.815 17.7714 164.208C17.454 163.601 17.2954 162.911 17.2954 162.136ZM23.7914 162.15C23.7914 161.571 23.6747 161.067 23.4414 160.638C23.208 160.209 22.8907 159.882 22.4894 159.658C22.0974 159.425 21.6634 159.308 21.1874 159.308C20.7114 159.308 20.2774 159.42 19.8854 159.644C19.4934 159.868 19.1807 160.195 18.9474 160.624C18.714 161.053 18.5974 161.557 18.5974 162.136C18.5974 162.724 18.714 163.237 18.9474 163.676C19.1807 164.105 19.4934 164.437 19.8854 164.67C20.2774 164.894 20.7114 165.006 21.1874 165.006C21.6634 165.006 22.0974 164.894 22.4894 164.67C22.8907 164.437 23.208 164.105 23.4414 163.676C23.6747 163.237 23.7914 162.729 23.7914 162.15ZM28.5063 159.574C28.7303 159.135 29.0476 158.795 29.4583 158.552C29.8783 158.309 30.387 158.188 30.9843 158.188V159.504H30.6483C29.2203 159.504 28.5063 160.279 28.5063 161.828V166H27.2323V158.328H28.5063V159.574ZM31.979 162.136C31.979 161.352 32.1376 160.666 32.455 160.078C32.7723 159.481 33.2063 159.019 33.757 158.692C34.317 158.365 34.9423 158.202 35.633 158.202C36.2303 158.202 36.7856 158.342 37.299 158.622C37.8123 158.893 38.2043 159.252 38.475 159.7V155.64H39.763V166H38.475V164.558C38.223 165.015 37.8496 165.393 37.355 165.692C36.8603 165.981 36.2816 166.126 35.619 166.126C34.9376 166.126 34.317 165.958 33.757 165.622C33.2063 165.286 32.7723 164.815 32.455 164.208C32.1376 163.601 31.979 162.911 31.979 162.136ZM38.475 162.15C38.475 161.571 38.3583 161.067 38.125 160.638C37.8916 160.209 37.5743 159.882 37.173 159.658C36.781 159.425 36.347 159.308 35.871 159.308C35.395 159.308 34.961 159.42 34.569 159.644C34.177 159.868 33.8643 160.195 33.631 160.624C33.3976 161.053 33.281 161.557 33.281 162.136C33.281 162.724 33.3976 163.237 33.631 163.676C33.8643 164.105 34.177 164.437 34.569 164.67C34.961 164.894 35.395 165.006 35.871 165.006C36.347 165.006 36.781 164.894 37.173 164.67C37.5743 164.437 37.8916 164.105 38.125 163.676C38.3583 163.237 38.475 162.729 38.475 162.15ZM52.1359 158.328L49.7419 166H48.4259L46.5779 159.91L44.7299 166H43.4139L41.0059 158.328H42.3079L44.0719 164.768L45.9759 158.328H47.2779L49.1399 164.782L50.8759 158.328H52.1359ZM52.9243 162.136C52.9243 161.352 53.0829 160.666 53.4003 160.078C53.7176 159.481 54.1516 159.019 54.7023 158.692C55.2623 158.365 55.8829 158.202 56.5643 158.202C57.2363 158.202 57.8196 158.347 58.3143 158.636C58.8089 158.925 59.1776 159.289 59.4203 159.728V158.328H60.7083V166H59.4203V164.572C59.1683 165.02 58.7903 165.393 58.2863 165.692C57.7916 165.981 57.2129 166.126 56.5503 166.126C55.8689 166.126 55.2529 165.958 54.7023 165.622C54.1516 165.286 53.7176 164.815 53.4003 164.208C53.0829 163.601 52.9243 162.911 52.9243 162.136ZM59.4203 162.15C59.4203 161.571 59.3036 161.067 59.0703 160.638C58.8369 160.209 58.5196 159.882 58.1183 159.658C57.7263 159.425 57.2923 159.308 56.8163 159.308C56.3403 159.308 55.9063 159.42 55.5143 159.644C55.1223 159.868 54.8096 160.195 54.5763 160.624C54.3429 161.053 54.2263 161.557 54.2263 162.136C54.2263 162.724 54.3429 163.237 54.5763 163.676C54.8096 164.105 55.1223 164.437 55.5143 164.67C55.9063 164.894 56.3403 165.006 56.8163 165.006C57.2923 165.006 57.7263 164.894 58.1183 164.67C58.5196 164.437 58.8369 164.105 59.0703 163.676C59.3036 163.237 59.4203 162.729 59.4203 162.15ZM64.1352 159.574C64.3592 159.135 64.6765 158.795 65.0872 158.552C65.5072 158.309 66.0159 158.188 66.6132 158.188V159.504H66.2772C64.8492 159.504 64.1352 160.279 64.1352 161.828V166H62.8612V158.328H64.1352V159.574ZM75.0839 161.87C75.0839 162.113 75.0699 162.369 75.0419 162.64H68.9099C68.9565 163.396 69.2132 163.989 69.6799 164.418C70.1559 164.838 70.7299 165.048 71.4019 165.048C71.9525 165.048 72.4099 164.922 72.7739 164.67C73.1472 164.409 73.4085 164.063 73.5579 163.634H74.9299C74.7245 164.371 74.3139 164.973 73.6979 165.44C73.0819 165.897 72.3165 166.126 71.4019 166.126C70.6739 166.126 70.0205 165.963 69.4419 165.636C68.8725 165.309 68.4245 164.847 68.0979 164.25C67.7712 163.643 67.6079 162.943 67.6079 162.15C67.6079 161.357 67.7665 160.661 68.0839 160.064C68.4012 159.467 68.8445 159.009 69.4139 158.692C69.9925 158.365 70.6552 158.202 71.4019 158.202C72.1299 158.202 72.7739 158.361 73.3339 158.678C73.8939 158.995 74.3232 159.434 74.6219 159.994C74.9299 160.545 75.0839 161.17 75.0839 161.87ZM73.7679 161.604C73.7679 161.119 73.6605 160.703 73.4459 160.358C73.2312 160.003 72.9372 159.737 72.5639 159.56C72.1999 159.373 71.7939 159.28 71.3459 159.28C70.7019 159.28 70.1512 159.485 69.6939 159.896C69.2459 160.307 68.9892 160.876 68.9239 161.604H73.7679ZM82.0855 160.33V161.408H76.4995V160.33H82.0855ZM94.7329 159.098C94.7329 159.91 94.4529 160.587 93.8929 161.128C93.3422 161.66 92.4975 161.926 91.3589 161.926H89.4829V166H88.2089V156.242H91.3589C92.4602 156.242 93.2955 156.508 93.8649 157.04C94.4435 157.572 94.7329 158.258 94.7329 159.098ZM91.3589 160.876C92.0682 160.876 92.5909 160.722 92.9269 160.414C93.2629 160.106 93.4309 159.667 93.4309 159.098C93.4309 157.894 92.7402 157.292 91.3589 157.292H89.4829V160.876H91.3589ZM97.5903 155.64V166H96.3163V155.64H97.5903ZM106.566 158.328V166H105.292V164.866C105.049 165.258 104.708 165.566 104.27 165.79C103.84 166.005 103.364 166.112 102.842 166.112C102.244 166.112 101.708 165.991 101.232 165.748C100.756 165.496 100.378 165.123 100.098 164.628C99.8269 164.133 99.6916 163.531 99.6916 162.822V158.328H100.952V162.654C100.952 163.41 101.143 163.993 101.526 164.404C101.908 164.805 102.431 165.006 103.094 165.006C103.775 165.006 104.312 164.796 104.704 164.376C105.096 163.956 105.292 163.345 105.292 162.542V158.328H106.566ZM117.943 158.188C118.54 158.188 119.072 158.314 119.539 158.566C120.005 158.809 120.374 159.177 120.645 159.672C120.915 160.167 121.051 160.769 121.051 161.478V166H119.791V161.66C119.791 160.895 119.599 160.311 119.217 159.91C118.843 159.499 118.335 159.294 117.691 159.294C117.028 159.294 116.501 159.509 116.109 159.938C115.717 160.358 115.521 160.969 115.521 161.772V166H114.261V161.66C114.261 160.895 114.069 160.311 113.687 159.91C113.313 159.499 112.805 159.294 112.161 159.294C111.498 159.294 110.971 159.509 110.579 159.938C110.187 160.358 109.991 160.969 109.991 161.772V166H108.717V158.328H109.991V159.434C110.243 159.033 110.579 158.725 110.999 158.51C111.428 158.295 111.899 158.188 112.413 158.188C113.057 158.188 113.626 158.333 114.121 158.622C114.615 158.911 114.984 159.336 115.227 159.896C115.441 159.355 115.796 158.935 116.291 158.636C116.785 158.337 117.336 158.188 117.943 158.188ZM124.415 159.756C124.676 159.299 125.059 158.925 125.562 158.636C126.067 158.347 126.641 158.202 127.285 158.202C127.975 158.202 128.596 158.365 129.147 158.692C129.697 159.019 130.131 159.481 130.449 160.078C130.766 160.666 130.925 161.352 130.925 162.136C130.925 162.911 130.766 163.601 130.449 164.208C130.131 164.815 129.692 165.286 129.132 165.622C128.582 165.958 127.966 166.126 127.285 166.126C126.622 166.126 126.039 165.981 125.535 165.692C125.04 165.403 124.667 165.034 124.415 164.586V166H123.141V155.64H124.415V159.756ZM129.623 162.136C129.623 161.557 129.506 161.053 129.273 160.624C129.039 160.195 128.722 159.868 128.321 159.644C127.929 159.42 127.495 159.308 127.019 159.308C126.552 159.308 126.118 159.425 125.717 159.658C125.325 159.882 125.007 160.213 124.765 160.652C124.531 161.081 124.415 161.581 124.415 162.15C124.415 162.729 124.531 163.237 124.765 163.676C125.007 164.105 125.325 164.437 125.717 164.67C126.118 164.894 126.552 165.006 127.019 165.006C127.495 165.006 127.929 164.894 128.321 164.67C128.722 164.437 129.039 164.105 129.273 163.676C129.506 163.237 129.623 162.724 129.623 162.136ZM133.259 157.082C133.017 157.082 132.811 156.998 132.643 156.83C132.475 156.662 132.391 156.457 132.391 156.214C132.391 155.971 132.475 155.766 132.643 155.598C132.811 155.43 133.017 155.346 133.259 155.346C133.493 155.346 133.689 155.43 133.847 155.598C134.015 155.766 134.099 155.971 134.099 156.214C134.099 156.457 134.015 156.662 133.847 156.83C133.689 156.998 133.493 157.082 133.259 157.082ZM133.875 158.328V166H132.601V158.328H133.875ZM139.785 158.188C140.718 158.188 141.474 158.473 142.053 159.042C142.631 159.602 142.921 160.414 142.921 161.478V166H141.661V161.66C141.661 160.895 141.469 160.311 141.087 159.91C140.704 159.499 140.181 159.294 139.519 159.294C138.847 159.294 138.31 159.504 137.909 159.924C137.517 160.344 137.321 160.955 137.321 161.758V166H136.047V158.328H137.321V159.42C137.573 159.028 137.913 158.725 138.343 158.51C138.781 158.295 139.262 158.188 139.785 158.188ZM148.166 158.202C148.828 158.202 149.407 158.347 149.902 158.636C150.406 158.925 150.779 159.289 151.022 159.728V158.328H152.31V166.168C152.31 166.868 152.16 167.489 151.862 168.03C151.563 168.581 151.134 169.01 150.574 169.318C150.023 169.626 149.379 169.78 148.642 169.78C147.634 169.78 146.794 169.542 146.122 169.066C145.45 168.59 145.053 167.941 144.932 167.12H146.192C146.332 167.587 146.621 167.96 147.06 168.24C147.498 168.529 148.026 168.674 148.642 168.674C149.342 168.674 149.911 168.455 150.35 168.016C150.798 167.577 151.022 166.961 151.022 166.168V164.558C150.77 165.006 150.396 165.379 149.902 165.678C149.407 165.977 148.828 166.126 148.166 166.126C147.484 166.126 146.864 165.958 146.304 165.622C145.753 165.286 145.319 164.815 145.002 164.208C144.684 163.601 144.526 162.911 144.526 162.136C144.526 161.352 144.684 160.666 145.002 160.078C145.319 159.481 145.753 159.019 146.304 158.692C146.864 158.365 147.484 158.202 148.166 158.202ZM151.022 162.15C151.022 161.571 150.905 161.067 150.672 160.638C150.438 160.209 150.121 159.882 149.72 159.658C149.328 159.425 148.894 159.308 148.418 159.308C147.942 159.308 147.508 159.42 147.116 159.644C146.724 159.868 146.411 160.195 146.178 160.624C145.944 161.053 145.828 161.557 145.828 162.136C145.828 162.724 145.944 163.237 146.178 163.676C146.411 164.105 146.724 164.437 147.116 164.67C147.508 164.894 147.942 165.006 148.418 165.006C148.894 165.006 149.328 164.894 149.72 164.67C150.121 164.437 150.438 164.105 150.672 163.676C150.905 163.237 151.022 162.729 151.022 162.15ZM155.779 164.236L154.211 168.002H153.357L154.379 164.236H155.779ZM14.602 180.098C14.602 180.91 14.322 181.587 13.762 182.128C13.2113 182.66 12.3667 182.926 11.228 182.926H9.352V187H8.078V177.242H11.228C12.3293 177.242 13.1647 177.508 13.734 178.04C14.3127 178.572 14.602 179.258 14.602 180.098ZM11.228 181.876C11.9373 181.876 12.46 181.722 12.796 181.414C13.132 181.106 13.3 180.667 13.3 180.098C13.3 178.894 12.6093 178.292 11.228 178.292H9.352V181.876H11.228ZM15.7094 183.136C15.7094 182.352 15.8681 181.666 16.1854 181.078C16.5028 180.481 16.9368 180.019 17.4874 179.692C18.0474 179.365 18.6681 179.202 19.3494 179.202C20.0214 179.202 20.6048 179.347 21.0994 179.636C21.5941 179.925 21.9628 180.289 22.2054 180.728V179.328H23.4934V187H22.2054V185.572C21.9534 186.02 21.5754 186.393 21.0714 186.692C20.5768 186.981 19.9981 187.126 19.3354 187.126C18.6541 187.126 18.0381 186.958 17.4874 186.622C16.9368 186.286 16.5028 185.815 16.1854 185.208C15.8681 184.601 15.7094 183.911 15.7094 183.136ZM22.2054 183.15C22.2054 182.571 22.0888 182.067 21.8554 181.638C21.6221 181.209 21.3048 180.882 20.9034 180.658C20.5114 180.425 20.0774 180.308 19.6014 180.308C19.1254 180.308 18.6914 180.42 18.2994 180.644C17.9074 180.868 17.5948 181.195 17.3614 181.624C17.1281 182.053 17.0114 182.557 17.0114 183.136C17.0114 183.724 17.1281 184.237 17.3614 184.676C17.5948 185.105 17.9074 185.437 18.2994 185.67C18.6914 185.894 19.1254 186.006 19.6014 186.006C20.0774 186.006 20.5114 185.894 20.9034 185.67C21.3048 185.437 21.6221 185.105 21.8554 184.676C22.0888 184.237 22.2054 183.729 22.2054 183.15ZM26.3044 178.082C26.0617 178.082 25.8564 177.998 25.6884 177.83C25.5204 177.662 25.4364 177.457 25.4364 177.214C25.4364 176.971 25.5204 176.766 25.6884 176.598C25.8564 176.43 26.0617 176.346 26.3044 176.346C26.5377 176.346 26.7337 176.43 26.8924 176.598C27.0604 176.766 27.1444 176.971 27.1444 177.214C27.1444 177.457 27.0604 177.662 26.8924 177.83C26.7337 177.998 26.5377 178.082 26.3044 178.082ZM26.9204 179.328V187H25.6464V179.328H26.9204ZM32.8297 179.188C33.763 179.188 34.519 179.473 35.0977 180.042C35.6763 180.602 35.9657 181.414 35.9657 182.478V187H34.7057V182.66C34.7057 181.895 34.5143 181.311 34.1317 180.91C33.749 180.499 33.2263 180.294 32.5637 180.294C31.8917 180.294 31.355 180.504 30.9537 180.924C30.5617 181.344 30.3657 181.955 30.3657 182.758V187H29.0917V179.328H30.3657V180.42C30.6177 180.028 30.9583 179.725 31.3877 179.51C31.8263 179.295 32.307 179.188 32.8297 179.188ZM39.6008 180.378V184.9C39.6008 185.273 39.6801 185.539 39.8388 185.698C39.9974 185.847 40.2728 185.922 40.6647 185.922H41.6028V187H40.4548C39.7454 187 39.2134 186.837 38.8588 186.51C38.5041 186.183 38.3268 185.647 38.3268 184.9V180.378H37.3328V179.328H38.3268V177.396H39.6008V179.328H41.6028V180.378H39.6008ZM44.4624 185.236L42.8944 189.002H42.0404L43.0624 185.236H44.4624ZM50.9282 178.278V181.54H54.4842V182.59H50.9282V185.95H54.9042V187H49.6542V177.228H54.9042V178.278H50.9282ZM58.1059 176.64V187H56.8319V176.64H58.1059ZM67.2772 182.87C67.2772 183.113 67.2632 183.369 67.2352 183.64H61.1032C61.1499 184.396 61.4066 184.989 61.8732 185.418C62.3492 185.838 62.9232 186.048 63.5952 186.048C64.1459 186.048 64.6032 185.922 64.9672 185.67C65.3406 185.409 65.6019 185.063 65.7512 184.634H67.1232C66.9179 185.371 66.5072 185.973 65.8912 186.44C65.2752 186.897 64.5099 187.126 63.5952 187.126C62.8672 187.126 62.2139 186.963 61.6352 186.636C61.0659 186.309 60.6179 185.847 60.2912 185.25C59.9646 184.643 59.8012 183.943 59.8012 183.15C59.8012 182.357 59.9599 181.661 60.2772 181.064C60.5946 180.467 61.0379 180.009 61.6072 179.692C62.1859 179.365 62.8486 179.202 63.5952 179.202C64.3232 179.202 64.9672 179.361 65.5272 179.678C66.0872 179.995 66.5166 180.434 66.8152 180.994C67.1232 181.545 67.2772 182.17 67.2772 182.87ZM65.9612 182.604C65.9612 182.119 65.8539 181.703 65.6392 181.358C65.4246 181.003 65.1306 180.737 64.7572 180.56C64.3932 180.373 63.9872 180.28 63.5392 180.28C62.8952 180.28 62.3446 180.485 61.8872 180.896C61.4392 181.307 61.1826 181.876 61.1172 182.604H65.9612ZM68.4829 183.15C68.4829 182.357 68.6415 181.666 68.9589 181.078C69.2762 180.481 69.7149 180.019 70.2749 179.692C70.8442 179.365 71.4929 179.202 72.2209 179.202C73.1635 179.202 73.9382 179.431 74.5449 179.888C75.1609 180.345 75.5669 180.98 75.7629 181.792H74.3909C74.2602 181.325 74.0035 180.957 73.6209 180.686C73.2475 180.415 72.7809 180.28 72.2209 180.28C71.4929 180.28 70.9049 180.532 70.4569 181.036C70.0089 181.531 69.7849 182.235 69.7849 183.15C69.7849 184.074 70.0089 184.788 70.4569 185.292C70.9049 185.796 71.4929 186.048 72.2209 186.048C72.7809 186.048 73.2475 185.917 73.6209 185.656C73.9942 185.395 74.2509 185.021 74.3909 184.536H75.7629C75.5575 185.32 75.1469 185.95 74.5309 186.426C73.9149 186.893 73.1449 187.126 72.2209 187.126C71.4929 187.126 70.8442 186.963 70.2749 186.636C69.7149 186.309 69.2762 185.847 68.9589 185.25C68.6415 184.653 68.4829 183.953 68.4829 183.15ZM79.0168 180.378V184.9C79.0168 185.273 79.0961 185.539 79.2548 185.698C79.4134 185.847 79.6888 185.922 80.0808 185.922H81.0188V187H79.8708C79.1614 187 78.6294 186.837 78.2748 186.51C77.9201 186.183 77.7428 185.647 77.7428 184.9V180.378H76.7488V179.328H77.7428V177.396H79.0168V179.328H81.0188V180.378H79.0168ZM83.8364 180.574C84.0604 180.135 84.3777 179.795 84.7884 179.552C85.2084 179.309 85.717 179.188 86.3144 179.188V180.504H85.9784C84.5504 180.504 83.8364 181.279 83.8364 182.828V187H82.5624V179.328H83.8364V180.574ZM88.443 178.082C88.2004 178.082 87.995 177.998 87.827 177.83C87.659 177.662 87.575 177.457 87.575 177.214C87.575 176.971 87.659 176.766 87.827 176.598C87.995 176.43 88.2004 176.346 88.443 176.346C88.6764 176.346 88.8724 176.43 89.031 176.598C89.199 176.766 89.283 176.971 89.283 177.214C89.283 177.457 89.199 177.662 89.031 177.83C88.8724 177.998 88.6764 178.082 88.443 178.082ZM89.059 179.328V187H87.785V179.328H89.059ZM90.7543 183.15C90.7543 182.357 90.913 181.666 91.2303 181.078C91.5477 180.481 91.9863 180.019 92.5463 179.692C93.1157 179.365 93.7643 179.202 94.4923 179.202C95.435 179.202 96.2097 179.431 96.8163 179.888C97.4323 180.345 97.8383 180.98 98.0343 181.792H96.6623C96.5317 181.325 96.275 180.957 95.8923 180.686C95.519 180.415 95.0523 180.28 94.4923 180.28C93.7643 180.28 93.1763 180.532 92.7283 181.036C92.2803 181.531 92.0563 182.235 92.0563 183.15C92.0563 184.074 92.2803 184.788 92.7283 185.292C93.1763 185.796 93.7643 186.048 94.4923 186.048C95.0523 186.048 95.519 185.917 95.8923 185.656C96.2657 185.395 96.5223 185.021 96.6623 184.536H98.0343C97.829 185.32 97.4183 185.95 96.8023 186.426C96.1863 186.893 95.4163 187.126 94.4923 187.126C93.7643 187.126 93.1157 186.963 92.5463 186.636C91.9863 186.309 91.5477 185.847 91.2303 185.25C90.913 184.653 90.7543 183.953 90.7543 183.15ZM100.392 178.082C100.15 178.082 99.9443 177.998 99.7763 177.83C99.6083 177.662 99.5243 177.457 99.5243 177.214C99.5243 176.971 99.6083 176.766 99.7763 176.598C99.9443 176.43 100.15 176.346 100.392 176.346C100.626 176.346 100.822 176.43 100.98 176.598C101.148 176.766 101.232 176.971 101.232 177.214C101.232 177.457 101.148 177.662 100.98 177.83C100.822 177.998 100.626 178.082 100.392 178.082ZM101.008 179.328V187H99.7343V179.328H101.008ZM104.734 180.378V184.9C104.734 185.273 104.813 185.539 104.972 185.698C105.13 185.847 105.406 185.922 105.798 185.922H106.736V187H105.588C104.878 187 104.346 186.837 103.992 186.51C103.637 186.183 103.46 185.647 103.46 184.9V180.378H102.466V179.328H103.46V177.396H104.734V179.328H106.736V180.378H104.734ZM114.887 179.328L110.267 190.612H108.951L110.463 186.916L107.369 179.328H108.783L111.191 185.544L113.571 179.328H114.887Z" fill="white"/>
<rect x="16.5" y="13.5" width="132" height="31" rx="15.5" fill="#FB8C00" stroke="#FE4820"/>
<path d="M36.38 25.172V35H33.986V30.954H30.262V35H27.868V25.172H30.262V29.022H33.986V25.172H36.38ZM37.6322 31.08C37.6322 30.2773 37.7816 29.5727 38.0802 28.966C38.3882 28.3593 38.8036 27.8927 39.3262 27.566C39.8489 27.2393 40.4322 27.076 41.0762 27.076C41.6269 27.076 42.1076 27.188 42.5182 27.412C42.9382 27.636 43.2602 27.93 43.4842 28.294V27.188H45.8782V35H43.4842V33.894C43.2509 34.258 42.9242 34.552 42.5042 34.776C42.0936 35 41.6129 35.112 41.0622 35.112C40.4276 35.112 39.8489 34.9487 39.3262 34.622C38.8036 34.286 38.3882 33.8147 38.0802 33.208C37.7816 32.592 37.6322 31.8827 37.6322 31.08ZM43.4842 31.094C43.4842 30.4967 43.3162 30.0253 42.9802 29.68C42.6536 29.3347 42.2522 29.162 41.7762 29.162C41.3002 29.162 40.8942 29.3347 40.5582 29.68C40.2316 30.016 40.0682 30.4827 40.0682 31.08C40.0682 31.6773 40.2316 32.1533 40.5582 32.508C40.8942 32.8533 41.3002 33.026 41.7762 33.026C42.2522 33.026 42.6536 32.8533 42.9802 32.508C43.3162 32.1627 43.4842 31.6913 43.4842 31.094ZM50.0042 28.49C50.2842 28.0607 50.6342 27.7247 51.0542 27.482C51.4742 27.23 51.9409 27.104 52.4542 27.104V29.638H51.7962C51.1989 29.638 50.7509 29.7687 50.4522 30.03C50.1535 30.282 50.0042 30.73 50.0042 31.374V35H47.6102V27.188H50.0042V28.49ZM53.1225 31.08C53.1225 30.2773 53.2718 29.5727 53.5705 28.966C53.8785 28.3593 54.2938 27.8927 54.8165 27.566C55.3391 27.2393 55.9225 27.076 56.5665 27.076C57.0798 27.076 57.5465 27.1833 57.9665 27.398C58.3958 27.6127 58.7318 27.902 58.9745 28.266V24.64H61.3685V35H58.9745V33.88C58.7505 34.2533 58.4285 34.552 58.0085 34.776C57.5978 35 57.1171 35.112 56.5665 35.112C55.9225 35.112 55.3391 34.9487 54.8165 34.622C54.2938 34.286 53.8785 33.8147 53.5705 33.208C53.2718 32.592 53.1225 31.8827 53.1225 31.08ZM58.9745 31.094C58.9745 30.4967 58.8065 30.0253 58.4705 29.68C58.1438 29.3347 57.7425 29.162 57.2665 29.162C56.7905 29.162 56.3845 29.3347 56.0485 29.68C55.7218 30.016 55.5585 30.4827 55.5585 31.08C55.5585 31.6773 55.7218 32.1533 56.0485 32.508C56.3845 32.8533 56.7905 33.026 57.2665 33.026C57.7425 33.026 58.1438 32.8533 58.4705 32.508C58.8065 32.1627 58.9745 31.6913 58.9745 31.094ZM74.3144 27.188L72.2004 35H69.5544L68.3224 29.932L67.0484 35H64.4164L62.2884 27.188H64.6824L65.7884 32.774L67.1044 27.188H69.6384L70.9684 32.746L72.0604 27.188H74.3144ZM74.7514 31.08C74.7514 30.2773 74.9007 29.5727 75.1994 28.966C75.5074 28.3593 75.9227 27.8927 76.4454 27.566C76.968 27.2393 77.5514 27.076 78.1954 27.076C78.746 27.076 79.2267 27.188 79.6374 27.412C80.0574 27.636 80.3794 27.93 80.6034 28.294V27.188H82.9974V35H80.6034V33.894C80.37 34.258 80.0434 34.552 79.6234 34.776C79.2127 35 78.732 35.112 78.1814 35.112C77.5467 35.112 76.968 34.9487 76.4454 34.622C75.9227 34.286 75.5074 33.8147 75.1994 33.208C74.9007 32.592 74.7514 31.8827 74.7514 31.08ZM80.6034 31.094C80.6034 30.4967 80.4354 30.0253 80.0994 29.68C79.7727 29.3347 79.3714 29.162 78.8954 29.162C78.4194 29.162 78.0134 29.3347 77.6774 29.68C77.3507 30.016 77.1874 30.4827 77.1874 31.08C77.1874 31.6773 77.3507 32.1533 77.6774 32.508C78.0134 32.8533 78.4194 33.026 78.8954 33.026C79.3714 33.026 79.7727 32.8533 80.0994 32.508C80.4354 32.1627 80.6034 31.6913 80.6034 31.094ZM87.1233 28.49C87.4033 28.0607 87.7533 27.7247 88.1733 27.482C88.5933 27.23 89.06 27.104 89.5733 27.104V29.638H88.9153C88.318 29.638 87.87 29.7687 87.5713 30.03C87.2727 30.282 87.1233 30.73 87.1233 31.374V35H84.7293V27.188H87.1233V28.49ZM98.0816 30.968C98.0816 31.192 98.0676 31.4253 98.0396 31.668H92.6216C92.6589 32.1533 92.8129 32.5267 93.0836 32.788C93.3636 33.04 93.7043 33.166 94.1056 33.166C94.7029 33.166 95.1183 32.914 95.3516 32.41H97.8996C97.7689 32.9233 97.5309 33.3853 97.1856 33.796C96.8496 34.2067 96.4249 34.5287 95.9116 34.762C95.3983 34.9953 94.8243 35.112 94.1896 35.112C93.4243 35.112 92.7429 34.9487 92.1456 34.622C91.5483 34.2953 91.0816 33.8287 90.7456 33.222C90.4096 32.6153 90.2416 31.906 90.2416 31.094C90.2416 30.282 90.4049 29.5727 90.7316 28.966C91.0676 28.3593 91.5343 27.8927 92.1316 27.566C92.7289 27.2393 93.4149 27.076 94.1896 27.076C94.9456 27.076 95.6176 27.2347 96.2056 27.552C96.7936 27.8693 97.2509 28.322 97.5776 28.91C97.9136 29.498 98.0816 30.184 98.0816 30.968ZM95.6316 30.338C95.6316 29.9273 95.4916 29.6007 95.2116 29.358C94.9316 29.1153 94.5816 28.994 94.1616 28.994C93.7603 28.994 93.4196 29.1107 93.1396 29.344C92.8689 29.5773 92.7009 29.9087 92.6356 30.338H95.6316ZM105.867 35.098C105.149 35.098 104.505 34.9813 103.935 34.748C103.366 34.5147 102.909 34.1693 102.563 33.712C102.227 33.2547 102.05 32.704 102.031 32.06H104.579C104.617 32.424 104.743 32.704 104.957 32.9C105.172 33.0867 105.452 33.18 105.797 33.18C106.152 33.18 106.432 33.1007 106.637 32.942C106.843 32.774 106.945 32.5453 106.945 32.256C106.945 32.0133 106.861 31.8127 106.693 31.654C106.535 31.4953 106.334 31.3647 106.091 31.262C105.858 31.1593 105.522 31.0427 105.083 30.912C104.449 30.716 103.931 30.52 103.529 30.324C103.128 30.128 102.783 29.8387 102.493 29.456C102.204 29.0733 102.059 28.574 102.059 27.958C102.059 27.0433 102.391 26.3293 103.053 25.816C103.716 25.2933 104.579 25.032 105.643 25.032C106.726 25.032 107.599 25.2933 108.261 25.816C108.924 26.3293 109.279 27.048 109.325 27.972H106.735C106.717 27.6547 106.6 27.4073 106.385 27.23C106.171 27.0433 105.895 26.95 105.559 26.95C105.27 26.95 105.037 27.0293 104.859 27.188C104.682 27.3373 104.593 27.5567 104.593 27.846C104.593 28.1633 104.743 28.4107 105.041 28.588C105.34 28.7653 105.807 28.9567 106.441 29.162C107.076 29.3767 107.589 29.582 107.981 29.778C108.383 29.974 108.728 30.2587 109.017 30.632C109.307 31.0053 109.451 31.486 109.451 32.074C109.451 32.634 109.307 33.1427 109.017 33.6C108.737 34.0573 108.327 34.4213 107.785 34.692C107.244 34.9627 106.605 35.098 105.867 35.098ZM115.279 32.97V35H114.061C113.193 35 112.516 34.79 112.031 34.37C111.545 33.9407 111.303 33.2453 111.303 32.284V29.176H110.351V27.188H111.303V25.284H113.697V27.188H115.265V29.176H113.697V32.312C113.697 32.5453 113.753 32.7133 113.865 32.816C113.977 32.9187 114.163 32.97 114.425 32.97H115.279ZM120.168 35.112C119.403 35.112 118.712 34.9487 118.096 34.622C117.489 34.2953 117.009 33.8287 116.654 33.222C116.309 32.6153 116.136 31.906 116.136 31.094C116.136 30.2913 116.313 29.5867 116.668 28.98C117.023 28.364 117.508 27.8927 118.124 27.566C118.74 27.2393 119.431 27.076 120.196 27.076C120.961 27.076 121.652 27.2393 122.268 27.566C122.884 27.8927 123.369 28.364 123.724 28.98C124.079 29.5867 124.256 30.2913 124.256 31.094C124.256 31.8967 124.074 32.606 123.71 33.222C123.355 33.8287 122.865 34.2953 122.24 34.622C121.624 34.9487 120.933 35.112 120.168 35.112ZM120.168 33.04C120.625 33.04 121.013 32.872 121.33 32.536C121.657 32.2 121.82 31.7193 121.82 31.094C121.82 30.4687 121.661 29.988 121.344 29.652C121.036 29.316 120.653 29.148 120.196 29.148C119.729 29.148 119.342 29.316 119.034 29.652C118.726 29.9787 118.572 30.4593 118.572 31.094C118.572 31.7193 118.721 32.2 119.02 32.536C119.328 32.872 119.711 33.04 120.168 33.04ZM127.92 28.49C128.2 28.0607 128.55 27.7247 128.97 27.482C129.39 27.23 129.857 27.104 130.37 27.104V29.638H129.712C129.115 29.638 128.667 29.7687 128.368 30.03C128.07 30.282 127.92 30.73 127.92 31.374V35H125.526V27.188H127.92V28.49ZM138.878 30.968C138.878 31.192 138.864 31.4253 138.836 31.668H133.418C133.456 32.1533 133.61 32.5267 133.88 32.788C134.16 33.04 134.501 33.166 134.902 33.166C135.5 33.166 135.915 32.914 136.148 32.41H138.696C138.566 32.9233 138.328 33.3853 137.982 33.796C137.646 34.2067 137.222 34.5287 136.708 34.762C136.195 34.9953 135.621 35.112 134.986 35.112C134.221 35.112 133.54 34.9487 132.942 34.622C132.345 34.2953 131.878 33.8287 131.542 33.222C131.206 32.6153 131.038 31.906 131.038 31.094C131.038 30.282 131.202 29.5727 131.528 28.966C131.864 28.3593 132.331 27.8927 132.928 27.566C133.526 27.2393 134.212 27.076 134.986 27.076C135.742 27.076 136.414 27.2347 137.002 27.552C137.59 27.8693 138.048 28.322 138.374 28.91C138.71 29.498 138.878 30.184 138.878 30.968ZM136.428 30.338C136.428 29.9273 136.288 29.6007 136.008 29.358C135.728 29.1153 135.378 28.994 134.958 28.994C134.557 28.994 134.216 29.1107 133.936 29.344C133.666 29.5773 133.498 29.9087 133.432 30.338H136.428Z" fill="#F9F9F9"/>
<path d="M71.0438 134.806C71.0438 133.593 68.6942 130.2 68.6942 130.2C68.6942 130.2 66.3092 133.593 66.3092 134.806C66.3092 136.018 67.3696 137 68.6768 137C69.984 137 71.0438 136.018 71.0438 134.806ZM54.0551 115.8H49.3205V111.401H50.6115V109H42V111.401H43.2917V118.2C43.2917 119.967 44.8339 121.4 46.7359 121.4H54.0551V122.6H56.6391V114.601H54.0551V115.8ZM71.707 125.799V119C71.707 117.233 70.1654 115.8 68.2654 115.8H60.9449V114.601H58.3609V122.601H60.9449V121.4H65.6801V125.799H64.3904V128.2H73V125.799H71.707Z" fill="#FB8C00"/>
</g>
<defs>
<clipPath id="clip0_3531_371">
<rect width="167" height="199" rx="17.72" fill="white"/>
</clipPath>
</defs>
</svg>
