<svg width="167" height="203" viewBox="0 0 167 203" fill="none" xmlns="http://www.w3.org/2000/svg">
<path d="M0.553846 17.7231C0.553846 8.24079 8.24077 0.553846 17.7231 0.553846H148.431C157.913 0.553846 165.6 8.24077 165.6 17.7231V184.985C165.6 194.467 157.913 202.154 148.431 202.154H17.7231C8.24077 202.154 0.553846 194.467 0.553846 184.985V17.7231Z" fill="#F8EFFF" stroke="#CFB0EA" stroke-width="1.10769"/>
<path d="M149.832 59.7042C148.777 56.2843 149.955 52.6594 149.299 49.1835C148.758 46.2575 147.418 43.5085 145.822 41.0018C142.933 36.4636 137.08 34.4135 131.911 33.7798C128.414 33.3512 124.718 33.8078 121.525 32.0372C119.197 30.7513 116.727 29.3908 114.18 28.4216C107.786 26.0081 100.45 25.6819 93.6562 25.4862L93.2191 25.4769L92.782 25.4862C85.9976 25.6819 78.6621 26.0081 72.2673 28.4216C69.7208 29.3814 67.2503 30.742 64.9223 32.0372C61.7297 33.8078 58.0334 33.3512 54.5272 33.7798C49.3677 34.4042 43.5145 36.4543 40.6259 41.0018C39.0296 43.5085 37.6993 46.2575 37.1482 49.1835C36.4925 52.6594 37.6708 56.2843 36.6161 59.7042C36.3785 60.4777 35.3808 61.6239 35.7704 62.4905C36.1695 63.3944 38.3644 64.056 39.1911 64.522C41.9562 66.1155 44.9968 67.243 48.0754 68.1376C50.1373 68.7433 52.2848 69.992 54.5177 69.6845C55.4774 69.554 56.2186 69.172 56.3611 68.2028C56.7887 65.2395 57.8529 62.2203 58.8411 59.4061C59.1071 58.6419 59.5062 57.2814 60.6275 57.3746C61.3876 57.4398 61.8152 59.0426 61.7677 59.6297C61.5871 61.8568 61.055 64.0654 60.9695 66.3018C60.8745 68.6501 61.5586 70.5604 62.3188 72.7317C63.174 75.1452 64.2192 77.5028 64.9603 79.9536C65.749 82.6281 65.2739 85.4516 64.4757 88.0702C62.5563 94.3136 59.9528 100.026 57.4063 106.027C56.4466 108.273 55.6104 110.565 54.6697 112.82C54.2428 113.842 53.7865 114.852 53.3015 115.849C51.9807 118.57 49.1491 120.611 49.5102 124.003C50.0803 129.333 55.1733 132.427 59.4017 134.989C69.4452 141.084 81.4177 143.973 93.2286 143.917C105.049 143.973 117.021 141.093 127.074 134.989C131.293 132.427 136.396 129.333 136.966 124.003C137.327 120.62 134.486 118.57 133.175 115.849C132.7 114.861 132.234 113.836 131.816 112.82C130.885 110.565 130.039 108.273 129.079 106.027C126.523 100.026 123.92 94.3136 122.01 88.0702C121.212 85.4516 120.727 82.6281 121.525 79.9536C122.257 77.4935 123.312 75.1452 124.157 72.7317C124.927 70.5604 125.602 68.6501 125.516 66.3018C125.44 64.056 124.899 61.8568 124.718 59.6297C124.68 59.0519 125.098 57.4398 125.849 57.3746C126.979 57.2907 127.379 58.6419 127.645 59.4061C128.633 62.2296 129.697 65.2488 130.125 68.2028C130.267 69.172 131.008 69.554 131.968 69.6845C134.21 69.992 136.339 68.7433 138.41 68.1376C141.489 67.243 144.52 66.1155 147.295 64.522C148.112 64.056 150.307 63.3944 150.715 62.4905C151.067 61.6239 150.079 60.4777 149.832 59.7042Z" fill="#FFBB00"/>
<path d="M83.5666 50.0035C81.0961 51.0751 78.255 50.898 75.756 49.9941L75.5944 49.9382C74.1787 49.4071 72.6774 48.4938 71.5181 47.5247C67.8124 44.3657 67.4418 38.8584 68.9051 34.5532C69.2852 33.4256 70.5964 31.9067 71.9647 32.1862C72.1642 32.2328 72.3733 32.3074 72.5823 32.4099C73.9506 33.1088 74.9768 34.2363 76.2216 35.103C78.388 36.6126 80.6305 37.2742 83.0725 38.2061C84.7828 38.8491 86.5407 39.3802 88.3175 39.753C88.7926 39.8461 89.3247 40.0046 89.7618 40.163C90.446 40.4146 90.484 41.1601 90.5125 41.7751C90.598 43.35 88.9257 45.3441 87.985 46.4996C86.7972 47.944 85.3434 49.2393 83.5666 50.0035ZM114.258 47.5154C113.108 48.4938 111.607 49.3977 110.181 49.9289L110.029 49.9848C107.54 50.8887 104.689 51.0658 102.219 49.9941C100.442 49.23 98.9882 47.944 97.7909 46.4717C96.8503 45.3255 95.1779 43.322 95.2634 41.7471C95.3014 41.1321 95.3394 40.3866 96.0236 40.135C96.4702 39.9673 97.0023 39.8182 97.4679 39.725C99.2542 39.3523 101.012 38.8211 102.722 38.1781C105.164 37.2556 107.407 36.5846 109.573 35.075C110.818 34.2084 111.854 33.0715 113.213 32.3819C113.422 32.2794 113.631 32.1956 113.83 32.1583C115.198 31.8787 116.5 33.407 116.88 34.5252C118.344 38.8491 117.973 44.3564 114.258 47.5154Z" fill="white"/>
<path d="M92.9244 125.447C95.3804 125.447 97.3714 123.494 97.3714 121.086C97.3714 118.677 95.3804 116.725 92.9244 116.725C90.4685 116.725 88.4775 118.677 88.4775 121.086C88.4775 123.494 90.4685 125.447 92.9244 125.447Z" fill="#F79329"/>
<path d="M92.9244 103.036C95.3804 103.036 97.3714 101.083 97.3714 98.6748C97.3714 96.2663 95.3804 94.3137 92.9244 94.3137C90.4685 94.3137 88.4775 96.2663 88.4775 98.6748C88.4775 101.083 90.4685 103.036 92.9244 103.036Z" fill="#F79329"/>
<path d="M92.9244 80.6337C95.3804 80.6337 97.3714 78.6812 97.3714 76.2726C97.3714 73.864 95.3804 71.9115 92.9244 71.9115C90.4685 71.9115 88.4775 73.864 88.4775 76.2726C88.4775 78.6812 90.4685 80.6337 92.9244 80.6337Z" fill="#F97837"/>
<path d="M92.9244 58.2226C95.3804 58.2226 97.3714 56.2701 97.3714 53.8615C97.3714 51.4529 95.3804 49.5004 92.9244 49.5004C90.4685 49.5004 88.4775 51.4529 88.4775 53.8615C88.4775 56.2701 90.4685 58.2226 92.9244 58.2226Z" fill="#F97837"/>
<path d="M160.526 99.6498C158.446 96.258 149.585 83.7627 140.683 79.1155C138.493 77.9776 132.413 76.5093 129.701 75.8632C126.121 74.7693 124.934 74.9235 123.772 75.4007C119.341 77.2287 116.368 78.1024 111.829 78.1024C111.703 78.1024 111.585 78.095 111.467 78.095C111.349 78.1024 111.231 78.1024 111.105 78.1024C106.565 78.1024 103.592 77.2287 99.1619 75.4007C97.9996 74.9235 96.8121 74.7693 93.2327 75.8632C90.5208 76.5093 84.4399 77.9776 82.2502 79.1155C73.3479 83.7554 64.4878 96.258 62.4075 99.6498C62.1127 100.12 61.7422 100.538 61.9611 101.03C62.9886 103.313 66.7028 106.301 74.7292 110.442C75.2935 110.736 75.9925 110.772 76.5062 110.42C78.6118 108.974 83.7325 103.482 83.7325 103.482C83.7325 103.482 87.3793 116.418 85.8464 127.599C84.3052 138.78 81.669 147.473 81.669 147.473C81.5932 148.023 81.9217 148.559 82.5113 148.802C85.0463 149.866 97.2753 152.267 111.475 152.289C125.675 152.274 137.904 149.866 140.439 148.802C141.029 148.559 141.357 148.016 141.281 147.473C141.281 147.473 138.637 138.788 137.104 127.599C135.563 116.418 139.218 103.482 139.218 103.482C139.218 103.482 144.338 108.974 146.444 110.42C146.958 110.772 147.657 110.736 148.221 110.442C156.247 106.309 159.97 103.321 160.989 101.03C161.2 100.531 160.821 100.12 160.526 99.6498Z" fill="#CFB0EA"/>
<path d="M126.948 72.6256C126.342 72.1264 124.935 71.1059 122.518 71.7006C119.899 72.3393 115.923 72.8018 111.384 72.8165C106.853 72.8018 102.877 72.3466 100.258 71.7006C97.8494 71.1133 96.4429 72.1337 95.8281 72.6256C94.8511 73.4185 91.8359 75.4595 91.8359 76.2597C91.8359 79.0568 93.453 87.5437 102.439 88.9092C106.886 89.5846 109.699 86.3103 110.828 84.6364C110.954 84.4529 111.165 84.3574 111.384 84.3501C111.603 84.3648 111.813 84.4529 111.94 84.6364C113.068 86.3176 115.881 89.5846 120.328 88.9092C129.315 87.551 130.94 79.0642 130.94 76.267C130.94 75.4595 127.925 73.4185 126.948 72.6256Z" fill="#EEEEEE"/>
<path d="M91.9255 76.2667C92.3045 78.4765 93.0457 80.6203 94.2922 82.4777C95.4797 84.3498 97.1557 85.9135 99.2023 86.8092C100.221 87.2644 101.333 87.5434 102.462 87.7196C103.54 87.8884 104.525 87.7856 105.46 87.4332C106.395 87.0882 107.262 86.5156 108.012 85.7887C108.391 85.429 108.736 85.0326 109.056 84.6214C109.216 84.4159 109.368 84.203 109.511 83.9827L109.629 83.7992C109.772 83.5789 109.983 83.3807 110.235 83.2265C110.671 82.9624 111.207 82.8539 111.732 82.9236C112.257 82.9932 112.731 83.2357 113.057 83.601L113.183 83.7551L113.217 83.7992L113.469 84.1516C113.629 84.3792 113.798 84.5994 113.958 84.8123C114.286 85.2381 114.632 85.6346 115.002 85.9943C115.743 86.7138 116.603 87.2497 117.537 87.5654C118.472 87.8884 119.525 87.9545 120.611 87.8077C121.723 87.6388 122.869 87.3598 123.879 86.9193C125.934 86.0457 127.577 84.4819 128.646 82.5658C129.211 81.6187 129.648 80.5909 129.985 79.5264C130.314 78.4619 130.558 77.368 130.836 76.2594L131.004 76.2741C130.802 78.4986 130.465 80.7671 129.48 82.8595C128.528 84.9518 126.835 86.8386 124.536 87.9325C123.408 88.4978 122.161 88.8575 120.881 89.0778C119.601 89.2907 118.245 89.2613 117.007 88.8722C115.76 88.4978 114.674 87.793 113.789 86.9634C113.343 86.5449 112.947 86.0971 112.577 85.6346C112.391 85.3996 112.215 85.1647 112.038 84.9298L111.777 84.5774C111.751 84.5315 111.714 84.4908 111.669 84.4579C111.624 84.425 111.572 84.4007 111.516 84.3865C111.461 84.3748 111.404 84.3733 111.349 84.3822C111.294 84.3911 111.242 84.41 111.195 84.4379C111.153 84.4673 111.111 84.504 111.078 84.5407L110.96 84.7242C110.791 84.9665 110.623 85.2088 110.437 85.4437C110.067 85.9062 109.663 86.3614 109.216 86.7725C108.332 87.6021 107.271 88.3142 106.041 88.7327C104.82 89.1585 103.447 89.2393 102.175 88.997C100.904 88.7767 99.6571 88.4023 98.5285 87.8297C96.2461 86.7064 94.5532 84.8564 93.4668 82.8154C92.3838 80.7609 91.7961 78.5345 91.7402 76.2741H91.9255V76.2667Z" fill="#B881CF"/>
<path d="M126.947 72.6256C126.299 72.1704 124.934 71.1059 122.517 71.7006C119.898 72.3393 115.923 72.8018 111.383 72.8165C106.852 72.8018 102.877 72.3466 100.257 71.7006C97.8486 71.1132 96.4421 72.1337 95.8273 72.6256C94.884 73.3964 92.0289 75.3346 91.8521 76.1862C92.2984 76.2817 95.4567 73.58 96.5264 73.6607C97.3517 73.7195 98.4972 76.0835 100.476 76.6781C102.456 77.2728 122.189 76.9424 122.189 76.9424C122.189 76.9424 124.05 75.665 125.061 74.4536C125.667 73.7268 126.206 73.4552 127.074 73.8296C127.924 74.204 130.805 76.6781 130.923 76.2083C130.813 75.3787 128.093 73.4258 126.947 72.6256Z" fill="#B7D5E5"/>
<path d="M75.5978 111.345C69.9633 108.386 65.2722 105.038 61.1285 101.529C61.0311 101.448 60.9694 101.34 60.954 101.223C60.9386 101.106 60.9705 100.989 61.0442 100.89L62.1223 99.4295C62.1674 99.3662 62.2282 99.3126 62.3001 99.2725C62.3721 99.2324 62.4535 99.2068 62.5383 99.1976C62.6231 99.1885 62.7091 99.196 62.7902 99.2196C62.8712 99.2432 62.9452 99.2823 63.0066 99.3341C66.965 102.645 72.3552 106.287 77.6865 109.106C77.9981 109.275 78.057 109.649 77.8044 109.884L76.3221 111.264C76.1452 111.433 75.8336 111.47 75.5978 111.345ZM147.372 111.345C153.006 108.386 157.706 105.038 161.849 101.529C162.051 101.36 162.085 101.089 161.934 100.89L160.855 99.4295C160.81 99.3662 160.75 99.3126 160.678 99.2725C160.606 99.2324 160.524 99.2068 160.439 99.1976C160.355 99.1885 160.269 99.196 160.188 99.2196C160.107 99.2432 160.033 99.2823 159.971 99.3341C156.013 102.645 150.623 106.287 145.291 109.106C145.218 109.145 145.156 109.198 145.109 109.261C145.062 109.325 145.032 109.396 145.02 109.47C145.009 109.545 145.017 109.621 145.043 109.692C145.07 109.764 145.114 109.829 145.173 109.884L146.656 111.264C146.824 111.433 147.136 111.47 147.372 111.345Z" fill="#B881CF"/>
<path d="M122.667 72.9996C121.235 73.3006 116.569 74.4239 111.65 74.4239H111.297C106.378 74.4239 101.704 73.308 100.28 72.9996C98.8487 72.6986 98.2928 73.007 98.5708 74.0054C99.7751 76.6924 103.371 80.6128 111.482 80.6202C119.593 80.6128 123.189 76.6924 124.393 74.0054C124.654 72.9996 124.098 72.6986 122.667 72.9996Z" fill="url(#paint0_linear_3260_218)"/>
<path d="M73.8305 98.0471C74.3461 93.9287 75.2192 86.6707 74.6417 82.6756C74.0643 78.6804 72.5518 74.997 69.3962 73.5396C66.6668 72.2852 63.2637 73.6121 61.2975 76.7155C60.1769 78.4846 59.5375 80.6671 58.9944 82.8278C58.0662 86.5402 57.1794 91.6157 56.7325 95.4369" stroke="#D57700" stroke-width="0.593901" stroke-miterlimit="10"/>
<path d="M71.2524 154.016L87.8691 146.715L84.0123 128.776L84.8373 87.8966L42.7901 82.6906V86.5625L32.787 87.8966L71.2524 154.016Z" fill="#F97837"/>
<path d="M29.2182 147.345L71.2585 154.059L74.8335 130.581V94.6026L32.7863 87.8956V123.867L29.2182 147.345Z" fill="#FF945E"/>
<path d="M74.8344 94.6034V90.5575L84.8374 87.8965L42.7077 82.9659L41.3602 86.1128L32.7872 87.8965L74.8344 94.6034Z" fill="#B15C5F"/>
<path d="M87.8691 146.714C87.5804 146.714 77.9142 138.63 77.9142 138.63L71.2593 154.059L72.6892 129.457L74.8549 94.603L77.6667 132.271L87.8691 146.714Z" fill="#EE7132"/>
<path d="M62.1497 97.3222C62.6653 93.211 68.0346 77.4189 57.7566 75.4032C49.9879 73.8805 46.5573 91.3331 46.1035 95.1615" stroke="#FF945D" stroke-width="0.593901" stroke-miterlimit="10"/>
<path d="M60.8708 98.4675C61.469 96.343 62.0946 92.0506 62.1221 91.8621L60.0871 91.5358C60.0802 91.5793 59.3515 95.9588 58.554 98.0107L60.8708 98.4675ZM44.8384 95.8935C45.4366 93.769 46.0622 89.4766 46.0897 89.2881L44.0547 88.9618C44.0478 89.0053 43.2022 93.4573 42.4941 95.444L44.8384 95.8935ZM60.1627 152.29L54.3877 141.74L57.1446 113.614L34.0654 108.88L46.4403 150.129L60.1627 152.29Z" fill="#DC5F5F" fill-opacity="0.5"/>
<path d="M42.1308 110.809C42.1308 110.809 44.7295 96.2567 36.0739 97.2211C31.3646 97.7431 31.5571 109.294 31.5571 109.294" stroke="#D7578A" stroke-width="0.593901" stroke-miterlimit="10"/>
<path d="M41.1756 159.345L53.9424 153.711L50.9724 139.92L51.6049 108.496L19.2926 104.493V107.473L11.6064 108.496L41.1756 159.345Z" fill="#FF7878"/>
<path d="M8.86161 154.19L41.1739 159.352L43.917 141.305V113.658L11.6047 108.495V136.15L8.86161 154.19Z" fill="#FF9F9F"/>
<path d="M43.9163 113.658L46.5013 111.57L51.6025 108.496L19.2903 104.493L16.3547 106.444L11.6041 108.496L43.9163 113.658Z" fill="#B15C5F"/>
<path d="M19.414 105.24L13.8797 108.119L43.772 112.89L49.6088 108.974L19.414 105.24ZM19.2903 104.493L51.6025 108.496L43.9163 113.658L11.6041 108.496L19.2903 104.493Z" fill="#B15C5F"/>
<path d="M32.9936 116.435C33.4542 114.81 33.9286 111.511 33.9492 111.374L32.1342 111.127C32.1274 111.163 31.6667 114.484 31.2405 116.014L32.9936 116.435ZM20.6943 114.441C21.1549 112.817 21.6293 109.517 21.6499 109.38L19.8556 109.14C19.8487 109.177 19.4774 112.599 19.0512 114.129L20.6943 114.441Z" fill="#D7578A"/>
<path d="M34.0106 116.508C34.4093 113.347 38.4931 100.02 30.7931 98.8959C24.7775 98.0185 22.1857 111.142 21.835 114.079" stroke="#FF9F9F" stroke-width="0.593901" stroke-miterlimit="10"/>
<path d="M53.9424 153.711L47.4181 147.881L41.1756 159.352L43.905 141.414L43.8775 113.745L44.6474 113.411L47.0812 141.537L53.9424 153.711Z" fill="#E07070"/>
<path d="M77.2116 103.512C78.9013 102.427 80.5358 101.818 80.9603 101.742L83.113 103.903L80.5937 133.629C80.5937 133.246 80.2271 132.435 78.7635 132.25C76.9333 132.02 71.3764 131.079 67.6085 125.336C65.0836 121.673 64.1768 117.359 64.0528 114.204C64.0114 113.042 64.6206 111.989 65.5412 111.366C69.5793 108.634 75.7205 104.471 77.2116 103.512Z" fill="url(#paint1_radial_3260_218)"/>
<path d="M77.2116 103.512C78.9013 102.427 80.5358 101.818 80.9603 101.742L83.113 103.903L80.5937 133.629C80.5937 133.246 80.2271 132.435 78.7635 132.25C76.9333 132.02 71.3764 131.079 67.6085 125.336C65.0836 121.673 64.1768 117.359 64.0528 114.204C64.0114 113.042 64.6206 111.989 65.5412 111.366C69.5793 108.634 75.7205 104.471 77.2116 103.512Z" fill="url(#paint2_linear_3260_218)"/>
<path d="M77.2116 103.512C78.9013 102.427 80.5358 101.818 80.9603 101.742L83.113 103.903L80.5937 133.629C80.5937 133.246 80.2271 132.435 78.7635 132.25C76.9333 132.02 71.3764 131.079 67.6085 125.336C65.0836 121.673 64.1768 117.359 64.0528 114.204C64.0114 113.042 64.6206 111.989 65.5412 111.366C69.5793 108.634 75.7205 104.471 77.2116 103.512Z" fill="url(#paint3_linear_3260_218)"/>
<g filter="url(#filter0_i_3260_218)">
<path d="M127.474 103.477C125.784 102.392 124.149 101.786 123.725 101.707L121.572 103.868L124.092 133.597C124.092 133.211 124.458 132.4 125.922 132.215C127.752 131.985 133.309 131.044 137.077 125.301C139.602 121.638 140.509 117.324 140.633 114.172C140.677 113.007 140.065 111.954 139.144 111.331C135.106 108.602 128.965 104.436 127.474 103.477Z" fill="url(#paint4_linear_3260_218)"/>
</g>
<path d="M127.471 103.477C125.781 102.392 124.147 101.786 123.722 101.707L121.569 103.868L124.089 133.596C124.089 133.211 124.455 132.4 125.919 132.214C127.749 131.985 133.306 131.044 137.074 125.301C139.599 121.637 140.506 117.324 140.63 114.171C140.674 113.007 140.062 111.954 139.141 111.331C135.103 108.602 128.962 104.435 127.471 103.477Z" fill="url(#paint5_radial_3260_218)"/>
<g filter="url(#filter1_i_3260_218)">
<path d="M80.5732 101.9L80.689 157.085C80.6945 158.605 81.6014 159.966 82.9768 160.375C95.4742 163.765 109.515 163.536 121.924 160.36C123.302 159.963 124.212 158.605 124.212 157.085L124.331 101.9C123.771 101.556 120.678 101.097 118.881 101.556C114.617 102.806 107.147 104.22 102.453 104.22C97.7592 104.22 90.2867 102.806 86.0253 101.556C84.2254 101.097 81.1328 101.556 80.5732 101.9Z" fill="url(#paint6_linear_3260_218)"/>
</g>
<path d="M80.5723 101.9L80.688 157.084C80.6935 158.605 81.6004 159.966 82.9758 160.375C95.4732 163.765 109.514 163.536 121.923 160.36C123.301 159.963 124.211 158.605 124.211 157.084L124.33 101.9C123.77 101.556 120.677 101.097 118.88 101.556C114.616 102.805 107.146 104.22 102.452 104.22C97.7582 104.22 90.2857 102.805 86.0244 101.556C84.2245 101.097 81.1318 101.556 80.5723 101.9Z" fill="url(#paint7_radial_3260_218)"/>
<path d="M80.5723 101.9L80.688 157.084C80.6935 158.605 81.6004 159.966 82.9758 160.375C95.4732 163.765 109.514 163.536 121.923 160.36C123.301 159.963 124.211 158.605 124.211 157.084L124.33 101.9C123.77 101.556 120.677 101.097 118.88 101.556C114.616 102.805 107.146 104.22 102.452 104.22C97.7582 104.22 90.2857 102.805 86.0244 101.556C84.2245 101.097 81.1318 101.556 80.5723 101.9Z" fill="url(#paint8_radial_3260_218)"/>
<path d="M85.8765 101.521L102.409 120.234L118.074 101.786C113.727 102.971 106.863 104.22 102.453 104.22C97.7592 104.22 90.2867 102.806 86.0253 101.556L85.8765 101.521Z" fill="url(#paint9_radial_3260_218)"/>
<path d="M85.8765 101.521L102.409 120.234L118.074 101.786C113.727 102.971 106.863 104.22 102.453 104.22C97.7592 104.22 90.2867 102.806 86.0253 101.556L85.8765 101.521Z" fill="url(#paint10_radial_3260_218)"/>
<g filter="url(#filter2_ii_3260_218)">
<path d="M98.0848 117.429C99.4905 119.128 100.775 120.684 101.839 121.948C101.916 122.04 102.01 122.113 102.115 122.164C102.22 122.214 102.334 122.24 102.449 122.24C102.565 122.24 102.679 122.214 102.784 122.164C102.889 122.113 102.983 122.04 103.06 121.948C104.127 120.684 105.411 119.126 106.814 117.429C111.423 111.845 117.316 104.864 120.927 101.362C119.835 101.362 118.796 101.03 118.101 100.865C117.883 100.808 117.654 100.805 117.434 100.858C117.214 100.91 117.009 101.016 116.834 101.168C113.901 103.844 110.4 108.107 107.368 111.804C105.549 114.024 103.895 116.038 102.641 117.37C102.59 117.423 102.521 117.453 102.449 117.453C102.378 117.453 102.309 117.423 102.258 117.37C101.004 116.035 99.3527 114.024 97.5307 111.804C94.4987 108.11 90.9981 103.841 88.0626 101.168C87.8878 101.017 87.6827 100.911 87.4633 100.858C87.2438 100.806 87.0159 100.808 86.7974 100.865C86.1028 101.03 85.0637 101.365 83.9722 101.365C87.5858 104.864 93.4761 111.845 98.0848 117.429Z" fill="url(#paint11_linear_3260_218)"/>
</g>
<g filter="url(#filter3_f_3260_218)">
<path d="M122.607 103.235C123.009 103.22 124.159 103.42 125.537 104.337C126.915 105.258 134.638 110.542 138.326 113.068" stroke="#FF8EE2" stroke-width="0.0961922" stroke-linecap="round"/>
</g>
<g filter="url(#filter4_f_3260_218)">
<path d="M91.9434 104.109C95.1876 105.135 103.934 106.57 112.961 104.109" stroke="url(#paint12_radial_3260_218)" stroke-width="0.0480961" stroke-linecap="round"/>
</g>
<rect y="142.892" width="166.154" height="59.8154" rx="17.7231" fill="#CFB0EA"/>
<rect y="144" width="166.154" height="25.4769" fill="#CFB0EA"/>
<path d="M17.594 156.242V157.278H13.352V160.568H16.796V161.604H13.352V166H12.078V156.242H17.594ZM18.6567 162.136C18.6567 161.352 18.8154 160.666 19.1327 160.078C19.45 159.481 19.884 159.019 20.4347 158.692C20.9947 158.365 21.6154 158.202 22.2967 158.202C22.9687 158.202 23.552 158.347 24.0467 158.636C24.5414 158.925 24.91 159.289 25.1527 159.728V158.328H26.4407V166H25.1527V164.572C24.9007 165.02 24.5227 165.393 24.0187 165.692C23.524 165.981 22.9454 166.126 22.2827 166.126C21.6014 166.126 20.9854 165.958 20.4347 165.622C19.884 165.286 19.45 164.815 19.1327 164.208C18.8154 163.601 18.6567 162.911 18.6567 162.136ZM25.1527 162.15C25.1527 161.571 25.036 161.067 24.8027 160.638C24.5694 160.209 24.252 159.882 23.8507 159.658C23.4587 159.425 23.0247 159.308 22.5487 159.308C22.0727 159.308 21.6387 159.42 21.2467 159.644C20.8547 159.868 20.542 160.195 20.3087 160.624C20.0754 161.053 19.9587 161.557 19.9587 162.136C19.9587 162.724 20.0754 163.237 20.3087 163.676C20.542 164.105 20.8547 164.437 21.2467 164.67C21.6387 164.894 22.0727 165.006 22.5487 165.006C23.0247 165.006 23.4587 164.894 23.8507 164.67C24.252 164.437 24.5694 164.105 24.8027 163.676C25.036 163.237 25.1527 162.729 25.1527 162.15ZM31.3096 166.126C30.7216 166.126 30.1943 166.028 29.7276 165.832C29.261 165.627 28.8923 165.347 28.6216 164.992C28.351 164.628 28.2016 164.213 28.1736 163.746H29.4896C29.527 164.129 29.7043 164.441 30.0216 164.684C30.3483 164.927 30.773 165.048 31.2956 165.048C31.781 165.048 32.1636 164.941 32.4436 164.726C32.7236 164.511 32.8636 164.241 32.8636 163.914C32.8636 163.578 32.7143 163.331 32.4156 163.172C32.117 163.004 31.655 162.841 31.0296 162.682C30.4603 162.533 29.9936 162.383 29.6296 162.234C29.275 162.075 28.967 161.847 28.7056 161.548C28.4536 161.24 28.3276 160.839 28.3276 160.344C28.3276 159.952 28.4443 159.593 28.6776 159.266C28.911 158.939 29.2423 158.683 29.6716 158.496C30.101 158.3 30.591 158.202 31.1416 158.202C31.991 158.202 32.677 158.417 33.1996 158.846C33.7223 159.275 34.0023 159.863 34.0396 160.61H32.7656C32.7376 160.209 32.5743 159.887 32.2756 159.644C31.9863 159.401 31.5943 159.28 31.0996 159.28C30.6423 159.28 30.2783 159.378 30.0076 159.574C29.737 159.77 29.6016 160.027 29.6016 160.344C29.6016 160.596 29.681 160.806 29.8396 160.974C30.0076 161.133 30.213 161.263 30.4556 161.366C30.7076 161.459 31.053 161.567 31.4916 161.688C32.0423 161.837 32.4903 161.987 32.8356 162.136C33.181 162.276 33.475 162.491 33.7176 162.78C33.9696 163.069 34.1003 163.447 34.1096 163.914C34.1096 164.334 33.993 164.712 33.7596 165.048C33.5263 165.384 33.195 165.65 32.7656 165.846C32.3456 166.033 31.8603 166.126 31.3096 166.126ZM39.7161 158.188C40.2947 158.188 40.8174 158.314 41.2841 158.566C41.7507 158.809 42.1147 159.177 42.3761 159.672C42.6467 160.167 42.7821 160.769 42.7821 161.478V166H41.5221V161.66C41.5221 160.895 41.3307 160.311 40.9481 159.91C40.5654 159.499 40.0427 159.294 39.3801 159.294C38.7081 159.294 38.1714 159.504 37.7701 159.924C37.3781 160.344 37.1821 160.955 37.1821 161.758V166H35.9081V155.64H37.1821V159.42C37.4341 159.028 37.7794 158.725 38.2181 158.51C38.6661 158.295 39.1654 158.188 39.7161 158.188ZM45.5212 157.082C45.2785 157.082 45.0732 156.998 44.9052 156.83C44.7372 156.662 44.6532 156.457 44.6532 156.214C44.6532 155.971 44.7372 155.766 44.9052 155.598C45.0732 155.43 45.2785 155.346 45.5212 155.346C45.7545 155.346 45.9505 155.43 46.1092 155.598C46.2772 155.766 46.3612 155.971 46.3612 156.214C46.3612 156.457 46.2772 156.662 46.1092 156.83C45.9505 156.998 45.7545 157.082 45.5212 157.082ZM46.1372 158.328V166H44.8632V158.328H46.1372ZM51.6545 166.126C50.9358 166.126 50.2825 165.963 49.6945 165.636C49.1158 165.309 48.6585 164.847 48.3225 164.25C47.9958 163.643 47.8325 162.943 47.8325 162.15C47.8325 161.366 48.0005 160.675 48.3365 160.078C48.6818 159.471 49.1485 159.009 49.7365 158.692C50.3245 158.365 50.9825 158.202 51.7105 158.202C52.4385 158.202 53.0965 158.365 53.6845 158.692C54.2725 159.009 54.7345 159.467 55.0705 160.064C55.4158 160.661 55.5885 161.357 55.5885 162.15C55.5885 162.943 55.4111 163.643 55.0565 164.25C54.7111 164.847 54.2398 165.309 53.6425 165.636C53.0451 165.963 52.3825 166.126 51.6545 166.126ZM51.6545 165.006C52.1118 165.006 52.5411 164.899 52.9425 164.684C53.3438 164.469 53.6658 164.147 53.9085 163.718C54.1605 163.289 54.2865 162.766 54.2865 162.15C54.2865 161.534 54.1651 161.011 53.9225 160.582C53.6798 160.153 53.3625 159.835 52.9705 159.63C52.5785 159.415 52.1538 159.308 51.6965 159.308C51.2298 159.308 50.8005 159.415 50.4085 159.63C50.0258 159.835 49.7178 160.153 49.4845 160.582C49.2511 161.011 49.1345 161.534 49.1345 162.15C49.1345 162.775 49.2465 163.303 49.4705 163.732C49.7038 164.161 50.0118 164.483 50.3945 164.698C50.7771 164.903 51.1971 165.006 51.6545 165.006ZM61.0015 158.188C61.9349 158.188 62.6909 158.473 63.2695 159.042C63.8482 159.602 64.1375 160.414 64.1375 161.478V166H62.8775V161.66C62.8775 160.895 62.6862 160.311 62.3035 159.91C61.9209 159.499 61.3982 159.294 60.7355 159.294C60.0635 159.294 59.5269 159.504 59.1255 159.924C58.7335 160.344 58.5375 160.955 58.5375 161.758V166H57.2635V158.328H58.5375V159.42C58.7895 159.028 59.1302 158.725 59.5595 158.51C59.9982 158.295 60.4789 158.188 61.0015 158.188ZM77.441 166L76.167 164.712C75.691 165.207 75.1824 165.575 74.641 165.818C74.0997 166.051 73.4884 166.168 72.807 166.168C72.135 166.168 71.5377 166.047 71.015 165.804C70.5017 165.561 70.1004 165.216 69.811 164.768C69.531 164.32 69.391 163.797 69.391 163.2C69.391 162.519 69.5824 161.921 69.965 161.408C70.357 160.885 70.931 160.475 71.687 160.176C71.3884 159.821 71.1737 159.495 71.043 159.196C70.9124 158.897 70.847 158.571 70.847 158.216C70.847 157.805 70.9497 157.437 71.155 157.11C71.3697 156.774 71.673 156.513 72.065 156.326C72.457 156.139 72.9097 156.046 73.423 156.046C73.927 156.046 74.3657 156.144 74.739 156.34C75.1124 156.536 75.3924 156.811 75.579 157.166C75.7657 157.511 75.8497 157.899 75.831 158.328H74.557C74.5664 157.945 74.459 157.647 74.235 157.432C74.011 157.208 73.7217 157.096 73.367 157.096C72.9937 157.096 72.6904 157.203 72.457 157.418C72.233 157.623 72.121 157.889 72.121 158.216C72.121 158.496 72.1957 158.767 72.345 159.028C72.5037 159.289 72.765 159.611 73.129 159.994L76.041 162.92L76.293 162.528L77.245 160.932H78.617L77.469 162.92C77.3104 163.2 77.1237 163.494 76.909 163.802L79.107 166H77.441ZM72.807 165.076C73.311 165.076 73.7637 164.978 74.165 164.782C74.5757 164.586 74.963 164.283 75.327 163.872L72.457 160.988C71.2624 161.445 70.665 162.169 70.665 163.158C70.665 163.709 70.861 164.166 71.253 164.53C71.6544 164.894 72.1724 165.076 72.807 165.076ZM83.5571 162.15C83.5571 161.357 83.7157 160.666 84.0331 160.078C84.3504 159.481 84.7891 159.019 85.3491 158.692C85.9184 158.365 86.5671 158.202 87.2951 158.202C88.2377 158.202 89.0124 158.431 89.6191 158.888C90.2351 159.345 90.6411 159.98 90.8371 160.792H89.4651C89.3344 160.325 89.0777 159.957 88.6951 159.686C88.3217 159.415 87.8551 159.28 87.2951 159.28C86.5671 159.28 85.9791 159.532 85.5311 160.036C85.0831 160.531 84.8591 161.235 84.8591 162.15C84.8591 163.074 85.0831 163.788 85.5311 164.292C85.9791 164.796 86.5671 165.048 87.2951 165.048C87.8551 165.048 88.3217 164.917 88.6951 164.656C89.0684 164.395 89.3251 164.021 89.4651 163.536H90.8371C90.6317 164.32 90.2211 164.95 89.6051 165.426C88.9891 165.893 88.2191 166.126 87.2951 166.126C86.5671 166.126 85.9184 165.963 85.3491 165.636C84.7891 165.309 84.3504 164.847 84.0331 164.25C83.7157 163.653 83.5571 162.953 83.5571 162.15ZM93.811 155.64V166H92.537V155.64H93.811ZM99.3283 166.126C98.6096 166.126 97.9563 165.963 97.3683 165.636C96.7896 165.309 96.3323 164.847 95.9963 164.25C95.6696 163.643 95.5063 162.943 95.5063 162.15C95.5063 161.366 95.6743 160.675 96.0103 160.078C96.3556 159.471 96.8223 159.009 97.4103 158.692C97.9983 158.365 98.6563 158.202 99.3843 158.202C100.112 158.202 100.77 158.365 101.358 158.692C101.946 159.009 102.408 159.467 102.744 160.064C103.09 160.661 103.262 161.357 103.262 162.15C103.262 162.943 103.085 163.643 102.73 164.25C102.385 164.847 101.914 165.309 101.316 165.636C100.719 165.963 100.056 166.126 99.3283 166.126ZM99.3283 165.006C99.7856 165.006 100.215 164.899 100.616 164.684C101.018 164.469 101.34 164.147 101.582 163.718C101.834 163.289 101.96 162.766 101.96 162.15C101.96 161.534 101.839 161.011 101.596 160.582C101.354 160.153 101.036 159.835 100.644 159.63C100.252 159.415 99.8276 159.308 99.3703 159.308C98.9036 159.308 98.4743 159.415 98.0823 159.63C97.6996 159.835 97.3916 160.153 97.1583 160.582C96.925 161.011 96.8083 161.534 96.8083 162.15C96.8083 162.775 96.9203 163.303 97.1443 163.732C97.3776 164.161 97.6856 164.483 98.0683 164.698C98.451 164.903 98.871 165.006 99.3283 165.006ZM106.491 159.378V163.9C106.491 164.273 106.571 164.539 106.729 164.698C106.888 164.847 107.163 164.922 107.555 164.922H108.493V166H107.345C106.636 166 106.104 165.837 105.749 165.51C105.395 165.183 105.217 164.647 105.217 163.9V159.378H104.223V158.328H105.217V156.396H106.491V158.328H108.493V159.378H106.491ZM113.845 158.188C114.424 158.188 114.946 158.314 115.413 158.566C115.88 158.809 116.244 159.177 116.505 159.672C116.776 160.167 116.911 160.769 116.911 161.478V166H115.651V161.66C115.651 160.895 115.46 160.311 115.077 159.91C114.694 159.499 114.172 159.294 113.509 159.294C112.837 159.294 112.3 159.504 111.899 159.924C111.507 160.344 111.311 160.955 111.311 161.758V166H110.037V155.64H111.311V159.42C111.563 159.028 111.908 158.725 112.347 158.51C112.795 158.295 113.294 158.188 113.845 158.188ZM119.65 157.082C119.407 157.082 119.202 156.998 119.034 156.83C118.866 156.662 118.782 156.457 118.782 156.214C118.782 155.971 118.866 155.766 119.034 155.598C119.202 155.43 119.407 155.346 119.65 155.346C119.883 155.346 120.079 155.43 120.238 155.598C120.406 155.766 120.49 155.971 120.49 156.214C120.49 156.457 120.406 156.662 120.238 156.83C120.079 156.998 119.883 157.082 119.65 157.082ZM120.266 158.328V166H118.992V158.328H120.266ZM126.175 158.188C127.109 158.188 127.865 158.473 128.443 159.042C129.022 159.602 129.311 160.414 129.311 161.478V166H128.051V161.66C128.051 160.895 127.86 160.311 127.477 159.91C127.095 159.499 126.572 159.294 125.909 159.294C125.237 159.294 124.701 159.504 124.299 159.924C123.907 160.344 123.711 160.955 123.711 161.758V166H122.437V158.328H123.711V159.42C123.963 159.028 124.304 158.725 124.733 158.51C125.172 158.295 125.653 158.188 126.175 158.188ZM134.556 158.202C135.219 158.202 135.798 158.347 136.292 158.636C136.796 158.925 137.17 159.289 137.412 159.728V158.328H138.7V166.168C138.7 166.868 138.551 167.489 138.252 168.03C137.954 168.581 137.524 169.01 136.964 169.318C136.414 169.626 135.77 169.78 135.032 169.78C134.024 169.78 133.184 169.542 132.512 169.066C131.84 168.59 131.444 167.941 131.322 167.12H132.582C132.722 167.587 133.012 167.96 133.45 168.24C133.889 168.529 134.416 168.674 135.032 168.674C135.732 168.674 136.302 168.455 136.74 168.016C137.188 167.577 137.412 166.961 137.412 166.168V164.558C137.16 165.006 136.787 165.379 136.292 165.678C135.798 165.977 135.219 166.126 134.556 166.126C133.875 166.126 133.254 165.958 132.694 165.622C132.144 165.286 131.71 164.815 131.392 164.208C131.075 163.601 130.916 162.911 130.916 162.136C130.916 161.352 131.075 160.666 131.392 160.078C131.71 159.481 132.144 159.019 132.694 158.692C133.254 158.365 133.875 158.202 134.556 158.202ZM137.412 162.15C137.412 161.571 137.296 161.067 137.062 160.638C136.829 160.209 136.512 159.882 136.11 159.658C135.718 159.425 135.284 159.308 134.808 159.308C134.332 159.308 133.898 159.42 133.506 159.644C133.114 159.868 132.802 160.195 132.568 160.624C132.335 161.053 132.218 161.557 132.218 162.136C132.218 162.724 132.335 163.237 132.568 163.676C132.802 164.105 133.114 164.437 133.506 164.67C133.898 164.894 134.332 165.006 134.808 165.006C135.284 165.006 135.718 164.894 136.11 164.67C136.512 164.437 136.829 164.105 137.062 163.676C137.296 163.237 137.412 162.729 137.412 162.15ZM149.906 160.33V161.408H144.32V160.33H149.906ZM13.632 180.378V184.9C13.632 185.273 13.7113 185.539 13.87 185.698C14.0287 185.847 14.304 185.922 14.696 185.922H15.634V187H14.486C13.7767 187 13.2447 186.837 12.89 186.51C12.5353 186.183 12.358 185.647 12.358 184.9V180.378H11.364V179.328H12.358V177.396H13.632V179.328H15.634V180.378H13.632ZM20.5236 187.126C19.8049 187.126 19.1516 186.963 18.5636 186.636C17.9849 186.309 17.5276 185.847 17.1916 185.25C16.8649 184.643 16.7016 183.943 16.7016 183.15C16.7016 182.366 16.8696 181.675 17.2056 181.078C17.5509 180.471 18.0176 180.009 18.6056 179.692C19.1936 179.365 19.8516 179.202 20.5796 179.202C21.3076 179.202 21.9656 179.365 22.5536 179.692C23.1416 180.009 23.6036 180.467 23.9396 181.064C24.2849 181.661 24.4576 182.357 24.4576 183.15C24.4576 183.943 24.2803 184.643 23.9256 185.25C23.5803 185.847 23.1089 186.309 22.5116 186.636C21.9143 186.963 21.2516 187.126 20.5236 187.126ZM20.5236 186.006C20.9809 186.006 21.4103 185.899 21.8116 185.684C22.2129 185.469 22.5349 185.147 22.7776 184.718C23.0296 184.289 23.1556 183.766 23.1556 183.15C23.1556 182.534 23.0343 182.011 22.7916 181.582C22.5489 181.153 22.2316 180.835 21.8396 180.63C21.4476 180.415 21.0229 180.308 20.5656 180.308C20.0989 180.308 19.6696 180.415 19.2776 180.63C18.8949 180.835 18.5869 181.153 18.3536 181.582C18.1203 182.011 18.0036 182.534 18.0036 183.15C18.0036 183.775 18.1156 184.303 18.3396 184.732C18.5729 185.161 18.8809 185.483 19.2636 185.698C19.6463 185.903 20.0663 186.006 20.5236 186.006ZM27.4067 180.742C27.6587 180.303 28.032 179.939 28.5267 179.65C29.0307 179.351 29.614 179.202 30.2767 179.202C30.958 179.202 31.574 179.365 32.1247 179.692C32.6847 180.019 33.1234 180.481 33.4407 181.078C33.758 181.666 33.9167 182.352 33.9167 183.136C33.9167 183.911 33.758 184.601 33.4407 185.208C33.1234 185.815 32.6847 186.286 32.1247 186.622C31.574 186.958 30.958 187.126 30.2767 187.126C29.6234 187.126 29.0447 186.981 28.5407 186.692C28.046 186.393 27.668 186.025 27.4067 185.586V190.64H26.1327V179.328H27.4067V180.742ZM32.6147 183.136C32.6147 182.557 32.498 182.053 32.2647 181.624C32.0314 181.195 31.714 180.868 31.3127 180.644C30.9207 180.42 30.4867 180.308 30.0107 180.308C29.544 180.308 29.11 180.425 28.7087 180.658C28.3167 180.882 27.9994 181.213 27.7567 181.652C27.5234 182.081 27.4067 182.581 27.4067 183.15C27.4067 183.729 27.5234 184.237 27.7567 184.676C27.9994 185.105 28.3167 185.437 28.7087 185.67C29.11 185.894 29.544 186.006 30.0107 186.006C30.4867 186.006 30.9207 185.894 31.3127 185.67C31.714 185.437 32.0314 185.105 32.2647 184.676C32.498 184.237 32.6147 183.724 32.6147 183.136ZM36.9096 185.236L35.3416 189.002H34.4876L35.5096 185.236H36.9096ZM43.3754 180.756C43.6368 180.299 44.0194 179.925 44.5234 179.636C45.0274 179.347 45.6014 179.202 46.2454 179.202C46.9361 179.202 47.5568 179.365 48.1074 179.692C48.6581 180.019 49.0921 180.481 49.4094 181.078C49.7268 181.666 49.8854 182.352 49.8854 183.136C49.8854 183.911 49.7268 184.601 49.4094 185.208C49.0921 185.815 48.6534 186.286 48.0934 186.622C47.5428 186.958 46.9268 187.126 46.2454 187.126C45.5828 187.126 44.9994 186.981 44.4954 186.692C44.0008 186.403 43.6274 186.034 43.3754 185.586V187H42.1014V176.64H43.3754V180.756ZM48.5834 183.136C48.5834 182.557 48.4668 182.053 48.2334 181.624C48.0001 181.195 47.6828 180.868 47.2814 180.644C46.8894 180.42 46.4554 180.308 45.9794 180.308C45.5128 180.308 45.0788 180.425 44.6774 180.658C44.2854 180.882 43.9681 181.213 43.7254 181.652C43.4921 182.081 43.3754 182.581 43.3754 183.15C43.3754 183.729 43.4921 184.237 43.7254 184.676C43.9681 185.105 44.2854 185.437 44.6774 185.67C45.0788 185.894 45.5128 186.006 45.9794 186.006C46.4554 186.006 46.8894 185.894 47.2814 185.67C47.6828 185.437 48.0001 185.105 48.2334 184.676C48.4668 184.237 48.5834 183.724 48.5834 183.136ZM54.9084 187.126C54.1897 187.126 53.5364 186.963 52.9484 186.636C52.3697 186.309 51.9124 185.847 51.5764 185.25C51.2497 184.643 51.0864 183.943 51.0864 183.15C51.0864 182.366 51.2544 181.675 51.5904 181.078C51.9357 180.471 52.4024 180.009 52.9904 179.692C53.5784 179.365 54.2364 179.202 54.9644 179.202C55.6924 179.202 56.3504 179.365 56.9384 179.692C57.5264 180.009 57.9884 180.467 58.3244 181.064C58.6697 181.661 58.8424 182.357 58.8424 183.15C58.8424 183.943 58.665 184.643 58.3104 185.25C57.965 185.847 57.4937 186.309 56.8964 186.636C56.299 186.963 55.6364 187.126 54.9084 187.126ZM54.9084 186.006C55.3657 186.006 55.795 185.899 56.1964 185.684C56.5977 185.469 56.9197 185.147 57.1624 184.718C57.4144 184.289 57.5404 183.766 57.5404 183.15C57.5404 182.534 57.419 182.011 57.1764 181.582C56.9337 181.153 56.6164 180.835 56.2244 180.63C55.8324 180.415 55.4077 180.308 54.9504 180.308C54.4837 180.308 54.0544 180.415 53.6624 180.63C53.2797 180.835 52.9717 181.153 52.7384 181.582C52.505 182.011 52.3884 182.534 52.3884 183.15C52.3884 183.775 52.5004 184.303 52.7244 184.732C52.9577 185.161 53.2657 185.483 53.6484 185.698C54.031 185.903 54.451 186.006 54.9084 186.006ZM62.0715 180.378V184.9C62.0715 185.273 62.1508 185.539 62.3095 185.698C62.4681 185.847 62.7435 185.922 63.1355 185.922H64.0735V187H62.9255C62.2161 187 61.6841 186.837 61.3295 186.51C60.9748 186.183 60.7975 185.647 60.7975 184.9V180.378H59.8035V179.328H60.7975V177.396H62.0715V179.328H64.0735V180.378H62.0715ZM67.1711 180.378V184.9C67.1711 185.273 67.2504 185.539 67.4091 185.698C67.5677 185.847 67.8431 185.922 68.2351 185.922H69.1731V187H68.0251C67.3157 187 66.7837 186.837 66.4291 186.51C66.0744 186.183 65.8971 185.647 65.8971 184.9V180.378H64.9031V179.328H65.8971V177.396H67.1711V179.328H69.1731V180.378H67.1711ZM74.0627 187.126C73.344 187.126 72.6907 186.963 72.1027 186.636C71.524 186.309 71.0667 185.847 70.7307 185.25C70.404 184.643 70.2407 183.943 70.2407 183.15C70.2407 182.366 70.4087 181.675 70.7447 181.078C71.09 180.471 71.5567 180.009 72.1447 179.692C72.7327 179.365 73.3907 179.202 74.1187 179.202C74.8467 179.202 75.5047 179.365 76.0927 179.692C76.6807 180.009 77.1427 180.467 77.4787 181.064C77.824 181.661 77.9967 182.357 77.9967 183.15C77.9967 183.943 77.8193 184.643 77.4647 185.25C77.1193 185.847 76.648 186.309 76.0507 186.636C75.4533 186.963 74.7907 187.126 74.0627 187.126ZM74.0627 186.006C74.52 186.006 74.9493 185.899 75.3507 185.684C75.752 185.469 76.074 185.147 76.3167 184.718C76.5687 184.289 76.6947 183.766 76.6947 183.15C76.6947 182.534 76.5733 182.011 76.3307 181.582C76.088 181.153 75.7707 180.835 75.3787 180.63C74.9867 180.415 74.562 180.308 74.1047 180.308C73.638 180.308 73.2087 180.415 72.8167 180.63C72.434 180.835 72.126 181.153 71.8927 181.582C71.6593 182.011 71.5427 182.534 71.5427 183.15C71.5427 183.775 71.6547 184.303 71.8787 184.732C72.112 185.161 72.42 185.483 72.8027 185.698C73.1853 185.903 73.6053 186.006 74.0627 186.006ZM88.8978 179.188C89.4951 179.188 90.0271 179.314 90.4938 179.566C90.9604 179.809 91.3291 180.177 91.5998 180.672C91.8704 181.167 92.0058 181.769 92.0058 182.478V187H90.7458V182.66C90.7458 181.895 90.5544 181.311 90.1718 180.91C89.7984 180.499 89.2898 180.294 88.6458 180.294C87.9831 180.294 87.4558 180.509 87.0638 180.938C86.6718 181.358 86.4758 181.969 86.4758 182.772V187H85.2158V182.66C85.2158 181.895 85.0244 181.311 84.6418 180.91C84.2684 180.499 83.7598 180.294 83.1158 180.294C82.4531 180.294 81.9258 180.509 81.5338 180.938C81.1418 181.358 80.9458 181.969 80.9458 182.772V187H79.6718V179.328H80.9458V180.434C81.1978 180.033 81.5338 179.725 81.9538 179.51C82.3831 179.295 82.8544 179.188 83.3678 179.188C84.0118 179.188 84.5811 179.333 85.0758 179.622C85.5704 179.911 85.9391 180.336 86.1818 180.896C86.3964 180.355 86.7511 179.935 87.2458 179.636C87.7404 179.337 88.2911 179.188 88.8978 179.188ZM95.4116 185.236L93.8436 189.002H92.9896L94.0116 185.236H95.4116ZM100.127 183.136C100.127 182.352 100.286 181.666 100.603 181.078C100.921 180.481 101.355 180.019 101.905 179.692C102.465 179.365 103.091 179.202 103.781 179.202C104.379 179.202 104.934 179.342 105.447 179.622C105.961 179.893 106.353 180.252 106.623 180.7V176.64H107.911V187H106.623V185.558C106.371 186.015 105.998 186.393 105.503 186.692C105.009 186.981 104.43 187.126 103.767 187.126C103.086 187.126 102.465 186.958 101.905 186.622C101.355 186.286 100.921 185.815 100.603 185.208C100.286 184.601 100.127 183.911 100.127 183.136ZM106.623 183.15C106.623 182.571 106.507 182.067 106.273 181.638C106.04 181.209 105.723 180.882 105.321 180.658C104.929 180.425 104.495 180.308 104.019 180.308C103.543 180.308 103.109 180.42 102.717 180.644C102.325 180.868 102.013 181.195 101.779 181.624C101.546 182.053 101.429 182.557 101.429 183.136C101.429 183.724 101.546 184.237 101.779 184.676C102.013 185.105 102.325 185.437 102.717 185.67C103.109 185.894 103.543 186.006 104.019 186.006C104.495 186.006 104.929 185.894 105.321 185.67C105.723 185.437 106.04 185.105 106.273 184.676C106.507 184.237 106.623 183.729 106.623 183.15ZM111.338 180.574C111.562 180.135 111.88 179.795 112.29 179.552C112.71 179.309 113.219 179.188 113.816 179.188V180.504H113.48C112.052 180.504 111.338 181.279 111.338 182.828V187H110.064V179.328H111.338V180.574ZM122.287 182.87C122.287 183.113 122.273 183.369 122.245 183.64H116.113C116.16 184.396 116.416 184.989 116.883 185.418C117.359 185.838 117.933 186.048 118.605 186.048C119.156 186.048 119.613 185.922 119.977 185.67C120.35 185.409 120.612 185.063 120.761 184.634H122.133C121.928 185.371 121.517 185.973 120.901 186.44C120.285 186.897 119.52 187.126 118.605 187.126C117.877 187.126 117.224 186.963 116.645 186.636C116.076 186.309 115.628 185.847 115.301 185.25C114.974 184.643 114.811 183.943 114.811 183.15C114.811 182.357 114.97 181.661 115.287 181.064C115.604 180.467 116.048 180.009 116.617 179.692C117.196 179.365 117.858 179.202 118.605 179.202C119.333 179.202 119.977 179.361 120.537 179.678C121.097 179.995 121.526 180.434 121.825 180.994C122.133 181.545 122.287 182.17 122.287 182.87ZM120.971 182.604C120.971 182.119 120.864 181.703 120.649 181.358C120.434 181.003 120.14 180.737 119.767 180.56C119.403 180.373 118.997 180.28 118.549 180.28C117.905 180.28 117.354 180.485 116.897 180.896C116.449 181.307 116.192 181.876 116.127 182.604H120.971ZM126.685 187.126C126.097 187.126 125.569 187.028 125.103 186.832C124.636 186.627 124.267 186.347 123.997 185.992C123.726 185.628 123.577 185.213 123.549 184.746H124.865C124.902 185.129 125.079 185.441 125.397 185.684C125.723 185.927 126.148 186.048 126.671 186.048C127.156 186.048 127.539 185.941 127.819 185.726C128.099 185.511 128.239 185.241 128.239 184.914C128.239 184.578 128.089 184.331 127.791 184.172C127.492 184.004 127.03 183.841 126.405 183.682C125.835 183.533 125.369 183.383 125.005 183.234C124.65 183.075 124.342 182.847 124.081 182.548C123.829 182.24 123.703 181.839 123.703 181.344C123.703 180.952 123.819 180.593 124.053 180.266C124.286 179.939 124.617 179.683 125.047 179.496C125.476 179.3 125.966 179.202 126.517 179.202C127.366 179.202 128.052 179.417 128.575 179.846C129.097 180.275 129.377 180.863 129.415 181.61H128.141C128.113 181.209 127.949 180.887 127.651 180.644C127.361 180.401 126.969 180.28 126.475 180.28C126.017 180.28 125.653 180.378 125.383 180.574C125.112 180.77 124.977 181.027 124.977 181.344C124.977 181.596 125.056 181.806 125.215 181.974C125.383 182.133 125.588 182.263 125.831 182.366C126.083 182.459 126.428 182.567 126.867 182.688C127.417 182.837 127.865 182.987 128.211 183.136C128.556 183.276 128.85 183.491 129.093 183.78C129.345 184.069 129.475 184.447 129.485 184.914C129.485 185.334 129.368 185.712 129.135 186.048C128.901 186.384 128.57 186.65 128.141 186.846C127.721 187.033 127.235 187.126 126.685 187.126ZM133.999 187.126C133.411 187.126 132.884 187.028 132.417 186.832C131.95 186.627 131.582 186.347 131.311 185.992C131.04 185.628 130.891 185.213 130.863 184.746H132.179C132.216 185.129 132.394 185.441 132.711 185.684C133.038 185.927 133.462 186.048 133.985 186.048C134.47 186.048 134.853 185.941 135.133 185.726C135.413 185.511 135.553 185.241 135.553 184.914C135.553 184.578 135.404 184.331 135.105 184.172C134.806 184.004 134.344 183.841 133.719 183.682C133.15 183.533 132.683 183.383 132.319 183.234C131.964 183.075 131.656 182.847 131.395 182.548C131.143 182.24 131.017 181.839 131.017 181.344C131.017 180.952 131.134 180.593 131.367 180.266C131.6 179.939 131.932 179.683 132.361 179.496C132.79 179.3 133.28 179.202 133.831 179.202C134.68 179.202 135.366 179.417 135.889 179.846C136.412 180.275 136.692 180.863 136.729 181.61H135.455C135.427 181.209 135.264 180.887 134.965 180.644C134.676 180.401 134.284 180.28 133.789 180.28C133.332 180.28 132.968 180.378 132.697 180.574C132.426 180.77 132.291 181.027 132.291 181.344C132.291 181.596 132.37 181.806 132.529 181.974C132.697 182.133 132.902 182.263 133.145 182.366C133.397 182.459 133.742 182.567 134.181 182.688C134.732 182.837 135.18 182.987 135.525 183.136C135.87 183.276 136.164 183.491 136.407 183.78C136.659 184.069 136.79 184.447 136.799 184.914C136.799 185.334 136.682 185.712 136.449 186.048C136.216 186.384 135.884 186.65 135.455 186.846C135.035 187.033 134.55 187.126 133.999 187.126ZM145.598 182.87C145.598 183.113 145.584 183.369 145.556 183.64H139.424C139.47 184.396 139.727 184.989 140.194 185.418C140.67 185.838 141.244 186.048 141.916 186.048C142.466 186.048 142.924 185.922 143.288 185.67C143.661 185.409 143.922 185.063 144.072 184.634H145.444C145.238 185.371 144.828 185.973 144.212 186.44C143.596 186.897 142.83 187.126 141.916 187.126C141.188 187.126 140.534 186.963 139.956 186.636C139.386 186.309 138.938 185.847 138.612 185.25C138.285 184.643 138.122 183.943 138.122 183.15C138.122 182.357 138.28 181.661 138.598 181.064C138.915 180.467 139.358 180.009 139.928 179.692C140.506 179.365 141.169 179.202 141.916 179.202C142.644 179.202 143.288 179.361 143.848 179.678C144.408 179.995 144.837 180.434 145.136 180.994C145.444 181.545 145.598 182.17 145.598 182.87ZM144.282 182.604C144.282 182.119 144.174 181.703 143.96 181.358C143.745 181.003 143.451 180.737 143.078 180.56C142.714 180.373 142.308 180.28 141.86 180.28C141.216 180.28 140.665 180.485 140.208 180.896C139.76 181.307 139.503 181.876 139.438 182.604H144.282ZM149.995 187.126C149.407 187.126 148.88 187.028 148.413 186.832C147.947 186.627 147.578 186.347 147.307 185.992C147.037 185.628 146.887 185.213 146.859 184.746H148.175C148.213 185.129 148.39 185.441 148.707 185.684C149.034 185.927 149.459 186.048 149.981 186.048C150.467 186.048 150.849 185.941 151.129 185.726C151.409 185.511 151.549 185.241 151.549 184.914C151.549 184.578 151.4 184.331 151.101 184.172C150.803 184.004 150.341 183.841 149.715 183.682C149.146 183.533 148.679 183.383 148.315 183.234C147.961 183.075 147.653 182.847 147.391 182.548C147.139 182.24 147.013 181.839 147.013 181.344C147.013 180.952 147.13 180.593 147.363 180.266C147.597 179.939 147.928 179.683 148.357 179.496C148.787 179.3 149.277 179.202 149.827 179.202C150.677 179.202 151.363 179.417 151.885 179.846C152.408 180.275 152.688 180.863 152.725 181.61H151.451C151.423 181.209 151.26 180.887 150.961 180.644C150.672 180.401 150.28 180.28 149.785 180.28C149.328 180.28 148.964 180.378 148.693 180.574C148.423 180.77 148.287 181.027 148.287 181.344C148.287 181.596 148.367 181.806 148.525 181.974C148.693 182.133 148.899 182.263 149.141 182.366C149.393 182.459 149.739 182.567 150.177 182.688C150.728 182.837 151.176 182.987 151.521 183.136C151.867 183.276 152.161 183.491 152.403 183.78C152.655 184.069 152.786 184.447 152.795 184.914C152.795 185.334 152.679 185.712 152.445 186.048C152.212 186.384 151.881 186.65 151.451 186.846C151.031 187.033 150.546 187.126 149.995 187.126Z" fill="white"/>
<defs>
<filter id="filter0_i_3260_218" x="121.572" y="101.611" width="19.1106" height="31.9861" filterUnits="userSpaceOnUse" color-interpolation-filters="sRGB">
<feFlood flood-opacity="0" result="BackgroundImageFix"/>
<feBlend mode="normal" in="SourceGraphic" in2="BackgroundImageFix" result="shape"/>
<feColorMatrix in="SourceAlpha" type="matrix" values="0 0 0 0 0 0 0 0 0 0 0 0 0 0 0 0 0 0 127 0" result="hardAlpha"/>
<feOffset dx="0.0480961" dy="-0.0961922"/>
<feGaussianBlur stdDeviation="0.0961922"/>
<feComposite in2="hardAlpha" operator="arithmetic" k2="-1" k3="1"/>
<feColorMatrix type="matrix" values="0 0 0 0 0.960784 0 0 0 0 0.305882 0 0 0 0 0.764706 0 0 0 1 0"/>
<feBlend mode="normal" in2="shape" result="effect1_innerShadow_3260_218"/>
</filter>
<filter id="filter1_i_3260_218" x="80.5732" y="101.267" width="43.8535" height="61.564" filterUnits="userSpaceOnUse" color-interpolation-filters="sRGB">
<feFlood flood-opacity="0" result="BackgroundImageFix"/>
<feBlend mode="normal" in="SourceGraphic" in2="BackgroundImageFix" result="shape"/>
<feColorMatrix in="SourceAlpha" type="matrix" values="0 0 0 0 0 0 0 0 0 0 0 0 0 0 0 0 0 0 127 0" result="hardAlpha"/>
<feOffset dx="0.0961922" dy="-0.0961922"/>
<feGaussianBlur stdDeviation="0.144288"/>
<feComposite in2="hardAlpha" operator="arithmetic" k2="-1" k3="1"/>
<feColorMatrix type="matrix" values="0 0 0 0 0.909804 0 0 0 0 0.223529 0 0 0 0 0.717647 0 0 0 1 0"/>
<feBlend mode="normal" in2="shape" result="effect1_innerShadow_3260_218"/>
</filter>
<filter id="filter2_ii_3260_218" x="83.9529" y="100.801" width="36.9931" height="21.4584" filterUnits="userSpaceOnUse" color-interpolation-filters="sRGB">
<feFlood flood-opacity="0" result="BackgroundImageFix"/>
<feBlend mode="normal" in="SourceGraphic" in2="BackgroundImageFix" result="shape"/>
<feColorMatrix in="SourceAlpha" type="matrix" values="0 0 0 0 0 0 0 0 0 0 0 0 0 0 0 0 0 0 127 0" result="hardAlpha"/>
<feOffset dx="-0.0192384" dy="0.0192384"/>
<feGaussianBlur stdDeviation="0.0144288"/>
<feComposite in2="hardAlpha" operator="arithmetic" k2="-1" k3="1"/>
<feColorMatrix type="matrix" values="0 0 0 0 0.913725 0 0 0 0 0.411765 0 0 0 0 0.662745 0 0 0 1 0"/>
<feBlend mode="normal" in2="shape" result="effect1_innerShadow_3260_218"/>
<feColorMatrix in="SourceAlpha" type="matrix" values="0 0 0 0 0 0 0 0 0 0 0 0 0 0 0 0 0 0 127 0" result="hardAlpha"/>
<feOffset dx="0.0192384" dy="-0.0192384"/>
<feGaussianBlur stdDeviation="0.0144288"/>
<feComposite in2="hardAlpha" operator="arithmetic" k2="-1" k3="1"/>
<feColorMatrix type="matrix" values="0 0 0 0 0.898039 0 0 0 0 0.247059 0 0 0 0 0.615686 0 0 0 1 0"/>
<feBlend mode="normal" in2="effect1_innerShadow_3260_218" result="effect2_innerShadow_3260_218"/>
</filter>
<filter id="filter3_f_3260_218" x="122.414" y="103.042" width="16.1045" height="10.2186" filterUnits="userSpaceOnUse" color-interpolation-filters="sRGB">
<feFlood flood-opacity="0" result="BackgroundImageFix"/>
<feBlend mode="normal" in="SourceGraphic" in2="BackgroundImageFix" result="shape"/>
<feGaussianBlur stdDeviation="0.0721441" result="effect1_foregroundBlur_3260_218"/>
</filter>
<filter id="filter4_f_3260_218" x="91.8713" y="104.036" width="21.1616" height="1.50354" filterUnits="userSpaceOnUse" color-interpolation-filters="sRGB">
<feFlood flood-opacity="0" result="BackgroundImageFix"/>
<feBlend mode="normal" in="SourceGraphic" in2="BackgroundImageFix" result="shape"/>
<feGaussianBlur stdDeviation="0.024048" result="effect1_foregroundBlur_3260_218"/>
</filter>
<linearGradient id="paint0_linear_3260_218" x1="111.468" y1="72.7478" x2="111.468" y2="82.6538" gradientUnits="userSpaceOnUse">
<stop offset="0.181" stop-color="#B881CF"/>
<stop offset="1" stop-color="#754CA5"/>
</linearGradient>
<radialGradient id="paint1_radial_3260_218" cx="0" cy="0" r="1" gradientUnits="userSpaceOnUse" gradientTransform="translate(84.0033 112.851) rotate(139.682) scale(22.3497 29.5031)">
<stop offset="0.335" stop-color="#F96ACF"/>
<stop offset="1" stop-color="#E44CBA"/>
</radialGradient>
<linearGradient id="paint2_linear_3260_218" x1="82.1759" y1="135.684" x2="74.5758" y2="133.277" gradientUnits="userSpaceOnUse">
<stop stop-color="#DE47B0"/>
<stop offset="1" stop-color="#DE47B0" stop-opacity="0"/>
</linearGradient>
<linearGradient id="paint3_linear_3260_218" x1="69.1162" y1="107.646" x2="71.8119" y2="110.784" gradientUnits="userSpaceOnUse">
<stop offset="0.082" stop-color="#E665B5"/>
<stop offset="1" stop-color="#E665B5" stop-opacity="0"/>
</linearGradient>
<linearGradient id="paint4_linear_3260_218" x1="125.02" y1="103.695" x2="133.644" y2="130.402" gradientUnits="userSpaceOnUse">
<stop offset="0.457" stop-color="#FF6ED9"/>
<stop offset="1" stop-color="#FA5BCA"/>
</linearGradient>
<radialGradient id="paint5_radial_3260_218" cx="0" cy="0" r="1" gradientUnits="userSpaceOnUse" gradientTransform="translate(124.673 114.262) rotate(90) scale(12.7728 1.98114)">
<stop stop-color="#FF81D9"/>
<stop offset="1" stop-color="#FF81D9" stop-opacity="0"/>
</radialGradient>
<linearGradient id="paint6_linear_3260_218" x1="102.453" y1="119.593" x2="102.453" y2="162.83" gradientUnits="userSpaceOnUse">
<stop stop-color="#F972CA"/>
<stop offset="1" stop-color="#F949C4"/>
</linearGradient>
<radialGradient id="paint7_radial_3260_218" cx="0" cy="0" r="1" gradientUnits="userSpaceOnUse" gradientTransform="translate(79.7123 104.705) rotate(90) scale(33.0807 14.9195)">
<stop offset="0.355" stop-color="#F76AC8"/>
<stop offset="1" stop-color="#F360C4" stop-opacity="0"/>
</radialGradient>
<radialGradient id="paint8_radial_3260_218" cx="0" cy="0" r="1" gradientUnits="userSpaceOnUse" gradientTransform="translate(124.33 118.581) rotate(90) scale(30.2323 3.87664)">
<stop offset="0.077" stop-color="#FF83DA"/>
<stop offset="1" stop-color="#FF83DA" stop-opacity="0"/>
</radialGradient>
<radialGradient id="paint9_radial_3260_218" cx="0" cy="0" r="1" gradientUnits="userSpaceOnUse" gradientTransform="translate(101.976 103.144) rotate(90) scale(15.989 23.4871)">
<stop offset="0.247" stop-color="#CE59A3"/>
<stop offset="1" stop-color="#B8387F"/>
</radialGradient>
<radialGradient id="paint10_radial_3260_218" cx="0" cy="0" r="1" gradientUnits="userSpaceOnUse" gradientTransform="translate(111.498 110.876) rotate(145.15) scale(16.3741 5.05403)">
<stop stop-color="#BA3A82"/>
<stop offset="1" stop-color="#BA3A82" stop-opacity="0"/>
</radialGradient>
<linearGradient id="paint11_linear_3260_218" x1="119.074" y1="102.223" x2="98.9199" y2="119.578" gradientUnits="userSpaceOnUse">
<stop stop-color="#DD53A4"/>
<stop offset="1" stop-color="#E24B9B"/>
</linearGradient>
<radialGradient id="paint12_radial_3260_218" cx="0" cy="0" r="1" gradientUnits="userSpaceOnUse" gradientTransform="translate(102.453 104.788) rotate(90) scale(2.72009 13.868)">
<stop stop-color="#D463A8"/>
<stop offset="1" stop-color="#D463A8" stop-opacity="0"/>
</radialGradient>
</defs>
</svg>
