<svg width="167" height="203" viewBox="0 0 167 203" fill="none" xmlns="http://www.w3.org/2000/svg">
<rect x="0.553846" y="0.553846" width="165.046" height="201.6" rx="17.1692" fill="#F0F8FF" stroke="#64B5F6" stroke-width="1.10769"/>
<path d="M137.14 84.1597C139.592 89.2801 140.966 95.0251 140.966 101.077C140.966 122.796 123.368 140.394 101.648 140.394C79.929 140.394 62.3309 122.796 62.3309 101.077C62.3309 95.0137 63.7046 89.2801 66.157 84.1597C61.0042 91.46 58.2432 100.179 58.2549 109.115C58.2549 133.082 77.6809 152.508 101.648 152.508C125.616 152.508 145.042 133.082 145.042 109.115C145.041 100.181 142.281 91.4657 137.14 84.1597Z" fill="#4B8A99"/>
<path d="M65.8046 68.5598C46.0039 88.3491 46.0039 120.434 65.8046 140.235C85.5939 160.024 117.679 160.024 137.48 140.235C157.281 120.446 157.269 88.3605 137.48 68.5598C117.679 48.7704 85.5939 48.7704 65.8046 68.5598ZM128.874 135.932C113.433 151.373 88.4096 151.373 72.9687 135.932C57.5278 120.491 57.5278 95.4678 72.9687 80.0269C88.4096 64.586 113.433 64.586 128.874 80.0269C144.315 95.4678 144.315 120.491 128.874 135.932Z" fill="#BDBDBD"/>
<path d="M72.0488 37.8937L80.8479 24.5532L87.66 32.3418L72.0488 37.8937Z" fill="#64B5F6"/>
<path d="M92.2242 48.1231L72.0488 37.8935L87.66 32.3416L92.2242 48.1231Z" fill="#81D4FA"/>
<path d="M102.204 35.4411L87.6602 32.3416L92.2243 48.1231L102.204 35.4411Z" fill="white"/>
<path d="M132.371 37.8937L123.572 24.5532L116.76 32.3418L132.371 37.8937Z" fill="#1E88E5"/>
<path d="M112.184 48.1231L132.371 37.8935L116.76 32.3416L112.184 48.1231Z" fill="#B3E5FC"/>
<path d="M102.204 35.4411L116.759 32.3416L112.184 48.1231L102.204 35.4411Z" fill="white"/>
<path d="M112.184 48.123L102.204 35.441L92.2246 48.123H112.184Z" fill="#B2EBF2"/>
<path d="M91.6676 18.8308H112.751L123.571 24.553L116.759 32.3416L102.204 35.4411L87.6598 32.3416L80.8477 24.553L91.6676 18.8308Z" fill="#B3E5FC"/>
<path d="M102.204 67.7534L72.0488 37.8934L92.2242 48.123L102.204 67.7534Z" fill="#1E88E5"/>
<path d="M102.204 67.7534L132.371 37.8934L112.184 48.123L102.204 67.7534Z" fill="#81D4FA"/>
<path d="M112.184 48.1232L102.204 67.7536L92.2246 48.1232H112.184Z" fill="#E1F5FE"/>
<path d="M67.6322 72.4652C70.9361 73.5437 68.972 76.6319 68.2794 77.3131C65.5659 79.9926 64.8392 81.7297 63.1476 84.534C61.3877 87.4406 59.3327 87.5882 58.4926 85.8511C56.1991 81.0939 63.772 71.1936 67.6322 72.4652ZM127.92 140.746C122.061 144.311 119.961 142.88 121.46 141.881C127.102 138.112 134.675 132.866 139.376 118.311C139.705 117.278 140.818 116.54 141.839 116.903C142.77 117.232 143.315 118.22 143.054 119.163C139.16 133.457 132.632 137.873 127.92 140.746Z" fill="white"/>
<path d="M122.255 48.0096L107.041 62.9283L104.804 62.7126L105.258 52.8349C105.258 50.9048 104.055 49.4743 102.216 49.4743C100.365 49.4743 99.2636 50.9048 99.2636 52.8349L99.7178 62.7126L97.4811 62.9283L82.2559 48.0096C82.2559 48.0096 78.2935 49.724 82.097 53.4934C86.4 57.751 96.9702 67.8444 96.9702 67.8444H107.529C107.529 67.8444 118.111 57.751 122.402 53.4934C126.217 49.724 122.255 48.0096 122.255 48.0096Z" fill="#BDBDBD"/>
<path d="M122.22 47.9526L109.822 60.2032C108.766 61.2364 109.255 63.0416 110.696 63.3822C113.932 64.1315 119.246 66.073 126.421 71.1026C131.258 74.4974 134.005 73.8956 135.05 71.9655C136.367 69.5358 135.311 66.4136 132.961 64.5516C125.479 58.625 119.03 56.7857 119.03 56.7857C120.245 55.6163 121.426 54.481 122.413 53.4932C126.217 49.7238 122.22 47.9526 122.22 47.9526Z" fill="#8E8E8E"/>
<path d="M33.9473 91.7749H75.4857V130.871H33.9473V91.7749Z" fill="url(#paint0_linear_3260_337)"/>
<path d="M38.834 118.655L24.1709 124.761V96.6602L38.834 105.217V118.655Z" fill="#B5F759"/>
<path d="M74.2644 103.992L88.9233 97.8854V125.982L74.2603 117.429L74.2644 103.992Z" fill="#2AB059"/>
<path d="M74.2662 118.655L88.9501 124.691L69.0864 144.579L64.7622 128.159L74.2662 118.655Z" fill="#26A379"/>
<path d="M38.8328 103.992L24.1489 97.9561L44.0126 78.0675L48.3368 94.4877L38.8328 103.992Z" fill="#E5FF9E"/>
<path d="M47.5349 129.65L41.1504 144.213L21.7271 123.905L38.2427 119.946L47.5349 129.65ZM64.2957 93.7772L70.651 79.2388L90.1451 97.8854L73.5795 103.506L64.2957 93.7772Z" fill="#60E840"/>
<path d="M48.6066 92.9963L42.5005 78.3333H70.5971L62.0443 92.9963H48.6066Z" fill="#B5F759"/>
<path d="M63.27 128.429L69.3762 143.092H41.2754L49.8323 128.429H63.27Z" fill="#2AB059"/>
<path fill-rule="evenodd" clip-rule="evenodd" d="M65.7126 91.775L75.4866 101.549L89.0697 95.8998L90.2452 98.5915L75.4866 105.213V117.429L90.1954 123.809L89.024 126.497L75.4866 121.097L65.7126 130.871L71.8188 145.53H68.1551L62.0489 130.867H49.8325L43.7221 145.53H40.0585L46.1646 130.867L36.3906 121.097L23.5137 126.543L22.3423 123.855L36.3906 117.429V105.217L22.3174 98.5707L23.4888 95.8832L36.3906 101.553L46.1646 91.7792L40.7895 78.2916L43.4522 77.1161L49.8325 91.7792H62.0448L68.8903 77.2407L71.5778 78.4121L65.7126 91.775ZM40.0585 102.766L51.0537 128.42H48.6112L40.0543 119.872L40.0585 102.766ZM60.8277 128.42L46.1646 96.6599L48.6071 95.4387L63.2701 127.203L60.8277 128.42ZM63.2701 95.4387L71.8229 102.766V119.872L67.0045 124.757L53.4961 95.4345L63.2701 95.4387Z" fill="#F0F3FA"/>
<path fill-rule="evenodd" clip-rule="evenodd" d="M73.0439 69.7847L97.4768 94.2176V128.429L73.0439 152.862H38.8328L14.3999 128.429V94.2176L38.8328 69.7847H73.0439ZM68.1507 79.5587L73.0397 84.4436L71.8185 95.9082L82.8137 94.2176L87.6987 99.1067V123.54L82.8137 128.429L71.8144 127.207L73.0397 138.203L68.1507 143.088H43.7261L38.837 138.203L40.0582 127.203L26.6205 128.429L24.1781 125.741V99.1025L29.063 94.2134L40.0582 95.4347L38.837 84.4394L43.7261 79.5587H68.1507Z" fill="url(#paint1_linear_3260_337)"/>
<path fill-rule="evenodd" clip-rule="evenodd" d="M71.8175 72.2275L95.0333 95.4392V127.204L71.8175 150.42H40.053L16.8413 127.204V95.4392L40.053 72.2275H71.8175ZM70.5962 77.1125L75.4853 82.0015L74.2641 92.9968L85.2593 91.7755L90.1442 96.6605V125.987L85.2593 130.872L74.2641 129.65L75.4853 140.641L70.5962 145.53H41.2742L36.3893 140.641L37.6105 129.65L26.6153 130.872L21.7304 125.982V96.6605L26.6112 91.7755L37.6064 92.9968L36.3852 82.0015L41.2742 77.1125H70.5962Z" fill="url(#paint2_linear_3260_337)"/>
<path fill-rule="evenodd" clip-rule="evenodd" d="M71.0158 76.1399L76.5113 81.6354L75.3607 91.8954L85.6207 90.7489L91.1245 96.2445V126.401L85.6248 131.897L75.3648 130.746L76.5113 141.006L71.0116 146.506H40.8588L35.3633 141.01L36.5098 130.75L26.2498 131.897L20.7501 126.397V96.2445L26.2498 90.7489L36.5098 91.8954L35.3633 81.6354L40.8588 76.1357L71.0158 76.1399ZM37.6064 92.992L26.6112 91.7708L21.7304 96.6599V125.986L26.6153 130.871L37.6105 129.65L36.3893 140.641L41.2742 145.53H70.6004L75.4853 140.641L74.2641 129.65L85.2593 130.871L90.1442 125.982V96.6599L85.2635 91.7749L74.2682 92.9962L75.4895 82.0009L70.6004 77.1119H41.2742L36.3893 82.0009L37.6064 92.992ZM71.3979 73.1989H40.4684L17.8175 95.854V126.788L40.4684 149.439H71.4021L94.053 126.788V95.854L71.3979 73.1989ZM95.0291 95.4345L71.8133 72.2228H40.053L16.8413 95.4386V127.203L40.053 150.419H71.8175L95.0333 127.203L95.0291 95.4345Z" fill="#FFD464"/>
<rect y="141.785" width="166.154" height="59.8154" rx="17.7231" fill="#64B5F6"/>
<rect y="142.892" width="166.154" height="25.4769" fill="#64B5F6"/>
<path d="M13.594 155.242V156.278H9.352V159.568H12.796V160.604H9.352V165H8.078V155.242H13.594ZM14.6567 161.136C14.6567 160.352 14.8154 159.666 15.1327 159.078C15.45 158.481 15.884 158.019 16.4347 157.692C16.9947 157.365 17.6154 157.202 18.2967 157.202C18.9687 157.202 19.552 157.347 20.0467 157.636C20.5414 157.925 20.91 158.289 21.1527 158.728V157.328H22.4407V165H21.1527V163.572C20.9007 164.02 20.5227 164.393 20.0187 164.692C19.524 164.981 18.9454 165.126 18.2827 165.126C17.6014 165.126 16.9854 164.958 16.4347 164.622C15.884 164.286 15.45 163.815 15.1327 163.208C14.8154 162.601 14.6567 161.911 14.6567 161.136ZM21.1527 161.15C21.1527 160.571 21.036 160.067 20.8027 159.638C20.5694 159.209 20.252 158.882 19.8507 158.658C19.4587 158.425 19.0247 158.308 18.5487 158.308C18.0727 158.308 17.6387 158.42 17.2467 158.644C16.8547 158.868 16.542 159.195 16.3087 159.624C16.0754 160.053 15.9587 160.557 15.9587 161.136C15.9587 161.724 16.0754 162.237 16.3087 162.676C16.542 163.105 16.8547 163.437 17.2467 163.67C17.6387 163.894 18.0727 164.006 18.5487 164.006C19.0247 164.006 19.4587 163.894 19.8507 163.67C20.252 163.437 20.5694 163.105 20.8027 162.676C21.036 162.237 21.1527 161.729 21.1527 161.15ZM27.3096 165.126C26.7216 165.126 26.1943 165.028 25.7276 164.832C25.261 164.627 24.8923 164.347 24.6216 163.992C24.351 163.628 24.2016 163.213 24.1736 162.746H25.4896C25.527 163.129 25.7043 163.441 26.0216 163.684C26.3483 163.927 26.773 164.048 27.2956 164.048C27.781 164.048 28.1636 163.941 28.4436 163.726C28.7236 163.511 28.8636 163.241 28.8636 162.914C28.8636 162.578 28.7143 162.331 28.4156 162.172C28.117 162.004 27.655 161.841 27.0296 161.682C26.4603 161.533 25.9936 161.383 25.6296 161.234C25.275 161.075 24.967 160.847 24.7056 160.548C24.4536 160.24 24.3276 159.839 24.3276 159.344C24.3276 158.952 24.4443 158.593 24.6776 158.266C24.911 157.939 25.2423 157.683 25.6716 157.496C26.101 157.3 26.591 157.202 27.1416 157.202C27.991 157.202 28.677 157.417 29.1996 157.846C29.7223 158.275 30.0023 158.863 30.0396 159.61H28.7656C28.7376 159.209 28.5743 158.887 28.2756 158.644C27.9863 158.401 27.5943 158.28 27.0996 158.28C26.6423 158.28 26.2783 158.378 26.0076 158.574C25.737 158.77 25.6016 159.027 25.6016 159.344C25.6016 159.596 25.681 159.806 25.8396 159.974C26.0076 160.133 26.213 160.263 26.4556 160.366C26.7076 160.459 27.053 160.567 27.4916 160.688C28.0423 160.837 28.4903 160.987 28.8356 161.136C29.181 161.276 29.475 161.491 29.7176 161.78C29.9696 162.069 30.1003 162.447 30.1096 162.914C30.1096 163.334 29.993 163.712 29.7596 164.048C29.5263 164.384 29.195 164.65 28.7656 164.846C28.3456 165.033 27.8603 165.126 27.3096 165.126ZM35.7161 157.188C36.2947 157.188 36.8174 157.314 37.2841 157.566C37.7507 157.809 38.1147 158.177 38.3761 158.672C38.6467 159.167 38.7821 159.769 38.7821 160.478V165H37.5221V160.66C37.5221 159.895 37.3307 159.311 36.9481 158.91C36.5654 158.499 36.0427 158.294 35.3801 158.294C34.7081 158.294 34.1714 158.504 33.7701 158.924C33.3781 159.344 33.1821 159.955 33.1821 160.758V165H31.9081V154.64H33.1821V158.42C33.4341 158.028 33.7794 157.725 34.2181 157.51C34.6661 157.295 35.1654 157.188 35.7161 157.188ZM41.5212 156.082C41.2785 156.082 41.0732 155.998 40.9052 155.83C40.7372 155.662 40.6532 155.457 40.6532 155.214C40.6532 154.971 40.7372 154.766 40.9052 154.598C41.0732 154.43 41.2785 154.346 41.5212 154.346C41.7545 154.346 41.9505 154.43 42.1092 154.598C42.2772 154.766 42.3612 154.971 42.3612 155.214C42.3612 155.457 42.2772 155.662 42.1092 155.83C41.9505 155.998 41.7545 156.082 41.5212 156.082ZM42.1372 157.328V165H40.8632V157.328H42.1372ZM47.6545 165.126C46.9358 165.126 46.2825 164.963 45.6945 164.636C45.1158 164.309 44.6585 163.847 44.3225 163.25C43.9958 162.643 43.8325 161.943 43.8325 161.15C43.8325 160.366 44.0005 159.675 44.3365 159.078C44.6818 158.471 45.1485 158.009 45.7365 157.692C46.3245 157.365 46.9825 157.202 47.7105 157.202C48.4385 157.202 49.0965 157.365 49.6845 157.692C50.2725 158.009 50.7345 158.467 51.0705 159.064C51.4158 159.661 51.5885 160.357 51.5885 161.15C51.5885 161.943 51.4111 162.643 51.0565 163.25C50.7111 163.847 50.2398 164.309 49.6425 164.636C49.0451 164.963 48.3825 165.126 47.6545 165.126ZM47.6545 164.006C48.1118 164.006 48.5411 163.899 48.9425 163.684C49.3438 163.469 49.6658 163.147 49.9085 162.718C50.1605 162.289 50.2865 161.766 50.2865 161.15C50.2865 160.534 50.1651 160.011 49.9225 159.582C49.6798 159.153 49.3625 158.835 48.9705 158.63C48.5785 158.415 48.1538 158.308 47.6965 158.308C47.2298 158.308 46.8005 158.415 46.4085 158.63C46.0258 158.835 45.7178 159.153 45.4845 159.582C45.2511 160.011 45.1345 160.534 45.1345 161.15C45.1345 161.775 45.2465 162.303 45.4705 162.732C45.7038 163.161 46.0118 163.483 46.3945 163.698C46.7771 163.903 47.1971 164.006 47.6545 164.006ZM57.0015 157.188C57.9349 157.188 58.6909 157.473 59.2695 158.042C59.8482 158.602 60.1375 159.414 60.1375 160.478V165H58.8775V160.66C58.8775 159.895 58.6862 159.311 58.3035 158.91C57.9209 158.499 57.3982 158.294 56.7355 158.294C56.0635 158.294 55.5269 158.504 55.1255 158.924C54.7335 159.344 54.5375 159.955 54.5375 160.758V165H53.2635V157.328H54.5375V158.42C54.7895 158.028 55.1302 157.725 55.5595 157.51C55.9982 157.295 56.4789 157.188 57.0015 157.188ZM65.475 161.136C65.475 160.352 65.6337 159.666 65.951 159.078C66.2684 158.481 66.7024 158.019 67.253 157.692C67.813 157.365 68.4337 157.202 69.115 157.202C69.787 157.202 70.3704 157.347 70.865 157.636C71.3597 157.925 71.7284 158.289 71.971 158.728V157.328H73.259V165H71.971V163.572C71.719 164.02 71.341 164.393 70.837 164.692C70.3424 164.981 69.7637 165.126 69.101 165.126C68.4197 165.126 67.8037 164.958 67.253 164.622C66.7024 164.286 66.2684 163.815 65.951 163.208C65.6337 162.601 65.475 161.911 65.475 161.136ZM71.971 161.15C71.971 160.571 71.8544 160.067 71.621 159.638C71.3877 159.209 71.0704 158.882 70.669 158.658C70.277 158.425 69.843 158.308 69.367 158.308C68.891 158.308 68.457 158.42 68.065 158.644C67.673 158.868 67.3604 159.195 67.127 159.624C66.8937 160.053 66.777 160.557 66.777 161.136C66.777 161.724 66.8937 162.237 67.127 162.676C67.3604 163.105 67.673 163.437 68.065 163.67C68.457 163.894 68.891 164.006 69.367 164.006C69.843 164.006 70.277 163.894 70.669 163.67C71.0704 163.437 71.3877 163.105 71.621 162.676C71.8544 162.237 71.971 161.729 71.971 161.15ZM74.936 161.15C74.936 160.357 75.0947 159.666 75.412 159.078C75.7293 158.481 76.168 158.019 76.728 157.692C77.2973 157.365 77.946 157.202 78.674 157.202C79.6167 157.202 80.3913 157.431 80.998 157.888C81.614 158.345 82.02 158.98 82.216 159.792H80.844C80.7133 159.325 80.4567 158.957 80.074 158.686C79.7007 158.415 79.234 158.28 78.674 158.28C77.946 158.28 77.358 158.532 76.91 159.036C76.462 159.531 76.238 160.235 76.238 161.15C76.238 162.074 76.462 162.788 76.91 163.292C77.358 163.796 77.946 164.048 78.674 164.048C79.234 164.048 79.7007 163.917 80.074 163.656C80.4473 163.395 80.704 163.021 80.844 162.536H82.216C82.0107 163.32 81.6 163.95 80.984 164.426C80.368 164.893 79.598 165.126 78.674 165.126C77.946 165.126 77.2973 164.963 76.728 164.636C76.168 164.309 75.7293 163.847 75.412 163.25C75.0947 162.653 74.936 161.953 74.936 161.15ZM83.4399 161.15C83.4399 160.357 83.5986 159.666 83.9159 159.078C84.2332 158.481 84.6719 158.019 85.2319 157.692C85.8012 157.365 86.4499 157.202 87.1779 157.202C88.1206 157.202 88.8952 157.431 89.5019 157.888C90.1179 158.345 90.5239 158.98 90.7199 159.792H89.3479C89.2172 159.325 88.9606 158.957 88.5779 158.686C88.2046 158.415 87.7379 158.28 87.1779 158.28C86.4499 158.28 85.8619 158.532 85.4139 159.036C84.9659 159.531 84.7419 160.235 84.7419 161.15C84.7419 162.074 84.9659 162.788 85.4139 163.292C85.8619 163.796 86.4499 164.048 87.1779 164.048C87.7379 164.048 88.2046 163.917 88.5779 163.656C88.9512 163.395 89.2079 163.021 89.3479 162.536H90.7199C90.5146 163.32 90.1039 163.95 89.4879 164.426C88.8719 164.893 88.1019 165.126 87.1779 165.126C86.4499 165.126 85.8012 164.963 85.2319 164.636C84.6719 164.309 84.2332 163.847 83.9159 163.25C83.5986 162.653 83.4399 161.953 83.4399 161.15ZM99.4198 160.87C99.4198 161.113 99.4058 161.369 99.3778 161.64H93.2458C93.2925 162.396 93.5491 162.989 94.0158 163.418C94.4918 163.838 95.0658 164.048 95.7378 164.048C96.2885 164.048 96.7458 163.922 97.1098 163.67C97.4831 163.409 97.7445 163.063 97.8938 162.634H99.2658C99.0605 163.371 98.6498 163.973 98.0338 164.44C97.4178 164.897 96.6525 165.126 95.7378 165.126C95.0098 165.126 94.3565 164.963 93.7778 164.636C93.2085 164.309 92.7605 163.847 92.4338 163.25C92.1071 162.643 91.9438 161.943 91.9438 161.15C91.9438 160.357 92.1025 159.661 92.4198 159.064C92.7371 158.467 93.1805 158.009 93.7498 157.692C94.3285 157.365 94.9911 157.202 95.7378 157.202C96.4658 157.202 97.1098 157.361 97.6698 157.678C98.2298 157.995 98.6591 158.434 98.9578 158.994C99.2658 159.545 99.4198 160.17 99.4198 160.87ZM98.1038 160.604C98.1038 160.119 97.9965 159.703 97.7818 159.358C97.5671 159.003 97.2731 158.737 96.8998 158.56C96.5358 158.373 96.1298 158.28 95.6818 158.28C95.0378 158.28 94.4871 158.485 94.0298 158.896C93.5818 159.307 93.3251 159.876 93.2598 160.604H98.1038ZM103.817 165.126C103.229 165.126 102.702 165.028 102.235 164.832C101.769 164.627 101.4 164.347 101.129 163.992C100.859 163.628 100.709 163.213 100.681 162.746H101.997C102.035 163.129 102.212 163.441 102.529 163.684C102.856 163.927 103.281 164.048 103.803 164.048C104.289 164.048 104.671 163.941 104.951 163.726C105.231 163.511 105.371 163.241 105.371 162.914C105.371 162.578 105.222 162.331 104.923 162.172C104.625 162.004 104.163 161.841 103.537 161.682C102.968 161.533 102.501 161.383 102.137 161.234C101.783 161.075 101.475 160.847 101.213 160.548C100.961 160.24 100.835 159.839 100.835 159.344C100.835 158.952 100.952 158.593 101.185 158.266C101.419 157.939 101.75 157.683 102.179 157.496C102.609 157.3 103.099 157.202 103.649 157.202C104.499 157.202 105.185 157.417 105.707 157.846C106.23 158.275 106.51 158.863 106.547 159.61H105.273C105.245 159.209 105.082 158.887 104.783 158.644C104.494 158.401 104.102 158.28 103.607 158.28C103.15 158.28 102.786 158.378 102.515 158.574C102.245 158.77 102.109 159.027 102.109 159.344C102.109 159.596 102.189 159.806 102.347 159.974C102.515 160.133 102.721 160.263 102.963 160.366C103.215 160.459 103.561 160.567 103.999 160.688C104.55 160.837 104.998 160.987 105.343 161.136C105.689 161.276 105.983 161.491 106.225 161.78C106.477 162.069 106.608 162.447 106.617 162.914C106.617 163.334 106.501 163.712 106.267 164.048C106.034 164.384 105.703 164.65 105.273 164.846C104.853 165.033 104.368 165.126 103.817 165.126ZM111.132 165.126C110.544 165.126 110.017 165.028 109.55 164.832C109.083 164.627 108.715 164.347 108.444 163.992C108.173 163.628 108.024 163.213 107.996 162.746H109.312C109.349 163.129 109.527 163.441 109.844 163.684C110.171 163.927 110.595 164.048 111.118 164.048C111.603 164.048 111.986 163.941 112.266 163.726C112.546 163.511 112.686 163.241 112.686 162.914C112.686 162.578 112.537 162.331 112.238 162.172C111.939 162.004 111.477 161.841 110.852 161.682C110.283 161.533 109.816 161.383 109.452 161.234C109.097 161.075 108.789 160.847 108.528 160.548C108.276 160.24 108.15 159.839 108.15 159.344C108.15 158.952 108.267 158.593 108.5 158.266C108.733 157.939 109.065 157.683 109.494 157.496C109.923 157.3 110.413 157.202 110.964 157.202C111.813 157.202 112.499 157.417 113.022 157.846C113.545 158.275 113.825 158.863 113.862 159.61H112.588C112.56 159.209 112.397 158.887 112.098 158.644C111.809 158.401 111.417 158.28 110.922 158.28C110.465 158.28 110.101 158.378 109.83 158.574C109.559 158.77 109.424 159.027 109.424 159.344C109.424 159.596 109.503 159.806 109.662 159.974C109.83 160.133 110.035 160.263 110.278 160.366C110.53 160.459 110.875 160.567 111.314 160.688C111.865 160.837 112.313 160.987 112.658 161.136C113.003 161.276 113.297 161.491 113.54 161.78C113.792 162.069 113.923 162.447 113.932 162.914C113.932 163.334 113.815 163.712 113.582 164.048C113.349 164.384 113.017 164.65 112.588 164.846C112.168 165.033 111.683 165.126 111.132 165.126ZM119.076 165.126C118.358 165.126 117.704 164.963 117.116 164.636C116.538 164.309 116.08 163.847 115.744 163.25C115.418 162.643 115.254 161.943 115.254 161.15C115.254 160.366 115.422 159.675 115.758 159.078C116.104 158.471 116.57 158.009 117.158 157.692C117.746 157.365 118.404 157.202 119.132 157.202C119.86 157.202 120.518 157.365 121.106 157.692C121.694 158.009 122.156 158.467 122.492 159.064C122.838 159.661 123.01 160.357 123.01 161.15C123.01 161.943 122.833 162.643 122.478 163.25C122.133 163.847 121.662 164.309 121.064 164.636C120.467 164.963 119.804 165.126 119.076 165.126ZM119.076 164.006C119.534 164.006 119.963 163.899 120.364 163.684C120.766 163.469 121.088 163.147 121.33 162.718C121.582 162.289 121.708 161.766 121.708 161.15C121.708 160.534 121.587 160.011 121.344 159.582C121.102 159.153 120.784 158.835 120.392 158.63C120 158.415 119.576 158.308 119.118 158.308C118.652 158.308 118.222 158.415 117.83 158.63C117.448 158.835 117.14 159.153 116.906 159.582C116.673 160.011 116.556 160.534 116.556 161.15C116.556 161.775 116.668 162.303 116.892 162.732C117.126 163.161 117.434 163.483 117.816 163.698C118.199 163.903 118.619 164.006 119.076 164.006ZM125.959 158.574C126.183 158.135 126.501 157.795 126.911 157.552C127.331 157.309 127.84 157.188 128.437 157.188V158.504H128.101C126.673 158.504 125.959 159.279 125.959 160.828V165H124.685V157.328H125.959V158.574ZM130.566 156.082C130.323 156.082 130.118 155.998 129.95 155.83C129.782 155.662 129.698 155.457 129.698 155.214C129.698 154.971 129.782 154.766 129.95 154.598C130.118 154.43 130.323 154.346 130.566 154.346C130.799 154.346 130.995 154.43 131.154 154.598C131.322 154.766 131.406 154.971 131.406 155.214C131.406 155.457 131.322 155.662 131.154 155.83C130.995 155.998 130.799 156.082 130.566 156.082ZM131.182 157.328V165H129.908V157.328H131.182ZM140.353 160.87C140.353 161.113 140.339 161.369 140.311 161.64H134.179C134.226 162.396 134.483 162.989 134.949 163.418C135.425 163.838 135.999 164.048 136.671 164.048C137.222 164.048 137.679 163.922 138.043 163.67C138.417 163.409 138.678 163.063 138.827 162.634H140.199C139.994 163.371 139.583 163.973 138.967 164.44C138.351 164.897 137.586 165.126 136.671 165.126C135.943 165.126 135.29 164.963 134.711 164.636C134.142 164.309 133.694 163.847 133.367 163.25C133.041 162.643 132.877 161.943 132.877 161.15C132.877 160.357 133.036 159.661 133.353 159.064C133.671 158.467 134.114 158.009 134.683 157.692C135.262 157.365 135.925 157.202 136.671 157.202C137.399 157.202 138.043 157.361 138.603 157.678C139.163 157.995 139.593 158.434 139.891 158.994C140.199 159.545 140.353 160.17 140.353 160.87ZM139.037 160.604C139.037 160.119 138.93 159.703 138.715 159.358C138.501 159.003 138.207 158.737 137.833 158.56C137.469 158.373 137.063 158.28 136.615 158.28C135.971 158.28 135.421 158.485 134.963 158.896C134.515 159.307 134.259 159.876 134.193 160.604H139.037ZM144.751 165.126C144.163 165.126 143.636 165.028 143.169 164.832C142.702 164.627 142.334 164.347 142.063 163.992C141.792 163.628 141.643 163.213 141.615 162.746H142.931C142.968 163.129 143.146 163.441 143.463 163.684C143.79 163.927 144.214 164.048 144.737 164.048C145.222 164.048 145.605 163.941 145.885 163.726C146.165 163.511 146.305 163.241 146.305 162.914C146.305 162.578 146.156 162.331 145.857 162.172C145.558 162.004 145.096 161.841 144.471 161.682C143.902 161.533 143.435 161.383 143.071 161.234C142.716 161.075 142.408 160.847 142.147 160.548C141.895 160.24 141.769 159.839 141.769 159.344C141.769 158.952 141.886 158.593 142.119 158.266C142.352 157.939 142.684 157.683 143.113 157.496C143.542 157.3 144.032 157.202 144.583 157.202C145.432 157.202 146.118 157.417 146.641 157.846C147.164 158.275 147.444 158.863 147.481 159.61H146.207C146.179 159.209 146.016 158.887 145.717 158.644C145.428 158.401 145.036 158.28 144.541 158.28C144.084 158.28 143.72 158.378 143.449 158.574C143.178 158.77 143.043 159.027 143.043 159.344C143.043 159.596 143.122 159.806 143.281 159.974C143.449 160.133 143.654 160.263 143.897 160.366C144.149 160.459 144.494 160.567 144.933 160.688C145.484 160.837 145.932 160.987 146.277 161.136C146.622 161.276 146.916 161.491 147.159 161.78C147.411 162.069 147.542 162.447 147.551 162.914C147.551 163.334 147.434 163.712 147.201 164.048C146.968 164.384 146.636 164.65 146.207 164.846C145.787 165.033 145.302 165.126 144.751 165.126ZM158.402 159.33V160.408H152.816V159.33H158.402ZM12.992 176.242V183.452C12.992 184.255 12.7447 184.899 12.25 185.384C11.7553 185.86 11.102 186.098 10.29 186.098C9.46867 186.098 8.81067 185.855 8.316 185.37C7.82133 184.875 7.574 184.203 7.574 183.354H8.848C8.85733 183.83 8.97867 184.217 9.212 184.516C9.45467 184.815 9.814 184.964 10.29 184.964C10.766 184.964 11.1207 184.824 11.354 184.544C11.5873 184.255 11.704 183.891 11.704 183.452V176.242H12.992ZM22.5018 181.87C22.5018 182.113 22.4878 182.369 22.4598 182.64H16.3278C16.3745 183.396 16.6312 183.989 17.0978 184.418C17.5738 184.838 18.1478 185.048 18.8198 185.048C19.3705 185.048 19.8278 184.922 20.1918 184.67C20.5652 184.409 20.8265 184.063 20.9758 183.634H22.3478C22.1425 184.371 21.7318 184.973 21.1158 185.44C20.4998 185.897 19.7345 186.126 18.8198 186.126C18.0918 186.126 17.4385 185.963 16.8598 185.636C16.2905 185.309 15.8425 184.847 15.5158 184.25C15.1892 183.643 15.0258 182.943 15.0258 182.15C15.0258 181.357 15.1845 180.661 15.5018 180.064C15.8192 179.467 16.2625 179.009 16.8318 178.692C17.4105 178.365 18.0732 178.202 18.8198 178.202C19.5478 178.202 20.1918 178.361 20.7518 178.678C21.3118 178.995 21.7412 179.434 22.0398 179.994C22.3478 180.545 22.5018 181.17 22.5018 181.87ZM21.1858 181.604C21.1858 181.119 21.0785 180.703 20.8638 180.358C20.6492 180.003 20.3552 179.737 19.9818 179.56C19.6178 179.373 19.2118 179.28 18.7638 179.28C18.1198 179.28 17.5692 179.485 17.1118 179.896C16.6638 180.307 16.4072 180.876 16.3418 181.604H21.1858ZM34.4035 178.328L32.0095 186H30.6935L28.8455 179.91L26.9975 186H25.6815L23.2735 178.328H24.5755L26.3395 184.768L28.2435 178.328H29.5455L31.4075 184.782L33.1435 178.328H34.4035ZM42.6678 181.87C42.6678 182.113 42.6538 182.369 42.6258 182.64H36.4938C36.5405 183.396 36.7972 183.989 37.2638 184.418C37.7398 184.838 38.3138 185.048 38.9858 185.048C39.5365 185.048 39.9938 184.922 40.3578 184.67C40.7312 184.409 40.9925 184.063 41.1418 183.634H42.5138C42.3085 184.371 41.8978 184.973 41.2818 185.44C40.6658 185.897 39.9005 186.126 38.9858 186.126C38.2578 186.126 37.6045 185.963 37.0258 185.636C36.4565 185.309 36.0085 184.847 35.6818 184.25C35.3552 183.643 35.1918 182.943 35.1918 182.15C35.1918 181.357 35.3505 180.661 35.6678 180.064C35.9852 179.467 36.4285 179.009 36.9978 178.692C37.5765 178.365 38.2392 178.202 38.9858 178.202C39.7138 178.202 40.3578 178.361 40.9178 178.678C41.4778 178.995 41.9072 179.434 42.2058 179.994C42.5138 180.545 42.6678 181.17 42.6678 181.87ZM41.3518 181.604C41.3518 181.119 41.2445 180.703 41.0298 180.358C40.8152 180.003 40.5212 179.737 40.1478 179.56C39.7838 179.373 39.3778 179.28 38.9298 179.28C38.2858 179.28 37.7352 179.485 37.2778 179.896C36.8298 180.307 36.5732 180.876 36.5078 181.604H41.3518ZM45.6235 175.64V186H44.3495V175.64H45.6235ZM49.1108 184.236L47.5428 188.002H46.6888L47.7108 184.236H49.1108ZM61.6946 179.07C61.4239 178.501 61.0319 178.062 60.5186 177.754C60.0053 177.437 59.4079 177.278 58.7266 177.278C58.0453 177.278 57.4293 177.437 56.8786 177.754C56.3373 178.062 55.9079 178.51 55.5906 179.098C55.2826 179.677 55.1286 180.349 55.1286 181.114C55.1286 181.879 55.2826 182.551 55.5906 183.13C55.9079 183.709 56.3373 184.157 56.8786 184.474C57.4293 184.782 58.0453 184.936 58.7266 184.936C59.6786 184.936 60.4626 184.651 61.0786 184.082C61.6946 183.513 62.0539 182.743 62.1566 181.772H58.2646V180.736H63.5146V181.716C63.4399 182.519 63.1879 183.256 62.7586 183.928C62.3293 184.591 61.7646 185.118 61.0646 185.51C60.3646 185.893 59.5853 186.084 58.7266 186.084C57.8213 186.084 56.9953 185.874 56.2486 185.454C55.5019 185.025 54.9093 184.432 54.4706 183.676C54.0413 182.92 53.8266 182.066 53.8266 181.114C53.8266 180.162 54.0413 179.308 54.4706 178.552C54.9093 177.787 55.5019 177.194 56.2486 176.774C56.9953 176.345 57.8213 176.13 58.7266 176.13C59.7626 176.13 60.6773 176.387 61.4706 176.9C62.2733 177.413 62.8566 178.137 63.2206 179.07H61.6946ZM68.5451 186.126C67.8264 186.126 67.1731 185.963 66.5851 185.636C66.0064 185.309 65.5491 184.847 65.2131 184.25C64.8864 183.643 64.7231 182.943 64.7231 182.15C64.7231 181.366 64.8911 180.675 65.2271 180.078C65.5724 179.471 66.0391 179.009 66.6271 178.692C67.2151 178.365 67.8731 178.202 68.6011 178.202C69.3291 178.202 69.9871 178.365 70.5751 178.692C71.1631 179.009 71.6251 179.467 71.9611 180.064C72.3064 180.661 72.4791 181.357 72.4791 182.15C72.4791 182.943 72.3018 183.643 71.9471 184.25C71.6018 184.847 71.1304 185.309 70.5331 185.636C69.9358 185.963 69.2731 186.126 68.5451 186.126ZM68.5451 185.006C69.0024 185.006 69.4318 184.899 69.8331 184.684C70.2344 184.469 70.5564 184.147 70.7991 183.718C71.0511 183.289 71.1771 182.766 71.1771 182.15C71.1771 181.534 71.0558 181.011 70.8131 180.582C70.5704 180.153 70.2531 179.835 69.8611 179.63C69.4691 179.415 69.0444 179.308 68.5871 179.308C68.1204 179.308 67.6911 179.415 67.2991 179.63C66.9164 179.835 66.6084 180.153 66.3751 180.582C66.1418 181.011 66.0251 181.534 66.0251 182.15C66.0251 182.775 66.1371 183.303 66.3611 183.732C66.5944 184.161 66.9024 184.483 67.2851 184.698C67.6678 184.903 68.0878 185.006 68.5451 185.006ZM75.4282 175.64V186H74.1542V175.64H75.4282ZM77.1235 182.136C77.1235 181.352 77.2822 180.666 77.5995 180.078C77.9168 179.481 78.3508 179.019 78.9015 178.692C79.4615 178.365 80.0868 178.202 80.7775 178.202C81.3748 178.202 81.9302 178.342 82.4435 178.622C82.9568 178.893 83.3488 179.252 83.6195 179.7V175.64H84.9075V186H83.6195V184.558C83.3675 185.015 82.9942 185.393 82.4995 185.692C82.0048 185.981 81.4262 186.126 80.7635 186.126C80.0822 186.126 79.4615 185.958 78.9015 185.622C78.3508 185.286 77.9168 184.815 77.5995 184.208C77.2822 183.601 77.1235 182.911 77.1235 182.136ZM83.6195 182.15C83.6195 181.571 83.5028 181.067 83.2695 180.638C83.0362 180.209 82.7188 179.882 82.3175 179.658C81.9255 179.425 81.4915 179.308 81.0155 179.308C80.5395 179.308 80.1055 179.42 79.7135 179.644C79.3215 179.868 79.0088 180.195 78.7755 180.624C78.5422 181.053 78.4255 181.557 78.4255 182.136C78.4255 182.724 78.5422 183.237 78.7755 183.676C79.0088 184.105 79.3215 184.437 79.7135 184.67C80.1055 184.894 80.5395 185.006 81.0155 185.006C81.4915 185.006 81.9255 184.894 82.3175 184.67C82.7188 184.437 83.0362 184.105 83.2695 183.676C83.5028 183.237 83.6195 182.729 83.6195 182.15ZM88.3764 184.236L86.8084 188.002H85.9544L86.9764 184.236H88.3764ZM96.6062 176.242C97.6702 176.242 98.5896 176.443 99.3642 176.844C100.148 177.236 100.746 177.801 101.156 178.538C101.576 179.275 101.786 180.143 101.786 181.142C101.786 182.141 101.576 183.009 101.156 183.746C100.746 184.474 100.148 185.034 99.3642 185.426C98.5896 185.809 97.6702 186 96.6062 186H93.5682V176.242H96.6062ZM96.6062 184.95C97.8662 184.95 98.8276 184.619 99.4902 183.956C100.153 183.284 100.484 182.346 100.484 181.142C100.484 179.929 100.148 178.981 99.4762 178.3C98.8136 177.619 97.8569 177.278 96.6062 177.278H94.8422V184.95H96.6062ZM104.125 177.082C103.882 177.082 103.677 176.998 103.509 176.83C103.341 176.662 103.257 176.457 103.257 176.214C103.257 175.971 103.341 175.766 103.509 175.598C103.677 175.43 103.882 175.346 104.125 175.346C104.358 175.346 104.554 175.43 104.713 175.598C104.881 175.766 104.965 175.971 104.965 176.214C104.965 176.457 104.881 176.662 104.713 176.83C104.554 176.998 104.358 177.082 104.125 177.082ZM104.741 178.328V186H103.467V178.328H104.741ZM106.436 182.136C106.436 181.352 106.595 180.666 106.912 180.078C107.229 179.481 107.663 179.019 108.214 178.692C108.774 178.365 109.395 178.202 110.076 178.202C110.748 178.202 111.331 178.347 111.826 178.636C112.321 178.925 112.689 179.289 112.932 179.728V178.328H114.22V186H112.932V184.572C112.68 185.02 112.302 185.393 111.798 185.692C111.303 185.981 110.725 186.126 110.062 186.126C109.381 186.126 108.765 185.958 108.214 185.622C107.663 185.286 107.229 184.815 106.912 184.208C106.595 183.601 106.436 182.911 106.436 182.136ZM112.932 182.15C112.932 181.571 112.815 181.067 112.582 180.638C112.349 180.209 112.031 179.882 111.63 179.658C111.238 179.425 110.804 179.308 110.328 179.308C109.852 179.308 109.418 179.42 109.026 179.644C108.634 179.868 108.321 180.195 108.088 180.624C107.855 181.053 107.738 181.557 107.738 182.136C107.738 182.724 107.855 183.237 108.088 183.676C108.321 184.105 108.634 184.437 109.026 184.67C109.418 184.894 109.852 185.006 110.328 185.006C110.804 185.006 111.238 184.894 111.63 184.67C112.031 184.437 112.349 184.105 112.582 183.676C112.815 183.237 112.932 182.729 112.932 182.15ZM125.599 178.188C126.196 178.188 126.728 178.314 127.195 178.566C127.662 178.809 128.03 179.177 128.301 179.672C128.572 180.167 128.707 180.769 128.707 181.478V186H127.447V181.66C127.447 180.895 127.256 180.311 126.873 179.91C126.5 179.499 125.991 179.294 125.347 179.294C124.684 179.294 124.157 179.509 123.765 179.938C123.373 180.358 123.177 180.969 123.177 181.772V186H121.917V181.66C121.917 180.895 121.726 180.311 121.343 179.91C120.97 179.499 120.461 179.294 119.817 179.294C119.154 179.294 118.627 179.509 118.235 179.938C117.843 180.358 117.647 180.969 117.647 181.772V186H116.373V178.328H117.647V179.434C117.899 179.033 118.235 178.725 118.655 178.51C119.084 178.295 119.556 178.188 120.069 178.188C120.713 178.188 121.282 178.333 121.777 178.622C122.272 178.911 122.64 179.336 122.883 179.896C123.098 179.355 123.452 178.935 123.947 178.636C124.442 178.337 124.992 178.188 125.599 178.188ZM134.143 186.126C133.424 186.126 132.771 185.963 132.183 185.636C131.604 185.309 131.147 184.847 130.811 184.25C130.484 183.643 130.321 182.943 130.321 182.15C130.321 181.366 130.489 180.675 130.825 180.078C131.17 179.471 131.637 179.009 132.225 178.692C132.813 178.365 133.471 178.202 134.199 178.202C134.927 178.202 135.585 178.365 136.173 178.692C136.761 179.009 137.223 179.467 137.559 180.064C137.904 180.661 138.077 181.357 138.077 182.15C138.077 182.943 137.899 183.643 137.545 184.25C137.199 184.847 136.728 185.309 136.131 185.636C135.533 185.963 134.871 186.126 134.143 186.126ZM134.143 185.006C134.6 185.006 135.029 184.899 135.431 184.684C135.832 184.469 136.154 184.147 136.397 183.718C136.649 183.289 136.775 182.766 136.775 182.15C136.775 181.534 136.653 181.011 136.411 180.582C136.168 180.153 135.851 179.835 135.459 179.63C135.067 179.415 134.642 179.308 134.185 179.308C133.718 179.308 133.289 179.415 132.897 179.63C132.514 179.835 132.206 180.153 131.973 180.582C131.739 181.011 131.623 181.534 131.623 182.15C131.623 182.775 131.735 183.303 131.959 183.732C132.192 184.161 132.5 184.483 132.883 184.698C133.265 184.903 133.685 185.006 134.143 185.006ZM143.49 178.188C144.423 178.188 145.179 178.473 145.758 179.042C146.336 179.602 146.626 180.414 146.626 181.478V186H145.366V181.66C145.366 180.895 145.174 180.311 144.792 179.91C144.409 179.499 143.886 179.294 143.224 179.294C142.552 179.294 142.015 179.504 141.614 179.924C141.222 180.344 141.026 180.955 141.026 181.758V186H139.752V178.328H141.026V179.42C141.278 179.028 141.618 178.725 142.048 178.51C142.486 178.295 142.967 178.188 143.49 178.188ZM148.231 182.136C148.231 181.352 148.39 180.666 148.707 180.078C149.024 179.481 149.458 179.019 150.009 178.692C150.569 178.365 151.194 178.202 151.885 178.202C152.482 178.202 153.038 178.342 153.551 178.622C154.064 178.893 154.456 179.252 154.727 179.7V175.64H156.015V186H154.727V184.558C154.475 185.015 154.102 185.393 153.607 185.692C153.112 185.981 152.534 186.126 151.871 186.126C151.19 186.126 150.569 185.958 150.009 185.622C149.458 185.286 149.024 184.815 148.707 184.208C148.39 183.601 148.231 182.911 148.231 182.136ZM154.727 182.15C154.727 181.571 154.61 181.067 154.377 180.638C154.144 180.209 153.826 179.882 153.425 179.658C153.033 179.425 152.599 179.308 152.123 179.308C151.647 179.308 151.213 179.42 150.821 179.644C150.429 179.868 150.116 180.195 149.883 180.624C149.65 181.053 149.533 181.557 149.533 182.136C149.533 182.724 149.65 183.237 149.883 183.676C150.116 184.105 150.429 184.437 150.821 184.67C151.213 184.894 151.647 185.006 152.123 185.006C152.599 185.006 153.033 184.894 153.425 184.67C153.826 184.437 154.144 184.105 154.377 183.676C154.61 183.237 154.727 182.729 154.727 182.15Z" fill="white"/>
<defs>
<linearGradient id="paint0_linear_3260_337" x1="36.3897" y1="77.5729" x2="89.1477" y2="144.608" gradientUnits="userSpaceOnUse">
<stop stop-color="#DCFA9C"/>
<stop offset="0.45" stop-color="#81F045"/>
<stop offset="0.95" stop-color="#3FB66B"/>
</linearGradient>
<linearGradient id="paint1_linear_3260_337" x1="26.6164" y1="79.5587" x2="86.4816" y2="141.866" gradientUnits="userSpaceOnUse">
<stop stop-color="#F3DF6D"/>
<stop offset="1" stop-color="#C4732D"/>
</linearGradient>
<linearGradient id="paint2_linear_3260_337" x1="24.7835" y1="82.7658" x2="84.495" y2="142.477" gradientUnits="userSpaceOnUse">
<stop stop-color="#FCFA95"/>
<stop offset="1" stop-color="#F09A4F"/>
</linearGradient>
</defs>
</svg>
