<svg width="167" height="199" viewBox="0 0 167 199" fill="none" xmlns="http://www.w3.org/2000/svg">
<g clip-path="url(#clip0_3260_767)">
<rect width="167" height="199" rx="17.72" fill="white"/>
<rect x="0.444471" y="0.553846" width="165.046" height="201.6" rx="17.1692" fill="#FFF4EC" stroke="#A06841" stroke-width="1.10769"/>
<path d="M64.1855 118.859L127.388 134.038L118.048 172.932L54.8447 157.753L64.1855 118.859Z" fill="#FFFF00"/>
<path d="M76.4355 132.086L110.468 140.259L108.716 147.552L74.6841 139.378L76.4355 132.086ZM71.7651 151.533L105.797 159.706L104.046 166.999L70.0137 158.825L71.7651 151.533Z" fill="#FCEA2B"/>
<path d="M73.5166 144.24L107.549 152.413L105.798 159.706L71.7652 151.533L73.5166 144.24Z" fill="#FFF591"/>
<path d="M110.563 150.566L120.287 152.902L119.119 157.763L109.396 155.428L110.563 150.566Z" fill="#FCEA2B"/>
<path d="M111.731 145.704L121.454 148.04L120.287 152.901L110.563 150.566L111.731 145.704Z" fill="#FFF591"/>
<path d="M113.482 138.412L123.206 140.747L122.038 145.609L112.315 143.274L113.482 138.412Z" fill="#FCEA2B"/>
<path d="M114.65 133.55L124.374 135.885L123.206 140.747L113.483 138.412L114.65 133.55Z" fill="#FFF591"/>
<path d="M107.645 162.72L117.368 165.056L116.2 169.917L106.477 167.582L107.645 162.72Z" fill="#FCEA2B"/>
<path d="M108.812 157.859L118.536 160.194L117.368 165.056L107.644 162.721L108.812 157.859Z" fill="#FFF591"/>
<path d="M61.9458 138.89L71.6693 141.225L70.5017 146.087L60.7782 143.752L61.9458 138.89Z" fill="#FCEA2B"/>
<path d="M63.1133 134.028L72.8368 136.364L71.6692 141.225L61.9457 138.89L63.1133 134.028Z" fill="#FFF591"/>
<path d="M64.8647 126.736L74.5883 129.071L73.4207 133.933L63.6971 131.598L64.8647 126.736Z" fill="#FCEA2B"/>
<path d="M66.0322 121.874L75.7557 124.209L74.5881 129.071L64.8646 126.736L66.0322 121.874Z" fill="#FFF591"/>
<path d="M59.0269 151.044L68.7504 153.38L67.5828 158.241L57.8593 155.906L59.0269 151.044Z" fill="#FCEA2B"/>
<path d="M60.1943 146.183L69.9179 148.518L68.7502 153.38L59.0267 151.045L60.1943 146.183Z" fill="#FFF591"/>
<path d="M89.873 11.9006L153.076 27.0795L143.735 65.9736L80.5322 50.7947L89.873 11.9006Z" fill="#FFFF00"/>
<path d="M102.123 25.127L136.155 33.3002L134.403 40.5928L100.371 32.4196L102.123 25.127Z" fill="#FCEA2B"/>
<path d="M103.874 17.8345L137.906 26.0077L136.155 33.3003L102.123 25.1271L103.874 17.8345ZM99.2036 37.2815L133.236 45.4547L131.485 52.7474L97.4522 44.5741L99.2036 37.2815Z" fill="#FFF591"/>
<path d="M136.251 43.6074L145.974 45.9426L144.807 50.8044L135.083 48.4692L136.251 43.6074Z" fill="#FCEA2B"/>
<path d="M137.418 38.7458L147.142 41.0811L145.974 45.9428L136.251 43.6076L137.418 38.7458Z" fill="#FFF591"/>
<path d="M139.17 31.4531L148.893 33.7883L147.726 38.6501L138.002 36.3149L139.17 31.4531Z" fill="#FCEA2B"/>
<path d="M140.337 26.5916L150.061 28.9268L148.893 33.7885L139.17 31.4533L140.337 26.5916Z" fill="#FFF591"/>
<path d="M133.332 55.762L143.056 58.0972L141.888 62.9589L132.164 60.6237L133.332 55.762Z" fill="#FCEA2B"/>
<path d="M134.5 50.9001L144.223 53.2354L143.055 58.0971L133.332 55.7619L134.5 50.9001Z" fill="#FFF591"/>
<path d="M87.6328 31.9314L97.3563 34.2666L96.1887 39.1284L86.4652 36.7932L87.6328 31.9314Z" fill="#FCEA2B"/>
<path d="M88.8008 27.0698L98.5243 29.405L97.3567 34.2668L87.6332 31.9316L88.8008 27.0698Z" fill="#FFF591"/>
<path d="M90.5522 19.7769L100.276 22.1121L99.1082 26.9738L89.3846 24.6386L90.5522 19.7769Z" fill="#FCEA2B"/>
<path d="M91.7197 14.9153L101.443 17.2505L100.276 22.1123L90.5521 19.777L91.7197 14.9153Z" fill="#FFF591"/>
<path d="M84.7139 44.0859L94.4374 46.4211L93.2698 51.2829L83.5463 48.9477L84.7139 44.0859Z" fill="#FCEA2B"/>
<path d="M85.8818 39.2239L95.6054 41.5591L94.4377 46.4208L84.7142 44.0856L85.8818 39.2239Z" fill="#FFF591"/>
<path d="M157.343 94.9528L150.051 93.2014L145.38 112.648L152.673 114.4C154.132 114.75 155.337 114.011 155.688 112.553L159.19 97.9675C159.482 96.7521 158.559 95.2447 157.343 94.9528Z" fill="#FFFF00"/>
<path d="M146.423 97.386L155.886 99.6585L155.314 102.039L145.852 99.7665L146.423 97.386ZM145.28 102.147L154.742 104.419L154.171 106.8L144.708 104.527L145.28 102.147ZM144.137 106.908L153.599 109.18L153.027 111.561L143.565 109.288L144.137 106.908Z" fill="#FCEA2B"/>
<path d="M90.9793 140.721C117.109 146.996 143.411 130.768 149.726 104.473C156.041 78.1793 139.977 51.7765 113.847 45.5011C87.7172 39.2257 61.4155 55.454 55.1007 81.7482C48.7858 108.042 64.8492 134.445 90.9793 140.721Z" fill="#FCEA2B"/>
<path d="M93.977 133.984C116.934 139.498 140.015 125.357 145.528 102.399C151.042 79.4419 136.9 56.3617 113.943 50.8483C90.9856 45.3348 67.9054 59.4759 62.392 82.4333C56.8785 105.391 71.0196 128.471 93.977 133.984Z" fill="#FDD835"/>
<path d="M102.851 97.0346C105.402 97.6472 107.966 96.0759 108.579 93.5251C109.191 90.9743 107.62 88.4098 105.069 87.7972C102.519 87.1846 99.9541 88.7558 99.3415 91.3067C98.7289 93.8575 100.3 96.4219 102.851 97.0346Z" fill="#FFFF00"/>
<path d="M110.886 74.2821L110.721 69.6146L112.414 62.5651C114.516 53.8139 112.085 53.2301 109.983 61.9813L108.29 69.0308L106.024 73.1145L102.638 87.2136C101.762 90.8599 106.381 91.9691 107.257 88.3228L110.886 74.2821Z" fill="#FFFF00"/>
<path d="M100.436 92.5134L103.705 89.0693L120.928 105.423L117.658 108.867L100.436 92.5134Z" fill="#FFFF00"/>
<path d="M103.376 94.8472C104.719 95.1696 106.068 94.3426 106.391 93.0001C106.713 91.6576 105.886 90.3078 104.544 89.9854C103.201 89.663 101.851 90.49 101.529 91.8325C101.207 93.175 102.034 94.5247 103.376 94.8472Z" fill="#FCEA2B"/>
<path d="M113.359 53.2791C114.702 53.6015 116.051 52.7745 116.374 51.432C116.696 50.0894 115.869 48.7397 114.527 48.4173C113.184 48.0949 111.834 48.9218 111.512 50.2644C111.189 51.6069 112.016 52.9566 113.359 53.2791Z" fill="#FFF591"/>
<path d="M91.1104 53.8496C92.453 54.172 93.8027 53.3451 94.1251 52.0025C94.4475 50.66 93.6206 49.3103 92.278 48.9879C90.9355 48.6654 89.5858 49.4924 89.2634 50.8349C88.9409 52.1775 89.7679 53.5272 91.1104 53.8496Z" fill="#FFF591"/>
<path d="M72.419 65.3013C73.7616 65.6237 75.1113 64.7967 75.4337 63.4542C75.7561 62.1117 74.9292 60.7619 73.5866 60.4395C72.2441 60.1171 70.8944 60.9441 70.572 62.2866C70.2495 63.6291 71.0765 64.9788 72.419 65.3013Z" fill="#FFF591"/>
<path d="M61.8082 84.8643C63.1507 85.1867 64.5005 84.3597 64.8229 83.0172C65.1453 81.6746 64.3183 80.3249 62.9758 80.0025C61.6333 79.6801 60.2835 80.507 59.9611 81.8496C59.6387 83.1921 60.4657 84.5418 61.8082 84.8643Z" fill="#FFF591"/>
<path d="M62.3775 107.112C63.7201 107.434 65.0698 106.608 65.3922 105.265C65.7146 103.922 64.8877 102.573 63.5451 102.25C62.2026 101.928 60.8529 102.755 60.5305 104.097C60.208 105.44 61.035 106.79 62.3775 107.112Z" fill="#FFF591"/>
<path d="M72.7028 121.933C73.7239 120.893 74.9978 120.942 76.0381 121.963C77.0784 122.984 77.0295 124.258 76.2515 125.357C75.2303 126.397 73.9565 126.348 72.9162 125.327C71.8759 124.306 71.74 122.73 72.7028 121.933ZM91.5459 133.401C91.8378 132.185 93.102 131.203 94.5606 131.553C96.0191 131.904 96.7579 133.11 96.4077 134.568C96.1158 135.784 94.8515 136.765 93.393 136.415C92.1775 136.123 91.1956 134.859 91.5459 133.401Z" fill="#FFF591"/>
<path d="M115.642 135.845C116.984 136.167 118.334 135.34 118.656 133.998C118.979 132.655 118.152 131.305 116.809 130.983C115.467 130.661 114.117 131.488 113.795 132.83C113.472 134.173 114.299 135.522 115.642 135.845Z" fill="#FFF591"/>
<path d="M133.477 123.673C132.437 122.652 132.486 121.378 133.507 120.338C134.528 119.298 135.802 119.347 136.842 120.368C137.882 121.389 137.834 122.663 136.812 123.703C135.85 124.5 134.274 124.636 133.477 123.673ZM144.944 104.83C143.729 104.538 142.747 103.274 143.097 101.816C143.448 100.357 144.653 99.6183 146.112 99.9686C147.327 100.26 148.309 101.525 147.959 102.983C147.667 104.199 146.403 105.181 144.944 104.83Z" fill="#FFF591"/>
<path d="M144.374 82.582C145.716 82.9045 147.066 82.0775 147.388 80.735C147.711 79.3924 146.884 78.0427 145.541 77.7203C144.199 77.3979 142.849 78.2248 142.527 79.5674C142.204 80.9099 143.031 82.2596 144.374 82.582Z" fill="#FFF591"/>
<path d="M132.922 63.8911C134.265 64.2135 135.615 63.3866 135.937 62.044C136.26 60.7015 135.433 59.3518 134.09 59.0294C132.748 58.7069 131.398 59.5339 131.075 60.8764C130.753 62.219 131.58 63.5687 132.922 63.8911Z" fill="#FFF591"/>
<path d="M93.9692 82.2157C93.9692 81.3628 94.308 80.5449 94.9111 79.9418C95.5141 79.3388 96.3321 79 97.1849 79H135.773C136.626 79 137.444 79.3388 138.047 79.9418C138.65 80.5449 138.989 81.3628 138.989 82.2157V95.8887C132.433 91.1689 124.557 88.635 116.479 88.647C108.08 88.647 100.304 91.3321 93.9692 95.8887V82.2157ZM116.479 159.392C124.878 159.392 132.654 156.707 138.989 152.15V165.823C138.989 166.676 138.65 167.494 138.047 168.097C137.444 168.7 136.626 169.039 135.773 169.039H97.1849C96.3321 169.039 95.5141 168.7 94.9111 168.097C94.308 167.494 93.9692 166.676 93.9692 165.823V152.15C100.525 156.87 108.401 159.404 116.479 159.392ZM151.851 117.588C150.999 117.588 150.181 117.927 149.578 118.53C148.975 119.133 148.636 119.951 148.636 120.804V127.235C148.636 128.088 148.975 128.906 149.578 129.509C150.181 130.112 150.999 130.451 151.851 130.451H156.675C157.528 130.451 158.346 130.112 158.949 129.509C159.552 128.906 159.891 128.088 159.891 127.235V120.804C159.891 119.951 159.552 119.133 158.949 118.53C158.346 117.927 157.528 117.588 156.675 117.588H151.851Z" fill="#3F5FFF"/>
<path d="M155.067 124.019C155.067 145.33 137.789 162.608 116.479 162.608C95.1684 162.608 77.8906 145.33 77.8906 124.019C77.8906 102.709 95.1684 85.4314 116.479 85.4314C137.789 85.4314 155.067 102.709 155.067 124.019Z" fill="#A4AEEB"/>
<path d="M145.42 124.019C145.42 131.695 142.371 139.056 136.943 144.484C131.516 149.911 124.154 152.961 116.479 152.961C108.803 152.961 101.442 149.911 96.0142 144.484C90.5867 139.056 87.5376 131.695 87.5376 124.019C87.5376 116.344 90.5867 108.983 96.0142 103.555C101.442 98.1275 108.803 95.0784 116.479 95.0784C124.154 95.0784 131.516 98.1275 136.943 103.555C142.371 108.983 145.42 116.344 145.42 124.019Z" fill="#5235A6"/>
<path d="M116.478 98.2939C115.625 98.2939 114.807 98.6327 114.204 99.2358C113.601 99.8389 113.262 100.657 113.262 101.51V120.804C113.262 121.479 113.471 122.109 113.832 122.63L103.326 134.338C103.044 134.653 102.826 135.02 102.686 135.419C102.546 135.817 102.486 136.24 102.509 136.662C102.532 137.084 102.638 137.497 102.82 137.878C103.003 138.259 103.259 138.6 103.574 138.882C103.888 139.164 104.255 139.382 104.654 139.522C105.052 139.662 105.475 139.722 105.897 139.699C106.319 139.676 106.732 139.571 107.113 139.388C107.494 139.205 107.835 138.949 108.117 138.635L118.851 126.666C119.335 126.126 119.622 125.438 119.666 124.714C119.71 123.99 119.508 123.273 119.092 122.678C119.484 122.132 119.694 121.476 119.694 120.804V101.51C119.694 100.657 119.355 99.8389 118.752 99.2358C118.149 98.6327 117.331 98.2939 116.478 98.2939Z" fill="white"/>
<path d="M122.91 124.019C122.91 125.725 122.232 127.361 121.026 128.567C119.82 129.773 118.184 130.451 116.479 130.451C114.773 130.451 113.137 129.773 111.931 128.567C110.725 127.361 110.047 125.725 110.047 124.019C110.047 122.314 110.725 120.678 111.931 119.472C113.137 118.266 114.773 117.588 116.479 117.588C118.184 117.588 119.82 118.266 121.026 119.472C122.232 120.678 122.91 122.314 122.91 124.019Z" fill="#FCD53F"/>
<path d="M121.907 84.5677L129.1 83.0685C129.873 82.9075 130.508 82.3719 130.755 81.6209C131.166 80.4087 131.515 78.2135 130.783 74.7021C130.018 71.0315 128.704 68.934 127.791 67.8554C127.272 67.2404 126.434 66.9762 125.65 67.1397L118.57 68.6152C117.354 68.8686 116.583 70.0609 116.834 71.2655L119.243 82.8226C119.498 84.0499 120.691 84.8211 121.907 84.5677Z" fill="#B0BEC5"/>
<path d="M121.907 84.5677L129.1 83.0685C129.873 82.9075 130.508 82.3719 130.755 81.6209C131.166 80.4087 131.515 78.2135 130.783 74.7021C130.018 71.0315 128.704 68.934 127.791 67.8554C127.272 67.2404 126.434 66.9762 125.65 67.1397L118.57 68.6152C117.354 68.8686 116.583 70.0609 116.834 71.2655L119.243 82.8226C119.498 84.0499 120.691 84.8211 121.907 84.5677Z" fill="#90A4AE"/>
<path d="M116.816 85.6287L121.35 84.6837C121.839 84.5819 122.201 84.1031 122.312 83.3806C122.484 82.2181 122.549 80.0821 121.817 76.5707C121.052 72.9001 120.044 70.7387 119.382 69.608C118.999 68.9645 118.445 68.6412 117.945 68.7454L113.479 69.6761C112.718 69.8348 112.299 70.9537 112.55 72.1583L114.959 83.7154C115.237 84.938 116.054 85.7874 116.816 85.6287Z" fill="#607D8B"/>
<path d="M95.6987 38.1293C92.6905 31.5469 87.0699 29.8962 83.7743 30.5831L27.7275 42.264C24.432 42.9508 19.9387 46.7094 19.8105 53.9455C19.6959 60.0523 20.2888 66.9365 20.2888 66.9365L60.0827 57.2081L100.461 50.2275C100.45 50.2298 98.2319 43.6843 95.6987 38.1293Z" fill="#78909C"/>
<path d="M81.8426 15.7962L23.3525 27.9863L22.8141 46.1694C22.4868 50.7435 26.6345 54.373 31.1233 53.4375L85.0223 42.2042C89.5451 41.2616 91.8905 36.2432 89.7016 32.1699L81.8426 15.7962Z" fill="#A06841"/>
<path d="M38.1476 141.984C41.1558 148.566 46.7764 150.217 50.072 149.53L106.13 137.847C109.426 137.16 113.919 133.401 114.047 126.165C114.162 120.059 113.569 113.174 113.569 113.174L73.7749 122.903L33.3965 129.883C33.3965 129.883 35.6144 136.429 38.1476 141.984Z" fill="#78909C"/>
<path d="M52.0011 164.306L110.491 152.116L111.03 133.933C111.357 129.359 107.209 125.729 102.72 126.665L48.8214 137.898C44.2986 138.84 41.9532 143.859 44.1421 147.932L52.0011 164.306Z" fill="#A06841"/>
<path d="M102.723 126.676L48.8238 137.909C44.301 138.852 41.9556 143.87 44.1445 147.943L46.8235 153.515C49.4215 145.385 69.6418 149.839 80.3982 146.376C93.7227 142.093 98.9412 136.523 104.76 138.5C106.648 139.138 108.511 140.339 110.48 140C110.616 139.971 110.725 139.925 110.859 139.885L111.032 133.944C111.357 129.358 107.212 125.74 102.723 126.676ZM31.2148 53.4184L85.1138 42.1851C89.6367 41.2425 91.982 36.2241 89.7932 32.1508L87.1141 26.5788C84.5162 34.709 64.2958 30.2554 53.5395 33.7185C40.2149 38.0014 34.9964 43.5711 29.1774 41.5942C27.2895 40.9561 25.4266 39.7554 23.4578 40.0946C23.3214 40.123 23.2125 40.1694 23.0785 40.2092L22.9057 46.1503C22.5694 50.7381 26.7147 54.3563 31.2148 53.4184Z" fill="#784D30"/>
<path d="M78.1182 143.744C107.785 137.561 126.823 108.499 120.64 78.8318C114.457 49.1646 85.3947 30.1269 55.7275 36.31C26.0603 42.493 7.0226 71.5554 13.2056 101.223C19.3887 130.89 48.451 149.927 78.1182 143.744Z" fill="#B0BEC5"/>
<path d="M76.1657 133.065C99.9647 128.105 115.237 104.791 110.277 80.9919C105.317 57.1929 82.0028 41.9208 58.2038 46.8809C34.4047 51.8409 19.1327 75.1547 24.0928 98.9538C29.0528 122.753 52.3666 138.025 76.1657 133.065Z" fill="#FFF3E0"/>
<path opacity="0.64" d="M45.5195 48.7768C40.1151 51.6344 32.6024 55.8681 26.1343 67.959C19.7424 79.9036 20.4579 92.0982 21.6129 100.371C21.6129 100.371 17.985 107.542 17.5072 106.444C13.798 97.9209 13.3873 77.2321 20.9785 64.67C29.812 50.0465 43.7259 42.6171 48.8964 40.6858C49.7974 40.3439 47.163 47.9007 45.5195 48.7768Z" fill="#ECEFF1"/>
<path d="M75.4299 130.846C97.9737 126.148 112.44 104.064 107.742 81.52C103.043 58.9762 80.9592 44.5096 58.4154 49.2081C35.8716 53.9065 21.405 75.9907 26.1035 98.5345C30.8019 121.078 52.8861 135.545 75.4299 130.846Z" fill="white"/>
<path d="M68.1629 94.4999C70.6671 93.978 72.2741 91.5249 71.7522 89.0207C71.2303 86.5165 68.7771 84.9096 66.273 85.4315C63.7688 85.9534 62.1619 88.4065 62.6838 90.9107C63.2057 93.4148 65.6588 95.0218 68.1629 94.4999Z" fill="#563428"/>
<path d="M60.5206 59.3105C59.6911 59.4834 58.8809 58.9526 58.708 58.1231L57.7725 53.6343C57.5996 52.8047 58.1303 51.9945 58.9599 51.8216C59.7894 51.6488 60.5996 52.1795 60.7725 53.0091L61.708 57.4978C61.8696 58.3297 61.3388 59.1399 60.5206 59.3105ZM74.8826 128.221C74.053 128.394 73.2428 127.863 73.0699 127.034L72.1344 122.545C71.9615 121.715 72.4922 120.905 73.3218 120.732C74.1514 120.56 74.9616 121.09 75.1345 121.92L76.07 126.409C76.2315 127.24 75.7008 128.051 74.8826 128.221ZM103.929 83.8796L99.4403 84.8151C98.6108 84.988 97.8006 84.4573 97.6277 83.6277C97.4548 82.7982 97.9855 81.988 98.8151 81.8151L103.304 80.8795C104.133 80.7067 104.944 81.2374 105.117 82.0669C105.289 82.8965 104.759 83.7067 103.929 83.8796ZM35.0183 98.2415L30.5296 99.1771C29.7 99.3499 28.8898 98.8192 28.7169 97.9896C28.544 97.1601 29.0748 96.3499 29.9043 96.177L34.3931 95.2415C35.2226 95.0686 36.0329 95.5993 36.2057 96.4289C36.3786 97.2584 35.8479 98.0686 35.0183 98.2415Z" fill="#B2947C"/>
<path d="M60.5211 59.3101C59.6915 59.483 58.8813 58.9523 58.7084 58.1227L57.7729 53.634C57.6 52.8044 58.1308 51.9942 58.9603 51.8213C59.7899 51.6484 60.6001 52.1792 60.773 53.0087L61.7085 57.4975C61.87 58.3294 61.3393 59.1396 60.5211 59.3101ZM74.883 128.221C74.0535 128.394 73.2433 127.863 73.0704 127.033L72.1349 122.545C71.962 121.715 72.4927 120.905 73.3223 120.732C74.1518 120.559 74.962 121.09 75.1349 121.919L76.0704 126.408C76.232 127.24 75.7012 128.05 74.883 128.221ZM43.8553 66.5068L40.8066 63.0869C40.5369 62.7844 40.398 62.3874 40.4203 61.9827C40.4426 61.578 40.6244 61.1987 40.9257 60.9277C41.2282 60.658 41.6253 60.5191 42.0299 60.5414C42.4346 60.5637 42.814 60.7455 43.0849 61.0469L46.1336 64.4667C46.6919 65.0974 46.6451 66.0676 46.0145 66.6259C45.3862 67.1956 44.4249 67.1351 43.8553 66.5068ZM90.7494 119.009L87.7008 115.589C87.431 115.287 87.2921 114.89 87.3145 114.485C87.3368 114.08 87.5185 113.701 87.8199 113.43C88.1224 113.16 88.5194 113.021 88.9241 113.044C89.3288 113.066 89.7081 113.248 89.9791 113.549L93.0278 116.969C93.5861 117.6 93.5393 118.57 92.9086 119.128C92.278 119.687 91.3191 119.637 90.7494 119.009Z" fill="#B2947C"/>
<path d="M43.8555 66.5071L40.8068 63.0872C40.5371 62.7847 40.3982 62.3877 40.4205 61.983C40.4429 61.5783 40.6246 61.199 40.926 60.928C41.2285 60.6583 41.6255 60.5194 42.0302 60.5417C42.4349 60.564 42.8142 60.7458 43.0852 61.0472L46.1339 64.4671C46.6922 65.0977 46.6454 66.0679 46.0147 66.6262C45.3864 67.1959 44.4252 67.1354 43.8555 66.5071ZM90.7497 119.009L87.701 115.589C87.4313 115.287 87.2924 114.89 87.3147 114.485C87.337 114.081 87.5188 113.701 87.8202 113.43C88.1227 113.161 88.5197 113.022 88.9244 113.044C89.329 113.066 89.7084 113.248 89.9793 113.549L93.028 116.969C93.5863 117.6 93.5395 118.57 92.9089 119.129C92.2782 119.687 91.3194 119.638 90.7497 119.009ZM35.1887 81.1906L30.8356 79.7619C30.0345 79.502 29.5926 78.6337 29.8639 77.8301C30.1238 77.0289 30.9921 76.5871 31.7957 76.8583L36.1487 78.287C36.9499 78.5469 37.3918 79.4153 37.1205 80.2189C36.8469 81.011 35.9899 81.4505 35.1887 81.1906ZM102.053 103.207L97.6999 101.779C96.8987 101.519 96.4568 100.65 96.7281 99.8467C96.988 99.0455 97.8564 98.6037 98.6599 98.8749L103.013 100.304C103.814 100.564 104.256 101.432 103.985 102.235C103.713 103.039 102.854 103.467 102.053 103.207ZM76.7314 60.2245C75.9302 59.9646 75.4883 59.0962 75.7596 58.2927L77.1883 53.9396C77.4482 53.1384 78.3165 52.6966 79.1201 52.9678C79.9213 53.2277 80.3631 54.0961 80.0919 54.8997L78.6632 59.2527C78.4033 60.0539 77.5325 60.4844 76.7314 60.2245ZM54.7148 127.089C53.9136 126.829 53.4717 125.96 53.743 125.157L55.1717 120.804C55.4316 120.003 56.3 119.561 57.1035 119.832C57.9047 120.092 58.3465 120.96 58.0753 121.764L56.6466 126.117C56.3753 126.92 55.516 127.349 54.7148 127.089ZM90.3126 69.121C90.0429 68.8185 89.904 68.4215 89.9263 68.0168C89.9486 67.6122 90.1304 67.2328 90.4318 66.9619L93.8516 63.9132C94.1541 63.6434 94.5512 63.5045 94.9558 63.5269C95.3605 63.5492 95.7398 63.731 96.0108 64.0323C96.5691 64.663 96.5223 65.6332 95.8917 66.1915L92.4718 69.2402C91.8435 69.8099 90.8846 69.7607 90.3126 69.121ZM37.824 116.024C37.5543 115.722 37.4154 115.325 37.4377 114.92C37.4601 114.515 37.6418 114.136 37.9432 113.865L41.3631 110.816C41.6656 110.547 42.0626 110.408 42.4673 110.43C42.8719 110.452 43.2513 110.634 43.5223 110.935C44.0806 111.566 44.0338 112.536 43.4031 113.095L39.9832 116.143C39.3526 116.702 38.3823 116.655 37.824 116.024Z" fill="#B2947C"/>
<path d="M48.4321 84.0867L66.9229 90.0272" stroke="#563428" stroke-width="4.486" stroke-miterlimit="10" stroke-linecap="round"/>
<path d="M87.7143 71.5597L67.6732 89.8707" stroke="#563428" stroke-width="3.14" stroke-miterlimit="10" stroke-linecap="round"/>
<path d="M35.3663 34.933C43.0725 33.5048 50.5015 30.7471 58.2503 29.5234C59.3531 29.3529 60.472 29.2027 61.5113 28.7845C62.5506 28.3663 63.5146 27.6437 63.9525 26.6157C64.3904 25.5876 64.1701 24.2462 63.2633 23.5933C62.7457 23.215 62.0847 23.1157 61.4446 23.0594C58.032 22.7864 54.664 23.8085 51.3657 24.7093C45.8457 26.2155 40.2527 27.4286 34.6096 28.3438C32.5224 28.684 29.3925 28.4588 27.805 30.0584C26.7075 31.1646 26.3109 33.0733 27.5155 34.2452C29.3855 36.0491 33.1271 35.3404 35.3663 34.933Z" fill="#B7855F"/>
<path opacity="0.75" d="M122.752 74.1703C122.287 74.1604 121.784 73.0557 122.718 72.5883C123.891 72.012 126.783 71.5515 128.214 71.4785C128.965 71.4405 129.511 72.8089 128.18 73.193C127.083 73.5047 123.205 74.1825 122.752 74.1703ZM122.021 71.0618C121.072 71.1764 119.532 69.5884 121.115 69.1636C123.226 68.5933 125.222 68.2721 126.339 68.1106C127.687 67.9244 128.309 69.7156 126.905 70.032C125.601 70.3157 123.133 70.9367 122.021 71.0618Z" fill="#FFF3E0"/>
<rect x="0.890625" y="146" width="166.154" height="59.8154" rx="17.7231" fill="#A06841"/>
<rect x="0.890625" y="147.108" width="166.154" height="25.4769" fill="#A06841"/>
<path d="M10.2426 167.964H13.6586V169H8.96863V159.242H10.2426V167.964ZM21.8156 161.328V169H20.5416V167.866C20.2989 168.258 19.9583 168.566 19.5196 168.79C19.0903 169.005 18.6143 169.112 18.0916 169.112C17.4943 169.112 16.9576 168.991 16.4816 168.748C16.0056 168.496 15.6276 168.123 15.3476 167.628C15.0769 167.133 14.9416 166.531 14.9416 165.822V161.328H16.2016V165.654C16.2016 166.41 16.3929 166.993 16.7756 167.404C17.1583 167.805 17.6809 168.006 18.3436 168.006C19.0249 168.006 19.5616 167.796 19.9536 167.376C20.3456 166.956 20.5416 166.345 20.5416 165.542V161.328H21.8156ZM27.9707 169L26.1507 166.144L24.4007 169H23.0707L25.5487 165.192L23.0707 161.328H24.5127L26.3327 164.17L28.0687 161.328H29.3987L26.9347 165.122L29.4127 169H27.9707ZM37.4699 161.328V169H36.1959V167.866C35.9532 168.258 35.6126 168.566 35.1739 168.79C34.7446 169.005 34.2686 169.112 33.7459 169.112C33.1486 169.112 32.6119 168.991 32.1359 168.748C31.6599 168.496 31.2819 168.123 31.0019 167.628C30.7312 167.133 30.5959 166.531 30.5959 165.822V161.328H31.8559V165.654C31.8559 166.41 32.0472 166.993 32.4299 167.404C32.8126 167.805 33.3352 168.006 33.9979 168.006C34.6792 168.006 35.2159 167.796 35.6079 167.376C35.9999 166.956 36.1959 166.345 36.1959 165.542V161.328H37.4699ZM40.895 162.574C41.119 162.135 41.4363 161.795 41.847 161.552C42.267 161.309 42.7756 161.188 43.373 161.188V162.504H43.037C41.609 162.504 40.895 163.279 40.895 164.828V169H39.621V161.328H40.895V162.574ZM51.4516 161.328L46.8316 172.612H45.5156L47.0276 168.916L43.9336 161.328H45.3476L47.7556 167.544L50.1356 161.328H51.4516ZM54.0483 167.236L52.4803 171.002H51.6263L52.6483 167.236H54.0483ZM62.2781 159.242C63.3421 159.242 64.2614 159.443 65.0361 159.844C65.8201 160.236 66.4174 160.801 66.8281 161.538C67.2481 162.275 67.4581 163.143 67.4581 164.142C67.4581 165.141 67.2481 166.009 66.8281 166.746C66.4174 167.474 65.8201 168.034 65.0361 168.426C64.2614 168.809 63.3421 169 62.2781 169H59.2401V159.242H62.2781ZM62.2781 167.95C63.5381 167.95 64.4994 167.619 65.1621 166.956C65.8248 166.284 66.1561 165.346 66.1561 164.142C66.1561 162.929 65.8201 161.981 65.1481 161.3C64.4854 160.619 63.5288 160.278 62.2781 160.278H60.5141V167.95H62.2781ZM69.7965 160.082C69.5539 160.082 69.3485 159.998 69.1805 159.83C69.0125 159.662 68.9285 159.457 68.9285 159.214C68.9285 158.971 69.0125 158.766 69.1805 158.598C69.3485 158.43 69.5539 158.346 69.7965 158.346C70.0299 158.346 70.2259 158.43 70.3845 158.598C70.5525 158.766 70.6365 158.971 70.6365 159.214C70.6365 159.457 70.5525 159.662 70.3845 159.83C70.2259 159.998 70.0299 160.082 69.7965 160.082ZM70.4125 161.328V169H69.1385V161.328H70.4125ZM75.7479 161.202C76.4105 161.202 76.9892 161.347 77.4839 161.636C77.9879 161.925 78.3612 162.289 78.6039 162.728V161.328H79.8919V169.168C79.8919 169.868 79.7425 170.489 79.4439 171.03C79.1452 171.581 78.7159 172.01 78.1559 172.318C77.6052 172.626 76.9612 172.78 76.2239 172.78C75.2159 172.78 74.3759 172.542 73.7039 172.066C73.0319 171.59 72.6352 170.941 72.5139 170.12H73.7739C73.9139 170.587 74.2032 170.96 74.6419 171.24C75.0805 171.529 75.6079 171.674 76.2239 171.674C76.9239 171.674 77.4932 171.455 77.9319 171.016C78.3799 170.577 78.6039 169.961 78.6039 169.168V167.558C78.3519 168.006 77.9785 168.379 77.4839 168.678C76.9892 168.977 76.4105 169.126 75.7479 169.126C75.0665 169.126 74.4459 168.958 73.8859 168.622C73.3352 168.286 72.9012 167.815 72.5839 167.208C72.2665 166.601 72.1079 165.911 72.1079 165.136C72.1079 164.352 72.2665 163.666 72.5839 163.078C72.9012 162.481 73.3352 162.019 73.8859 161.692C74.4459 161.365 75.0665 161.202 75.7479 161.202ZM78.6039 165.15C78.6039 164.571 78.4872 164.067 78.2539 163.638C78.0205 163.209 77.7032 162.882 77.3019 162.658C76.9099 162.425 76.4759 162.308 75.9999 162.308C75.5239 162.308 75.0899 162.42 74.6979 162.644C74.3059 162.868 73.9932 163.195 73.7599 163.624C73.5265 164.053 73.4099 164.557 73.4099 165.136C73.4099 165.724 73.5265 166.237 73.7599 166.676C73.9932 167.105 74.3059 167.437 74.6979 167.67C75.0899 167.894 75.5239 168.006 75.9999 168.006C76.4759 168.006 76.9099 167.894 77.3019 167.67C77.7032 167.437 78.0205 167.105 78.2539 166.676C78.4872 166.237 78.6039 165.729 78.6039 165.15ZM82.7028 160.082C82.4601 160.082 82.2548 159.998 82.0868 159.83C81.9188 159.662 81.8348 159.457 81.8348 159.214C81.8348 158.971 81.9188 158.766 82.0868 158.598C82.2548 158.43 82.4601 158.346 82.7028 158.346C82.9361 158.346 83.1321 158.43 83.2908 158.598C83.4588 158.766 83.5428 158.971 83.5428 159.214C83.5428 159.457 83.4588 159.662 83.2908 159.83C83.1321 159.998 82.9361 160.082 82.7028 160.082ZM83.3188 161.328V169H82.0448V161.328H83.3188ZM87.0441 162.378V166.9C87.0441 167.273 87.1234 167.539 87.2821 167.698C87.4408 167.847 87.7161 167.922 88.1081 167.922H89.0461V169H87.8981C87.1888 169 86.6568 168.837 86.3021 168.51C85.9474 168.183 85.7701 167.647 85.7701 166.9V162.378H84.7761V161.328H85.7701V159.396H87.0441V161.328H89.0461V162.378H87.0441ZM90.1137 165.136C90.1137 164.352 90.2724 163.666 90.5897 163.078C90.9071 162.481 91.3411 162.019 91.8917 161.692C92.4517 161.365 93.0724 161.202 93.7537 161.202C94.4257 161.202 95.0091 161.347 95.5037 161.636C95.9984 161.925 96.3671 162.289 96.6097 162.728V161.328H97.8977V169H96.6097V167.572C96.3577 168.02 95.9797 168.393 95.4757 168.692C94.9811 168.981 94.4024 169.126 93.7397 169.126C93.0584 169.126 92.4424 168.958 91.8917 168.622C91.3411 168.286 90.9071 167.815 90.5897 167.208C90.2724 166.601 90.1137 165.911 90.1137 165.136ZM96.6097 165.15C96.6097 164.571 96.4931 164.067 96.2597 163.638C96.0264 163.209 95.7091 162.882 95.3077 162.658C94.9157 162.425 94.4817 162.308 94.0057 162.308C93.5297 162.308 93.0957 162.42 92.7037 162.644C92.3117 162.868 91.9991 163.195 91.7657 163.624C91.5324 164.053 91.4157 164.557 91.4157 165.136C91.4157 165.724 91.5324 166.237 91.7657 166.676C91.9991 167.105 92.3117 167.437 92.7037 167.67C93.0957 167.894 93.5297 168.006 94.0057 168.006C94.4817 168.006 94.9157 167.894 95.3077 167.67C95.7091 167.437 96.0264 167.105 96.2597 166.676C96.4931 166.237 96.6097 165.729 96.6097 165.15ZM101.325 158.64V169H100.051V158.64H101.325ZM104.812 167.236L103.244 171.002H102.39L103.412 167.236H104.812ZM114.428 169.098C113.522 169.098 112.696 168.888 111.95 168.468C111.203 168.039 110.61 167.446 110.172 166.69C109.742 165.925 109.528 165.066 109.528 164.114C109.528 163.162 109.742 162.308 110.172 161.552C110.61 160.787 111.203 160.194 111.95 159.774C112.696 159.345 113.522 159.13 114.428 159.13C115.342 159.13 116.173 159.345 116.92 159.774C117.666 160.194 118.254 160.782 118.684 161.538C119.113 162.294 119.328 163.153 119.328 164.114C119.328 165.075 119.113 165.934 118.684 166.69C118.254 167.446 117.666 168.039 116.92 168.468C116.173 168.888 115.342 169.098 114.428 169.098ZM114.428 167.992C115.109 167.992 115.72 167.833 116.262 167.516C116.812 167.199 117.242 166.746 117.55 166.158C117.867 165.57 118.026 164.889 118.026 164.114C118.026 163.33 117.867 162.649 117.55 162.07C117.242 161.482 116.817 161.029 116.276 160.712C115.734 160.395 115.118 160.236 114.428 160.236C113.737 160.236 113.121 160.395 112.58 160.712C112.038 161.029 111.609 161.482 111.292 162.07C110.984 162.649 110.83 163.33 110.83 164.114C110.83 164.889 110.984 165.57 111.292 166.158C111.609 166.746 112.038 167.199 112.58 167.516C113.13 167.833 113.746 167.992 114.428 167.992ZM124.104 169.098C123.46 169.098 122.881 168.986 122.368 168.762C121.864 168.529 121.467 168.211 121.178 167.81C120.888 167.399 120.739 166.928 120.73 166.396H122.088C122.134 166.853 122.321 167.241 122.648 167.558C122.984 167.866 123.469 168.02 124.104 168.02C124.71 168.02 125.186 167.871 125.532 167.572C125.886 167.264 126.064 166.872 126.064 166.396C126.064 166.023 125.961 165.719 125.756 165.486C125.55 165.253 125.294 165.075 124.986 164.954C124.678 164.833 124.262 164.702 123.74 164.562C123.096 164.394 122.578 164.226 122.186 164.058C121.803 163.89 121.472 163.629 121.192 163.274C120.921 162.91 120.786 162.425 120.786 161.818C120.786 161.286 120.921 160.815 121.192 160.404C121.462 159.993 121.84 159.676 122.326 159.452C122.82 159.228 123.385 159.116 124.02 159.116C124.934 159.116 125.681 159.345 126.26 159.802C126.848 160.259 127.179 160.866 127.254 161.622H125.854C125.807 161.249 125.611 160.922 125.266 160.642C124.92 160.353 124.463 160.208 123.894 160.208C123.362 160.208 122.928 160.348 122.592 160.628C122.256 160.899 122.088 161.281 122.088 161.776C122.088 162.131 122.186 162.42 122.382 162.644C122.587 162.868 122.834 163.041 123.124 163.162C123.422 163.274 123.838 163.405 124.37 163.554C125.014 163.731 125.532 163.909 125.924 164.086C126.316 164.254 126.652 164.52 126.932 164.884C127.212 165.239 127.352 165.724 127.352 166.34C127.352 166.816 127.226 167.264 126.974 167.684C126.722 168.104 126.348 168.445 125.854 168.706C125.359 168.967 124.776 169.098 124.104 169.098ZM21.2326 180.242L18.4046 190H16.9766L14.7086 182.146L12.3566 190L10.9426 190.014L8.21263 180.242H9.57063L11.6986 188.516L14.0506 180.242H15.4786L17.7186 188.488L19.8606 180.242H21.2326ZM22.1508 186.136C22.1508 185.352 22.3095 184.666 22.6268 184.078C22.9442 183.481 23.3782 183.019 23.9288 182.692C24.4888 182.365 25.1095 182.202 25.7908 182.202C26.4628 182.202 27.0462 182.347 27.5408 182.636C28.0355 182.925 28.4042 183.289 28.6468 183.728V182.328H29.9348V190H28.6468V188.572C28.3948 189.02 28.0168 189.393 27.5128 189.692C27.0182 189.981 26.4395 190.126 25.7768 190.126C25.0955 190.126 24.4795 189.958 23.9288 189.622C23.3782 189.286 22.9442 188.815 22.6268 188.208C22.3095 187.601 22.1508 186.911 22.1508 186.136ZM28.6468 186.15C28.6468 185.571 28.5302 185.067 28.2968 184.638C28.0635 184.209 27.7462 183.882 27.3448 183.658C26.9528 183.425 26.5188 183.308 26.0428 183.308C25.5668 183.308 25.1328 183.42 24.7408 183.644C24.3488 183.868 24.0362 184.195 23.8028 184.624C23.5695 185.053 23.4528 185.557 23.4528 186.136C23.4528 186.724 23.5695 187.237 23.8028 187.676C24.0362 188.105 24.3488 188.437 24.7408 188.67C25.1328 188.894 25.5668 189.006 26.0428 189.006C26.5188 189.006 26.9528 188.894 27.3448 188.67C27.7462 188.437 28.0635 188.105 28.2968 187.676C28.5302 187.237 28.6468 186.729 28.6468 186.15ZM33.6418 183.378V187.9C33.6418 188.273 33.7211 188.539 33.8798 188.698C34.0384 188.847 34.3138 188.922 34.7058 188.922H35.6438V190H34.4958C33.7864 190 33.2544 189.837 32.8998 189.51C32.5451 189.183 32.3678 188.647 32.3678 187.9V183.378H31.3738V182.328H32.3678V180.396H33.6418V182.328H35.6438V183.378H33.6418ZM36.7114 186.15C36.7114 185.357 36.87 184.666 37.1874 184.078C37.5047 183.481 37.9434 183.019 38.5034 182.692C39.0727 182.365 39.7214 182.202 40.4494 182.202C41.392 182.202 42.1667 182.431 42.7734 182.888C43.3894 183.345 43.7954 183.98 43.9914 184.792H42.6194C42.4887 184.325 42.232 183.957 41.8494 183.686C41.476 183.415 41.0094 183.28 40.4494 183.28C39.7214 183.28 39.1334 183.532 38.6854 184.036C38.2374 184.531 38.0134 185.235 38.0134 186.15C38.0134 187.074 38.2374 187.788 38.6854 188.292C39.1334 188.796 39.7214 189.048 40.4494 189.048C41.0094 189.048 41.476 188.917 41.8494 188.656C42.2227 188.395 42.4794 188.021 42.6194 187.536H43.9914C43.786 188.32 43.3754 188.95 42.7594 189.426C42.1434 189.893 41.3734 190.126 40.4494 190.126C39.7214 190.126 39.0727 189.963 38.5034 189.636C37.9434 189.309 37.5047 188.847 37.1874 188.25C36.87 187.653 36.7114 186.953 36.7114 186.15ZM49.4993 182.188C50.0779 182.188 50.6006 182.314 51.0673 182.566C51.5339 182.809 51.8979 183.177 52.1593 183.672C52.4299 184.167 52.5653 184.769 52.5653 185.478V190H51.3053V185.66C51.3053 184.895 51.1139 184.311 50.7313 183.91C50.3486 183.499 49.8259 183.294 49.1633 183.294C48.4913 183.294 47.9546 183.504 47.5533 183.924C47.1613 184.344 46.9653 184.955 46.9653 185.758V190H45.6913V179.64H46.9653V183.42C47.2173 183.028 47.5626 182.725 48.0013 182.51C48.4493 182.295 48.9486 182.188 49.4993 182.188ZM61.6464 185.87C61.6464 186.113 61.6324 186.369 61.6044 186.64H55.4724C55.519 187.396 55.7757 187.989 56.2424 188.418C56.7184 188.838 57.2924 189.048 57.9644 189.048C58.515 189.048 58.9724 188.922 59.3364 188.67C59.7097 188.409 59.971 188.063 60.1204 187.634H61.4924C61.287 188.371 60.8764 188.973 60.2604 189.44C59.6444 189.897 58.879 190.126 57.9644 190.126C57.2364 190.126 56.583 189.963 56.0044 189.636C55.435 189.309 54.987 188.847 54.6604 188.25C54.3337 187.643 54.1704 186.943 54.1704 186.15C54.1704 185.357 54.329 184.661 54.6464 184.064C54.9637 183.467 55.407 183.009 55.9764 182.692C56.555 182.365 57.2177 182.202 57.9644 182.202C58.6924 182.202 59.3364 182.361 59.8964 182.678C60.4564 182.995 60.8857 183.434 61.1844 183.994C61.4924 184.545 61.6464 185.17 61.6464 185.87ZM60.3304 185.604C60.3304 185.119 60.223 184.703 60.0084 184.358C59.7937 184.003 59.4997 183.737 59.1264 183.56C58.7624 183.373 58.3564 183.28 57.9084 183.28C57.2644 183.28 56.7137 183.485 56.2564 183.896C55.8084 184.307 55.5517 184.876 55.4864 185.604H60.3304ZM66.044 190.126C65.456 190.126 64.9287 190.028 64.462 189.832C63.9953 189.627 63.6267 189.347 63.356 188.992C63.0853 188.628 62.936 188.213 62.908 187.746H64.224C64.2613 188.129 64.4387 188.441 64.756 188.684C65.0827 188.927 65.5073 189.048 66.03 189.048C66.5153 189.048 66.898 188.941 67.178 188.726C67.458 188.511 67.598 188.241 67.598 187.914C67.598 187.578 67.4487 187.331 67.15 187.172C66.8513 187.004 66.3893 186.841 65.764 186.682C65.1947 186.533 64.728 186.383 64.364 186.234C64.0093 186.075 63.7013 185.847 63.44 185.548C63.188 185.24 63.062 184.839 63.062 184.344C63.062 183.952 63.1787 183.593 63.412 183.266C63.6453 182.939 63.9767 182.683 64.406 182.496C64.8353 182.3 65.3253 182.202 65.876 182.202C66.7253 182.202 67.4113 182.417 67.934 182.846C68.4567 183.275 68.7367 183.863 68.774 184.61H67.5C67.472 184.209 67.3087 183.887 67.01 183.644C66.7207 183.401 66.3287 183.28 65.834 183.28C65.3767 183.28 65.0127 183.378 64.742 183.574C64.4713 183.77 64.336 184.027 64.336 184.344C64.336 184.596 64.4153 184.806 64.574 184.974C64.742 185.133 64.9473 185.263 65.19 185.366C65.442 185.459 65.7873 185.567 66.226 185.688C66.7767 185.837 67.2247 185.987 67.57 186.136C67.9153 186.276 68.2093 186.491 68.452 186.78C68.704 187.069 68.8347 187.447 68.844 187.914C68.844 188.334 68.7273 188.712 68.494 189.048C68.2607 189.384 67.9293 189.65 67.5 189.846C67.08 190.033 66.5947 190.126 66.044 190.126Z" fill="white"/>
</g>
<defs>
<clipPath id="clip0_3260_767">
<rect width="167" height="199" rx="17.72" fill="white"/>
</clipPath>
</defs>
</svg>
