<svg width="167" height="203" viewBox="0 0 167 203" fill="none" xmlns="http://www.w3.org/2000/svg">
<rect x="0.553846" y="0.553846" width="165.046" height="201.6" rx="17.1692" fill="#FFEBEF" stroke="#DB3557" stroke-width="1.10769"/>
<path d="M116.078 36.9339C116.078 36.9339 131.132 24.6071 122.961 7.72342L129.25 9.99086C129.25 9.99086 134.252 25.6632 122.168 40.6323L116.078 36.9339Z" fill="#6F2833"/>
<path d="M115.673 36.6704C115.673 36.6704 113.801 15.3939 123.198 7.64721L129.659 9.82484C129.659 9.82484 120.592 19.6704 121.96 40.4295L115.673 36.6704Z" fill="#DB3557"/>
<path d="M153.919 85.8487C156.62 94.3129 60.2825 125.055 57.5814 116.591C41.5718 66.4217 33.2752 52.1127 84.8297 35.6611C136.23 19.2586 137.909 35.6793 153.919 85.8487Z" fill="#DB3557"/>
<path d="M46.8936 77.5178L139.399 47.9981L142.839 58.7755L50.3327 88.2952L46.8936 77.5178Z" fill="#6F2833"/>
<path d="M47.4668 79.314L139.973 49.7943L142.552 57.8773L50.0462 87.397L47.4668 79.314Z" fill="#F26B8C"/>
<path d="M139.896 55.7563L50.9828 84.1296L49.8364 80.5371L138.75 52.1638L139.896 55.7563Z" fill="#DB3557"/>
<path d="M48.7285 73.9636L54.1061 72.2476L54.6012 73.7989L49.2236 75.5149L48.7285 73.9636ZM56.2572 71.5611L61.6348 69.8451L62.1298 71.3964L56.7522 73.1124L56.2572 71.5611ZM63.6322 69.2077L69.0098 67.4916L69.5048 69.0429L64.1272 70.759L63.6322 69.2077ZM71.0072 66.8542L76.3848 65.1382L76.8798 66.6895L71.5022 68.4055L71.0072 66.8542ZM78.5358 64.4518L83.9134 62.7357L84.4084 64.287L79.0308 66.0031L78.5358 64.4518ZM85.9108 62.0983L91.2884 60.3823L91.7834 61.9336L86.4058 63.6496L85.9108 62.0983ZM93.2858 59.7449L98.6634 58.0288L99.1584 59.5801L93.7808 61.2962L93.2858 59.7449ZM100.814 57.3424L106.192 55.6263L106.687 57.1776L101.309 58.8937L100.814 57.3424ZM108.189 54.9889L113.567 53.2729L114.062 54.8242L108.684 56.5402L108.189 54.9889ZM115.564 52.6355L120.942 50.9194L121.437 52.4707L116.059 54.1868L115.564 52.6355ZM123.093 50.233L128.471 48.517L128.966 50.0683L123.588 51.7843L123.093 50.233ZM130.468 47.8796L135.846 46.1635L136.341 47.7148L130.963 49.4309L130.468 47.8796ZM53.6789 89.4765L59.0565 87.7605L59.5515 89.3118L54.1739 91.0278L53.6789 89.4765ZM61.2075 87.074L66.5851 85.358L67.0801 86.9093L61.7025 88.6253L61.2075 87.074ZM68.5825 84.7206L73.9601 83.0045L74.4551 84.5558L69.0775 86.2719L68.5825 84.7206ZM75.9575 82.3672L81.3351 80.6511L81.8301 82.2024L76.4525 83.9184L75.9575 82.3672ZM83.4862 79.9647L88.8638 78.2486L89.3588 79.7999L83.9812 81.516L83.4862 79.9647ZM90.8612 77.6112L96.2388 75.8952L96.7338 77.4465L91.3562 79.1625L90.8612 77.6112ZM98.2362 75.2578L103.614 73.5417L104.109 75.093L98.7312 76.8091L98.2362 75.2578ZM105.765 72.8553L111.142 71.1392L111.637 72.6905L106.26 74.4066L105.765 72.8553ZM113.14 70.5019L118.517 68.7858L119.012 70.3371L113.635 72.0531L113.14 70.5019ZM120.515 68.1484L125.892 66.4323L126.387 67.9836L121.01 69.6997L120.515 68.1484ZM128.043 65.7459L133.421 64.0299L133.916 65.5812L128.538 67.2972L128.043 65.7459ZM135.418 63.3925L140.796 61.6764L141.291 63.2277L135.913 64.9438L135.418 63.3925Z" fill="#F26B8C"/>
<path d="M153.605 87.9958C152.836 88.2414 152.026 87.8289 151.735 86.9156L149.209 79C142.853 58.553 138.579 45.1574 129.888 39.7121C122.664 35.1408 109.121 36.2758 87.4204 43.2006C65.7199 50.1255 54.0228 57.045 50.8302 65.1082C46.9004 74.5807 51.329 87.9272 57.8382 108.325L60.3156 116.088C60.5585 116.85 60.1857 117.807 59.4162 118.053C58.6467 118.298 57.8368 117.886 57.5453 116.972L55.0679 109.209C48.1619 88.0992 43.7415 74.2469 48.1494 63.6155C51.8118 54.8992 63.9789 47.3266 86.4489 40.1562C108.919 32.9857 123.175 31.9588 131.258 37.0947C140.855 43.2569 145.275 57.1092 151.979 78.116L154.505 86.0316C154.748 86.7927 154.375 87.7503 153.605 87.9958Z" fill="white"/>
<path d="M86.4775 40.8414C107.867 34.0158 122.49 32.5499 130.735 37.6668C140.091 43.6083 144.53 57.5196 151.06 78.512L153.548 86.3084C153.694 86.767 153.484 87.1709 153.176 87.2691C152.868 87.3673 152.463 87.1598 152.317 86.7012L149.78 78.7519C143.348 58.0653 139.007 44.4598 130.104 38.8787C122.264 33.9693 107.845 35.5389 86.9165 42.2173C65.9885 48.8956 53.325 55.9686 49.7778 64.5118C45.7539 74.2178 50.0955 87.8233 56.8351 108.412L59.3718 116.361C59.5182 116.82 59.308 117.224 59.0002 117.322C58.6924 117.42 58.3359 117.365 58.1895 116.907L55.7016 109.11C48.8157 88.0633 44.4252 74.3049 48.6106 64.0421C52.3192 54.9421 65.0879 47.6671 86.4775 40.8414ZM85.9897 39.3127C63.2151 46.5804 50.9005 54.2157 47.1919 63.3157C42.6913 74.1845 47.3332 88.1995 54.114 109.448L56.6019 117.245C56.9922 118.468 58.257 119.243 59.488 118.85C60.7191 118.458 61.3009 117.093 60.9106 115.87L58.4227 108.074C51.8295 87.9437 47.5366 74.4911 51.3991 65.3419C54.5259 57.6066 66.3713 50.6263 87.607 43.8497C108.843 37.0732 122.542 35.9019 129.571 40.3963C138.068 45.7699 142.158 59.1187 148.598 79.2976L151.134 87.2469C151.525 88.4699 152.789 89.2453 154.021 88.8525C155.252 88.4597 155.833 87.0949 155.443 85.872L152.906 77.9227C145.818 56.7719 141.484 42.6587 131.519 36.4059C123.225 31.1361 108.764 32.0451 85.9897 39.3127Z" fill="#C9C9C9"/>
<path d="M119.487 66.2269C122.463 65.2772 124.234 62.4968 123.443 60.0167C122.651 57.5366 119.597 56.296 116.621 57.2457C113.645 58.1954 111.874 60.9758 112.665 63.4559C113.457 65.936 116.511 67.1766 119.487 66.2269Z" fill="white"/>
<path d="M119.477 66.657C116.245 67.6883 112.738 66.2639 111.854 63.4938C110.971 60.7237 112.85 57.5804 116.236 56.5C119.621 55.4196 122.974 56.8932 123.858 59.6633C124.742 62.4333 122.863 65.5766 119.477 66.657ZM116.727 58.039C114.265 58.8247 112.755 61.0021 113.393 63.0027C114.032 65.0033 116.524 65.9038 118.986 65.1181C121.448 64.3323 122.958 62.155 122.319 60.1543C121.835 58.1046 119.189 57.2532 116.727 58.039Z" fill="#C9C9C9"/>
<path d="M116.037 60.1245L122.5 58.0619L123.679 61.7554L117.215 63.818L116.037 60.1245Z" fill="#C9C9C9"/>
<path d="M127.035 74.6069C127.929 76.3491 127.75 78.4337 126.217 78.9229L123.151 79.9013C121.618 80.3905 120.264 78.795 119.984 76.8571L118.715 68.6456C118.672 67.9833 119.139 67.3277 119.752 67.132L121.285 66.6428C122.051 66.3982 122.811 66.6625 123.007 67.2759L127.035 74.6069Z" fill="white"/>
<path d="M126.533 79.812L123.411 80.8083C122.63 81.0574 121.906 80.9442 121.082 80.5187C120.003 79.8306 119.242 78.5245 119.105 77.0191L117.968 68.6049C117.825 67.6179 118.513 66.5381 119.606 66.1894L121.167 65.6912C122.259 65.3425 123.445 65.8246 123.9 66.7119L127.847 74.2295C128.608 75.5356 128.744 77.041 128.263 78.2272C127.838 79.0513 127.313 79.5629 126.533 79.812ZM120.104 67.7513C119.792 67.8509 119.579 68.263 119.473 68.469L120.61 76.8832C120.753 77.8702 121.208 78.7575 121.876 79.2328C122.132 79.4954 122.494 79.552 122.806 79.4524L125.928 78.4561C126.24 78.3564 126.503 78.1006 126.559 77.7384C126.828 76.9642 126.685 75.9772 126.23 75.0899L122.283 67.5723C122.233 67.4161 121.821 67.2033 121.353 67.3528L120.104 67.7513Z" fill="#C9C9C9"/>
<path d="M118.093 58.7554L118.991 58.4688L121.857 67.4499L120.959 67.7365L118.093 58.7554Z" fill="#9B9596"/>
<path d="M23.242 21.4033C23.242 21.4033 24.8123 19.0534 31.8787 20.3063C38.6276 21.5035 39.9139 23.3912 39.3849 24.6775C38.8615 25.9527 31.4276 28.7313 31.4276 28.7313L26.043 29.7782C26.043 29.7782 25.8146 30.374 25.681 31.2594C25.5474 32.1392 25.3803 34.6617 25.3803 34.6617L22.3511 29.3773L23.242 21.4033Z" fill="#CA8865"/>
<path d="M39.6519 51.7622C39.6519 51.7622 41.2945 51.4114 42.3414 50.1696C43.366 48.9501 44.3516 47.0791 44.385 46.1826C44.4351 44.9353 44.0843 44.3896 43.8393 44.1891C43.2546 43.7214 40.0528 47.2796 40.0528 47.2796L39.6519 51.7622Z" fill="#E4BF8F"/>
<path d="M57.0539 27.1387L50.7727 31.8273C50.7727 31.8273 49.6757 33.3252 53.5625 34.0213C57.4493 34.7173 60.8905 34.7674 60.8905 34.7674C60.8905 34.7674 68.0182 31.6268 67.9179 31.1257C67.8177 30.6245 67.272 27.6343 67.0214 27.6844C66.7764 27.7345 57.0539 27.1387 57.0539 27.1387Z" fill="#CA8865"/>
<path d="M52.2147 66.8693C52.0644 67.4652 51.6189 68.3673 51.0676 69.0633C50.6277 69.6202 49.7423 69.8095 49.7702 70.3106C49.8203 71.157 51.7136 72.6048 52.315 72.6048C52.9163 72.6048 53.863 71.6582 53.7627 70.3608C53.6625 69.0633 53.6625 66.719 53.6625 66.719L52.2147 66.8693Z" fill="#EFC2A2"/>
<path d="M37.8597 40.9484L38.6059 38.6542L39.8031 36.9614L41.7465 38.2589L43.6397 43.393L43.6008 46.0268C43.6008 46.0268 42.8936 47.625 41.2453 49.9693C39.597 52.3136 39.0847 53.3159 38.0546 55.3039C37.3084 56.7517 36.4063 59.0514 36.011 62.0862C35.4151 66.6746 36.011 70.3609 35.9107 74.7489C35.8105 79.1368 35.2704 83.5025 33.8281 85.0449C32.5251 86.437 30.7265 87.2612 26.94 87.3113C23.1534 87.3614 22.8694 86.4036 22.8694 86.4036L20.9595 64.3303L32.2745 40.6978L37.8597 40.9484Z" fill="#CA8865"/>
<path d="M37.0406 41.6164C37.0406 41.6164 35.6931 41.4048 33.8778 42.9639C32.4077 44.228 31.3887 47.0512 29.6235 51.6451C27.9362 56.0219 26.4216 59.5245 25.1576 61.7574C23.8935 63.9904 22.9636 65.6776 22.3789 66.8581C21.8722 67.8716 19.9789 67.4929 19.9789 67.3203C19.9789 67.1477 17.9576 65.0428 17.9576 65.0428L17.7905 62.4702C17.7905 62.4702 20.6973 58.2994 20.6973 58.1713C20.6973 58.0433 24.0272 50.8823 24.0272 50.8823C24.0272 50.8823 26.6833 40.5584 26.7669 40.2632C26.8504 39.9681 30.4309 35.1625 30.4309 35.1625L37.2578 34.1101C37.2578 34.1101 37.8035 37.9022 37.8035 38.0693C37.8035 38.2363 37.72 41.5273 37.72 41.5273L37.0406 41.6164Z" fill="#865C52"/>
<path d="M37.8649 33.8262C37.8649 33.8262 38.7447 34.0433 39.8918 34.9064C41.2616 35.9422 42.1804 37.1728 42.882 38.4313C43.5113 39.5617 43.9178 41.2099 44.0514 42.7468C44.1851 44.2837 43.8175 45.7204 43.5837 46.0211C43.3498 46.3218 42.6482 42.1454 41.8463 40.4136C41.0612 38.7153 40.3428 38.1751 39.3405 38.2754C38.2992 38.3812 38.3716 38.6763 38.3716 38.6763L37.8649 33.8262ZM26.3438 65.6164L28.0477 65.4939C28.0477 65.4939 29.4398 70.5166 29.9076 75.3111C30.3753 80.1055 30.3697 82.6781 30.3196 83.8141C30.2695 84.95 29.9577 85.9245 28.6714 86.5983C27.3851 87.2665 24.9628 87.1663 23.7767 86.9602C22.5906 86.7542 21.6384 85.4568 20.7141 83.8586C19.7897 82.2605 18.4644 79.2591 17.5957 75.467C16.2537 69.6424 16.7215 65.2656 16.7215 65.2656L21.5159 67.7881L26.3438 65.6164Z" fill="#DCA282"/>
<path d="M25.1853 41.9729C25.1853 41.9729 24.3222 47.8253 23.6038 50.0917C22.8799 52.358 22.1226 54.5965 20.0122 57.687C18.6201 59.7307 17.1277 60.9836 16.6099 62.3757C16.092 63.7678 16.1477 65.1042 16.66 66.19C17.1723 67.2759 17.718 67.5487 17.718 67.5487C17.718 67.5487 17.3171 68.217 16.7324 68.7404C16.2034 69.2081 15.5073 69.4643 15.5073 69.7706C15.5073 70.0768 15.9528 70.7896 16.7602 71.3854C17.3059 71.7863 18.1245 72.1928 18.3472 72.1928C18.57 72.1928 19.9342 69.6815 19.9342 69.765C19.9342 69.8485 21.2205 72.7274 21.4711 72.7552C22.724 72.8945 24.5338 70.8898 24.5338 70.4054C24.5338 70.0991 22.479 68.3395 22.479 68.3395C22.479 68.3395 25.1463 68.5065 27.6298 66.1121C30.1133 63.7177 33.4878 58.1548 35.9435 51.5506C38.3992 44.9464 39.4628 39.172 38.8335 36.1372C38.2043 33.1024 37.3857 32.9075 37.3857 32.9075L36.4725 34.1604C36.4725 34.1604 37.486 36.7608 36.9068 40.4249C36.3277 44.0889 34.2117 51.4114 31.8952 56.0332C29.8962 60.0258 27.0785 64.4137 23.6094 66.0063C20.1403 67.5933 17.395 64.3079 18.7927 62.0583C19.6614 60.6606 21.2484 59.0235 22.7407 55.9385C24.4447 52.4193 25.5806 47.6026 25.9203 45.9154C26.26 44.2281 26.6442 42.4963 26.6442 42.4963L25.1853 41.9729Z" fill="#F8E2D5"/>
<path d="M21.2207 40.6533C21.2207 40.6533 19.1938 46.0213 19.2717 46.5893C19.3497 47.1573 20.4021 49.418 21.1761 50.5039C22.5014 52.3638 23.5316 53.6111 23.7766 53.6111C24.0216 53.6111 25.4026 48.3322 25.4026 48.3322C25.4026 48.3322 24.3446 46.8287 23.6262 45.5201C22.3288 43.1647 22.8856 41.4273 22.8077 41.3048C22.7242 41.1823 21.2207 40.6533 21.2207 40.6533Z" fill="#CA8865"/>
<path d="M19.0823 74.4928C18.4809 74.6933 18.7482 75.6121 19.3161 77.3884C19.8841 79.1648 21.5101 83.1629 23.5426 84.5327C24.9124 85.4571 27.1955 85.5462 27.0619 83.9035C26.9783 82.8455 25.3746 82.8177 24.1161 81.587C22.4122 79.9276 21.4377 78.491 20.6414 77.0042C20.1848 76.1578 19.7171 74.2812 19.0823 74.4928Z" fill="#FDE1CC"/>
<path d="M30.5032 25.8689C23.5315 24.8109 23.3923 21.7149 23.37 21.5701C23.3088 21.1413 23.1751 21.4699 23.1195 21.6536C23.0638 21.8374 22.145 26.3645 21.9222 27.4114C21.6939 28.4583 20.4522 33.0578 20.4689 33.3195C20.4856 33.5812 20.6638 34.5056 20.9812 35.1181C21.2986 35.7251 22.0726 37.262 22.0726 37.262C22.0726 37.262 21.087 37.9357 20.3074 38.5427C19.5278 39.1497 18.7761 40.2633 18.7761 40.2633C18.7761 40.2633 18.5868 40.6197 18.6313 42.513C18.6758 44.4063 19.2828 46.6114 19.2828 46.6114C19.2828 46.6114 19.8007 45.3251 21.3932 43.8327C22.9914 42.3404 24.4726 41.5441 24.4726 41.5441C24.4726 41.5441 26.3213 44.423 28.1088 46.7339C29.8963 49.0448 33.4656 52.4081 33.4656 52.4081C33.4656 52.4081 34.1784 50.5817 34.4123 49.8856C34.6461 49.1896 35.1974 47.3575 35.1974 47.3575C35.1974 47.3575 33.9724 46.0879 31.7895 43.9051C29.6067 41.7223 28.5654 39.4504 28.5654 39.4504C28.5654 39.4504 31.1269 38.4035 33.5603 36.9947C36.6786 35.1961 38.2601 33.971 38.2601 33.971C38.2601 33.971 38.661 32.3116 38.945 29.8448C39.2679 27.0606 39.513 24.1873 39.513 24.1873C39.513 24.1873 37.8591 26.9826 30.5032 25.8689ZM31.0099 32.746C29.2447 33.5311 26.2712 34.7617 26.2712 34.7617L23.9436 28.8759C23.9436 28.8759 25.2355 29.8225 27.9083 30.5464C30.5867 31.2703 34.7074 31.081 34.7074 31.081C34.7074 31.081 32.7696 31.9552 31.0099 32.746ZM52.4651 23.3074L50.7723 31.8216C50.7723 31.8216 54.3083 30.7079 58.88 30.2791C63.4517 29.8504 67.2048 30.0174 67.2048 30.6411C67.2048 31.2647 62.4995 31.7269 57.9946 33.7316C53.4897 35.7362 50.1654 38.4369 50.1654 38.4369C50.1654 38.4369 50.0651 41.0986 50.2656 43.3371C50.4661 45.5756 50.7946 47.2517 50.7946 47.2517C50.7946 47.2517 53.2614 48.9278 55.138 49.8856C57.0146 50.8378 58.1004 51.2666 58.1004 51.2666L59.9101 46.3664C59.9101 46.3664 57.5101 45.2471 56.4577 44.5566C55.4053 43.8661 54.3863 43.4708 54.3194 42.6466C54.2526 41.8225 57.1482 39.8847 60.8679 38.2086C64.5876 36.5325 66.8874 36.1705 66.8874 36.1705C66.8874 36.1705 69.3208 34.5279 69.2874 34.3942C69.254 34.2606 68.6971 31.7938 68.7306 28.7367C68.764 25.6796 68.7974 23.4411 68.7974 23.4411C68.7974 23.4411 66.8874 21.6648 60.6062 21.9265C54.3083 22.1938 52.4651 23.3074 52.4651 23.3074Z" fill="#E7AC84"/>
<path d="M70.9359 36.048L71.4872 42.5519L66.9211 66.7579L71.0696 84.2985C71.0696 84.2985 69.8501 87.4168 64.5712 87.5059C61.3192 87.5616 60.1554 86.1528 59.6598 85.7741C59.1643 85.3955 56.2687 79.8271 55.1271 76.6753C52.5935 69.6869 52.2148 66.8637 52.2148 66.8637L54.4032 61.7018L59.3146 47.2461L63.9475 39.222L68.4413 35.0735L70.9359 36.048Z" fill="#DDA281"/>
<path d="M71.4869 34.5281L68.9978 35.5638C68.9978 35.5638 70.7073 36.3267 70.7296 38.955C70.7686 44.4733 67.9565 48.9559 65.5454 53.3605C63.9974 56.1893 62.6665 57.3086 61.3245 57.6984C60.3946 57.9712 59.409 57.7095 59.4981 58.3833C59.615 59.2798 61.7255 59.7531 61.7255 59.7531C61.7255 59.7531 60.6842 61.3123 59.3867 62.2032C58.0893 63.0942 56.3463 63.5731 56.6415 64.1689C56.9366 64.7647 60.389 64.0575 60.389 64.0575C60.389 64.0575 59.6094 65.5387 58.8688 66.1735C58.1282 66.8083 57.3876 67.0645 57.7552 67.6213C58.1282 68.1782 59.7598 67.5823 60.2053 67.3986C60.6507 67.2148 61.319 66.8417 61.319 66.8417C61.319 66.8417 60.751 71.8533 61.319 75.7847C61.8034 79.1257 63.0674 83.3355 65.5398 84.9726C66.8818 85.8635 69.4823 85.7856 70.557 84.9782C71.3644 84.3712 72.1886 82.1438 72.2999 80.9188C72.4113 79.6937 66.1078 67.8051 66.1078 67.8051L70.3008 53.9675L76.3872 47.4747C76.3872 47.4747 77.3505 46.1383 77.3895 43.2817C77.4285 40.4251 75.4238 37.2343 74.1988 36.0872C72.9626 34.9346 71.4869 34.5281 71.4869 34.5281Z" fill="#CA8865"/>
<path d="M73.2582 48.8498L72.2169 45.6925C72.2169 45.6925 73.4029 41.132 72.6234 38.5705C71.8438 36.009 70.6187 35.5858 69.4326 35.5301C68.7366 35.4967 63.2907 40.2132 60.0331 48.3208C56.7756 56.4229 55.3166 63.0661 53.9858 64.9927C52.6549 66.9194 51.8141 67.2814 51.4633 66.719C50.8006 65.6554 51.931 64.4582 52.6605 63.1329C53.39 61.802 56.8201 50.9547 58.5074 47.0568C60.434 42.6076 64.0702 37.2563 67.1273 34.9343C68.9705 33.5311 70.3347 33.5756 70.3347 33.5756C70.3347 33.5756 73.1524 34.4053 74.7449 36.5324C76.3375 38.6596 76.176 41.7501 75.647 45.3361C75.118 48.9222 73.2582 48.8498 73.2582 48.8498ZM54.9269 66.8582C54.0081 67.1255 54.2642 68.7347 55.4002 72.5046C56.7923 77.1152 58.9751 81.5811 59.3593 82.2883C59.7436 82.9955 60.0999 83.647 60.6289 83.3797C61.1635 83.1124 60.3951 81.815 59.9774 80.7793C59.493 79.5709 58.4238 76.5584 57.1375 72.1148C56.4359 69.6647 56.0517 66.5352 54.9269 66.8582Z" fill="#F8E2D5"/>
<path d="M67.4332 38.5095C66.9821 38.4037 65.3339 39.601 64.12 43.1815C62.906 46.7564 63.0508 49.7801 64.0587 49.8023C65.2392 49.8302 65.0053 46.0771 65.9186 43.5044C66.9766 40.5643 68.0568 38.6543 67.4332 38.5095Z" fill="#F8E2D5"/>
<path d="M75.4572 44.7182C72.8846 43.4542 67.0043 49.0059 63.9139 62.4092C60.8234 75.8124 63.9083 85.6295 69.95 83.7641C76.4206 81.7706 68.5524 66.5298 70.1728 60.4936C70.8131 58.0992 71.2308 56.9688 71.7375 55.7103C72.4002 54.0676 73.3691 52.4416 73.6141 52.0574C74.5384 50.6152 78.5978 46.2607 75.4572 44.7182Z" fill="#E4BF8C"/>
<path d="M65.2609 57.4532L71.7705 55.7158C71.7705 55.7158 70.5231 58.8007 70.189 60.3933C69.9106 61.7242 69.9997 62.6986 69.9997 62.6986L63.3677 64.6532C63.3677 64.6532 63.8744 62.2532 64.2865 60.733C64.6985 59.2128 65.2609 57.4532 65.2609 57.4532Z" fill="#DDA281"/>
<path d="M23.4731 108.364C23.0521 108.364 22.6153 108.338 22.189 108.285C18.079 107.796 15.0898 106.306 14.0004 104.196C13.4637 103.154 13.4584 102.038 13.9952 101.059C14.3951 100.317 16.0318 99.7595 17.8 99.7595C18.5736 99.7595 19.2946 99.87 19.8314 100.075C20.2945 100.254 20.8734 100.502 21.5417 100.796C23.7047 101.738 26.6675 103.028 29.0094 103.128C29.6409 103.154 30.2882 103.164 30.946 103.164C31.8091 103.164 32.5563 103.143 33.13 103.117C31.767 104.854 28.4094 108.364 23.4731 108.364Z" fill="#263238"/>
<path d="M11.5854 114.884L11.9433 121.252C11.9538 121.462 12.0591 121.657 12.2327 121.778C13.1274 122.399 16.2376 124.214 22.0948 124.109C22.4738 124.104 22.7737 123.788 22.7737 123.414V119.499L11.5854 114.884Z" fill="#4E342E"/>
<path d="M22.1992 124.099C22.4992 124.12 23.1254 123.788 23.7569 123.478C24.8095 122.957 25.9357 122.352 25.9357 122.352C25.9357 122.352 22.2413 121.389 22.2834 121.51C22.3255 121.631 22.1992 124.099 22.1992 124.099Z" fill="#263238"/>
<path d="M71.4418 119.326C69.8315 117.868 66.4108 116.889 59.9852 114.963C53.5596 113.037 47.4549 107.253 45.1289 104.443C42.8028 101.633 40.8188 97.7492 36.7772 98.7438C33.9775 99.4279 33.9669 101.954 33.9669 101.954C33.9669 101.954 33.1249 102.08 31.9145 102.585C31.6093 102.591 29.7042 102.585 29.0254 102.559C26.0941 102.438 22.0366 100.312 20.0316 99.549C19.4053 99.3121 18.616 99.1964 17.795 99.1964C15.9899 99.1964 14.127 99.47 13.406 100.833C12.685 102.196 11.9588 103.964 11.4799 106.859C10.3905 113.39 11.8535 115.631 11.8535 115.631C11.8535 115.631 16.9372 118.9 20.7157 119.62C24.489 120.341 29.5516 122.189 31.7987 123.957C34.0459 125.725 39.1085 129.819 50.8335 130.219C62.5586 130.619 71.7155 126.767 72.9206 126.204C74.1205 125.646 73.689 121.362 71.4418 119.326ZM14.4953 101.338C15.1163 100.533 16.0215 100.396 17.795 100.344C18.9843 100.307 20.6526 101.017 21.3051 101.328C26.173 103.659 29.7832 103.727 29.7832 103.727C29.7832 103.727 28.9675 104.301 28.557 104.654C26.7046 106.248 23.9522 107.764 19.0791 106.69C16.5583 106.132 13.3007 102.891 14.4953 101.338Z" fill="#A06841"/>
<path d="M73.5304 125.378C73.3146 125.967 73.0778 126.13 72.9147 126.209C71.7674 126.746 63.4367 130.256 52.5432 130.256C51.9801 130.256 51.4064 130.245 50.8276 130.224C39.1025 129.824 34.0452 125.725 31.7928 123.962C29.5456 122.194 24.483 120.347 20.7097 119.626C20.2203 119.531 19.7046 119.394 19.1836 119.226L18.9941 120.973C19.4678 121.115 19.9309 121.236 20.3835 121.325C24.2146 122.057 28.851 123.851 30.7245 125.325L30.8139 125.393C33.1505 127.23 38.6289 131.54 50.7644 131.956C51.3486 131.977 51.9485 131.987 52.5379 131.987C64.484 131.987 73.2672 127.951 73.6356 127.783C73.7882 127.709 74.2198 127.267 74.2145 126.914C74.2198 126.141 73.583 125.236 73.5304 125.378ZM39.3025 120.447C39.0341 120.657 38.6552 120.647 38.3973 120.426C38.2657 120.315 38.1289 120.199 38.0237 120.115C36.8975 119.236 33.8294 117.11 30.4982 117.021C26.0671 116.9 25.4198 117.431 24.3988 117.952C23.3726 118.473 22.9411 118.868 23.1569 118.363C23.3726 117.852 24.2778 116.889 25.6776 116.447C26.7723 116.1 28.3563 115.815 30.5297 115.873C33.961 115.968 37.0185 117.921 38.4289 118.973C38.6973 119.173 39.0657 119.157 39.3183 118.941C40.8128 117.647 43.8809 114.695 43.9125 112.226C43.9388 109.763 40.0445 105.301 37.7395 103.048C36.8975 102.227 35.3134 101.859 33.9662 101.954L34.0504 101.543C35.2976 100.859 37.45 101.159 38.5447 102.227C39.6393 103.296 45.1019 108.806 45.065 112.242C45.0282 115.384 41.2391 118.852 39.7761 120.073C39.6446 120.178 39.4656 120.315 39.3025 120.447Z" fill="#4E342E"/>
<path d="M37.1509 105.38C38.777 103.59 40.7979 102.054 43.2029 101.791M38.8454 107.643C40.561 105.859 42.5977 104.327 45.0448 103.964M40.8031 109.837C41.9504 108.574 45.0079 106.09 47.3393 106.09M42.6766 112.274C44.7816 110.379 46.713 109.048 49.4601 108.379" stroke="#263238" stroke-width="1.15093" stroke-miterlimit="10" stroke-linecap="round"/>
<path d="M31.9138 102.585L29.7824 103.733C29.7824 103.733 28.1826 103.79 26.7091 103.306C25.3934 102.875 28.8246 102.648 29.9455 102.596C31.0717 102.543 31.9138 102.585 31.9138 102.585Z" fill="#784D30"/>
<path opacity="0.7" d="M18.7846 106.616C19.1266 106.732 19.5529 106.827 19.5529 107.227C19.5529 107.464 19.0582 107.553 18.8214 107.558C17.6531 107.585 16.4796 107.201 15.5481 106.495C14.6166 105.785 14.1588 105.138 13.7272 104.054C13.5115 103.512 13.5799 103.18 13.743 103.064C14.2798 102.67 14.7324 103.664 15.0008 103.964C16.5743 105.695 17.4163 106.148 18.7846 106.616ZM27.5731 114.742C28.052 114.663 29.2887 114.505 29.4255 115.163C29.5571 115.8 28.7888 115.842 28.6677 115.863C27.2889 116.073 26.5101 116.11 25.2313 116.547C24.6524 116.747 24.3524 117.036 23.863 117.405C23.5472 117.647 23.2052 118.11 22.9473 118.468C22.7736 117.626 23.5209 116.742 23.9893 116.347C24.9892 115.505 26.2943 114.958 27.5731 114.742ZM60.1275 126.104C64.0113 125.193 63.6482 124.299 63.4798 123.799C63.1324 122.736 59.4539 124.378 55.8227 124.846C52.5441 125.272 49.9496 124.962 49.5707 125.241C48.7866 125.814 54.2597 127.483 60.1275 126.104Z" fill="#F29657"/>
<path d="M114.507 77.7941C101.321 109.651 84.9426 124.304 84.9426 124.304C84.9426 124.304 91.434 126.212 95.2882 127.162C101.815 128.772 106.869 130.848 113.272 127.599C121.509 123.42 126.44 106.486 128.918 90.1477C132.393 67.3023 140.639 60.1248 143.453 47.4919C143.947 45.2855 142.465 44.7642 140.745 45.7975C132.86 50.564 119.066 68.1681 114.507 77.7941Z" fill="#263238"/>
<path d="M103.049 129.415C112.168 122.005 117.654 109.977 121.253 100.453C122.84 96.2453 125.266 91.2648 128.652 86.5542C128.652 86.5542 126.58 114.334 117.584 123.829C110.766 131.016 103.049 129.415 103.049 129.415Z" fill="#2F7889"/>
<path d="M62.8576 141.452C64.3657 137.672 68.8638 133.483 70.9453 131.882C75.7785 128.139 87.1825 120.617 97.8456 105.006C104.487 95.2772 107.636 85.9212 114.109 74.2472C126.898 51.1691 140.119 40.2212 144.679 43.8984C147.113 45.8534 156.038 55.7493 158.667 64.2954C161.066 72.1153 161.269 76.2673 159.169 82.1695C158.773 83.2866 158.287 84.3013 157.741 85.2416C157.732 85.2602 157.732 85.2695 157.723 85.2881C150.729 100.826 151.77 138.492 151.77 138.492C151.77 138.492 151.223 140.298 148.55 140.298C145.878 140.298 145.031 138.622 145.031 138.622C145.031 138.622 145.658 112.146 142.077 101.626C140.965 103.051 139.898 104.642 138.919 106.448C132.525 118.216 131.123 139.031 123.335 145.893C116.826 151.618 107.547 152.986 99.4067 153.889C88.8318 155.053 78.0187 156.003 67.779 152.316C65.7593 151.59 63.325 150.426 62.4871 148.211C61.6757 146.088 62.0373 143.519 62.8576 141.452ZM93.6562 125.598C100.888 127.702 105.395 129.75 111.49 126.827C121.368 122.079 123.934 108.981 127.568 88.1182C130.426 71.7336 137.64 60.4413 142.721 47.7805C143.082 46.8774 141.759 46.3096 140.939 46.775C129.694 53.1334 116.552 75.2712 113.36 82.6722C100.121 113.347 86.9355 124.108 86.9355 124.108C86.9355 124.108 91.7952 125.058 93.6562 125.598Z" fill="#F44336"/>
<path opacity="0.94" d="M82.3146 144.934C83.0907 146.963 88.8324 147.382 90.7728 147.27C94.6358 147.065 100.377 146.665 102.6 145.017C104.814 143.37 103.747 142.504 102.432 141.554C101.118 140.605 96.5144 139.841 93.0218 140.121C91.7518 140.214 80.9211 141.294 82.3146 144.934Z" fill="#FF9F9F"/>
<path d="M62.3993 147.978C62.2141 147.429 62.0906 146.675 62.0906 146.675C62.0906 146.675 65.8479 153.2 93.9124 151.636C102.582 151.152 114.445 149.467 121.377 143.258C127.736 137.561 131.229 117.192 133.398 111.382C140.234 93.0895 149.45 92.7078 149.45 92.7078C149.45 92.7078 143.233 98.4796 138.911 106.43C132.516 118.197 131.343 139.301 123.326 145.874C113.528 153.899 98.137 154.448 90.8784 154.709C75.8848 155.249 64.4808 153.722 62.3993 147.978ZM145.023 138.613C145.023 138.613 145.041 137.793 145.049 136.397C145.596 136.732 146.152 137.03 146.76 137.225C148.427 137.765 150.315 137.402 151.726 136.332C151.744 137.71 151.761 138.492 151.761 138.492C151.761 138.492 151.214 140.298 148.542 140.298C145.87 140.298 145.023 138.613 145.023 138.613Z" fill="#A12524"/>
<path d="M149.035 67.1999C150.403 69.9343 151.336 72.8876 151.796 75.9415C151.955 76.9841 152.14 78.3805 153.119 78.6133C154.301 78.8926 157.626 75.9694 156.409 67.4047C155.871 63.6623 153.71 60.9626 151.09 60.4971C147.245 59.8268 147.951 65.0308 149.035 67.1999Z" fill="#FF9797"/>
<rect y="142.892" width="166.154" height="59.8154" rx="17.7231" fill="#DB3557"/>
<rect y="144" width="166.154" height="25.4769" fill="#DB3557"/>
<path d="M14.594 156.242V157.278H10.352V160.568H13.796V161.604H10.352V166H9.078V156.242H14.594ZM15.6567 162.136C15.6567 161.352 15.8154 160.666 16.1327 160.078C16.45 159.481 16.884 159.019 17.4347 158.692C17.9947 158.365 18.6154 158.202 19.2967 158.202C19.9687 158.202 20.552 158.347 21.0467 158.636C21.5414 158.925 21.91 159.289 22.1527 159.728V158.328H23.4407V166H22.1527V164.572C21.9007 165.02 21.5227 165.393 21.0187 165.692C20.524 165.981 19.9454 166.126 19.2827 166.126C18.6014 166.126 17.9854 165.958 17.4347 165.622C16.884 165.286 16.45 164.815 16.1327 164.208C15.8154 163.601 15.6567 162.911 15.6567 162.136ZM22.1527 162.15C22.1527 161.571 22.036 161.067 21.8027 160.638C21.5694 160.209 21.252 159.882 20.8507 159.658C20.4587 159.425 20.0247 159.308 19.5487 159.308C19.0727 159.308 18.6387 159.42 18.2467 159.644C17.8547 159.868 17.542 160.195 17.3087 160.624C17.0754 161.053 16.9587 161.557 16.9587 162.136C16.9587 162.724 17.0754 163.237 17.3087 163.676C17.542 164.105 17.8547 164.437 18.2467 164.67C18.6387 164.894 19.0727 165.006 19.5487 165.006C20.0247 165.006 20.4587 164.894 20.8507 164.67C21.252 164.437 21.5694 164.105 21.8027 163.676C22.036 163.237 22.1527 162.729 22.1527 162.15ZM28.3096 166.126C27.7216 166.126 27.1943 166.028 26.7276 165.832C26.261 165.627 25.8923 165.347 25.6216 164.992C25.351 164.628 25.2016 164.213 25.1736 163.746H26.4896C26.527 164.129 26.7043 164.441 27.0216 164.684C27.3483 164.927 27.773 165.048 28.2956 165.048C28.781 165.048 29.1636 164.941 29.4436 164.726C29.7236 164.511 29.8636 164.241 29.8636 163.914C29.8636 163.578 29.7143 163.331 29.4156 163.172C29.117 163.004 28.655 162.841 28.0296 162.682C27.4603 162.533 26.9936 162.383 26.6296 162.234C26.275 162.075 25.967 161.847 25.7056 161.548C25.4536 161.24 25.3276 160.839 25.3276 160.344C25.3276 159.952 25.4443 159.593 25.6776 159.266C25.911 158.939 26.2423 158.683 26.6716 158.496C27.101 158.3 27.591 158.202 28.1416 158.202C28.991 158.202 29.677 158.417 30.1996 158.846C30.7223 159.275 31.0023 159.863 31.0396 160.61H29.7656C29.7376 160.209 29.5743 159.887 29.2756 159.644C28.9863 159.401 28.5943 159.28 28.0996 159.28C27.6423 159.28 27.2783 159.378 27.0076 159.574C26.737 159.77 26.6016 160.027 26.6016 160.344C26.6016 160.596 26.681 160.806 26.8396 160.974C27.0076 161.133 27.213 161.263 27.4556 161.366C27.7076 161.459 28.053 161.567 28.4916 161.688C29.0423 161.837 29.4903 161.987 29.8356 162.136C30.181 162.276 30.475 162.491 30.7176 162.78C30.9696 163.069 31.1003 163.447 31.1096 163.914C31.1096 164.334 30.993 164.712 30.7596 165.048C30.5263 165.384 30.195 165.65 29.7656 165.846C29.3456 166.033 28.8603 166.126 28.3096 166.126ZM36.7161 158.188C37.2947 158.188 37.8174 158.314 38.2841 158.566C38.7507 158.809 39.1147 159.177 39.3761 159.672C39.6467 160.167 39.7821 160.769 39.7821 161.478V166H38.5221V161.66C38.5221 160.895 38.3307 160.311 37.9481 159.91C37.5654 159.499 37.0427 159.294 36.3801 159.294C35.7081 159.294 35.1714 159.504 34.7701 159.924C34.3781 160.344 34.1821 160.955 34.1821 161.758V166H32.9081V155.64H34.1821V159.42C34.4341 159.028 34.7794 158.725 35.2181 158.51C35.6661 158.295 36.1654 158.188 36.7161 158.188ZM42.5212 157.082C42.2785 157.082 42.0732 156.998 41.9052 156.83C41.7372 156.662 41.6532 156.457 41.6532 156.214C41.6532 155.971 41.7372 155.766 41.9052 155.598C42.0732 155.43 42.2785 155.346 42.5212 155.346C42.7545 155.346 42.9505 155.43 43.1092 155.598C43.2772 155.766 43.3612 155.971 43.3612 156.214C43.3612 156.457 43.2772 156.662 43.1092 156.83C42.9505 156.998 42.7545 157.082 42.5212 157.082ZM43.1372 158.328V166H41.8632V158.328H43.1372ZM48.6545 166.126C47.9358 166.126 47.2825 165.963 46.6945 165.636C46.1158 165.309 45.6585 164.847 45.3225 164.25C44.9958 163.643 44.8325 162.943 44.8325 162.15C44.8325 161.366 45.0005 160.675 45.3365 160.078C45.6818 159.471 46.1485 159.009 46.7365 158.692C47.3245 158.365 47.9825 158.202 48.7105 158.202C49.4385 158.202 50.0965 158.365 50.6845 158.692C51.2725 159.009 51.7345 159.467 52.0705 160.064C52.4158 160.661 52.5885 161.357 52.5885 162.15C52.5885 162.943 52.4111 163.643 52.0565 164.25C51.7111 164.847 51.2398 165.309 50.6425 165.636C50.0451 165.963 49.3825 166.126 48.6545 166.126ZM48.6545 165.006C49.1118 165.006 49.5411 164.899 49.9425 164.684C50.3438 164.469 50.6658 164.147 50.9085 163.718C51.1605 163.289 51.2865 162.766 51.2865 162.15C51.2865 161.534 51.1651 161.011 50.9225 160.582C50.6798 160.153 50.3625 159.835 49.9705 159.63C49.5785 159.415 49.1538 159.308 48.6965 159.308C48.2298 159.308 47.8005 159.415 47.4085 159.63C47.0258 159.835 46.7178 160.153 46.4845 160.582C46.2511 161.011 46.1345 161.534 46.1345 162.15C46.1345 162.775 46.2465 163.303 46.4705 163.732C46.7038 164.161 47.0118 164.483 47.3945 164.698C47.7771 164.903 48.1971 165.006 48.6545 165.006ZM58.0015 158.188C58.9349 158.188 59.6909 158.473 60.2695 159.042C60.8482 159.602 61.1375 160.414 61.1375 161.478V166H59.8775V161.66C59.8775 160.895 59.6862 160.311 59.3035 159.91C58.9209 159.499 58.3982 159.294 57.7355 159.294C57.0635 159.294 56.5269 159.504 56.1255 159.924C55.7335 160.344 55.5375 160.955 55.5375 161.758V166H54.2635V158.328H55.5375V159.42C55.7895 159.028 56.1302 158.725 56.5595 158.51C56.9982 158.295 57.4789 158.188 58.0015 158.188ZM66.475 162.136C66.475 161.352 66.6337 160.666 66.951 160.078C67.2684 159.481 67.7024 159.019 68.253 158.692C68.813 158.365 69.4337 158.202 70.115 158.202C70.787 158.202 71.3704 158.347 71.865 158.636C72.3597 158.925 72.7284 159.289 72.971 159.728V158.328H74.259V166H72.971V164.572C72.719 165.02 72.341 165.393 71.837 165.692C71.3424 165.981 70.7637 166.126 70.101 166.126C69.4197 166.126 68.8037 165.958 68.253 165.622C67.7024 165.286 67.2684 164.815 66.951 164.208C66.6337 163.601 66.475 162.911 66.475 162.136ZM72.971 162.15C72.971 161.571 72.8544 161.067 72.621 160.638C72.3877 160.209 72.0704 159.882 71.669 159.658C71.277 159.425 70.843 159.308 70.367 159.308C69.891 159.308 69.457 159.42 69.065 159.644C68.673 159.868 68.3604 160.195 68.127 160.624C67.8937 161.053 67.777 161.557 67.777 162.136C67.777 162.724 67.8937 163.237 68.127 163.676C68.3604 164.105 68.673 164.437 69.065 164.67C69.457 164.894 69.891 165.006 70.367 165.006C70.843 165.006 71.277 164.894 71.669 164.67C72.0704 164.437 72.3877 164.105 72.621 163.676C72.8544 163.237 72.971 162.729 72.971 162.15ZM75.936 162.15C75.936 161.357 76.0947 160.666 76.412 160.078C76.7293 159.481 77.168 159.019 77.728 158.692C78.2973 158.365 78.946 158.202 79.674 158.202C80.6167 158.202 81.3913 158.431 81.998 158.888C82.614 159.345 83.02 159.98 83.216 160.792H81.844C81.7133 160.325 81.4567 159.957 81.074 159.686C80.7007 159.415 80.234 159.28 79.674 159.28C78.946 159.28 78.358 159.532 77.91 160.036C77.462 160.531 77.238 161.235 77.238 162.15C77.238 163.074 77.462 163.788 77.91 164.292C78.358 164.796 78.946 165.048 79.674 165.048C80.234 165.048 80.7007 164.917 81.074 164.656C81.4473 164.395 81.704 164.021 81.844 163.536H83.216C83.0107 164.32 82.6 164.95 81.984 165.426C81.368 165.893 80.598 166.126 79.674 166.126C78.946 166.126 78.2973 165.963 77.728 165.636C77.168 165.309 76.7293 164.847 76.412 164.25C76.0947 163.653 75.936 162.953 75.936 162.15ZM84.4399 162.15C84.4399 161.357 84.5986 160.666 84.9159 160.078C85.2332 159.481 85.6719 159.019 86.2319 158.692C86.8012 158.365 87.4499 158.202 88.1779 158.202C89.1206 158.202 89.8952 158.431 90.5019 158.888C91.1179 159.345 91.5239 159.98 91.7199 160.792H90.3479C90.2172 160.325 89.9606 159.957 89.5779 159.686C89.2046 159.415 88.7379 159.28 88.1779 159.28C87.4499 159.28 86.8619 159.532 86.4139 160.036C85.9659 160.531 85.7419 161.235 85.7419 162.15C85.7419 163.074 85.9659 163.788 86.4139 164.292C86.8619 164.796 87.4499 165.048 88.1779 165.048C88.7379 165.048 89.2046 164.917 89.5779 164.656C89.9512 164.395 90.2079 164.021 90.3479 163.536H91.7199C91.5146 164.32 91.1039 164.95 90.4879 165.426C89.8719 165.893 89.1019 166.126 88.1779 166.126C87.4499 166.126 86.8012 165.963 86.2319 165.636C85.6719 165.309 85.2332 164.847 84.9159 164.25C84.5986 163.653 84.4399 162.953 84.4399 162.15ZM100.42 161.87C100.42 162.113 100.406 162.369 100.378 162.64H94.2458C94.2925 163.396 94.5491 163.989 95.0158 164.418C95.4918 164.838 96.0658 165.048 96.7378 165.048C97.2885 165.048 97.7458 164.922 98.1098 164.67C98.4831 164.409 98.7445 164.063 98.8938 163.634H100.266C100.06 164.371 99.6498 164.973 99.0338 165.44C98.4178 165.897 97.6525 166.126 96.7378 166.126C96.0098 166.126 95.3565 165.963 94.7778 165.636C94.2085 165.309 93.7605 164.847 93.4338 164.25C93.1071 163.643 92.9438 162.943 92.9438 162.15C92.9438 161.357 93.1025 160.661 93.4198 160.064C93.7371 159.467 94.1805 159.009 94.7498 158.692C95.3285 158.365 95.9911 158.202 96.7378 158.202C97.4658 158.202 98.1098 158.361 98.6698 158.678C99.2298 158.995 99.6591 159.434 99.9578 159.994C100.266 160.545 100.42 161.17 100.42 161.87ZM99.1038 161.604C99.1038 161.119 98.9965 160.703 98.7818 160.358C98.5671 160.003 98.2731 159.737 97.8998 159.56C97.5358 159.373 97.1298 159.28 96.6818 159.28C96.0378 159.28 95.4871 159.485 95.0298 159.896C94.5818 160.307 94.3251 160.876 94.2598 161.604H99.1038ZM104.817 166.126C104.229 166.126 103.702 166.028 103.235 165.832C102.769 165.627 102.4 165.347 102.129 164.992C101.859 164.628 101.709 164.213 101.681 163.746H102.997C103.035 164.129 103.212 164.441 103.529 164.684C103.856 164.927 104.281 165.048 104.803 165.048C105.289 165.048 105.671 164.941 105.951 164.726C106.231 164.511 106.371 164.241 106.371 163.914C106.371 163.578 106.222 163.331 105.923 163.172C105.625 163.004 105.163 162.841 104.537 162.682C103.968 162.533 103.501 162.383 103.137 162.234C102.783 162.075 102.475 161.847 102.213 161.548C101.961 161.24 101.835 160.839 101.835 160.344C101.835 159.952 101.952 159.593 102.185 159.266C102.419 158.939 102.75 158.683 103.179 158.496C103.609 158.3 104.099 158.202 104.649 158.202C105.499 158.202 106.185 158.417 106.707 158.846C107.23 159.275 107.51 159.863 107.547 160.61H106.273C106.245 160.209 106.082 159.887 105.783 159.644C105.494 159.401 105.102 159.28 104.607 159.28C104.15 159.28 103.786 159.378 103.515 159.574C103.245 159.77 103.109 160.027 103.109 160.344C103.109 160.596 103.189 160.806 103.347 160.974C103.515 161.133 103.721 161.263 103.963 161.366C104.215 161.459 104.561 161.567 104.999 161.688C105.55 161.837 105.998 161.987 106.343 162.136C106.689 162.276 106.983 162.491 107.225 162.78C107.477 163.069 107.608 163.447 107.617 163.914C107.617 164.334 107.501 164.712 107.267 165.048C107.034 165.384 106.703 165.65 106.273 165.846C105.853 166.033 105.368 166.126 104.817 166.126ZM112.132 166.126C111.544 166.126 111.017 166.028 110.55 165.832C110.083 165.627 109.715 165.347 109.444 164.992C109.173 164.628 109.024 164.213 108.996 163.746H110.312C110.349 164.129 110.527 164.441 110.844 164.684C111.171 164.927 111.595 165.048 112.118 165.048C112.603 165.048 112.986 164.941 113.266 164.726C113.546 164.511 113.686 164.241 113.686 163.914C113.686 163.578 113.537 163.331 113.238 163.172C112.939 163.004 112.477 162.841 111.852 162.682C111.283 162.533 110.816 162.383 110.452 162.234C110.097 162.075 109.789 161.847 109.528 161.548C109.276 161.24 109.15 160.839 109.15 160.344C109.15 159.952 109.267 159.593 109.5 159.266C109.733 158.939 110.065 158.683 110.494 158.496C110.923 158.3 111.413 158.202 111.964 158.202C112.813 158.202 113.499 158.417 114.022 158.846C114.545 159.275 114.825 159.863 114.862 160.61H113.588C113.56 160.209 113.397 159.887 113.098 159.644C112.809 159.401 112.417 159.28 111.922 159.28C111.465 159.28 111.101 159.378 110.83 159.574C110.559 159.77 110.424 160.027 110.424 160.344C110.424 160.596 110.503 160.806 110.662 160.974C110.83 161.133 111.035 161.263 111.278 161.366C111.53 161.459 111.875 161.567 112.314 161.688C112.865 161.837 113.313 161.987 113.658 162.136C114.003 162.276 114.297 162.491 114.54 162.78C114.792 163.069 114.923 163.447 114.932 163.914C114.932 164.334 114.815 164.712 114.582 165.048C114.349 165.384 114.017 165.65 113.588 165.846C113.168 166.033 112.683 166.126 112.132 166.126ZM120.076 166.126C119.358 166.126 118.704 165.963 118.116 165.636C117.538 165.309 117.08 164.847 116.744 164.25C116.418 163.643 116.254 162.943 116.254 162.15C116.254 161.366 116.422 160.675 116.758 160.078C117.104 159.471 117.57 159.009 118.158 158.692C118.746 158.365 119.404 158.202 120.132 158.202C120.86 158.202 121.518 158.365 122.106 158.692C122.694 159.009 123.156 159.467 123.492 160.064C123.838 160.661 124.01 161.357 124.01 162.15C124.01 162.943 123.833 163.643 123.478 164.25C123.133 164.847 122.662 165.309 122.064 165.636C121.467 165.963 120.804 166.126 120.076 166.126ZM120.076 165.006C120.534 165.006 120.963 164.899 121.364 164.684C121.766 164.469 122.088 164.147 122.33 163.718C122.582 163.289 122.708 162.766 122.708 162.15C122.708 161.534 122.587 161.011 122.344 160.582C122.102 160.153 121.784 159.835 121.392 159.63C121 159.415 120.576 159.308 120.118 159.308C119.652 159.308 119.222 159.415 118.83 159.63C118.448 159.835 118.14 160.153 117.906 160.582C117.673 161.011 117.556 161.534 117.556 162.15C117.556 162.775 117.668 163.303 117.892 163.732C118.126 164.161 118.434 164.483 118.816 164.698C119.199 164.903 119.619 165.006 120.076 165.006ZM126.959 159.574C127.183 159.135 127.501 158.795 127.911 158.552C128.331 158.309 128.84 158.188 129.437 158.188V159.504H129.101C127.673 159.504 126.959 160.279 126.959 161.828V166H125.685V158.328H126.959V159.574ZM131.566 157.082C131.323 157.082 131.118 156.998 130.95 156.83C130.782 156.662 130.698 156.457 130.698 156.214C130.698 155.971 130.782 155.766 130.95 155.598C131.118 155.43 131.323 155.346 131.566 155.346C131.799 155.346 131.995 155.43 132.154 155.598C132.322 155.766 132.406 155.971 132.406 156.214C132.406 156.457 132.322 156.662 132.154 156.83C131.995 156.998 131.799 157.082 131.566 157.082ZM132.182 158.328V166H130.908V158.328H132.182ZM141.353 161.87C141.353 162.113 141.339 162.369 141.311 162.64H135.179C135.226 163.396 135.483 163.989 135.949 164.418C136.425 164.838 136.999 165.048 137.671 165.048C138.222 165.048 138.679 164.922 139.043 164.67C139.417 164.409 139.678 164.063 139.827 163.634H141.199C140.994 164.371 140.583 164.973 139.967 165.44C139.351 165.897 138.586 166.126 137.671 166.126C136.943 166.126 136.29 165.963 135.711 165.636C135.142 165.309 134.694 164.847 134.367 164.25C134.041 163.643 133.877 162.943 133.877 162.15C133.877 161.357 134.036 160.661 134.353 160.064C134.671 159.467 135.114 159.009 135.683 158.692C136.262 158.365 136.925 158.202 137.671 158.202C138.399 158.202 139.043 158.361 139.603 158.678C140.163 158.995 140.593 159.434 140.891 159.994C141.199 160.545 141.353 161.17 141.353 161.87ZM140.037 161.604C140.037 161.119 139.93 160.703 139.715 160.358C139.501 160.003 139.207 159.737 138.833 159.56C138.469 159.373 138.063 159.28 137.615 159.28C136.971 159.28 136.421 159.485 135.963 159.896C135.515 160.307 135.259 160.876 135.193 161.604H140.037ZM145.751 166.126C145.163 166.126 144.636 166.028 144.169 165.832C143.702 165.627 143.334 165.347 143.063 164.992C142.792 164.628 142.643 164.213 142.615 163.746H143.931C143.968 164.129 144.146 164.441 144.463 164.684C144.79 164.927 145.214 165.048 145.737 165.048C146.222 165.048 146.605 164.941 146.885 164.726C147.165 164.511 147.305 164.241 147.305 163.914C147.305 163.578 147.156 163.331 146.857 163.172C146.558 163.004 146.096 162.841 145.471 162.682C144.902 162.533 144.435 162.383 144.071 162.234C143.716 162.075 143.408 161.847 143.147 161.548C142.895 161.24 142.769 160.839 142.769 160.344C142.769 159.952 142.886 159.593 143.119 159.266C143.352 158.939 143.684 158.683 144.113 158.496C144.542 158.3 145.032 158.202 145.583 158.202C146.432 158.202 147.118 158.417 147.641 158.846C148.164 159.275 148.444 159.863 148.481 160.61H147.207C147.179 160.209 147.016 159.887 146.717 159.644C146.428 159.401 146.036 159.28 145.541 159.28C145.084 159.28 144.72 159.378 144.449 159.574C144.178 159.77 144.043 160.027 144.043 160.344C144.043 160.596 144.122 160.806 144.281 160.974C144.449 161.133 144.654 161.263 144.897 161.366C145.149 161.459 145.494 161.567 145.933 161.688C146.484 161.837 146.932 161.987 147.277 162.136C147.622 162.276 147.916 162.491 148.159 162.78C148.411 163.069 148.542 163.447 148.551 163.914C148.551 164.334 148.434 164.712 148.201 165.048C147.968 165.384 147.636 165.65 147.207 165.846C146.787 166.033 146.302 166.126 145.751 166.126ZM159.402 160.33V161.408H153.816V160.33H159.402ZM12.172 187.098C11.528 187.098 10.9493 186.986 10.436 186.762C9.932 186.529 9.53533 186.211 9.246 185.81C8.95667 185.399 8.80733 184.928 8.798 184.396H10.156C10.2027 184.853 10.3893 185.241 10.716 185.558C11.052 185.866 11.5373 186.02 12.172 186.02C12.7787 186.02 13.2547 185.871 13.6 185.572C13.9547 185.264 14.132 184.872 14.132 184.396C14.132 184.023 14.0293 183.719 13.824 183.486C13.6187 183.253 13.362 183.075 13.054 182.954C12.746 182.833 12.3307 182.702 11.808 182.562C11.164 182.394 10.646 182.226 10.254 182.058C9.87133 181.89 9.54 181.629 9.26 181.274C8.98933 180.91 8.854 180.425 8.854 179.818C8.854 179.286 8.98933 178.815 9.26 178.404C9.53067 177.993 9.90867 177.676 10.394 177.452C10.8887 177.228 11.4533 177.116 12.088 177.116C13.0027 177.116 13.7493 177.345 14.328 177.802C14.916 178.259 15.2473 178.866 15.322 179.622H13.922C13.8753 179.249 13.6793 178.922 13.334 178.642C12.9887 178.353 12.5313 178.208 11.962 178.208C11.43 178.208 10.996 178.348 10.66 178.628C10.324 178.899 10.156 179.281 10.156 179.776C10.156 180.131 10.254 180.42 10.45 180.644C10.6553 180.868 10.9027 181.041 11.192 181.162C11.4907 181.274 11.906 181.405 12.438 181.554C13.082 181.731 13.6 181.909 13.992 182.086C14.384 182.254 14.72 182.52 15 182.884C15.28 183.239 15.42 183.724 15.42 184.34C15.42 184.816 15.294 185.264 15.042 185.684C14.79 186.104 14.4167 186.445 13.922 186.706C13.4273 186.967 12.844 187.098 12.172 187.098ZM21.1028 179.188C21.6815 179.188 22.2041 179.314 22.6708 179.566C23.1375 179.809 23.5015 180.177 23.7628 180.672C24.0335 181.167 24.1688 181.769 24.1688 182.478V187H22.9088V182.66C22.9088 181.895 22.7175 181.311 22.3348 180.91C21.9521 180.499 21.4295 180.294 20.7668 180.294C20.0948 180.294 19.5581 180.504 19.1568 180.924C18.7648 181.344 18.5688 181.955 18.5688 182.758V187H17.2948V176.64H18.5688V180.42C18.8208 180.028 19.1661 179.725 19.6048 179.51C20.0528 179.295 20.5521 179.188 21.1028 179.188ZM29.5959 187.126C28.8772 187.126 28.2239 186.963 27.6359 186.636C27.0572 186.309 26.5999 185.847 26.2639 185.25C25.9372 184.643 25.7739 183.943 25.7739 183.15C25.7739 182.366 25.9419 181.675 26.2779 181.078C26.6232 180.471 27.0899 180.009 27.6779 179.692C28.2659 179.365 28.9239 179.202 29.6519 179.202C30.3799 179.202 31.0379 179.365 31.6259 179.692C32.2139 180.009 32.6759 180.467 33.0119 181.064C33.3572 181.661 33.5299 182.357 33.5299 183.15C33.5299 183.943 33.3525 184.643 32.9979 185.25C32.6525 185.847 32.1812 186.309 31.5839 186.636C30.9865 186.963 30.3239 187.126 29.5959 187.126ZM29.5959 186.006C30.0532 186.006 30.4825 185.899 30.8839 185.684C31.2852 185.469 31.6072 185.147 31.8499 184.718C32.1019 184.289 32.2279 183.766 32.2279 183.15C32.2279 182.534 32.1065 182.011 31.8639 181.582C31.6212 181.153 31.3039 180.835 30.9119 180.63C30.5199 180.415 30.0952 180.308 29.6379 180.308C29.1712 180.308 28.7419 180.415 28.3499 180.63C27.9672 180.835 27.6592 181.153 27.4259 181.582C27.1925 182.011 27.0759 182.534 27.0759 183.15C27.0759 183.775 27.1879 184.303 27.4119 184.732C27.6452 185.161 27.9532 185.483 28.3359 185.698C28.7185 185.903 29.1385 186.006 29.5959 186.006ZM42.205 182.87C42.205 183.113 42.191 183.369 42.163 183.64H36.031C36.0776 184.396 36.3343 184.989 36.801 185.418C37.277 185.838 37.851 186.048 38.523 186.048C39.0736 186.048 39.531 185.922 39.895 185.67C40.2683 185.409 40.5296 185.063 40.679 184.634H42.051C41.8456 185.371 41.435 185.973 40.819 186.44C40.203 186.897 39.4376 187.126 38.523 187.126C37.795 187.126 37.1416 186.963 36.563 186.636C35.9936 186.309 35.5456 185.847 35.219 185.25C34.8923 184.643 34.729 183.943 34.729 183.15C34.729 182.357 34.8876 181.661 35.205 181.064C35.5223 180.467 35.9656 180.009 36.535 179.692C37.1136 179.365 37.7763 179.202 38.523 179.202C39.251 179.202 39.895 179.361 40.455 179.678C41.015 179.995 41.4443 180.434 41.743 180.994C42.051 181.545 42.205 182.17 42.205 182.87ZM40.889 182.604C40.889 182.119 40.7816 181.703 40.567 181.358C40.3523 181.003 40.0583 180.737 39.685 180.56C39.321 180.373 38.915 180.28 38.467 180.28C37.823 180.28 37.2723 180.485 36.815 180.896C36.367 181.307 36.1103 181.876 36.045 182.604H40.889ZM46.6026 187.126C46.0146 187.126 45.4873 187.028 45.0206 186.832C44.5539 186.627 44.1853 186.347 43.9146 185.992C43.6439 185.628 43.4946 185.213 43.4666 184.746H44.7826C44.8199 185.129 44.9973 185.441 45.3146 185.684C45.6413 185.927 46.0659 186.048 46.5886 186.048C47.0739 186.048 47.4566 185.941 47.7366 185.726C48.0166 185.511 48.1566 185.241 48.1566 184.914C48.1566 184.578 48.0073 184.331 47.7086 184.172C47.4099 184.004 46.9479 183.841 46.3226 183.682C45.7533 183.533 45.2866 183.383 44.9226 183.234C44.5679 183.075 44.2599 182.847 43.9986 182.548C43.7466 182.24 43.6206 181.839 43.6206 181.344C43.6206 180.952 43.7373 180.593 43.9706 180.266C44.2039 179.939 44.5353 179.683 44.9646 179.496C45.3939 179.3 45.8839 179.202 46.4346 179.202C47.2839 179.202 47.9699 179.417 48.4926 179.846C49.0153 180.275 49.2953 180.863 49.3326 181.61H48.0586C48.0306 181.209 47.8673 180.887 47.5686 180.644C47.2793 180.401 46.8873 180.28 46.3926 180.28C45.9353 180.28 45.5713 180.378 45.3006 180.574C45.0299 180.77 44.8946 181.027 44.8946 181.344C44.8946 181.596 44.9739 181.806 45.1326 181.974C45.3006 182.133 45.5059 182.263 45.7486 182.366C46.0006 182.459 46.3459 182.567 46.7846 182.688C47.3353 182.837 47.7833 182.987 48.1286 183.136C48.4739 183.276 48.7679 183.491 49.0106 183.78C49.2626 184.069 49.3933 184.447 49.4026 184.914C49.4026 185.334 49.2859 185.712 49.0526 186.048C48.8193 186.384 48.4879 186.65 48.0586 186.846C47.6386 187.033 47.1533 187.126 46.6026 187.126ZM52.517 185.236L50.949 189.002H50.095L51.117 185.236H52.517ZM62.5949 181.974C62.9495 182.03 63.2715 182.175 63.5609 182.408C63.8595 182.641 64.0929 182.931 64.2609 183.276C64.4382 183.621 64.5269 183.99 64.5269 184.382C64.5269 184.877 64.4009 185.325 64.1489 185.726C63.8969 186.118 63.5282 186.431 63.0429 186.664C62.5669 186.888 62.0022 187 61.3489 187H57.7089V177.242H61.2089C61.8715 177.242 62.4362 177.354 62.9029 177.578C63.3695 177.793 63.7195 178.087 63.9529 178.46C64.1862 178.833 64.3029 179.253 64.3029 179.72C64.3029 180.299 64.1442 180.779 63.8269 181.162C63.5189 181.535 63.1082 181.806 62.5949 181.974ZM58.9829 181.456H61.1249C61.7222 181.456 62.1842 181.316 62.5109 181.036C62.8375 180.756 63.0009 180.369 63.0009 179.874C63.0009 179.379 62.8375 178.992 62.5109 178.712C62.1842 178.432 61.7129 178.292 61.0969 178.292H58.9829V181.456ZM61.2369 185.95C61.8715 185.95 62.3662 185.801 62.7209 185.502C63.0755 185.203 63.2529 184.788 63.2529 184.256C63.2529 183.715 63.0662 183.29 62.6929 182.982C62.3195 182.665 61.8202 182.506 61.1949 182.506H58.9829V185.95H61.2369ZM65.8188 183.136C65.8188 182.352 65.9775 181.666 66.2948 181.078C66.6121 180.481 67.0461 180.019 67.5968 179.692C68.1568 179.365 68.7775 179.202 69.4588 179.202C70.1308 179.202 70.7141 179.347 71.2088 179.636C71.7035 179.925 72.0721 180.289 72.3148 180.728V179.328H73.6028V187H72.3148V185.572C72.0628 186.02 71.6848 186.393 71.1808 186.692C70.6861 186.981 70.1075 187.126 69.4448 187.126C68.7635 187.126 68.1475 186.958 67.5968 186.622C67.0461 186.286 66.6121 185.815 66.2948 185.208C65.9775 184.601 65.8188 183.911 65.8188 183.136ZM72.3148 183.15C72.3148 182.571 72.1981 182.067 71.9648 181.638C71.7315 181.209 71.4141 180.882 71.0128 180.658C70.6208 180.425 70.1868 180.308 69.7108 180.308C69.2348 180.308 68.8008 180.42 68.4088 180.644C68.0168 180.868 67.7041 181.195 67.4708 181.624C67.2375 182.053 67.1208 182.557 67.1208 183.136C67.1208 183.724 67.2375 184.237 67.4708 184.676C67.7041 185.105 68.0168 185.437 68.4088 185.67C68.8008 185.894 69.2348 186.006 69.7108 186.006C70.1868 186.006 70.6208 185.894 71.0128 185.67C71.4141 185.437 71.7315 185.105 71.9648 184.676C72.1981 184.237 72.3148 183.729 72.3148 183.15ZM78.9197 179.202C79.5824 179.202 80.1611 179.347 80.6557 179.636C81.1597 179.925 81.5331 180.289 81.7757 180.728V179.328H83.0637V187.168C83.0637 187.868 82.9144 188.489 82.6157 189.03C82.3171 189.581 81.8877 190.01 81.3277 190.318C80.7771 190.626 80.1331 190.78 79.3957 190.78C78.3877 190.78 77.5477 190.542 76.8757 190.066C76.2037 189.59 75.8071 188.941 75.6857 188.12H76.9457C77.0857 188.587 77.3751 188.96 77.8137 189.24C78.2524 189.529 78.7797 189.674 79.3957 189.674C80.0957 189.674 80.6651 189.455 81.1037 189.016C81.5517 188.577 81.7757 187.961 81.7757 187.168V185.558C81.5237 186.006 81.1504 186.379 80.6557 186.678C80.1611 186.977 79.5824 187.126 78.9197 187.126C78.2384 187.126 77.6177 186.958 77.0577 186.622C76.5071 186.286 76.0731 185.815 75.7557 185.208C75.4384 184.601 75.2797 183.911 75.2797 183.136C75.2797 182.352 75.4384 181.666 75.7557 181.078C76.0731 180.481 76.5071 180.019 77.0577 179.692C77.6177 179.365 78.2384 179.202 78.9197 179.202ZM81.7757 183.15C81.7757 182.571 81.6591 182.067 81.4257 181.638C81.1924 181.209 80.8751 180.882 80.4737 180.658C80.0817 180.425 79.6477 180.308 79.1717 180.308C78.6957 180.308 78.2617 180.42 77.8697 180.644C77.4777 180.868 77.1651 181.195 76.9317 181.624C76.6984 182.053 76.5817 182.557 76.5817 183.136C76.5817 183.724 76.6984 184.237 76.9317 184.676C77.1651 185.105 77.4777 185.437 77.8697 185.67C78.2617 185.894 78.6957 186.006 79.1717 186.006C79.6477 186.006 80.0817 185.894 80.4737 185.67C80.8751 185.437 81.1924 185.105 81.4257 184.676C81.6591 184.237 81.7757 183.729 81.7757 183.15Z" fill="white"/>
</svg>
