<svg width="167" height="203" viewBox="0 0 167 203" fill="none" xmlns="http://www.w3.org/2000/svg">
<rect x="0.553846" y="0.553846" width="165.046" height="201.6" rx="17.1692" fill="#FFF3F0" stroke="#FE4E27" stroke-width="1.10769"/>
<path d="M37.6477 29.9506C37.6477 29.9506 27.4434 34.1654 25.0476 35.8957C22.1283 38.0075 18.579 40.6961 16.6979 44.2898C14.8966 47.7238 14.1779 50.3503 14.0448 54.7514C13.9117 59.1526 18.6145 95.7016 18.6145 95.7016C18.6145 95.7016 44.0986 119.713 48.1182 121.532C52.1378 123.351 58.0651 125.578 65.1815 125.445C72.2979 125.312 76.9741 123.12 79.6982 121.825C82.4134 120.529 114.659 72.7908 114.925 68.9043C115.191 65.0178 115.449 57.6086 115.289 54.4763C115.12 51.2642 114.464 48.6998 112.778 45.4611C111.092 42.2223 108.323 39.0634 106.646 37.6348C104.96 36.2151 83.7977 26.7118 77.3911 25.2744C58.8815 21.1483 37.6477 29.9506 37.6477 29.9506Z" fill="#CECECE"/>
<path d="M21.9861 41.0866C22.1104 45.4256 25.6064 47.431 32.7317 51.0513C39.8569 54.6716 57.9762 65.2929 65.483 65.5502C72.9898 65.8075 100.816 48.8951 104.836 46.2952C108.811 43.7219 109.477 39.6136 105.741 36.8097C100.559 32.932 77.3909 22.1865 72.4751 20.3763C69.964 19.4535 63.5664 18.016 58.4908 19.9859C54.4801 21.5387 29.0404 33.3136 26.5825 34.8664C24.1246 36.4192 21.924 38.6642 21.9861 41.0866Z" fill="#EAEAEA"/>
<path d="M38.7568 32.231C37.1773 30.4475 26.0591 36.2684 26.0591 41.2285C26.0591 46.0379 36.148 52.1604 38.6769 49.8889C40.4959 48.2562 34.0539 43.1629 34.8969 40.217C35.731 37.2711 40.1055 33.7395 38.7568 32.231ZM49.7596 57.9281C48.0116 60.4569 59.1831 65.8963 65.9977 65.8963C72.4131 65.8963 82.8925 59.6317 81.5437 57.8127C79.3609 54.8668 74.0635 57.6352 65.8203 57.8127C61.2771 57.9103 51.5786 55.2927 49.7596 57.9281ZM90.2839 49.9066C92.4668 51.3352 104.916 45.0263 105.164 41.2463C105.413 37.4663 97.4269 32.9231 95.1553 34.5203C92.8838 36.1175 95.8297 37.2977 95.0755 40.0661C94.3213 42.8346 87.6663 48.1941 90.2839 49.9066Z" fill="white"/>
<path d="M14.0359 55.275C13.9028 59.8625 14.1779 87.8666 14.24 91.6643C14.3021 95.8525 15.3314 100.511 18.1176 102.898C20.9038 105.285 43.4686 119.597 48.5441 121.789C55.6516 124.859 62.5639 121.487 63.0608 113.839C63.5577 106.181 63.256 82.8177 63.256 79.641C63.256 76.4644 61.6588 71.7793 58.1805 69.3924C54.7022 67.0055 27.195 51.2288 24.3733 49.605C20.3981 47.3245 14.24 48.4159 14.0359 55.275Z" fill="#DFDFDF"/>
<path d="M71.0025 69.6939C68.0211 72.0542 66.8232 75.4615 66.8232 79.1351C66.8232 82.8086 66.628 111.15 66.7256 114.034C66.8232 116.917 70.9049 124.575 77.267 122.685C83.8421 120.733 92.183 114.832 98.1459 111.247C104.109 107.672 108.758 104.637 110.835 102.933C113.497 100.759 115.298 95.4974 115.396 91.0252C115.493 86.6507 115.369 59.2678 115.289 57.1204C115.094 52.0804 113.053 47.9188 107.587 49.1079C102.121 50.2969 75.2794 66.3132 71.0025 69.6939Z" fill="#B8B8B8"/>
<path d="M65.3326 50.0486C72.1003 50.0486 77.5866 46.1037 77.5866 41.2374C77.5866 36.3712 72.1003 32.4263 65.3326 32.4263C58.5649 32.4263 53.0786 36.3712 53.0786 41.2374C53.0786 46.1037 58.5649 50.0486 65.3326 50.0486Z" fill="#FE4E27"/>
<path d="M31.7914 64.5561C33.3886 69.0105 32.9094 73.6246 29.4932 74.8491C26.077 76.0737 21.9864 73.0301 20.4159 68.6733C18.8098 64.2189 19.2091 59.596 22.714 58.3803C26.148 57.2002 30.1942 60.1017 31.7914 64.5561ZM54.2674 103.643C56.1663 107.973 56.0598 113.102 52.7412 114.557C49.4226 116.012 44.9239 112.987 43.0516 108.745C41.1439 104.415 41.4278 99.6677 44.7464 98.2125C48.0739 96.7573 52.3686 99.3128 54.2674 103.643ZM98.7581 74.6806C101.66 76.331 106.327 74.2813 108.732 70.0753C111.136 65.8605 110.728 61.1133 107.835 59.454C104.934 57.8036 100.346 59.8444 97.9417 64.0592C95.5371 68.2652 95.8565 73.0301 98.7581 74.6806ZM87.2938 93.9711C90.2397 95.6925 95.0313 93.6428 97.5336 89.357C100.036 85.08 99.6809 80.2086 96.735 78.4872C93.789 76.7658 88.8999 78.6735 86.3976 82.9505C83.8953 87.2451 84.3568 92.2497 87.2938 93.9711ZM75.9094 113.688C78.7577 115.427 83.4872 113.51 86.0161 109.375C88.5449 105.24 88.2787 100.475 85.4304 98.736C82.5821 96.9969 78.1721 98.2214 75.2616 102.827C72.6706 106.917 73.0611 111.948 75.9094 113.688Z" fill="#2F2F2F"/>
<path d="M107.18 108.872C107.308 109.344 107.527 109.785 107.825 110.172C108.124 110.559 108.496 110.883 108.919 111.126C109.343 111.368 109.811 111.525 110.295 111.587C110.78 111.649 111.271 111.615 111.743 111.487L124.237 108.1C124.708 107.973 125.15 107.754 125.536 107.456C125.923 107.159 126.247 106.787 126.49 106.364C126.733 105.941 126.89 105.474 126.952 104.99C127.015 104.506 126.981 104.015 126.854 103.544L124.586 95.1594C124.328 94.207 123.702 93.3962 122.846 92.9052C121.99 92.4142 120.974 92.2833 120.022 92.5413L107.527 95.9283C106.576 96.1869 105.766 96.8127 105.275 97.6683C104.784 98.5238 104.653 99.5391 104.911 100.491L107.18 108.872ZM82.0379 109.101C81.7782 110.051 81.1525 110.86 80.2978 111.349C79.4432 111.839 78.4293 111.969 77.4785 111.713L64.9856 108.326C64.5142 108.199 64.0725 107.98 63.6856 107.683C63.2987 107.385 62.9743 107.014 62.731 106.591C62.4877 106.168 62.3302 105.701 62.2675 105.217C62.2049 104.732 62.2383 104.241 62.3659 103.769L64.6349 95.3866C64.8938 94.4348 65.52 93.6248 66.3759 93.1345C67.2318 92.6442 68.2473 92.5137 69.1993 92.7718L81.6905 96.1589C82.6421 96.4168 83.4524 97.0418 83.9436 97.8966C84.4348 98.7515 84.5666 99.7663 84.3103 100.718L82.0379 109.101Z" fill="#F96ACF"/>
<path d="M91.9671 99.3747C92.8744 101.831 93.9908 105.088 94.6017 108.49C95.2505 112.159 93.8822 114.178 91.3085 116.434C90.5544 117.087 90.2975 118.054 90.6301 118.961C90.9808 119.888 91.8881 120.537 92.8398 120.537C93.3882 120.537 93.9134 120.333 94.3597 119.941C96.5546 118.029 98.1946 116.244 99.0607 113.735C100.092 110.769 99.2501 107.308 98.6277 104.781C97.9328 101.962 96.9218 99.2035 95.9371 96.531L95.6638 95.7983C94.1983 91.8168 93.8492 88.8183 96.357 85.26C96.8658 84.5273 96.9399 83.676 96.553 82.9202C95.7988 81.4695 93.5051 81.2159 92.5138 82.6254C91.0813 84.654 89.6257 87.2046 89.6833 90.7053C89.736 93.4272 90.696 95.9745 91.6246 98.4411L91.9754 99.3714" fill="#BA3A82"/>
<path d="M92.4627 119.047C92.1251 118.145 92.3853 117.176 93.1361 116.521C95.7147 114.268 97.0847 112.246 96.4294 108.581C95.8251 105.179 94.7054 101.929 93.7997 99.4654L93.449 98.5318C92.5269 96.0668 91.562 93.5195 91.5126 90.7977C91.45 87.2904 92.9056 84.7447 94.3415 82.7177C94.5687 82.3868 94.8717 82.1546 95.2026 81.9982C94.218 81.5668 92.9468 81.7561 92.2733 82.7177C90.8391 84.7431 89.3901 87.2904 89.4428 90.7977C89.4988 93.5195 90.4505 96.0668 91.3842 98.5318L91.7283 99.4654C92.6422 101.922 93.7602 105.179 94.3662 108.581C95.0149 112.246 93.6466 114.268 91.0729 116.521C90.3155 117.176 90.0586 118.145 90.3995 119.047C90.742 119.977 91.6493 120.628 92.5994 120.628C92.955 120.628 93.3025 120.527 93.6301 120.358C93.0911 120.081 92.6759 119.614 92.4627 119.047Z" fill="#F96ACF"/>
<path d="M51.6808 108.937C65.486 86.2465 86.2925 102.031 86.2925 102.031C87.6411 103.049 90.1291 103.888 91.8136 103.895L97.3923 103.898C99.0834 103.898 101.573 103.062 102.918 102.038C102.918 102.038 123.723 86.2564 137.53 108.94C151.347 131.622 145.78 156.323 145.78 156.323C144.8 162.373 141.589 166.408 135.525 165.896C129.478 165.391 116.356 149.615 116.356 149.615C115.276 148.312 113.005 147.248 111.311 147.248L77.908 147.24C76.2235 147.24 73.9545 148.304 72.871 149.6C72.871 149.6 59.7393 165.391 53.6929 165.895C47.6301 166.402 44.4143 162.358 43.4477 156.315C43.4477 156.318 37.874 131.617 51.6808 108.937Z" fill="#BA3A82"/>
<path d="M59.0842 156.226C59.0842 156.226 53.5104 131.527 67.3156 108.846C70.7702 103.172 74.6611 99.9018 78.557 98.191C71.2428 95.6404 60.0491 94.9818 51.5263 108.985C37.726 131.673 43.2932 156.367 43.2932 156.367C44.2631 162.417 47.4838 166.455 53.5384 165.942C55.4946 165.786 58.1901 164.018 60.9432 161.714C60.0343 160.199 59.4201 158.338 59.0842 156.226ZM107.453 103.796H113.029C114.715 103.803 117.203 102.963 118.55 101.944C118.55 101.944 121.433 99.7586 125.764 98.1811C114.221 93.401 102.764 102.087 102.764 102.087C102.667 102.159 102.567 102.23 102.462 102.298C103.867 103.149 105.966 103.794 107.452 103.794M131.985 149.524C130.909 148.222 128.639 147.156 126.948 147.156L93.5445 147.153C93.1494 147.16 92.7563 147.21 92.3721 147.303H111.16C112.848 147.303 115.123 148.367 116.2 149.669C116.2 149.669 129.325 165.452 135.372 165.957C139.407 166.295 142.177 164.617 143.868 161.671C138.075 156.842 131.985 149.524 131.985 149.524Z" fill="#F96ACF"/>
<path d="M80.9616 120.443C80.9228 119.944 80.9069 119.443 80.9138 118.942C80.9111 118.86 80.9311 118.779 80.9714 118.708C80.7884 118.349 80.5574 118.017 80.2848 117.72C80.2274 117.661 80.1854 117.589 80.1627 117.511C80.14 117.432 80.1373 117.349 80.1547 117.269H73.2258V110.299H65.7403V117.269H59.7285V124.869H65.7403V130.509H73.2258V124.869H80.5532C80.596 123.488 80.9319 122.106 81.0982 120.73C81.019 120.654 80.9703 120.552 80.9616 120.443Z" fill="#FF2A00"/>
<path d="M73.2581 110.111C73.2581 109.035 72.3887 108.163 71.3168 108.163H67.6926C66.6206 108.163 65.7446 109.035 65.7446 110.111C65.7446 111.182 66.619 112.055 67.6926 112.055H71.3168C71.5719 112.055 71.8245 112.004 72.0602 111.907C72.2958 111.809 72.5099 111.666 72.6902 111.485C72.8705 111.304 73.0134 111.09 73.1108 110.854C73.2083 110.618 73.2583 110.366 73.2581 110.111Z" fill="#FF2A00"/>
<path d="M59.7285 124.759V117.275H65.6827V111.899H73.2834V117.275H80.2568V124.759H73.2834V130.515H65.6827V124.759H59.7285Z" fill="#A2ABAF"/>
<path d="M80.4461 124.775C81.5197 124.775 82.3908 123.904 82.3908 122.829V119.208C82.3701 118.706 82.1562 118.232 81.7938 117.884C81.4313 117.536 80.9484 117.342 80.4461 117.342C79.9438 117.342 79.4609 117.536 79.0985 117.884C78.736 118.232 78.5221 118.706 78.5015 119.208V122.829C78.501 123.085 78.551 123.338 78.6486 123.574C78.7461 123.81 78.8893 124.025 79.07 124.206C79.2506 124.386 79.4652 124.53 79.7013 124.627C79.9374 124.725 80.1905 124.775 80.4461 124.775Z" fill="#FF2A00"/>
<path d="M58.0011 121.696C58.0521 122.198 58.0521 122.694 58.0521 123.196C58.0545 123.277 58.034 123.357 57.9928 123.427C58.1696 123.774 58.3968 124.105 58.6745 124.418C58.8046 124.559 58.8458 124.722 58.8079 124.866H65.7352V131.837H73.2256V124.866H79.2341V117.267H73.2256V111.632H65.7352V117.267H58.4078C58.3699 118.65 58.0323 120.03 57.8677 121.404C57.9456 121.483 57.9929 121.586 58.0011 121.696Z" fill="#A2ABAF"/>
<path d="M65.7051 132.025C65.7051 133.101 66.5811 133.975 67.6613 133.975H71.2772C72.3508 133.975 73.2251 133.101 73.2251 132.025C73.2251 130.957 72.3508 130.079 71.2772 130.079H67.6613C66.5811 130.079 65.7051 130.957 65.7051 132.025Z" fill="#FF2A00"/>
<path d="M79.2339 117.38V124.864H73.2797V130.243H65.6757V124.864H58.7056V117.38H65.6757V111.632H73.2797V117.38H79.2339Z" fill="#FF2A00"/>
<path d="M58.5182 117.357C58.2629 117.357 58.0101 117.407 57.7743 117.505C57.5384 117.603 57.3242 117.746 57.1437 117.927C56.9633 118.107 56.8202 118.322 56.7226 118.558C56.6251 118.794 56.575 119.047 56.5752 119.302V122.921C56.5752 123.437 56.7801 123.931 57.1448 124.296C57.5095 124.661 58.0041 124.866 58.5198 124.866C59.0356 124.866 59.5302 124.661 59.8949 124.296C60.2596 123.931 60.4645 123.437 60.4645 122.921V119.302C60.4647 119.046 60.4145 118.793 60.3167 118.557C60.219 118.321 60.0756 118.106 59.8948 117.926C59.714 117.745 59.4994 117.602 59.2631 117.504C59.0269 117.407 58.7738 117.357 58.5182 117.357Z" fill="#FF2A00"/>
<path d="M80.0414 119.77C79.9994 119.271 79.9801 118.77 79.9838 118.269C79.9838 118.179 80.0101 118.103 80.0414 118.039C79.8593 117.68 79.6295 117.348 79.358 117.051C79.3021 116.992 79.2611 116.92 79.2384 116.842C79.2158 116.764 79.2122 116.681 79.228 116.601H72.3073V109.631H64.8218V116.601H58.8018V124.205H64.8218V129.837H72.3073V124.205H79.6281C79.6709 122.817 80.0101 121.436 80.1731 120.061C80.0946 119.984 80.0476 119.88 80.0414 119.77Z" fill="#E04122"/>
<path d="M72.3245 109.444C72.3245 108.372 71.4518 107.499 70.3798 107.499H66.7573C66.5021 107.499 66.2495 107.55 66.0138 107.648C65.7782 107.746 65.5641 107.889 65.3838 108.07C65.2036 108.25 65.0606 108.464 64.9632 108.7C64.8657 108.936 64.8157 109.189 64.8159 109.444C64.8155 109.699 64.8654 109.952 64.9627 110.188C65.0601 110.424 65.203 110.639 65.3833 110.819C65.5636 111 65.7777 111.144 66.0135 111.242C66.2492 111.339 66.502 111.39 66.7573 111.39H70.3798C71.4518 111.39 72.3245 110.519 72.3245 109.444Z" fill="#E04122"/>
<path d="M58.7954 124.094V116.607H64.7545V111.234H72.3536V116.607H79.327V124.094H72.3536V129.842H64.7545V124.094H58.7954Z" fill="#E04122"/>
<path d="M79.5115 124.118C80.595 124.118 81.4628 123.244 81.4628 122.169V118.55C81.463 118.294 81.4126 118.04 81.3146 117.804C81.2165 117.567 81.0727 117.352 80.8914 117.172C80.71 116.991 80.4948 116.848 80.258 116.751C80.0212 116.653 79.7675 116.604 79.5115 116.605C78.4429 116.605 77.5669 117.473 77.5669 118.55V122.169C77.5669 123.244 78.4429 124.118 79.5115 124.118Z" fill="#E04122"/>
<path d="M57.0751 121.031C57.1179 121.53 57.1212 122.034 57.1212 122.529C57.1195 122.611 57.1028 122.691 57.0718 122.767C57.243 123.113 57.4675 123.442 57.7453 123.753C57.877 123.895 57.9149 124.058 57.8786 124.204H64.8059V131.171H72.2914V124.204H78.3032V116.603H72.2914V110.965H64.8059V116.603H57.4867C57.4456 117.986 57.0998 119.368 56.9434 120.741C57.018 120.821 57.0644 120.923 57.0751 121.031Z" fill="#E04122"/>
<path d="M64.7847 131.362C64.7834 131.618 64.8327 131.872 64.9299 132.109C65.0271 132.346 65.1701 132.561 65.3509 132.743C65.5316 132.924 65.7464 133.068 65.983 133.166C66.2196 133.265 66.4732 133.315 66.7293 133.315H70.3486C70.8548 133.3 71.3353 133.089 71.6881 132.725C72.0409 132.362 72.2383 131.876 72.2383 131.369C72.2383 130.863 72.0409 130.376 71.6881 130.013C71.3353 129.65 70.8548 129.439 70.3486 129.424H66.7293C65.6525 129.424 64.7847 130.292 64.7847 131.362Z" fill="#E04122"/>
<path d="M78.2959 116.707V124.194H72.3467V129.567H64.7427V124.194H57.7759V116.707H64.7427V110.956H72.3467V116.707H78.2959Z" fill="#E04122"/>
<path d="M57.5887 116.69C56.5168 116.69 55.6392 117.561 55.6392 118.642V122.258C55.6539 122.764 55.8655 123.245 56.229 123.598C56.5926 123.951 57.0795 124.149 57.5863 124.149C58.0931 124.149 58.58 123.951 58.9435 123.598C59.3071 123.245 59.5187 122.764 59.5334 122.258V118.642C59.5334 117.563 58.664 116.69 57.5887 116.69Z" fill="#E04122"/>
<path d="M131.712 111.586C131.712 112.782 131.237 113.929 130.392 114.775C129.546 115.62 128.399 116.095 127.203 116.095C126.007 116.095 124.86 115.62 124.015 114.775C123.169 113.929 122.694 112.782 122.694 111.586C122.694 110.39 123.169 109.242 124.015 108.396C124.861 107.55 126.009 107.074 127.206 107.074C127.798 107.074 128.384 107.191 128.931 107.418C129.478 107.645 129.976 107.977 130.394 108.396C130.813 108.815 131.144 109.313 131.371 109.86C131.597 110.407 131.713 110.994 131.712 111.586Z" fill="#FAAA33"/>
<path d="M114.917 119.59C117.41 119.59 119.431 117.57 119.431 115.077C119.431 112.584 117.41 110.564 114.917 110.564C112.425 110.564 110.404 112.584 110.404 115.077C110.404 117.57 112.425 119.59 114.917 119.59Z" fill="#FAAA33"/>
<path d="M136.224 123.488C136.222 124.685 135.745 125.833 134.898 126.679C134.05 127.525 132.902 128 131.704 128C130.523 127.977 129.397 127.492 128.57 126.648C127.742 125.805 127.279 124.67 127.279 123.489C127.279 122.307 127.742 121.173 128.57 120.329C129.397 119.486 130.523 119 131.704 118.978C132.297 118.977 132.885 119.093 133.433 119.319C133.981 119.545 134.479 119.877 134.899 120.296C135.319 120.715 135.652 121.212 135.879 121.76C136.107 122.308 136.224 122.895 136.224 123.488ZM123.934 126.972C123.902 128.147 123.413 129.263 122.571 130.083C121.728 130.903 120.599 131.362 119.424 131.362C118.248 131.362 117.119 130.903 116.277 130.083C115.434 129.263 114.945 128.147 114.914 126.972C114.912 126.379 115.028 125.792 115.254 125.243C115.481 124.695 115.813 124.197 116.232 123.777C116.65 123.357 117.148 123.024 117.696 122.797C118.243 122.569 118.831 122.452 119.424 122.452C120.017 122.452 120.604 122.569 121.152 122.797C121.699 123.024 122.197 123.357 122.616 123.777C123.035 124.197 123.367 124.695 123.593 125.243C123.819 125.792 123.935 126.379 123.934 126.972Z" fill="#FAAA33"/>
<rect y="143" width="166.154" height="59.8154" rx="17.7231" fill="#FE4E27"/>
<rect y="144.108" width="166.154" height="25.4769" fill="#FE4E27"/>
<path d="M16.37 164L12.352 159.548V164H11.078V154.242H12.352V158.764L16.384 154.242H17.994L13.57 159.128L18.036 164H16.37ZM20.1169 155.082C19.8742 155.082 19.6689 154.998 19.5009 154.83C19.3329 154.662 19.2489 154.457 19.2489 154.214C19.2489 153.971 19.3329 153.766 19.5009 153.598C19.6689 153.43 19.8742 153.346 20.1169 153.346C20.3502 153.346 20.5462 153.43 20.7049 153.598C20.8729 153.766 20.9569 153.971 20.9569 154.214C20.9569 154.457 20.8729 154.662 20.7049 154.83C20.5462 154.998 20.3502 155.082 20.1169 155.082ZM20.7329 156.328V164H19.4589V156.328H20.7329ZM22.4282 160.136C22.4282 159.352 22.5868 158.666 22.9042 158.078C23.2215 157.481 23.6555 157.019 24.2062 156.692C24.7662 156.365 25.3915 156.202 26.0822 156.202C26.6795 156.202 27.2348 156.342 27.7482 156.622C28.2615 156.893 28.6535 157.252 28.9242 157.7V153.64H30.2122V164H28.9242V162.558C28.6722 163.015 28.2988 163.393 27.8042 163.692C27.3095 163.981 26.7308 164.126 26.0682 164.126C25.3868 164.126 24.7662 163.958 24.2062 163.622C23.6555 163.286 23.2215 162.815 22.9042 162.208C22.5868 161.601 22.4282 160.911 22.4282 160.136ZM28.9242 160.15C28.9242 159.571 28.8075 159.067 28.5742 158.638C28.3408 158.209 28.0235 157.882 27.6222 157.658C27.2302 157.425 26.7962 157.308 26.3202 157.308C25.8442 157.308 25.4102 157.42 25.0182 157.644C24.6262 157.868 24.3135 158.195 24.0802 158.624C23.8468 159.053 23.7302 159.557 23.7302 160.136C23.7302 160.724 23.8468 161.237 24.0802 161.676C24.3135 162.105 24.6262 162.437 25.0182 162.67C25.4102 162.894 25.8442 163.006 26.3202 163.006C26.7962 163.006 27.2302 162.894 27.6222 162.67C28.0235 162.437 28.3408 162.105 28.5742 161.676C28.8075 161.237 28.9242 160.729 28.9242 160.15ZM35.0811 164.126C34.4931 164.126 33.9658 164.028 33.4991 163.832C33.0324 163.627 32.6638 163.347 32.3931 162.992C32.1224 162.628 31.9731 162.213 31.9451 161.746H33.2611C33.2984 162.129 33.4758 162.441 33.7931 162.684C34.1198 162.927 34.5444 163.048 35.0671 163.048C35.5524 163.048 35.9351 162.941 36.2151 162.726C36.4951 162.511 36.6351 162.241 36.6351 161.914C36.6351 161.578 36.4858 161.331 36.1871 161.172C35.8884 161.004 35.4264 160.841 34.8011 160.682C34.2318 160.533 33.7651 160.383 33.4011 160.234C33.0464 160.075 32.7384 159.847 32.4771 159.548C32.2251 159.24 32.0991 158.839 32.0991 158.344C32.0991 157.952 32.2158 157.593 32.4491 157.266C32.6824 156.939 33.0138 156.683 33.4431 156.496C33.8724 156.3 34.3624 156.202 34.9131 156.202C35.7624 156.202 36.4484 156.417 36.9711 156.846C37.4938 157.275 37.7738 157.863 37.8111 158.61H36.5371C36.5091 158.209 36.3458 157.887 36.0471 157.644C35.7578 157.401 35.3658 157.28 34.8711 157.28C34.4138 157.28 34.0498 157.378 33.7791 157.574C33.5084 157.77 33.3731 158.027 33.3731 158.344C33.3731 158.596 33.4524 158.806 33.6111 158.974C33.7791 159.133 33.9844 159.263 34.2271 159.366C34.4791 159.459 34.8244 159.567 35.2631 159.688C35.8138 159.837 36.2618 159.987 36.6071 160.136C36.9524 160.276 37.2464 160.491 37.4891 160.78C37.7411 161.069 37.8718 161.447 37.8811 161.914C37.8811 162.334 37.7644 162.712 37.5311 163.048C37.2978 163.384 36.9664 163.65 36.5371 163.846C36.1171 164.033 35.6318 164.126 35.0811 164.126ZM50.804 157.07C50.5333 156.501 50.1413 156.062 49.628 155.754C49.1147 155.437 48.5173 155.278 47.836 155.278C47.1547 155.278 46.5387 155.437 45.988 155.754C45.4467 156.062 45.0173 156.51 44.7 157.098C44.392 157.677 44.238 158.349 44.238 159.114C44.238 159.879 44.392 160.551 44.7 161.13C45.0173 161.709 45.4467 162.157 45.988 162.474C46.5387 162.782 47.1547 162.936 47.836 162.936C48.788 162.936 49.572 162.651 50.188 162.082C50.804 161.513 51.1633 160.743 51.266 159.772H47.374V158.736H52.624V159.716C52.5493 160.519 52.2973 161.256 51.868 161.928C51.4387 162.591 50.874 163.118 50.174 163.51C49.474 163.893 48.6947 164.084 47.836 164.084C46.9307 164.084 46.1047 163.874 45.358 163.454C44.6113 163.025 44.0187 162.432 43.58 161.676C43.1507 160.92 42.936 160.066 42.936 159.114C42.936 158.162 43.1507 157.308 43.58 156.552C44.0187 155.787 44.6113 155.194 45.358 154.774C46.1047 154.345 46.9307 154.13 47.836 154.13C48.872 154.13 49.7867 154.387 50.58 154.9C51.3827 155.413 51.966 156.137 52.33 157.07H50.804ZM53.8325 160.136C53.8325 159.352 53.9911 158.666 54.3085 158.078C54.6258 157.481 55.0598 157.019 55.6105 156.692C56.1705 156.365 56.7911 156.202 57.4725 156.202C58.1445 156.202 58.7278 156.347 59.2225 156.636C59.7171 156.925 60.0858 157.289 60.3285 157.728V156.328H61.6165V164H60.3285V162.572C60.0765 163.02 59.6985 163.393 59.1945 163.692C58.6998 163.981 58.1211 164.126 57.4585 164.126C56.7771 164.126 56.1611 163.958 55.6105 163.622C55.0598 163.286 54.6258 162.815 54.3085 162.208C53.9911 161.601 53.8325 160.911 53.8325 160.136ZM60.3285 160.15C60.3285 159.571 60.2118 159.067 59.9785 158.638C59.7451 158.209 59.4278 157.882 59.0265 157.658C58.6345 157.425 58.2005 157.308 57.7245 157.308C57.2485 157.308 56.8145 157.42 56.4225 157.644C56.0305 157.868 55.7178 158.195 55.4845 158.624C55.2511 159.053 55.1345 159.557 55.1345 160.136C55.1345 160.724 55.2511 161.237 55.4845 161.676C55.7178 162.105 56.0305 162.437 56.4225 162.67C56.8145 162.894 57.2485 163.006 57.7245 163.006C58.2005 163.006 58.6345 162.894 59.0265 162.67C59.4278 162.437 59.7451 162.105 59.9785 161.676C60.2118 161.237 60.3285 160.729 60.3285 160.15ZM72.9954 156.188C73.5927 156.188 74.1247 156.314 74.5914 156.566C75.0581 156.809 75.4267 157.177 75.6974 157.672C75.9681 158.167 76.1034 158.769 76.1034 159.478V164H74.8434V159.66C74.8434 158.895 74.6521 158.311 74.2694 157.91C73.8961 157.499 73.3874 157.294 72.7434 157.294C72.0807 157.294 71.5534 157.509 71.1614 157.938C70.7694 158.358 70.5734 158.969 70.5734 159.772V164H69.3134V159.66C69.3134 158.895 69.1221 158.311 68.7394 157.91C68.3661 157.499 67.8574 157.294 67.2134 157.294C66.5507 157.294 66.0234 157.509 65.6314 157.938C65.2394 158.358 65.0434 158.969 65.0434 159.772V164H63.7694V156.328H65.0434V157.434C65.2954 157.033 65.6314 156.725 66.0514 156.51C66.4807 156.295 66.9521 156.188 67.4654 156.188C68.1094 156.188 68.6787 156.333 69.1734 156.622C69.6681 156.911 70.0367 157.336 70.2794 157.896C70.4941 157.355 70.8487 156.935 71.3434 156.636C71.8381 156.337 72.3887 156.188 72.9954 156.188ZM85.1932 159.87C85.1932 160.113 85.1792 160.369 85.1512 160.64H79.0192C79.0659 161.396 79.3226 161.989 79.7892 162.418C80.2652 162.838 80.8392 163.048 81.5112 163.048C82.0619 163.048 82.5192 162.922 82.8832 162.67C83.2566 162.409 83.5179 162.063 83.6672 161.634H85.0392C84.8339 162.371 84.4232 162.973 83.8072 163.44C83.1912 163.897 82.4259 164.126 81.5112 164.126C80.7832 164.126 80.1299 163.963 79.5512 163.636C78.9819 163.309 78.5339 162.847 78.2072 162.25C77.8806 161.643 77.7172 160.943 77.7172 160.15C77.7172 159.357 77.8759 158.661 78.1932 158.064C78.5106 157.467 78.9539 157.009 79.5232 156.692C80.1019 156.365 80.7646 156.202 81.5112 156.202C82.2392 156.202 82.8832 156.361 83.4432 156.678C84.0032 156.995 84.4326 157.434 84.7312 157.994C85.0392 158.545 85.1932 159.17 85.1932 159.87ZM83.8772 159.604C83.8772 159.119 83.7699 158.703 83.5552 158.358C83.3406 158.003 83.0466 157.737 82.6732 157.56C82.3092 157.373 81.9032 157.28 81.4552 157.28C80.8112 157.28 80.2606 157.485 79.8032 157.896C79.3552 158.307 79.0986 158.876 79.0332 159.604H83.8772ZM89.5909 164.126C89.0029 164.126 88.4755 164.028 88.0089 163.832C87.5422 163.627 87.1735 163.347 86.9029 162.992C86.6322 162.628 86.4829 162.213 86.4549 161.746H87.7709C87.8082 162.129 87.9855 162.441 88.3029 162.684C88.6295 162.927 89.0542 163.048 89.5769 163.048C90.0622 163.048 90.4449 162.941 90.7249 162.726C91.0049 162.511 91.1449 162.241 91.1449 161.914C91.1449 161.578 90.9955 161.331 90.6969 161.172C90.3982 161.004 89.9362 160.841 89.3109 160.682C88.7415 160.533 88.2749 160.383 87.9109 160.234C87.5562 160.075 87.2482 159.847 86.9869 159.548C86.7349 159.24 86.6089 158.839 86.6089 158.344C86.6089 157.952 86.7255 157.593 86.9589 157.266C87.1922 156.939 87.5235 156.683 87.9529 156.496C88.3822 156.3 88.8722 156.202 89.4229 156.202C90.2722 156.202 90.9582 156.417 91.4809 156.846C92.0035 157.275 92.2835 157.863 92.3209 158.61H91.0469C91.0189 158.209 90.8555 157.887 90.5569 157.644C90.2675 157.401 89.8755 157.28 89.3809 157.28C88.9235 157.28 88.5595 157.378 88.2889 157.574C88.0182 157.77 87.8829 158.027 87.8829 158.344C87.8829 158.596 87.9622 158.806 88.1209 158.974C88.2889 159.133 88.4942 159.263 88.7369 159.366C88.9889 159.459 89.3342 159.567 89.7729 159.688C90.3235 159.837 90.7715 159.987 91.1169 160.136C91.4622 160.276 91.7562 160.491 91.9989 160.78C92.2509 161.069 92.3815 161.447 92.3909 161.914C92.3909 162.334 92.2742 162.712 92.0409 163.048C91.8075 163.384 91.4762 163.65 91.0469 163.846C90.6269 164.033 90.1415 164.126 89.5909 164.126ZM95.5053 162.236L93.9373 166.002H93.0833L94.1053 162.236H95.5053ZM106.703 154.242V155.278H104.043V164H102.769V155.278H100.095V154.242H106.703ZM111.617 164.126C110.899 164.126 110.245 163.963 109.657 163.636C109.079 163.309 108.621 162.847 108.285 162.25C107.959 161.643 107.795 160.943 107.795 160.15C107.795 159.366 107.963 158.675 108.299 158.078C108.645 157.471 109.111 157.009 109.699 156.692C110.287 156.365 110.945 156.202 111.673 156.202C112.401 156.202 113.059 156.365 113.647 156.692C114.235 157.009 114.697 157.467 115.033 158.064C115.379 158.661 115.551 159.357 115.551 160.15C115.551 160.943 115.374 161.643 115.019 162.25C114.674 162.847 114.203 163.309 113.605 163.636C113.008 163.963 112.345 164.126 111.617 164.126ZM111.617 163.006C112.075 163.006 112.504 162.899 112.905 162.684C113.307 162.469 113.629 162.147 113.871 161.718C114.123 161.289 114.249 160.766 114.249 160.15C114.249 159.534 114.128 159.011 113.885 158.582C113.643 158.153 113.325 157.835 112.933 157.63C112.541 157.415 112.117 157.308 111.659 157.308C111.193 157.308 110.763 157.415 110.371 157.63C109.989 157.835 109.681 158.153 109.447 158.582C109.214 159.011 109.097 159.534 109.097 160.15C109.097 160.775 109.209 161.303 109.433 161.732C109.667 162.161 109.975 162.483 110.357 162.698C110.74 162.903 111.16 163.006 111.617 163.006ZM123.834 156.328L119.214 167.612H117.898L119.41 163.916L116.316 156.328H117.73L120.138 162.544L122.518 156.328H123.834ZM127.831 164.126C127.243 164.126 126.716 164.028 126.249 163.832C125.782 163.627 125.414 163.347 125.143 162.992C124.872 162.628 124.723 162.213 124.695 161.746H126.011C126.048 162.129 126.226 162.441 126.543 162.684C126.87 162.927 127.294 163.048 127.817 163.048C128.302 163.048 128.685 162.941 128.965 162.726C129.245 162.511 129.385 162.241 129.385 161.914C129.385 161.578 129.236 161.331 128.937 161.172C128.638 161.004 128.176 160.841 127.551 160.682C126.982 160.533 126.515 160.383 126.151 160.234C125.796 160.075 125.488 159.847 125.227 159.548C124.975 159.24 124.849 158.839 124.849 158.344C124.849 157.952 124.966 157.593 125.199 157.266C125.432 156.939 125.764 156.683 126.193 156.496C126.622 156.3 127.112 156.202 127.663 156.202C128.512 156.202 129.198 156.417 129.721 156.846C130.244 157.275 130.524 157.863 130.561 158.61H129.287C129.259 158.209 129.096 157.887 128.797 157.644C128.508 157.401 128.116 157.28 127.621 157.28C127.164 157.28 126.8 157.378 126.529 157.574C126.258 157.77 126.123 158.027 126.123 158.344C126.123 158.596 126.202 158.806 126.361 158.974C126.529 159.133 126.734 159.263 126.977 159.366C127.229 159.459 127.574 159.567 128.013 159.688C128.564 159.837 129.012 159.987 129.357 160.136C129.702 160.276 129.996 160.491 130.239 160.78C130.491 161.069 130.622 161.447 130.631 161.914C130.631 162.334 130.514 162.712 130.281 163.048C130.048 163.384 129.716 163.65 129.287 163.846C128.867 164.033 128.382 164.126 127.831 164.126ZM18.568 185L17.294 183.712C16.818 184.207 16.3093 184.575 15.768 184.818C15.2267 185.051 14.6153 185.168 13.934 185.168C13.262 185.168 12.6647 185.047 12.142 184.804C11.6287 184.561 11.2273 184.216 10.938 183.768C10.658 183.32 10.518 182.797 10.518 182.2C10.518 181.519 10.7093 180.921 11.092 180.408C11.484 179.885 12.058 179.475 12.814 179.176C12.5153 178.821 12.3007 178.495 12.17 178.196C12.0393 177.897 11.974 177.571 11.974 177.216C11.974 176.805 12.0767 176.437 12.282 176.11C12.4967 175.774 12.8 175.513 13.192 175.326C13.584 175.139 14.0367 175.046 14.55 175.046C15.054 175.046 15.4927 175.144 15.866 175.34C16.2393 175.536 16.5193 175.811 16.706 176.166C16.8927 176.511 16.9767 176.899 16.958 177.328H15.684C15.6933 176.945 15.586 176.647 15.362 176.432C15.138 176.208 14.8487 176.096 14.494 176.096C14.1207 176.096 13.8173 176.203 13.584 176.418C13.36 176.623 13.248 176.889 13.248 177.216C13.248 177.496 13.3227 177.767 13.472 178.028C13.6307 178.289 13.892 178.611 14.256 178.994L17.168 181.92L17.42 181.528L18.372 179.932H19.744L18.596 181.92C18.4373 182.2 18.2507 182.494 18.036 182.802L20.234 185H18.568ZM13.934 184.076C14.438 184.076 14.8907 183.978 15.292 183.782C15.7027 183.586 16.09 183.283 16.454 182.872L13.584 179.988C12.3893 180.445 11.792 181.169 11.792 182.158C11.792 182.709 11.988 183.166 12.38 183.53C12.7813 183.894 13.2993 184.076 13.934 184.076ZM24.684 181.136C24.684 180.352 24.8427 179.666 25.16 179.078C25.4774 178.481 25.9114 178.019 26.462 177.692C27.022 177.365 27.6427 177.202 28.324 177.202C28.996 177.202 29.5794 177.347 30.074 177.636C30.5687 177.925 30.9374 178.289 31.18 178.728V177.328H32.468V185H31.18V183.572C30.928 184.02 30.55 184.393 30.046 184.692C29.5514 184.981 28.9727 185.126 28.31 185.126C27.6287 185.126 27.0127 184.958 26.462 184.622C25.9114 184.286 25.4774 183.815 25.16 183.208C24.8427 182.601 24.684 181.911 24.684 181.136ZM31.18 181.15C31.18 180.571 31.0634 180.067 30.83 179.638C30.5967 179.209 30.2794 178.882 29.878 178.658C29.486 178.425 29.052 178.308 28.576 178.308C28.1 178.308 27.666 178.42 27.274 178.644C26.882 178.868 26.5694 179.195 26.336 179.624C26.1027 180.053 25.986 180.557 25.986 181.136C25.986 181.724 26.1027 182.237 26.336 182.676C26.5694 183.105 26.882 183.437 27.274 183.67C27.666 183.894 28.1 184.006 28.576 184.006C29.052 184.006 29.486 183.894 29.878 183.67C30.2794 183.437 30.5967 183.105 30.83 182.676C31.0634 182.237 31.18 181.729 31.18 181.15ZM34.145 181.15C34.145 180.357 34.3036 179.666 34.621 179.078C34.9383 178.481 35.377 178.019 35.937 177.692C36.5063 177.365 37.155 177.202 37.883 177.202C38.8256 177.202 39.6003 177.431 40.207 177.888C40.823 178.345 41.229 178.98 41.425 179.792H40.053C39.9223 179.325 39.6656 178.957 39.283 178.686C38.9096 178.415 38.443 178.28 37.883 178.28C37.155 178.28 36.567 178.532 36.119 179.036C35.671 179.531 35.447 180.235 35.447 181.15C35.447 182.074 35.671 182.788 36.119 183.292C36.567 183.796 37.155 184.048 37.883 184.048C38.443 184.048 38.9096 183.917 39.283 183.656C39.6563 183.395 39.913 183.021 40.053 182.536H41.425C41.2196 183.32 40.809 183.95 40.193 184.426C39.577 184.893 38.807 185.126 37.883 185.126C37.155 185.126 36.5063 184.963 35.937 184.636C35.377 184.309 34.9383 183.847 34.621 183.25C34.3036 182.653 34.145 181.953 34.145 181.15ZM42.6489 181.15C42.6489 180.357 42.8075 179.666 43.1249 179.078C43.4422 178.481 43.8809 178.019 44.4409 177.692C45.0102 177.365 45.6589 177.202 46.3869 177.202C47.3295 177.202 48.1042 177.431 48.7109 177.888C49.3269 178.345 49.7329 178.98 49.9289 179.792H48.5569C48.4262 179.325 48.1695 178.957 47.7869 178.686C47.4135 178.415 46.9469 178.28 46.3869 178.28C45.6589 178.28 45.0709 178.532 44.6229 179.036C44.1749 179.531 43.9509 180.235 43.9509 181.15C43.9509 182.074 44.1749 182.788 44.6229 183.292C45.0709 183.796 45.6589 184.048 46.3869 184.048C46.9469 184.048 47.4135 183.917 47.7869 183.656C48.1602 183.395 48.4169 183.021 48.5569 182.536H49.9289C49.7235 183.32 49.3129 183.95 48.6969 184.426C48.0809 184.893 47.3109 185.126 46.3869 185.126C45.6589 185.126 45.0102 184.963 44.4409 184.636C43.8809 184.309 43.4422 183.847 43.1249 183.25C42.8075 182.653 42.6489 181.953 42.6489 181.15ZM58.6288 180.87C58.6288 181.113 58.6148 181.369 58.5868 181.64H52.4548C52.5014 182.396 52.7581 182.989 53.2248 183.418C53.7008 183.838 54.2748 184.048 54.9468 184.048C55.4974 184.048 55.9548 183.922 56.3188 183.67C56.6921 183.409 56.9534 183.063 57.1028 182.634H58.4748C58.2694 183.371 57.8588 183.973 57.2428 184.44C56.6268 184.897 55.8614 185.126 54.9468 185.126C54.2188 185.126 53.5654 184.963 52.9868 184.636C52.4174 184.309 51.9694 183.847 51.6428 183.25C51.3161 182.643 51.1528 181.943 51.1528 181.15C51.1528 180.357 51.3114 179.661 51.6288 179.064C51.9461 178.467 52.3894 178.009 52.9588 177.692C53.5374 177.365 54.2001 177.202 54.9468 177.202C55.6748 177.202 56.3188 177.361 56.8788 177.678C57.4388 177.995 57.8681 178.434 58.1668 178.994C58.4748 179.545 58.6288 180.17 58.6288 180.87ZM57.3128 180.604C57.3128 180.119 57.2054 179.703 56.9908 179.358C56.7761 179.003 56.4821 178.737 56.1088 178.56C55.7448 178.373 55.3388 178.28 54.8908 178.28C54.2468 178.28 53.6961 178.485 53.2388 178.896C52.7908 179.307 52.5341 179.876 52.4688 180.604H57.3128ZM63.0264 185.126C62.4384 185.126 61.9111 185.028 61.4444 184.832C60.9778 184.627 60.6091 184.347 60.3384 183.992C60.0678 183.628 59.9184 183.213 59.8904 182.746H61.2064C61.2438 183.129 61.4211 183.441 61.7384 183.684C62.0651 183.927 62.4898 184.048 63.0124 184.048C63.4978 184.048 63.8804 183.941 64.1604 183.726C64.4404 183.511 64.5804 183.241 64.5804 182.914C64.5804 182.578 64.4311 182.331 64.1324 182.172C63.8338 182.004 63.3718 181.841 62.7464 181.682C62.1771 181.533 61.7104 181.383 61.3464 181.234C60.9918 181.075 60.6838 180.847 60.4224 180.548C60.1704 180.24 60.0444 179.839 60.0444 179.344C60.0444 178.952 60.1611 178.593 60.3944 178.266C60.6278 177.939 60.9591 177.683 61.3884 177.496C61.8178 177.3 62.3078 177.202 62.8584 177.202C63.7078 177.202 64.3938 177.417 64.9164 177.846C65.4391 178.275 65.7191 178.863 65.7564 179.61H64.4824C64.4544 179.209 64.2911 178.887 63.9924 178.644C63.7031 178.401 63.3111 178.28 62.8164 178.28C62.3591 178.28 61.9951 178.378 61.7244 178.574C61.4538 178.77 61.3184 179.027 61.3184 179.344C61.3184 179.596 61.3978 179.806 61.5564 179.974C61.7244 180.133 61.9298 180.263 62.1724 180.366C62.4244 180.459 62.7698 180.567 63.2084 180.688C63.7591 180.837 64.2071 180.987 64.5524 181.136C64.8978 181.276 65.1918 181.491 65.4344 181.78C65.6864 182.069 65.8171 182.447 65.8264 182.914C65.8264 183.334 65.7098 183.712 65.4764 184.048C65.2431 184.384 64.9118 184.65 64.4824 184.846C64.0624 185.033 63.5771 185.126 63.0264 185.126ZM70.3409 185.126C69.7529 185.126 69.2255 185.028 68.7589 184.832C68.2922 184.627 67.9235 184.347 67.6529 183.992C67.3822 183.628 67.2329 183.213 67.2049 182.746H68.5209C68.5582 183.129 68.7355 183.441 69.0529 183.684C69.3795 183.927 69.8042 184.048 70.3269 184.048C70.8122 184.048 71.1949 183.941 71.4749 183.726C71.7549 183.511 71.8949 183.241 71.8949 182.914C71.8949 182.578 71.7455 182.331 71.4469 182.172C71.1482 182.004 70.6862 181.841 70.0609 181.682C69.4915 181.533 69.0249 181.383 68.6609 181.234C68.3062 181.075 67.9982 180.847 67.7369 180.548C67.4849 180.24 67.3589 179.839 67.3589 179.344C67.3589 178.952 67.4755 178.593 67.7089 178.266C67.9422 177.939 68.2735 177.683 68.7029 177.496C69.1322 177.3 69.6222 177.202 70.1729 177.202C71.0222 177.202 71.7082 177.417 72.2309 177.846C72.7535 178.275 73.0335 178.863 73.0709 179.61H71.7969C71.7689 179.209 71.6055 178.887 71.3069 178.644C71.0175 178.401 70.6255 178.28 70.1309 178.28C69.6735 178.28 69.3095 178.378 69.0389 178.574C68.7682 178.77 68.6329 179.027 68.6329 179.344C68.6329 179.596 68.7122 179.806 68.8709 179.974C69.0389 180.133 69.2442 180.263 69.4869 180.366C69.7389 180.459 70.0842 180.567 70.5229 180.688C71.0735 180.837 71.5215 180.987 71.8669 181.136C72.2122 181.276 72.5062 181.491 72.7489 181.78C73.0009 182.069 73.1315 182.447 73.1409 182.914C73.1409 183.334 73.0242 183.712 72.7909 184.048C72.5575 184.384 72.2262 184.65 71.7969 184.846C71.3769 185.033 70.8915 185.126 70.3409 185.126ZM78.2853 185.126C77.5667 185.126 76.9133 184.963 76.3253 184.636C75.7467 184.309 75.2893 183.847 74.9533 183.25C74.6267 182.643 74.4633 181.943 74.4633 181.15C74.4633 180.366 74.6313 179.675 74.9673 179.078C75.3127 178.471 75.7793 178.009 76.3673 177.692C76.9553 177.365 77.6133 177.202 78.3413 177.202C79.0693 177.202 79.7273 177.365 80.3153 177.692C80.9033 178.009 81.3653 178.467 81.7013 179.064C82.0467 179.661 82.2193 180.357 82.2193 181.15C82.2193 181.943 82.042 182.643 81.6873 183.25C81.342 183.847 80.8707 184.309 80.2733 184.636C79.676 184.963 79.0133 185.126 78.2853 185.126ZM78.2853 184.006C78.7427 184.006 79.172 183.899 79.5733 183.684C79.9747 183.469 80.2967 183.147 80.5393 182.718C80.7913 182.289 80.9173 181.766 80.9173 181.15C80.9173 180.534 80.796 180.011 80.5533 179.582C80.3107 179.153 79.9933 178.835 79.6013 178.63C79.2093 178.415 78.7847 178.308 78.3273 178.308C77.8607 178.308 77.4313 178.415 77.0393 178.63C76.6567 178.835 76.3487 179.153 76.1153 179.582C75.882 180.011 75.7653 180.534 75.7653 181.15C75.7653 181.775 75.8773 182.303 76.1013 182.732C76.3347 183.161 76.6427 183.483 77.0253 183.698C77.408 183.903 77.828 184.006 78.2853 184.006ZM85.1684 178.574C85.3924 178.135 85.7097 177.795 86.1204 177.552C86.5404 177.309 87.0491 177.188 87.6464 177.188V178.504H87.3104C85.8824 178.504 85.1684 179.279 85.1684 180.828V185H83.8944V177.328H85.1684V178.574ZM89.7751 176.082C89.5324 176.082 89.3271 175.998 89.1591 175.83C88.9911 175.662 88.9071 175.457 88.9071 175.214C88.9071 174.971 88.9911 174.766 89.1591 174.598C89.3271 174.43 89.5324 174.346 89.7751 174.346C90.0084 174.346 90.2044 174.43 90.3631 174.598C90.5311 174.766 90.6151 174.971 90.6151 175.214C90.6151 175.457 90.5311 175.662 90.3631 175.83C90.2044 175.998 90.0084 176.082 89.7751 176.082ZM90.3911 177.328V185H89.1171V177.328H90.3911ZM99.5624 180.87C99.5624 181.113 99.5484 181.369 99.5204 181.64H93.3884C93.435 182.396 93.6917 182.989 94.1584 183.418C94.6344 183.838 95.2084 184.048 95.8804 184.048C96.431 184.048 96.8884 183.922 97.2524 183.67C97.6257 183.409 97.887 183.063 98.0364 182.634H99.4084C99.203 183.371 98.7924 183.973 98.1764 184.44C97.5604 184.897 96.795 185.126 95.8804 185.126C95.1524 185.126 94.499 184.963 93.9204 184.636C93.351 184.309 92.903 183.847 92.5764 183.25C92.2497 182.643 92.0864 181.943 92.0864 181.15C92.0864 180.357 92.245 179.661 92.5624 179.064C92.8797 178.467 93.323 178.009 93.8924 177.692C94.471 177.365 95.1337 177.202 95.8804 177.202C96.6084 177.202 97.2524 177.361 97.8124 177.678C98.3724 177.995 98.8017 178.434 99.1004 178.994C99.4084 179.545 99.5624 180.17 99.5624 180.87ZM98.2464 180.604C98.2464 180.119 98.139 179.703 97.9244 179.358C97.7097 179.003 97.4157 178.737 97.0424 178.56C96.6784 178.373 96.2724 178.28 95.8244 178.28C95.1804 178.28 94.6297 178.485 94.1724 178.896C93.7244 179.307 93.4677 179.876 93.4024 180.604H98.2464ZM103.96 185.126C103.372 185.126 102.845 185.028 102.378 184.832C101.911 184.627 101.543 184.347 101.272 183.992C101.001 183.628 100.852 183.213 100.824 182.746H102.14C102.177 183.129 102.355 183.441 102.672 183.684C102.999 183.927 103.423 184.048 103.946 184.048C104.431 184.048 104.814 183.941 105.094 183.726C105.374 183.511 105.514 183.241 105.514 182.914C105.514 182.578 105.365 182.331 105.066 182.172C104.767 182.004 104.305 181.841 103.68 181.682C103.111 181.533 102.644 181.383 102.28 181.234C101.925 181.075 101.617 180.847 101.356 180.548C101.104 180.24 100.978 179.839 100.978 179.344C100.978 178.952 101.095 178.593 101.328 178.266C101.561 177.939 101.893 177.683 102.322 177.496C102.751 177.3 103.241 177.202 103.792 177.202C104.641 177.202 105.327 177.417 105.85 177.846C106.373 178.275 106.653 178.863 106.69 179.61H105.416C105.388 179.209 105.225 178.887 104.926 178.644C104.637 178.401 104.245 178.28 103.75 178.28C103.293 178.28 102.929 178.378 102.658 178.574C102.387 178.77 102.252 179.027 102.252 179.344C102.252 179.596 102.331 179.806 102.49 179.974C102.658 180.133 102.863 180.263 103.106 180.366C103.358 180.459 103.703 180.567 104.142 180.688C104.693 180.837 105.141 180.987 105.486 181.136C105.831 181.276 106.125 181.491 106.368 181.78C106.62 182.069 106.751 182.447 106.76 182.914C106.76 183.334 106.643 183.712 106.41 184.048C106.177 184.384 105.845 184.65 105.416 184.846C104.996 185.033 104.511 185.126 103.96 185.126Z" fill="white"/>
</svg>
