<svg width="137" height="96" viewBox="0 0 137 96" fill="none" xmlns="http://www.w3.org/2000/svg">
<rect x="0.9031" y="0.774194" width="133.161" height="71.2258" rx="4.92479" fill="#FB8C00" stroke="white" stroke-width="1.54839"/>
<path d="M17.4947 46.3974C17.9324 43.8685 18.8564 41.6193 20.2667 39.6498C21.7013 37.6559 23.4642 36.1118 25.5554 35.0176C27.6465 33.8991 29.8714 33.3399 32.23 33.3399C34.9777 33.3399 37.2269 34.0329 38.9776 35.4188C40.7526 36.7805 41.8955 38.6771 42.4061 41.1087H40.5095C40.0961 39.1878 39.1356 37.6559 37.6281 36.5131C36.1448 35.3702 34.2604 34.7988 31.9747 34.7988C29.9565 34.7988 28.0477 35.273 26.2484 36.2213C24.449 37.1696 22.9171 38.5191 21.6527 40.2698C20.4126 42.0205 19.5859 44.0631 19.1725 46.3974C19.0266 47.2727 18.9537 48.1238 18.9537 48.9505C18.9537 50.7985 19.3305 52.4033 20.0843 53.765C20.8381 55.1024 21.8837 56.1358 23.2211 56.8653C24.5827 57.5947 26.1389 57.9595 27.8897 57.9595C29.8349 57.9595 31.6707 57.5218 33.3972 56.6464C35.1479 55.7711 36.6311 54.531 37.8469 52.9261C39.087 51.297 39.9502 49.3882 40.4365 47.1998H29.0203L29.2757 45.8503H42.3696L42.1508 46.9445C41.6645 49.3274 40.7162 51.4672 39.3059 53.3638C37.9199 55.2361 36.2056 56.7194 34.1631 57.8136C32.1206 58.8835 29.9443 59.4184 27.6343 59.4184C25.5675 59.4184 23.7438 58.9929 22.1633 58.1418C20.6071 57.2908 19.3913 56.0872 18.516 54.531C17.6649 52.9504 17.2394 51.1389 17.2394 49.0964C17.2394 48.1724 17.3245 47.2727 17.4947 46.3974ZM57.1089 39.1027C58.7867 39.1027 60.2092 39.4309 61.3763 40.0875C62.5678 40.7197 63.4553 41.5829 64.0389 42.6771C64.6468 43.747 64.9507 44.9506 64.9507 46.2879C64.9507 46.8715 64.9021 47.4065 64.8048 47.8928C64.6589 48.7681 64.513 49.4247 64.3671 49.8623H47.2611C47.1638 50.6404 47.1152 51.1997 47.1152 51.5401C47.1152 53.6313 47.7474 55.2361 49.0118 56.3546C50.2762 57.4731 51.8689 58.0324 53.7898 58.0324C55.7108 58.0324 57.4129 57.5583 58.8961 56.6099C60.4037 55.6373 61.4736 54.3243 62.1058 52.6708H63.82C63.0419 54.689 61.741 56.3303 59.9174 57.5947C58.118 58.8348 55.9904 59.4549 53.5345 59.4549C51.1029 59.4549 49.1455 58.7497 47.6623 57.3394C46.2033 55.9291 45.4739 54.0082 45.4739 51.5766C45.4739 50.8228 45.5468 50.0447 45.6927 49.2423C46.0574 47.1755 46.7869 45.3761 47.8811 43.8442C48.9753 42.3123 50.3127 41.1452 51.8932 40.3428C53.498 39.516 55.2366 39.1027 57.1089 39.1027ZM63.0541 48.5858C63.2243 47.8806 63.3094 47.1633 63.3094 46.4338C63.3094 44.5129 62.6894 43.0418 61.4493 42.0205C60.2335 40.9993 58.6894 40.4887 56.8171 40.4887C55.4311 40.4887 54.0938 40.7926 52.805 41.4005C51.5163 42.0084 50.3978 42.9202 49.4495 44.136C48.5012 45.3518 47.8446 46.835 47.4799 48.5858H63.0541ZM80.2696 38.9568C82.2878 38.9568 83.9048 39.5039 85.1205 40.5981C86.3363 41.668 86.9442 43.2606 86.9442 45.3761C86.9442 46.0326 86.8713 46.7621 86.7254 47.5645L84.6829 59.1631H83.078L85.1205 47.6739C85.2421 46.8958 85.3029 46.2515 85.3029 45.7408C85.3029 43.9901 84.8166 42.6649 83.844 41.7652C82.8713 40.8412 81.5097 40.3792 79.7589 40.3792C77.7164 40.3792 75.9535 41.0114 74.4703 42.2759C72.987 43.5403 71.9658 45.4004 71.4065 47.8563L69.4005 59.1631H67.7592L71.2971 39.358H72.9384L72.2089 43.516C73.0357 42.0327 74.1542 40.902 75.5645 40.1239C76.9991 39.3458 78.5675 38.9568 80.2696 38.9568ZM95.5901 34.9447C95.2497 34.9447 94.9701 34.8474 94.7513 34.6529C94.5324 34.4341 94.423 34.1544 94.423 33.814C94.423 33.3277 94.5932 32.9265 94.9336 32.6104C95.274 32.27 95.6631 32.0998 96.1008 32.0998C96.4412 32.0998 96.7208 32.2092 96.9397 32.428C97.1828 32.6469 97.3044 32.9265 97.3044 33.2669C97.3044 33.7532 97.122 34.1544 96.7573 34.4705C96.4169 34.7866 96.0278 34.9447 95.5901 34.9447ZM95.6631 39.358L92.1252 59.1631H90.4839L94.0218 39.358H95.6631ZM110.288 39.1027C111.965 39.1027 113.388 39.4309 114.555 40.0875C115.746 40.7197 116.634 41.5829 117.217 42.6771C117.825 43.747 118.129 44.9506 118.129 46.2879C118.129 46.8715 118.081 47.4065 117.983 47.8928C117.838 48.7681 117.692 49.4247 117.546 49.8623H100.44C100.342 50.6404 100.294 51.1997 100.294 51.5401C100.294 53.6313 100.926 55.2361 102.19 56.3546C103.455 57.4731 105.048 58.0324 106.968 58.0324C108.889 58.0324 110.591 57.5583 112.075 56.6099C113.582 55.6373 114.652 54.3243 115.284 52.6708H116.999C116.221 54.689 114.92 56.3303 113.096 57.5947C111.297 58.8348 109.169 59.4549 106.713 59.4549C104.282 59.4549 102.324 58.7497 100.841 57.3394C99.382 55.9291 98.6525 54.0082 98.6525 51.5766C98.6525 50.8228 98.7254 50.0447 98.8713 49.2423C99.2361 47.1755 99.9655 45.3761 101.06 43.8442C102.154 42.3123 103.491 41.1452 105.072 40.3428C106.677 39.516 108.415 39.1027 110.288 39.1027ZM116.233 48.5858C116.403 47.8806 116.488 47.1633 116.488 46.4338C116.488 44.5129 115.868 43.0418 114.628 42.0205C113.412 40.9993 111.868 40.4887 109.996 40.4887C108.61 40.4887 107.272 40.7926 105.984 41.4005C104.695 42.0084 103.576 42.9202 102.628 44.136C101.68 45.3518 101.023 46.835 100.659 48.5858H116.233Z" fill="white"/>
<path fill-rule="evenodd" clip-rule="evenodd" d="M24.2299 12.3526C23.4772 12.4206 23.1529 12.5255 21.8637 13.1196C21.0736 13.4836 19.5178 14.8917 19.5178 15.2428C19.5178 15.3861 19.4312 15.5034 19.3254 15.5034C19.2197 15.5034 19.1331 15.667 19.1331 15.867C19.1331 16.0671 19.0556 16.2307 18.961 16.2307C18.7669 16.2307 18.5367 17.4081 18.5165 18.5036C18.4988 19.4697 18.7573 20.7765 18.9662 20.7765C19.0579 20.7765 19.1331 20.9401 19.1331 21.1402C19.1331 21.3402 19.2197 21.5038 19.3254 21.5038C19.4312 21.5038 19.5178 21.6069 19.5178 21.7329C19.5178 22.048 21.0382 23.504 21.3671 23.504C21.5136 23.504 21.6334 23.58 21.6334 23.6727C21.6334 23.7656 22.1189 24.0133 22.7121 24.2231C24.384 24.8144 28.4465 24.6906 29.221 24.0247C29.3216 23.9384 29.5224 23.8676 29.6674 23.8676C30.0182 23.8676 30.4808 23.4163 30.4808 23.0739C30.4808 22.6979 28.3493 18.7763 28.1449 18.7763C28.0545 18.7763 27.9805 18.8582 27.9805 18.9582C27.9805 19.0649 27.3142 19.14 26.3662 19.14C24.6767 19.14 24.5184 19.062 24.5184 18.2305C24.5184 17.7797 25.3911 17.6144 26.943 17.7715C28.2245 17.9014 28.7498 17.6994 28.7498 17.0771C28.7498 16.9282 28.8146 16.7793 28.894 16.7458C29.1229 16.6496 30.4808 14.0444 30.4808 13.7014C30.4808 13.3958 29.3039 12.7759 28.7236 12.7759C28.5688 12.7759 28.3597 12.7037 28.2593 12.6153C28.0458 12.4279 25.3476 12.2519 24.2299 12.3526ZM45.2149 12.6999C45.0074 13.2114 45.0833 23.8653 45.2972 24.2433C45.4778 24.562 45.7203 24.595 47.8937 24.595H50.2911V18.5036V12.4122H47.8114C45.7276 12.4122 45.313 12.4582 45.2149 12.6999ZM57.0961 12.8325C56.8718 13.0514 56.4451 13.3941 56.1477 13.5941C55.8504 13.7942 55.428 14.1236 55.2091 14.3264C54.99 14.5291 54.5065 14.8717 54.1345 15.0877C53.7626 15.3039 53.2498 15.6903 52.9952 15.9467C52.7405 16.2029 52.4599 16.4125 52.3716 16.4125C52.1249 16.4125 51.0605 17.425 51.0605 17.6595C51.0605 17.7845 51.4055 17.8672 51.926 17.8672H52.7915V19.5795C52.7915 21.4069 53.1927 22.7134 53.9359 23.3061C54.1349 23.4649 54.4565 23.7189 54.6506 23.8704C55.6674 24.6642 58.1337 24.8062 59.5712 24.1536L60.2925 23.8262V22.0393C60.2925 21.0441 60.2073 20.2026 60.1002 20.1401C59.9944 20.0783 59.9078 20.1048 59.9078 20.199C59.9078 20.4134 59.0308 20.5816 58.5423 20.4608C58.2278 20.383 58.1768 20.1957 58.1768 19.1187V17.8672H59.0039C59.4587 17.8672 59.9347 17.769 60.0617 17.649C60.1907 17.527 60.2925 16.9418 60.2925 16.3216C60.2925 15.7014 60.1907 15.1163 60.0617 14.9942C59.9347 14.8742 59.4587 14.776 59.0039 14.776H58.1768V13.5941C58.1768 12.5855 58.1274 12.4139 57.8402 12.4233C57.655 12.4295 57.3202 12.6135 57.0961 12.8325ZM85.6805 15.1317V17.8512L87.0749 17.9046L88.4694 17.9581L88.503 20.9583C88.5217 22.6084 88.5432 24.104 88.5511 24.2817C88.5644 24.5782 88.7925 24.6008 91.3063 24.5544L94.047 24.504L94.0995 21.1856L94.1519 17.8672H95.5901H97.0282V15.1397V12.4122H91.3544H85.6805V15.1317ZM31.5592 15.0637C31.324 15.6432 31.4315 22.2179 31.6829 22.6312C32.06 23.251 33.025 24.1184 33.6152 24.3677C34.8233 24.8781 36.7253 24.526 37.6452 23.6218C38.1474 23.1281 38.1741 23.1218 38.1741 23.4967C38.1741 23.7138 38.2638 24.0498 38.3732 24.2433C38.553 24.5608 38.7952 24.595 40.8668 24.595C42.9384 24.595 43.1806 24.5608 43.3604 24.2433C43.4816 24.0293 43.5595 22.2086 43.5595 19.5935C43.5595 16.1111 43.5073 15.2463 43.2846 15.0359C43.0769 14.8395 42.4445 14.776 40.6918 14.776C37.9324 14.776 38.1912 14.4184 38.1245 18.3218L38.078 21.0492L37.425 21.1081C37.0322 21.1436 36.7076 21.0712 36.6105 20.9263C36.5216 20.7939 36.4477 19.454 36.446 17.949C36.4441 16.0663 36.3712 15.1444 36.2123 14.9942C36.0604 14.8506 35.2466 14.776 33.8287 14.776C32.0431 14.776 31.6559 14.8251 31.5592 15.0637ZM61.4665 15.0259C61.2067 15.3221 61.2676 21.5665 61.5394 22.4879C62.1851 24.6766 65.8378 25.3363 67.6781 23.5967C67.9435 23.3456 68.208 23.1403 68.2657 23.1403C68.3234 23.1403 68.3705 23.4676 68.3705 23.8676V24.595H70.5666C71.7744 24.595 72.8996 24.5453 73.0669 24.4846C73.3333 24.388 73.3712 23.8027 73.3712 19.7933C73.3712 16.4729 73.3077 15.1524 73.1404 14.9942C72.8221 14.6933 68.535 14.6933 68.2166 14.9942C68.056 15.1461 67.9858 16.1136 67.9858 18.1763V21.1402H67.3952C66.3489 21.1402 66.27 20.914 66.2117 17.7484L66.1587 14.867L63.9272 14.8161C62.1735 14.7759 61.6465 14.8208 61.4665 15.0259ZM75.3393 14.9279C75.1506 15.0412 75.1072 16.1383 75.147 19.7891L75.1983 24.504H77.6987H80.199L80.3202 22.0493C80.3869 20.6992 80.5052 19.4104 80.5831 19.1855C80.7585 18.6785 81.2728 18.6565 81.6415 19.14C81.8637 19.4315 82.1395 19.5037 83.0304 19.5037C83.6431 19.5037 84.1419 19.422 84.1419 19.3218C84.1419 19.2218 84.2399 19.14 84.3598 19.14C84.7229 19.14 85.2803 18.4032 85.4093 17.7528C85.6624 16.4776 85.2435 15.6603 84.0003 15.0033C83.095 14.5251 81.6444 14.8891 80.9024 15.781C80.5033 16.2607 80.2952 16.1989 80.2952 15.6003C80.2952 14.8868 79.9457 14.7759 77.7083 14.7788C76.5393 14.7804 75.4734 14.8475 75.3393 14.9279ZM100.586 14.9579C100.375 15.0439 99.9853 15.1208 99.7209 15.1288C99.4564 15.1368 98.8506 15.3275 98.3745 15.5525L97.509 15.9614L97.4529 17.3688C97.4219 18.143 97.4652 18.7751 97.549 18.7736C97.6329 18.7722 98.0476 18.6529 98.4707 18.5089C99.6187 18.1177 101.505 18.1477 101.903 18.5634C102.078 18.7463 102.221 18.9509 102.221 19.018C102.221 19.0851 101.666 19.14 100.987 19.14C99.556 19.14 98.2153 19.6044 97.7675 20.255C97.6046 20.4917 97.3667 20.9871 97.239 21.3556C96.9049 22.3191 97.5225 23.6545 98.5561 24.2037C99.4064 24.6555 100.901 24.7195 101.635 24.3353C102.034 24.1262 102.169 24.1282 102.524 24.3478C102.84 24.5437 103.5 24.5944 105.226 24.5555L107.51 24.504L107.563 21.238C107.623 17.5486 107.484 16.9464 106.353 15.9669C105.994 15.6559 105.217 15.2606 104.626 15.0886C103.503 14.7617 101.249 14.6888 100.586 14.9579ZM109.376 14.9942C109.206 15.1546 109.145 16.7164 109.145 20.8889C109.145 24.0109 109.198 26.6947 109.262 26.8529C109.36 27.0946 109.775 27.1406 111.858 27.1406H114.338V25.6665C114.338 24.3317 114.37 24.2053 114.675 24.3295C114.86 24.4048 115.531 24.5026 116.165 24.5466C118.119 24.6822 120.041 23.5796 120.796 21.8908C121.332 20.6916 121.116 17.5057 120.443 16.6853C119.816 15.9221 119.506 15.6785 118.624 15.2563C117.419 14.6795 116.348 14.64 115.271 15.1324C114.496 15.4863 114.49 15.4863 114.392 15.1324C114.301 14.8031 114.116 14.776 111.95 14.776C110.384 14.776 109.53 14.8484 109.376 14.9942ZM115.794 19.0362C115.946 19.1789 116.069 19.629 116.069 20.0363V20.7765H115.204H114.338V20.0415C114.338 18.9242 115.111 18.3903 115.794 19.0362ZM102.184 21.6402C102.243 22.4108 102.241 22.413 101.58 22.413C101.025 22.413 100.896 22.3353 100.79 21.9366C100.639 21.3667 101.151 20.769 101.74 20.8285C102.047 20.8596 102.137 21.0234 102.184 21.6402Z" fill="white"/>
<rect x="2.7641" y="69.2153" width="132.537" height="25.6982" fill="white" stroke="#FB8C00" stroke-width="2.17274"/>
<path d="M37.559 75.455C37.4103 76.2932 37.0588 76.9894 36.5045 77.5437C35.9638 78.0845 35.3013 78.4765 34.5172 78.7199C35.1796 78.828 35.7204 79.1525 36.1395 79.6933C36.5586 80.2205 36.7681 80.8492 36.7681 81.5792C36.7681 81.7955 36.7479 82.0051 36.7073 82.2078C36.5856 82.9244 36.2882 83.5733 35.815 84.1546C35.3554 84.7224 34.747 85.1753 33.9899 85.5133C33.2329 85.8378 32.3812 86 31.4348 86H26.1623L28.6769 71.8656H33.7466C35.0174 71.8656 35.9773 72.136 36.6262 72.6768C37.2886 73.2175 37.6199 73.9205 37.6199 74.7858C37.6199 75.0021 37.5996 75.2252 37.559 75.455ZM35.6528 75.6781C35.6798 75.5564 35.6934 75.3874 35.6934 75.1711C35.6934 74.5898 35.4906 74.1369 35.085 73.8124C34.6794 73.4879 34.0913 73.3257 33.3207 73.3257H30.2586L29.4272 78.0101H32.5299C33.3816 78.0101 34.0846 77.8073 34.6389 77.4018C35.1932 76.9827 35.5311 76.4081 35.6528 75.6781ZM34.8822 82.0253C34.9228 81.8361 34.943 81.6603 34.943 81.4981C34.943 80.8762 34.7132 80.3828 34.2536 80.0177C33.7939 79.6527 33.1653 79.4702 32.3676 79.4702H29.1636L28.2713 84.5399H31.5362C32.442 84.5399 33.1923 84.3169 33.7872 83.8707C34.382 83.4246 34.747 82.8095 34.8822 82.0253ZM50.4215 74.8872L48.4545 86H46.6091L46.893 84.3777C46.4469 84.9455 45.8791 85.3849 45.1896 85.6958C44.5001 86.0068 43.7836 86.1622 43.04 86.1622C41.8774 86.1622 40.9445 85.8513 40.2415 85.2294C39.5521 84.594 39.2073 83.6882 39.2073 82.512C39.2073 82.2146 39.2411 81.8428 39.3087 81.3967L40.4646 74.8872H42.2897L41.1946 81.1533C41.1406 81.4373 41.1135 81.7347 41.1135 82.0456C41.1135 82.8703 41.3366 83.4989 41.7827 83.9316C42.2424 84.3507 42.8778 84.5602 43.6889 84.5602C44.6623 84.5602 45.487 84.256 46.163 83.6477C46.8525 83.0393 47.2918 82.1538 47.4811 80.9911V81.052L48.5762 74.8872H50.4215ZM55.4841 86.1825C54.3215 86.1825 53.3684 85.9054 52.6248 85.3511C51.8812 84.7968 51.5095 84.0532 51.5095 83.1204C51.5095 82.9446 51.5162 82.8162 51.5297 82.7351H53.3346C53.2805 83.3164 53.4495 83.7896 53.8415 84.1546C54.2471 84.5196 54.8284 84.7022 55.5855 84.7022C56.3426 84.7022 56.951 84.5602 57.4106 84.2763C57.8838 83.9789 58.1204 83.5665 58.1204 83.0393C58.1204 82.5931 57.9311 82.2416 57.5526 81.9848C57.174 81.7279 56.5927 81.4508 55.8086 81.1533C55.1191 80.8965 54.5513 80.6531 54.1052 80.4233C53.659 80.1935 53.2805 79.8758 52.9695 79.4702C52.6586 79.0511 52.5031 78.5239 52.5031 77.8884C52.5031 77.2666 52.6789 76.7123 53.0304 76.2256C53.3954 75.7389 53.8956 75.3671 54.531 75.1102C55.1799 74.8399 55.9167 74.7047 56.7414 74.7047C57.877 74.7047 58.8099 74.9886 59.5399 75.5564C60.2699 76.1242 60.635 76.8677 60.635 77.7871C60.635 77.9628 60.6282 78.098 60.6147 78.1926H58.8504L58.8707 77.9493C58.8707 77.4085 58.6612 76.9827 58.2421 76.6717C57.8365 76.3473 57.2957 76.185 56.6197 76.185C55.9573 76.185 55.4098 76.3337 54.9772 76.6312C54.5581 76.9286 54.3485 77.3274 54.3485 77.8276C54.3485 78.3008 54.5445 78.6726 54.9366 78.943C55.3287 79.2133 55.937 79.5108 56.7617 79.8352C57.4512 80.1056 58.0055 80.3557 58.4246 80.5855C58.8437 80.8018 59.2019 81.106 59.4993 81.4981C59.7968 81.8901 59.9455 82.3836 59.9455 82.9784C59.9455 83.6274 59.7495 84.1952 59.3574 84.6819C58.9789 85.1686 58.4516 85.5403 57.7756 85.7972C57.0997 86.0541 56.3358 86.1825 55.4841 86.1825ZM65.3896 73.0824C65.0921 73.0824 64.842 72.9877 64.6392 72.7985C64.45 72.5957 64.3553 72.3456 64.3553 72.0481C64.3553 71.6426 64.5041 71.2978 64.8015 71.0139C65.0989 70.7165 65.4436 70.5678 65.8357 70.5678C66.1466 70.5678 66.3968 70.6624 66.586 70.8517C66.7753 71.0409 66.8699 71.2911 66.8699 71.602C66.8699 72.0076 66.7212 72.3591 66.4238 72.6565C66.1264 72.9404 65.7816 73.0824 65.3896 73.0824ZM65.9777 74.8872L64.0106 86H62.1652L64.1323 74.8872H65.9777ZM74.5778 74.6844C75.7269 74.6844 76.6462 74.9953 77.3357 75.6172C78.0252 76.2256 78.37 77.1179 78.37 78.294C78.37 78.7266 78.3362 79.1119 78.2686 79.4499L77.1127 86H75.2876L76.4029 79.7135C76.457 79.4296 76.484 79.1322 76.484 78.8213C76.484 77.9966 76.2542 77.368 75.7945 76.9353C75.3484 76.5027 74.7198 76.2864 73.9086 76.2864C72.9352 76.2864 72.1038 76.5906 71.4143 77.199C70.7383 77.8073 70.299 78.6928 70.0962 79.8555V79.8149L69.0011 86H67.1557L69.1228 74.8872H70.9682L70.6843 76.4892C71.1439 75.9079 71.7185 75.4617 72.408 75.1508C73.0974 74.8399 73.8207 74.6844 74.5778 74.6844ZM86.9205 74.7047C87.8533 74.7047 88.6577 74.8872 89.3337 75.2522C90.0232 75.6037 90.5437 76.1039 90.8952 76.7528C91.2602 77.3882 91.4427 78.1183 91.4427 78.943C91.4427 79.2269 91.4089 79.5716 91.3413 79.9772C91.2872 80.3287 91.1993 80.6937 91.0777 81.0722H82.1955C82.1685 81.3426 82.155 81.5386 82.155 81.6603C82.155 82.5931 82.4321 83.3232 82.9864 83.8504C83.5542 84.3642 84.291 84.621 85.1968 84.621C85.9944 84.621 86.6907 84.4385 87.2855 84.0735C87.8939 83.695 88.3535 83.1948 88.6645 82.5729H90.6518C90.1651 83.6409 89.4148 84.5129 88.4009 85.1888C87.4004 85.8513 86.2378 86.1825 84.9129 86.1825C83.5204 86.1825 82.3983 85.7837 81.5466 84.9861C80.7084 84.1749 80.2893 83.0731 80.2893 81.6806C80.2893 81.2885 80.3299 80.8694 80.411 80.4233C80.6138 79.2742 81.0261 78.267 81.648 77.4018C82.2699 76.5365 83.0337 75.8741 83.9395 75.4144C84.8588 74.9413 85.8525 74.7047 86.9205 74.7047ZM89.4756 79.7338C89.5162 79.4634 89.5365 79.2133 89.5365 78.9835C89.5365 78.1183 89.2593 77.4491 88.705 76.9759C88.1643 76.5027 87.4545 76.2661 86.5758 76.2661C85.6294 76.2661 84.7709 76.5771 84.0003 77.199C83.2297 77.8073 82.7093 78.6523 82.4389 79.7338H89.4756ZM96.6162 86.1825C95.4535 86.1825 94.5004 85.9054 93.7569 85.3511C93.0133 84.7968 92.6415 84.0532 92.6415 83.1204C92.6415 82.9446 92.6483 82.8162 92.6618 82.7351H94.4666C94.4125 83.3164 94.5815 83.7896 94.9736 84.1546C95.3792 84.5196 95.9605 84.7022 96.7176 84.7022C97.4747 84.7022 98.083 84.5602 98.5427 84.2763C99.0159 83.9789 99.2524 83.5665 99.2524 83.0393C99.2524 82.5931 99.0632 82.2416 98.6846 81.9848C98.3061 81.7279 97.7248 81.4508 96.9406 81.1533C96.2512 80.8965 95.6834 80.6531 95.2372 80.4233C94.7911 80.1935 94.4125 79.8758 94.1016 79.4702C93.7907 79.0511 93.6352 78.5239 93.6352 77.8884C93.6352 77.2666 93.8109 76.7123 94.1624 76.2256C94.5275 75.7389 95.0277 75.3671 95.6631 75.1102C96.312 74.8399 97.0488 74.7047 97.8735 74.7047C99.0091 74.7047 99.9419 74.9886 100.672 75.5564C101.402 76.1242 101.767 76.8677 101.767 77.7871C101.767 77.9628 101.76 78.098 101.747 78.1926H99.9825L100.003 77.9493C100.003 77.4085 99.7932 76.9827 99.3741 76.6717C98.9685 76.3473 98.4278 76.185 97.7518 76.185C97.0894 76.185 96.5418 76.3337 96.1092 76.6312C95.6901 76.9286 95.4806 77.3274 95.4806 77.8276C95.4806 78.3008 95.6766 78.6726 96.0687 78.943C96.4607 79.2133 97.0691 79.5108 97.8938 79.8352C98.5832 80.1056 99.1375 80.3557 99.5566 80.5855C99.9757 80.8018 100.334 81.106 100.631 81.4981C100.929 81.8901 101.078 82.3836 101.078 82.9784C101.078 83.6274 100.882 84.1952 100.489 84.6819C100.111 85.1686 99.5837 85.5403 98.9077 85.7972C98.2317 86.0541 97.4679 86.1825 96.6162 86.1825ZM107.211 86.1825C106.048 86.1825 105.095 85.9054 104.352 85.3511C103.608 84.7968 103.236 84.0532 103.236 83.1204C103.236 82.9446 103.243 82.8162 103.257 82.7351H105.062C105.007 83.3164 105.176 83.7896 105.569 84.1546C105.974 84.5196 106.555 84.7022 107.313 84.7022C108.07 84.7022 108.678 84.5602 109.138 84.2763C109.611 83.9789 109.847 83.5665 109.847 83.0393C109.847 82.5931 109.658 82.2416 109.28 81.9848C108.901 81.7279 108.32 81.4508 107.536 81.1533C106.846 80.8965 106.278 80.6531 105.832 80.4233C105.386 80.1935 105.007 79.8758 104.697 79.4702C104.386 79.0511 104.23 78.5239 104.23 77.8884C104.23 77.2666 104.406 76.7123 104.757 76.2256C105.122 75.7389 105.623 75.3671 106.258 75.1102C106.907 74.8399 107.644 74.7047 108.468 74.7047C109.604 74.7047 110.537 74.9886 111.267 75.5564C111.997 76.1242 112.362 76.8677 112.362 77.7871C112.362 77.9628 112.355 78.098 112.342 78.1926H110.577L110.598 77.9493C110.598 77.4085 110.388 76.9827 109.969 76.6717C109.563 76.3473 109.023 76.185 108.347 76.185C107.684 76.185 107.137 76.3337 106.704 76.6312C106.285 76.9286 106.075 77.3274 106.075 77.8276C106.075 78.3008 106.272 78.6726 106.664 78.943C107.056 79.2133 107.664 79.5108 108.489 79.8352C109.178 80.1056 109.732 80.3557 110.152 80.5855C110.571 80.8018 110.929 81.106 111.226 81.4981C111.524 81.8901 111.672 82.3836 111.672 82.9784C111.672 83.6274 111.476 84.1952 111.084 84.6819C110.706 85.1686 110.179 85.5403 109.503 85.7972C108.827 86.0541 108.063 86.1825 107.211 86.1825Z" fill="#FB8C00"/>
</svg>
