<svg width="85" height="85" viewBox="0 0 85 85" fill="none" xmlns="http://www.w3.org/2000/svg">
<path d="M18.615 0H66.385C76.666 0 85 8.33398 85 18.615V66.385C85 76.666 76.666 85 66.385 85H18.615C8.33398 85 0 76.666 0 66.385V18.615C0 8.33398 8.33398 0 18.615 0Z" fill="url(#paint0_linear_2593_86)"/>
<path d="M27.0701 61.0618L27.078 61.0645L24.1802 66.0839C23.1225 67.9162 20.7799 68.544 18.9477 67.4861C17.1156 66.4283 16.4879 64.0854 17.5457 62.2531L19.6804 58.5554L19.8853 58.2004C20.2511 57.6747 21.154 56.7668 22.9599 56.9376C22.9599 56.9376 27.2098 57.3989 27.5174 59.608C27.5174 59.608 27.5591 60.3347 27.0701 61.0618ZM68.1696 48.2416H59.1335C58.518 48.2003 58.2495 47.9804 58.1436 47.8526L58.137 47.841L48.4642 31.0854L48.4516 31.0937L47.8716 30.262C46.9208 28.8078 45.4111 32.5267 45.4111 32.5267C43.6085 36.6707 45.667 41.3819 46.3845 42.806L59.8198 66.079C60.8772 67.9109 63.2198 68.539 65.0523 67.4808C66.884 66.423 67.5121 64.0801 66.454 62.2478L63.0947 56.4284C63.0294 56.2874 62.9162 55.9046 63.6052 55.9029H68.1696C70.2851 55.9029 72 54.1879 72 52.0721C72 49.9564 70.2851 48.2416 68.1696 48.2416ZM50.6185 53.4488C50.6185 53.4488 51.1008 55.9026 49.2346 55.9026H15.8304C13.7149 55.9026 12 54.1875 12 52.0718C12 49.9561 13.7149 48.241 15.8304 48.241H24.4183C25.8048 48.1609 26.1332 47.3603 26.1332 47.3603L26.1411 47.3642L37.351 27.9459L37.3477 27.9453C37.552 27.5701 37.3818 27.2155 37.3523 27.1596L33.65 20.7465C32.5923 18.9145 33.22 16.5713 35.0521 15.5138C36.8842 14.4563 39.2268 15.0834 40.2846 16.9157L42.0015 19.89L43.7154 16.921C44.7732 15.089 47.1158 14.4609 48.9479 15.5191C50.78 16.5773 51.4077 18.9195 50.35 20.7518L34.7508 47.7728C34.6826 47.9374 34.6618 48.1956 35.1693 48.241H44.4934L44.4954 48.332C44.4954 48.332 49.8845 48.4158 50.6185 53.4488Z" fill="white"/>
<defs>
<linearGradient id="paint0_linear_2593_86" x1="4250" y1="0" x2="4250" y2="8500" gradientUnits="userSpaceOnUse">
<stop stop-color="#17C9FB"/>
<stop offset="1" stop-color="#1A74E8"/>
</linearGradient>
</defs>
</svg>
