<svg width="754" height="535" viewBox="0 0 754 535" fill="none" xmlns="http://www.w3.org/2000/svg">
<g clip-path="url(#clip0_2613_133)">
<rect width="754" height="535" fill="white"/>
<g filter="url(#filter0_d_2613_133)">
<path d="M583.678 20.6572H69.8307C59.1719 20.6572 50.5312 32.8976 50.5312 47.9969V505.937C50.5312 521.036 59.1719 533.277 69.8307 533.277H583.678C594.337 533.277 602.978 521.036 602.978 505.937V47.9969C602.978 32.8976 594.337 20.6572 583.678 20.6572Z" fill="#F2F2F2"/>
</g>
<rect x="1" y="-1" width="754" height="535" rx="50.0856" fill="#F2F2F2"/>
<path d="M470.35 74H285.495C271.414 74 260 85.4143 260 99.4945V436.064C260 450.144 271.414 461.558 285.495 461.558H470.35C484.431 461.558 495.845 450.144 495.845 436.064V99.4945C495.845 85.4143 484.431 74 470.35 74Z" fill="white"/>
<path d="M469.301 399.734H286.544C284.759 399.729 283.048 399.016 281.786 397.753C280.525 396.49 279.814 394.779 279.811 392.993V123.451C279.814 121.665 280.526 119.952 281.789 118.689C283.052 117.425 284.765 116.714 286.551 116.71H469.308C471.094 116.716 472.804 117.428 474.066 118.691C475.328 119.954 476.038 121.666 476.042 123.451V392.993C476.096 393.892 475.958 394.792 475.638 395.634C475.318 396.476 474.823 397.24 474.186 397.876C473.549 398.513 472.784 399.007 471.942 399.326C471.1 399.645 470.2 399.789 469.301 399.734Z" fill="#2F2E41"/>
<path d="M370.571 171.551C363.815 171.57 357.341 174.261 352.564 179.039C347.787 183.816 345.095 190.29 345.076 197.046V300.943C345.071 301.319 345.164 301.69 345.347 302.019C345.53 302.348 345.796 302.623 346.119 302.817C346.442 303.011 346.81 303.116 347.186 303.123C347.562 303.129 347.934 303.037 348.263 302.855L380.131 274.811C380.634 274.327 381.238 273.962 381.899 273.741C382.561 273.521 383.263 273.451 383.956 273.536H560.505C567.261 273.518 573.735 270.826 578.512 266.049C583.289 261.272 585.981 254.798 585.999 248.042V197.053C585.981 190.297 583.289 183.823 578.512 179.046C573.735 174.268 567.261 171.576 560.505 171.558L370.571 171.551Z" fill="#FFF5C5"/>
<path d="M476.035 292.616V392.993C476.089 393.891 475.951 394.791 475.632 395.632C475.312 396.473 474.818 397.237 474.182 397.874C473.545 398.51 472.781 399.004 471.94 399.324C471.099 399.643 470.199 399.781 469.301 399.727H286.544C284.76 399.722 283.051 399.01 281.789 397.749C280.527 396.487 279.816 394.777 279.811 392.993V123.451C279.814 121.665 280.526 119.952 281.789 118.689C283.052 117.425 284.765 116.714 286.551 116.71H469.308C471.094 116.716 472.804 117.428 474.066 118.691C475.328 119.954 476.038 121.666 476.042 123.451V150.484" stroke="#2F2E41" stroke-width="2" stroke-linecap="round" stroke-linejoin="round"/>
<path d="M377.92 442.692C385.362 442.692 391.395 436.659 391.395 429.217C391.395 421.775 385.362 415.742 377.92 415.742C370.478 415.742 364.445 421.775 364.445 429.217C364.445 436.659 370.478 442.692 377.92 442.692Z" fill="#2F2E41"/>
<path d="M344.229 96.5017H411.616M495.845 292.615V436.064C495.827 442.819 493.135 449.293 488.358 454.071C483.58 458.848 477.106 461.54 470.35 461.558H285.495C278.739 461.54 272.265 458.848 267.487 454.071C262.71 449.293 260.018 442.819 260 436.064V99.4945C260.018 92.7386 262.71 86.2646 267.487 81.4874C272.265 76.7102 278.739 74.0183 285.495 74H470.35C477.106 74.0183 483.58 76.7102 488.358 81.4874C493.135 86.2646 495.827 92.7386 495.845 99.4945V150.484" stroke="#2F2E41" stroke-width="2" stroke-linecap="round" stroke-linejoin="round"/>
<path d="M370.571 171.551C363.815 171.57 357.341 174.261 352.564 179.039C347.787 183.816 345.095 190.29 345.076 197.046V300.943C345.071 301.319 345.164 301.69 345.347 302.019C345.53 302.348 345.796 302.623 346.119 302.817C346.442 303.011 346.81 303.116 347.186 303.123C347.562 303.129 347.934 303.037 348.263 302.855L380.131 274.811C380.634 274.327 381.238 273.962 381.899 273.741C382.561 273.521 383.263 273.451 383.956 273.536H560.505C567.261 273.518 573.735 270.826 578.512 266.049C583.289 261.272 585.981 254.798 585.999 248.042V197.053C585.981 190.297 583.289 183.823 578.512 179.046C573.735 174.268 567.261 171.576 560.505 171.558L370.571 171.551Z" stroke="#2F2E41" stroke-width="2" stroke-miterlimit="10"/>
</g>
<defs>
<filter id="filter0_d_2613_133" x="-137.29" y="-167.164" width="969.827" height="930" filterUnits="userSpaceOnUse" color-interpolation-filters="sRGB">
<feFlood flood-opacity="0" result="BackgroundImageFix"/>
<feColorMatrix in="SourceAlpha" type="matrix" values="0 0 0 0 0 0 0 0 0 0 0 0 0 0 0 0 0 0 127 0" result="hardAlpha"/>
<feOffset dx="20.869" dy="20.869"/>
<feGaussianBlur stdDeviation="104.345"/>
<feComposite in2="hardAlpha" operator="out"/>
<feColorMatrix type="matrix" values="0 0 0 0 0.741667 0 0 0 0 0.741667 0 0 0 0 0.741667 0 0 0 0.35 0"/>
<feBlend mode="normal" in2="BackgroundImageFix" result="effect1_dropShadow_2613_133"/>
<feBlend mode="normal" in="SourceGraphic" in2="effect1_dropShadow_2613_133" result="shape"/>
</filter>
<clipPath id="clip0_2613_133">
<rect width="754" height="535" fill="white"/>
</clipPath>
</defs>
</svg>
