<svg width="65" height="92" viewBox="0 0 65 92" fill="none" xmlns="http://www.w3.org/2000/svg">
<path d="M47.9073 68.5384L49.2146 72.6063L47.3545 80.7997L38.856 90.1069C47.5449 90.6326 56.1625 88.2597 63.3575 83.3603C63.3575 83.3603 66.6381 62.0361 46.9543 62.0361C41.7184 65.5267 37.2338 67.9396 32.1914 67.9298H32.3965C27.3541 67.9396 22.8695 65.5267 17.6336 62.0361C-2.05021 62.0361 1.23043 83.3603 1.23043 83.3603C17.5975 93.2366 24.7985 89.4426 47.3545 80.7997L48.3666 75.0242L8.88743 77.2386L17.5975 75.7492" fill="#FB8C00"/>
<path d="M63.3321 83.3622C63.3321 83.3622 66.6127 62.0381 46.9289 62.0381C41.693 65.5287 37.2067 67.94 32.166 67.9301H32.3711C27.3287 67.94 22.8441 65.5287 17.6082 62.0381C-2.0756 62.0381 1.20504 83.3622 1.20504 83.3622" fill="#FB8C00"/>
<path d="M47.3919 62.0381C43.1301 65.294 38.0625 67.3285 32.7324 67.9235C54.1583 68.601 54.1583 76.8026 55.4082 83.3639H63.7951C63.7951 83.3639 67.0758 62.0381 47.3919 62.0381Z" fill="#FB8C00"/>
<path d="M63.7946 83.3621C63.7946 83.3621 44.511 98.1676 29.7793 88.2223L47.3537 80.7999L49.2138 72.6065C49.2138 72.6065 63.9373 68.5648 63.7946 83.3621Z" fill="#FB8C00"/>
<path d="M32.2939 58.2206C42.5662 58.2206 50.8935 47.812 50.8935 34.9723C50.8935 22.1327 42.5662 11.7241 32.2939 11.7241C22.0216 11.7241 13.6943 22.1327 13.6943 34.9723C13.6943 47.812 22.0216 58.2206 32.2939 58.2206Z" fill="#FB8C00"/>
<path d="M53.8985 9.66908C32.2938 16.4223 13.6943 31.8445 13.6943 31.8445C13.6943 31.8445 7.19861 23.0852 10.0249 14.2488C10.0249 14.2488 13.6943 1 31.4081 1C44.0434 1 50.4292 6.19981 53.8985 9.66908C63.9815 23.9809 50.3964 31.984 50.3964 31.984C44.89 27.6939 39.6041 23.128 34.5591 18.3037" fill="white"/>
<path d="M53.8989 9.66895C63.9803 23.9807 50.3968 31.9838 50.3968 31.9838C44.8904 27.6938 39.6046 23.1278 34.5596 18.3036" fill="#F9F9F9"/>
<path d="M32.2943 27.8633C31.4242 27.8633 30.5898 27.5176 29.9745 26.9024C29.3593 26.2872 29.0137 25.4527 29.0137 24.5826V18.0214C29.0137 17.1513 29.3593 16.3168 29.9745 15.7016C30.5898 15.0864 31.4242 14.7407 32.2943 14.7407C33.1644 14.7407 33.9988 15.0864 34.6141 15.7016C35.2293 16.3168 35.5749 17.1513 35.5749 18.0214V24.5826C35.5749 25.4527 35.2293 26.2872 34.6141 26.9024C33.9988 27.5176 33.1644 27.8633 32.2943 27.8633ZM47.3541 80.7996L40.117 83.803V75.1996H48.3661L47.3541 80.7996Z" fill="#FCEA2B"/>
<path d="M38.8557 90.107C47.5436 90.6333 56.1606 88.2616 63.3555 83.3637C63.3555 83.3637 66.6362 62.0396 46.9523 62.0396C41.7164 65.5301 37.2318 67.9414 32.1895 67.9316H32.3945C27.3522 67.9414 22.8676 65.5301 17.6317 62.0396C-2.05216 62.0396 1.22848 83.3637 1.22848 83.3637C17.5956 93.2384 24.7966 89.446 47.3526 80.8015L48.3646 75.0276L8.88548 77.242" stroke="black" stroke-width="1.66956" stroke-linecap="round" stroke-linejoin="round"/>
<path d="M47.9063 68.5386L49.2136 72.6066L47.3535 80.7999" stroke="black" stroke-width="1.66956" stroke-linecap="round" stroke-linejoin="round"/>
<path d="M42.136 32.7401C42.136 33.389 41.9436 34.0232 41.5831 34.5627C41.2226 35.1022 40.7102 35.5227 40.1108 35.771C39.5113 36.0193 38.8517 36.0843 38.2153 35.9577C37.5789 35.8311 36.9944 35.5187 36.5356 35.0599C36.0768 34.6011 35.7643 34.0165 35.6377 33.3801C35.5111 32.7437 35.5761 32.0841 35.8244 31.4847C36.0727 30.8852 36.4932 30.3728 37.0327 30.0124C37.5722 29.6519 38.2065 29.4595 38.8553 29.4595C39.7254 29.4595 40.5599 29.8051 41.1751 30.4203C41.7903 31.0356 42.136 31.87 42.136 32.7401ZM29.0134 32.7401C29.0134 33.389 28.821 34.0232 28.4605 34.5627C28.1001 35.1022 27.5877 35.5227 26.9882 35.771C26.3888 36.0193 25.7291 36.0843 25.0928 35.9577C24.4564 35.8311 23.8718 35.5187 23.413 35.0599C22.9542 34.6011 22.6418 34.0165 22.5152 33.3801C22.3886 32.7437 22.4536 32.0841 22.7019 31.4847C22.9502 30.8852 23.3707 30.3728 23.9102 30.0124C24.4497 29.6519 25.0839 29.4595 25.7328 29.4595C26.6029 29.4595 27.4373 29.8051 28.0525 30.4203C28.6678 31.0356 29.0134 31.87 29.0134 32.7401ZM32.2941 49.1466C30.3245 49.1276 28.387 48.6455 26.6382 47.7392C26.2491 47.5445 25.9532 47.2032 25.8157 46.7904C25.6782 46.3776 25.7103 45.927 25.905 45.5379C26.0997 45.1487 26.441 44.8529 26.8538 44.7154C27.2666 44.5778 27.7172 44.61 28.1063 44.8046C29.3928 45.4985 30.8316 45.8618 32.2932 45.8618C33.7549 45.8618 35.1937 45.4985 36.4802 44.8046C36.8695 44.61 37.3203 44.5779 37.7332 44.7156C38.1462 44.8532 38.4876 45.1493 38.6823 45.5387C38.877 45.928 38.909 46.3788 38.7713 46.7918C38.6337 47.2048 38.3376 47.5461 37.9482 47.7408C36.1998 48.6463 34.263 49.1279 32.2941 49.1466Z" fill="black"/>
<path d="M29.0166 21.2251C26.917 22.4882 24.965 23.7348 23.2263 24.8994C18.0921 28.3277 14.6802 31.0506 13.8765 31.6903C13.7616 31.7888 13.696 31.838 13.696 31.838C13.696 31.838 7.20036 23.0787 10.0217 14.2538C10.0217 14.2538 13.696 1 31.4114 1C44.0419 1 50.4227 6.19981 53.9002 9.67728C63.0532 22.6522 52.7192 30.4273 50.718 31.7724C50.5048 31.92 50.3899 31.9856 50.3899 31.9856C50.3899 31.9856 43.1561 26.4413 35.5779 19.2731" stroke="black" stroke-width="1.66956" stroke-linecap="round" stroke-linejoin="round"/>
<path d="M35.5283 17.518C41.3992 14.3474 47.5489 11.7228 53.8999 9.67725" stroke="black" stroke-width="1.66956" stroke-linecap="round" stroke-linejoin="round"/>
<path d="M40.1161 75.6802V83.4684M13.8218 31.9887C13.7179 32.9925 13.6659 34.001 13.666 35.0101C13.666 47.8505 21.9939 58.2584 32.2656 58.2584C42.5372 58.2584 50.8635 47.8505 50.8635 35.0101C50.8643 33.9691 50.8096 32.9287 50.6995 31.8935M32.2935 27.8633C31.4234 27.8633 30.5889 27.5176 29.9737 26.9024C29.3585 26.2872 29.0128 25.4527 29.0128 24.5826V18.0214C29.0128 17.1513 29.3585 16.3168 29.9737 15.7016C30.5889 15.0864 31.4234 14.7407 32.2935 14.7407C33.1635 14.7407 33.998 15.0864 34.6132 15.7016C35.2285 16.3168 35.5741 17.1513 35.5741 18.0214V24.5826C35.5741 25.4527 35.2285 26.2872 34.6132 26.9024C33.998 27.5176 33.1635 27.8633 32.2935 27.8633Z" stroke="black" stroke-width="1.66956" stroke-linecap="round" stroke-linejoin="round"/>
</svg>
