<svg width="60" height="436" viewBox="0 0 60 436" fill="none" xmlns="http://www.w3.org/2000/svg">
<g filter="url(#filter0_d_1081_2)">
<path fill-rule="evenodd" clip-rule="evenodd" d="M10.1921 418.955C10.3519 420.805 10.6155 421.604 12.1191 424.784C13.0405 426.732 16.6352 430.584 17.5395 430.592C17.9085 430.595 18.2088 430.81 18.2066 431.07C18.2045 431.33 18.6242 431.546 19.1393 431.55C19.6544 431.554 20.0743 431.748 20.0723 431.981C20.0684 432.457 23.0959 433.048 25.9169 433.121C28.4045 433.185 31.7754 432.578 31.7797 432.065C31.7815 431.84 32.2045 431.659 32.7196 431.663C33.2348 431.667 33.658 431.458 33.6601 431.198C33.6623 430.938 33.9296 430.728 34.2541 430.731C35.0656 430.737 38.8462 427.034 38.8529 426.226C38.8559 425.866 39.0541 425.573 39.2929 425.575C39.5322 425.577 40.1799 424.39 40.7324 422.937C42.2894 418.843 42.0533 408.86 40.3542 406.944C40.1338 406.695 39.9558 406.2 39.9587 405.844C39.9659 404.982 38.813 403.836 37.9312 403.829C36.9628 403.821 26.8198 408.973 26.8156 409.475C26.8138 409.697 27.023 409.881 27.2806 409.883C27.5554 409.885 27.7353 411.523 27.7159 413.852C27.6815 418.002 27.4774 418.389 25.3359 418.372C24.175 418.362 23.7671 416.215 24.2033 412.406C24.5638 409.261 24.0543 407.966 22.4518 407.953C22.0683 407.949 21.6861 407.787 21.6015 407.591C21.3585 407.027 14.6765 403.636 13.7933 403.628C13.0061 403.622 11.3857 406.5 11.3739 407.925C11.3707 408.305 11.1806 408.817 10.9509 409.062C10.4638 409.583 9.95546 416.207 10.1921 418.955ZM11.5144 367.413C12.8274 367.933 40.2669 367.974 41.2449 367.457C42.0695 367.02 42.1592 366.425 42.2035 361.086L42.2524 355.197L26.5647 355.067L10.877 354.937L10.8265 361.028C10.784 366.147 10.894 367.167 11.5144 367.413ZM12.098 338.229C12.6572 338.785 13.5313 339.841 14.0403 340.575C14.5494 341.31 15.3893 342.355 15.907 342.897C16.4247 343.439 17.297 344.634 17.8458 345.553C18.395 346.471 19.3797 347.739 20.0348 348.37C20.6894 349.001 21.2236 349.695 21.2218 349.912C21.2168 350.518 23.8025 353.154 24.4066 353.159C24.7283 353.162 24.9484 352.316 24.959 351.037L24.9767 348.911L29.3865 348.948C34.0928 348.987 37.4657 348.029 39.0074 346.216C39.4203 345.731 40.0811 344.946 40.4751 344.473C42.5404 341.992 42.9564 335.936 41.305 332.391L40.4763 330.612L35.8745 330.574C33.3115 330.553 31.1426 330.744 30.9793 331.006C30.8179 331.265 30.8845 331.478 31.1271 331.48C31.6792 331.484 32.0945 333.642 31.7736 334.84C31.5667 335.611 31.0834 335.732 28.3097 335.709L25.0865 335.682L25.1033 333.651C25.1126 332.533 24.8694 331.362 24.5629 331.047C24.2514 330.728 22.7465 330.465 21.1491 330.452C19.5518 330.439 18.0428 330.676 17.7259 330.991C17.4143 331.3 17.1517 332.467 17.1424 333.585L17.1256 335.616L14.0817 335.591C11.4841 335.569 11.041 335.687 11.0595 336.393C11.0717 336.848 11.5387 337.674 12.098 338.229ZM18.6023 268.061L25.606 268.119L25.7721 264.695L25.9382 261.271L33.6657 261.252C37.9158 261.242 41.7679 261.221 42.2255 261.205C42.9896 261.179 43.0523 260.619 42.9842 254.443L42.9103 247.709L34.3651 247.509L25.8199 247.31L25.8492 243.777L25.8786 240.244L18.8542 240.186L11.8299 240.127L11.7142 254.065L11.5986 268.003L18.6023 268.061ZM17.3237 401.008C18.8114 401.599 35.7459 401.475 36.8155 400.866C38.4195 399.953 40.673 397.601 41.327 396.157C42.6661 393.2 41.7983 388.52 39.4883 386.241C38.2271 384.997 38.2112 384.931 39.1769 384.939C39.736 384.944 40.6032 384.731 41.1037 384.466C41.925 384.031 42.018 383.437 42.0602 378.348C42.1025 373.259 42.0194 372.663 41.2054 372.215C40.6567 371.913 35.9693 371.682 29.2344 371.627C20.2657 371.552 18.0375 371.662 17.4911 372.204C16.9811 372.71 16.8048 374.262 16.7691 378.568C16.7128 385.347 15.797 384.703 25.8484 384.95L32.8717 385.123L33.0101 386.728C33.0935 387.694 32.9005 388.49 32.5253 388.725C32.1825 388.941 28.7302 389.093 24.8541 389.066C20.0054 389.03 17.6297 389.189 17.2397 389.576C16.8666 389.947 16.6581 391.944 16.6292 395.427C16.5927 399.813 16.7113 400.766 17.3237 401.008ZM17.8361 327.54C18.5936 328.185 34.6768 328.169 37.0552 327.521C42.7051 325.982 44.4785 317.023 40.0359 312.465C39.3946 311.807 38.8713 311.153 38.8725 311.012C38.8737 310.87 39.7176 310.761 40.7478 310.77L42.621 310.785L42.6657 305.391C42.6904 302.424 42.5855 299.659 42.4325 299.246C42.1892 298.59 40.6826 298.484 30.3568 298.399C21.8054 298.328 18.4034 298.455 17.9926 298.863C17.2111 299.638 17.1237 310.17 17.8922 310.958C18.2799 311.356 20.7703 311.549 26.0825 311.593L33.7156 311.656L33.7036 313.107C33.6823 315.678 33.0981 315.866 24.9445 315.942L17.5224 316.011L17.3458 321.491C17.2066 325.798 17.3115 327.094 17.8361 327.54ZM17.8665 293.46C18.1544 293.926 20.9791 294.056 30.3823 294.036L42.526 294.011L42.577 287.869L42.628 281.727L36.3086 281.377C32.8329 281.184 29.5161 280.866 28.9384 280.669C27.6364 280.228 27.5902 278.964 28.8429 278.069C29.5981 277.529 29.7896 276.853 29.8078 274.665C29.8203 273.159 29.6202 271.932 29.3621 271.93C29.1046 271.928 28.8959 271.685 28.8983 271.391C28.9057 270.499 27.0196 269.114 25.3471 268.783C22.0682 268.134 19.9547 269.146 18.2374 272.186C16.9874 274.399 17.8953 277.971 20.1771 279.812C21.4043 280.803 21.2409 281.313 19.6993 281.3C17.8617 281.285 17.5689 282.141 17.5308 287.637C17.5112 290.509 17.6622 293.129 17.8665 293.46ZM18.4585 231.441C18.6757 231.963 18.8658 232.921 18.881 233.571C18.8962 234.221 19.3751 235.713 19.9447 236.887L20.9802 239.022L24.6036 239.19C26.597 239.283 28.2256 239.19 28.2236 238.984C28.2216 238.778 27.9228 237.757 27.5606 236.714C26.5767 233.886 26.6924 229.252 27.771 228.284C28.2457 227.858 28.7754 227.511 28.9482 227.512C29.121 227.513 29.2511 228.879 29.2373 230.546C29.2081 234.062 30.3768 237.365 32.0432 238.479C32.6496 238.884 33.9204 239.479 34.867 239.801C37.3416 240.642 40.7933 239.153 42.2286 236.626C43.4097 234.547 43.605 230.877 42.6304 229.067C42.1 228.081 42.108 227.748 42.6809 226.882C43.1917 226.11 43.3358 224.49 43.2708 220.248L43.1848 214.636L34.7745 214.437C25.2741 214.212 23.7203 214.539 21.1746 217.296C20.3665 218.172 19.3326 220.073 18.8776 221.52C18.0127 224.272 17.7789 229.808 18.4585 231.441ZM18.7314 209.85C19.1409 210.27 23.1618 210.454 33.9076 210.543C41.9481 210.61 48.8611 210.538 49.2699 210.384C49.8942 210.148 50.0212 209.13 50.0636 204.012L50.1142 197.92L46.3178 197.889C42.8801 197.86 42.5553 197.78 42.8813 197.033C43.079 196.58 43.3446 194.935 43.4708 193.376C43.86 188.581 41.0595 183.835 36.7254 181.945C33.648 180.603 25.4387 181.066 23.3121 182.701C21.3339 184.223 20.7001 184.98 19.5947 187.138C18.0847 190.086 17.9613 192.715 19.2074 195.373C20.1029 197.284 20.1028 197.299 19.1895 197.532C18.3396 197.748 18.266 198.203 18.2219 203.523C18.19 207.369 18.3589 209.468 18.7314 209.85ZM29.2718 194.17C29.6425 193.802 30.804 193.507 31.853 193.516L33.7594 193.532L33.7417 195.658L33.7241 197.784L31.8313 197.768C28.9536 197.745 27.5945 195.834 29.2718 194.17ZM35.7007 227.659C37.6865 227.531 37.6921 227.535 37.6786 229.16C37.6673 230.524 37.4647 230.838 36.4356 231.09C34.9649 231.449 33.436 230.177 33.6012 228.732C33.6875 227.978 34.1113 227.762 35.7007 227.659Z" fill="#FB8C00"/>
</g>
<rect x="3.76855" y="152" width="152" height="55.2728" rx="6.281" transform="rotate(-90 3.76855 152)" fill="#FB8C00"/>
<path d="M29.9708 129.604C27.2373 129.122 24.7852 128.077 22.6145 126.469C20.4169 124.834 18.7152 122.837 17.5093 120.479C16.2765 118.121 15.6601 115.642 15.6601 113.042C15.6601 110.041 16.3971 107.535 17.871 105.525C19.345 103.489 21.4219 102.175 24.1018 101.586V105.968C22.4671 106.45 21.2075 107.361 20.3231 108.701C19.412 110.014 18.9564 111.649 18.9564 113.605C18.9564 115.562 19.412 117.411 20.3231 119.153C21.2075 120.868 22.4939 122.315 24.1822 123.494C25.8437 124.673 27.7732 125.464 29.9708 125.866C30.6675 126 31.4715 126.067 32.3827 126.067C35.009 126.067 37.0993 125.29 38.6536 123.735C40.1812 122.181 40.9449 120.104 40.9449 117.504C40.9449 114.744 40.1276 112.332 38.4928 110.269C36.8313 108.205 34.5936 106.785 31.7797 106.008V117.183L28.8854 116.66V101.586L31.6993 102.108C34.004 102.725 36.1211 103.824 38.0506 105.405C39.9534 106.959 41.4675 108.848 42.5931 111.073C43.6918 113.27 44.2412 115.602 44.2412 118.067C44.2412 120.372 43.7722 122.422 42.8342 124.218C41.8695 125.986 40.5161 127.366 38.7742 128.358C37.0323 129.35 35.0358 129.845 32.7846 129.845C31.8735 129.845 30.9355 129.765 29.9708 129.604ZM21.6095 85.9761C21.6095 84.1269 21.9713 82.5324 22.6949 81.1925C23.3916 79.8257 24.3832 78.794 25.6695 78.0972C26.9291 77.3736 28.3762 77.0118 30.011 77.0118C30.5737 77.0118 31.2571 77.0788 32.0611 77.2128C32.7578 77.32 33.4814 77.4942 34.2318 77.7354V95.3423C34.7678 95.3959 35.1564 95.4227 35.3975 95.4227C37.2467 95.4227 38.6938 94.8733 39.739 93.7746C40.7573 92.649 41.2665 91.1885 41.2665 89.3929C41.2665 87.8118 40.9047 86.4316 40.1812 85.2525C39.4308 84.0465 38.4392 83.1354 37.2065 82.519V78.5796C39.3236 79.5443 41.0521 81.0317 42.3921 83.0416C43.7052 85.0247 44.3618 87.3294 44.3618 89.9557C44.3618 92.716 43.5712 94.9403 41.9901 96.6286C40.3821 98.2902 38.198 99.1209 35.4377 99.1209C34.6606 99.1209 33.8298 99.0405 32.9454 98.8798C30.6675 98.4778 28.671 97.6604 26.9559 96.4276C25.2407 95.1949 23.9276 93.6808 23.0164 91.8852C22.0785 90.0629 21.6095 88.0932 21.6095 85.9761ZM31.5787 80.9111C31.0427 80.8307 30.5469 80.7905 30.0914 80.7905C28.3762 80.7905 27.0497 81.3399 26.1117 82.4386C25.1738 83.5106 24.7048 84.9175 24.7048 86.6594C24.7048 88.5354 25.3211 90.2371 26.5539 91.7646C27.7598 93.2922 29.4348 94.3239 31.5787 94.8599V80.9111ZM21.5693 59.8022C21.5693 57.5243 22.1857 55.702 23.4184 54.3352C24.6244 52.9685 26.3931 52.2851 28.7246 52.2851C29.5822 52.2851 30.3459 52.3521 31.0159 52.4861L44 54.7774V58.3953L31.5385 56.1843C30.9757 56.0772 30.3861 56.0236 29.7698 56.0236C28.135 56.0236 26.8889 56.4791 26.0313 57.3903C25.1738 58.2747 24.745 59.5208 24.745 61.1288C24.745 63.0583 25.3479 64.7064 26.5539 66.0732C27.7598 67.4131 29.5152 68.2841 31.8199 68.686H31.7395L44 70.8568V74.5148L21.9713 70.6156V66.9575L25.147 67.5203C23.9946 66.6091 23.1102 65.4702 22.4939 64.1034C21.8775 62.7367 21.5693 61.3029 21.5693 59.8022ZM18.3936 42.4104C18.3936 43 18.206 43.4958 17.8308 43.8978C17.4289 44.273 16.9331 44.4606 16.3435 44.4606C15.5395 44.4606 14.8562 44.1658 14.2934 43.5762C13.7038 42.9866 13.409 42.3032 13.409 41.5261C13.409 40.9097 13.5966 40.4139 13.9718 40.0387C14.347 39.6635 14.8428 39.476 15.4591 39.476C16.2631 39.476 16.9599 39.7707 17.5495 40.3603C18.1122 40.9499 18.3936 41.6333 18.3936 42.4104ZM21.9713 41.2447L44 45.1439V48.802L21.9713 44.9027V41.2447ZM21.6095 25.4429C21.6095 23.5938 21.9713 21.9993 22.6949 20.6593C23.3916 19.2926 24.3832 18.2608 25.6695 17.5641C26.9291 16.8405 28.3762 16.4787 30.011 16.4787C30.5737 16.4787 31.2571 16.5457 32.0611 16.6797C32.7578 16.7869 33.4814 16.9611 34.2318 17.2023L34.2318 34.8092C34.7678 34.8628 35.1564 34.8896 35.3975 34.8896C37.2467 34.8896 38.6938 34.3402 39.739 33.2414C40.7573 32.1159 41.2665 30.6553 41.2665 28.8598C41.2665 27.2787 40.9047 25.8985 40.1812 24.7194C39.4308 23.5134 38.4392 22.6023 37.2065 21.9859L37.2065 18.0464C39.3236 19.0112 41.0521 20.4985 42.3921 22.5085C43.7052 24.4916 44.3618 26.7963 44.3618 29.4226C44.3618 32.1829 43.5712 34.4072 41.9901 36.0955C40.3821 37.7571 38.198 38.5878 35.4377 38.5878C34.6606 38.5878 33.8298 38.5074 32.9454 38.3466C30.6675 37.9446 28.671 37.1273 26.9559 35.8945C25.2407 34.6618 23.9276 33.1476 23.0164 31.3521C22.0785 29.5298 21.6095 27.5601 21.6095 25.4429ZM31.5787 20.3779C31.0427 20.2976 30.5469 20.2574 30.0914 20.2574C28.3762 20.2574 27.0497 20.8067 26.1117 21.9055C25.1738 22.9774 24.7048 24.3844 24.7048 26.1263C24.7048 28.0022 25.3211 29.704 26.5539 31.2315C27.7598 32.7591 29.4348 33.7908 31.5787 34.3268L31.5787 20.3779Z" fill="white"/>
<defs>
<filter id="filter0_d_1081_2" x="9.15333" y="181.16" width="41.9394" height="253.923" filterUnits="userSpaceOnUse" color-interpolation-filters="sRGB">
<feFlood flood-opacity="0" result="BackgroundImageFix"/>
<feColorMatrix in="SourceAlpha" type="matrix" values="0 0 0 0 0 0 0 0 0 0 0 0 0 0 0 0 0 0 127 0" result="hardAlpha"/>
<feOffset dy="0.97851"/>
<feGaussianBlur stdDeviation="0.489255"/>
<feComposite in2="hardAlpha" operator="out"/>
<feColorMatrix type="matrix" values="0 0 0 0 0 0 0 0 0 0 0 0 0 0 0 0 0 0 0.25 0"/>
<feBlend mode="normal" in2="BackgroundImageFix" result="effect1_dropShadow_1081_2"/>
<feBlend mode="normal" in="SourceGraphic" in2="effect1_dropShadow_1081_2" result="shape"/>
</filter>
</defs>
</svg>
