<svg width="182" height="96" viewBox="0 0 182 96" fill="none" xmlns="http://www.w3.org/2000/svg">
<rect x="22.75" width="139.435" height="95.4032" rx="5.77472" fill="#FB8C00"/>
<path d="M39.8855 44.3174C40.329 41.8042 41.2899 39.5498 42.7683 37.554C44.2712 35.5337 46.1068 33.9691 48.275 32.8603C50.4432 31.727 52.7223 31.1603 55.1123 31.1603C57.8718 31.1603 60.1756 31.8378 62.0235 33.193C63.896 34.5481 65.1033 36.4576 65.6454 38.9215H61.6169C61.1734 37.4185 60.3357 36.2605 59.1038 35.4474C57.8965 34.6097 56.3935 34.1908 54.5949 34.1908C52.7963 34.1908 51.0962 34.6097 49.4946 35.4474C47.9178 36.2605 46.5873 37.4432 45.5032 38.9954C44.4191 40.523 43.6922 42.297 43.3226 44.3174C43.1994 44.958 43.1378 45.6972 43.1378 46.5349C43.1378 48.9495 43.8524 50.8713 45.2814 52.3004C46.7105 53.7048 48.62 54.407 51.0099 54.407C53.5477 54.407 55.7652 53.6555 57.6624 52.1525C59.5596 50.6249 60.8655 48.5676 61.58 45.9805H51.3056L51.7861 43.3195H65.6454L65.1649 45.9066C64.5982 48.0255 63.5881 49.972 62.1344 51.746C60.7053 53.4954 58.9683 54.8875 56.9233 55.9223C54.9029 56.9325 52.7593 57.4376 50.4925 57.4376C48.3736 57.4376 46.4887 57.0064 44.8379 56.144C43.2118 55.257 41.9429 54.0128 41.0312 52.4113C40.1196 50.8097 39.6638 48.9741 39.6638 46.9045C39.6638 46.0668 39.7377 45.2044 39.8855 44.3174ZM79.997 36.6301C81.6971 36.6301 83.1631 36.9627 84.3951 37.628C85.6516 38.2686 86.6002 39.1802 87.2408 40.3629C87.9061 41.5209 88.2387 42.8514 88.2387 44.3544C88.2387 44.8718 88.1771 45.5001 88.0539 46.2392C87.9554 46.8798 87.7952 47.5451 87.5735 48.235H71.3858C71.3365 48.7277 71.3118 49.085 71.3118 49.3068C71.3118 51.0068 71.8169 52.3373 72.8271 53.2982C73.862 54.2345 75.2048 54.7027 76.8556 54.7027C78.3093 54.7027 79.5782 54.37 80.6623 53.7048C81.771 53.0149 82.6087 52.1033 83.1754 50.9699H86.7973C85.9103 52.9163 84.5429 54.5056 82.695 55.7375C80.8717 56.9448 78.7528 57.5484 76.3382 57.5484C73.8004 57.5484 71.7553 56.8216 70.2031 55.3679C68.6755 53.8896 67.9117 51.8815 67.9117 49.3437C67.9117 48.6292 67.9856 47.8654 68.1334 47.0523C68.503 44.958 69.2545 43.1224 70.3879 41.5455C71.5213 39.9686 72.9134 38.7613 74.5642 37.9236C76.2396 37.0613 78.0506 36.6301 79.997 36.6301ZM84.6538 45.7957C84.7277 45.303 84.7646 44.8471 84.7646 44.4283C84.7646 42.8514 84.2595 41.6318 83.2493 40.7694C82.2638 39.9071 80.9703 39.4759 79.3687 39.4759C77.644 39.4759 76.0795 40.0426 74.675 41.1759C73.2706 42.2847 72.322 43.8246 71.8293 45.7957H84.6538ZM104.061 36.5931C106.155 36.5931 107.831 37.1598 109.087 38.2932C110.344 39.402 110.972 41.0281 110.972 43.1717C110.972 43.9601 110.911 44.6623 110.788 45.2783L108.681 57.2158H105.355L107.387 45.7588C107.486 45.2414 107.535 44.6993 107.535 44.1326C107.535 42.6296 107.116 41.4839 106.279 40.6955C105.466 39.9071 104.32 39.5128 102.842 39.5128C101.068 39.5128 99.5523 40.0672 98.2957 41.1759C97.0637 42.2847 96.263 43.8985 95.8934 46.0175V45.9436L93.8976 57.2158H90.5344L94.1194 36.9627H97.4826L96.9652 39.8824C97.8029 38.8229 98.8501 38.0099 100.107 37.4432C101.363 36.8765 102.681 36.5931 104.061 36.5931ZM120.051 33.6734C119.509 33.6734 119.053 33.501 118.684 33.156C118.339 32.7864 118.166 32.3306 118.166 31.7886C118.166 31.0494 118.437 30.4211 118.979 29.9037C119.521 29.3616 120.15 29.0906 120.864 29.0906C121.431 29.0906 121.887 29.2631 122.232 29.608C122.577 29.953 122.749 30.4088 122.749 30.9755C122.749 31.7146 122.478 32.3553 121.936 32.8973C121.394 33.4147 120.766 33.6734 120.051 33.6734ZM121.123 36.9627L117.538 57.2158H114.175L117.76 36.9627H121.123ZM135.651 36.6301C137.351 36.6301 138.817 36.9627 140.049 37.628C141.306 38.2686 142.254 39.1802 142.895 40.3629C143.56 41.5209 143.893 42.8514 143.893 44.3544C143.893 44.8718 143.831 45.5001 143.708 46.2392C143.609 46.8798 143.449 47.5451 143.227 48.235H127.04C126.99 48.7277 126.966 49.085 126.966 49.3068C126.966 51.0068 127.471 52.3373 128.481 53.2982C129.516 54.2345 130.859 54.7027 132.509 54.7027C133.963 54.7027 135.232 54.37 136.316 53.7048C137.425 53.0149 138.263 52.1033 138.829 50.9699H142.451C141.564 52.9163 140.197 54.5056 138.349 55.7375C136.526 56.9448 134.407 57.5484 131.992 57.5484C129.454 57.5484 127.409 56.8216 125.857 55.3679C124.329 53.8896 123.566 51.8815 123.566 49.3437C123.566 48.6292 123.639 47.8654 123.787 47.0523C124.157 44.958 124.908 43.1224 126.042 41.5455C127.175 39.9686 128.567 38.7613 130.218 37.9236C131.893 37.0613 133.704 36.6301 135.651 36.6301ZM140.308 45.7957C140.382 45.303 140.419 44.8471 140.419 44.4283C140.419 42.8514 139.913 41.6318 138.903 40.7694C137.918 39.9071 136.624 39.4759 135.023 39.4759C133.298 39.4759 131.733 40.0426 130.329 41.1759C128.925 42.2847 127.976 43.8246 127.483 45.7957H140.308Z" fill="white"/>
<path fill-rule="evenodd" clip-rule="evenodd" d="M48.6542 10.313C47.9659 10.3751 47.6695 10.4711 46.4907 11.0142C45.7684 11.347 44.3459 12.6344 44.3459 12.9554C44.3459 13.0864 44.2668 13.1937 44.1701 13.1937C44.0734 13.1937 43.9942 13.3433 43.9942 13.5262C43.9942 13.709 43.9234 13.8587 43.8369 13.8587C43.6594 13.8587 43.4489 14.9351 43.4305 15.9367C43.4143 16.82 43.6506 18.0148 43.8416 18.0148C43.9255 18.0148 43.9942 18.1644 43.9942 18.3473C43.9942 18.5302 44.0734 18.6798 44.1701 18.6798C44.2668 18.6798 44.3459 18.774 44.3459 18.8892C44.3459 19.1774 45.736 20.5085 46.0367 20.5085C46.1707 20.5085 46.2803 20.578 46.2803 20.6628C46.2803 20.7477 46.7241 20.9741 47.2664 21.166C48.795 21.7066 52.5093 21.5934 53.2174 20.9846C53.3094 20.9056 53.493 20.841 53.6256 20.841C53.9463 20.841 54.3692 20.4283 54.3692 20.1153C54.3692 19.7715 52.4205 16.1861 52.2336 16.1861C52.1509 16.1861 52.0832 16.2609 52.0832 16.3523C52.0832 16.4499 51.4741 16.5186 50.6073 16.5186C49.0627 16.5186 48.918 16.4473 48.918 15.687C48.918 15.2749 49.7158 15.1238 51.1347 15.2674C52.3064 15.3861 52.7866 15.2014 52.7866 14.6325C52.7866 14.4964 52.8459 14.3602 52.9185 14.3296C53.1278 14.2417 54.3692 11.8597 54.3692 11.5462C54.3692 11.2667 53.2932 10.7 52.7627 10.7C52.6211 10.7 52.43 10.634 52.3382 10.5532C52.143 10.3818 49.676 10.2209 48.6542 10.313ZM67.8404 10.6305C67.6506 11.0981 67.7201 20.8388 67.9156 21.1844C68.0808 21.4759 68.3025 21.506 70.2896 21.506H72.4815V15.9367V10.3675H70.2143C68.3092 10.3675 67.9301 10.4096 67.8404 10.6305ZM78.7032 10.7517C78.4981 10.9519 78.1079 11.2652 77.8361 11.4481C77.5642 11.631 77.178 11.9322 76.9779 12.1176C76.7776 12.3029 76.3356 12.6161 75.9955 12.8136C75.6554 13.0113 75.1866 13.3646 74.9538 13.599C74.7209 13.8332 74.4644 14.0249 74.3837 14.0249C74.158 14.0249 73.1849 14.9506 73.1849 15.165C73.1849 15.2792 73.5004 15.3549 73.9762 15.3549H74.7675V16.9204C74.7675 18.5912 75.1343 19.7856 75.8138 20.3276C75.9958 20.4727 76.2898 20.705 76.4673 20.8435C77.397 21.5693 79.6519 21.6991 80.9661 21.1025L81.6256 20.8031V19.1694C81.6256 18.2595 81.5477 17.4901 81.4497 17.4329C81.353 17.3764 81.2739 17.4007 81.2739 17.4868C81.2739 17.6828 80.472 17.8366 80.0254 17.7262C79.7379 17.655 79.6912 17.4838 79.6912 16.4991V15.3549H80.4474C80.8633 15.3549 81.2985 15.2651 81.4146 15.1554C81.5326 15.0438 81.6256 14.5088 81.6256 13.9418C81.6256 13.3747 81.5326 12.8397 81.4146 12.7282C81.2985 12.6185 80.8633 12.5287 80.4474 12.5287H79.6912V11.4481C79.6912 10.5259 79.6461 10.369 79.3835 10.3776C79.2142 10.3833 78.908 10.5515 78.7032 10.7517ZM104.837 12.8539V15.3402L106.112 15.3891L107.387 15.438L107.418 18.181C107.435 19.6897 107.455 21.0571 107.462 21.2195C107.474 21.4907 107.683 21.5113 109.981 21.4689L112.487 21.4228L112.535 18.3888L112.583 15.3549H113.898H115.212V12.8612V10.3675H110.025H104.837V12.8539ZM55.3552 12.7917C55.1402 13.3215 55.2384 19.3326 55.4683 19.7105C55.8131 20.2772 56.6953 21.0702 57.235 21.2981C58.3395 21.7648 60.0785 21.4429 60.9195 20.6162C61.3787 20.1648 61.4031 20.159 61.4031 20.5018C61.4031 20.7003 61.4851 21.0075 61.5851 21.1844C61.7495 21.4747 61.9709 21.506 63.865 21.506C65.759 21.506 65.9804 21.4747 66.1449 21.1844C66.2556 20.9888 66.3269 19.3241 66.3269 16.9332C66.3269 13.7493 66.2792 12.9586 66.0756 12.7663C65.8857 12.5867 65.3075 12.5287 63.705 12.5287C61.1821 12.5287 61.4188 12.2017 61.3578 15.7705L61.3152 18.2642L60.7182 18.318C60.3591 18.3504 60.0623 18.2843 59.9735 18.1518C59.8923 18.0308 59.8247 16.8057 59.8231 15.4297C59.8214 13.7084 59.7547 12.8655 59.6095 12.7282C59.4706 12.5969 58.7266 12.5287 57.4302 12.5287C55.7976 12.5287 55.4437 12.5736 55.3552 12.7917ZM82.6989 12.7571C82.4614 13.0279 82.5171 18.7371 82.7656 19.5795C83.3559 21.5806 86.6956 22.1837 88.3781 20.5933C88.6208 20.3637 88.8626 20.176 88.9153 20.176C88.9681 20.176 89.0112 20.4752 89.0112 20.841V21.506H91.019C92.1233 21.506 93.152 21.4606 93.305 21.405C93.5485 21.3168 93.5832 20.7816 93.5832 17.1159C93.5832 14.0801 93.5252 12.8728 93.3722 12.7282C93.0811 12.4531 89.1615 12.4531 88.8705 12.7282C88.7237 12.867 88.6595 13.7516 88.6595 15.6375V18.3473H88.1194C87.1628 18.3473 87.0907 18.1405 87.0374 15.2463L86.9889 12.6118L84.9487 12.5653C83.3454 12.5285 82.8635 12.5696 82.6989 12.7571ZM95.3826 12.6675C95.2101 12.7711 95.1704 13.7742 95.2068 17.1121L95.2537 21.4228H97.5398H99.8258L99.9366 19.1785C99.9976 17.9441 100.106 16.7658 100.177 16.5601C100.337 16.0967 100.808 16.0765 101.145 16.5186C101.348 16.7851 101.6 16.8511 102.414 16.8511C102.975 16.8511 103.431 16.7764 103.431 16.6848C103.431 16.5934 103.52 16.5186 103.63 16.5186C103.962 16.5186 104.471 15.845 104.589 15.2503C104.821 14.0844 104.438 13.3371 103.301 12.7365C102.474 12.2993 101.147 12.6321 100.469 13.4475C100.104 13.8861 99.9137 13.8296 99.9137 13.2823C99.9137 12.6299 99.5942 12.5285 97.5485 12.5312C96.4797 12.5327 95.5052 12.594 95.3826 12.6675ZM118.466 12.6949C118.272 12.7736 117.916 12.8439 117.674 12.8512C117.432 12.8585 116.879 13.0329 116.443 13.2386L115.652 13.6124L115.601 14.8992C115.572 15.6071 115.612 16.1849 115.689 16.1836C115.765 16.1823 116.144 16.0732 116.531 15.9415C117.581 15.584 119.306 15.6114 119.669 15.9914C119.829 16.1587 119.96 16.3457 119.96 16.407C119.96 16.4684 119.452 16.5186 118.832 16.5186C117.524 16.5186 116.298 16.9432 115.888 17.538C115.739 17.7545 115.522 18.2073 115.405 18.5443C115.1 19.4252 115.664 20.6461 116.609 21.1482C117.387 21.5613 118.753 21.6198 119.424 21.2686C119.789 21.0774 119.913 21.0792 120.237 21.28C120.526 21.4591 121.13 21.5055 122.708 21.4699L124.796 21.4228L124.844 18.4367C124.899 15.0636 124.772 14.513 123.738 13.6174C123.41 13.3332 122.699 12.9717 122.159 12.8145C121.132 12.5156 119.071 12.4489 118.466 12.6949ZM126.502 12.7282C126.347 12.8748 126.291 14.3027 126.291 18.1175C126.291 20.972 126.339 23.4258 126.398 23.5704C126.487 23.7913 126.866 23.8334 128.771 23.8334H131.039V22.4856C131.039 21.2652 131.068 21.1497 131.346 21.2632C131.516 21.3321 132.129 21.4215 132.709 21.4617C134.495 21.5858 136.253 20.5776 136.943 19.0335C137.433 17.9372 137.235 15.0244 136.62 14.2743C136.047 13.5765 135.764 13.3538 134.957 12.9677C133.855 12.4404 132.877 12.4043 131.891 12.8545C131.183 13.178 131.177 13.178 131.088 12.8545C131.005 12.5535 130.835 12.5287 128.855 12.5287C127.423 12.5287 126.643 12.5949 126.502 12.7282ZM132.37 16.4237C132.508 16.5542 132.621 16.9656 132.621 17.338V18.0148H131.83H131.039V17.3428C131.039 16.3213 131.746 15.8332 132.37 16.4237ZM119.926 18.8045C119.98 19.509 119.979 19.511 119.374 19.511C118.866 19.511 118.749 19.44 118.652 19.0754C118.514 18.5544 118.982 18.008 119.521 18.0623C119.801 18.0908 119.883 18.2406 119.926 18.8045Z" fill="white"/>
<path d="M58.6345 74.6937C58.4838 75.5431 58.1277 76.2486 57.566 76.8102C57.018 77.3582 56.3468 77.7555 55.5523 78.002C56.2235 78.1116 56.7715 78.4404 57.1961 78.9884C57.6208 79.5226 57.8331 80.1596 57.8331 80.8994C57.8331 81.1185 57.8126 81.3309 57.7715 81.5364C57.6482 82.2624 57.3468 82.9199 56.8674 83.509C56.4016 84.0844 55.7851 84.5433 55.018 84.8857C54.2509 85.2145 53.3878 85.3789 52.4289 85.3789H47.0863L49.6343 71.0567H54.7714C56.0591 71.0567 57.0317 71.3307 57.6893 71.8786C58.3605 72.4266 58.6962 73.1389 58.6962 74.0156C58.6962 74.2348 58.6756 74.4609 58.6345 74.6937ZM56.703 74.9198C56.7304 74.7965 56.7441 74.6252 56.7441 74.4061C56.7441 73.817 56.5386 73.3581 56.1276 73.0293C55.7167 72.7006 55.1207 72.5362 54.3399 72.5362H51.2371L50.3946 77.2828H53.5385C54.4016 77.2828 55.1139 77.0774 55.6756 76.6664C56.2372 76.2417 56.5797 75.6595 56.703 74.9198ZM55.9221 81.3514C55.9632 81.1596 55.9838 80.9816 55.9838 80.8172C55.9838 80.187 55.7509 79.687 55.2851 79.3171C54.8194 78.9473 54.1824 78.7623 53.3741 78.7623H50.1275L49.2234 83.8994H52.5317C53.4495 83.8994 54.2098 83.6734 54.8125 83.2213C55.4153 82.7693 55.7851 82.146 55.9221 81.3514ZM71.668 74.1184L69.6748 85.3789H67.8049L68.0926 83.735C67.6405 84.3104 67.0651 84.7556 66.3665 85.0707C65.6678 85.3858 64.9418 85.5433 64.1884 85.5433C63.0103 85.5433 62.065 85.2282 61.3527 84.5981C60.654 83.9542 60.3047 83.0364 60.3047 81.8446C60.3047 81.5432 60.339 81.1665 60.4075 80.7144L61.5787 74.1184H63.4281L62.3185 80.4678C62.2637 80.7555 62.2363 81.0569 62.2363 81.372C62.2363 82.2076 62.4623 82.8446 62.9144 83.283C63.3801 83.7076 64.024 83.92 64.8459 83.92C65.8322 83.92 66.6679 83.6117 67.3528 82.9953C68.0515 82.3788 68.4967 81.4816 68.6885 80.3035V80.3651L69.7981 74.1184H71.668ZM76.7979 85.5638C75.6197 85.5638 74.654 85.283 73.9005 84.7214C73.1471 84.1597 72.7704 83.4063 72.7704 82.461C72.7704 82.2829 72.7772 82.1528 72.7909 82.0706H74.6197C74.5649 82.6597 74.7362 83.1391 75.1334 83.509C75.5444 83.8789 76.1335 84.0638 76.9006 84.0638C77.6677 84.0638 78.2842 83.92 78.75 83.6323C79.2294 83.3309 79.4691 82.9131 79.4691 82.3788C79.4691 81.9268 79.2774 81.5706 78.8938 81.3103C78.5102 81.05 77.9212 80.7692 77.1266 80.4678C76.428 80.2076 75.8526 79.961 75.4006 79.7281C74.9485 79.4952 74.5649 79.1733 74.2499 78.7623C73.9348 78.3377 73.7772 77.8034 73.7772 77.1596C73.7772 76.5294 73.9553 75.9677 74.3115 75.4746C74.6814 74.9814 75.1882 74.6047 75.8321 74.3444C76.4896 74.0704 77.2362 73.9335 78.0719 73.9335C79.2226 73.9335 80.1678 74.2211 80.9075 74.7965C81.6473 75.3718 82.0171 76.1253 82.0171 77.0568C82.0171 77.2349 82.0103 77.3719 81.9966 77.4678H80.2089L80.2294 77.2212C80.2294 76.6732 80.0171 76.2417 79.5924 75.9266C79.1815 75.5979 78.6335 75.4335 77.9486 75.4335C77.2773 75.4335 76.7225 75.5842 76.2841 75.8856C75.8595 76.1869 75.6471 76.591 75.6471 77.0979C75.6471 77.5774 75.8458 77.9541 76.2431 78.2281C76.6403 78.502 77.2568 78.8034 78.0924 79.1322C78.7911 79.4062 79.3527 79.6596 79.7774 79.8925C80.202 80.1117 80.5651 80.4199 80.8664 80.8172C81.1678 81.2144 81.3185 81.7144 81.3185 82.3172C81.3185 82.9747 81.1199 83.5501 80.7226 84.0433C80.339 84.5364 79.8048 84.9131 79.1198 85.1734C78.4349 85.4337 77.6609 85.5638 76.7979 85.5638ZM86.8349 72.2896C86.5336 72.2896 86.2801 72.1937 86.0746 72.0019C85.8829 71.7964 85.787 71.543 85.787 71.2416C85.787 70.8306 85.9377 70.4813 86.239 70.1936C86.5404 69.8923 86.8897 69.7416 87.287 69.7416C87.6021 69.7416 87.8555 69.8375 88.0473 70.0293C88.2391 70.221 88.335 70.4745 88.335 70.7896C88.335 71.2005 88.1843 71.5567 87.8829 71.8581C87.5815 72.1457 87.2322 72.2896 86.8349 72.2896ZM87.4308 74.1184L85.4376 85.3789H83.5677L85.5609 74.1184H87.4308ZM96.1453 73.9129C97.3097 73.9129 98.2412 74.228 98.9399 74.8581C99.6385 75.4746 99.9878 76.3787 99.9878 77.5705C99.9878 78.0089 99.9536 78.3993 99.8851 78.7418L98.7138 85.3789H96.8645L97.9946 79.0089C98.0494 78.7212 98.0768 78.4199 98.0768 78.1048C98.0768 77.2691 97.844 76.6321 97.3782 76.1938C96.9261 75.7554 96.2891 75.5362 95.4672 75.5362C94.4809 75.5362 93.6384 75.8445 92.9397 76.4609C92.2548 77.0774 91.8096 77.9746 91.6041 79.1527V79.1116L90.4945 85.3789H88.6246L90.6178 74.1184H92.4877L92.2 75.7417C92.6658 75.1527 93.248 74.7006 93.9466 74.3855C94.6453 74.0704 95.3781 73.9129 96.1453 73.9129ZM108.652 73.9335C109.597 73.9335 110.412 74.1184 111.097 74.4883C111.796 74.8444 112.323 75.3513 112.68 76.0088C113.049 76.6527 113.234 77.3924 113.234 78.2281C113.234 78.5157 113.2 78.8651 113.132 79.276C113.077 79.6322 112.988 80.0021 112.864 80.3856H103.864C103.837 80.6596 103.823 80.8583 103.823 80.9816C103.823 81.9268 104.104 82.6665 104.666 83.2008C105.241 83.7213 105.988 83.9816 106.905 83.9816C107.714 83.9816 108.419 83.7967 109.022 83.4268C109.638 83.0432 110.104 82.5364 110.419 81.9062H112.433C111.94 82.9884 111.179 83.872 110.152 84.557C109.138 85.2282 107.96 85.5638 106.618 85.5638C105.207 85.5638 104.07 85.1597 103.207 84.3515C102.357 83.5296 101.933 82.4131 101.933 81.0021C101.933 80.6048 101.974 80.1802 102.056 79.7281C102.261 78.5637 102.679 77.5431 103.309 76.6664C103.94 75.7897 104.714 75.1184 105.631 74.6526C106.563 74.1732 107.57 73.9335 108.652 73.9335ZM111.241 79.0295C111.282 78.7555 111.303 78.502 111.303 78.2692C111.303 77.3924 111.022 76.7143 110.46 76.2349C109.912 75.7554 109.193 75.5157 108.303 75.5157C107.344 75.5157 106.474 75.8308 105.693 76.4609C104.912 77.0774 104.385 77.9335 104.111 79.0295H111.241ZM118.477 85.5638C117.298 85.5638 116.333 85.283 115.579 84.7214C114.826 84.1597 114.449 83.4063 114.449 82.461C114.449 82.2829 114.456 82.1528 114.47 82.0706H116.298C116.244 82.6597 116.415 83.1391 116.812 83.509C117.223 83.8789 117.812 84.0638 118.579 84.0638C119.346 84.0638 119.963 83.92 120.429 83.6323C120.908 83.3309 121.148 82.9131 121.148 82.3788C121.148 81.9268 120.956 81.5706 120.573 81.3103C120.189 81.05 119.6 80.7692 118.805 80.4678C118.107 80.2076 117.531 79.961 117.079 79.7281C116.627 79.4952 116.244 79.1733 115.929 78.7623C115.613 78.3377 115.456 77.8034 115.456 77.1596C115.456 76.5294 115.634 75.9677 115.99 75.4746C116.36 74.9814 116.867 74.6047 117.511 74.3444C118.168 74.0704 118.915 73.9335 119.751 73.9335C120.901 73.9335 121.847 74.2211 122.586 74.7965C123.326 75.3718 123.696 76.1253 123.696 77.0568C123.696 77.2349 123.689 77.3719 123.675 77.4678H121.888L121.908 77.2212C121.908 76.6732 121.696 76.2417 121.271 75.9266C120.86 75.5979 120.312 75.4335 119.627 75.4335C118.956 75.4335 118.401 75.5842 117.963 75.8856C117.538 76.1869 117.326 76.591 117.326 77.0979C117.326 77.5774 117.524 77.9541 117.922 78.2281C118.319 78.502 118.935 78.8034 119.771 79.1322C120.47 79.4062 121.031 79.6596 121.456 79.8925C121.881 80.1117 122.244 80.4199 122.545 80.8172C122.847 81.2144 122.997 81.7144 122.997 82.3172C122.997 82.9747 122.799 83.5501 122.401 84.0433C122.018 84.5364 121.483 84.9131 120.799 85.1734C120.114 85.4337 119.34 85.5638 118.477 85.5638ZM129.212 85.5638C128.034 85.5638 127.068 85.283 126.315 84.7214C125.562 84.1597 125.185 83.4063 125.185 82.461C125.185 82.2829 125.192 82.1528 125.205 82.0706H127.034C126.979 82.6597 127.151 83.1391 127.548 83.509C127.959 83.8789 128.548 84.0638 129.315 84.0638C130.082 84.0638 130.699 83.92 131.164 83.6323C131.644 83.3309 131.884 82.9131 131.884 82.3788C131.884 81.9268 131.692 81.5706 131.308 81.3103C130.925 81.05 130.336 80.7692 129.541 80.4678C128.842 80.2076 128.267 79.961 127.815 79.7281C127.363 79.4952 126.979 79.1733 126.664 78.7623C126.349 78.3377 126.192 77.8034 126.192 77.1596C126.192 76.5294 126.37 75.9677 126.726 75.4746C127.096 74.9814 127.603 74.6047 128.247 74.3444C128.904 74.0704 129.651 73.9335 130.486 73.9335C131.637 73.9335 132.582 74.2211 133.322 74.7965C134.062 75.3718 134.432 76.1253 134.432 77.0568C134.432 77.2349 134.425 77.3719 134.411 77.4678H132.623L132.644 77.2212C132.644 76.6732 132.432 76.2417 132.007 75.9266C131.596 75.5979 131.048 75.4335 130.363 75.4335C129.692 75.4335 129.137 75.5842 128.699 75.8856C128.274 76.1869 128.062 76.591 128.062 77.0979C128.062 77.5774 128.26 77.9541 128.657 78.2281C129.055 78.502 129.671 78.8034 130.507 79.1322C131.205 79.4062 131.767 79.6596 132.192 79.8925C132.616 80.1117 132.979 80.4199 133.281 80.8172C133.582 81.2144 133.733 81.7144 133.733 82.3172C133.733 82.9747 133.534 83.5501 133.137 84.0433C132.753 84.5364 132.219 84.9131 131.534 85.1734C130.849 85.4337 130.075 85.5638 129.212 85.5638Z" fill="white"/>
</svg>
