<svg width="158" height="84" viewBox="0 0 158 84" fill="none" xmlns="http://www.w3.org/2000/svg">
<rect x="0.947266" y="0.142578" width="156.974" height="82.618" rx="6.50109" transform="rotate(-0.0520859 0.947266 0.142578)" fill="#FB8C00"/>
<path d="M20.7474 53.422C21.2441 50.5368 22.2958 47.9701 23.9026 45.7219C25.537 43.4459 27.5464 41.6827 29.9308 40.4323C32.3151 39.1542 34.8525 38.5139 37.5431 38.5115C40.6775 38.5086 43.244 39.2968 45.2426 40.8761C47.2688 42.4276 48.5745 44.5899 49.1595 47.3632L46.9959 47.3652C46.5224 45.1743 45.4252 43.4278 43.7042 42.1257C42.011 40.8235 39.8607 40.1736 37.2534 40.176C34.9511 40.1781 32.7742 40.721 30.7226 41.8046C28.6709 42.8883 26.9248 44.4293 25.4843 46.4278C24.0715 48.4262 23.1305 50.757 22.6614 53.4203C22.4958 54.419 22.4135 55.3899 22.4144 56.333C22.4163 58.4411 22.8479 60.2714 23.7092 61.824C24.5704 63.3488 25.7642 64.5266 27.2906 65.3573C28.8447 66.188 30.6203 66.6025 32.6174 66.6007C34.8365 66.5987 36.9302 66.0975 38.8987 65.0971C40.8949 64.0967 42.5857 62.6806 43.9709 60.8486C45.3838 58.9889 46.3666 56.8105 46.9191 54.3136L33.8961 54.3255L34.1859 52.7857L49.1228 52.7721L48.8743 54.0206C48.322 56.7394 47.2425 59.1813 45.6356 61.3464C44.0565 63.4836 42.1025 65.1774 39.7737 66.4277C37.4448 67.6503 34.9628 68.2628 32.3277 68.2652C29.97 68.2674 27.8892 67.7838 26.0853 66.8146C24.3092 65.8454 22.9211 64.4737 21.9209 62.6993C20.9484 60.8973 20.4611 58.8312 20.459 56.5012C20.458 55.4472 20.5542 54.4208 20.7474 53.422ZM65.9296 45.0596C67.8435 45.0578 69.4665 45.4308 70.7986 46.1785C72.1584 46.8985 73.1718 47.8823 73.8386 49.1299C74.5332 50.3497 74.8812 51.7224 74.8825 53.248C74.8831 53.9137 74.8282 54.524 74.7178 55.0789C74.5523 56.0776 74.3865 56.8267 74.2205 57.3261L54.7069 57.3438C54.5967 58.2316 54.5418 58.8696 54.5422 59.2579C54.5443 61.6434 55.2672 63.4734 56.7107 64.7481C58.1543 66.0227 59.9717 66.659 62.163 66.657C64.3543 66.655 66.2955 66.1124 67.9865 65.0291C69.7052 63.918 70.9243 62.419 71.6438 60.5322L73.5993 60.5304C72.7138 62.8335 71.2315 64.7071 69.1525 66.1514C67.1012 67.5679 64.6747 68.2774 61.8732 68.28C59.0994 68.2825 56.8658 67.4801 55.1723 65.8729C53.5066 64.2656 52.6724 62.075 52.6699 59.3012C52.6691 58.4413 52.7515 57.5537 52.9171 56.6382C53.331 54.28 54.1613 52.2267 55.4079 50.4781C56.6546 48.7294 58.1789 47.3966 59.9811 46.4796C61.8109 45.5349 63.7938 45.0615 65.9296 45.0596ZM72.7214 55.8712C72.9148 55.0666 73.0111 54.2483 73.0104 53.4161C73.0084 51.2248 72.2995 49.5473 70.8838 48.3836C69.4959 47.2199 67.734 46.639 65.5982 46.6409C64.0171 46.6424 62.4918 46.9905 61.0223 47.6853C59.5529 48.3801 58.2779 49.4214 57.1973 50.8093C56.1168 52.1972 55.3694 53.8899 54.9552 55.8874L72.7214 55.8712ZM92.3499 44.8691C94.6521 44.867 96.4973 45.4895 97.8853 46.7364C99.2733 47.9556 99.9684 49.7718 99.9706 52.185C99.9713 52.934 99.8888 53.7662 99.7232 54.6817L97.4053 67.9148L95.5745 67.9165L97.8926 54.8082C98.0305 53.9204 98.0992 53.1853 98.0987 52.6028C98.0968 50.6057 97.5407 49.0945 96.4303 48.0692C95.3198 47.0161 93.766 46.4905 91.7688 46.4923C89.4388 46.4944 87.4285 47.2175 85.7378 48.6614C84.0471 50.1053 82.884 52.2283 82.2486 55.0304L79.9719 67.9307L78.0996 67.9324L82.115 45.3361L83.9873 45.3344L83.1594 50.0784C84.101 48.3855 85.3758 47.0945 86.9838 46.2054C88.6195 45.3163 90.4082 44.8709 92.3499 44.8691ZM109.823 40.2765C109.434 40.2768 109.115 40.1662 108.865 39.9445C108.615 39.6951 108.49 39.3762 108.49 38.9879C108.489 38.4331 108.683 37.9753 109.071 37.6143C109.459 37.2256 109.903 37.0311 110.402 37.0306C110.79 37.0302 111.11 37.1548 111.359 37.4042C111.637 37.6536 111.776 37.9724 111.776 38.3608C111.777 38.9155 111.569 39.3734 111.153 39.7344C110.765 40.0953 110.322 40.276 109.823 40.2765ZM109.91 45.3108L105.895 67.9071L104.023 67.9088L108.038 45.3125L109.91 45.3108ZM126.593 45.0044C128.507 45.0027 130.13 45.3757 131.462 46.1234C132.822 46.8433 133.835 47.8271 134.502 49.0747C135.196 50.2946 135.544 51.6673 135.546 53.1929C135.546 53.8586 135.491 54.4689 135.381 55.0237C135.216 56.0224 135.05 56.7715 134.884 57.271L115.37 57.2887C115.26 58.1764 115.205 58.8144 115.205 59.2028C115.208 61.5882 115.93 63.4183 117.374 64.6929C118.818 65.9676 120.635 66.6039 122.826 66.6019C125.018 66.5999 126.959 66.0572 128.65 64.9739C130.369 63.8628 131.588 62.3639 132.307 60.477L134.263 60.4753C133.377 62.7783 131.895 64.652 129.816 66.0962C127.764 67.5127 125.338 68.2223 122.536 68.2248C119.763 68.2273 117.529 67.425 115.836 65.8177C114.17 64.2104 113.336 62.0199 113.333 59.2461C113.332 58.3862 113.415 57.4985 113.58 56.583C113.994 54.2249 114.825 52.1715 116.071 50.4229C117.318 48.6743 118.842 47.3415 120.644 46.4245C122.474 45.4797 124.457 45.0064 126.593 45.0044ZM133.385 55.8161C133.578 55.0115 133.674 54.1931 133.674 53.361C133.672 51.1697 132.963 49.4922 131.547 48.3285C130.159 47.1647 128.397 46.5839 126.261 46.5858C124.68 46.5872 123.155 46.9353 121.686 47.6301C120.216 48.3249 118.941 49.3663 117.861 50.7541C116.78 52.142 116.033 53.8347 115.618 55.8322L133.385 55.8161Z" fill="white"/>
<path fill-rule="evenodd" clip-rule="evenodd" d="M28.2833 14.2102C27.4246 14.2885 27.0548 14.4086 25.5847 15.0875C24.6838 15.5036 22.9105 17.1115 22.9109 17.5121C22.911 17.6755 22.8124 17.8094 22.6917 17.8095C22.5711 17.8096 22.4725 17.9964 22.4727 18.2245C22.4729 18.4527 22.3847 18.6395 22.2767 18.6396C22.0553 18.6398 21.7939 19.9831 21.772 21.2328C21.7529 22.3349 22.0491 23.8254 22.2874 23.8252C22.392 23.8251 22.478 24.0117 22.4782 24.2398C22.4784 24.468 22.5773 24.6546 22.698 24.6545C22.8186 24.6544 22.9175 24.7719 22.9176 24.9156C22.9179 25.2751 24.6538 26.9344 25.029 26.934C25.1962 26.9339 25.333 27.0204 25.3331 27.1262C25.3332 27.2322 25.8872 27.5142 26.564 27.753C28.4719 28.4258 33.106 28.2803 33.9889 27.5199C34.1036 27.4213 34.3325 27.3404 34.498 27.3403C34.8982 27.3399 35.4254 26.8246 35.425 26.434C35.4246 26.0051 32.9891 21.5338 32.7559 21.534C32.6528 21.5341 32.5684 21.6275 32.5685 21.7416C32.5686 21.8633 31.8087 21.9497 30.7272 21.9507C28.8 21.9524 28.6193 21.8636 28.6185 20.9151C28.618 20.4008 29.6133 20.2114 31.3838 20.389C32.8458 20.5358 33.4448 20.3048 33.4441 19.595C33.444 19.4251 33.5178 19.2551 33.6084 19.2169C33.8693 19.1069 35.4156 16.1336 35.4153 15.7424C35.415 15.3937 34.0718 14.6878 33.4098 14.6884C33.2332 14.6886 32.9947 14.6064 32.88 14.5057C32.6363 14.2921 29.5581 14.0941 28.2833 14.2102ZM52.2221 14.5846C51.9859 15.1683 52.0836 27.3216 52.328 27.7526C52.5343 28.116 52.811 28.1533 55.2903 28.151L58.0252 28.1486L58.0188 21.1999L58.0125 14.2512L55.1837 14.2538C52.8067 14.2559 52.3337 14.3088 52.2221 14.5846ZM65.7757 14.7235C65.5201 14.9735 65.0336 15.3649 64.6946 15.5934C64.3556 15.8218 63.8741 16.1981 63.6247 16.4296C63.375 16.6611 62.8237 17.0524 62.3996 17.2992C61.9755 17.5462 61.391 17.9875 61.1008 18.2803C60.8106 18.5728 60.4907 18.8123 60.39 18.8123C60.1085 18.8126 58.8953 19.9686 58.8956 20.2362C58.8957 20.3787 59.2894 20.4727 59.8831 20.4722L60.8704 20.4713L60.8722 22.4246C60.8741 24.5092 61.3331 25.9991 62.1815 26.6746C62.4088 26.8554 62.7759 27.1449 62.9974 27.3175C64.1582 28.222 66.9718 28.3815 68.6109 27.6355L69.4333 27.2612L69.4315 25.2229C69.4305 24.0876 69.3324 23.1278 69.2101 23.0565C69.0894 22.9861 68.9907 23.0165 68.9908 23.1239C68.991 23.3685 67.9907 23.5612 67.4333 23.424C67.0745 23.3356 67.0161 23.122 67.015 21.8934L67.0137 20.4657L67.9572 20.4649C68.476 20.4644 69.019 20.3519 69.1637 20.2149C69.3107 20.0755 69.4262 19.4079 69.4256 18.7004C69.4249 17.9929 69.3082 17.3255 69.1609 17.1865C69.016 17.0497 68.4728 16.9382 67.954 16.9387L67.0105 16.9395L67.0093 15.5913C67.0082 14.4407 66.9517 14.2449 66.6241 14.256C66.4128 14.2633 66.0311 14.4735 65.7757 14.7235ZM98.3856 17.3167L98.3884 20.4189L99.9792 20.4785L101.57 20.538L101.611 23.9605C101.634 25.8428 101.661 27.5489 101.67 27.7515C101.685 28.0898 101.945 28.1153 104.813 28.0598L107.939 27.9995L107.996 24.2139L108.052 20.4284L109.693 20.4269L111.333 20.4254L111.33 17.3141L111.328 14.2027L104.855 14.2086L98.3828 14.2145L98.3856 17.3167ZM36.6469 17.2953C36.3792 17.9566 36.5086 25.4565 36.7958 25.9277C37.2267 26.6344 38.3284 27.6228 39.002 27.9066C40.3806 28.4876 42.5499 28.084 43.5984 27.0515C44.1707 26.4879 44.2012 26.4806 44.2016 26.9083C44.2018 27.156 44.3044 27.5392 44.4294 27.7598C44.6349 28.1217 44.9112 28.1605 47.2744 28.1583C49.6376 28.1562 49.9138 28.1169 50.1186 27.7546C50.2566 27.5103 50.3436 25.4333 50.3408 22.4502C50.3372 18.4776 50.2769 17.4911 50.0226 17.2514C49.7854 17.0276 49.064 16.9558 47.0645 16.9576C43.9168 16.9605 44.2117 16.5522 44.1396 21.0051L44.0893 24.1165L43.3445 24.1844C42.8965 24.2252 42.5261 24.143 42.4152 23.9778C42.3137 23.8269 42.228 22.2984 42.2245 20.5816C42.2203 18.4339 42.1362 17.3824 41.9549 17.2112C41.7814 17.0475 40.853 16.9633 39.2356 16.9648C37.1986 16.9666 36.757 17.023 36.6469 17.2953ZM70.7635 17.2211C70.4673 17.5593 70.5434 24.6825 70.8543 25.7333C71.5932 28.2294 75.7608 28.9781 77.8582 26.9918C78.1607 26.7051 78.4622 26.4706 78.528 26.4705C78.5938 26.4705 78.6479 26.8438 78.6483 27.3001L78.6491 28.1298L81.1542 28.1275C82.5321 28.1263 83.8156 28.0685 84.0064 27.999C84.3101 27.8886 84.3528 27.2209 84.3486 22.6472C84.3452 18.8594 84.2714 17.3532 84.0803 17.1729C83.7169 16.8299 78.8264 16.8344 78.4636 17.178C78.2806 17.3514 78.2015 18.4552 78.2036 20.8082L78.2067 24.1892L77.5329 24.1898C76.3394 24.1909 76.2492 23.9329 76.1794 20.3219L76.1159 17.0349L73.5703 16.9792C71.5697 16.9352 70.9686 16.9869 70.7635 17.2211ZM86.5887 17.0949C86.3736 17.2243 86.3251 18.476 86.3744 22.6406L86.4378 28.019L89.2901 28.0164L92.1423 28.0138L92.278 25.2135C92.3527 23.6733 92.4863 22.203 92.575 21.9463C92.7745 21.3678 93.3612 21.3422 93.7823 21.8933C94.036 22.2256 94.3507 22.3077 95.367 22.3068C96.066 22.3061 96.6348 22.2125 96.6347 22.0982C96.6346 21.9841 96.7464 21.8907 96.8831 21.8905C97.2974 21.8902 97.9324 21.0491 98.079 20.307C98.3664 18.8521 97.8877 17.9201 96.4688 17.172C95.4355 16.6274 93.7812 17.0442 92.9356 18.0624C92.4809 18.61 92.2434 18.5397 92.2428 17.8568C92.242 17.0429 91.8433 16.9167 89.291 16.9224C87.9574 16.9255 86.7416 17.0031 86.5887 17.0949ZM115.389 17.103C115.148 17.2013 114.704 17.2894 114.402 17.2988C114.1 17.3082 113.409 17.5265 112.867 17.7835L111.88 18.2509L111.817 19.8564C111.783 20.7397 111.833 21.4606 111.928 21.4589C112.024 21.4571 112.497 21.3206 112.979 21.1559C114.289 20.7086 116.441 20.7408 116.895 21.2146C117.095 21.4231 117.258 21.6563 117.258 21.7328C117.258 21.8094 116.625 21.8726 115.851 21.8733C114.218 21.8748 112.689 22.4059 112.179 23.1485C111.994 23.4188 111.723 23.984 111.577 24.4046C111.197 25.5041 111.903 27.0268 113.083 27.6521C114.053 28.1667 115.758 28.2382 116.595 27.7991C117.05 27.5602 117.205 27.5623 117.609 27.8125C117.97 28.0356 118.723 28.0928 120.692 28.0466L123.298 27.9855L123.354 24.2597C123.418 20.051 123.26 19.3642 121.969 18.248C121.559 17.8936 120.672 17.4435 119.998 17.2479C118.716 16.8761 116.145 16.7953 115.389 17.103ZM125.416 17.1353C125.223 17.3185 125.154 19.1001 125.159 23.8598C125.162 27.4213 125.225 30.4828 125.298 30.6632C125.41 30.9388 125.883 30.9908 128.26 30.9886L131.089 30.9861L131.088 29.3045C131.086 27.7818 131.122 27.6376 131.47 27.779C131.681 27.8646 132.447 27.9755 133.171 28.0251C135.399 28.1778 137.591 26.918 138.45 24.9906C139.06 23.6221 138.811 19.9881 138.042 19.0529C137.327 18.183 136.973 17.9054 135.966 17.4246C134.591 16.7679 133.369 16.724 132.14 17.2869C131.257 17.6913 131.25 17.6913 131.138 17.2878C131.034 16.9122 130.822 16.8815 128.352 16.8838C126.566 16.8854 125.592 16.9688 125.416 17.1353ZM132.742 21.7395C132.915 21.9022 133.056 22.4154 133.056 22.88L133.057 23.7245L132.07 23.7254L131.083 23.7263L131.082 22.8878C131.081 21.6132 131.962 21.0034 132.742 21.7395ZM117.219 24.7241C117.287 25.6031 117.285 25.6056 116.53 25.6063C115.897 25.6069 115.75 25.5184 115.629 25.0637C115.456 24.4138 116.04 23.7314 116.712 23.7986C117.062 23.8338 117.164 24.0206 117.219 24.7241Z" fill="white"/>
</svg>
