<svg width="401" height="401" viewBox="0 0 401 401" fill="none" xmlns="http://www.w3.org/2000/svg">
<rect width="401" height="401" fill="url(#paint0_linear_1946_178)"/>
<rect width="401" height="401" fill="url(#paint1_linear_1946_178)"/>
<rect width="401" height="401" fill="url(#paint2_linear_1946_178)"/>
<rect width="401" height="401" fill="url(#paint3_linear_1946_178)"/>
<path d="M228.786 162.705L231.374 170.761L227.691 186.986L210.862 205.416C228.068 206.457 245.133 201.758 259.381 192.056C259.381 192.056 265.877 149.829 226.898 149.829C216.53 156.741 207.649 161.52 197.664 161.5H198.07C188.085 161.52 179.204 156.741 168.836 149.829C129.857 149.829 136.353 192.056 136.353 192.056C168.764 211.614 183.024 204.101 227.691 186.986L229.695 175.549L151.516 179.934L168.764 176.984" fill="#FB8C00"/>
<path d="M259.328 192.058C259.328 192.058 265.825 149.831 226.846 149.831C216.477 156.743 207.593 161.518 197.611 161.499H198.017C188.032 161.518 179.152 156.743 168.783 149.831C129.804 149.831 136.301 192.058 136.301 192.058" fill="#FB8C00"/>
<path d="M227.764 149.831C219.325 156.279 209.289 160.308 198.734 161.486C241.163 162.827 241.163 179.069 243.638 192.062H260.247C260.247 192.062 266.743 149.831 227.764 149.831Z" fill="#FB8C00"/>
<path d="M260.24 192.058C260.24 192.058 222.053 221.376 192.881 201.682L227.683 186.984L231.366 170.759C231.366 170.759 260.522 162.755 260.24 192.058Z" fill="#FB8C00"/>
<path d="M197.863 142.274C218.205 142.274 234.695 121.663 234.695 96.2367C234.695 70.8109 218.205 50.1992 197.863 50.1992C177.521 50.1992 161.031 70.8109 161.031 96.2367C161.031 121.663 177.521 142.274 197.863 142.274Z" fill="#FB8C00"/>
<path d="M240.651 46.128C197.868 59.501 161.036 90.0411 161.036 90.0411C161.036 90.0411 148.173 72.6954 153.77 55.1971C153.77 55.1971 161.036 28.9609 196.114 28.9609C221.136 28.9609 233.781 39.2579 240.651 46.128C260.618 74.469 233.716 90.3172 233.716 90.3172C222.812 81.8217 212.345 72.78 202.354 63.2268" fill="white"/>
<path d="M240.65 46.1289C260.614 74.4699 233.715 90.3181 233.715 90.3181C222.811 81.8227 212.344 72.781 202.354 63.2277" fill="#F9F9F9"/>
<path d="M197.868 82.1589C196.145 82.1589 194.492 81.4744 193.274 80.2561C192.056 79.0378 191.371 77.3853 191.371 75.6624V62.6694C191.371 60.9464 192.056 59.294 193.274 58.0756C194.492 56.8573 196.145 56.1729 197.868 56.1729C199.591 56.1729 201.243 56.8573 202.461 58.0756C203.68 59.294 204.364 60.9464 204.364 62.6694V75.6624C204.364 77.3853 203.68 79.0378 202.461 80.2561C201.243 81.4744 199.591 82.1589 197.868 82.1589ZM227.69 186.986L213.359 192.934V175.897H229.694L227.69 186.986Z" fill="#FCEA2B"/>
<path d="M210.855 205.419C228.06 206.461 245.123 201.764 259.371 192.065C259.371 192.065 265.868 149.838 226.889 149.838C216.52 156.75 207.639 161.525 197.654 161.506H198.06C188.075 161.525 179.194 156.75 168.826 149.838C129.847 149.838 136.344 192.065 136.344 192.065C168.755 211.62 183.014 204.11 227.681 186.991L229.685 175.558L151.506 179.943" stroke="white" stroke-width="0.832988" stroke-linecap="round" stroke-linejoin="round"/>
<path d="M228.776 162.706L231.365 170.762L227.682 186.987" stroke="white" stroke-width="0.832988" stroke-linecap="round" stroke-linejoin="round"/>
<path d="M217.354 91.8158C217.354 93.1007 216.973 94.3568 216.259 95.4251C215.545 96.4934 214.531 97.3261 213.344 97.8178C212.157 98.3095 210.85 98.4382 209.59 98.1875C208.33 97.9368 207.172 97.3181 206.264 96.4096C205.355 95.501 204.737 94.3434 204.486 93.0832C204.235 91.823 204.364 90.5168 204.856 89.3297C205.347 88.1427 206.18 87.128 207.248 86.4142C208.317 85.7003 209.573 85.3193 210.858 85.3193C212.581 85.3193 214.233 86.0038 215.451 87.2221C216.67 88.4404 217.354 90.0929 217.354 91.8158ZM191.368 91.8158C191.368 93.1007 190.987 94.3568 190.273 95.4251C189.559 96.4934 188.545 97.3261 187.358 97.8178C186.171 98.3095 184.864 98.4382 183.604 98.1875C182.344 97.9368 181.186 97.3181 180.278 96.4096C179.369 95.501 178.751 94.3434 178.5 93.0832C178.249 91.823 178.378 90.5168 178.87 89.3297C179.361 88.1427 180.194 87.128 181.262 86.4142C182.331 85.7003 183.587 85.3193 184.872 85.3193C186.594 85.3193 188.247 86.0038 189.465 87.2221C190.684 88.4404 191.368 90.0929 191.368 91.8158ZM197.865 124.305C193.964 124.267 190.128 123.313 186.665 121.518C185.894 121.132 185.308 120.457 185.036 119.639C184.763 118.821 184.827 117.929 185.213 117.159C185.598 116.388 186.274 115.802 187.091 115.53C187.909 115.258 188.801 115.321 189.572 115.707C192.119 117.081 194.968 117.8 197.863 117.8C200.757 117.8 203.606 117.081 206.154 115.707C206.925 115.321 207.818 115.258 208.636 115.53C209.453 115.803 210.129 116.389 210.515 117.16C210.9 117.931 210.964 118.824 210.691 119.642C210.419 120.46 209.832 121.136 209.061 121.521C205.599 123.314 201.763 124.268 197.865 124.305Z" fill="#2E2C43" fill-opacity="0.65"/>
<path d="M191.38 69.0119C187.223 71.513 183.357 73.9817 179.914 76.288C169.747 83.0768 162.991 88.4689 161.399 89.7357C161.172 89.9306 161.042 90.0281 161.042 90.0281C161.042 90.0281 148.179 72.6824 153.766 55.2068C153.766 55.2068 161.042 28.9609 196.123 28.9609C221.134 28.9609 233.77 39.2579 240.656 46.1442C258.782 71.8379 238.318 87.2346 234.355 89.8982C233.933 90.1905 233.705 90.3204 233.705 90.3204C233.705 90.3204 219.38 79.3413 204.374 65.1465" stroke="white" stroke-width="0.832988" stroke-linecap="round" stroke-linejoin="round"/>
<path d="M204.268 61.6722C215.893 55.3937 228.071 50.1963 240.648 46.1455" stroke="white" stroke-width="0.832988" stroke-linecap="round" stroke-linejoin="round"/>
<path d="M213.353 176.849V192.271M161.283 90.3282C161.077 92.316 160.974 94.3131 160.975 96.3115C160.975 121.739 177.466 142.349 197.807 142.349C218.147 142.349 234.635 121.739 234.635 96.3115C234.637 94.25 234.528 92.1898 234.31 90.1398M197.862 82.1589C196.139 82.1589 194.486 81.4744 193.268 80.2561C192.05 79.0378 191.365 77.3853 191.365 75.6624V62.6694C191.365 60.9464 192.05 59.294 193.268 58.0756C194.486 56.8573 196.139 56.1729 197.862 56.1729C199.585 56.1729 201.237 56.8573 202.455 58.0756C203.674 59.294 204.358 60.9464 204.358 62.6694V75.6624C204.358 77.3853 203.674 79.0378 202.455 80.2561C201.237 81.4744 199.585 82.1589 197.862 82.1589Z" stroke="white" stroke-width="0.832988" stroke-linecap="round" stroke-linejoin="round"/>
<rect x="60.6484" y="221.051" width="281.046" height="147.445" rx="11.1809" fill="#FB8C00" stroke="white"/>
<path d="M95.3283 315.663C96.2254 310.48 98.1193 305.87 101.01 301.833C103.95 297.746 107.564 294.581 111.85 292.338C116.136 290.046 120.696 288.899 125.531 288.899C131.162 288.899 135.772 290.32 139.361 293.161C142.999 295.952 145.341 299.839 146.388 304.823H142.501C141.653 300.886 139.685 297.746 136.595 295.403C133.555 293.061 129.692 291.89 125.007 291.89C120.871 291.89 116.958 292.862 113.27 294.805C109.582 296.749 106.442 299.515 103.851 303.103C101.309 306.692 99.6144 310.878 98.7672 315.663C98.4681 317.457 98.3186 319.201 98.3186 320.896C98.3186 324.684 99.0911 327.973 100.636 330.764C102.181 333.505 104.324 335.623 107.065 337.118C109.856 338.614 113.046 339.361 116.634 339.361C120.621 339.361 124.384 338.464 127.923 336.67C131.511 334.876 134.551 332.334 137.043 329.045C139.585 325.705 141.354 321.793 142.351 317.308H118.952L119.475 314.541H146.313L145.865 316.784C144.868 321.668 142.924 326.054 140.034 329.942C137.193 333.779 133.679 336.819 129.493 339.062C125.306 341.255 120.846 342.351 116.111 342.351C111.875 342.351 108.137 341.479 104.897 339.735C101.708 337.991 99.2157 335.524 97.4215 332.334C95.6772 329.094 94.805 325.381 94.805 321.195C94.805 319.301 94.9794 317.457 95.3283 315.663ZM176.524 300.711C179.962 300.711 182.878 301.384 185.27 302.73C187.712 304.026 189.531 305.795 190.728 308.038C191.974 310.23 192.597 312.697 192.597 315.439C192.597 316.635 192.497 317.731 192.298 318.728C191.999 320.522 191.699 321.868 191.4 322.765H156.339C156.14 324.36 156.04 325.506 156.04 326.204C156.04 330.49 157.336 333.779 159.927 336.072C162.519 338.364 165.783 339.511 169.721 339.511C173.658 339.511 177.147 338.539 180.187 336.595C183.277 334.602 185.47 331.91 186.765 328.521H190.279C188.684 332.658 186.018 336.022 182.28 338.614C178.592 341.155 174.231 342.426 169.197 342.426C164.213 342.426 160.201 340.981 157.161 338.09C154.171 335.2 152.676 331.262 152.676 326.278C152.676 324.733 152.825 323.139 153.124 321.494C153.872 317.258 155.367 313.57 157.61 310.43C159.853 307.29 162.594 304.898 165.833 303.253C169.123 301.558 172.686 300.711 176.524 300.711ZM188.709 320.148C189.058 318.703 189.232 317.233 189.232 315.738C189.232 311.8 187.962 308.785 185.42 306.692C182.928 304.599 179.763 303.552 175.926 303.552C173.085 303.552 170.344 304.175 167.702 305.421C165.061 306.667 162.768 308.536 160.824 311.028C158.881 313.52 157.535 316.56 156.788 320.148H188.709ZM223.995 300.412C228.132 300.412 231.446 301.534 233.938 303.776C236.43 305.969 237.676 309.234 237.676 313.57C237.676 314.915 237.526 316.41 237.227 318.055L233.041 341.828H229.751L233.938 318.279C234.187 316.685 234.312 315.364 234.312 314.317C234.312 310.729 233.315 308.013 231.321 306.169C229.328 304.275 226.537 303.328 222.948 303.328C218.762 303.328 215.149 304.624 212.108 307.215C209.068 309.807 206.975 313.619 205.829 318.653L201.717 341.828H198.353L205.604 301.235H208.969L207.473 309.757C209.168 306.717 211.461 304.399 214.351 302.804C217.292 301.21 220.506 300.412 223.995 300.412ZM255.397 292.189C254.699 292.189 254.126 291.989 253.677 291.591C253.229 291.142 253.005 290.569 253.005 289.871C253.005 288.875 253.353 288.052 254.051 287.404C254.749 286.707 255.546 286.358 256.443 286.358C257.141 286.358 257.714 286.582 258.163 287.031C258.661 287.479 258.91 288.052 258.91 288.75C258.91 289.747 258.537 290.569 257.789 291.217C257.091 291.865 256.294 292.189 255.397 292.189ZM255.546 301.235L248.295 341.828H244.931L252.182 301.235H255.546ZM285.521 300.711C288.96 300.711 291.876 301.384 294.268 302.73C296.71 304.026 298.529 305.795 299.725 308.038C300.971 310.23 301.594 312.697 301.594 315.439C301.594 316.635 301.495 317.731 301.295 318.728C300.996 320.522 300.697 321.868 300.398 322.765H265.337C265.137 324.36 265.038 325.506 265.038 326.204C265.038 330.49 266.333 333.779 268.925 336.072C271.517 338.364 274.781 339.511 278.718 339.511C282.656 339.511 286.144 338.539 289.184 336.595C292.274 334.602 294.467 331.91 295.763 328.521H299.277C297.682 332.658 295.016 336.022 291.278 338.614C287.59 341.155 283.229 342.426 278.195 342.426C273.211 342.426 269.199 340.981 266.159 338.09C263.169 335.2 261.674 331.262 261.674 326.278C261.674 324.733 261.823 323.139 262.122 321.494C262.87 317.258 264.365 313.57 266.608 310.43C268.85 307.29 271.591 304.898 274.831 303.253C278.12 301.558 281.684 300.711 285.521 300.711ZM297.707 320.148C298.056 318.703 298.23 317.233 298.23 315.738C298.23 311.8 296.959 308.785 294.418 306.692C291.926 304.599 288.761 303.552 284.923 303.552C282.082 303.552 279.341 304.175 276.7 305.421C274.058 306.667 271.766 308.536 269.822 311.028C267.878 313.52 266.533 316.56 265.785 320.148H297.707Z" fill="white"/>
<path fill-rule="evenodd" clip-rule="evenodd" d="M109.238 245.871C107.695 246.01 107.03 246.225 104.388 247.443C102.768 248.189 99.5794 251.075 99.5794 251.795C99.5794 252.088 99.4021 252.329 99.1852 252.329C98.9684 252.329 98.791 252.664 98.791 253.074C98.791 253.484 98.6321 253.819 98.4382 253.819C98.0404 253.819 97.5685 256.233 97.5272 258.478C97.4909 260.458 98.0207 263.137 98.4488 263.137C98.6369 263.137 98.791 263.472 98.791 263.882C98.791 264.292 98.9684 264.628 99.1852 264.628C99.4021 264.628 99.5794 264.839 99.5794 265.097C99.5794 265.743 102.696 268.727 103.37 268.727C103.67 268.727 103.916 268.883 103.916 269.073C103.916 269.263 104.911 269.771 106.127 270.201C109.554 271.413 117.88 271.159 119.468 269.795C119.674 269.618 120.085 269.473 120.383 269.473C121.102 269.473 122.05 268.548 122.05 267.846C122.05 267.075 117.681 259.037 117.262 259.037C117.077 259.037 116.925 259.205 116.925 259.41C116.925 259.629 115.559 259.783 113.616 259.783C110.154 259.783 109.829 259.623 109.829 257.918C109.829 256.994 111.618 256.656 114.799 256.978C117.425 257.244 118.502 256.83 118.502 255.554C118.502 255.249 118.635 254.944 118.798 254.875C119.267 254.678 122.05 249.338 122.05 248.635C122.05 248.009 119.638 246.738 118.448 246.738C118.131 246.738 117.702 246.59 117.497 246.409C117.059 246.025 111.529 245.664 109.238 245.871ZM152.25 246.583C151.824 247.631 151.98 269.468 152.418 270.243C152.788 270.896 153.286 270.963 157.74 270.963H162.654V258.478V245.993H157.572C153.301 245.993 152.451 246.087 152.25 246.583ZM176.602 246.854C176.142 247.303 175.268 248.005 174.658 248.415C174.049 248.825 173.183 249.501 172.734 249.916C172.285 250.332 171.294 251.034 170.532 251.477C169.769 251.92 168.718 252.712 168.196 253.237C167.675 253.762 167.099 254.192 166.918 254.192C166.413 254.192 164.231 256.267 164.231 256.748C164.231 257.004 164.938 257.174 166.005 257.174H167.779V260.683C167.779 264.429 168.601 267.107 170.125 268.322C170.533 268.647 171.192 269.168 171.589 269.478C173.674 271.105 178.729 271.396 181.675 270.059L183.153 269.388V265.725C183.153 263.685 182.979 261.961 182.759 261.832C182.542 261.706 182.365 261.76 182.365 261.953C182.365 262.393 180.567 262.737 179.566 262.49C178.922 262.33 178.817 261.946 178.817 259.739V257.174H180.512C181.445 257.174 182.42 256.972 182.68 256.726C182.945 256.476 183.153 255.277 183.153 254.006C183.153 252.735 182.945 251.535 182.68 251.285C182.42 251.039 181.445 250.838 180.512 250.838H178.817V248.415C178.817 246.348 178.716 245.996 178.127 246.016C177.748 246.028 177.061 246.406 176.602 246.854ZM235.19 251.567V257.141L238.048 257.25L240.906 257.36L240.975 263.509C241.013 266.892 241.058 269.957 241.074 270.321C241.101 270.929 241.569 270.975 246.721 270.88L252.339 270.777L252.446 263.975L252.553 257.174H255.501H258.449V251.583V245.993H246.819H235.19V251.567ZM124.26 251.428C123.778 252.615 123.998 266.091 124.514 266.938C125.287 268.209 127.265 269.986 128.474 270.497C130.95 271.544 134.849 270.822 136.734 268.969C137.764 267.957 137.818 267.944 137.818 268.712C137.818 269.157 138.002 269.846 138.227 270.243C138.595 270.893 139.091 270.963 143.338 270.963C147.584 270.963 148.08 270.893 148.449 270.243C148.697 269.804 148.857 266.072 148.857 260.712C148.857 253.574 148.75 251.802 148.293 251.371C147.867 250.968 146.571 250.838 142.979 250.838C137.323 250.838 137.854 250.105 137.717 258.105L137.621 263.696L136.283 263.817C135.478 263.889 134.813 263.741 134.614 263.444C134.431 263.173 134.28 260.426 134.276 257.341C134.273 253.483 134.123 251.593 133.797 251.285C133.486 250.991 131.818 250.838 128.912 250.838C125.252 250.838 124.458 250.939 124.26 251.428ZM185.56 251.35C185.027 251.957 185.152 264.756 185.709 266.645C187.033 271.131 194.52 272.483 198.291 268.917C198.835 268.403 199.377 267.982 199.496 267.982C199.614 267.982 199.711 268.653 199.711 269.473V270.963H204.212C206.687 270.963 208.994 270.862 209.337 270.737C209.883 270.539 209.96 269.339 209.96 261.122C209.96 254.316 209.83 251.609 209.487 251.285C208.835 250.668 200.048 250.668 199.395 251.285C199.066 251.596 198.922 253.579 198.922 257.807V263.882H197.711C195.567 263.882 195.405 263.419 195.286 256.93L195.177 251.024L190.603 250.92C187.009 250.838 185.929 250.93 185.56 251.35ZM213.994 251.149C213.608 251.381 213.518 253.63 213.6 261.113L213.705 270.777H218.83H223.955L224.203 265.746C224.34 262.978 224.583 260.337 224.742 259.876C225.102 258.837 226.156 258.792 226.912 259.783C227.367 260.38 227.932 260.528 229.758 260.528C231.014 260.528 232.036 260.361 232.036 260.155C232.036 259.95 232.237 259.783 232.483 259.783C233.227 259.783 234.37 258.272 234.634 256.939C235.153 254.326 234.294 252.65 231.746 251.304C229.891 250.324 226.917 251.07 225.397 252.898C224.579 253.881 224.152 253.754 224.152 252.527C224.152 251.065 223.436 250.838 218.85 250.844C216.454 250.847 214.269 250.984 213.994 251.149ZM265.742 251.211C265.308 251.387 264.51 251.545 263.968 251.561C263.426 251.577 262.184 251.968 261.208 252.429L259.434 253.268L259.319 256.152C259.256 257.739 259.345 259.035 259.516 259.032C259.688 259.029 260.538 258.784 261.406 258.489C263.759 257.687 267.625 257.749 268.44 258.601C268.799 258.976 269.093 259.395 269.093 259.532C269.093 259.67 267.954 259.783 266.563 259.783C263.63 259.783 260.882 260.734 259.964 262.068C259.63 262.553 259.143 263.568 258.881 264.324C258.196 266.299 259.462 269.036 261.581 270.161C263.323 271.087 266.387 271.219 267.89 270.431C268.709 270.002 268.987 270.007 269.713 270.457C270.361 270.858 271.714 270.962 275.252 270.882L279.934 270.777L280.042 264.083C280.164 256.521 279.88 255.286 277.562 253.279C276.826 252.641 275.233 251.831 274.022 251.479C271.72 250.809 267.1 250.659 265.742 251.211ZM283.758 251.285C283.41 251.614 283.285 254.815 283.285 263.367C283.285 269.766 283.392 275.267 283.524 275.591C283.725 276.087 284.575 276.181 288.846 276.181H293.928V273.16C293.928 270.424 293.993 270.165 294.618 270.419C294.998 270.573 296.373 270.774 297.673 270.864C301.677 271.142 305.617 268.882 307.164 265.421C308.263 262.963 307.82 256.433 306.44 254.751C305.157 253.187 304.521 252.688 302.713 251.822C300.243 250.64 298.049 250.559 295.84 251.568C294.252 252.294 294.239 252.294 294.038 251.568C293.852 250.893 293.472 250.838 289.033 250.838C285.824 250.838 284.074 250.986 283.758 251.285ZM296.913 259.57C297.223 259.862 297.476 260.785 297.476 261.62V263.137H295.702H293.928V261.63C293.928 259.34 295.513 258.246 296.913 259.57ZM269.017 264.907C269.138 266.487 269.134 266.491 267.778 266.491C266.64 266.491 266.377 266.332 266.159 265.515C265.85 264.347 266.9 263.121 268.107 263.243C268.736 263.307 268.92 263.643 269.017 264.907Z" fill="white"/>
<defs>
<linearGradient id="paint0_linear_1946_178" x1="200.5" y1="0" x2="200.5" y2="401" gradientUnits="userSpaceOnUse">
<stop stop-color="#FB8C00"/>
<stop offset="1" stop-color="#FE4820"/>
</linearGradient>
<linearGradient id="paint1_linear_1946_178" x1="200.5" y1="0" x2="200.5" y2="401" gradientUnits="userSpaceOnUse">
<stop stop-color="#FB8C00"/>
<stop offset="1" stop-color="#FE4820"/>
</linearGradient>
<linearGradient id="paint2_linear_1946_178" x1="200.5" y1="0" x2="200.5" y2="401" gradientUnits="userSpaceOnUse">
<stop stop-color="#FB8C00"/>
<stop offset="1" stop-color="#FE4820"/>
</linearGradient>
<linearGradient id="paint3_linear_1946_178" x1="200.5" y1="0" x2="200.5" y2="401" gradientUnits="userSpaceOnUse">
<stop stop-color="#FB8C00"/>
<stop offset="1" stop-color="#FE4820"/>
</linearGradient>
</defs>
</svg>
