<svg width="37" height="34" viewBox="0 0 37 34" fill="none" xmlns="http://www.w3.org/2000/svg">
<path d="M36.1835 5.3242C35.9712 4.29512 35.5572 3.35694 34.9827 2.60308C34.4082 1.84922 33.6932 1.30599 32.9089 1.02748C30.0376 0 18.4816 0 18.4816 0C18.4816 0 6.92493 0.0311013 4.05362 1.05858C3.26931 1.33711 2.55429 1.88037 1.97977 2.63426C1.40525 3.38816 0.991272 4.32638 0.779064 5.3555C-0.0894385 12.0495 -0.426347 22.2496 0.802912 28.6758C1.01514 29.7049 1.42913 30.6431 2.00365 31.3969C2.57817 32.1508 3.29317 32.694 4.07747 32.9725C6.94877 34 18.5051 34 18.5051 34C18.5051 34 30.0613 34 32.9325 32.9725C33.7168 32.694 34.4318 32.1508 35.0064 31.397C35.5809 30.6431 35.9949 29.7049 36.2072 28.6758C37.1232 21.9723 37.4055 11.7785 36.1835 5.3242Z" fill="#FF0000"/>
<path d="M14.4883 24.3666L27.1093 17.0564L14.4883 9.74609V24.3666Z" fill="white"/>
</svg>
